<svg version="1.1" xmlns="http://www.w3.org/2000/svg" xmlns:xlink="http://www.w3.org/1999/xlink" width="168.81036" height="251.59108" viewBox="0,0,168.81036,251.59108"><defs><linearGradient x1="202.10517" y1="196.7985" x2="202.10517" y2="255.93883" gradientUnits="userSpaceOnUse" id="color-1"><stop offset="0" stop-color="#030404"/><stop offset="1" stop-color="#586c76"/></linearGradient></defs><g transform="translate(-197.06345,-53.76591)"><g data-paper-data="{&quot;isPaintingLayer&quot;:true}" fill-rule="nonzero" stroke-linejoin="miter" stroke-miterlimit="10" stroke-dasharray="" stroke-dashoffset="0" style="mix-blend-mode: normal"><path d="M335.94362,53.76591c0,0 -0.14157,0.62587 -0.42125,1.27324c-0.44121,1.02131 -1.04904,1.62069 -1.04904,1.62069c0,0 2.925,0.94001 6.2197,0.94476c3.48957,0.00502 7.10305,-1.69214 7.10305,-1.69214c0,0 -0.3274,0.9684 -1.04024,2.04248c-0.68319,1.02943 -1.65622,1.94577 -1.65622,1.94577c0,0 0.99007,-0.17994 2.29308,-0.77168c1.46287,-0.66434 3.58589,-2.07121 3.58589,-2.07121c0,0 -0.11097,1.584 -1.49012,3.62782c-1.10062,1.63106 -2.55014,2.51729 -2.55014,2.51729c0,0 2.34734,1.13798 5.89907,4.02486c2.97992,2.42212 3.99776,5.11186 3.99776,5.11186l-1.43314,-0.43758c0,0 3.70229,7.15093 0.77109,15.86719c-3.17431,9.219 -10.35924,10.89972 -10.35924,10.89972l1.9518,0.74565c0,0 -1.37799,0.88895 -2.19516,1.28014c-0.81718,0.39118 -2.17792,0.52141 -2.17792,0.52141l1.03054,1.05561c0,0 -5.19564,1.5923 -10.52947,0.63955c-5.83511,-0.99979 -10.75464,-4.58934 -10.75464,-4.58934c0,0 0.65186,1.77217 0.95729,2.61249c0.32749,0.90095 0.89864,2.75818 0.89864,2.75818c0,0 -3.75386,-2.94725 -8.09174,-6.54555c-3.16368,-2.62429 -23.49764,-6.4565 -14.61642,-30.0128c7.54122,-18.94577 27.59491,-11.54869 28.86525,-11.30051c0.48435,0.09463 4.79158,-2.06789 4.79158,-2.06789z" data-paper-data="{&quot;index&quot;:null}" fill="#000000" stroke="none" stroke-width="1.5" stroke-linecap="butt"/><path d="M283.25255,77.23748c0,0 4.37503,-2.02182 4.60278,-2.45964c0.59733,-1.14828 7.30533,-21.44287 26.8231,-15.53788c23.95899,7.72933 14.28794,26.02213 14.3696,30.13176c0.11197,5.63493 0.07857,10.40741 0.07857,10.40741c0,0 -1.09688,-1.60385 -1.59758,-2.42133c-0.46699,-0.76246 -1.44707,-2.37645 -1.44707,-2.37645c0,0 -0.25725,6.08445 -3.11065,11.27157c-2.57788,4.76572 -7.06039,7.8377 -7.06039,7.8377l-0.18365,-1.46376c0,0 -0.94964,0.98324 -1.76475,1.37872c-0.81511,0.39547 -2.36897,0.91949 -2.36897,0.91949l0.63278,-1.99126c0,0 -5.79107,4.57292 -14.97985,1.31218c-8.64408,-3.13768 -11.93091,-10.48883 -11.93091,-10.48883l-0.55061,1.39362c0,0 -1.46978,-2.47193 -1.50779,-6.31187c-0.0453,-4.57676 0.52703,-7.12185 0.52703,-7.12185c0,0 -1.59629,0.58168 -3.55783,0.42639c-2.45792,-0.19459 -3.76607,-1.09466 -3.76607,-1.09466c0,0 2.42317,-0.78411 3.85421,-1.51447c1.27466,-0.65054 2.03226,-1.31287 2.03226,-1.31287c0,0 -1.32299,0.19019 -2.55385,0.08322c-1.28427,-0.1116 -2.24573,-0.45884 -2.24573,-0.45884c0,0 3.57882,-1.76909 5.74898,-4.50175c2.04898,-2.58007 3.13606,-5.45367 3.13606,-5.45367c0,0 -0.84753,0.102 -1.92129,-0.18918c-0.68063,-0.18457 -1.25838,-0.46376 -1.25838,-0.46376z" data-paper-data="{&quot;index&quot;:null}" fill="#000000" stroke="none" stroke-width="1.5" stroke-linecap="butt"/><path d="M281.17328,304.24872c0,0 -0.63536,-94.38387 -0.79335,-118.01201c-0.05451,-8.15261 8.18688,-36.76129 40.20201,-36.9211c31.60235,-0.15775 39.85672,29.48704 39.84884,36.89673c-0.07659,46.24274 0.65429,117.98648 0.65429,117.98648l-10.49667,0.09614l-0.15882,-114.84311c0,0 0.07549,-3.0993 -2.81625,-3.15415c-3.43441,-0.06514 -2.94538,3.11562 -2.94538,3.11562l0.20548,114.86995l-48.21366,0.07222l-0.30539,-115.23309c0,0 0.27949,-2.919 -2.8856,-2.93443c-3.11083,-0.01515 -2.81569,2.90899 -2.81569,2.90899l0.35311,115.0668z" fill="#ffffff" stroke="#000000" stroke-width="2" stroke-linecap="butt"/><path d="M275.92694,103.88009c0,0 6.16329,-5.92187 6.29161,-6.78761c0.33654,-2.27063 -0.16776,-40.17317 35.96775,-41.57382c44.63633,-0.91362 39.01489,35.34872 41.53088,42.1903c3.44981,9.38084 6.15664,17.40016 6.15664,17.40016c0,0 -2.76715,-2.05351 -4.0797,-3.13397c-1.2242,-1.00773 -3.80143,-3.14585 -3.80143,-3.14585c0,0 3.09111,10.3481 1.31092,20.69498c-1.5623,9.48098 -7.29782,17.22543 -7.29782,17.22543l-1.15522,-2.34735c0,0 -1.02266,2.19794 -2.16005,3.33274c-1.1374,1.13479 -3.43873,2.91273 -3.43873,2.91273l-0.09205,-3.70421c0,0 -7.0601,11.01795 -24.35066,10.87154c-16.30625,-0.25547 -26.07151,-10.6752 -26.07151,-10.6752l-0.1162,2.65484c0,0 -3.89477,-3.29276 -6.18145,-9.70754c-2.72545,-7.64567 -3.23946,-12.24324 -3.23946,-12.24324c0,0 -2.33908,1.89916 -5.71704,2.7744c-4.23278,1.09673 -6.94665,0.34526 -6.94665,0.34526c0,0 3.60795,-2.71717 5.58396,-4.76989c1.76007,-1.8284 2.64658,-3.37722 2.64658,-3.37722c0,0 -2.10758,1.0847 -4.23277,1.61795c-2.21739,0.5564 -4.03008,0.53093 -4.03008,0.53093c0,0 4.97492,-5.03728 7.03074,-10.87429c1.94102,-5.51108 2.09972,-10.95731 2.09972,-10.95731c0,0 -1.36165,0.66163 -3.33013,0.79513c-1.24776,0.08463 -2.37785,-0.0489 -2.37785,-0.0489z" fill="#000000" stroke="none" stroke-width="1.5" stroke-linecap="butt"/><path d="M355.62502,168.125l-4.49943,101.22342l-61.06676,-2.35668l-4.93381,-100.36674c0,0 4.29165,-9.98054 8.95592,-13.40101c3.97505,-2.91503 8.54408,-4.84899 8.54408,-4.84899c0,0 2.38265,27.49095 16.5139,27.36979c17.70484,-0.15179 17.4861,-26.61979 17.4861,-26.61979c0,0 9.07449,2.82449 11.625,5.375c3.48584,3.48584 7.375,13.625 7.375,13.625z" fill="#2d373c" stroke="none" stroke-width="0" stroke-linecap="butt"/><path d="M317.62502,268.125l1.75,-56.25l35.5,-26l-4,83.25z" data-paper-data="{&quot;index&quot;:null}" fill="#283135" stroke="none" stroke-width="0" stroke-linecap="butt"/><path d="M289.87502,267.125l-4,-83.25l34,28l0.75,56.5z" fill="#283135" stroke="none" stroke-width="0" stroke-linecap="butt"/><path d="M349.37502,156.375c0,0 -9.91267,28.64886 -30.51202,28.47232c-20.9185,-0.17927 -24.98798,-31.47232 -24.98798,-31.47232c0,0 2.90645,-2.33968 4.27646,-2.97901c1.03451,-0.48277 3.22354,-0.52099 3.22354,-0.52099c0,0 -3.50313,27.38753 17.2396,27.78599c15.76144,0.30277 24.0104,-26.28599 24.0104,-26.28599c0,0 4.74492,1.83883 5.99114,2.76196c0.8112,0.60089 0.75886,2.23804 0.75886,2.23804z" fill="#283135" stroke="none" stroke-width="0" stroke-linecap="butt"/><path d="M314.12502,268.125v-90.25h9.25v90.25z" fill="#283135" stroke="none" stroke-width="0" stroke-linecap="butt"/><path d="M343.91669,152.08333c0,0 -6.14711,28.62481 -24.49045,28.83602c-19.22218,0.22133 -21.67622,-30.16935 -21.67622,-30.16935l5.83333,-2.83333c0,0 0.44042,27.09488 15.3202,27.91149c15.19669,0.834 18.01314,-26.41149 18.01314,-26.41149c0,0 3.85996,1.16323 4.91353,1.56187c0.9991,0.37804 2.08647,1.10479 2.08647,1.10479z" fill="#546770" stroke="none" stroke-width="0" stroke-linecap="butt"/><path d="M292.71281,115.20171c-0.57709,-7.29323 0.335,-17.15448 0.335,-17.15448c0,0 3.41059,-0.04124 13.91429,-3.14424c8.0696,-2.38394 20.54731,-9.48722 20.54731,-9.48722c0,0 -2.16005,3.00503 -3.40781,4.46015c-1.32651,1.54696 -3.99292,4.56297 -3.99292,4.56297c0,0 7.838,-1.66761 14.67476,-4.72931c8.56837,-3.53575 10.59252,-6.05309 12.95042,-4.5927c2.7829,1.72362 1.03006,23.1827 0.71846,28.74062c-0.42163,5.66922 -2.53327,9.49969 -3.15031,12.52053c-0.61704,3.02084 -0.4096,6.13662 -2.20622,16.0397c-1.12121,6.18021 -4.16183,8.92466 -10.01942,14.66081c-5.85759,5.73616 -9.05378,9.25275 -13.01359,9.32173c-3.81077,0.06639 -8.93565,-5.1002 -13.93542,-10.38244c-5.32393,-5.62474 -8.87489,-8.47713 -9.71551,-15.13975c-0.75707,-6.00039 -0.77653,-9.90853 -1.12266,-15.24835c-0.25298,-3.90273 -2.26119,-6.44504 -2.57636,-10.42801z" fill="#ffffff" stroke="#000000" stroke-width="1.5" stroke-linecap="butt"/><path d="M340.78283,100.08135c0,0 1.52429,0.31807 4.2558,1.11029c2.49492,0.72361 4.44935,1.74403 4.44935,1.74403l0.1951,1.17035c0,0 -7.24963,-3.12997 -15.1158,-2.4706c-6.2896,0.52724 -9.96319,2.8124 -9.96319,2.8124l0.04575,-4.17683c0,0 3.12748,-1.70421 7.86366,-1.85557c4.90428,-0.15672 8.09084,0.59125 8.09084,0.59125z" data-paper-data="{&quot;index&quot;:null}" fill="#000000" stroke="none" stroke-width="1.5" stroke-linecap="butt"/><path d="M328.01867,143.0689c0.5704,0.21186 3.08357,1.39942 6.02385,2.59586c2.9637,1.20597 7.21362,2.29294 7.19412,2.4605c-0.02476,0.21265 -10.43477,0.22694 -13.67937,0.63224c-2.71902,0.33964 -6.68867,0.70564 -6.68867,0.70564c0,0 -7.10401,-1.16169 -13.27235,-2.44521c-4.94371,-1.02869 -10.39929,-1.66108 -10.40995,-1.75461c-0.01439,-0.12613 3.86835,-0.71071 6.82417,-1.39467c1.14585,-0.49661 5.43971,-1.48513 5.43971,-1.48513c0,0 4.95585,-0.27766 7.60826,0.579c2.84203,0.91791 2.83546,2.44556 3.0831,2.46906c0,0 1.18436,-1.74932 2.36886,-2.10461c1.18451,-0.35528 5.08219,-0.41633 5.50828,-0.25808z" fill="#ffffff" stroke="#000000" stroke-width="1.4" stroke-linecap="butt"/><path d="M309.37068,147.6225c5.09114,1.02674 11.91756,2.80736 11.91756,2.80736c0,0 5.78976,-1.55585 8.44678,-1.8344c2.05992,-0.21596 11.216,-0.70654 11.26026,-0.33377c0.04328,0.36447 -9.03119,12.90033 -21.14808,12.44714c-13.76954,-0.43578 -22.86459,-15.13559 -22.82675,-15.30472c0.03784,-0.16913 7.2591,1.19165 12.35024,2.2184z" fill="#ffffff" stroke="#000000" stroke-width="1.9" stroke-linecap="butt"/><path d="M320.34496,144.62881c-1.03376,0 -3.5381,-3.26042 -3.7867,-5.3637c-0.22243,-1.88186 1.31512,-3.82799 3.7867,-3.82799c2.47159,0 4.2021,0.49077 4.02999,4.18853c-0.14607,3.13818 -1.55841,5.00317 -4.02999,5.00317z" fill="#ffffff" stroke="#000000" stroke-width="1.15" stroke-linecap="butt"/><path d="M323.94705,114.53509c0,0 0.1026,3.96976 0.00576,7.12662c-0.19174,6.25113 -1.08147,27.7607 -1.08147,27.7607l-2.98167,0.00864c0,0 -0.80294,-4.17274 -1.12322,-9.49979c-0.43353,-7.21063 -0.4495,-16.29321 -0.76344,-19.63229c-0.29758,-3.16513 -0.89593,-5.71453 -0.89593,-5.71453" fill="#ffffff" stroke="#000000" stroke-width="1.3" stroke-linecap="round"/><path d="M294.41246,125.32493c0,0 -4.93211,-3.51705 -6.16417,-8.97502c-1.29636,-5.74284 -1.46118,-9.7328 0.48013,-9.99193c1.94131,-0.25915 2.70321,2.37692 3.73262,8.35569c1.0294,5.97877 1.95143,10.61127 1.95143,10.61127z" data-paper-data="{&quot;index&quot;:null}" fill="#ffffff" stroke="#000000" stroke-width="1" stroke-linecap="butt"/><path d="M294.20986,121.37737c0,0 -3.56385,-2.92338 -4.31816,-8.45061c-0.42079,-3.08327 2.15675,-2.28016 2.15675,-2.28016" fill="none" stroke="#000000" stroke-width="0.25" stroke-linecap="round"/><path d="M297.22328,114.72147c0.07093,-4.89188 4.83834,-8.93609 10.21137,-8.8582c5.37302,0.0779 9.02724,4.2484 8.95632,9.14029c-0.07093,4.89188 -4.12352,8.79439 -9.49655,8.7165c-5.37302,-0.0779 -9.74207,-4.1067 -9.67114,-8.99859z" fill="#ffffff" stroke="#000000" stroke-width="1.4" stroke-linecap="butt"/><path d="M301.66093,114.83941c0.03999,-2.75843 2.30855,-4.96213 5.06696,-4.92214c2.75843,0.03999 4.96213,2.30855 4.92214,5.06696c-0.03999,2.75843 -2.30854,4.96213 -5.06696,4.92214c-2.75843,-0.03999 -4.96213,-2.30855 -4.92214,-5.06696z" fill="#000000" stroke="none" stroke-width="1.5" stroke-linecap="butt"/><path d="M324.27956,114.7222c0.20353,-4.88817 4.45264,-8.85847 9.77048,-8.85847c5.31783,0 9.27453,3.96607 9.27453,8.85847c0,4.8924 -3.88585,9.07104 -9.69964,9.14188c-5.52997,0.06739 -9.55792,-4.03692 -9.34537,-9.14188z" fill="#ffffff" stroke="#000000" stroke-width="1.4" stroke-linecap="butt"/><path d="M328.8823,114.80775c0,-2.81845 2.2848,-5.10325 5.10325,-5.10325c2.81845,0 5.10325,2.2848 5.10325,5.10325c0,2.81845 -2.28479,5.10325 -5.10325,5.10325c-2.81845,0 -5.10325,-2.2848 -5.10325,-5.10325z" fill="#000000" stroke="none" stroke-width="1.5" stroke-linecap="butt"/><path d="M297.15485,114.18929c0,0 0.06357,-9.01512 10.60111,-8.8249c9.47101,0.16586 9.55554,9.40723 9.55554,9.40723z" fill="#ffffff" stroke="#000000" stroke-width="1.15" stroke-linecap="butt"/><path d="M323.90191,114.32019c0,0 -0.24686,-9.4582 11.19813,-9.1032c9.71427,0.33347 9.54677,9.65229 9.54677,9.65229z" fill="#ffffff" stroke="#000000" stroke-width="1.15" stroke-linecap="butt"/><path d="M300.68469,104.17763c0,0 3.36963,-1.819 8.03244,-2.28178c5.16698,-0.51283 7.76823,-0.06628 7.76823,-0.06628l0.29508,4.13747c0,0 -3.83554,-0.68065 -8.01795,-0.52113c-5.59346,0.21333 -6.64488,1.43293 -10.89774,1.89119c-3.64408,0.39266 -6.73723,0.15884 -6.73723,0.15884l-0.02589,-1.23155c0,0 3.59517,0.07398 5.23371,-0.06836c1.35239,-0.11749 3.9757,-0.93808 3.9757,-0.93808z" fill="#000000" stroke="none" stroke-width="1.5" stroke-linecap="butt"/><path d="M348.64563,114.71366c1.0294,-5.97877 1.7913,-8.61483 3.73262,-8.35569c1.94131,0.25914 1.77649,4.24909 0.48013,9.99193c-1.23206,5.45797 -6.16417,8.97502 -6.16417,8.97502c0,0 0.92203,-4.6325 1.95143,-10.61127z" data-paper-data="{&quot;index&quot;:null}" fill="#ffffff" stroke="#000000" stroke-width="1" stroke-linecap="butt"/><path d="M349.05822,110.6466c0,0 2.57754,-0.80312 2.15675,2.28016c-0.75431,5.52723 -4.31816,8.45061 -4.31816,8.45061" data-paper-data="{&quot;index&quot;:null}" fill="none" stroke="#000000" stroke-width="0.25" stroke-linecap="round"/><path d="M197.06346,255.93883v-59.14034h10.0834v59.14034z" fill="url(#color-1)" stroke="none" stroke-width="0" stroke-linecap="butt"/><path d="M210.24944,246.62971v-76.1158h20.47706v76.1158z" fill="#8395a1" stroke="none" stroke-width="0" stroke-linecap="butt"/><path d="M213.04177,249.36769v-67.90187h20.78732v67.90187z" fill="#566580" stroke="none" stroke-width="0" stroke-linecap="butt"/><path d="M215.21358,254.84364v-64.6163h19.85654v64.6163z" fill="#3d496d" stroke="none" stroke-width="0" stroke-linecap="butt"/><path d="M217.54052,263.05757v-62.42591h19.39115v62.42591z" fill="#2c2f5d" stroke="none" stroke-width="0" stroke-linecap="butt"/><path d="M239.87913,236.22539v-67.90187h20.94244v67.90187z" fill="#8c82a1" stroke="none" stroke-width="0" stroke-linecap="butt"/><path d="M242.67145,242.79654v-64.0687h19.39115v64.0687z" fill="#705d86" stroke="none" stroke-width="0" stroke-linecap="butt"/><path d="M245.15353,251.55807v-62.97351h19.23602v62.97351z" fill="#654779" stroke="none" stroke-width="0" stroke-linecap="butt"/><path d="M248.7215,260.86719v-59.68793h18.30525v59.68793z" fill="#53305f" stroke="none" stroke-width="0" stroke-linecap="butt"/><g stroke="none" stroke-width="0" stroke-linecap="butt"><path d="M288.63901,138.48847c0,0 -1.31355,-21.76877 -1.31355,-31.88681c0,-8.63455 1.31355,-25.07951 1.31355,-25.07951c0,0 22.82348,-5.37418 33.49552,-5.37418c10.7815,0 30.86841,5.37418 30.86841,5.37418c0,0 1.64194,16.93037 1.64194,26.51263c0,9.40314 -1.64194,30.45369 -1.64194,30.45369c0,0 -21.67581,3.58278 -32.51035,3.58278c-10.61563,0 -31.85358,-3.58278 -31.85358,-3.58278z" fill="#415058"/><path d="M292.51106,135.37606c0,0 -1.17077,-19.4026 -1.17077,-28.42085c0,-7.69601 1.17077,-22.35348 1.17077,-22.35348c0,0 20.34267,-4.79003 29.8547,-4.79003c9.6096,0 27.51315,4.79003 27.51315,4.79003c0,0 1.46346,15.09012 1.46346,23.63082c0,8.38105 -1.46346,27.14351 -1.46346,27.14351c0,0 -19.31975,3.19335 -28.97662,3.19335c-9.46176,0 -28.39123,-3.19335 -28.39123,-3.19335z" fill="#000000"/></g><path d="M317.41668,268.25v-90.5h2.83333v90.5z" fill="#546770" stroke="none" stroke-width="0" stroke-linecap="butt"/><path d="M299.05358,175.89286c0,4.90153 -8.00883,7.73214 -10.83929,7.73214c-1.2393,0 -0.6305,-3.21362 -0.83929,-6.66611c-0.26807,-4.43268 -0.71428,-9.4946 -0.71428,-9.4946c0,0 1.95682,-4.5947 3.02468,-6.37447c0.80035,-1.33392 2.8146,-3.35767 2.8146,-3.35767c0,0 2.9888,7.89991 4.68059,13.41871c0.52722,1.71986 1.87298,3.57743 1.87298,4.74201z" fill="#313c42" stroke="none" stroke-width="0" stroke-linecap="butt"/><path d="M300.14286,180.17857c0,0.82843 -1.69913,7.21429 -4.5,7.21429c-2.80087,0 -5.78571,-0.95729 -5.78571,-1.78571c0,-0.82843 2.14792,-0.9868 4.78571,-1.92857c2.80087,-1 5.5,-4.32843 5.5,-3.5z" fill="#313c42" stroke="none" stroke-width="0" stroke-linecap="butt"/><path d="M312.00002,186.60714c0,0 0.50212,4.39446 0.54442,6.92185c0.05122,3.06045 -0.2587,10.14958 -0.2587,10.14958c0,0 -6.38278,-4.09326 -10.36023,-8.21379c-1.92537,-1.99463 -3.06834,-4.32379 -3.06834,-5.57193c0,-1.30946 1.11578,-1.90211 1.64399,-3.43079c1.01534,-2.9385 1.78458,-6.64063 1.78458,-6.64063z" fill="#313c42" stroke="none" stroke-width="0" stroke-linecap="butt"/><path d="M343.3688,171.92885c1.09884,-2.29075 2.80071,-4.57155 4.04197,-6.88725c1.57882,-2.94546 2.58897,-5.68257 2.58897,-5.68257c0,0 1.68963,2.30171 2.28193,3.74014c0.79027,1.91922 2.0394,6.75452 2.0394,6.75452c0,0 -0.05385,4.65291 -0.98051,8.99593c-0.72175,3.38266 0.40059,6.93687 -0.82483,6.7519c-2.79876,-0.42245 -12.43825,-4.41671 -11.70669,-9.26333c0.17382,-1.15153 1.78175,-2.78743 2.55976,-4.40934z" data-paper-data="{&quot;index&quot;:null}" fill="#313c42" stroke="none" stroke-width="0" stroke-linecap="butt"/><path d="M335.00002,181.46429c0,4.06324 -10.35714,24.78571 -10.35714,24.78571c0,0 0.07143,-8.72248 0.07143,-12.78571c0,-4.06324 0.5,-8.07143 0.5,-8.07143c0,0 1.72261,-0.66013 4.02234,-1.10877c2.64089,-0.5152 5.76338,-4.99171 5.76338,-2.8198z" fill="#313c42" stroke="none" stroke-width="0" stroke-linecap="butt"/><path d="M328.64286,203.53571c0,0 8.16505,-23 10.57143,-23c1.20602,0 2.73426,3.18682 5.24149,4.94093c2.49546,1.74587 5.9728,2.05907 5.9728,2.05907z" fill="#313c42" stroke="none" stroke-width="0" stroke-linecap="butt"/><path d="M289.85715,267.25l-3.28571,-70.42857c0,0 5.08805,17.09986 8.73846,20.6814c3.90397,3.83031 14.11868,5.17574 14.11868,5.17574c0,0 -3.32474,11.39849 -2.84601,16.44108c0.78864,8.30699 7.5603,28.98749 7.5603,28.98749z" fill="#232b2f" stroke="none" stroke-width="0" stroke-linecap="butt"/><path d="M325.57145,268.35715c0,0 8.27166,-18.6805 9.06029,-26.98749c0.47872,-5.04258 -2.84601,-16.44108 -2.84601,-16.44108c0,0 10.2147,-1.34543 14.11868,-5.17574c3.65042,-3.58154 8.48846,-20.9314 8.48846,-20.9314l-3.03571,70.67857z" data-paper-data="{&quot;index&quot;:null}" fill="#232b2f" stroke="none" stroke-width="0" stroke-linecap="butt"/><path d="M295.43289,195.57893c1.57143,1.65575 5.22984,3.11743 5.37193,4.15725c0.8067,5.90366 -2.46754,16.48561 -3.94335,16.48561c-1.73575,0 -8.42857,-14.83546 -8.42857,-19.21429c0,-4.37883 -0.71429,-9.07143 -0.71429,-9.07143c0,0 4.69992,4.46674 7.71429,7.64286z" fill="#2d373c" stroke="none" stroke-width="0" stroke-linecap="butt"/><path d="M314.29004,214.36464c0,0.4576 -1.77307,1.27675 -1.57037,2.15334c0.34113,1.47529 2.6136,3.11327 1.62006,3.46426c-1.64284,0.58036 -5.42443,0.79549 -8.04246,0.34077c-3.77912,-0.65638 -6.37221,-2.24408 -7.00723,-2.24408c-1.49906,0 1.28571,-3.80348 2.28571,-8c1.00588,-4.22119 -0.07049,-9.42857 1.42857,-9.42857c1.49906,0 11.28571,9.37491 11.28571,13.71429z" fill="#2d373c" stroke="none" stroke-width="0" stroke-linecap="butt"/><path d="M315.71861,239.0075c0,8.24482 0,26.35714 0,26.35714c0,0 -7.28571,-18.68375 -7.28571,-26.92857c0,-8.24482 2.89543,-15.78571 4,-15.78571c0.56803,0 3.2236,0.19612 3.58768,3.03456c0.3439,2.68111 -0.30197,9.31768 -0.30197,13.32258z" fill="#2d373c" stroke="none" stroke-width="0" stroke-linecap="butt"/><path d="M352.73081,188.73607c0,0 -0.71429,4.99122 -0.71429,9.6487c0,4.65748 -6.69282,20.43701 -8.42857,20.43701c-1.47582,0 -4.75005,-11.25535 -3.94335,-17.53469c0.14209,-1.10599 3.80049,-2.66069 5.37192,-4.4218c3.01437,-3.37824 7.71429,-8.12922 7.71429,-8.12922z" data-paper-data="{&quot;index&quot;:null}" fill="#2d373c" stroke="none" stroke-width="0" stroke-linecap="butt"/><path d="M335.94427,202.65036c1.82301,0 0.51403,5.20739 1.73729,9.42858c1.2161,4.19653 4.60268,8 2.77966,8c-0.77224,0 -3.92572,1.58769 -8.52151,2.24408c-3.18379,0.45471 -7.7826,0.23959 -9.78046,-0.34077c-1.20823,-0.35098 1.55532,-1.98897 1.97017,-3.46426c0.24649,-0.87659 -1.90974,-1.69574 -1.90974,-2.15334c0,-4.33938 11.90158,-13.71429 13.72459,-13.71429z" data-paper-data="{&quot;index&quot;:null}" fill="#2d373c" stroke="none" stroke-width="0" stroke-linecap="butt"/><path d="M322.16785,227.48492c0.4872,-2.83844 4.0408,-3.03457 4.80092,-3.03457c1.4781,0 5.35266,7.5409 5.35266,15.78572c0,8.24482 -9.74949,26.92857 -9.74949,26.92857c0,0 0,-18.11232 0,-26.35714c0,-4.00491 -0.86428,-10.64147 -0.40409,-13.32258z" data-paper-data="{&quot;index&quot;:null}" fill="#2d373c" stroke="none" stroke-width="0" stroke-linecap="butt"/><path d="M289.67106,267.21987l-1.84236,-41.85948c0,0 4.55792,3.543 6.75775,3.543c2.51074,0 8.77309,-1.13376 8.77309,-1.13376c0,0 -2.60389,10.03152 -1.834,16.41241c0.90789,7.52458 5.66043,23.46299 5.66043,23.46299z" fill="#1a2123" stroke="none" stroke-width="0" stroke-linecap="butt"/><path d="M291.08248,215.93963c0,4.0447 0.82082,5.33752 -0.31032,5.33752c-1.13114,0 -2.54463,-2.78236 -2.54463,-6.82706c0,-4.0447 -0.31032,-8.44073 -0.31032,-8.44073c0,0 3.16527,5.88557 3.16527,9.93027z" fill="#283135" stroke="none" stroke-width="0" stroke-linecap="butt"/><path d="M292.03335,214.79697c0,0.41764 1.59197,2.32645 2.07114,4.41407c0.22104,0.96299 -0.35476,2.24405 -0.43035,2.93312c-0.29893,2.72494 -1.43715,2.03819 -2.16514,2.03819c-1.31116,0 -3.22779,0.31052 -3.22779,-1.06163c0,-1.37215 0.92062,-0.91934 2.23178,-0.91934c0.3583,0 1.44344,-0.24331 1.69398,-0.98256c0.1819,-0.53671 0.6784,-1.26215 0.68352,-2.11643c0.01364,-2.27501 -0.85715,-5.03036 -0.85715,-4.3054z" fill="#283135" stroke="none" stroke-width="0" stroke-linecap="butt"/><path d="M299.93946,226.60673c0,0.76618 -2.37296,1.245 -5.30016,1.245c-1.2765,0 -2.18006,-0.57857 -3.03391,-0.97369c-1.10414,-0.51094 -1.98168,-0.9064 -1.98168,-1.33846c0,-0.76618 2.07473,1.09197 4.16187,-0.96043c1.44694,-1.42286 1.23032,-4.96613 2.1309,-4.8104c1.23655,0.21382 4.02298,6.39467 4.02298,6.83798z" fill="#283135" stroke="none" stroke-width="0" stroke-linecap="butt"/><path d="M307.97863,223.83214c0,0 -0.53073,4.16377 -1.70743,4.23301c-2.41803,0.14229 -2.62624,-1.34712 -2.62624,-1.34712c0,0 -1.39456,0.75206 -2.35727,0.22706c-0.71418,-0.38947 -1.03074,-2.02559 -1.20594,-2.33038c-0.61679,-1.07303 -2.38817,-3.8773 -1.20943,-3.8773c0.58076,0 2.51524,1.03582 4.61724,1.79804c2.1643,0.78481 4.48907,1.29668 4.48907,1.29668z" fill="#283135" stroke="none" stroke-width="0" stroke-linecap="butt"/><path d="M306.2648,230.84892c0,0.73063 -0.933,4.29897 -0.89691,7.00482c0.05272,3.95216 1.0444,7.27961 0.70543,7.27961c-0.42392,0 -3.54415,0.61421 -3.72177,-1.14706c-0.11018,-1.0925 -0.06954,-4.86177 0.16024,-6.78022c0.21379,-1.78502 1.30545,-7.85069 1.87651,-7.85069c0.57106,0 1.87651,-0.30423 1.87651,1.49355z" fill="#283135" stroke="none" stroke-width="0" stroke-linecap="butt"/><path d="M307.1839,248.58c0,3.42635 5.28486,18.38211 5.28486,18.38211l-4.74871,-0.38296c0,0 -5.14093,-20.14372 -3.82961,-20.14372c1.31132,0 3.29346,-1.28177 3.29346,2.14458z" fill="#283135" stroke="none" stroke-width="0" stroke-linecap="butt"/><path d="M332.82869,268.44503c0,0 5.75254,-14.33841 6.66044,-21.86299c0.7699,-6.38089 -0.834,-16.41241 -0.834,-16.41241c0,0 5.26235,1.13376 7.77309,1.13376c2.19983,0 6.75775,-3.54299 6.75775,-3.54299l-1.84236,41.85948z" data-paper-data="{&quot;index&quot;:null}" fill="#1a2123" stroke="none" stroke-width="0" stroke-linecap="butt"/><path d="M352.22223,211.75863c0,0 -0.78581,4.33634 -1.22499,8.35713c-0.43918,4.02079 -2.14642,6.63322 -3.27088,6.5104c-1.12446,-0.12282 -0.16811,-1.31887 0.27107,-5.33966c0.43918,-4.02079 4.2248,-9.52787 4.2248,-9.52787z" data-paper-data="{&quot;index&quot;:null}" fill="#283135" stroke="none" stroke-width="0" stroke-linecap="butt"/><path d="M345.52875,224.55238c0.00513,0.85428 0.50163,1.57972 0.68353,2.11643c0.25054,0.73925 1.33569,0.98256 1.69398,0.98256c1.31117,0 2.23179,-0.4528 2.23179,0.91934c0,1.37214 -1.91663,1.06163 -3.22779,1.06163c-0.72799,0 -1.86622,0.68675 -2.16514,-2.03819c-0.07559,-0.68906 -0.65139,-1.97013 -0.43035,-2.93312c0.47918,-2.08762 2.07115,-3.99642 2.07115,-4.41407c0,-0.72496 -0.8708,2.03039 -0.85716,4.30541z" data-paper-data="{&quot;index&quot;:null}" fill="#283135" stroke="none" stroke-width="0" stroke-linecap="butt"/><path d="M342.54897,223.4331c0.87666,0.2584 0.36609,3.25762 1.03504,5.17352c0.96492,2.76359 3.48066,1.43061 3.14198,2.11787c-0.19099,0.38756 -1.23628,0.18772 -2.45254,0.15796c-0.94055,-0.02301 -3.50679,-1.23678 -4.65181,-1.80104c-2.62569,-1.29393 -3.20924,-2.8557 -2.87056,-3.54296c0.19596,-0.39765 4.5942,-2.46015 5.7979,-2.10535z" data-paper-data="{&quot;index&quot;:null}" fill="#283135" stroke="none" stroke-width="0" stroke-linecap="butt"/><path d="M338.06033,229.46804c0,0 -0.20821,1.4894 -2.62624,1.34712c-1.1767,-0.06924 -1.70744,-4.23301 -1.70744,-4.23301c0,0 0.99613,-1.33647 1.50751,-0.99593c0.41868,0.27881 0.59013,1.41276 1.2144,2.35075c0.56829,0.85387 1.61177,1.53108 1.61177,1.53108z" data-paper-data="{&quot;index&quot;:null}" fill="#283135" stroke="none" stroke-width="0" stroke-linecap="butt"/><path d="M336.8361,231.77205c0.57106,0 1.66271,6.06567 1.87651,7.85069c0.22978,1.91845 0.27041,5.68772 0.16024,6.78022c-0.17762,1.76127 -3.29784,1.14706 -3.72177,1.14706c-0.33898,0 0.6527,-3.32745 0.70542,-7.27961c0.03609,-2.70585 -0.89691,-6.27419 -0.89691,-7.00481c0,-1.79778 1.30545,-1.49355 1.87651,-1.49355z" data-paper-data="{&quot;index&quot;:null}" fill="#283135" stroke="none" stroke-width="0" stroke-linecap="butt"/><path d="M338.0367,248.94984c1.30299,0.14084 -6.07251,18.68878 -6.07251,18.68878l-4.76164,-0.14691c0,0 6.93459,-13.61329 7.32023,-16.86213c0.38565,-3.24884 2.21092,-1.82058 3.51391,-1.67974z" data-paper-data="{&quot;index&quot;:null}" fill="#283135" stroke="none" stroke-width="0" stroke-linecap="butt"/></g></g></svg>