<svg version="1.1" xmlns="http://www.w3.org/2000/svg" xmlns:xlink="http://www.w3.org/1999/xlink" width="34.17311" height="34.17311" viewBox="0,0,34.17311,34.17311"><g transform="translate(-222.91346,-162.9135)"><g data-paper-data="{&quot;isPaintingLayer&quot;:true}" stroke="none" stroke-miterlimit="10" stroke-dasharray="" stroke-dashoffset="0" style="mix-blend-mode: normal"><path d="M229.98313,162.9135h20.03378c3.9166,0 7.06966,3.15307 7.06966,7.06966v20.03379c0,3.91659 -3.15306,7.06966 -7.06966,7.06966h-20.03378c-3.91659,0 -7.06967,-3.15307 -7.06967,-7.06966v-20.03379c0,-3.91659 3.15308,-7.06966 7.06967,-7.06966z" fill-opacity="0.09677" fill="#191919" fill-rule="evenodd" stroke-width="4.43922" stroke-linecap="round" stroke-linejoin="round"/><path d="M230.36138,174.9656c4.05185,-4.05185 10.62118,-4.05184 14.67302,0.00001c4.05185,4.05185 4.05184,10.62118 0,14.67302c-4.05185,4.05185 -10.62118,4.05185 -14.67302,0.00001c-4.05185,-4.05185 -4.05184,-10.62119 0,-14.67303z" fill="#bfbfbf" fill-rule="nonzero" stroke-width="0" stroke-linecap="butt" stroke-linejoin="miter"/><path d="M234.9656,170.36138c4.05185,-4.05185 10.62118,-4.05185 14.67302,-0.00001c4.05185,4.05185 4.05184,10.62119 0,14.67303c-4.05185,4.05185 -10.62118,4.05184 -14.67302,-0.00001c-4.05185,-4.05185 -4.05184,-10.62118 0,-14.67302z" fill="#ffffff" fill-rule="nonzero" stroke-width="0" stroke-linecap="butt" stroke-linejoin="miter"/></g></g></svg>