<svg version="1.1" xmlns="http://www.w3.org/2000/svg" xmlns:xlink="http://www.w3.org/1999/xlink" width="364.95355" height="301.60338" viewBox="0,0,364.95355,301.60338"><g transform="translate(-43.57592,-31.32135)"><g data-paper-data="{&quot;isPaintingLayer&quot;:true}" fill-rule="nonzero" stroke-linejoin="miter" stroke-miterlimit="10" stroke-dasharray="" stroke-dashoffset="0" style="mix-blend-mode: normal"><path d="M261.76185,284.69247l-6.53415,-0.59966l4.25446,-46.35811c0,0 4.21897,-0.93852 5.40936,-0.82927c0.91348,0.08383 1.1248,1.42893 1.1248,1.42893z" fill="#000000" stroke="none" stroke-width="0" stroke-linecap="butt"/><path d="M287.41517,232.8381c0,0 2.40825,-0.30389 2.46673,-0.09666c0.02585,0.09157 0.35511,0.01942 0.65695,0.05805c0.41216,0.05276 0.83054,0.24111 0.88326,0.68168c0.23256,1.94367 0.81426,7.98814 0.69797,10.86702c-0.10127,2.50714 -0.90022,2.12614 -0.90022,2.12614c0,0 -10.3794,2.0198 -13.6909,2.76371c-0.27873,0.06261 -1.0142,0.42479 -1.59098,1.0053c-0.58839,0.59219 -0.81187,2.33403 -1.32962,2.46899c-1.58963,0.41438 -2.88754,-1.97188 -2.88754,-1.97188c0,0 -1.60871,0.29252 -3.12355,1.13229c-0.30428,0.16869 -1.05079,1.19494 -1.60978,2.66923c-0.13725,0.36197 -0.21965,4.81098 -0.53326,9.6149c-0.31193,4.77805 -0.87128,10.08691 -0.94792,10.12828c-0.00252,0.00136 -0.66347,-0.11356 -0.53206,0.02609c0.0045,0.00479 -0.66891,9.82091 -1.0121,10.25545c-0.6315,0.79957 -5.60083,0.21956 -6.53004,-0.85347c-1.03289,-1.19277 1.98642,-2.94245 1.63003,-2.97822c-0.62462,-0.0627 2.81258,-6.76805 2.81819,-6.83013c0.03456,-0.38202 0.63899,-10.33475 0.33633,-10.19419c-0.53159,0.24687 0.77512,-4.02894 0.88611,-6.73847c0.02907,-0.70972 0.34501,-2.56208 0.24744,-2.6183c-0.6701,-0.38616 1.84162,-4.68328 1.62187,-5.69513c-0.21221,-0.97717 3.2812,-9.96694 3.27575,-10.58841c-0.00158,-0.17996 -3.7274,15.33682 -4.64935,15.93012c-0.66935,0.43075 1.37973,-14.00835 1.39128,-14.07979c0.00984,-0.06081 -0.24263,-1.909 0.29757,-2.95444c0.12306,-0.23816 -1.0003,0.17733 -1.42718,0.12585c-0.37186,-0.04484 -0.06234,-0.5647 0.10726,-0.63809c0.18034,-0.07805 2.85995,-0.32744 2.80991,-0.51553c-0.04169,-0.1567 0.54077,-0.53489 0.97941,-1.23315c0.41738,-0.66442 0.51589,-1.66653 0.52537,-1.80558c0.00817,-0.1197 0.20637,-0.46443 0.37727,-0.79755c0.15178,-0.29584 0.44462,-0.5676 0.57479,-0.66345c0.14895,-0.10968 0.25504,-0.24394 0.41152,-0.28965c0.51422,-0.15019 1.0536,0.03219 1.06238,-0.08268c0.01442,-0.18884 0.02637,1.48328 -0.09213,2.49146c-0.07909,0.6729 -0.33952,0.79421 -0.24273,0.8102c0.20861,0.03445 0.15381,0.43075 0.39774,0.84777c0.22535,0.38525 0.74486,0.78318 1.04419,1.04722c0.94638,0.83484 2.0798,1.03709 2.0798,1.03709c0,0 3.11967,-1.24117 4.36965,-1.5802c0.55566,-0.15071 0.36565,0.13714 0.5489,0.1938c0.1217,0.03763 0.33353,-0.25721 1.03698,-0.42527c1.12085,-0.26779 2.13514,-0.79163 3.18433,-1.16764c2.34161,-0.83919 4.38034,-1.48274 4.38034,-1.48274z" fill="#2b2b2b" stroke="none" stroke-width="0" stroke-linecap="butt"/><path d="M259.55123,285.16928c0,0 -3.56885,-0.31878 -3.57752,-0.30676c-0.02724,0.0378 -0.37904,-0.15836 -0.53687,-0.3381c-0.07598,-0.08652 -0.00976,-0.30195 -0.05588,-0.30618c-0.37314,-0.03424 -0.48351,-0.71069 -0.48351,-0.71069c0,0 -0.44266,-0.29047 -0.36956,-1.07244c0.01078,-0.11534 0.00808,-0.34213 0.1353,-0.58938c0.1581,-0.30726 0.45336,-0.65194 0.48026,-0.922c0.6207,-6.22951 2.73108,-29.70243 3.61192,-39.25544c0.014,-0.1518 -0.07293,-0.42194 -0.25097,-0.58201c-0.11255,-0.10118 -0.3117,-0.0924 -0.38556,-0.19128c-0.06222,-0.08329 -0.04036,-0.18625 -0.03391,-0.25834c0.0063,-0.07036 -0.00383,-0.21272 0.07636,-0.27126c0.11729,-0.08564 0.32426,-0.05173 0.48132,-0.10958c0.15343,-0.05651 0.25827,-0.2047 0.26603,-0.29324c0.08454,-0.96474 0.14236,-1.66192 0.17727,-2.04136c0.01905,-0.20696 0.10193,-0.30911 0.10193,-0.30911c0,0 0.19028,-0.14644 0.4702,-0.2252c0.24457,-0.0688 0.55912,-0.06496 0.85468,-0.14164c0.12488,-0.0324 0.13049,-0.15795 0.22247,-0.40352c0.14112,-0.37678 0.19632,-0.73896 0.39033,-1.02244c0.03638,-0.05317 -0.59566,-1.6103 -0.52606,-1.69065c0.02349,-0.02711 -0.04536,-0.35929 0.07958,-0.59396c0.03125,-0.0587 0.12811,-0.20418 0.25386,-0.36436c0.17132,-0.21825 0.45803,-0.3302 0.51873,-0.16139c0.05323,0.14804 1.47997,2.88506 1.4871,3.16054c0.01974,0.76284 -1.49421,-0.71195 -1.48454,-0.71438c0.87333,-0.21904 1.97463,1.05961 2.2786,0.98504c0.19988,-0.04905 0.38207,-0.03675 0.38207,-0.03675z" fill="#535353" stroke="none" stroke-width="0" stroke-linecap="butt"/><path d="M281.43334,237.89121c0,0 -0.94882,0.60517 -2.12033,1.23309c-1.10924,0.59455 -2.42109,1.204 -3.21299,1.5301c-1.27618,0.52552 -3.63987,0.93191 -3.63987,0.93191c0,0 -0.5411,0.232 -1.17933,0.23144c-0.61337,-0.00054 -1.31862,-0.23404 -1.61378,-0.21515c-0.73642,0.04713 -1.30444,0.24598 -1.30444,0.24598c0,0 0.23406,-0.33651 0.16105,-0.06074c-0.05296,0.20001 0.44261,-0.33156 0.32479,0.03199c-0.01473,0.04546 0.3787,-0.21594 0.35151,-0.1565c-0.08692,0.19001 -0.4938,0.46864 -0.75364,0.82047c-0.19147,0.25926 -0.24499,0.59431 -0.32976,0.77819c-0.2681,0.58163 -0.37197,1.04139 -0.42638,1.29884c-0.19599,0.92734 -0.19388,1.46341 -0.31735,1.50674c-0.11303,0.03967 -0.19614,-1.18792 -0.15539,-2.29889c0.03039,-0.82864 0.17609,-1.61053 0.18026,-1.65591c0.00615,-0.06696 0.0025,-0.30919 0.169,-0.56178c0.32371,-0.49111 0.92433,-1.10164 0.92433,-1.10164c0,0 0.86805,0.08177 1.68802,0.13261c0.51928,0.0322 1.07331,0.02927 1.34949,-0.05542c0.16864,-0.05172 4.00933,-0.92985 4.18287,-0.89862c0.08521,0.01533 3.32604,-1.57752 4.07869,-1.80372c0.24149,-0.07259 1.08236,-0.61921 2.10265,-1.01115c1.6515,-0.63442 3.69484,-1.19728 3.84289,-1.18141c0.03339,0.00358 0.56928,-0.12708 1.14528,-0.17719c0.67271,-0.05851 1.4029,-0.03746 1.4936,-0.02657c0.15265,0.01833 -0.70632,0.26245 -1.45455,0.43469c-0.37085,0.08537 -0.7278,0.15983 -0.9021,0.24819c-1.24828,0.63279 -4.58454,1.78042 -4.58454,1.78042z" fill="#ffffff" stroke="none" stroke-width="0" stroke-linecap="butt"/><path d="M263.2965,273.41892l-0.45743,-0.21182l3.31198,-36.08852l0.51081,-0.22749z" fill="#ffffff" stroke="none" stroke-width="0" stroke-linecap="butt"/><path d="M260.69077,283.98124l-0.41458,-0.03805l0.37003,-4.31668c0,0 0.08204,-0.70018 0.53652,-1.87162c0.57379,-1.47897 1.55146,-3.50151 1.59251,-3.5009c0.04919,0.00072 0.52383,0.04206 0.54575,0.0057c0.01313,-0.02179 -0.28628,0.66023 -0.68474,1.50982c-0.26429,0.5635 -0.59326,1.19146 -0.82729,1.77012c-0.50084,1.2384 -0.6539,2.09438 -0.6539,2.09438z" fill="#ffffff" stroke="none" stroke-width="0" stroke-linecap="butt"/><path d="M271.6742,253.5974c0,0 0.52535,0.51754 0.77794,1.00693c0.21481,0.41618 0.16242,0.80561 0.16803,0.90755c0.00813,0.14771 -0.87986,-0.71297 -0.87986,-0.71297c0,0 -0.29641,-0.14682 -0.65415,-0.26155c-0.32212,-0.10332 -0.69465,-0.17327 -0.93358,-0.21374c-0.39503,-0.0669 -1.19111,0.00469 -1.19111,0.00469c0,0 -0.77812,0.42276 -1.01328,0.29005c-0.18712,-0.10559 0.16026,-0.76105 0.14399,-0.83448c-0.03717,-0.16767 0.64753,-0.4558 0.64753,-0.4558c0,0 0.21714,-0.16323 0.5518,-0.25772c0.2575,-0.07271 0.61483,-0.08596 0.81072,-0.06797c0.23845,0.02188 0.63276,0.11433 0.94317,0.24587c0.36415,0.15431 0.6288,0.34914 0.6288,0.34914z" fill="#9c9c9c" stroke="none" stroke-width="0" stroke-linecap="butt"/><path d="M274.37467,258.97974c0,0 -0.19275,0.56103 -0.54397,1.07238c-0.31232,0.4547 -0.76915,0.85606 -1.03366,1.00365c-0.26676,0.14885 -1.71887,0.66041 -2.09367,0.57435c-0.12108,-0.02781 -1.8788,-0.1232 -1.96381,-0.0553c-0.03064,0.02449 -0.99039,0.3979 -1.66487,1.07031c-0.53271,0.53109 -0.5729,1.59328 -0.64396,1.43128c-0.03015,-0.06872 -0.47255,1.99593 -0.47703,1.64793c-0.01269,-0.98552 0.27211,-3.3793 0.5029,-5.88389c0.28483,-3.09093 0.54837,-6.34498 0.80154,-7.2618c0.01693,-0.06132 1.11097,-2.27512 1.26913,-1.82909c0.04053,0.1143 6.92484,-0.35633 6.93888,0.15843c0.00156,0.05704 -0.54733,1.88351 -1.14428,2.02959c-0.35615,0.08718 0.24678,2.16566 -0.1681,1.98084c-0.1368,-0.06094 -0.17314,-0.46773 -0.32686,-0.80177c-0.19244,-0.41816 -0.51666,-0.80642 -0.85501,-1.22225c-0.46344,-0.56955 -1.28421,-0.80351 -1.54721,-0.83496c-0.6139,-0.07342 -1.01617,0.00114 -1.32019,0.086c-0.38673,0.10795 -0.59686,0.30509 -0.62619,0.3321c-0.03717,0.03424 -0.65434,0.38924 -0.72071,0.61224c-0.20698,0.69539 -0.78335,1.36109 -0.77492,1.33837c0.04074,-0.10984 0.0507,0.10411 -0.00054,0.55453c-0.04817,0.42346 -0.15536,1.06003 -0.19146,1.70786c-0.03719,0.66752 0.04221,1.522 0.06247,1.9437c0.00826,0.17206 0.05496,0.27978 0.05808,0.27728c0.07225,-0.05787 0.30206,0.62463 0.65069,1.00532c0.32065,0.35014 0.69518,0.50997 0.71533,0.51382c0.1475,0.02817 0.36507,0.23719 0.68012,0.29924c0.45813,0.09022 0.97568,0.08966 0.97568,0.08966c0,0 0.99899,-0.21168 1.77676,-0.86392c0.53421,-0.448 0.91433,-1.33947 0.91962,-1.39711c0.06835,-0.74478 0.69145,-6.89363 0.69145,-6.89363l0.71905,0.06599z" fill="#545454" stroke="none" stroke-width="0" stroke-linecap="butt"/><path d="M263.13669,285.29928l-3.31484,-0.30421l0.05504,-0.59967l3.31484,0.30422z" fill="#000000" stroke="none" stroke-width="0" stroke-linecap="butt"/><g stroke="none" stroke-width="0" stroke-linecap="butt"><path d="M261.87219,274.13338c0,0 -1.0627,3.05874 -1.70079,3.97656c-0.39883,0.57368 -0.67203,5.89976 -0.74391,5.99759c-0.06387,0.08693 -4.07786,-0.40169 -4.07786,-0.40169l4.13651,-45.71359c0,0 4.39466,-1.20177 4.6073,-1.1656c0.0834,0.01418 1.2507,0.11582 1.2507,0.11582z" fill="#828282"/><path d="M264.10688,249.39875l-5.1072,-0.4687l0.76406,-8.32543l5.1072,0.4687z" fill="#000000"/><path d="M264.42292,241.8553l-4.3143,-0.39594l0.02997,-0.32648l4.3143,0.39594z" fill="#a2a2a2"/><path d="M264.39466,242.67579l-4.31431,-0.39594l0.02997,-0.32649l4.3143,0.39595z" fill="#a2a2a2"/><path d="M264.32401,243.44536l-4.31429,-0.39594l0.02997,-0.32649l4.3143,0.39595z" fill="#a2a2a2"/><path d="M264.20462,244.23399l-4.31429,-0.39594l0.02997,-0.32649l4.3143,0.39595z" fill="#a2a2a2"/><path d="M264.12971,245.05021l-4.3143,-0.39594l0.02997,-0.32649l4.31429,0.39594z" fill="#a2a2a2"/><path d="M264.08241,245.82191l-4.3143,-0.39594l0.02996,-0.32648l4.3143,0.39593z" fill="#a2a2a2"/><path d="M264.02867,246.66359l-4.31429,-0.39594l0.02996,-0.32649l4.3143,0.39594z" fill="#a2a2a2"/><path d="M263.95804,247.43318l-4.3143,-0.39594l0.02997,-0.32649l4.3143,0.39594z" fill="#a2a2a2"/><path d="M263.9086,248.22821l-4.3143,-0.39595l0.02996,-0.32648l4.3143,0.39594z" fill="#a2a2a2"/><path d="M263.83797,248.99778l-4.3143,-0.39594l0.02997,-0.32649l4.31431,0.39594z" fill="#a2a2a2"/></g><g data-paper-data="{&quot;index&quot;:null}" stroke="none" stroke-linecap="butt"><g><path d="M341.51774,139.68689l-1.35946,-5.4386l28.74686,-7.18573l1.35946,5.4386z" fill="#000000" stroke-width="0"/><path d="M362.27683,129.44173l-0.53407,-2.13659l4.07895,-1.0196l0.53407,2.13659z" fill="#000000" stroke-width="0"/><path d="M270.01485,154.9805l-0.75256,-3.01065l71.57579,-17.89148l0.75256,3.01065z" fill="#000000" stroke-width="0"/><path d="M250.2875,156.50653l-0.48552,-1.94235l71.47867,-17.86721l0.48552,1.94235z" fill="#000000" stroke-width="0"/><path d="M269.69399,153.4611l-0.53403,-2.13643l52.74306,-13.18395l0.53403,2.13643z" fill="#000000" stroke-width="0"/><path d="M262.83394,159.78666l-1.58541,-6.34252l8.2119,-2.05269l1.58541,6.34252z" fill="#000000" stroke-width="0"/><path d="M264.58092,166.77569l-1.50439,-6.01837l81.00218,-20.24776l1.50439,6.01837z" fill="#000000" stroke-width="0"/><path d="M215.47766,179.94422l-3.47148,-13.88784l49.23871,-12.30798l3.47148,13.88784z" fill="#717171" stroke-width="0"/><path d="M232.10937,166.80969l-0.89822,-3.59336l27.58144,-6.89441l0.89822,3.59336z" fill="#a1a1a1" stroke-width="0"/><path d="M211.87291,179.9318c0.7523,-0.64478 1.39708,0.10751 1.39708,0.10751l0.01819,0.04579c0.76306,0.62343 1.58213,1.1082 2.34751,1.73011c0.62773,0.37436 1.4848,1.12415 2.22637,1.24401c4.87176,0.78745 8.98896,-4.29912 11.81646,-7.41132c0,0 0.66652,-0.73311 1.39963,-0.0666c0.73312,0.66651 0.06661,1.39962 0.06661,1.39962c-3.2973,3.62417 -8.00527,9.05847 -13.62869,8.02947c-1.06779,-0.19539 -2.10911,-1.02436 -3.01785,-1.57255c-0.80144,-0.65122 -1.65608,-1.16495 -2.45967,-1.81482l-0.27315,-0.29414c0,0 -0.64478,-0.7523 0.10751,-1.39708z" fill="#181818" stroke-width="0.5"/><path d="M222.31467,181.14789c0.1192,0.98361 -0.86442,1.10281 -0.86442,1.10281l-1.17719,0.07044c-1.77446,-0.55696 -2.26151,-1.22033 -2.40811,-3.07077c0,0 -0.0471,-0.98968 0.94259,-1.03678c0.98969,-0.04709 1.03679,0.94259 1.03679,0.94259c-0.00772,0.96431 -0.01546,1.07636 0.94229,1.25105l0.42525,-0.12375c0,0 0.98361,-0.1192 1.10281,0.86442z" fill="#181818" stroke-width="0.5"/><path d="M212.3993,165.76232c0.96123,-0.24027 1.20151,0.72096 1.20151,0.72096l0.0971,0.38847c0.50966,2.03891 0.80109,3.9981 1.10315,6.06946c0.36858,1.46647 2.01892,5.18531 1.23703,6.55323c-0.59019,1.03254 -3.31684,1.48387 -4.3519,1.98468c-3.71475,1.79735 -7.29502,4.16696 -10.32961,6.94998c-3.26613,2.21486 -6.72846,4.84413 -9.12178,8.02428c-2.07864,2.76201 -3.55581,5.9437 -5.75937,8.64082c-2.3722,3.93298 -5.75663,5.4875 -9.9683,6.76447c-4.36495,1.32345 -7.78834,1.41649 -11.13162,-2.17428c-2.54009,-4.30814 2.25808,-6.56646 4.43194,-10.17918c1.96869,-3.27176 3.29711,-5.673 6.08817,-8.49558c2.76193,-3.03499 5.23675,-5.12469 8.44349,-7.67102c3.29721,-2.61818 5.02698,-8.16692 8.69269,-10.22543c5.94484,-3.16754 12.03714,-5.53877 18.62832,-6.55238c0.03503,-0.29333 0.1935,-0.66207 0.73918,-0.79847zM212.043,168.50675c-6.38478,0.90906 -12.3209,3.28129 -18.06021,6.34491c-3.38254,1.89535 -4.13845,8.67064 -7.20106,11.06163c-3.32419,2.5952 -5.90096,4.58112 -8.74101,7.70809c-2.68733,2.65152 -4.83998,3.95401 -6.71184,7.08113c-1.58513,2.64814 -6.32092,4.55284 -4.36894,7.79174c2.76809,2.93952 5.46576,2.53506 8.97147,1.46826c3.80961,-1.15927 6.78217,-2.42111 8.92138,-6.0058c2.20349,-2.72475 3.71338,-5.90675 5.79812,-8.69419c2.47554,-3.30996 6.07301,-6.10252 9.47665,-8.38789c2.85824,-2.64501 6.16465,-4.67311 9.54864,-6.5682c1.07063,-0.59958 2.15548,-1.0642 3.30804,-1.47747c0.43934,-0.15753 1.06103,0.00867 1.35466,-0.35412c0.26557,-0.3281 -0.36345,-0.76533 -0.48688,-1.16898c-0.39784,-1.30109 -0.66655,-2.66001 -0.99498,-3.98047c-0.24187,-1.64857 -0.47058,-3.21765 -0.81403,-4.81864z" fill="#969696" stroke-width="0.5"/><path d="M193.99144,174.8198c5.73931,-3.06362 11.69042,-5.42705 18.0752,-6.3361c0.34346,1.60099 0.57517,3.17363 0.81704,4.8222c0.32843,1.32045 0.5996,2.68329 0.99744,3.98438c0.12343,0.40365 0.75314,0.84225 0.48757,1.17034c-0.29364,0.36278 -0.97479,0.22535 -1.41412,0.38288c-1.15255,0.41327 -2.17818,0.84864 -3.24882,1.44821c-3.38399,1.89509 -6.68852,3.92782 -9.54676,6.57283c-3.40364,2.28537 -7.02725,5.12062 -9.5028,8.43058c-2.08473,2.78743 -3.61113,5.96791 -5.81463,8.69265c-2.1392,3.58469 -5.11953,4.84249 -8.92915,6.00177c-3.50571,1.0668 -6.21018,1.46488 -8.97826,-1.47464c-1.95198,-3.2389 1.89079,-5.32828 3.47592,-7.97641c1.87185,-3.12713 3.66602,-5.33275 6.35336,-7.98427c2.20561,-2.42844 4.93636,-4.53205 7.4496,-6.64951c3.70444,-3.12107 5.5757,-8.73002 9.77841,-11.08494z" data-paper-data="{&quot;noHover&quot;:false,&quot;origItem&quot;:[&quot;Path&quot;,{&quot;applyMatrix&quot;:true,&quot;segments&quot;:[[[634.52988,310.30813],[19.4225,-2.01782],[0.16665,4.95501]],[[635.67685,325.06038],[-0.50001,-5.02019],[0.00482,4.11994]],[[635.67685,337.48343],[0.21329,-4.11401],[-0.06617,1.27635]],[[635.105,341.27475],[-1.021,-0.76878],[1.12893,0.85005]],[[639.34427,341.32027],[-1.4062,-0.14016],[3.68903,0.36769]],[[650.14634,343.23128],[-3.58519,-0.9751],[11.3318,3.08201]],[[683.01783,355.51389],[-10.33809,-5.67091],[11.6761,4.21402]],[[717.01399,373.19459],[-9.70217,-7.90516],[8.17054,6.65722]],[[740.42951,394.47603],[-8.47335,-6.38587],[8.91592,8.95913]],[[771.04549,405.56718],[-12.04177,-0.60805],[11.08118,0.55955]],[[796.3207,394.66682],[-5.97274,10.66721],[3.35565,-10.94739]],[[780.89889,369.76572],[6.60069,6.61487],[-7.79462,-7.81136]],[[758.98626,345.9311],[9.84084,5.81551],[-20.43996,-13.64132]],[[692.23977,315.68508],[23.62303,6.43107],[-19.10846,-4.78508]]],&quot;closed&quot;:true}]}" fill="#969696" stroke-width="0.5"/></g><g stroke-width="0"><path d="M273.23312,168.09876l-3.29042,-13.1635l70.96842,-17.73966l3.29042,13.1635z" fill="#969696"/><path d="M338.82175,150.24446l-2.60372,-10.41633l1.94591,-0.48641l2.60372,10.41633z" fill="#6d6d6d"/><path d="M332.32582,151.98983l-2.48927,-9.95847l2.06037,-0.51502l2.48927,9.95847z" fill="#6d6d6d"/><path d="M326.28782,153.13428l-2.43205,-9.72954l2.17484,-0.54363l2.43205,9.72954z" fill="#6d6d6d"/><path d="M320.79417,154.99299l-2.60372,-10.41633l1.94591,-0.48641l2.60372,10.41633z" fill="#6d6d6d"/><path d="M314.29823,156.73836l-2.48928,-9.95848l2.06037,-0.51502l2.48928,9.95848z" fill="#6d6d6d"/><path d="M308.26023,157.88281l-2.43205,-9.72954l2.17484,-0.54363l2.43205,9.72954z" fill="#6d6d6d"/><path d="M302.79517,159.36952l-2.60372,-10.41633l1.94591,-0.48641l2.60372,10.41633z" fill="#6d6d6d"/><path d="M296.2993,161.11489l-2.48928,-9.95848l2.06037,-0.51502l2.48928,9.95848z" fill="#6d6d6d"/><path d="M290.26125,162.25934l-2.43205,-9.72954l2.17484,-0.54363l2.43205,9.72954z" fill="#6d6d6d"/><path d="M284.73901,164.00359l-2.60372,-10.41633l1.94591,-0.48641l2.60372,10.41633z" fill="#6d6d6d"/><path d="M278.24307,165.74896l-2.48928,-9.95848l2.06037,-0.51502l2.48928,9.95848z" fill="#6d6d6d"/><path d="M273.23527,166.63589l-2.43205,-9.72954l2.17484,-0.54363l2.43205,9.72954z" fill="#6d6d6d"/></g></g><g><path d="M85.0613,149.7607l105.89503,159.92209c0,0 1.88394,23.3759 2.3644,23.24136c0.26201,-0.07337 -20.55162,-11.19839 -20.55162,-11.19839l-105.89503,-159.92209z" fill="#bbbbbb" stroke="none" stroke-width="NaN" stroke-linecap="butt"/><path d="M43.57592,119.05196c0,0 1.87685,-4.89694 3.84497,-6.18185c1.96811,-1.28491 7.96371,-1.52758 7.96371,-1.52758l24.43099,37.90027c0,0 -2.60294,5.37098 -4.6322,6.6958c-1.89821,1.23926 -7.17647,1.01363 -7.17647,1.01363z" fill="#484848" stroke="none" stroke-width="0" stroke-linecap="butt"/><path d="M79.76955,154.37923l104.20698,156.52134l2.69685,11.98476l-10.85639,-6.66452l-103.66413,-156.553z" fill="none" stroke="#727272" stroke-width="0.5" stroke-linecap="round"/><path d="M180.96218,314.74686l-104.48131,-157.30056" fill="none" stroke="#000000" stroke-width="0.5" stroke-linecap="round"/><path d="M96.48169,128.49836c0,0 5.86341,1.19174 7.1611,3.1515c1.29769,1.95976 0.62503,8.60707 0.62503,8.60707l-51.73769,34.25896c0,0 -6.34216,-1.91474 -7.68017,-3.93539c-1.25159,-1.89015 -0.10596,-7.82317 -0.10596,-7.82317z" fill="#484848" stroke="none" stroke-width="0" stroke-linecap="butt"/></g><g stroke="none" stroke-width="0" stroke-linecap="butt"><path d="M126.36217,104.97995c0,0 -0.62191,-4.49881 -0.07511,-9.20038c0.35294,-3.0347 1.65395,-6.27375 2.37843,-8.04034c0.81761,-1.9937 2.32181,-4.49814 4.16996,-6.10897c1.86119,-1.62221 4.0635,-2.34381 4.0635,-2.34381c0,0 9.70666,-3.70609 15.77053,-4.5464c6.82478,-0.94576 23.16591,-0.84929 23.16591,-0.84929c0,0 1.56156,-0.26159 7.03395,-3.05247c2.84187,-1.44935 9.73959,-8.28055 13.29532,-10.0476c0.48783,-0.24243 0.84143,-0.72793 1.25765,-1.01854c1.61893,-1.13039 2.92588,-2.32377 4.83449,-3.31843c2.85112,-1.48582 6.74559,-2.2569 8.84766,-2.6756c4.57958,-0.91218 6.79773,1.38088 7.74844,2.47713c1.52088,1.75366 1.85971,-0.16853 0.71397,3.67671c-0.57339,1.92437 -9.57646,5.53986 -10.57407,7.89178c-0.79284,1.86912 -1.39264,3.87066 -2.09598,5.82552c-0.25964,0.72164 0.87229,3.53662 2.35378,4.51956c1.70853,1.13356 3.80663,0.44051 3.53879,1.26736c-0.64573,1.99347 -15.94365,6.83577 -15.48319,7.43628c0.14482,0.18887 3.96712,10.73241 3.76458,10.94946c0.23782,-0.6396 7.14281,-2.57165 6.26693,-1.72744c-0.14431,0.1391 -0.62126,3.94069 0.24043,6.28463c1.46822,3.99377 4.89921,6.5227 9.76713,5.18302c1.86646,-0.51366 3.87458,-0.70269 5.61449,-0.50582c1.1557,0.13075 1.77439,1.69328 2.53342,1.64755c2.4936,-0.15024 -0.813,4.83257 -1.34234,5.37488c-0.86534,0.88655 -2.61628,2.5529 -5.37827,3.86618c-5.35812,2.5477 -16.09589,2.24321 -22.77228,4.54434c-6.70296,2.31028 -9.33396,7.22111 -9.33396,7.22111c0,0 -6.99302,9.20263 -15.61741,14.68833c-3.80011,2.41712 -8.26388,1.83618 -11.99792,3.28502c-4.88416,1.8951 -6.08995,-1.31371 -10.44854,-1.53356c-3.48909,-0.176 -12.86485,-13.49027 -13.61062,-14.85544c-0.49747,-0.91064 -1.03711,-3.79878 -2.58301,-6.98164c-0.2971,-0.61171 -0.66089,-2.00639 -1.00181,-3.06287c-2.41434,-7.48187 -5.04485,-16.27021 -5.04485,-16.27021z" fill="#272727"/><path d="M166.59837,113.76509c0,0 -4.84797,-8.71252 -6.08321,-12.7468c-0.19755,-0.64519 0.23681,-1.46503 -0.40062,-1.98109c-0.80362,-0.65057 -1.27863,0.86912 -2.18103,0.6019c-0.86784,-0.25698 -0.73383,-2.98425 -0.81097,-3.37613c-0.29237,-1.4852 0.70734,-3.99661 0.70734,-3.99661c0,0 2.38921,-3.2774 6.23418,-4.93457c2.29702,-0.99 5.15803,-1.30982 7.25687,-1.51398c0.837,-0.08141 1.67403,-0.00565 2.12036,-0.15889c3.31847,-1.13937 9.53818,0.02519 14.32304,-1.71618c1.25836,-0.45795 3.54385,-1.34911 4.79064,-1.81124c3.30989,-1.22685 6.96018,-4.95386 9.55614,-5.38422c0.2724,-0.04516 1.67898,1.10507 1.78595,1.34377c0.23981,0.53508 -0.2612,4.03529 0.93809,4.06638c0.96419,0.02499 -9.12949,4.39323 -8.35851,4.53326c0.80668,0.14653 3.56034,8.86068 4.03953,8.9544c0.84359,0.16499 0.76261,0.64741 1.46232,0.96395c0.67116,0.30365 2.14072,0.4452 2.14072,0.4452c0,0 -1.17165,3.02289 -0.16566,5.29209c1.03588,2.33658 2.95851,6.55489 6.03942,7.43186c5.97881,1.70185 13.15653,-0.5011 12.68524,1.85045c-0.25113,1.25311 -4.2319,4.14814 -10.65115,5.4132c-6.66533,1.31355 -15.18176,1.33609 -15.51631,1.95989c-1.14283,2.131 -7.3907,2.35742 -7.3907,2.35742c0,0 -13.1534,15.9465 -21.50829,19.82162c-2.02782,0.94052 -3.93754,-1.12505 -4.81478,-1.4848c-2.49771,-1.0243 3.6797,-7.92716 3.31182,-15.51069c-0.10263,-2.11548 0.73057,-0.50018 0.34248,-2.04691c-0.36111,-1.43925 -1.95625,-6.08668 -1.76908,-6.83422c0.41488,-1.657 1.91616,-1.53907 1.91616,-1.53907z" fill="#919191"/><path d="M172.3728,112.08063c-1.38589,0.42282 -3.74332,-3.27896 -5.26547,-8.26816c-1.52214,-4.98919 -1.63262,-9.3765 -0.24674,-9.79932c1.38589,-0.42282 3.74332,3.27895 5.26547,8.26815c1.52214,4.98919 1.63261,9.3765 0.24673,9.79931z" fill="#e2e2e2"/><path d="M186.0903,107.51585c-1.35229,0.52034 -3.9671,-3.00433 -5.84035,-7.87259c-1.87325,-4.86826 -2.29556,-9.23658 -0.94326,-9.75693c1.35229,-0.52034 3.9671,3.00434 5.84035,7.8726c1.87325,4.86826 2.29556,9.23658 0.94326,9.75692z" fill="#e2e2e2"/><path d="M198.80717,101.69894c-1.33228,0.56961 -4.07467,-2.85675 -6.12528,-7.653c-2.05061,-4.79625 -2.6329,-9.14613 -1.30062,-9.71575c1.33228,-0.56961 4.07468,2.85675 6.12529,7.653c2.05061,4.79625 2.6329,9.14613 1.30062,9.71574z" fill="#e2e2e2"/><path d="M171.36536,136.88438c-0.80443,1.96159 -2.84373,2.98287 -4.55489,2.28114c-1.71116,-0.70173 -2.44622,-2.86077 -1.64177,-4.82235c0.80443,-1.96158 2.84373,-2.98288 4.55489,-2.28115c1.71116,0.70173 2.44623,2.86077 1.64178,4.82236z" fill="#f8f8f8"/><path d="M201.54052,98.06002l-5.73088,-11.22806c0,0 3.71689,-2.40348 8.07835,-4.19866c14.59698,-6.00805 95.59404,-38.47235 95.59404,-38.47235l4.84813,8.42957c0,0 -85.21848,38.341 -97.14218,43.61551c-2.66536,1.17904 -5.64744,1.85398 -5.64744,1.85398z" fill="#616161"/><path d="M174.96027,128.11837c-0.80443,1.96159 -3.08056,2.88576 -5.08387,2.06422c-2.00332,-0.82156 -2.9752,-3.07771 -2.17076,-5.03929c0.80443,-1.96158 3.08056,-2.88576 5.08387,-2.06421c2.00332,0.82156 2.9752,3.07771 2.17076,5.03928z" fill="#f8f8f8"/><path d="M175.96626,117.05477c-0.53058,1.29382 -1.97571,1.9264 -3.22778,1.41292c-1.25207,-0.51348 -1.83695,-1.97854 -1.30638,-3.27235c0.53058,-1.29382 1.97572,-1.9264 3.22779,-1.41294c1.25207,0.51348 1.83695,1.97855 1.30637,3.27237z" fill="#f8f8f8"/><path d="M162.83195,117.81418l0.25098,-1.11559l17.84949,4.01555l-0.25098,1.11559z" fill="#f3f3f3"/><path d="M178.88706,122.10615l-0.11309,-1.1811l9.25371,-1.54163l0.29139,1.60734z" fill="#f3f3f3"/><path d="M309.2807,36.07555c0.14939,1.01756 -0.77148,1.99545 -2.05682,2.18417c-1.28535,0.18872 -2.44845,-0.48321 -2.59786,-1.50077c-0.14939,-1.01756 0.77147,-1.99548 2.05684,-2.18419c1.28535,-0.18872 2.44846,0.48322 2.59784,1.50079z" fill="#dfdfdf"/><path d="M314.71195,35.23079c0.14939,1.01756 -0.77148,1.99548 -2.05685,2.18419c-1.28535,0.18872 -2.44846,-0.48321 -2.59785,-1.50078c-0.14939,-1.01756 0.77148,-1.99547 2.05684,-2.18419c1.28535,-0.18872 2.44846,0.48321 2.59785,1.50078z" fill="#dfdfdf"/><path d="M320.65013,34.69985c0.14939,1.01756 -0.77148,1.99547 -2.05684,2.18419c-1.28535,0.18872 -2.44846,-0.48321 -2.59785,-1.50077c-0.14939,-1.01756 0.77149,-1.99547 2.05685,-2.18419c1.28535,-0.18872 2.44845,0.48321 2.59785,1.50077z" fill="#dfdfdf"/><path d="M325.66056,34.10627c0.14939,1.01756 -0.77149,1.99546 -2.05685,2.18418c-1.28535,0.18872 -2.44846,-0.48322 -2.59784,-1.50079c-0.14939,-1.01756 0.77148,-1.99545 2.05682,-2.18417c1.28535,-0.18872 2.44846,0.48321 2.59787,1.50078z" fill="#dfdfdf"/><path d="M331.01743,33.44287c0.14939,1.01756 -0.77149,1.99546 -2.05685,2.18418c-1.28535,0.18872 -2.44846,-0.48321 -2.59785,-1.50078c-0.14939,-1.01756 0.77147,-1.99547 2.05684,-2.18418c1.28535,-0.18872 2.44846,0.48321 2.59785,1.50077z" fill="#dfdfdf"/><path d="M336.55567,32.85387c0.14939,1.01756 -0.77147,1.99547 -2.05683,2.18419c-1.28535,0.18872 -2.44846,-0.48321 -2.59785,-1.50078c-0.14939,-1.01756 0.77148,-1.99547 2.05683,-2.18417c1.28535,-0.18872 2.44845,0.48321 2.59785,1.50077z" fill="#dfdfdf"/><path d="M306.86855,39.68714l-0.31686,-1.94491l1.27808,-0.20823l0.31686,1.94491z" fill="#dfdfdf"/><path d="M312.344,38.89904l-0.31685,-1.94491l1.27808,-0.20822l0.31686,1.94491z" fill="#dfdfdf"/><path d="M317.95049,38.26097l-0.31686,-1.94491l1.27808,-0.20821l0.31685,1.94491z" fill="#dfdfdf"/><path d="M323.15221,37.55322l-0.31686,-1.94491l1.27809,-0.20823l0.31685,1.94491z" fill="#dfdfdf"/><path d="M328.56744,37.02933l-0.31686,-1.94491l1.27809,-0.20823l0.31685,1.94491z" fill="#dfdfdf"/><path d="M333.76177,36.22223l-0.31686,-1.94491l1.27808,-0.20821l0.31686,1.94491z" fill="#dfdfdf"/><path d="M302.20941,53.26931l-2.89314,-8.95332c0,0 0.28266,-4.05836 2.44175,-4.75603c4.05611,-1.31067 33.95254,-3.89695 33.95254,-3.89695c0,0 4.72803,1.30597 5.47814,2.11217c0.80379,0.72378 2.02767,2.78518 2.10024,4.90324c0.08607,2.51199 -2.14109,5.26269 -3.97192,6.46498c-1.04143,0.6839 -3.88459,1.01083 -5.9386,0.3127c-1.71846,-0.58407 -2.62577,-2.12915 -3.93978,-2.45279c-2.21698,-0.54602 -2.5854,0.95115 -2.5854,0.95115c0,0 -9.72117,9.0796 -13.75928,10.38446c-1.09172,0.35277 -2.2294,-2.95408 -4.75433,-4.36025c-2.34712,-1.30714 -6.13021,-0.70932 -6.13021,-0.70932z" fill="#828282"/><path d="M158.13226,105.05804c0,0 38.92564,-18.34226 39.68404,-18.64739c7.11163,-2.86125 110.69624,-44.53685 110.69624,-44.53685l1.91974,0.15558c0,0 -104.63397,41.89173 -112.19932,44.92063c-0.85128,0.34081 -40.8667,19.26198 -40.8667,19.26198z" fill="#e8e8e8"/><path d="M159.49846,106.67764c0,0 37.86745,-17.8386 38.53362,-18.10746c6.70395,-2.70562 111.25415,-44.90046 111.25415,-44.90046l6.97978,-2.03505c0,0 -110.45389,44.50572 -117.81686,47.47251c-0.76162,0.30688 -39.18389,18.50149 -39.18389,18.50149z" fill="#e8e8e8"/><path d="M162.36414,106.79349c0,0 35.8788,-15.94321 36.72841,-16.29036c7.51193,-3.06935 110.89335,-45.31058 110.89335,-45.31058l10.54174,-3.31724c0,0 -113.48646,46.10697 -121.23539,49.25518c-0.82171,0.33384 -37.49841,16.98549 -37.49841,16.98549z" fill="#e8e8e8"/><path d="M163.45524,108.65341c0,0 35.57714,-16.13173 36.24257,-16.40415c6.68806,-2.73812 110.86136,-45.38709 110.86136,-45.38709l14.7631,-5.49237c0,0 -118.02342,48.46326 -125.3195,51.4592c-0.69814,0.28667 -36.49205,16.69731 -36.49205,16.69731z" fill="#e8e8e8"/><path d="M162.97895,111.10642c0,0 36.36106,-16.46379 36.93115,-16.7027c6.21634,-2.60496 111.00041,-46.5147 111.00041,-46.5147l19.94251,-7.76647c0,0 -123.03237,51.66704 -130.47809,54.79383c-0.697,0.29269 -36.96264,17.21788 -36.96264,17.21788z" fill="#e8e8e8"/><path d="M164.21737,113.46815c0,0 35.60417,-16.65152 36.10906,-16.86876c5.86043,-2.52155 110.82542,-47.68445 110.82542,-47.68445l25.05708,-10.43603c0,0 -130.27407,56.46451 -135.71281,58.82181c-0.34786,0.15077 -34.78961,16.12752 -34.78961,16.12752z" fill="#e8e8e8"/><path d="M311.11796,41.87168c-0.33009,0.80491 -1.23569,1.19576 -2.02269,0.87302c-0.78701,-0.32275 -1.15742,-1.2369 -0.82733,-2.0418c0.33009,-0.80491 1.23569,-1.19576 2.02269,-0.87301c0.78701,0.32275 1.15743,1.23689 0.82735,2.04179z" fill="#494949"/><path d="M316.73468,41.82938c-0.33009,0.80491 -1.23569,1.19576 -2.02269,0.87301c-0.78701,-0.32275 -1.15743,-1.23689 -0.82735,-2.04179c0.33009,-0.80491 1.23569,-1.19576 2.02269,-0.87302c0.78701,0.32275 1.15743,1.23689 0.82734,2.0418z" fill="#494949"/><path d="M321.29681,41.95994c-0.33009,0.80491 -1.23568,1.19575 -2.02268,0.87301c-0.78701,-0.32275 -1.15742,-1.23688 -0.82734,-2.04179c0.33009,-0.80491 1.23568,-1.19576 2.02268,-0.87301c0.78701,0.32275 1.15744,1.23689 0.82736,2.04179z" fill="#494949"/><path d="M325.69445,41.56905c-0.33009,0.80491 -1.23569,1.19576 -2.02269,0.87302c-0.78701,-0.32275 -1.15743,-1.23689 -0.82735,-2.04179c0.33009,-0.80491 1.23568,-1.19575 2.02268,-0.87301c0.78701,0.32275 1.15744,1.23689 0.82736,2.0418z" fill="#494949"/><path d="M330.70817,40.59848c-0.33009,0.80491 -1.23568,1.19576 -2.02268,0.87302c-0.78701,-0.32275 -1.15742,-1.2369 -0.82734,-2.04179c0.33009,-0.80491 1.23568,-1.19576 2.02268,-0.87301c0.78701,0.32275 1.15744,1.2369 0.82735,2.04181z" fill="#494949"/><path d="M336.13709,39.72248c-0.33009,0.80491 -1.23569,1.19576 -2.02269,0.87301c-0.78701,-0.32275 -1.15743,-1.23689 -0.82735,-2.04179c0.33009,-0.80491 1.23569,-1.19576 2.02269,-0.87302c0.78701,0.32275 1.15743,1.2369 0.82734,2.0418z" fill="#494949"/><path d="M151.30022,102.20294l8.84614,-3.61898l7.83578,16.93153l-8.61347,4.77373z" fill="#e2e2e2"/></g><g stroke="none" stroke-width="0" stroke-linecap="butt"><path d="M401.93966,145.66802l-1,-33.27336h6.32636v16.60669z" fill="#868686"/><path d="M401.09599,112.71097v-14.39247c0,0 -0.11834,-7.11715 1.10712,-7.11715c1.25181,0 6.32636,7.11715 6.32636,7.11715c0,0 -0.94896,2.34076 -0.94896,4.11213c0,1.0323 0.28647,2.9485 0.63682,4.71253c0.16381,0.82483 -0.84927,1.17648 -0.79801,1.93035c0.12127,1.78377 1.11015,3.63745 1.11015,3.63745z" fill="#565656"/><path d="M407.18492,113.02922c0,1.60163 0.55926,14.36667 -0.06667,14.36667c-0.16549,0 -0.25573,-2.31746 -0.66513,-2.62398c-0.68867,-0.51561 -1.79256,0.75578 -2.11714,-0.15866c-0.21227,-0.59803 0.51559,-1.38485 0.51559,-1.8507c0,-0.88222 0.48728,-1.5391 0.7302,-2.07099c0.19808,-0.43373 0.12199,-0.82902 0.40313,-0.82902c0.06856,0 -3.64994,-1.29656 -3.59271,-1.79145c0.05632,-0.48701 3.89124,-0.16818 3.60889,-0.68953c-0.36864,-0.68068 -1.86123,-0.93157 -1.78779,-1.44832c0.12787,-0.89978 1.8577,-0.21889 2.38158,-0.78942c0.84868,-0.92427 0.59003,-2.75036 0.59003,-2.11461z" fill="#9a9a9a"/></g><g stroke="none" stroke-width="0" stroke-linecap="butt"><path d="M382.83263,289.43922c-0.94304,3.44719 1.3488,5.04249 -1.91606,6.85771c-5.08726,2.82846 -13.96112,0.02438 -21.33786,-2.27287c-6.2283,-1.93961 -12.91955,-4.79866 -17.42678,-7.62557c-4.7181,-2.95916 -13.4031,-8.33867 -12.2313,-12.62209c0.71966,-2.63065 2.88324,-14.31998 6.488,-16.80498c1.62902,-1.12299 4.93083,3.15008 6.77058,4.32482c4.65804,2.97429 16.48856,7.07477 23.35405,9.21281c7.00526,2.18156 12.61943,-2.27493 15.61546,2.69858c2.18361,3.62486 1.70096,12.5139 0.68392,16.23159z" fill="#ffffff"/><path d="M343.75444,263.7412l38.97516,-94.83955l4.33057,2.16529l-39.19169,93.97344z" fill="#e8e8e8"/><path d="M371.03705,274.13458l-12.55866,-37.89252l3.46446,-5.19669l13.42478,42.00656z" fill="#e8e8e8"/><path d="M354.50662,237.05468l2.78476,-7.42604l5.4535,1.27635l-3.36492,8.93445z" fill="#909090"/><path d="M342.67137,266.03453v-2.9008h6.49778v2.9008z" fill="#909090"/><path d="M369.24267,275.31708v-3.01683h7.42604v3.01683z" fill="#909090"/></g></g></g></svg>