<svg version="1.1" xmlns="http://www.w3.org/2000/svg" xmlns:xlink="http://www.w3.org/1999/xlink" width="347.97509" height="379.66605" viewBox="0,0,347.97509,379.66605"><g transform="translate(-67.90771,13.85766)"><g data-paper-data="{&quot;isPaintingLayer&quot;:true}" fill-rule="nonzero" stroke-linejoin="miter" stroke-miterlimit="10" stroke-dasharray="" stroke-dashoffset="0" style="mix-blend-mode: normal"><g stroke-width="0" stroke-linecap="butt"><path d="M199.32862,363.29082c0,0 -0.63536,-94.38387 -0.79335,-118.01201c-0.05451,-8.15261 8.18688,-36.76129 40.20201,-36.9211c31.60235,-0.15775 39.85672,29.48704 39.84884,36.89673c-0.07659,46.24274 0.65429,117.98648 0.65429,117.98648l-10.49667,0.09614l-0.15882,-114.84311c0,0 0.07549,-3.0993 -2.81625,-3.15415c-3.43441,-0.06514 -2.94538,3.11562 -2.94538,3.11562l0.20548,114.86995l-48.21366,0.07222l-0.30539,-115.23309c0,0 0.27949,-2.919 -2.8856,-2.93443c-3.11083,-0.01515 -2.81569,2.90899 -2.81569,2.90899l0.35311,115.0668z" fill="#000000" stroke="#000000"/><g fill="#565656" stroke="none"><path d="M215.20113,362.61082v-147.64303c0,0 1.84928,-2.89445 6.36,-3.19754c1.54455,-0.10378 5.03764,3.90372 7.34081,8.67172c0.53923,1.11632 0.04162,2.85729 0.5492,3.93053c3.37472,7.13553 4.99528,9.1216 8.19092,9.25386c3.96289,0.16402 4.62466,0.27151 7.58004,-6.12436c0.94088,-2.0362 0.6232,-4.33201 2.03801,-6.49493c2.88366,-4.40847 7.77653,-8.26489 8.86196,-8.24593c3.90286,0.06817 6.16009,3.02901 6.16009,3.02901l-0.61678,146.65012z"/><g><path d="M219.04648,287.71442l-0.61678,-16.47487h8.22376v16.04879z"/></g><g data-paper-data="{&quot;index&quot;:null}"><path d="M250.92775,287.91769v-16.0488h8.22376l-0.61678,16.47486z"/></g></g><path d="M197.45849,363.05692l0.36203,-119.92712c0,0 2.05496,-9.954 6.03721,-17.04535c3.71777,-6.62039 10.622,-9.86746 11.30809,-9.86746c0.2129,0 4.30673,-2.43178 6.3015,-2.34178c2.48372,0.11206 2.93326,2.72597 2.79805,2.4122c-0.0803,-0.18635 2.22673,8.04685 1.98823,9.08124c-0.07531,0.32664 0.47384,136.63198 -0.13453,136.8531c-0.60286,0.21912 -3.36144,0.52 -6.00542,0.54165c-2.21949,0.01817 -4.90128,-0.13051 -5.61624,0.60686c-1.30532,1.34623 0.72351,-110.58059 0.65136,-112.40211c-0.0616,-1.55492 0.46365,-3.73343 -0.78277,-4.91831c-1.51488,-1.44009 -5.97349,-0.33057 -5.97349,-0.33057l1.81016,117.33767z" fill="#000000" stroke="none"/><path d="M267.07086,363.56982l1.41859,-117.45498c0,0 -4.11753,-1.10952 -5.63242,0.33057c-1.24642,1.18488 -0.38011,3.36339 -0.4417,4.91831c-0.07216,1.82151 1.61561,113.74834 0.31029,112.40212c-0.71497,-0.73737 -3.39675,-0.5887 -5.61624,-0.60687c-2.64398,-0.02165 -5.40255,-0.32254 -6.00541,-0.54165c-0.60836,-0.22112 -0.05921,-136.52646 -0.13452,-136.8531c-0.2385,-1.03438 2.06852,-9.26758 1.98823,-9.08124c-0.13521,0.31377 0.31433,-2.30013 2.79805,-2.41219c1.99478,-0.09 6.08861,2.34178 6.30151,2.34178c0.68608,0 6.50421,4.69521 10.22199,11.3156c3.98224,7.09135 5.85618,16.14027 5.85618,16.14027l1.16224,119.50138z" data-paper-data="{&quot;index&quot;:null}" fill="#000000" stroke="none"/><path d="M197.65876,362.68208v-9.07317h9.01712v9.07317z" fill="#525252" stroke="none"/><path d="M206.36339,353.68208v-9.13567h2.0625c0,0 1.40773,0.14555 1.40773,0.54263c0,1.30214 -0.11731,8.35842 -0.11731,8.35842z" fill="#525252" stroke="none"/><path d="M197.54026,344.86307l-0.18102,-9.61622l9.37915,0.36203v9.07317z" fill="#525252" stroke="none"/><path d="M206.42589,335.68208v-9.13567l3.11829,-0.46925l0.23462,9.37029z" fill="#525252" stroke="none"/><path d="M197.66526,326.68208v-9.07317h9.19814v9.07317z" fill="#525252" stroke="none"/><path d="M206.55089,317.68208v-9.13567l2.64906,-0.23462l0.11731,9.37029z" fill="#525252" stroke="none"/><path d="M197.90877,308.68208l-0.54305,-9.07317h9.56017v9.07317z" fill="#525252" stroke="none"/><path d="M206.61339,299.68209v-9.13567l2.29712,-0.23462l0.46925,9.37029z" fill="#525252" stroke="none"/><path d="M197.72127,290.8006l-0.36203,-9.25419h9.37915v9.07317z" fill="#525252" stroke="none"/><path d="M206.42589,281.61959v-9.13567h2.0625v9.13567z" fill="#525252" stroke="none"/><path d="M197.90229,273.22514l0.18102,-9.61622h8.65509v9.07317z" fill="#525252" stroke="none"/><path d="M206.42589,263.68209v-9.13567h2.0625v9.13567z" fill="#525252" stroke="none"/><path d="M197.81138,254.8639v-9.07317h8.8361v9.07317z" fill="#525252" stroke="none"/><path d="M206.33498,245.8639l-0.09091,-8.4084l2.24432,-0.27273c0,0 4.662,-0.03271 5.2468,0.49808c0.11656,0.10579 0.29866,4.27908 0.29866,5.0508c0,0.43809 1.00832,1.77727 0.19741,2.26738c-0.59461,0.35938 -1.81069,-0.29281 -2.72568,-0.22274c-1.35803,0.104 -3.10809,1.0876 -3.10809,1.0876z" fill="#525252" stroke="none"/><path d="M199.92524,235.83765c0,0 0.87901,-3.53021 1.39778,-4.83515c0.56755,-1.4276 2.68936,-5.38674 2.68936,-5.38674l6.43032,3.9293l-3.36308,8.59435z" fill="#525252" stroke="none"/><path d="M210.19316,229.74594c0,0 0.69799,-2.98716 1.21678,-4.29209c0.56755,-1.42759 2.1463,-3.93861 2.1463,-3.93861l6.06828,1.7571l-3.36308,8.59435z" fill="#525252" stroke="none"/><path d="M213.53384,238.04572l2,-6.61862h7.75l-0.54545,8.52772z" fill="#525252" stroke="none"/><path d="M215.17993,263.46995v-15.08333h7.16667v15.08333z" fill="#525252" stroke="none"/><path d="M222.17994,278.38662v-15.08334h4.16666v15.08334z" fill="#525252" stroke="none"/><path d="M214.76327,293.38662v-15.16667l7.41666,0.08333v15.08334z" fill="#525252" stroke="none"/><path d="M222.01327,308.44991v-15.08334h4.5l-0.16667,15.08334z" fill="#525252" stroke="none"/><path d="M214.5966,323.53325v-15.08334h7.16666v15.08334z" fill="#525252" stroke="none"/><path d="M221.5966,338.30327v-15.08333h4.91666v15.16667z" fill="#525252" stroke="none"/><path d="M214.42994,353.13662v-15.08333h7.16667v15.08333z" fill="#525252" stroke="none"/><path d="M222.01327,362.88662l-0.58333,-9.91667l4.91667,-0.08333l-0.16667,9.66667z" fill="#525252" stroke="none"/><path d="M270.78148,362.73544v-9.07317h8.33656l0.23462,9.07317z" data-paper-data="{&quot;index&quot;:null}" fill="#525252" stroke="none"/><path d="M267.38912,353.73544l0.11731,-9.37029l3.58754,0.23463v9.13567z" data-paper-data="{&quot;index&quot;:null}" fill="#525252" stroke="none"/><path d="M270.71898,344.73544v-9.07317h8.10193l0.35193,9.07317z" data-paper-data="{&quot;index&quot;:null}" fill="#525252" stroke="none"/><path d="M267.79588,335.88205l-0.35193,-9.13567h3.58754v9.13567z" data-paper-data="{&quot;index&quot;:null}" fill="#525252" stroke="none"/><path d="M270.59398,326.88205v-9.07317l8.09709,-0.08677l0.17354,9.15994z" data-paper-data="{&quot;index&quot;:null}" fill="#525252" stroke="none"/><path d="M267.80271,317.88205l-0.08677,-9.22244l3.19054,0.08677v9.13567z" data-paper-data="{&quot;index&quot;:null}" fill="#525252" stroke="none"/><path d="M270.53148,308.88208v-9.07317h8.09709l0.26031,9.07317z" data-paper-data="{&quot;index&quot;:null}" fill="#525252" stroke="none"/><path d="M268.0873,299.88208l-0.08677,-9.0489l2.84346,-0.08677v9.13567z" data-paper-data="{&quot;index&quot;:null}" fill="#525252" stroke="none"/><path d="M270.71898,290.81958v-9.07317h7.75v9.07317z" data-paper-data="{&quot;index&quot;:null}" fill="#525252" stroke="none"/><path d="M267.90124,281.47249l0.26032,-8.78858h2.66991v9.13567z" data-paper-data="{&quot;index&quot;:null}" fill="#525252" stroke="none"/><path d="M270.71898,272.88208v-9.07317h7.75v9.07317z" data-paper-data="{&quot;index&quot;:null}" fill="#525252" stroke="none"/><path d="M268.23513,263.97633l0.17354,-9.0489h2.32282v9.13567z" data-paper-data="{&quot;index&quot;:null}" fill="#525252" stroke="none"/><path d="M270.80987,255.82798v-9.07317h7.75v9.07317z" data-paper-data="{&quot;index&quot;:null}" fill="#525252" stroke="none"/><path d="M268.9599,247.02797c0,0 -1.75007,-0.9836 -3.1081,-1.0876c-0.91499,-0.07007 -2.13106,0.58211 -2.72567,0.22274c-0.81091,-0.49011 0.19741,-1.82929 0.19741,-2.26738c0,-0.77172 0.18211,-4.94501 0.29866,-5.0508c0.5848,-0.53079 5.2468,-0.49808 5.2468,-0.49808l2.24432,0.27273l-0.09091,8.4084z" data-paper-data="{&quot;index&quot;:null}" fill="#525252" stroke="none"/><path d="M270.37775,239.10348l-3.36308,-8.59435l6.06828,-1.7571c0,0 1.57876,2.51102 2.1463,3.93861c0.51878,1.30494 1.21677,4.29209 1.21677,4.29209z" data-paper-data="{&quot;index&quot;:null}" fill="#525252" stroke="none"/><path d="M261.19591,232.83076l-3.36308,-8.59435l6.06828,-1.7571c0,0 1.57876,2.51102 2.14631,3.93861c0.51878,1.30494 1.21677,4.29209 1.21677,4.29209z" data-paper-data="{&quot;index&quot;:null}" fill="#525252" stroke="none"/><path d="M254.71898,240.91889l-0.54546,-8.52772h7.75l2,6.61862z" data-paper-data="{&quot;index&quot;:null}" fill="#525252" stroke="none"/><path d="M255.26412,263.95097v-15.08334h7.16666v15.08334z" data-paper-data="{&quot;index&quot;:null}" fill="#525252" stroke="none"/><path d="M250.76415,278.58661v-15.08334h4.16666v15.08334z" data-paper-data="{&quot;index&quot;:null}" fill="#525252" stroke="none"/><path d="M255.13079,293.58661v-15.08334l7.41666,-0.08333v15.16666z" data-paper-data="{&quot;index&quot;:null}" fill="#525252" stroke="none"/><path d="M250.96415,308.50327l-0.16666,-15.08334h4.49999v15.08334z" data-paper-data="{&quot;index&quot;:null}" fill="#525252" stroke="none"/><path d="M255.54748,323.5866v-15.08333h7.16667v15.08333z" data-paper-data="{&quot;index&quot;:null}" fill="#525252" stroke="none"/><path d="M250.79747,338.58659v-15.16667h4.91666v15.08333z" data-paper-data="{&quot;index&quot;:null}" fill="#525252" stroke="none"/><path d="M255.71414,353.3366v-15.08333h7.16666v15.08333z" data-paper-data="{&quot;index&quot;:null}" fill="#525252" stroke="none"/><path d="M251.13081,362.75327l-0.16667,-9.66667l4.91667,0.08334l-0.58333,9.91667z" data-paper-data="{&quot;index&quot;:null}" fill="#525252" stroke="none"/><path d="M215.74285,256.29462l0.09166,-9.03493l9.53251,0.12047l0.27498,8.91446c0,0 -3.68191,4.9391 -5.31621,4.9391c-1.66485,0 -4.58294,-4.9391 -4.58294,-4.9391z" fill="#7a7a7a" stroke="#000000"/><path d="M221.67936,243.71106c0,0 2.69866,-8.31091 1.9229,-9.13197c-0.39829,-0.42154 -3.35147,-9.72518 -3.35147,-9.72518l3.71429,-9.42857c0,0 2.04308,5.78019 2.33495,9.71063c0.39229,5.28283 0.09362,36.71794 0.09362,36.71794z" fill="#272727" stroke="#000000"/><path d="M252.74285,257.65851l0.08372,-9.03493l8.70711,0.12046l0.25117,8.91447c0,0 -3.3631,4.93909 -4.85589,4.93909c-1.52069,0 -4.18611,-4.93909 -4.18611,-4.93909z" fill="#7a7a7a" stroke="#000000"/><path d="M251.36337,262.13963c0,0 -0.29866,-31.43511 0.09363,-36.71794c0.29187,-3.93044 2.33495,-9.71063 2.33495,-9.71063l3.71429,9.42857c0,0 -2.95319,9.30363 -3.35148,9.72518c-0.77576,0.82106 1.92291,9.13197 1.92291,9.13197z" data-paper-data="{&quot;index&quot;:null}" fill="#272727" stroke="#000000"/><path d="M225.15315,363.80637l0.11111,-105.95062l1.55556,6.55556l0.26562,99.39506z" fill="#272727" stroke="#000000"/><path d="M250.43689,363.90506l0.49403,-99.82711l1.44445,-5.88889l0.11111,105.95062z" data-paper-data="{&quot;index&quot;:null}" fill="#272727" stroke="#000000"/><path d="M226.34451,270.10596c0,0.33137 -0.14924,0.6 -0.33333,0.6c-0.18409,0 -0.33333,-0.26863 -0.33333,-0.6c0,-0.33137 0.14924,-0.6 0.33333,-0.6c0.18409,0 0.33333,0.26863 0.33333,0.6z" fill="#000000" stroke="none"/><path d="M226.34451,282.78744c0,0.36819 -0.14924,0.66667 -0.33333,0.66667c-0.18409,0 -0.33333,-0.29848 -0.33333,-0.66667c0,-0.36819 0.14924,-0.66667 0.33333,-0.66667c0.18409,0 0.33333,0.29848 0.33333,0.66667z" fill="#000000" stroke="none"/><path d="M226.41117,293.943c0,0.25773 -0.14924,0.46667 -0.33333,0.46667c-0.18409,0 -0.33333,-0.20893 -0.33333,-0.46667c0,-0.25773 0.14924,-0.46667 0.33333,-0.46667c0.18409,0 0.33333,0.20893 0.33333,0.46667z" fill="#000000" stroke="none"/><path d="M226.27784,302.343c0,0.33137 -0.13431,0.6 -0.3,0.6c-0.16569,0 -0.3,-0.26863 -0.3,-0.6c0,-0.33137 0.13431,-0.6 0.3,-0.6c0.16569,0 0.3,0.26863 0.3,0.6z" fill="#000000" stroke="none"/><path d="M226.27784,312.21707c0,0.36819 -0.19401,0.66667 -0.43333,0.66667c-0.23932,0 -0.43333,-0.29848 -0.43333,-0.66667c0,-0.36819 0.19401,-0.66667 0.43333,-0.66667c0.23932,0 0.43333,0.29848 0.43333,0.66667z" fill="#000000" stroke="none"/><path d="M226.14451,323.83185c0,0.40501 -0.17909,0.73333 -0.4,0.73333c-0.22091,0 -0.4,-0.32832 -0.4,-0.73333c0,-0.40501 0.17909,-0.73333 0.4,-0.73333c0.22091,0 0.4,0.32832 0.4,0.73333z" fill="#000000" stroke="none"/><path d="M226.07784,338.01333c0,0.42342 -0.17909,0.76667 -0.4,0.76667c-0.22091,0 -0.4,-0.34325 -0.4,-0.76667c0,-0.42342 0.17909,-0.76667 0.4,-0.76667c0.22091,0 0.4,0.34325 0.4,0.76667z" fill="#000000" stroke="none"/><path d="M226.01117,352.22815c0,0.27614 -0.13431,0.5 -0.3,0.5c-0.16569,0 -0.3,-0.22386 -0.3,-0.5c0,-0.27614 0.13431,-0.5 0.3,-0.5c0.16569,0 0.3,0.22386 0.3,0.5z" fill="#000000" stroke="none"/><path d="M251.21117,269.31337v-0.33333h1.13333v0.33333z" fill="#000000" stroke="none"/><path d="M251.27784,282.0467v-0.4h0.86667v0.4z" fill="#000000" stroke="none"/><path d="M251.14451,295.40226v-0.26667h1v0.26667z" fill="#000000" stroke="none"/><path d="M251.41117,302.543v-0.33333h0.73333v0.33333z" fill="#000000" stroke="none"/><path d="M251.41117,311.1504v-0.8h0.93333v0.8z" fill="#000000" stroke="none"/><path d="M251.41117,324.90596v-0.66667h0.93333v0.66667z" fill="#000000" stroke="none"/><path d="M251.27784,337.84668v-0.6h1.13333v0.6z" fill="#000000" stroke="none"/><path d="M251.27784,354.26151v-0.53333h1.2v0.53333z" fill="#000000" stroke="none"/><path d="M213.89658,363.28625l0.28374,-119.17066c0,0 4.39483,77.86964 6.28625,83.99422c2.06558,6.68854 5.63082,-45.40563 5.63082,-45.40563v80.58207z" fill-opacity="0.5" fill="#000000" stroke="none"/><path d="M267.23964,363.85372l1.13496,-100.72758c0,0 4.02224,39.15607 5.67479,39.15607c1.74706,0 4.53983,-39.15607 4.53983,-39.15607v99.02514z" fill-opacity="0.5" fill="#000000" stroke="none"/><path d="M197.72342,362.43503v-62.13899c0,0 -0.49072,-45.11461 1.13496,-45.11461c1.21829,0 2.16971,57.20435 4.77629,69.63133c2.05992,9.82076 6.00581,-24.51672 6.00581,-24.51672v62.13899z" fill-opacity="0.34677" fill="#000000" stroke="none"/><path d="M226.88273,362.79522v-76.69597c0,0 -1.45978,-46.1944 -0.44205,-46.1944c0.76109,0 4.07885,26.02287 5.69592,51.88898c1.29315,20.68466 5.05946,-45.40373 7.08778,-41.36007c3.39885,6.77594 0.20088,74.4649 3.32357,59.49393c1.24717,-5.97929 1.20612,-71.48303 2.78916,-75.45993c2.18203,-5.48168 5.85846,51.6315 5.85846,51.6315l-0.66308,76.69597z" fill-opacity="0.37097" fill="#000000" stroke="none"/><path d="M226.66487,362.32596v-30.36014c0,0 2.48409,-17.59186 5.95853,-17.59186c1.81851,0 2.7239,20.08272 6.13927,23.64904c1.98008,2.06759 3.81696,-11.10499 5.95343,-12.61909c3.01662,-2.13787 6.06664,6.56192 6.06664,6.56192v30.36014z" fill-opacity="0.37097" fill="#000000" stroke="none"/></g><g><path d="M328.03049,363.39162c0,0 -0.63536,-94.38387 -0.79335,-118.01201c-0.05451,-8.15261 8.18688,-36.76129 40.20201,-36.9211c31.60235,-0.15775 39.85672,29.48704 39.84884,36.89673c-0.07659,46.24274 0.65429,117.98648 0.65429,117.98648l-10.49667,0.09614l-0.15882,-114.84311c0,0 0.07549,-3.0993 -2.81625,-3.15415c-3.43441,-0.06514 -2.94538,3.11562 -2.94538,3.11562l0.20548,114.86995l-48.21366,0.07222l-0.30539,-115.23309c0,0 0.27949,-2.919 -2.8856,-2.93443c-3.11083,-0.01515 -2.81569,2.90899 -2.81569,2.90899l0.35311,115.0668z" fill="#000000" stroke="#000000" stroke-width="2" stroke-linecap="butt"/><path d="M382.62767,259.33385c-0.57113,0 -1.03411,-0.46299 -1.03411,-1.03411c0,-0.57113 0.46299,-1.03413 1.03411,-1.03413c0.57113,0 1.03411,0.463 1.03411,1.03413c0,0.57113 -0.46299,1.03411 -1.03411,1.03411z" fill="#000000" stroke="none" stroke-width="1.5" stroke-linecap="butt"/><path d="M377.36778,263.56946c-4.4635,-0.31439 -6.55245,-1.79392 -6.16985,-2.58011c0.11788,-0.24224 2.84645,1.06355 6.97038,1.3048c6.40897,0.37493 8.51033,-0.63173 8.51033,-0.63173v1.34616c0,0 -2.4135,1.04672 -9.31086,0.56089z" fill="#000000" stroke="#000000" stroke-width="0" stroke-linecap="butt"/><path d="M349.55504,258.29974c0,-0.57113 0.46299,-1.03413 1.03411,-1.03413c0.57113,0 1.03413,0.463 1.03413,1.03413c0,0.57113 -0.463,1.03411 -1.03413,1.03411c-0.57113,0 -1.03411,-0.46299 -1.03411,-1.03411z" fill="#000000" stroke="none" stroke-width="1.5" stroke-linecap="butt"/><path d="M355.84903,263.56946c-6.89736,0.48585 -9.31086,-0.56089 -9.31086,-0.56089v-1.34616c0,0 2.10136,1.00666 8.51033,0.63173c4.12393,-0.24126 6.85251,-1.54704 6.97039,-1.3048c0.3826,0.78618 -1.70634,2.26571 -6.16985,2.58011z" fill="#000000" stroke="#000000" stroke-width="0" stroke-linecap="butt"/><path d="M367.12949,320.12113c-0.81895,0 -1.48284,-0.66389 -1.48284,-1.48284c0,-0.81895 0.66389,-1.48284 1.48284,-1.48284c0.81895,0 1.48284,0.66389 1.48284,1.48284c0,0.81895 -0.66389,1.48284 -1.48284,1.48284z" data-paper-data="{&quot;index&quot;:null}" fill="#000000" stroke="none" stroke-width="1.5" stroke-linecap="butt"/><path d="M343.06621,363.40603l0.2588,-119.20147c0,0 -4.50029,2.53266 -3.98581,3.56928c0.71851,1.4477 0.60519,116.26572 0.27522,115.64534c-1.08926,1.49124 -10.89202,2.05651 -12.82935,1.05644c-0.59009,-0.30461 -2.11302,-127.4869 -2.11302,-127.66397c0,-0.8318 8.26496,-12.05258 10.09101,-13.87356c0.67781,-0.67593 7.52674,-7.31891 7.52674,-7.31891c0,0 3.4496,-2.09417 5.43211,-3.48927c1.98251,-1.3951 5.17197,-2.80371 5.17197,-2.80371c0,0 1.16348,9.66143 4.1225,22.49429c3.21383,13.93793 9.56084,32.44612 10.17822,32.81372c0.38625,-0.18685 6.29016,-17.43382 10.4484,-32.38713c3.19534,-11.49062 3.64194,-22.92088 3.64194,-22.92088c0,0 3.91276,1.51959 6.16585,2.94655c2.25309,1.42695 4.75379,3.60523 4.75379,3.60523c0,0 7.59011,6.57921 8.74526,7.85841c1.52934,1.69357 9.71586,12.92454 9.90036,13.38527c0.77258,1.92921 0.44305,125.82353 -2.47057,128.03c-1.17452,0.88946 -12.0192,-0.18924 -11.90398,-1.61888c0.05055,-0.62723 0.50824,-115.46229 -0.22362,-116.25234c-0.93989,-1.01461 -4.04745,-2.57109 -4.04745,-2.57109v118.69667z" fill="#606060" stroke="#000000" stroke-width="0" stroke-linecap="butt"/><path d="M361.52794,280.46758c0.22457,-0.10863 6.7298,-15.72365 10.86083,-27.94882c2.97421,-8.80175 3.51363,-13.67894 5.25424,-19.93831c3.19534,-11.49062 3.64194,-22.92088 3.64194,-22.92088c0,0 3.91276,1.51959 6.16585,2.94655c2.25309,1.42695 4.75379,3.60523 4.75379,3.60523c0,0 7.59011,6.57921 8.74526,7.85841c1.52934,1.69357 9.71586,12.92454 9.90036,13.38527c0.77258,1.92921 0.44305,125.82353 -2.47057,128.03c-1.17452,0.88946 -12.0192,-0.18924 -11.90398,-1.61888c0.05055,-0.62723 0.50824,-115.46229 -0.22362,-116.25234c-0.93989,-1.01461 -4.04745,-2.57109 -4.04745,-2.57109v118.69667c0,0 -31.59592,0.05762 -31.70456,0.00001c-0.21338,-0.11316 0.41053,-83.63942 1.02791,-83.27182z" fill="#464646" stroke="#000000" stroke-width="0" stroke-linecap="butt"/><path d="M389.41193,228.62906l0.54524,-15.28257c0,0 7.7259,5.92606 11.37329,10.50166c3.38098,4.24139 9.47425,13.01268 9.47425,13.01268l0.25472,6.91804z" data-paper-data="{&quot;index&quot;:null}" fill="#757575" stroke="#a90000" stroke-width="0" stroke-linecap="butt"/><path d="M325.01672,242.65646l0.009,-6.27636c0,0 5.73737,-8.72669 8.67771,-12.4214c3.1465,-3.95376 9.18767,-10.26753 9.18767,-10.26753l1.69816,17.69236z" fill="#757575" stroke="#a90000" stroke-width="0" stroke-linecap="butt"/><path d="M366.27998,272.58413l-19.92777,-33.38548l6.72886,-3.88203l-8.28167,0.2588l-2.58802,-27.43303c0,0 17.02427,-8.1419 25.20546,-7.92198c7.85093,0.21105 22.93174,9.21599 22.93174,9.21599l-0.2588,31.31507l-7.24646,-3.10563l4.65844,5.17604z" fill="#2e2e2e" stroke="#000000" stroke-width="0" stroke-linecap="round"/><path d="M366.55367,263.64214c0,0 -5.06737,-14.15222 -6.95409,-21.32805c-2.24909,-8.55407 -5.64532,-26.59182 -5.64532,-26.59182l26.77374,-1.36427c0,0 -0.51158,4.84557 -1.64502,10.35506c-0.91809,4.46271 -2.36454,9.30237 -3.32598,12.81898c-2.32853,8.51688 -8.50336,26.1101 -8.50336,26.1101z" fill="#000000" stroke="#000000" stroke-width="1" stroke-linecap="butt"/><path d="M370.65028,283.40357c0,1.44831 -1.10886,2.62239 -2.47671,2.62239c-1.36785,0 -2.47671,-1.17409 -2.47671,-2.62239c0,-1.44831 1.10886,-2.62239 2.47671,-2.62239c1.36785,0 2.47671,1.17409 2.47671,2.62239z" fill="#a6a6a6" stroke="#000000" stroke-width="0" stroke-linecap="butt"/><path d="M370.21321,311.95853c0,1.44831 -1.2067,2.62239 -2.69524,2.62239c-1.48854,0 -2.69524,-1.17409 -2.69524,-2.62239c0,-1.44831 1.2067,-2.62239 2.69524,-2.62239c1.48854,0 2.69524,1.17409 2.69524,2.62239z" fill="#a6a6a6" stroke="#000000" stroke-width="0" stroke-linecap="butt"/><path d="M369.45683,341.85769c0,1.44831 -1.2067,2.6224 -2.69524,2.6224c-1.48854,0 -2.69524,-1.17409 -2.69524,-2.6224c0,-1.44831 1.2067,-2.6224 2.69524,-2.6224c1.48854,0 2.69524,1.17409 2.69524,2.6224z" fill="#a6a6a6" stroke="#000000" stroke-width="0" stroke-linecap="butt"/><path d="M410.47856,261.86586c0,4.08269 -2.80235,7.39237 -6.25923,7.39237c-3.45688,0 -6.25923,-3.30968 -6.25923,-7.39237c0,-4.08269 2.80235,-7.39237 6.25923,-7.39237c3.45688,0 6.25923,3.30968 6.25923,7.39237z" fill="#463b30" stroke="#000000" stroke-width="0" stroke-linecap="butt"/><path d="M409.05955,261.81837c0,2.84429 -2.10525,5.15004 -4.70221,5.15004c-2.59696,0 -4.70221,-2.30575 -4.70221,-5.15004c0,-2.84429 2.10525,-5.15004 4.70221,-5.15004c2.59696,0 4.70221,2.30575 4.70221,5.15004z" fill="#757575" stroke="#a6a6a6" stroke-width="0.5" stroke-linecap="butt"/><path d="M342.50003,364.97882l0.25,-100.75c0,0 14.32287,35.18663 23.1748,40.85187c7.63369,4.88556 26.8252,-8.85187 26.8252,-8.85187l-0.25,68.75z" fill-opacity="0.21283" fill="#000000" stroke="none" stroke-width="0" stroke-linecap="butt"/><path d="M343.25003,364.35382v-20c0,0 14.84166,10 21.75,10c8.79728,0 26.75,-10 26.75,-10v20z" fill-opacity="0.35484" fill="#000000" stroke="none" stroke-width="0" stroke-linecap="butt"/><path d="M327.00002,364.60382c0,0 -1.37425,-53.43656 -1.6049,-72.99581c-0.1568,-13.29675 0.3549,-33.00419 0.3549,-33.00419c0,0 3.40237,27.96924 5.70291,36.44492c2.44112,8.99358 8.54709,16.05508 8.54709,16.05508v53.5z" fill-opacity="0.35484" fill="#000000" stroke="none" stroke-width="0" stroke-linecap="butt"/><path d="M397.00003,365.60382v-41.25c0,0 5.06296,7.27942 7.06797,7.01461c2.35508,-0.31105 6.18203,-8.76461 6.18203,-8.76461l-1.25,43z" fill-opacity="0.35484" fill="#000000" stroke="none" stroke-width="0" stroke-linecap="butt"/></g><g><path d="M78.5383,357.90152c0,0 -0.65969,-94.38387 -0.82373,-118.01201c-0.0566,-8.15261 8.50035,-36.76129 41.74131,-36.9211c32.81238,-0.15775 41.3828,29.48704 41.37462,36.89673c-0.07952,46.24274 0.67934,117.98648 0.67934,117.98648l-10.89858,0.09614l-0.1649,-114.84311c0,0 0.07838,-3.0993 -2.92408,-3.15415c-3.56591,-0.06514 -3.05816,3.11562 -3.05816,3.11562l0.21335,114.86995l-50.05972,0.07222l-0.31708,-115.23309c0,0 0.29019,-2.919 -2.99609,-2.93443c-3.22994,-0.01515 -2.9235,2.90899 -2.9235,2.90899l0.36663,115.0668z" fill="#ffffff" stroke="#000000" stroke-width="0" stroke-linecap="butt"/><path d="M135.22597,253.84369c-0.593,0 -1.07371,-0.46299 -1.07371,-1.03411c0,-0.57113 0.48072,-1.03413 1.07371,-1.03413c0.593,0 1.07371,0.463 1.07371,1.03413c0,0.57113 -0.48072,1.03411 -1.07371,1.03411z" fill="#000000" stroke="none" stroke-width="0" stroke-linecap="butt"/><path d="M117.0567,258.25739c0,0 -1.77063,-3.626 -1.77063,-8.18561c0,-4.70168 1.77063,-19.61133 1.77063,-19.61133h4.60363c0,0 2.12476,16.86844 2.12476,21.99881c0,3.46198 -1.51704,6.25393 -1.51704,6.25393c0,0 -1.46575,6.36555 -2.20129,6.36555c-0.79447,0 -3.01007,-6.82134 -3.01007,-6.82134z" fill="#000000" stroke="#000000" stroke-width="0" stroke-linecap="butt"/><path d="M106.84366,225.74005l-7.08251,-19.09974l8.49902,-3.24013l10.9779,17.05334z" data-paper-data="{&quot;index&quot;:null}" fill="#ffffff" stroke="#000000" stroke-width="1" stroke-linecap="butt"/><path d="M129.76469,258.0793c-4.6344,-0.31439 -6.80334,-1.79392 -6.40609,-2.58011c0.12239,-0.24224 2.95544,1.06355 7.23727,1.3048c6.65436,0.37493 8.83618,-0.63173 8.83618,-0.63173v1.34616c0,0 -2.50591,1.04672 -9.66737,0.56089z" fill="#000000" stroke="#000000" stroke-width="0" stroke-linecap="butt"/><path d="M119.53559,220.56951l10.9779,-17.05334l8.49902,3.24014l-7.08251,19.09974z" fill="#ffffff" stroke="#000000" stroke-width="1" stroke-linecap="butt"/><path d="M100.88701,252.80958c0,-0.57113 0.48072,-1.03413 1.07371,-1.03413c0.593,0 1.07373,0.463 1.07373,1.03413c0,0.57113 -0.48073,1.03411 -1.07373,1.03411c-0.593,0 -1.07371,-0.46299 -1.07371,-1.03411z" fill="#000000" stroke="none" stroke-width="0" stroke-linecap="butt"/><path d="M107.422,258.0793c-7.16145,0.48585 -9.66737,-0.56089 -9.66737,-0.56089v-1.34616c0,0 2.18182,1.00666 8.83618,0.63173c4.28183,-0.24126 7.11489,-1.54704 7.23728,-1.3048c0.39725,0.78618 -1.77167,2.26571 -6.40609,2.58011z" fill="#000000" stroke="#000000" stroke-width="0" stroke-linecap="butt"/><path d="M104.83151,241.88766l-6.55132,-30.11886l4.76636,-4.0928c0,0 4.13578,10.80499 5.33453,16.45425c0.74101,3.49209 3.61244,11.47837 5.05898,17.61795c0.93645,3.97457 0.76145,7.47241 0.76145,7.47241z" fill="#000000" stroke="none" stroke-width="0" stroke-linecap="butt"/><path d="M119.13438,314.63104c-0.85031,0 -1.53962,-0.66389 -1.53962,-1.48284c0,-0.81895 0.68931,-1.48284 1.53962,-1.48284c0.85031,0 1.53962,0.66389 1.53962,1.48284c0,0.81895 -0.68931,1.48284 -1.53962,1.48284z" data-paper-data="{&quot;index&quot;:null}" fill="#000000" stroke="none" stroke-width="0" stroke-linecap="butt"/><path d="M125.0867,249.95726c0,0 -0.18084,-3.49784 0.78683,-7.47241c1.49477,-6.13958 4.46193,-14.12586 5.22764,-17.61795c1.23872,-5.64926 5.51236,-16.45425 5.51236,-16.45425l4.92526,4.0928l-6.76973,30.11887z" data-paper-data="{&quot;index&quot;:null}" fill="#000000" stroke="none" stroke-width="0" stroke-linecap="butt"/><path d="M93.07489,357.99556c0,0 1.38735,-27.3044 1.529,-43.04736c0.06516,-7.24244 -0.93547,-17.85628 -1.10564,-29.07118c-0.34594,-22.79908 0.65148,-47.34173 0.65148,-47.34173c0,0 -0.35237,4.51325 -2.67131,3.80549c-2.27483,-0.6943 -0.27829,113.06265 -0.71729,115.21413c-1.01186,4.9591 -12.49797,2.15959 -12.85431,1.7238c-1.85618,-2.27004 -0.70584,-128.1517 -0.70584,-129.68914c0,-4.498 16.94876,-19.38085 16.94876,-19.38085c0,0 2.77554,-2.35297 4.83396,-3.74807c2.05842,-1.3951 5.37,-2.80371 5.37,-2.80371c0,0 -3.28453,6.00219 -0.89863,16.53313c4.07385,17.98114 14.90024,44.70406 16.01562,44.98612c1.76131,0.65524 12.06713,-25.9563 15.73095,-44.38014c1.72418,-8.67024 -1.36981,-17.13911 -1.36981,-17.13911c0,0 4.06258,1.51959 6.40194,2.94655c2.33936,1.42695 4.93581,3.60523 4.93581,3.60523c0,0 16.7755,14.43381 16.7755,19.20119c0,2.25503 2.15768,126.69588 -0.69765,130.28751c-0.27151,0.34152 -7.35371,3.49397 -11.62066,-1.89308c-1.1228,-1.41755 -0.52819,-115.96831 -1.72793,-115.37323c-1.90486,0.94482 -2.72926,-3.39101 -2.72926,-3.39101c0,0 0.44935,23.97002 0.09381,46.34856c-0.17599,11.07709 -0.64395,21.76424 -0.57907,28.96141c0.14964,16.59711 1.56009,43.90431 1.56009,43.90431z" fill="#6d6d6d" stroke="#000000" stroke-width="0" stroke-linecap="butt"/><path d="M116.23078,274.38667c0,0 -8.67729,-16.78248 -12.67302,-23.70039c-3.44678,-5.9675 -9.89876,-15.37875 -9.89876,-15.37875l9.67362,-17.85735l16.92883,48.13721z" fill="#444444" stroke="#000000" stroke-width="0" stroke-linecap="butt"/><path d="M119.78847,265.67015l15.58527,-47.10201l11.28588,16.82215c0,0 -13.60166,18.04989 -18.6558,29.18224c-5.23978,11.54122 -14.93314,37.84753 -14.93314,37.84753c0,0 1.27592,-22.2804 2.51125,-29.03829c0.744,-4.07008 4.20654,-7.71162 4.20654,-7.71162z" data-paper-data="{&quot;index&quot;:null}" fill="#444444" stroke="#000000" stroke-width="0" stroke-linecap="butt"/><path d="M85.86637,224.15028l2.4184,-11.6461l12.89816,-10.86969l2.22,16.56334z" fill="#444444" stroke="#000000" stroke-width="0" stroke-linecap="butt"/><path d="M135.39522,218.7982l0.80614,-18.11615l13.70429,12.42251l2.95582,11.9049z" data-paper-data="{&quot;index&quot;:null}" fill="#444444" stroke="#000000" stroke-width="0" stroke-linecap="butt"/><path d="M135.3093,306.50689c0,1.85813 -1.56398,3.36443 -3.49325,3.36443c-1.92928,0 -3.49325,-1.5063 -3.49325,-3.36443c0,-1.85813 1.56398,-3.36443 3.49325,-3.36443c1.92928,0 3.49325,1.5063 3.49325,3.36443z" fill="#878787" stroke="#000000" stroke-width="0" stroke-linecap="butt"/><path d="M92.85288,315.04737v-8.28167c0,0 16.82588,1.29401 25.5276,1.29401c9.10457,0 27.946,-1.29401 27.946,-1.29401v8.28167c0,0 -19.49247,1.81162 -28.75213,1.81162c-8.49971,0 -24.72146,-1.81162 -24.72146,-1.81162z" fill="#5c5c5c" stroke="#000000" stroke-width="0" stroke-linecap="butt"/><path d="M104.02616,322.40969l6.47276,-15.34538l4.23219,1.65592l-6.47277,15.34538z" fill="#5c5c5c" stroke="#000000" stroke-width="0" stroke-linecap="butt"/><path d="M116.76522,321.56036l-6.47276,-12.77583l4.23219,-1.37865l6.47276,12.77584z" data-paper-data="{&quot;index&quot;:null}" fill="#5c5c5c" stroke="#000000" stroke-width="0" stroke-linecap="butt"/><path d="M116.49949,304.82468c0,1.78665 -1.50383,3.23503 -3.35889,3.23503c-1.85506,0 -3.3589,-1.44838 -3.3589,-3.23503c0,-1.78665 1.50383,-3.23502 3.3589,-3.23502c1.85506,0 3.35889,1.44837 3.35889,3.23502z" fill="#878787" stroke="#000000" stroke-width="0" stroke-linecap="butt"/><path d="M139.07125,266.91016c0,2.14399 -1.74444,3.88204 -3.89632,3.88204c-2.15188,0 -3.89632,-1.73804 -3.89632,-3.88204c0,-2.14399 1.74444,-3.88203 3.89632,-3.88203c2.15188,0 3.89632,1.73804 3.89632,3.88203z" fill="#878787" stroke="#000000" stroke-width="0" stroke-linecap="butt"/><path d="M110.13634,268.54573c0,2.14399 -1.74444,3.88204 -3.89632,3.88204c-2.15188,0 -3.89632,-1.73804 -3.89632,-3.88204c0,-2.14399 1.74444,-3.88203 3.89632,-3.88203c2.15188,0 3.89632,1.73804 3.89632,3.88203z" fill="#878787" stroke="#000000" stroke-width="0" stroke-linecap="butt"/><path d="M115.42465,358.81369c0,0 -2.31744,-13.66397 -2.67341,-20.69219c-0.36054,-7.11848 0.52371,-21.75137 0.52371,-21.75137" fill="none" stroke="#000000" stroke-width="0" stroke-linecap="round"/><path d="M134.23445,336.81551c0,2.00106 -1.62413,3.62323 -3.62761,3.62323c-2.00347,0 -3.62761,-1.62217 -3.62761,-3.62323c0,-2.00106 1.62413,-3.62323 3.62761,-3.62323c2.00347,0 3.62761,1.62218 3.62761,3.62323z" fill="#878787" stroke="#000000" stroke-width="0" stroke-linecap="butt"/><path d="M112.6854,335.51997c0,2.00106 0.12619,3.70752 -1.87728,3.70752c-2.00347,0 -3.62761,-1.62217 -3.62761,-3.62323c0,-2.00106 1.62413,-3.62323 3.62761,-3.62323c2.00347,0 1.87728,1.53789 1.87728,3.53895z" fill="#878787" stroke="#000000" stroke-width="0" stroke-linecap="butt"/><path d="M113.32543,339.37523c0,0 -0.45853,-2.80682 -0.44532,-3.88822c0.01367,-1.1198 0.36462,-3.34128 0.36462,-3.34128l3.55137,0.07774v6.3744z" fill="#6d6d6d" stroke="none" stroke-width="0" stroke-linecap="butt"/><path d="M75.60117,348.03989v-6.37341h16.43689v6.37341z" fill="#7e7e7e" stroke="#000000" stroke-width="0" stroke-linecap="butt"/><path d="M147.32576,347.42311v-6.16782h16.86381v6.16782z" fill="#7e7e7e" stroke="#000000" stroke-width="0" stroke-linecap="butt"/><path d="M80.72436,229.73196l9.81943,10.69089" fill="none" stroke="#5d5d5d" stroke-width="1" stroke-linecap="round"/><path d="M149.46043,240.01166l8.7521,-10.89648" fill="none" stroke="#5d5d5d" stroke-width="1" stroke-linecap="round"/><path d="M117.41082,230.46045l-1.77063,-8.35613c0,0 2.61562,-1.19374 3.54125,-1.19374c1.01399,0 3.18713,1.36426 3.18713,1.36426l-1.59357,8.01507z" fill="#000000" stroke="#000000" stroke-width="1" stroke-linecap="butt"/><path d="M92.41689,358.80841c0,0 2.06107,-25.89924 2.00712,-41.74599c-0.02688,-7.89687 -0.36202,-16.78568 -0.60809,-29.64916c-0.43053,-22.50623 0.21207,-47.69661 0.21207,-47.69661c0,0 14.14181,38.09755 22.74369,49.52236c8.00285,10.6292 28.09624,16.81213 28.09624,16.81213l0.71518,52.36934z" fill-opacity="0.24194" fill="#000000" stroke="none" stroke-width="0" stroke-linecap="butt"/><path d="M78.07606,358.75674c0,0 -0.73298,-2.03793 -0.88849,-5.95439c-0.19121,-4.81571 0.17958,-12.08275 0.07358,-17.16102c-0.24881,-11.91977 -0.55246,-42.39157 -0.55246,-42.39157c0,0 4.43342,40.35749 6.50347,33.91458c3.03705,-9.45266 4.23631,-66.88787 5.57976,-66.88787c1.79537,0 0.40277,32.97329 0.40277,32.97329c0,0 1.20832,16.86565 1.20832,26.76655c0,11.9516 0.46291,38.89236 0.46291,38.89236c0,0 -3.70143,1.92029 -5.89756,1.8942c-2.0582,-0.02445 -6.8923,-2.04613 -6.8923,-2.04613z" fill-opacity="0.24194" fill="#000000" stroke="none" stroke-width="0" stroke-linecap="butt"/></g><g><path d="M77.03042,181.39162c0,0 -0.63536,-94.38387 -0.79335,-118.01201c-0.05451,-8.15261 8.18688,-36.76129 40.20201,-36.9211c31.60235,-0.15775 39.85672,29.48704 39.84884,36.89673c-0.07659,46.24274 0.65429,117.98648 0.65429,117.98648l-10.49667,0.09614l-0.15882,-114.84311c0,0 0.07549,-3.0993 -2.81625,-3.15415c-3.43441,-0.06514 -2.94538,3.11562 -2.94538,3.11562l0.20548,114.86995l-48.21366,0.07222l-0.30539,-115.23309c0,0 0.27949,-2.919 -2.8856,-2.93443c-3.11083,-0.01515 -2.81569,2.90899 -2.81569,2.90899l0.35311,115.0668z" fill="#ffffff" stroke="#000000" stroke-width="0" stroke-linecap="butt"/><path d="M67.90771,182.09335c0,0 5.3295,-95.08562 5.17151,-118.71376c-0.05451,-8.15261 11.34475,-36.76129 43.35988,-36.9211c31.60235,-0.15775 42.66371,29.48704 42.65583,36.89673c-0.07659,46.24274 6.97003,119.0391 6.97003,119.0391l-19.6194,-0.95648l-3.21827,-119.01509c0,0 3.13494,1.07268 0.2432,1.01783c-3.43441,-0.06514 -2.94538,3.11562 -2.94538,3.11562l0.20548,114.86995l-48.21366,0.07222l-0.30539,-115.23309c0,0 0.27949,-2.919 -2.8856,-2.93443c-3.11083,-0.01515 -0.03437,-0.15046 -0.03437,-0.15046l-2.42821,118.12625z" fill="#565656" stroke="#000000" stroke-width="0" stroke-linecap="butt"/><g stroke="#000000" stroke-width="0" stroke-linecap="butt"><path d="M153.91512,13.15726c0.87018,9.73092 -8.01642,16.51222 -15.95235,23.0897c-3.62333,3.0031 -9.92633,10.10792 -9.92633,10.10792l-7.39539,-1.00504l-5.76693,2.5804l-8.68517,2.31449c0,0 -7.12644,-3.59092 -14.22781,-10.00528c-6.5718,-5.936 -13.19887,-14.3464 -12.29651,-23.21512c0.40942,-4.02389 2.18363,-30.87089 33.67564,-30.88199c19.02541,-0.0067 39.14399,11.014 40.57486,27.01493z" fill="#444444"/><path d="M148.52038,12.7871c0.08934,5.59295 -2.38008,9.17657 -11.26721,16.41886c-9.25629,9.5463 -21.34762,21.3432 -21.34762,21.3432c0,0 -8.79626,-6.53007 -11.86628,-8.8946c-8.59928,-5.62462 -20.16999,-12.12307 -18.82374,-25.33339c0.98325,-9.64811 4.09301,-25.60249 29.72762,-26.37454c10.75978,-0.32406 33.42193,13.11945 33.57723,22.84048z" fill="#181818"/></g><path d="M109.05788,17.82327l-0.08333,-1.91667" fill="none" stroke="#000000" stroke-width="0.5" stroke-linecap="round"/><path d="M110.47455,16.32327l0.25,1.75" fill="none" stroke="#000000" stroke-width="0.5" stroke-linecap="round"/><path d="M107.80789,15.9066v2.16667" fill="none" stroke="#000000" stroke-width="0.5" stroke-linecap="round"/><path d="M106.55788,18.07327l-0.08333,-2.5" fill="none" stroke="#000000" stroke-width="0.5" stroke-linecap="round"/><path d="M104.72455,18.32327l0.25,-3.08333" fill="none" stroke="#000000" stroke-width="0.5" stroke-linecap="round"/><path d="M102.89122,14.48994v3.83333" fill="none" stroke="#000000" stroke-width="0.5" stroke-linecap="round"/><path d="M101.47456,18.32329l0.08333,-3.16667" fill="none" stroke="#000000" stroke-width="0.5" stroke-linecap="round"/><path d="M100.14122,18.65661l-0.33333,-2.41667" fill="none" stroke="#000000" stroke-width="0.5" stroke-linecap="round"/><path d="M98.14122,16.82327l0.33333,2" fill="none" stroke="#000000" stroke-width="0.5" stroke-linecap="round"/><path d="M96.30789,17.40661l0.5,1.75" fill="none" stroke="#000000" stroke-width="0.5" stroke-linecap="round"/><path d="M121.80789,18.32327v-1.25" fill="none" stroke="#000000" stroke-width="0.5" stroke-linecap="round"/><path d="M123.30789,18.57328l-0.16667,-1.83333" fill="none" stroke="#000000" stroke-width="0.5" stroke-linecap="round"/><path d="M124.47455,16.32327l0.25,2.5" fill="none" stroke="#000000" stroke-width="0.5" stroke-linecap="round"/><path d="M126.39122,19.07329l-0.16667,-3.16667" fill="none" stroke="#000000" stroke-width="0.5" stroke-linecap="round"/><path d="M127.89122,19.6566l0.41667,-3.83333" fill="none" stroke="#000000" stroke-width="0.5" stroke-linecap="round"/><path d="M131.47455,20.90661l0.41667,-4.66667" fill="none" stroke="#000000" stroke-width="0.5" stroke-linecap="round"/><path d="M133.05788,20.82327l0.75,-2.75" fill="none" stroke="#000000" stroke-width="0.5" stroke-linecap="round"/><path d="M134.97455,19.48991l-0.33333,1.91667" fill="none" stroke="#000000" stroke-width="0.5" stroke-linecap="round"/><path d="M110.80788,49.96216c0,0.50626 -0.50368,0.91667 -1.125,0.91667c-0.62132,0 -1.125,-0.41041 -1.125,-0.91667c0,-0.50626 0.50368,-0.91667 1.125,-0.91667c0.62132,0 1.125,0.41041 1.125,0.91667z" fill="none" stroke="#000000" stroke-width="1.5" stroke-linecap="butt"/><path d="M92.64709,181.57133l-0.25,-116.75107c0,0 12.15892,43.88333 19.51795,47.27666c7.63109,3.51878 28.42898,8.75147 28.42898,8.75147l1.5844,61.2792z" fill="#3e3e3e" stroke="none" stroke-width="0" stroke-linecap="butt"/><path d="M125.39121,49.96216c0,0.36819 -0.41041,0.66667 -0.91667,0.66667c-0.50626,0 -0.91667,-0.29848 -0.91667,-0.66667c0,-0.36819 0.41041,-0.66667 0.91667,-0.66667c0.50626,0 0.91667,0.29848 0.91667,0.66667z" fill="none" stroke="#000000" stroke-width="1.5" stroke-linecap="butt"/><path d="M109.64121,51.46217l-0.16667,22.08333" fill="none" stroke="#000000" stroke-width="1.5" stroke-linecap="round"/><path d="M123.89121,91.04552l0.5,-39.75" fill="none" stroke="#000000" stroke-width="1.5" stroke-linecap="round"/><path d="M67.9377,181.85051l4.0844,-82.19692c0,0 14.84426,-37.55334 16.96565,-37.51091c2.04228,0.04085 0.26259,36.92651 0.26259,36.92651l-2.22505,81.94692z" fill="#3e3e3e" stroke="none" stroke-width="0" stroke-linecap="butt"/><path d="M146.49396,181.51617l-1.11253,-47.42516c0,0 11.00703,-44.02176 13.30945,-44.02176c2.09455,0 4.11253,49.5844 4.11253,49.5844l4.0844,42.91879z" fill="#3e3e3e" stroke="none" stroke-width="0" stroke-linecap="butt"/><path d="M96.43383,159.06836c0,0 2.6889,-6.31901 2.6889,-9.37637c0,-3.14744 -2.6889,-9.24588 -2.6889,-9.24588h39.21301c0,0 -3.58519,6.57818 -3.58519,9.58143c0,3.19259 3.58519,9.04083 3.58519,9.04083z" fill="#292929" stroke="#000000" stroke-width="0" stroke-linecap="butt"/></g><g><path d="M331.00939,170.60867c0,0 -0.63536,-94.38387 -0.79335,-118.01201c-0.05451,-8.15261 8.18688,-36.76129 40.20201,-36.9211c31.60235,-0.15775 39.85672,29.48704 39.84884,36.89673c-0.07659,46.24274 0.65429,117.98648 0.65429,117.98648l-10.49667,0.09614l-0.15882,-114.84311c0,0 0.07549,-3.0993 -2.81625,-3.15415c-3.43441,-0.06514 -2.94538,3.11562 -2.94538,3.11562l0.20548,114.86995l-48.21366,0.07222l-0.30539,-115.23309c0,0 0.27949,-2.919 -2.8856,-2.93443c-3.11083,-0.01515 -2.81569,2.90899 -2.81569,2.90899l0.35311,115.0668z" fill="#ffffff" stroke="#000000" stroke-width="2" stroke-linecap="butt"/><path d="M396.18398,21.75993l15.31746,15.05673l4.01526,139.54643l-21.56342,1.39702z" data-paper-data="{&quot;index&quot;:null}" fill="#3c3c3c" stroke="#000000" stroke-width="0.5" stroke-linecap="round"/><path d="M346.12387,177.37022l-21.56342,-1.38237l4.01526,-138.08312l15.31746,-14.89885z" fill="#3c3c3c" stroke="#000000" stroke-width="0.5" stroke-linecap="round"/><path d="M370.42951,17.00475c11.47595,-0.05728 19.87305,3.81542 25.9137,9.12625c-0.52562,-0.02502 -1.05107,-0.05643 -1.57635,-0.09498c-0.98563,-0.07233 -2.30555,-1.03609 -3.36791,-1.41378c-6.88402,-2.44738 -14.38534,-6.33564 -21.58686,-7.22044c-0.95464,-0.11729 -1.90237,-0.20488 -2.84365,-0.26464c1.12159,-0.08152 2.27501,-0.12649 3.46107,-0.13241z" fill="#213f67" stroke="#ffffff" stroke-width="2" stroke-linecap="butt"/><path d="M323.92037,176.34253l3.28985,-96.29619c0,0 18.24464,52.63898 18.38043,52.82173c0.09911,0.13338 0.49598,2.6222 0.43275,4.01768c-0.034,0.75027 -0.53512,0.85038 -0.53512,0.85038l0.11749,40.01634z" fill="#252525" stroke="none" stroke-width="0" stroke-linecap="butt"/><path d="M394.721,182.27367l-48.21366,0.09432l-0.089,-43.85993c11.20042,-0.24122 25.30682,7.57549 36.50971,7.67149c4.87889,0.04181 7.21738,1.36931 12.09595,1.4278z" fill="#bababa" stroke="#85d6d6" stroke-width="0" stroke-linecap="butt"/><path d="" fill="#213f67" stroke="#ffffff" stroke-width="2" stroke-linecap="butt"/><path d="" fill="#213f67" stroke="#ffffff" stroke-width="2" stroke-linecap="butt"/><path d="M370.43912,19.45849c11.17648,-0.05579 19.43271,3.61598 25.43598,8.71347c-1.27114,9.37004 -0.80948,19.05831 -0.08106,28.5929c-1.57529,0.79862 -1.26891,2.79134 -1.26891,2.79134l1.46006,65.79619c-16.14794,-0.26097 -35.05592,-7.65262 -50.90931,-6.92475l1.13568,-59.16236c0,0 0.27949,-2.919 -2.8856,-2.93443c-0.02128,-0.0001 -0.0424,-0.00007 -0.06337,0.0001c0.00363,-2.27152 -0.05407,-4.5782 0.04919,-6.93643c0.29414,-6.71721 1.29908,-14.11409 1.41468,-21.27059c6.05856,-5.00166 14.40194,-8.60898 25.71265,-8.66544z" fill="#dadada" stroke="#d9d9d9" stroke-width="2" stroke-linecap="butt"/><path d="M346.61303,118.81168l1.41405,-80.86514c0,0 13.46857,29.18727 21.32633,36.03467c8.02794,6.99571 26.34171,5.50419 26.34171,5.50419l1.4606,47.3067c0,0 -7.4871,0.10473 -16.16617,-1.44624c-7.49526,-1.33942 -15.9922,-3.86474 -19.9784,-4.49414c-8.22904,-1.29932 -14.39812,-2.04004 -14.39812,-2.04004z" fill="#bababa" stroke="none" stroke-width="0" stroke-linecap="butt"/><g data-paper-data="{&quot;index&quot;:null}" fill="#000000" stroke="none" stroke-width="0" stroke-linecap="butt"><path d="M335.20156,116.51139c0,0 5.27967,-4.45039 5.78598,-11.58619c0.36449,-5.13702 -0.23639,-18.57261 -1.08826,-32.18244c-0.40255,-6.43127 -1.12002,-12.79147 -1.14028,-18.72986c-0.02566,-7.51919 0.99806,-19.79811 4.77638,-25.7608c3.1536,-4.97681 9.17354,-4.33537 9.17354,-4.33537l7.69265,6.39466c0,0 -1.34447,11.29517 -1.40597,22.76883c-0.05376,10.02996 1.16767,20.25528 1.24942,22.41577c0.22004,5.81517 4.61348,25.15311 3.75654,33.5904c-0.38027,3.74408 -7.06349,11.23003 -13.96343,11.2677c-9.15063,0.04996 -14.83657,-3.8427 -14.83657,-3.8427z"/><path d="M335.20156,116.51138c0,0 5.27967,-4.45039 5.78598,-11.58619c0.34867,-4.91412 -0.18606,-17.42224 -0.97885,-30.41242c-0.00867,-0.1421 4.8639,2.33965 9.82931,2.61372c5.15341,0.28445 10.40682,-1.63551 10.40702,-1.63049c0.22004,5.81516 4.61347,25.1531 3.75654,33.59039c-0.38027,3.74408 -7.06349,11.23003 -13.96343,11.2677c-9.15064,0.04996 -14.83657,-3.8427 -14.83657,-3.8427z"/></g><g data-paper-data="{&quot;index&quot;:null}" fill="#000000" stroke="none" stroke-width="0" stroke-linecap="butt"><path d="M402.41204,115.03643c0,0 -5.68594,3.89266 -14.83657,3.8427c-6.89994,-0.03767 -13.58316,-7.52362 -13.96343,-11.2677c-0.85694,-8.43729 3.5365,-27.77523 3.75654,-33.5904c0.08175,-2.16049 1.30318,-12.38581 1.24942,-22.41577c-0.0615,-11.47366 -1.40597,-22.76883 -1.40597,-22.76883l13.19504,-5.50239c0,0 4.16981,3.37912 6.51165,10.09056c1.82535,5.23125 1.95649,13.07066 1.93587,19.11334c-0.02026,5.93839 -0.73773,12.29859 -1.14028,18.72986c-0.85187,13.60983 -1.45275,27.04542 -1.08826,32.18244c0.50631,7.1358 5.78598,11.58619 5.78598,11.58619z"/><path d="M402.41203,115.03643c0,0 -5.68593,3.89266 -14.83657,3.8427c-6.89994,-0.03767 -13.58316,-7.52362 -13.96343,-11.2677c-0.85693,-8.43729 3.5365,-27.77523 3.75654,-33.59039c0.0002,-0.00502 5.25361,1.91494 10.40702,1.63049c4.96541,-0.27407 9.83798,-2.75582 9.82931,-2.61372c-0.79279,12.99018 -1.32752,25.4983 -0.97885,30.41242c0.50631,7.1358 5.78598,11.58619 5.78598,11.58619z"/></g><path d="M345.47868,183.19226l0.10514,-45.75137c0,0 11.95611,25.80574 20.88653,28.6092c3.17481,0.99665 12.40993,3.92621 17.96997,1.05558c7.44263,-3.84261 11.22898,-13.81732 11.22898,-13.81732l0.13397,30.00905z" fill="#898989" stroke="none" stroke-width="0" stroke-linecap="butt"/><path d="M395.70922,178.02002v-37.20428l17.9854,-36.81844l2.18818,72.50051z" fill="#252525" stroke="none" stroke-width="0" stroke-linecap="butt"/></g><g stroke-linecap="butt"><path d="M200.03042,181.39162c0,0 -0.63536,-94.38387 -0.79335,-118.01201c-0.05451,-8.15261 8.18688,-36.76129 40.20201,-36.9211c31.60235,-0.15775 39.85672,29.48704 39.84884,36.89673c-0.07659,46.24274 0.65429,117.98648 0.65429,117.98648l-10.49667,0.09614l-0.15882,-114.84311c0,0 0.07549,-3.0993 -2.81625,-3.15415c-3.43441,-0.06514 -2.94538,3.11562 -2.94538,3.11562l0.20548,114.86995l-48.21366,0.07222l-0.30539,-115.23309c0,0 0.27949,-2.919 -2.8856,-2.93443c-3.11083,-0.01515 -2.81569,2.90899 -2.81569,2.90899l0.35311,115.0668z" fill="#ffffff" stroke="#000000" stroke-width="2"/><path d="M254.62759,77.33381c-0.57113,0 -1.03411,-0.46299 -1.03411,-1.03411c0,-0.57113 0.46299,-1.03413 1.03411,-1.03413c0.57113,0 1.03411,0.463 1.03411,1.03413c0,0.57113 -0.46299,1.03411 -1.03411,1.03411z" fill="#000000" stroke="none" stroke-width="1.5"/><path d="M249.36771,81.56943c-4.4635,-0.31439 -6.55245,-1.79392 -6.16985,-2.58011c0.11788,-0.24224 2.84645,1.06355 6.97038,1.3048c6.40897,0.37493 8.51033,-0.63173 8.51033,-0.63173v1.34616c0,0 -2.4135,1.04672 -9.31086,0.56089z" fill="#000000" stroke="#000000" stroke-width="0"/><path d="M221.55496,76.29972c0,-0.57113 0.46299,-1.03413 1.03411,-1.03413c0.57113,0 1.03413,0.463 1.03413,1.03413c0,0.57113 -0.463,1.03411 -1.03413,1.03411c-0.57113,0 -1.03411,-0.46299 -1.03411,-1.03411z" fill="#000000" stroke="none" stroke-width="1.5"/><path d="M227.84895,81.56943c-6.89736,0.48585 -9.31086,-0.56089 -9.31086,-0.56089v-1.34616c0,0 2.10136,1.00666 8.51033,0.63173c4.12393,-0.24126 6.85251,-1.54704 6.97039,-1.3048c0.3826,0.78618 -1.70634,2.26571 -6.16985,2.58011z" fill="#000000" stroke="#000000" stroke-width="0"/><path d="M239.12941,138.12113c-0.81895,0 -1.48284,-0.66389 -1.48284,-1.48284c0,-0.81895 0.66389,-1.48284 1.48284,-1.48284c0.81895,0 1.48284,0.66389 1.48284,1.48284c0,0.81895 -0.66389,1.48284 -1.48284,1.48284z" data-paper-data="{&quot;index&quot;:null}" fill="#000000" stroke="none" stroke-width="1.5"/><path d="M213.67811,182.31771c0,0 -0.62078,-39.4666 -0.36384,-59.19063c0.26061,-20.00579 -0.03018,-57.18194 -0.03018,-57.18194c0,0 0.58886,-1.67159 -1.28454,1.95618c-1.57381,3.04762 1.41118,14.20551 -0.09984,17.9873c-2.09905,5.25352 -12.60653,0.57491 -14.243,-0.31618c-2.67771,-1.45806 -2.46677,-33.40092 -2.46677,-35.30723c0,-4.498 19.39981,-18.73966 19.39981,-18.73966c0,0 2.45558,-2.13536 4.43809,-3.53046c1.98251,-1.3951 5.60719,-0.41002 5.60719,-0.41002c0,0 -1.1192,21.99287 14.04192,21.92252c15.43477,-0.07162 14.34914,-21.92252 14.34914,-21.92252c0,0 3.91276,-0.00367 6.16585,1.42329c2.25309,1.42695 6.49465,2.51719 6.49465,2.51719c0,0 17.9473,16.43557 17.9473,21.20295c0,2.12797 1.50551,33.66681 -2.02899,35.27997c-2.01231,0.91843 -11.63057,5.23859 -13.94322,-1.35739c-1.50369,-4.28872 0.98203,-14.5391 -0.35658,-17.54927c-1.21451,-2.7311 -1.83612,-1.99902 -1.83612,-1.99902c0,0 -0.31578,34.80314 0.06921,54.42191c0.34672,17.66869 0.07724,52.23459 0.45508,59.73551c0.0486,0.96488 0.28168,0.40468 0.28168,0.40468z" fill="#4e4e4e" stroke="#000000" stroke-width="0"/><path d="M213.63175,183.05728l-0.21761,-67.44706c0,0 17.56063,30.89148 26.02707,30.89148c2.51366,0 1.90266,-47.8298 5.49562,-52.25749c7.21812,-8.89507 20.40788,41.04661 20.40788,41.04661l0.38239,46.67842z" fill="#000000" stroke="none" stroke-width="NaN"/><path d="M235.88018,101.81519c0,7.51107 -1.15639,16.5 -5.05,16.5c-3.89361,0 -9.05,-8.98893 -9.05,-16.5c0,-7.51107 -2.24361,-16.4 1.65,-16.4c3.89361,0 12.45,8.88893 12.45,16.4z" fill="#000000" stroke="none" stroke-width="0"/><path d="M254.67361,70.56688c0,4.21117 -5.62665,11.625 -8.25,11.625c-2.62335,0 -1.25,-7.41383 -1.25,-11.625c0,-4.21117 10.12665,-17.125 12.75,-17.125c2.62335,0 -3.25,12.91383 -3.25,17.125z" fill="#000000" stroke="none" stroke-width="0"/><path d="M196.42361,85.69188l0.2,-22.1c0,0 3.15205,-13.53321 5.23991,-12.66136c1.09515,0.45731 0.82703,8.37721 2.50201,12.41527c2.01789,4.86473 5.90808,5.94609 5.90808,5.94609c0,0 1.05435,6.87176 1.6375,9.7875c0.23743,1.18716 1.15359,3.74619 0.60397,5.52398c-0.56142,1.81599 -2.59147,2.83852 -2.59147,2.83852c0,0 -3.76939,0.49841 -5.87597,0.22534c-2.36374,-0.30641 -7.62403,-1.97534 -7.62403,-1.97534z" fill="#000000" stroke="none" stroke-width="0"/><path d="M267.69397,88.34498c0,0 -0.83938,-6.37345 -0.51153,-8.43834c0.43377,-2.73201 0.76153,-7.14499 0.76153,-7.14499c0,0 5.15639,9.20502 7.45392,9.03691c2.7468,-0.20099 7.92108,-10.16191 7.92108,-10.16191c0,0 0.19312,5.48431 0.48166,7.88887c0.29466,2.45549 -1.98166,8.44447 -1.98166,8.44447c0,0 -5.40408,2.24856 -7.74728,2.31077c-2.36494,0.06279 -6.37772,-1.93577 -6.37772,-1.93577z" fill="#000000" stroke="none" stroke-width="0"/><path d="M214.2158,182.41055l-1.54118,-107.86029c0,0 3.31957,-21.63097 9.1933,-16.46485c5.50402,4.84095 13.43868,36.50015 17.55568,36.50015c9.01109,0 25.90177,-20.0353 25.90177,-20.0353v107.0897z" fill-opacity="0.29839" fill="#000000" stroke="none" stroke-width="0"/><path d="M214.20698,182.40172v-73.5691c0,0 6.78722,-0.05449 12.66094,5.11163c5.50402,4.84095 16.90633,47.28838 21.02333,47.28838c9.01109,0 17.42529,-86.6912 17.42529,-86.6912v107.08969z" fill-opacity="0.29839" fill="#000000" stroke="none" stroke-width="0"/></g></g></g></svg>