<svg version="1.1" xmlns="http://www.w3.org/2000/svg" xmlns:xlink="http://www.w3.org/1999/xlink" width="338.28107" height="195.51214" viewBox="0,0,338.28107,195.51214"><g transform="translate(-46.1356,-107.91667)"><g data-paper-data="{&quot;isPaintingLayer&quot;:true}" fill-rule="nonzero" stroke-linejoin="miter" stroke-miterlimit="10" stroke-dasharray="" stroke-dashoffset="0" style="mix-blend-mode: normal"><path d="M345.0384,191.73019l-0.62787,-28.25901c0,0 0.1108,7.60305 3.60381,17.59655c3.21463,7.02924 7.70377,15.42184 7.70377,15.42184z" data-paper-data="{&quot;index&quot;:null}" fill="#393939" stroke="#000000" stroke-width="0" stroke-linecap="round"/><path d="M282.97459,198.94806c0,0 5.19522,-11.4983 7.26323,-16.95094c2.34641,-9.13354 5.93691,-18.86371 5.93691,-18.86371l-2.24434,29.81282z" data-paper-data="{&quot;index&quot;:null}" fill="#393939" stroke="#000000" stroke-width="0" stroke-linecap="round"/><path d="M300.65408,185.46219c11.09783,0 20.0944,9.31444 20.0944,20.80438c0,11.48995 -8.99657,20.80438 -20.0944,20.80438c-11.09784,0 -20.0944,-9.31443 -20.0944,-20.80438c0,-11.48995 8.99657,-20.80438 20.0944,-20.80438z" data-paper-data="{&quot;index&quot;:null}" fill="#393939" stroke="none" stroke-width="0" stroke-linecap="butt"/><path d="M315.04541,220.90567c0,0 3.04532,-3.90674 3.85428,-5.17512c0.90761,-1.42304 1.76361,-4.71121 1.76361,-4.71121c0,0 2.44883,5.1013 2.52888,5.23645c0.87777,1.48195 4.49494,5.40211 4.49494,5.40211l-6.58251,-5.09959l-0.23358,-1.7129l-0.85645,2.18005z" fill="#272727" stroke="#000000" stroke-width="0" stroke-linecap="round"/><path d="M360.12774,206.33891c0,11.32667 -8.83035,20.50873 -19.72313,20.50873c-10.89277,0 -19.72313,-9.18207 -19.72313,-20.50873c0,-11.32667 8.83035,-20.50873 19.72313,-20.50873c10.89277,0 19.72313,9.18207 19.72313,20.50874z" fill="#393939" stroke="none" stroke-width="0" stroke-linecap="butt"/><text transform="translate(242,129.5) scale(0.5,0.5)" font-size="40" xml:space="preserve" fill="#000000" fill-rule="nonzero" stroke="none" stroke-width="1" stroke-linecap="butt" stroke-linejoin="miter" stroke-miterlimit="10" stroke-dasharray="" stroke-dashoffset="0" font-family="Sans Serif" font-weight="normal" text-anchor="start" style="mix-blend-mode: normal"><tspan x="0" dy="0">Tatas template</tspan></text><text transform="translate(46.3856,297.40103) scale(0.5,0.5)" font-size="40" xml:space="preserve" fill="#ff0000" fill-rule="nonzero" stroke="none" stroke-width="1" stroke-linecap="butt" stroke-linejoin="miter" stroke-miterlimit="10" stroke-dasharray="" stroke-dashoffset="0" font-family="Sans Serif" font-weight="normal" text-anchor="start" style="mix-blend-mode: normal"><tspan x="0" dy="0">"Titties even..." ~ Poots</tspan></text></g></g></svg>