<svg version="1.1" xmlns="http://www.w3.org/2000/svg" xmlns:xlink="http://www.w3.org/1999/xlink" width="210.93366" height="190.24979" viewBox="0,0,210.93366,190.24979"><g transform="translate(-132.94173,-68.21424)"><g data-paper-data="{&quot;isPaintingLayer&quot;:true}" fill-rule="nonzero" stroke-linecap="butt" stroke-linejoin="miter" stroke-miterlimit="10" stroke-dasharray="" stroke-dashoffset="0" style="mix-blend-mode: normal"><g stroke="none" stroke-width="0"><path d="M219.52142,103.89447c0,19.70565 -14.37717,35.68015 -32.1122,35.68015c-17.73503,0 -32.1122,-15.97458 -32.1122,-35.68015c0,-19.70565 14.37717,-35.68023 32.1122,-35.68023c17.73503,0 32.1122,15.97458 32.1122,35.68023z" fill="#696969"/><path d="M202.4811,121.587c-1.27858,1.64867 -3.21032,4.15929 -7.10138,3.92386c-0.07471,-0.02722 -10.61359,-0.82734 -10.61359,-0.82734c-0.37335,-0.13618 -0.92319,-0.2523 -1.44596,-0.44306c-2.09086,-0.76298 -3.41947,-2.68654 -3.45777,-4.9004c-0.01904,-1.10708 0.44408,-2.37625 1.09709,-3.23805c0.05451,-0.14935 0.15638,-0.19684 0.33302,-0.21704l0.03084,-0.01419c-0.40867,-0.74293 -0.64056,-1.57121 -0.66633,-2.41766c-1.27757,0.71838 -2.94159,0.87259 -4.5844,0.273l-0.14921,-0.05444c-2.16558,-0.79027 -3.52162,-2.63912 -3.64158,-4.62906c-1.22306,0.56918 -2.60857,0.65576 -4.02731,0.13799c-2.3895,-0.87208 -3.42671,-2.43532 -3.2812,-4.92067l0.24629,-1.60241c0.75205,-4.37944 2.40028,-8.4318 4.79514,-12.21188c2.50982,-3.39942 4.72397,-3.43764 6.14264,-2.9198c1.26939,0.46326 2.09666,1.4422 2.45487,3.01138c1.4422,-2.09687 4.18701,-3.12584 6.50187,-2.28112l0.14928,0.05451c1.56817,0.57229 2.58511,1.95896 2.98365,3.88129c1.48962,-1.99494 4.13265,-2.97656 6.37272,-2.15913l0.07457,0.02729c2.24022,0.81757 3.62957,3.27084 3.51127,5.68148c1.8285,-1.53269 3.4855,-1.43561 4.53097,-1.05408l0.67205,0.2452c2.3895,0.87208 3.5479,3.49469 3.02781,6.7743c-0.24253,1.46819 -0.49635,2.75112 -0.78911,3.94586c0.68081,1.11229 1.05285,2.63919 0.94882,4.65882c0,0 0,-0.00014 -0.02722,0.07457c-0.34446,4.18977 -1.70702,7.92336 -4.08754,11.20087zM183.17971,115.80851c0.42895,0.43141 0.93,0.81815 1.49128,1.05206c0.04561,0.01853 0.09122,0.03714 0.1377,0.05408l0.07464,0.02722c2.09086,0.76298 4.20396,-0.15811 4.93971,-2.17426l0.40867,-1.12004l2.67061,-7.31792c0.16347,-0.44791 0.5712,-0.63766 1.01919,-0.47412c0.44791,0.16347 0.63781,0.5712 0.47434,1.01919l-2.67068,7.31785c-0.65395,1.79216 0.34895,3.68126 2.21575,4.36257l0.67198,0.2452c2.31479,0.84479 3.89931,-0.94621 4.63406,-2.03193l1.08898,-2.0564c1.79426,-3.59742 2.7383,-5.90794 3.49991,-8.56248c0.38073,-1.40984 0.69268,-2.91256 0.99776,-4.68872c0.42996,-1.87404 0.04575,-4.29894 -1.89569,-5.0074l-0.67205,-0.2452c-1.19468,-0.43604 -2.39044,0.05835 -3.58743,1.4831c-0.25838,0.24419 -0.63897,0.35923 -0.9376,0.2502l-0.74669,-0.2725c-0.37327,-0.13618 -0.63766,-0.57128 -0.47412,-1.01919c0.66112,-2.04345 -0.42945,-4.38762 -2.29625,-5.06887l-0.07464,-0.02722c-1.8668,-0.68132 -4.21098,0.40947 -5.02138,2.39833c-0.13625,0.37335 -0.64592,0.61051 -1.01919,0.47434l-0.74669,-0.27257c-0.29863,-0.10888 -0.54297,-0.36734 -0.50858,-0.69326c-0.03931,-1.28351 -0.49215,-3.05655 -2.06031,-3.62891l-0.14928,-0.05451c-1.8668,-0.68132 -4.21098,0.4094 -5.02152,2.39826c-0.13625,0.37327 -0.64577,0.61051 -1.01919,0.47419l-0.74684,-0.27257c-0.37335,-0.13618 -0.54297,-0.36734 -0.61044,-0.64584c-0.20879,-1.51481 -0.7375,-2.38457 -1.63361,-2.71151c-1.3441,-0.49055 -2.7509,0.34989 -4.24044,2.34483c-2.2859,3.48108 -3.80484,7.4116 -4.54993,11.53976l-0.21914,1.52777c-0.15145,1.80628 0.4044,2.6014 2.19678,3.2555c1.7173,0.62688 3.4228,-0.10468 3.99509,-1.67278l1.98937,-5.45097c0.16347,-0.44791 0.5712,-0.63774 1.01926,-0.47434c0.44791,0.16347 0.63774,0.5712 0.47427,1.01926l-1.98929,5.45105l-0.19076,0.52263l-0.1091,0.29878c-0.70854,1.94151 0.31442,4.00726 2.40528,4.77024l0.14943,0.05451c2.09086,0.76298 4.20388,-0.15811 4.91235,-2.09962l2.28908,-6.2723c0.16347,-0.44791 0.5712,-0.63774 1.01912,-0.47434c0.44791,0.16347 0.63781,0.57113 0.47434,1.01919l-2.28908,6.27238l-0.51785,1.41874c-0.47969,1.3142 -0.14327,2.73164 0.74894,3.73896zM205.11544,110.19443c0.02121,-0.75393 -0.05951,-1.4603 -0.09267,-2.06473c-0.82459,2.49136 -1.79158,4.67706 -3.17318,7.30358l-1.11627,2.13104c-0.7973,1.294 -1.76371,2.19338 -2.82561,2.68031c-1.17607,0.572 -2.47369,0.63187 -3.79217,0.15066l-0.67205,-0.24528c-1.55057,-0.56585 -2.66779,-1.63644 -3.1178,-2.96077c-1.43431,1.52415 -3.71485,2.07494 -5.83786,1.30023l-0.07471,-0.02729l-0.07471,-0.02729c-0.76276,-0.27843 -1.42504,-0.69688 -1.96982,-1.2122l-0.20864,-0.00594c-0.39456,0.61754 -0.69428,1.43901 -0.68834,2.11801c-0.02932,1.93543 1.51032,3.51286 3.56796,3.67141l10.61359,0.8272c2.73671,0.15261 4.23936,-1.41447 5.67453,-3.25991c2.22429,-3.08066 3.45075,-6.44084 3.78797,-10.37932z" fill="#565656"/><path d="M201.79211,120.83915c-1.43503,1.84559 -3.24847,3.6599 -5.98518,3.50714l-11.17539,-0.99313c-2.05756,-0.15855 -3.70442,-1.93673 -3.6751,-3.87231c-0.00601,-0.67907 0.27684,-1.58757 0.6714,-2.20518l1.27236,-0.11308c0.54485,0.51531 1.19156,0.8529 1.95433,1.13126l0.07399,0.02461l0.07399,0.02476c2.12301,0.77471 4.38466,0.16933 5.81911,-1.35482c0.45001,1.32434 1.05206,2.06097 2.6027,2.62681l0.59314,0.25396c1.31855,0.48114 2.32087,0.58445 3.49686,0.01238c1.06183,-0.48693 1.89793,-1.13437 2.6953,-2.42837l1.10577,-1.98546c1.38167,-2.62652 2.43808,-4.54892 3.26266,-7.04028c0.03323,0.60443 1.03917,0.77746 1.01796,1.53132c-0.33722,3.93826 -1.57946,7.7995 -3.80375,10.88008z" data-paper-data="{&quot;noHover&quot;:false,&quot;origItem&quot;:[&quot;Path&quot;,{&quot;applyMatrix&quot;:true,&quot;segments&quot;:[[[273.91213,176.61986],[-0.03151,0.36793],[0.00198,-0.07043]],[[273.90347,176.42697],[0.0031,0.05647],[-0.07704,0.23275]],[[273.60702,177.1093],[0.12908,-0.24538],[0,0]],[[273.50274,177.30839],[0,0],[-0.07449,0.12089]],[[273.23877,177.55879],[0.0992,-0.04549],[-0.10987,0.05344]],[[272.88449,177.57287],[0.12318,0.04495],[0,0]],[[272.82171,177.54996],[0,0],[-0.14486,-0.05286]],[[272.53043,177.27336],[0.04204,0.12372],[-0.134,0.14239]],[[271.98505,177.39483],[0.19833,0.07238],[0,0]],[271.97807,177.39228],[[271.9711,177.38973],[0,0],[-0.07126,-0.02601]],[[271.78706,177.27648],[0.0509,0.04814],[0,0]],[[271.76757,177.27592],[0,0],[-0.03686,0.05769]],[[271.70326,177.4738],[-0.00056,-0.06344],[-0.00274,0.18081]],[[272.03659,177.81679],[-0.19222,-0.01481],[0,0]],[[273.02814,177.89407],[0,0],[0.25567,0.01426]],[[273.55825,177.58952],[-0.13407,0.17242],[0.2078,-0.2878]]],&quot;closed&quot;:true,&quot;fillColor&quot;:[0,0,0,1]}]}" fill="#c2c2c2"/><path d="M182.22619,112.56431l0.51343,-1.42055l2.07573,-6.43606c0.16347,-0.44791 -0.06747,-1.45313 -0.51539,-1.6166c-0.44791,-0.16347 0.14175,0.32513 -0.02172,0.77319l-2.51547,5.8039c-0.70854,1.94151 -3.52879,3.65686 -5.61958,2.89381l-0.15341,-0.059c-2.09086,-0.76298 -3.22458,-3.03136 -2.51612,-4.97287l0.10592,-0.30964l0.18584,-0.54275l1.99856,-5.72268c0.16347,-0.44791 -0.0126,-0.89561 -0.46058,-1.05922c-0.44791,-0.16347 0.15493,0.37689 -0.00854,0.82495l-1.97221,5.20953c-0.57236,1.56802 -3.32891,2.49838 -5.04643,1.87172c-1.79216,-0.65402 -2.36054,-1.55072 -2.20901,-3.357l0.21972,-1.5707c0.7451,-4.12808 2.39529,-8.3812 4.68119,-11.86221c1.48962,-1.9948 2.99813,-2.92566 4.34223,-2.43503c0.89597,0.32708 2.03266,2.07791 2.24145,3.59257c0.06747,0.27858 -0.37204,-0.37052 0.0013,-0.23427l0.76226,0.26236c0.37335,0.13618 0.92174,-0.12329 1.05799,-0.49664c0.81054,-1.98886 3.35982,-3.13872 5.22662,-2.45748l0.15485,0.05408c1.56817,0.57229 2.11273,2.34678 2.15204,3.63029c-0.03439,0.32593 0.24064,0.58843 0.53928,0.69739l0.78839,0.28097c0.37335,0.13618 0.9258,-0.08854 1.06205,-0.46189c0.81054,-1.98886 3.28431,-3.01565 5.15111,-2.33433l0.07696,0.02881c1.8668,0.68132 3.09847,3.16667 2.43728,5.20997c-0.16347,0.44791 0.12517,0.92232 0.49845,1.0585l0.75813,0.29378c0.29863,0.1091 -0.28046,0.46811 -0.02208,0.22392c1.19685,-1.42482 3.35852,-2.38045 4.55327,-1.94448l0.67799,0.25853c1.94151,0.70854 2.36604,3.2783 1.93608,5.15227c-0.30508,1.77616 -0.61631,3.41303 -0.99711,4.82287c-0.76153,2.65454 -1.80664,5.21858 -3.6009,8.81601l-1.13162,2.10723c-0.73475,1.08572 -2.4333,2.96787 -4.74808,2.12308l-0.6845,-0.23797c-1.8668,-0.68132 -3.39913,-3.50077 -2.74518,-5.29279l2.43228,-7.02689c0.16347,-0.44791 -0.04061,-0.80562 -0.48853,-0.96909c-0.44791,-0.16347 0.1731,0.31789 0.00963,0.7658l-2.95513,7.63465l-0.44466,1.13488c-0.73576,2.01615 -3.07313,2.96982 -5.164,2.20677l-0.07783,-0.02751c-0.04655,-0.01694 -0.09795,-0.03605 -0.14342,-0.05451c-0.56129,-0.23391 -1.13133,-0.63107 -1.56028,-1.06248c-0.89221,-1.00724 -1.31811,-2.4527 -0.83842,-3.76697z" data-paper-data="{&quot;noHover&quot;:false,&quot;origItem&quot;:[&quot;Path&quot;,{&quot;applyMatrix&quot;:true,&quot;segments&quot;:[[[271.86285,177.14434],[-0.08335,-0.0941],[0.04007,0.0403]],[[272.00217,177.24262],[-0.05244,-0.02185],[0.00426,0.00173]],[[272.01503,177.24767],[-0.00435,-0.00159],[0,0]],[[272.022,177.25022],[0,0],[0.19533,0.07128]],[[272.48348,177.04709],[-0.06874,0.18835],[0,0]],[272.52167,176.94245],[[272.77117,176.25881],[0,0],[0.01527,-0.04185]],[[272.86638,176.21451],[-0.04185,-0.01528],[0.04185,0.01528]],[[272.91069,176.30972],[0.01527,-0.04185],[0,0]],[[272.66119,176.99337],[0,0],[-0.0611,0.16742]],[[272.86819,177.40093],[-0.1744,-0.06365],[0,0]],[[272.93097,177.42384],[0,0],[0.21625,0.07892]],[[273.36389,177.234],[-0.06864,0.10143],[0,0]],[[273.46562,177.04189],[0,0],[0.16762,-0.33608]],[[273.79258,176.24196],[-0.07115,0.248],[0.03557,-0.13171]],[[273.88579,175.80393],[-0.0285,0.16593],[0.04017,-0.17507]],[[273.70869,175.33613],[0.18138,0.06619],[0,0]],[[273.64591,175.31322],[0,0],[-0.11161,-0.04074]],[[273.31077,175.45178],[0.11181,-0.13311],[-0.02414,0.02281]],[[273.22318,175.47515],[0.0279,0.01019],[0,0]],[[273.15342,175.44969],[0,0],[-0.03487,-0.01273]],[[273.10911,175.35447],[-0.01527,0.04185],[0.06176,-0.1909]],[[272.89459,174.88093],[0.1744,0.06365],[0,0]],[[272.88761,174.87838],[0,0],[-0.1744,-0.06365]],[[272.4185,175.10243],[0.07572,-0.1858],[-0.01273,0.03488]],[[272.32328,175.14674],[0.03488,0.01273],[0,0]],[[272.25352,175.12128],[0,0],[-0.0279,-0.01018]],[[272.20601,175.05651],[-0.00321,0.03045],[-0.00367,-0.11991]],[[272.01354,174.71749],[0.1465,0.05346],[0,0]],[[271.99959,174.7124],[0,0],[-0.1744,-0.06365]],[[271.53047,174.93645],[0.07572,-0.1858],[-0.01273,0.03487]],[[271.43526,174.98074],[0.03488,0.01273],[0,0]],[[271.36549,174.95528],[0,0],[-0.03488,-0.01273]],[[271.30846,174.89494],[0.00631,0.02602],[-0.01951,-0.14151]],[[271.15585,174.64162],[0.08371,0.03055],[-0.12557,-0.04583]],[[270.7597,174.86068],[0.13916,-0.18636],[-0.21355,0.32521]],[[270.33464,175.93875],[0.06961,-0.38566],[0,0]],[[270.31417,176.08148],[0,0],[-0.01415,0.16875]],[[270.51938,176.38561],[-0.16743,-0.0611],[0.16044,0.05856]],[[270.89261,176.22934],[-0.05347,0.14649],[0,0]],[[271.07846,175.72009],[0,0],[0.01527,-0.04185]],[[271.17368,175.67578],[-0.04185,-0.01528],[0.04185,0.01528]],[[271.21799,175.77101],[0.01527,-0.04185],[0,0]],[271.03214,176.28026],[271.01432,176.32909],[[271.00413,176.35699],[0,0],[-0.06619,0.18138]],[[271.22884,176.80264],[-0.19533,-0.07128],[0,0]],[[271.2428,176.80773],[0,0],[0.19533,0.07128]],[[271.70173,176.61158],[-0.06619,0.18138],[0,0]],[[271.91558,176.02561],[0,0],[0.01527,-0.04185]],[[272.01079,175.9813],[-0.04185,-0.01528],[0.04185,0.01528]],[[272.0551,176.07652],[0.01527,-0.04185],[0,0]],[271.84125,176.6625],[[271.79287,176.79505],[0,0],[-0.04481,0.12278]]],&quot;closed&quot;:true,&quot;fillColor&quot;:[0,0,0,1]}]}" fill="#c2c2c2"/></g><g><path d="M325.4296,224.52564c0,18.17495 -5.16027,31.11365 -23.33522,31.11365c-18.17495,0 -24.53192,-12.34037 -24.53192,-30.51528c0,-8.33143 -9.2479,-22.05339 -4.55215,-25.39941c5.54799,-3.95325 18.04389,-1.52588 27.88737,-1.52588c8.10922,0 21.87412,-1.60433 28.00601,0.88399c7.61134,3.08867 -3.47409,15.3772 -3.47409,25.44292z" fill="#9f9f9f" stroke="#8a8a8a" stroke-width="1"/><path d="M305.29863,219.46343c7.70605,1.16233 16.81977,3.42136 23.51311,7.40975l0.55607,-0.88965l3.0198,1.88736c0.76898,0.46327 1.28328,1.30633 1.28328,2.2695c0,1.23039 -0.83927,2.26477 -1.97656,2.56188l-2.54364,0.72672c-6.18688,2.30679 -12.39241,1.41778 -18.49988,3.09983c-5.38264,1.48244 -9.0734,5.9931 -14.37808,6.93035c-2.50611,0.4428 -5.78832,0.03409 -7.81924,-1.6979c-5.67436,-4.8391 -0.57006,-9.87094 -7.54906,-13.83878c-3.41388,-1.46465 -9.0717,-1.86188 -11.54122,-4.85952c-5.6852,-6.90107 -0.48777,-13.66429 7.17416,-13.15084c10.16177,0.68095 16.97994,9.18594 27.34023,9.16932c0,0 0.72838,0 1.42102,0.38202z" fill="#636363" stroke="none" stroke-width="0.5"/></g><g fill="#000000" stroke="none" stroke-width="0"><path d="M274.07692,129.21096l6.60427,-37.42153l2.1381,-3.61323l-0.80913,-4.51567c0,0 -0.12143,-0.48452 -0.11513,-0.51314c0.9623,-4.35598 1.03285,-6.15706 1.03285,-6.15706c0,0 4.88851,-2.46259 5.85036,-2.30735c0.13986,0.0226 1.67713,0.70825 1.67713,0.70825l1.46022,-3.17216l5.10194,0.67885l-0.82157,6.09033l-6.11484,1.41835l-8.08191,50.08293l0.25644,0.19974l3.72445,3.56584l-1.07452,6.02026l-5.82696,-0.50278z"/><path d="M327.78094,147.87899c-0.32791,-0.0529 -5.6893,-1.35562 -5.6893,-1.35562l0.87369,-6.05264l4.96336,-2.32223l8.08191,-50.08293c0,0 -0.2357,-0.14386 -0.4787,-0.29216c-0.77592,-0.47346 -4.87955,-2.97764 -4.87955,-2.97764l1.1358,-6.03962l5.05652,0.96043l1.47853,1.31386l1.46132,1.38858l4.09087,4.65383l-3.31083,20.10287l-1.72561,3.22284c0,0 0.94962,5.72278 0.90288,6.0124c-2.1005,13.01632 -3.8908,23.01589 -3.8908,23.01589c0,0 -7.64835,8.52013 -8.07008,8.45213z" data-paper-data="{&quot;index&quot;:null}"/><path d="M285.86645,89.88017l1.11169,-6.88892l50.2896,8.11526l-1.11171,6.88899z"/><path d="M302.11958,108.47753l-8.00946,-18.17177l9.71304,1.48261c0,0 3.96917,12.10735 3.95979,13.7658c-0.0019,0.33946 -5.66337,2.92337 -5.66337,2.92337z"/><path d="M312.35747,106.00963c0.51276,-1.57729 8.08886,-11.82157 8.08886,-11.82157l9.68629,1.64795l-13.31887,14.72994c0,0 -4.56128,-4.23346 -4.45635,-4.55634z" data-paper-data="{&quot;index&quot;:null}"/><path d="M279.37462,124.85304l1.08942,-6.75119l10.74684,1.73429l-1.08949,6.75118z"/><path d="M300.93258,129.67488l1.05615,-6.54451l9.71345,1.56748l-1.05615,6.54451z"/><path d="M319.75952,132.14753l1.08942,-6.75119l11.09124,1.78983l-1.08942,6.75119z"/><path d="M290.5678,126.52323l-4.72284,-4.65201l8.87801,-8.54206l3.16717,5.53192z"/><path d="M291.61262,121.64465l5.70731,-3.37235l2.69923,5.08695l2.20986,-0.16498l2.71374,6.18485l-5.7039,7.58329z"/><path d="M310.43269,131.24813l-5.80969,-3.91112l9.64339,-12.83311l3.38294,4.93319z"/><path d="M311.86406,123.5992l5.119,-5.24014l6.28479,9.58347l2.288,3.39663l-6.40899,7.68488z"/></g><g><path d="M205.17377,219.22333c0,19.73904 -15.3862,35.7407 -34.36602,35.7407c-18.97987,0 -34.36602,-16.00167 -34.36602,-35.7407c0,-1.15292 0.3754,-12.74151 7.06031,-21.53668c6.44782,-8.48325 19.05642,-14.20402 27.30571,-14.20402c7.02322,0 20.08145,3.72263 26.14966,10.87282c8.08794,9.53004 8.21636,23.32542 8.21636,24.86783z" fill="none" stroke="#000000" stroke-width="7"/><path d="M150.57973,225.42515v-13.04333h40.06169v13.04333z" fill="#000000" stroke="none" stroke-width="2"/></g></g></g></svg>