<svg version="1.1" xmlns="http://www.w3.org/2000/svg" xmlns:xlink="http://www.w3.org/1999/xlink" width="103.68317" height="89.71566" viewBox="0,0,103.68317,89.71566"><g transform="translate(-189.0206,-146.86116)"><g data-paper-data="{&quot;isPaintingLayer&quot;:true}" fill="#ffffff" fill-rule="nonzero" stroke="#000000" stroke-width="2" stroke-linecap="butt" stroke-linejoin="miter" stroke-miterlimit="10" stroke-dasharray="" stroke-dashoffset="0" style="mix-blend-mode: normal"><path d="M222.49282,220.02788c-0.60843,4.64312 -3.68559,8.50455 -6.873,8.62475c-3.18741,0.12021 -5.27808,-3.54635 -4.66964,-8.18945c0.60844,-4.64311 3.6856,-8.50455 6.873,-8.62475c3.18741,-0.12021 5.27808,3.54635 4.66963,8.18946z"/><path d="M263.24601,221.48418c0,0 -0.91923,-4.0352 2.51474,-6.83183c0.17545,-0.14291 1.97926,-1.28541 2.18048,-1.40937c2.73215,-1.68318 5.09361,-4.26328 7.7941,-5.26854c0.78384,-0.29177 2.67024,4.32012 2.67024,4.32012l-3.38677,-7.96064l6.70954,-2.55929c0,0 5.84424,9.27704 6.73233,11.92877c1.2189,3.63948 2.45906,11.34407 2.45906,11.34407c0,0 -2.5572,5.84019 -4.1157,6.47692c-0.81648,0.33356 -5.46829,0.84438 -5.46829,0.84438c0,0 -5.40208,2.67653 -8.59725,3.20804c-2.21247,0.36802 -6.62724,-4.53912 -6.62724,-4.53912z"/><path d="M194.30555,229.79069c0,0 -4.69678,-4.29852 -4.25572,-6.33745c0.63697,-2.94455 3.47146,-7.85043 3.47146,-7.85043c0,0 0.66738,-4.29768 1.02562,-5.04205c0.68384,-1.42087 6.5464,-3.55673 6.5464,-3.55673c0,0 7.573,1.46542 11.12822,2.74538c2.59033,0.93257 13.87997,4.8453 13.87997,4.8453l-3.51259,5.72813l-9.32576,-1.18136c0,0 4.49319,1.93926 4.17739,2.65504c-1.08801,2.466 -3.721,4.55308 -5.48029,7.02083c-0.12957,0.18175 -1.32196,1.80973 -1.46935,1.96678c-2.88447,3.07389 -6.84134,2.05601 -6.84134,2.05601z"/><path d="M238.82615,162.02788c-0.60843,4.64312 -3.68559,8.50455 -6.873,8.62475c-3.18741,0.12021 -5.27808,-3.54635 -4.66964,-8.18945c0.60844,-4.64311 3.6856,-8.50455 6.873,-8.62475c3.18741,-0.12021 5.27808,3.54635 4.66963,8.18946z"/><path d="M210.97221,172.79069c0,0 -4.69678,-4.29852 -4.25572,-6.33745c0.63697,-2.94455 3.47146,-7.85043 3.47146,-7.85043c0,0 0.66738,-4.29768 1.02562,-5.04205c0.68384,-1.42087 6.5464,-3.55673 6.5464,-3.55673c0,0 7.573,1.46542 11.12822,2.74538c2.59033,0.93257 7.2133,2.8453 7.2133,2.8453l-1.51259,6.3948l-4.65909,0.15197c0,0 4.49319,1.93926 4.17739,2.65504c-1.08801,2.466 -3.721,4.55308 -5.48029,7.02083c-0.12957,0.18175 -1.32196,1.80973 -1.46935,1.96678c-2.88447,3.07389 -6.84134,2.05601 -6.84134,2.05601z"/><path d="M263.99601,163.98418c0,0 -0.91923,-4.0352 2.51473,-6.83183c0.17545,-0.14291 1.97926,-1.2854 2.18048,-1.40937c2.73215,-1.68318 5.09361,-4.26328 7.7941,-5.26854c0.78384,-0.29177 2.67024,4.32012 2.67024,4.32012l-1.63676,-4.71063l6.70954,-2.05929c0,0 4.09424,5.52704 4.98232,8.17877c1.21889,3.63948 2.45906,11.34407 2.45906,11.34407c0,0 -2.55721,5.84019 -4.1157,6.47692c-0.81648,0.33355 -5.46828,0.84438 -5.46828,0.84438c0,0 -5.40209,2.67652 -8.59725,3.20804c-2.21247,0.36802 -6.62723,-4.53912 -6.62723,-4.53912z"/></g></g></svg>