<svg version="1.1" xmlns="http://www.w3.org/2000/svg" xmlns:xlink="http://www.w3.org/1999/xlink" width="364.94041" height="306.47574" viewBox="0,0,364.94041,306.47574"><defs><linearGradient x1="110.12977" y1="286.81712" x2="110.12977" y2="308.84819" gradientUnits="userSpaceOnUse" id="color-1"><stop offset="0" stop-color="#030404"/><stop offset="1" stop-color="#586c76"/></linearGradient></defs><g transform="translate(-25.50427,-5.02431)"><g data-paper-data="{&quot;isPaintingLayer&quot;:true}" fill-rule="nonzero" stroke-linejoin="miter" stroke-miterlimit="10" stroke-dasharray="" stroke-dashoffset="0" style="mix-blend-mode: normal"><g data-paper-data="{&quot;index&quot;:null}" stroke="none" stroke-width="0" stroke-linecap="butt"><path d="M383.79474,297.56975c0,0 -2.10081,3.28771 -7.93941,2.82322c-6.60794,-0.52569 -8.69726,-3.87674 -8.69726,-3.87674c0,0 -13.65933,-38.74408 -13.26574,-51.91831c0.35795,-11.98123 2.39517,-34.28396 2.39517,-34.28396l28.34531,9.05471c0,0 4.62395,16.65807 4.84837,24.73184c0.54558,19.62761 -5.68643,53.46924 -5.68643,53.46924z" fill="#645279"/><path d="M341.70161,196.40854c0,-21.42054 18.63142,-36.44356 18.63142,-36.44356c0,0 22.2773,-0.54388 27.56215,11.33424c7.36395,25.29428 -3.56669,50.99934 -3.56669,50.99934c0,0 -9.56054,3.33881 -21.66121,-1.1531c-12.20006,-4.5288 -20.96567,-9.7905 -20.96567,-24.73693z" fill="#645279"/><path d="M383.79474,297.90308c0,0 -2.10081,3.28771 -7.93941,2.82322c-6.60794,-0.52569 -8.69726,-3.87674 -8.69726,-3.87674c0,0 -13.65933,-38.74408 -13.26574,-51.91831c0.35795,-11.98123 14.06184,-43.95062 14.06184,-43.95062c0,0 -1.89928,10.80567 -0.42582,14.77112c1.07456,2.89192 11.78732,7.16807 11.78732,7.16807c0,0 -12.49,2.95754 -8.50115,18.18069c-4.05334,3.26298 13.46177,20.57808 13.46177,20.57808c0,0 -4.53687,-0.66958 -4.80171,3.49181c-1.42212,22.3455 4.32018,32.73269 4.32018,32.73269z" fill="#53305f"/><path d="M341.70161,196.74187c0,-21.42054 18.63142,-36.44356 18.63142,-36.44356c0,0 18.59527,-0.45398 25.8378,8.52612c0.68468,0.84894 -5.60898,-1.52522 -5.60898,-1.52522c0,0 5.29712,13.02575 1.21009,23.56759c-2.97168,7.66497 -8.22712,14.70635 -8.22712,14.70635c0,0 0.83563,3.92631 0.28702,5.77625c-0.50723,1.71039 -3.46428,4.93762 -3.46428,4.93762c0,0 3.27928,2.45999 5.44345,3.44355c2.45315,1.11489 7.18414,2.90131 7.18414,2.90131c0,0 -8.22721,3.33881 -20.32788,-1.1531c-12.20006,-4.5288 -20.96567,-9.7905 -20.96567,-24.73693z" fill="#53305f"/></g><g stroke="none" stroke-width="0" stroke-linecap="butt"><path d="M261.0182,298.56975c0,0 -6.23201,-33.84163 -5.68643,-53.46924c0.22442,-8.07377 4.84837,-24.73184 4.84837,-24.73184l28.34531,-9.05471c0,0 2.03722,22.30273 2.39517,34.28396c0.39359,13.17423 -13.26574,51.91831 -13.26574,51.91831c0,0 -2.08932,3.35105 -8.69726,3.87674c-5.8386,0.46449 -7.93941,-2.82322 -7.93941,-2.82322z" fill="#645279"/><path d="M303.11134,197.40853c0,14.94643 -8.76561,20.20813 -20.96567,24.73693c-12.10067,4.49191 -21.66121,1.1531 -21.66121,1.1531c0,0 -10.93064,-25.70506 -3.56669,-50.99934c5.28485,-11.87812 27.56215,-11.33424 27.56215,-11.33424c0,0 18.63142,15.02302 18.63142,36.44356z" fill="#645279"/><path d="M261.0182,298.90308c0,0 5.74229,-10.38719 4.32018,-32.73269c-0.26484,-4.16138 -4.80171,-3.49181 -4.80171,-3.49181c0,0 17.51511,-17.31509 13.46177,-20.57808c3.98885,-15.22315 -8.50115,-18.18069 -8.50115,-18.18069c0,0 10.71276,-4.27615 11.78732,-7.16807c1.47346,-3.96545 -0.42582,-14.77112 -0.42582,-14.77112c0,0 13.70389,31.96939 14.06184,43.95063c0.39359,13.17423 -13.26574,51.91831 -13.26574,51.91831c0,0 -2.08932,3.35105 -8.69726,3.87674c-5.8386,0.46449 -7.93941,-2.82322 -7.93941,-2.82322z" fill="#53305f"/><path d="M303.11134,197.74186c0,14.94643 -8.76561,20.20813 -20.96567,24.73693c-12.10067,4.49191 -20.32788,1.1531 -20.32788,1.1531c0,0 4.73099,-1.78642 7.18414,-2.90131c2.16418,-0.98356 5.44345,-3.44355 5.44345,-3.44355c0,0 -2.95705,-3.22724 -3.46428,-4.93762c-0.54861,-1.84994 0.28702,-5.77625 0.28702,-5.77625c0,0 -5.25543,-7.04137 -8.22712,-14.70635c-4.08703,-10.54184 1.21009,-23.56759 1.21009,-23.56759c0,0 -6.29366,2.37416 -5.60898,1.52522c7.24253,-8.98011 25.8378,-8.52612 25.8378,-8.52612c0,0 18.63142,15.02302 18.63142,36.44356z" fill="#53305f"/></g><path d="M322.74768,263.775c-31.2456,0.23017 -32.88337,-14.25 -32.88337,-14.25c0,0 20.84873,3.64361 30.1364,-33.06159c1.62913,-6.43838 -0.15909,-11.82057 0.00563,-17.01178c1.2305,-38.77953 -31.04784,-44.97962 -31.04784,-44.97962l17.75799,-9.40112l33.14565,-0.0459l15.28841,8.45788c0,0 15.5817,7.74328 18.86283,9.37383c1.15834,0.57564 5.2914,15.88067 2.11667,26.68618c-0.83256,2.83368 -6.68023,11.53346 -6.68023,11.53346c0,0 0.69123,3.60549 -0.75116,7.85054c-0.85805,2.52529 -3.28069,4.63362 -3.28069,4.63362c0,0 -0.34471,5.62222 -0.85402,7.78043c-1.08651,3.35409 -4.29109,6.49595 -4.29109,6.49595c0,0 -2.48624,7.21225 -3.37387,10.77161c-0.91442,3.66682 -2.03469,10.91651 -2.03469,10.91651c0,0 -5.41584,14.05331 -32.11662,14.25z" data-paper-data="{&quot;index&quot;:null}" fill="#8c82a1" stroke="none" stroke-width="0" stroke-linecap="butt"/><path d="M289.00002,250.125c0,0 -1.12027,-7.24969 -2.03469,-10.91651c-0.88763,-3.55936 -3.37387,-10.77161 -3.37387,-10.77161c0,0 -3.20458,-3.14186 -4.29109,-6.49595c-0.50931,-2.15821 -0.85402,-7.78043 -0.85402,-7.78043c0,0 -2.42264,-2.10833 -3.28069,-4.63362c-1.44239,-4.24505 -0.75116,-7.85054 -0.75116,-7.85054c0,0 -5.84767,-8.69978 -6.68023,-11.53346c-3.17473,-10.80551 0.95833,-26.11054 2.11667,-26.68618c3.28113,-1.63055 18.86283,-9.37383 18.86283,-9.37383l15.28841,-8.45788l33.14565,0.0459l17.75799,9.40112c0,0 -20.98627,11.31871 -21.47422,47.58181c-0.07925,5.88954 -11.49599,6.79005 -9.56799,14.40959c9.28767,36.7052 30.1364,33.06159 30.1364,33.06159c0,0 -1.63777,14.48017 -32.88337,14.25c-26.70078,-0.19669 -32.11662,-14.25 -32.11662,-14.25z" fill="#8c82a1" stroke="none" stroke-width="0" stroke-linecap="butt"/><path d="" data-paper-data="{&quot;index&quot;:null}" fill="#ffffff" stroke="#000000" stroke-width="1" stroke-linecap="butt"/><path d="" fill="none" stroke="#000000" stroke-width="0.25" stroke-linecap="round"/><path d="M289.00002,250.10936c0,0 -1.12027,-7.24969 -2.03469,-10.91651c-0.88763,-3.55936 -3.37387,-10.77161 -3.37387,-10.77161c0,0 -3.20458,-3.14186 -4.29109,-6.49595c-0.50931,-2.15821 -0.85402,-7.78043 -0.85402,-7.78043c0,0 -2.42264,-2.10833 -3.28069,-4.63362c-1.44239,-4.24505 -0.75116,-7.85054 -0.75116,-7.85054c0,0 -5.84767,-8.69978 -6.68023,-11.53346c-1.08896,-3.70639 -1.31812,-7.94218 -1.10245,-11.93134c0.06929,-1.28167 0.33187,-3.74289 0.33187,-3.74289c0,0 -1.40683,13.46942 7.58458,23.70705c1.32317,1.50655 8.89243,6.46125 8.89243,6.46125c0,0 -5.40563,2.17427 -3.61362,5.5357c4.68263,8.78365 17.27656,2.29045 17.27656,2.29045c0,0 -3.90845,5.32722 -9.88612,10.34598c-1.36592,1.14681 0.63347,5.05695 5.48434,5.5616c3.53744,0.36801 9.99591,-2.59668 10.84933,-2.26562c-0.11918,0.68757 -7.74304,10.51529 -6.25224,19.8229c2.55599,15.95797 13.40696,16.11228 13.67337,17.60292c-17.98711,-3.06491 -21.9723,-13.40588 -21.9723,-13.40588z" fill="#705d86" stroke="none" stroke-width="0" stroke-linecap="butt"/><path d="" fill="#705d86" stroke="none" stroke-width="0" stroke-linecap="butt"/><path d="" data-paper-data="{&quot;index&quot;:null}" fill="#ffffff" stroke="#000000" stroke-width="1" stroke-linecap="butt"/><path d="" data-paper-data="{&quot;index&quot;:null}" fill="none" stroke="#000000" stroke-width="0.25" stroke-linecap="round"/><path d="M103.50006,308.84819v-22.03104h13.25942v22.03104z" fill="url(#color-1)" stroke="none" stroke-width="0" stroke-linecap="butt"/><path d="M120.83931,305.38034v-28.35477h26.92683v28.35477z" fill="#8395a1" stroke="none" stroke-width="0" stroke-linecap="butt"/><path d="M124.51115,306.40022v-25.2949h27.33482v25.2949z" fill="#566580" stroke="none" stroke-width="0" stroke-linecap="butt"/><path d="M127.36702,308.44016v-24.07096h26.11087v24.07096z" fill="#3d496d" stroke="none" stroke-width="0" stroke-linecap="butt"/><path d="M130.42684,311.50005v-23.25499h25.49889v23.25499z" fill="#2c2f5d" stroke="none" stroke-width="0" stroke-linecap="butt"/><path d="M159.80158,301.50451v-25.2949h27.5388v25.2949z" fill="#8c82a1" stroke="none" stroke-width="0" stroke-linecap="butt"/><path d="M163.47341,303.95239v-23.86696h25.4989v23.86696z" fill="#705d86" stroke="none" stroke-width="0" stroke-linecap="butt"/><path d="M285.75219,155.63695l9.76873,-5.23878l58.48127,2.73878l17.8,8.55c0,0 -12.00079,-3.2049 -21.32293,-4.04574c-4.56144,-0.41144 -16.07763,0.57948 -16.07763,0.57948c0,0 5.02693,2.91354 3.98926,3.01987c-11.15447,1.14294 -12.85545,5.22869 -23.21957,5.93832c-5.2476,0.3593 -18.54045,-2.91708 -27.99359,-6.76705c-5.40645,-2.20188 -17.45777,3.03946 -17.45777,3.03946z" fill="#705d86" stroke="none" stroke-width="0" stroke-linecap="butt"/><path d="M322.72387,155.07273l0.14286,32.57143" fill="none" stroke="#252e32" stroke-width="4" stroke-linecap="round"/><path d="M308.25146,147.0913l0.16667,37.66667" fill="none" stroke="#252e32" stroke-width="4" stroke-linecap="round"/><path d="M325.55149,147.0913v60" fill="none" stroke="#252e32" stroke-width="3" stroke-linecap="round"/><path d="M312.5848,174.92463l-0.33333,-20.83333" fill="none" stroke="#252e32" stroke-width="6.5" stroke-linecap="round"/><path d="M311.75146,159.00797c0,3.91202 -3.0967,7.08333 -6.91667,7.08333c-3.81997,0 -6.91667,-3.17132 -6.91667,-7.08333c0,-3.91202 3.0967,-7.08333 6.91667,-7.08333c3.81997,0 6.91667,3.17132 6.91667,7.08333z" fill="#252e32" stroke="none" stroke-width="0" stroke-linecap="butt"/><path d="M166.73729,307.21625v-23.45898h25.2949v23.45898z" fill="#654779" stroke="none" stroke-width="0" stroke-linecap="butt"/><path d="M171.42911,310.6841v-22.23503h24.07096v22.23503z" fill="#53305f" stroke="none" stroke-width="0" stroke-linecap="butt"/><path d="" fill="#1c2326" stroke="none" stroke-width="0" stroke-linecap="butt"/><path d="M336.1585,263.01421c0.26641,-1.49064 8.11739,-1.84495 10.67337,-17.80292c1.4908,-9.30761 -6.33306,-18.13533 -6.45224,-18.8229c0.85343,-0.33105 7.51189,1.63363 11.04933,1.26563c4.85087,-0.50465 6.85026,-4.41479 5.48434,-5.5616c-5.97767,-5.01877 -10.08612,-8.14598 -10.08612,-8.14598c0,0 12.79393,4.2932 17.47656,-4.49044c1.79201,-3.36143 -3.61362,-5.5357 -3.61362,-5.5357c0,0 7.56926,-4.9547 8.89243,-6.46125c8.99141,-10.23763 7.58458,-23.70705 7.58458,-23.70705c0,0 0.26258,2.46122 0.33187,3.74289c0.21567,3.98916 -0.01349,8.22494 -1.10245,11.93134c-0.83256,2.83368 -6.68023,11.53346 -6.68023,11.53346c0,0 0.69123,3.60549 -0.75116,7.85054c-0.85805,2.52529 -3.28069,4.63362 -3.28069,4.63362c0,0 -0.34471,5.62222 -0.85402,7.78043c-1.08651,3.35409 -4.29109,6.49595 -4.29109,6.49595c0,0 -2.48624,7.21225 -3.37387,10.77161c-0.91442,3.66682 -2.03469,10.91651 -2.03469,10.91651c0,0 -0.98519,10.54098 -18.9723,13.60588z" data-paper-data="{&quot;index&quot;:null}" fill="#705d86" stroke="none" stroke-width="0" stroke-linecap="butt"/><path d="M279.65465,212.5008c0,0 5.07479,2.75763 11.17537,1.83798c5.47636,-0.82555 21.67073,-9.81218 21.67073,-9.81218c0,0 -13.07291,8.78919 -21.45439,11.39171c-5.19509,1.61312 -11.39171,-3.41752 -11.39171,-3.41752z" fill="#654779" stroke="none" stroke-width="0" stroke-linecap="butt"/><path d="M284.08502,227.37362c0,0 4.78145,2.75763 10.5294,1.83798c5.15981,-0.82555 16.24112,-8.86286 16.24112,-8.86286c0,0 -8.14029,7.83988 -16.03729,10.4424c-4.89479,1.61312 -10.73323,-3.41752 -10.73323,-3.41752z" fill="#654779" stroke="none" stroke-width="0" stroke-linecap="butt"/><path d="M347.65141,230.85472c-7.897,-2.60252 -16.03729,-10.4424 -16.03729,-10.4424c0,0 11.08131,8.03732 16.24112,8.86286c5.74795,0.91965 10.5294,-1.83798 10.5294,-1.83798c0,0 -5.83844,5.03063 -10.73323,3.41751z" data-paper-data="{&quot;index&quot;:null}" fill="#654779" stroke="none" stroke-width="0" stroke-linecap="butt"/><path d="M350.72656,216.17177c-8.38148,-2.60252 -21.45439,-11.39171 -21.45439,-11.39171c0,0 16.19437,8.98663 21.67073,9.81217c6.10059,0.91965 11.17538,-1.83798 11.17538,-1.83798c0,0 -6.19663,5.03064 -11.39171,3.41752z" data-paper-data="{&quot;index&quot;:null}" fill="#654779" stroke="none" stroke-width="0" stroke-linecap="butt"/><path d="M315.13245,181.48416c0,1.17689 -0.97005,2.13095 -2.16667,2.13095c-1.19662,0 -2.16667,-0.95406 -2.16667,-2.13095c0,-1.17689 0.97005,-2.13095 2.16667,-2.13095c1.19662,0 2.16667,0.95406 2.16667,2.13095z" fill="#252e32" stroke="none" stroke-width="0" stroke-linecap="butt"/><path d="M288.00955,158.57273c0,0.90732 -0.73553,1.64286 -1.64286,1.64286c-0.90732,0 -1.64286,-0.73553 -1.64286,-1.64286c0,-0.90732 0.73553,-1.64286 1.64286,-1.64286c0.90732,0 1.64286,0.73553 1.64286,1.64286z" fill="#252e32" stroke="none" stroke-width="0" stroke-linecap="butt"/><path d="M338.58101,169.85844c0,1.933 -1.47106,3.5 -3.28571,3.5c-1.81465,0 -3.28571,-1.567 -3.28571,-3.5c0,-1.933 1.47106,-3.5 3.28571,-3.5c1.81465,0 3.28571,1.567 3.28571,3.5z" fill="#252e32" stroke="none" stroke-width="0" stroke-linecap="butt"/><path d="M299.15243,176.78701c0,0.94677 -0.70355,1.71429 -1.57143,1.71429c-0.86788,0 -1.57143,-0.76751 -1.57143,-1.71429c0,-0.94677 0.70355,-1.71429 1.57143,-1.71429c0.86788,0 1.57143,0.76751 1.57143,1.71429z" fill="#252e32" stroke="none" stroke-width="0" stroke-linecap="butt"/><path d="M308.72386,167.0013c0,1.8541 -1.31117,3.35714 -2.92857,3.35714c-1.61741,0 -2.92857,-1.50304 -2.92857,-3.35714c0,-1.8541 1.31117,-3.35714 2.92857,-3.35714c1.61741,0 2.92857,1.50304 2.92857,3.35714z" fill="#252e32" stroke="none" stroke-width="0" stroke-linecap="butt"/><path d="M293.29526,164.14415c0,0.43394 -0.25584,0.78571 -0.57143,0.78571c-0.31559,0 -0.57143,-0.35178 -0.57143,-0.78571c0,-0.43394 0.25584,-0.78571 0.57143,-0.78571c0.31559,0 0.57143,0.35178 0.57143,0.78571z" fill="#252e32" stroke="none" stroke-width="0" stroke-linecap="butt"/><path d="M340.25222,156.13695c0,0.55228 -0.44772,1 -1,1c-0.55228,0 -1,-0.44772 -1,-1c0,-0.55228 0.44772,-1 1,-1c0.55228,0 1,0.44772 1,1z" fill="#252e32" stroke="none" stroke-width="0" stroke-linecap="butt"/><path d="M327.25219,211.01195c0,0.89746 -0.72754,1.625 -1.625,1.625c-0.89746,0 -1.625,-0.72754 -1.625,-1.625c0,-0.89746 0.72754,-1.625 1.625,-1.625c0.89746,0 1.625,0.72754 1.625,1.625z" fill="#252e32" stroke="none" stroke-width="0" stroke-linecap="butt"/><path d="M287.72668,154.57852c0,0 1.89165,-3.37177 2.15138,-6.87495c0.16095,-2.17076 1.57907,-5.27381 1.57907,-5.27381c0,0 -1.4622,-4.98752 -1.33544,-6.77179c0.19401,-2.73101 2.64167,-5.95761 2.64167,-5.95761c0,0 5.09172,-7.65629 26.98462,-7.89532c19.84887,-0.21671 26.9873,7.72559 26.9873,7.72559c0,0 1.97482,3.40406 2.34318,6.06764c0.09157,0.66213 -1.40357,6.78754 -1.40357,6.78754c0,0 4.28115,3.37139 5.39066,5.21301c0.85593,1.42072 1.06362,3.39158 1.01927,4.49418c-0.02045,0.50853 0.22158,0.97523 0.22158,0.97523c0,0 -18.71974,0.65174 -25.89868,4.7078c-1.63111,0.92157 -11.66714,5.27738 -28.0636,2.15157c-8.64407,-1.6479 -12.61742,-5.34906 -12.61742,-5.34906z" fill="#2c2f5d" stroke="none" stroke-width="0" stroke-linecap="butt"/><g><path d="M278.88524,91.86c0,0 -1.11834,-53.57483 42.22703,-53.65639c44.72613,-0.08416 41.7778,53.6564 41.7778,53.6564c0,0 0.45988,25.85156 -8.28972,35.37753c-14.22134,15.48321 -34.38653,15.96609 -34.38653,15.96609c0,0 -25.03671,-1.83168 -33.81259,-17.06351c-7.77336,-13.49181 -7.51599,-34.28011 -7.51599,-34.28011z" fill="#566580" stroke="none" stroke-width="0" stroke-linecap="butt"/><path d="M278.63524,92.06c0,0 -0.71082,-33.71897 20.96544,-47.56872c-0.65003,1.0737 -7.31905,7.24246 -9.31502,11.37006c-1.00967,2.08796 -0.54458,3.42884 0.00124,4.40162c-2.49833,2.25553 -5.49316,5.19575 -5.95825,7.7105c-0.27197,1.47053 0.13708,2.96779 0.36767,4.46437c-2.85449,4.69706 -4.69411,22.14911 -2.19411,22.14911c2.5,0 3.73127,7.80545 3.73127,7.80545c0.12223,-0.47665 -1.01065,-13.70739 -0.89689,-14.1911c0.44217,0.39531 1.02583,0.63564 1.66562,0.63564c0.60613,0 1.16188,-0.21571 1.59467,-0.57455c0.24564,0.29901 0.40533,0.55188 0.40533,0.82455c0,13.80712 18.19288,-7 32,-7c11.47641,0 36.36029,18.17735 36.36029,18.17735c0,0 -2.1048,-12.31164 -1.27042,-13.42298c0.41088,-0.54726 0.5224,-6.46658 -0.1121,-13.89572c-0.49007,-5.73801 -3.72777,-8.13532 -3.72777,-8.60865c0,-1.07103 3.43265,0.12367 3.30196,-0.9119c-0.46265,-3.66573 -11.46904,-16.58417 -13.34159,-19.57772c22.32403,13.64357 20.42749,48.21268 20.42749,48.21268c0,0 0.45988,25.85156 -8.28972,35.37753c-14.22134,15.48321 -34.38653,15.96609 -34.38653,15.96609c0,0 -25.03671,-1.83168 -33.81259,-17.06351c-7.77336,-13.49181 -7.51599,-34.28011 -7.51599,-34.28011z" fill="#3d496d" stroke="none" stroke-width="0" stroke-linecap="butt"/><path d="M284.62915,94.86852c0,0 -0.95948,-45.07676 36.22888,-45.14538c38.37299,-0.07081 35.84346,45.14539 35.84346,45.14539c0,0 0.39455,21.75097 -7.11221,29.76592c-12.20126,13.02726 -29.50208,13.43354 -29.50208,13.43354c0,0 -21.48037,-1.54114 -29.00967,-14.35689c-6.66919,-11.35173 -6.44838,-28.84258 -6.44838,-28.84258z" fill="#000000" stroke="none" stroke-width="0" stroke-linecap="butt"/><path d="M299.76195,113.38695h42.49023c0,0 -0.37372,5.14992 -2.91754,13.2052c-0.17455,0.55273 -0.25823,3.47579 -0.46277,4.02733c-0.94454,2.54696 -2.21767,4.82984 -3.66123,7.20552c-1.69309,2.78633 -3.07786,5.17785 -6.09144,6.83425c-2.79506,1.53628 -6.17763,2.44019 -8.899,2.44019c-3.02864,0 -6.6834,-2.04967 -9.43392,-4.59113c-0.83541,-0.77192 -1.28482,-1.58919 -1.9907,-2.40819c-2.03161,-2.35719 -5.10375,-3.92155 -6.59816,-6.54205c-1.03927,-1.82237 0.0743,-1.85794 -0.59459,-3.74654c-2.96325,-8.36675 -1.84089,-16.42458 -1.84089,-16.42458z" fill="#000000" stroke="none" stroke-width="0" stroke-linecap="butt"/><path d="M308.10643,131.42745c0,0 -0.76363,-1.82987 1.30085,-4.35474c1.37802,-0.31024 2.60411,0.72514 2.60411,0.72514c0,0 0.70554,-1.51456 1.53933,-1.49372c0.66526,0.01662 2.80427,1.82823 2.80427,1.82823c0,0 1.28248,-1.15308 2.24158,-1.09947c0.59255,0.03312 2.2767,1.69905 2.2767,1.69905c0,0 1.30934,-1.13961 2.32389,-1.16744c1.01455,-0.02783 1.84089,1.0532 1.84089,1.0532c0,0 0.59211,-1.32469 2.64343,-1.62892c0.94173,0.00323 1.34897,1.23435 1.34897,1.23435c0,0 2.06795,-1.51182 2.55268,-1.336c2.24271,0.81345 1.40469,5.07399 1.40469,5.07399c0,0 -1.05304,0.55994 -1.90501,0.61372c-1.32061,0.08336 -2.47212,-0.64213 -2.47212,-0.64213c0,0 -1.21753,0.57694 -1.73343,0.56447c-0.88604,-0.02142 -2.0005,-0.83061 -2.0005,-0.83061c0,0 -1.44966,0.57791 -2.3174,0.52769c-0.86774,-0.05022 -1.67808,-0.48853 -1.67808,-0.48853c0,0 -1.09215,0.53281 -1.3911,0.53702c-2.55611,0.03602 -3.14227,-0.53777 -3.14227,-0.53777c0,0 -0.52639,0.52141 -2.38353,0.57158c-1.10391,0.02982 -1.91178,-0.93973 -1.91178,-0.93973c0,0 -0.51343,0.52948 -1.87006,0.53884c-1.74333,0.01203 -2.07612,-0.44821 -2.07612,-0.44821z" fill="#ffffff" stroke="none" stroke-width="0" stroke-linecap="butt"/><path d="M292.71281,97.20171c-0.57709,-7.29323 0.335,-17.15448 0.335,-17.15448c0,0 3.41059,-0.04124 13.91429,-3.14424c8.0696,-2.38394 20.54731,-9.48722 20.54731,-9.48722c0,0 -2.16005,3.00503 -3.40781,4.46015c-1.32651,1.54696 -3.99292,4.56297 -3.99292,4.56297c0,0 7.838,-1.66761 14.67476,-4.72931c8.56837,-3.53575 10.59252,-6.05309 12.95042,-4.5927c2.7829,1.72362 1.03006,23.1827 0.71846,28.74062c-0.42163,5.66922 -2.53327,9.49969 -3.15031,12.52053c-0.61704,3.02084 0.51452,1.95374 -1.77765,11.75399c-2.08234,8.90308 -3.74402,10.17774 -3.74402,10.17774c0,0 -0.55345,-2.01767 -1.82593,-3.18434c0.05759,-0.21058 0.08835,-0.43225 0.08835,-0.6611c0,-0.91755 -0.49431,-1.71966 -1.23117,-2.15454c-1.84578,-3.23012 -7.49728,1.30752 -8.47438,1.23059c-1.48448,-0.11689 -4.60042,-1.52384 -7.0583,-1.75048c-0.50072,-0.62652 -1.07848,-1.151 -1.88706,-1.34626c-1.25862,-0.30394 -1.82868,-2.85808 -3.11436,-3.09762c-1.78992,-0.33349 -3.60875,4.0447 -5.38046,3.94149c-1.62052,-0.09441 -2.77305,3.09899 -4.25658,2.77855c-0.33533,-0.07244 -1.32473,-0.15307 -2.00822,-0.541c-0.87169,-0.49474 -1.4248,-1.31029 -1.4248,-1.31029l-1.65443,1.99256c0,0 -0.7649,-0.51586 -1.10586,-0.81905c-2.68351,-2.38634 -3.6845,-6.42296 -3.74957,-6.93874c-0.75707,-6.00039 -1.06225,-5.47996 -1.40838,-10.81978c-0.25298,-3.90273 -2.26119,-6.44504 -2.57636,-10.42801z" fill="#ffffff" stroke="#000000" stroke-width="1.5" stroke-linecap="butt"/><path d="M340.78286,82.08137c0,0 1.52429,0.31807 4.2558,1.11029c2.49492,0.72361 4.44935,1.74403 4.44935,1.74403l0.1951,1.17035c0,0 -7.24963,-3.12997 -15.1158,-2.4706c-6.2896,0.52724 -9.96319,2.8124 -9.96319,2.8124l0.04575,-4.17683c0,0 3.12748,-1.70421 7.86366,-1.85557c4.90428,-0.15672 8.09084,0.59125 8.09084,0.59125z" data-paper-data="{&quot;index&quot;:null}" fill="#000000" stroke="none" stroke-width="1.5" stroke-linecap="butt"/><path d="M294.41247,107.32496c0,0 -4.93211,-3.51705 -6.16417,-8.97502c-1.29636,-5.74284 -1.46118,-9.7328 0.48013,-9.99193c1.94131,-0.25915 2.70321,2.37692 3.73262,8.35569c1.0294,5.97877 1.95143,10.61127 1.95143,10.61127z" data-paper-data="{&quot;index&quot;:null}" fill="#ffffff" stroke="#000000" stroke-width="1" stroke-linecap="butt"/><path d="M294.2099,103.3774c0,0 -3.56385,-2.92338 -4.31816,-8.45061c-0.42079,-3.08327 2.15675,-2.28016 2.15675,-2.28016" fill="none" stroke="#000000" stroke-width="0.25" stroke-linecap="round"/><path d="M297.22328,96.7215c0.07093,-4.89188 4.83834,-8.93609 10.21137,-8.8582c5.37302,0.0779 9.02724,4.2484 8.95632,9.14029c-0.07093,4.89188 -4.12352,8.79439 -9.49655,8.7165c-5.37302,-0.0779 -9.74207,-4.1067 -9.67114,-8.99859z" fill="#ffffff" stroke="#000000" stroke-width="1.4" stroke-linecap="butt"/><path d="M301.66094,96.83944c0.03999,-2.75843 2.30855,-4.96213 5.06696,-4.92214c2.75843,0.03999 4.96213,2.30855 4.92214,5.06696c-0.03999,2.75843 -2.30854,4.96213 -5.06696,4.92214c-2.75843,-0.03999 -4.96213,-2.30855 -4.92214,-5.06696z" fill="#000000" stroke="none" stroke-width="1.5" stroke-linecap="butt"/><path d="M324.27956,96.72223c0.20353,-4.88817 4.45264,-8.85847 9.77048,-8.85847c5.31783,0 9.27453,3.96607 9.27453,8.85847c0,4.8924 -3.88585,9.07104 -9.69964,9.14188c-5.52997,0.06739 -9.55792,-4.03692 -9.34537,-9.14188z" fill="#ffffff" stroke="#000000" stroke-width="1.4" stroke-linecap="butt"/><path d="M328.8823,96.80778c0,-2.81845 2.2848,-5.10325 5.10325,-5.10325c2.81845,0 5.10325,2.2848 5.10325,5.10325c0,2.81845 -2.28479,5.10325 -5.10325,5.10325c-2.81845,0 -5.10325,-2.2848 -5.10325,-5.10325z" fill="#000000" stroke="none" stroke-width="1.5" stroke-linecap="butt"/><path d="M297.15486,96.18932c0,0 0.06357,-9.01512 10.60111,-8.8249c9.47101,0.16586 9.55554,9.40723 9.55554,9.40723z" fill="#ffffff" stroke="#000000" stroke-width="1.15" stroke-linecap="butt"/><path d="M323.90191,96.32022c0,0 -0.24686,-9.4582 11.19813,-9.1032c9.71427,0.33347 9.54677,9.65229 9.54677,9.65229z" fill="#ffffff" stroke="#000000" stroke-width="1.15" stroke-linecap="butt"/><path d="M300.68473,86.17766c0,0 3.36963,-1.819 8.03244,-2.28178c5.16698,-0.51283 7.76823,-0.06628 7.76823,-0.06628l0.29508,4.13747c0,0 -3.83554,-0.68065 -8.01795,-0.52113c-5.59346,0.21333 -6.64488,1.43293 -10.89774,1.89119c-3.64408,0.39266 -6.73723,0.15884 -6.73723,0.15884l-0.02589,-1.23155c0,0 3.59517,0.07398 5.23371,-0.06836c1.35239,-0.11749 3.9757,-0.93808 3.9757,-0.93808z" fill="#000000" stroke="none" stroke-width="1.5" stroke-linecap="butt"/><path d="M348.64566,96.71369c1.0294,-5.97877 1.7913,-8.61483 3.73262,-8.35569c1.94131,0.25914 1.77649,4.24909 0.48013,9.99193c-1.23206,5.45797 -6.16417,8.97502 -6.16417,8.97502c0,0 0.92203,-4.6325 1.95143,-10.61127z" data-paper-data="{&quot;index&quot;:null}" fill="#ffffff" stroke="#000000" stroke-width="1" stroke-linecap="butt"/><path d="M349.05823,92.64663c0,0 2.57754,-0.80312 2.15675,2.28016c-0.75431,5.52723 -4.31816,8.45061 -4.31816,8.45061" data-paper-data="{&quot;index&quot;:null}" fill="none" stroke="#000000" stroke-width="0.25" stroke-linecap="round"/><path d="M288.35732,104.25446c0,0 -11.5026,-50.89459 33.93098,-50.89647c43.01859,-0.00178 31.75592,54.37657 31.75592,54.37657c0,0 -0.79332,3.39449 -3.52915,7.41214c-0.03402,0.04995 -0.8922,-0.76388 -0.8922,-0.76388l-2.95668,3.67867l-0.54566,-2.90337l-1.8449,3.28538l-1.51986,-0.83579l-0.64353,3.32217l-2.14916,-1.31392l-1.5944,4.76834l-3.43447,-3.63764l-1.73446,1.25974l-2.52725,-2.84474c0,0 -2.63425,8.66724 -3.0314,8.70778c-1.6793,0.17139 -3.46164,0.25375 -5.353,0.23265c-1.60066,-0.01785 -3.49563,-0.18765 -5.4939,-0.46837c-0.23284,-0.03271 -1.41683,-7.11566 -1.41683,-7.11566l-2.39447,5.41471l-1.37847,-3.28023l-1.55232,0.30339l-0.87355,1.50684l-0.6912,-1.9226l0.54807,-3.54082l-2.39982,1.80051c0,0 0.65251,-2.07579 0.69701,-3.11236c0.01018,-0.23694 -4.43377,4.6626 -4.43377,4.6626l-1.90157,-1.53254l-2.78771,2.63115l-1.54111,-6.91729l-1.79406,1.0043c0,0 -0.63091,-0.72463 -0.92354,-1.08811c-4.87113,-6.05067 -5.59355,-12.19317 -5.59355,-12.19317z" fill="#222a2e" stroke="none" stroke-width="0" stroke-linecap="butt"/><path d="M322.44198,55.3563c18.62075,-0.00077 26.21389,11.04615 29.02906,22.77062c0.17582,0.73225 -5.63397,8.94148 -29.48596,8.93772c-25.38824,-0.00401 -31.01679,-7.74903 -30.81846,-8.6117c2.66905,-11.60876 10.54713,-23.09578 31.27535,-23.09664z" fill="#2e393e" stroke="none" stroke-width="0" stroke-linecap="butt"/><path d="M295.50146,85.09131c0,0 6.81877,4.22347 25.66667,4.375c20.34398,0.16356 25.66666,-4.375 25.66666,-4.375c0,0 -11.21496,8.94645 -25.5,8.83333c-15.78548,-0.125 -25.83333,-8.83333 -25.83333,-8.83333z" fill="#2e393e" stroke="none" stroke-width="0" stroke-linecap="butt"/><path d="M311.73813,134.45071c1.17186,0.00889 1.61536,0.51192 1.61536,0.51192c0,0 0.69784,-0.92113 1.65139,-0.8928c1.6042,0.04766 2.05889,0.54304 2.05889,0.54304c0,0 0.50632,-0.54514 2.71428,-0.51092c0.25823,0.004 1.20163,0.51021 1.20163,0.51021c0,0 0.69997,-0.41643 1.44952,-0.46413c0.74955,-0.04771 2.00176,0.50134 2.00176,0.50134c0,0 0.96267,-0.76878 1.72803,-0.78913c0.44564,-0.01184 1.49734,0.53628 1.49734,0.53628c0,0 0.99466,-0.68927 2.13541,-0.61007c0.73593,0.05109 1.64555,0.58307 1.64555,0.58307c0,0 0.72388,4.0478 -1.21337,4.82063c-0.41871,0.16703 -2.205,-1.26928 -2.205,-1.26928c0,0 -0.35177,1.16965 -1.16523,1.17271c-1.77193,-0.28904 -2.28339,-1.54758 -2.28339,-1.54758c0,0 -0.71379,1.02705 -1.59016,1.00061c-0.87637,-0.02644 -2.00737,-1.10915 -2.00737,-1.10915c0,0 -1.45477,1.58275 -1.96661,1.61422c-0.82846,0.05094 -1.93627,-1.04458 -1.93627,-1.04458c0,0 -1.84767,1.72115 -2.42233,1.73694c-0.72023,0.01979 -1.32967,-1.41913 -1.32967,-1.41913c0,0 -1.0591,0.98369 -2.24943,0.68893c-1.7833,-2.39879 -1.12367,-4.13729 -1.12367,-4.13729c0,0 0.28746,-0.43725 1.79334,-0.42582z" data-paper-data="{&quot;index&quot;:null}" fill="#ffffff" stroke="none" stroke-width="0" stroke-linecap="butt"/></g><text transform="translate(26.01498,28.00626) scale(0.51071,0.51071)" font-size="40" xml:space="preserve" fill="#000000" fill-rule="nonzero" stroke="#000000" stroke-width="2" stroke-linecap="butt" stroke-linejoin="miter" stroke-miterlimit="10" stroke-dasharray="" stroke-dashoffset="0" font-family="Malgun Gothic" font-weight="normal" text-anchor="start" style="mix-blend-mode: normal"><tspan x="0" dy="0">Can i call dips on animating this</tspan><tspan x="0" dy="46.150000000000006px">-apollo</tspan></text><text transform="translate(105.59733,70.62501) scale(0.5,0.5)" font-size="40" xml:space="preserve" fill="#ac0000" fill-rule="nonzero" stroke="none" stroke-width="1" stroke-linecap="butt" stroke-linejoin="miter" stroke-miterlimit="10" stroke-dasharray="" stroke-dashoffset="0" font-family="Sans Serif" font-weight="normal" text-anchor="start" style="mix-blend-mode: normal"><tspan x="0" dy="0">No, winged</tspan><tspan x="0" dy="46.150000000000006px">called dibs</tspan><tspan x="0" dy="46.150000000000006px">before the</tspan><tspan x="0" dy="46.150000000000006px">mod was</tspan><tspan x="0" dy="46.150000000000006px">even began</tspan></text><text transform="translate(100.51945,211.96435) scale(0.9956,0.9956)" font-size="40" xml:space="preserve" fill="#000000" fill-rule="nonzero" stroke="none" stroke-width="1" stroke-linecap="butt" stroke-linejoin="miter" stroke-miterlimit="10" stroke-dasharray="" stroke-dashoffset="0" font-family="Sans Serif" font-weight="normal" text-anchor="start" style="mix-blend-mode: normal"><tspan x="0" dy="0">K</tspan></text></g></g></svg>