<svg version="1.1" xmlns="http://www.w3.org/2000/svg" xmlns:xlink="http://www.w3.org/1999/xlink" width="90.29859" height="254.45659" viewBox="0,0,90.29859,254.45659"><g transform="translate(-275.85358,-51.04328)"><g data-paper-data="{&quot;isPaintingLayer&quot;:true}" fill-rule="nonzero" stroke-linecap="butt" stroke-linejoin="miter" stroke-miterlimit="10" stroke-dasharray="" stroke-dashoffset="0" style="mix-blend-mode: normal"><g><path d="M319.63334,187.45556l-23,-38.46667c0,0 12.06063,-8.58759 32.75576,-5.78786c9.89521,1.33867 16.3109,7.45452 16.3109,7.45452z" fill="#1d2326" stroke="#000000" stroke-width="0"/><g fill="#000000"><path d="M281.72634,304.39161c0,0 -0.63536,-94.38387 -0.79335,-118.01201c-0.05451,-8.15261 8.18688,-36.76129 40.20201,-36.9211c31.60235,-0.15775 39.85672,29.48704 39.84884,36.89673c-0.07659,46.24274 0.65429,117.98648 0.65429,117.98648l-10.49667,0.09614l-0.15882,-114.84311c0,0 0.07549,-3.0993 -2.81625,-3.15415c-3.43441,-0.06514 -2.94538,3.11562 -2.94538,3.11562l0.20548,114.86995l-48.21366,0.07222l-0.30539,-115.23309c0,0 0.27949,-2.919 -2.8856,-2.93443c-3.11083,-0.01515 -2.81569,2.90899 -2.81569,2.90899l0.35311,115.0668z" stroke="#000000" stroke-width="2"/><path d="M336.32351,200.33379c-0.57113,0 -1.03411,-0.46299 -1.03411,-1.03411c0,-0.57113 0.46299,-1.03413 1.03411,-1.03413c0.57113,0 1.03411,0.463 1.03411,1.03413c0,0.57113 -0.46299,1.03411 -1.03411,1.03411z" stroke="none" stroke-width="1.5"/><path d="M331.06363,204.56939c-4.4635,-0.31439 -6.55245,-1.79392 -6.16985,-2.58011c0.11788,-0.24224 2.84645,1.06355 6.97038,1.3048c6.40897,0.37493 8.51033,-0.63173 8.51033,-0.63173v1.34616c0,0 -2.4135,1.04672 -9.31086,0.56089z" stroke="#000000" stroke-width="0"/><path d="M303.25091,199.29968c0,-0.57113 0.46299,-1.03413 1.03411,-1.03413c0.57113,0 1.03413,0.463 1.03413,1.03413c0,0.57113 -0.463,1.03411 -1.03413,1.03411c-0.57113,0 -1.03411,-0.46299 -1.03411,-1.03411z" stroke="none" stroke-width="1.5"/><path d="M309.5449,204.56939c-6.89736,0.48585 -9.31086,-0.56089 -9.31086,-0.56089v-1.34616c0,0 2.10136,1.00666 8.51033,0.63173c4.12393,-0.24126 6.85251,-1.54704 6.97039,-1.3048c0.3826,0.78618 -1.70634,2.26571 -6.16985,2.58011z" stroke="#000000" stroke-width="0"/><path d="M320.82536,261.12111c-0.81895,0 -1.48284,-0.66389 -1.48284,-1.48284c0,-0.81895 0.66389,-1.48284 1.48284,-1.48284c0.81895,0 1.48284,0.66389 1.48284,1.48284c0,0.81895 -0.66389,1.48284 -1.48284,1.48284z" stroke="none" stroke-width="1.5"/></g><g><g stroke="#000000" stroke-width="0"><path d="M347.23034,303.70268c0,0 -2.75814,-16.32944 -2.73078,-26.08826c0.03985,-14.21408 2.94684,-50.97612 2.94684,-50.97612l16.4212,-1.72855c0,0 -0.70087,8.29237 -0.66083,18.15155c0.04384,10.79529 0.84704,23.512 1.30404,30.32061c0.76844,11.44862 0.6532,30.53684 0.6532,30.53684z" fill="#273034"/><path d="M356.14168,243.2154c-4.92086,6.76216 -8.47921,26.63657 -8.47921,26.63657c0,0 -0.07538,-51.74987 -0.46688,-67.2793c-0.30905,-12.25898 -2.342,-28.36695 -2.342,-28.36695l14.69265,-9.50701c0,0 5.2426,10.84011 6.30379,18.66217c1.15726,8.53027 -1.4597,27.68739 -0.38128,43.34572c0.51736,7.51199 -4.78939,10.27322 -9.32705,16.5088z" fill="#705d86"/><path d="M365.47897,228.51633c-0.38538,6.19439 -5.18356,8.99109 -9.33729,14.69907c-4.92086,6.76216 -9.27921,30.63657 -9.27921,30.63657c0,0 0.72462,-55.74987 0.33312,-71.2793c-0.30905,-12.25898 -2.342,-28.36695 -2.342,-28.36695l14.69265,-9.50701c0,0 1.87433,3.87555 3.60841,8.66418c0.27404,0.75675 0.80366,2.32696 0.80366,2.32696c0,0 -3.06389,3.51032 -6.31353,5.85517c-1.92408,1.38836 -4.39646,3.38015 -4.39646,3.38015c0,0 0.97129,11.70978 0.83063,21.99841c-0.20781,15.20083 -2.61307,36.28927 -2.61307,36.28927c0,0 1.57461,-1.95759 3.82601,-4.06978c1.64309,-1.54149 3.9496,-2.51711 4.77022,-3.52242c2.55443,-3.12935 5.40663,-8.91403 5.40663,-8.91403c0,0 0.04586,1.23718 0.01024,1.80973z" fill="#654779"/><path d="M364.59438,276.71762c-3.84452,2.53677 -7.74618,4.98909 -11.68936,7.37826c0.04505,-1.1793 0.09517,-2.41517 0.15067,-3.6867c0.11579,-2.65326 0.25497,-5.46183 0.42029,-8.23595c3.60408,-1.36014 7.1359,-2.92486 10.56211,-4.80449c0.22228,3.43652 0.42036,6.69642 0.55629,9.34888z" fill="#313c41"/><path d="M363.48828,259.15791c-3.04831,2.20932 -6.20919,4.25144 -9.52169,6.003c0.3635,-4.39495 0.81034,-8.20895 1.35426,-10.49499c1.60463,-6.74413 7.91639,-10.36117 7.91639,-10.36117c0,0 -0.32818,6.43849 0.21658,14.35193c0.01148,0.16666 0.02296,0.33376 0.03446,0.50123z" fill="#313c41"/></g><g stroke="#000000" stroke-width="0"><path d="M276.84173,303.91875c0,0 -0.11524,-19.08821 0.6532,-30.53684c0.457,-6.80861 1.2602,-19.52533 1.30404,-30.32061c0.04005,-9.85917 -0.66083,-18.15155 -0.66083,-18.15155l16.4212,1.72855c0,0 3.66934,23.53286 3.7048,36.17902c0.03654,13.03046 -3.48874,40.88536 -3.48874,40.88536z" fill="#273034"/><path d="M276.53701,226.7066c1.07842,-15.65833 -1.53855,-34.81545 -0.38129,-43.34572c1.06119,-7.82206 6.30379,-18.66217 6.30379,-18.66217l14.69265,9.50701c0,0 -2.03295,16.10797 -2.342,28.36695c-0.3915,15.52944 -0.46688,67.2793 -0.46688,67.2793c0,0 -3.55836,-19.87441 -8.47921,-26.63657c-4.53767,-6.23558 -9.84442,-8.99682 -9.32705,-16.5088z" fill="#705d86"/><path d="M276.53701,226.7066c0,0 2.8522,5.78468 5.40663,8.91403c0.82062,1.00531 3.12714,1.98093 4.77022,3.52242c2.2514,2.11219 3.82601,4.06978 3.82601,4.06978c0,0 -2.40526,-21.08844 -2.61307,-36.28926c-0.14066,-10.28863 0.4973,-19.49841 0.4973,-19.49841c0,0 -2.58252,-2.3684 -5.64252,-5.48448c-2.84747,-2.89966 -4.73414,-6.25084 -4.73414,-6.25084c0,0 0.52962,-1.57021 0.80365,-2.32696c1.73408,-4.78862 3.60841,-8.66417 3.60841,-8.66417l14.69265,9.50701c0,0 -2.03295,16.10797 -2.342,28.36695c-0.2831,11.22964 2.39909,44.399 2.35557,60.24473c-0.01667,6.06729 -2.42245,10.83458 -2.42245,10.83458c0,0 -3.95835,-23.67442 -8.87921,-30.43657c-4.15373,-5.70799 -8.95191,-8.50468 -9.33729,-14.69907c-0.03562,-0.57255 0.01024,-1.80973 0.01024,-1.80973z" fill="#654779"/><path d="M277.96765,267.36873c3.42621,1.87963 6.95803,3.44435 10.56211,4.80449c0.24455,4.10357 0.4319,8.28254 0.57096,11.92265c-3.94317,-2.38916 -7.84484,-4.84148 -11.68936,-7.37826c0.13593,-2.65247 0.33401,-5.91237 0.55629,-9.34888z" fill="#313c41"/><path d="M278.55193,258.65669c0.54476,-7.91344 0.21658,-14.35193 0.21658,-14.35193c0,0 6.31176,3.61704 7.91639,10.36117c0.54392,2.28604 0.99076,6.10004 1.35426,10.49499c-3.3125,-1.75156 -6.47338,-3.79368 -9.52169,-6.003c0.0115,-0.16747 0.02299,-0.33457 0.03446,-0.50123z" fill="#313c41"/></g><path d="M295.1,304.41667c0,0 -0.11157,-26.75067 -0.25245,-38.93735c-0.12347,-10.68079 -0.54755,-30.26265 -0.54755,-30.26265l40,15.6l4,53z" fill="#2c2f5d" stroke="#000000" stroke-width="0"/><path d="M303.5,303.81667l4,-53c0,0 9.53415,-0.65032 14.81687,-2.71058c7.3533,-2.86779 25.18313,-12.88942 25.18313,-12.88942c0,0 -0.42407,19.58186 -0.54755,30.26265c-0.14089,12.18668 -0.25245,38.93735 -0.25245,38.93735z" fill="#2c2f5d" stroke="#000000" stroke-width="0"/><path d="M324.81551,262.35729l4.46119,-12.01043c0,0 0.64242,4.52746 0.72526,6.54134c0.0799,1.94272 -0.72226,4.96504 -0.72226,4.96504z" fill="#273034" stroke="#000000" stroke-width="0"/><path d="M317.97222,261.08333l4.72222,-10.22222c0,0 0.19526,4.14687 0.10964,5.96583c-0.0826,1.75469 -0.99853,4.3675 -0.99853,4.3675z" fill="#273034" stroke="#000000" stroke-width="0"/><g fill="#2c2f5d" stroke="#000000" stroke-width="0"><path d="M336.18544,248.62094c-7.49804,1.58165 -15.94717,1.47787 -15.94717,1.47787l-4.76174,-67.33333l32.32538,-7.16667c0,0 0.90522,6.30555 1.14968,9.19904c0.28609,3.38616 0.58027,8.2623 0.50969,13.47832c-0.05584,4.12644 -1.00597,12.03991 -1.32272,19.51049c-0.53374,12.58838 -0.5203,25.14548 -0.5203,25.14548c0,0 -4.5155,4.22964 -11.43282,5.68879z"/><path d="M294.37178,242.93215c0,0 0.01344,-12.5571 -0.5203,-25.14548c-0.31675,-7.47058 -1.26688,-15.38405 -1.32272,-19.51049c-0.1309,-9.67314 0.99271,-18.17736 0.99271,-18.17736l32.99205,2.66667l-4.76173,67.33333c0,0 -8.44914,0.10378 -15.94717,-1.47787c-6.91733,-1.45916 -11.43283,-5.68879 -11.43283,-5.68879z"/></g><g fill="#3d496d" stroke="#000000" stroke-width="0"><path d="M277.16618,164.95581c0,0 8.87343,-8.67516 13.61872,-12.17055c4.45534,-3.28181 14.03803,-8.20144 14.03803,-8.20144c0,0 3.54229,25.64674 13.09713,38.46963c8.64847,11.60653 30.11655,34.06356 30.11655,34.06356c0,0 0.33333,2.82968 0.33333,4.64845c0,1.81877 -0.33333,6.09721 -0.33333,6.09721c0,0 -26.31847,-17.47845 -37.83186,-27.69811c-4.65715,-4.13383 -11.92897,-10.53563 -17.51454,-16.56776c-8.90576,-9.61777 -15.52402,-18.641 -15.52402,-18.641z"/><path d="M312.00259,192.9393l-6.04991,-8.05924c0,0 13.23493,-6.39552 22.9618,-16.0622c6.25072,-6.21204 12.90555,-21.32373 12.90555,-21.32373c0,0 8.37559,4.85249 12.31041,7.79253c3.50594,2.61959 10.16071,8.99756 10.16071,8.99756c0,0 -17.46784,14.28757 -29.00999,19.81516c-8.14554,3.90094 -23.27855,8.83993 -23.27855,8.83993z"/></g><path d="M288.83477,154.37659c0,0 4.40607,-3.48659 7.41613,-5.58124c2.42501,-1.68752 8.91719,-4.48542 8.91719,-4.48542c0,0 1.56297,18.25157 9.757,32.74426c7.85902,13.90014 33.40967,40.32241 33.40967,40.32241c0,0 0.12048,1.7088 0.09489,2.65572c-0.02943,1.08877 -0.09489,3.51095 -0.09489,3.51095c0,0 -31.54376,-23.11943 -42.94882,-34.55185c-7.55046,-7.56857 -18.8236,-27.36876 -18.8236,-27.36876c0,0 4.59333,-1.58272 6.70376,-2.50613c1.80331,-0.78903 5.18294,-2.69485 5.18294,-2.69485c0,0 -3.08247,0.68428 -4.55295,0.9312c-1.38182,0.23203 -4.02049,0.50845 -4.02049,0.50845z" fill="#566580" stroke="#000000" stroke-width="0"/><path d="M319.83477,176.65437c0,0 7.59392,-5.52635 10.70687,-9.8072c4.94289,-6.79732 11.12646,-19.52614 11.12646,-19.52614c0,0 6.38436,3.58149 9.15194,5.4466c2.22348,1.49843 6.1814,4.88674 6.1814,4.88674l-3.51166,3.24944l-6.42388,-3.5269l6.239,7.88162c0,0 -7.20605,6.30011 -10.30419,8.32093c-8.45344,5.51392 -18.58088,9.5673 -18.58088,9.5673c0,0 -2.01416,-2.61603 -2.82962,-3.77071c-0.69281,-0.98101 -1.75543,-2.72168 -1.75543,-2.72168z" fill="#566580" stroke="#000000" stroke-width="0"/><path d="M297.1681,231.9877c0,0 0.45515,-1.01845 0.54059,-3.73666c0.1154,-3.67111 -0.16888,-9.75592 -0.57583,-14.16044c-0.65781,-7.11954 -1.96476,-22.1029 -1.96476,-22.1029c0,0 10.33518,9.40482 15.17079,13.40464c4.00821,3.31543 10.91255,8.42869 10.91255,8.42869l0.25,33.5c0,0 -9.02158,0.67267 -16.47673,-3.40694c-7.49478,-4.1013 -7.85661,-11.92639 -7.85661,-11.92639z" fill="#3d496d" stroke="#000000" stroke-width="0"/><path d="M336.64483,243.91409c-7.45515,4.07961 -13.14339,3.24028 -13.14339,3.24028l1.875,-30.125c0,0 6.9483,4.29086 10.2547,6.3327c3.0969,1.91246 8.99637,5.55563 8.99637,5.55563l-0.12607,3.07c0,0 -0.36182,7.82509 -7.85661,11.92639z" fill="#3d496d" stroke="#000000" stroke-width="0"/><path d="M330.64727,191.1752c0,0 5.15393,-1.79666 8.97616,-3.45784c3.11858,-1.35536 6.39884,-3.41716 6.39884,-3.41716c0,0 0.53354,8.10661 0.4904,12.87378c-0.046,5.08221 -0.7404,12.75122 -0.7404,12.75122c0,0 -5.16764,-5.68784 -8.62493,-10.28232c-2.39285,-3.17991 -6.50007,-8.46768 -6.50007,-8.46768z" fill="#3d496d" stroke="#000000" stroke-width="0"/><path d="M293.41667,255.36111c0,0 0.33333,-4.96327 0.33333,-7.27777c0,-2.11123 -0.33333,-6.05555 -0.33333,-6.05555c0,0 14.64784,7.46236 28.16667,7.5c15.8057,0.044 27,-8 27,-8c0,0 -0.44652,3.16604 -0.50737,4.98769c-0.06712,2.00917 0.12162,6.55998 0.12162,6.55998c0,0 -3.27938,4.0749 -14.55724,6.20819c-6.70855,1.17757 -17.41222,1.14663 -17.41222,1.14663c0,0 8.81368,9.26573 13.89939,13.46289c5.33595,4.40368 17.40168,12.36937 17.40168,12.36937l-0.2792,13.65414c0,0 -21.04908,-13.05291 -31.69225,-22.1204c-3.90459,-3.32653 -8.82933,-7.4239 -12.10591,-10.74335c-6.56838,-6.65432 -10.03517,-11.6918 -10.03517,-11.6918z" fill="#333f44" stroke="#000000" stroke-width="0"/><path d="M316.64727,215.50853c0,-0.82843 0.67158,-1.5 1.5,-1.5c0.82842,0 1.5,0.67157 1.5,1.5c0,0.82843 -0.67158,1.5 -1.5,1.5c-0.82842,0 -1.5,-0.67157 -1.5,-1.5z" fill="#2c2f5d" stroke="none" stroke-width="0.5"/><path d="M316.39727,233.63353c0,-0.82843 0.67158,-1.5 1.5,-1.5c0.82842,0 1.5,0.67157 1.5,1.5c0,0.82843 -0.67158,1.5 -1.5,1.5c-0.82842,0 -1.5,-0.67157 -1.5,-1.5z" fill="#2c2f5d" stroke="none" stroke-width="0.5"/><path d="M321.58333,249.52778c2.4971,0.00695 4.8791,-0.18798 7.12004,-0.52116c-0.66339,3.05282 -0.5466,4.94797 0.19887,7.98179c0.37616,1.53085 1.27925,2.81863 1.27925,2.81863c0,0 -1.69359,0.3263 -3.82991,0.44814c-2.81318,0.16044 -6.39409,0.12947 -7.88639,0.15445c-0.08979,-0.38832 -0.17794,-0.77868 -0.26459,-1.17127c-0.55388,-2.50955 -0.14951,-6.11121 0.62104,-8.64604c0.11985,-0.39427 0.53773,-0.7521 1.00752,-1.10965c0.58598,0.02805 1.17113,0.04349 1.75418,0.04511z" fill="#283136" stroke="#000000" stroke-width="0"/><path d="M293.41667,255.36111c0,0 3.24981,1.85378 9.77452,3.4869c4.91037,1.22905 13.03694,1.58226 13.03694,1.58226c0,0 2.8286,2.84741 4.9478,4.89495c2.11921,2.04754 6.83956,6.49379 6.83956,6.49379c0,0 -7.20002,-0.84363 -12.41703,-2.19909c-7.10762,-1.84668 -14.5993,-4.95666 -14.5993,-4.95666c0,0 -2.176,-2.26058 -3.26562,-3.59731c-1.37216,-1.68336 -4.31687,-5.70484 -4.31687,-5.70484z" fill="#283136" stroke="#000000" stroke-width="0"/><path d="M317.97222,261.08333c0,0 -2.73622,-5.69918 0,-12l3.61111,0.22223c0,0 -1.3868,2.46163 -1.27461,5.44374c0.14986,3.98363 1.49684,6.44515 1.49684,6.44515z" fill="#4a5b63" stroke="#000000" stroke-width="0"/><path d="M324.81551,262.35729c0,0 -3.67455,-5.78278 -1.12745,-13.15731l4.142,-0.38189c0,0 -1.3643,2.93304 -0.93511,6.19344c0.57333,4.35539 2.38475,6.8417 2.38475,6.8417z" fill="#4a5b63" stroke="#000000" stroke-width="0"/><path d="M317.97222,261.08333c0,0 -1.30713,-2.72258 -1.21105,-6.48463c1.18705,0.42674 2.39206,0.80954 3.61189,1.15211c0.30903,3.39058 1.43249,5.44364 1.43249,5.44364z" fill="#556872" stroke="#000000" stroke-width="0"/><path d="M320.45727,252.65943c-1.11673,-0.33227 -2.21924,-0.7012 -3.30474,-1.11006c0.18028,-0.7641 0.43044,-1.54859 0.767,-2.3432c1.10228,0.33695 2.21217,0.59533 3.33035,0.79662c-0.25579,0.59552 -0.59716,1.53297 -0.79262,2.65663z" fill="#556872" stroke="#000000" stroke-width="0"/><path d="M324.81551,262.35729c0,0 -1.49148,-2.34719 -1.91533,-5.9578c1.46099,0.34111 2.93961,0.6298 4.43068,0.87217c0.75611,2.94446 1.94884,4.58158 1.94884,4.58158z" fill="#556872" stroke="#000000" stroke-width="0"/><path d="M326.82091,254.1543c-1.34256,-0.23964 -2.67298,-0.5203 -3.98698,-0.84701c0.0713,-0.95077 0.2318,-1.95166 0.51117,-2.99012c1.27745,0.15687 2.56609,0.25772 3.86693,0.33372c-0.241,0.94416 -0.44794,2.17515 -0.39112,3.50341z" fill="#556872" stroke="#000000" stroke-width="0"/></g></g><path d="M277.04004,118.18892c0,0 3.72742,-8.44578 4.84632,-12.29534c0.91301,-3.14118 1.3759,-9.11207 1.3759,-9.11207c0,0 -1.20485,1.17463 -1.92612,1.54523c-0.92437,0.47495 -3.16351,1.06991 -3.16351,1.06991c0,0 4.66551,-9.45685 4.52001,-12.17558c-0.45815,-8.56078 -0.11104,-15.07459 1.73265,-18.01735c2.00874,-3.39721 10.17031,-4.75553 10.17031,-4.75553c0,0 -1.03688,-14.00602 9.87318,-13.38484c11.53257,0.65663 23.49783,4.0483 34.27486,6.52011c6.35795,1.45825 14.29543,2.04621 18.71481,4.759c2.41091,1.47991 2.57349,5.79875 3.24639,10.64913c0.75212,5.42139 1.86477,11.34065 1.86477,11.34065c0,0 -3.58137,-5.17449 -4.79892,-7.51445c-1.06718,-2.05096 -2.11497,-5.77291 -2.11497,-5.77291c0,0 1.031,6.56225 2.20938,10.28469c1.25171,3.95408 5.09418,12.78687 5.09418,12.78687c0,0 -2.08732,-0.8166 -2.93183,-1.23666c-0.74145,-0.3688 -1.86642,-1.15 -1.86642,-1.15c0,0 2.83219,4.63225 3.94649,8.62632c0.68736,2.46379 0.6023,7.29886 1.33206,11.32569c0.69673,3.84457 2.22469,6.94258 2.22469,6.94258c0,0 -1.7891,-0.36185 -2.59621,-0.62408c-0.92867,-0.30172 -2.66246,-1.08442 -2.66246,-1.08442c0,0 0.98151,10.59127 -0.56426,17.63759c-1.43581,6.54505 -8.29008,14.25077 -8.29008,14.25077l-0.53802,-3.52428c0,0 -1.1217,1.87905 -2.07022,2.89272c-1.21751,1.30113 -3.06901,2.10456 -3.06901,2.10456l-0.43599,-3.54129c0,0 -5.76982,7.51745 -12.81511,9.19029c-9.88268,2.34655 -21.50533,-0.52753 -22.3539,-0.62934c-8.51502,-1.02158 -15.32764,-9.61791 -15.32764,-9.61791c0,0 -0.69009,2.5148 -1.26402,3.62232c-0.5154,0.99457 -2.02293,2.72047 -2.02293,2.72047c0,0 -0.20366,-5.10199 -1.48863,-8.98583c-1.12263,-3.39317 -2.97399,-6.79535 -3.47228,-8.88142c-1.61108,-6.7446 0.09345,-12.04652 0.09345,-12.04652c0,0 -1.45091,1.98469 -1.9021,4.24368c-0.69378,3.47359 -0.25764,9.18518 -0.25764,9.18518c0,0 -2.57162,-4.73743 -1.89083,-12.50367c0.47805,-5.45347 2.41478,-9.95539 2.41478,-9.95539c0,0 -1.82945,2.26391 -2.9492,2.96951c-1.4814,0.93349 -5.16192,2.1416 -5.16192,2.1416z" fill="#000000" stroke="#000000" stroke-width="0"/><g><path d="" fill="#000000" stroke="none" stroke-width="1.5"/><path d="" fill="#000000" stroke="none" stroke-width="1.5"/><path d="" fill="#000000" stroke="none" stroke-width="1.5"/><path d="" fill="#000000" stroke="none" stroke-width="1.5"/><path d="" fill="#000000" stroke="none" stroke-width="0"/><path d="M338.75361,152.80277c0,0 -11.35542,14.99788 -18.21429,14.84286c-7.75933,-0.11223 -17.42857,-14.87143 -17.42857,-14.87143c0,0 -4.4321,-2.54959 -6.6866,-9.05599c-0.63687,-1.838 -0.87126,-4.4144 -1.01405,-6.99329c2.7273,-0.17896 5.48363,-0.56713 7.95347,-0.8323c8.38738,-0.90052 16.85609,-2.81321 25.31959,-3.07744c5.64751,-0.17631 11.34575,-0.0154 17.03476,0.36764c-0.39708,3.61354 -0.56534,8.0192 -1.1663,9.59234c-3.5602,9.31948 -5.79801,10.02759 -5.79801,10.02759z" fill="#000000" stroke="none" stroke-width="0"/><path d="" fill="#ffffff" stroke="none" stroke-width="0"/><path d="M342.76684,142.13997c-0.64672,3.56478 -2.21708,5.21918 -4.04604,7.54769c-1.34189,1.70839 -2.94198,3.8402 -5.39065,6.6909c-5.85759,5.73616 -9.38235,9.19561 -12.94216,9.26459c-3.81077,0.06639 -8.12612,-5.12877 -13.1259,-10.41101c-3.68324,-3.89135 -6.00247,-6.07972 -7.62844,-9.26512c-0.72428,-1.41892 -1.54841,-3.03568 -1.80746,-5.08891c-0.19657,-1.55793 -0.34571,-2.97483 -0.46487,-4.31235c2.074,-0.19789 4.12122,-0.47118 6.00225,-0.67314c8.38738,-0.90052 16.85609,-2.81321 25.31959,-3.07744c5.08045,-0.15861 10.20197,-0.04432 15.32089,0.2591c-0.16603,1.96005 -0.42469,4.58706 -1.23721,9.0657z" fill="#ffffff" stroke="none" stroke-width="0"/><path d="" fill="#ffffff" stroke="#000000" stroke-width="1"/><path d="" fill="#ffffff" stroke="#000000" stroke-width="1"/></g><path d="M341.47607,100.08137c0,0 1.52429,0.31807 4.2558,1.11029c2.49492,0.72361 4.44935,1.74403 4.44935,1.74403l0.1951,1.17035c0,0 -7.24963,-3.12997 -15.1158,-2.4706c-6.2896,0.52724 -9.96319,2.8124 -9.96319,2.8124l0.04575,-4.17683c0,0 3.12748,-1.70421 7.86366,-1.85557c4.90428,-0.15672 8.09084,0.59125 8.09084,0.59125z" fill="#000000" stroke="none" stroke-width="1.5"/><path d="M301.29463,104.09432c0,0 3.36963,-1.819 8.03244,-2.28178c5.16698,-0.51283 7.76823,-0.06628 7.76823,-0.06628l0.29508,4.13747c0,0 -3.83554,-0.68065 -8.01795,-0.52113c-5.59346,0.21333 -6.64488,1.43293 -10.89774,1.89119c-3.64408,0.39266 -6.73723,0.15884 -6.73723,0.15884l-0.02589,-1.23155c0,0 3.59517,0.07398 5.23371,-0.06836c1.35239,-0.11749 3.9757,-0.93808 3.9757,-0.93808z" fill="#000000" stroke="none" stroke-width="1.5"/><g stroke="none" stroke-width="0"><path d="M303.45025,143.28537c2.60232,-0.80515 6.65851,-2.09823 6.65851,-2.09823c0,0 3.14902,0.25623 4.89193,0.50994c1.76979,0.25762 5.35031,0.8576 5.35031,0.8576c0,0 5.25618,-0.94345 8.32318,-0.45494c1.94278,0.30946 13.97376,6.21839 13.97376,6.21839c0,0 -1.61372,2.74128 -4.86101,5.79199c-4.17422,3.92153 -11.07869,8.03294 -16.91728,7.81177c-15.53304,-0.58839 -23.80608,-17.41631 -23.80608,-17.41631c0,0 3.43772,-0.30781 6.38668,-1.22021z" fill="#000000"/><path d="M311.29832,148.36712c3.6831,0.79564 10.73433,2.78134 10.73433,2.78134c0,0 6.03848,-1.5161 9.01959,-1.84501c2.97422,-0.32815 8.84645,-0.3165 8.84645,-0.3165c0,0 -1.98101,2.70057 -5.5238,5.33171c-3.44287,2.55693 -8.42999,4.88856 -13.19171,4.82618c-14.20919,-0.18616 -21.4505,-12.88147 -21.4505,-12.88147c0,0 7.71804,1.27259 11.56564,2.10376z" fill="#ffffff"/><path d="M310.73008,143.1403c1.44979,-0.04793 5.12643,0.36848 7.77953,0.62148c1.97765,0.18859 3.27067,0.22842 3.27067,0.22842c0,0 3.99865,-0.64952 6.49496,-0.06139c2.51754,0.59313 7.60698,3.45335 7.60698,3.45335c0,0 -4.75326,-0.03793 -7.04386,0.15517c-2.47578,0.20871 -7.15503,0.94522 -7.15503,0.94522c0,0 -6.07564,-1.01339 -9.25401,-1.67663c-3.39359,-0.70816 -10.25143,-1.88956 -10.25143,-1.88956c0,0 6.02172,-1.69242 8.55219,-1.77607z" fill="#ffffff"/></g><g stroke="none" stroke-width="0"><path d="M325.42026,138.84273c0,1.02839 0.01192,3.5077 -1.02661,5.2353c-1.32361,2.20183 -4.60639,3.91752 -4.60639,3.91752c0,0 -0.08311,-1.21342 -0.66021,-2.4108c-1.07505,-2.23054 -2.72573,-5.34389 -2.72573,-6.86593c0,-2.33909 2.45758,-4.58529 4.94285,-4.58529c2.48528,0 4.07609,2.37011 4.07609,4.7092z" fill="#000000"/><path d="M320.20304,135.88861c0,0 2.57563,1.70779 2.57563,2.9748c0,1.26701 -1.84874,6.61765 -1.84874,6.61765c0,0 -3.19307,-4.52563 -3.38657,-7.02942c-0.10965,-1.41884 2.65967,-2.56303 2.65967,-2.56303z" fill="#ffffff"/></g><g stroke="none" stroke-width="0"><path d="M320.06026,149.73057c0,0 -1.16564,-5.18685 -1.53706,-12.24885c-0.08686,-1.65142 -0.14221,-3.53156 -0.1863,-5.36984c2.58693,-0.61707 5.05155,-1.52271 6.29108,-1.93699c-0.15724,2.83794 -0.2895,5.29019 -0.2895,5.29019c0,0 0.08268,1.876 0.02764,3.88788c-0.04773,1.74452 -0.05744,3.60231 -0.08974,4.7829c-0.05508,2.01356 -0.26572,5.94736 -0.26572,5.94736z" fill="#000000"/><path d="M320.73825,148.42591c0,0 -0.40334,-4.17468 -0.68373,-9.26482c-0.13243,-2.40402 -0.20168,-5.01316 -0.26048,-7.4278c1.38031,-0.38572 2.65934,-0.81411 3.65156,-1.15396c-0.10513,2.86374 -0.2208,5.99764 -0.31548,8.83c-0.16665,4.98498 -0.25477,9.0359 -0.25477,9.0359z" fill="#ffffff"/></g><path d="M296.89896,144.89044c0,0 -0.56044,-5.10461 -0.73042,-7.42231c-0.21381,-2.91524 -0.4514,-8.69133 -0.4514,-8.69133c0,0 38.27095,-7.01405 45.41266,-4.93664c8.61367,2.50558 2.68583,18.92773 2.68583,18.92773c0,0 -1.42357,-1.70206 -2.82576,-2.03362c-1.30039,-0.30749 -5.305,0.11102 -5.305,0.11102c0,0 -5.0981,-5.24111 -7.07816,-6.03388c-1.49785,-0.59971 -3.76458,1.69267 -3.76458,1.69267c0,0 -2.3181,-0.34733 -3.19961,-0.13497c-0.77003,0.18551 -1.80039,1.33951 -1.80039,1.33951c0,0 -5.03743,-2.07843 -6.43291,-1.64161c-1.14909,0.35969 -4.5486,4.465 -4.5486,4.465c0,0 -3.72327,-3.45875 -4.82794,-3.54933c-1.06644,-0.08744 -1.68943,3.01494 -1.68943,3.01494c0,0 -1.55676,0.11348 -2.27316,-0.00164c-0.64232,-0.10322 -1.82733,-0.65727 -1.82733,-0.65727z" fill="#000000" stroke="#000000" stroke-width="0"/><path d="M296.09214,139.52301c0,0 -1.09011,-2.76064 -1.81894,-6.11c-0.372,-1.70951 -0.28012,-4.03456 -0.66438,-5.27019c-0.52002,-1.6722 -1.93298,-3.99942 -3.01289,-5.97804c-0.90648,-1.66088 -1.54546,-3.14176 -1.54546,-3.14176c0,0 4.69671,1.8286 6.36512,3.06271c1.48019,1.09489 3.81511,3.97439 3.81511,3.97439c0,0 -1.13297,-2.92459 -1.34828,-4.14719c-0.25258,-1.43424 -0.07333,-3.92511 -0.07333,-3.92511c0,0 5.00652,5.13626 8.65885,5.14203c3.77152,0.00596 11.37418,-5.98184 11.37418,-5.98184c0,0 3.61812,0.52658 5.21787,0.0913c1.65589,-0.45055 4.55485,-2.75039 4.55485,-2.75039c0,0 0.22407,1.81062 0.50208,2.65088c0.252,0.76165 1.09563,2.17804 1.09563,2.17804c0,0 5.18288,-2.49274 6.68629,-2.77876c2.8703,-0.54608 9.2754,-0.25799 9.2754,-0.25799c0,0 -1.00977,1.87317 0.20952,2.45752c0.98867,0.47383 6.93551,1.66205 6.93551,1.66205c0,0 -0.77042,1.86662 -2.07482,3.89588c-1.00176,1.55844 -2.52357,3.11024 -3.00536,4.61004c-0.43921,1.36728 -0.00021,3.28933 -0.21246,5.47459c-0.28551,2.93944 -1.39238,5.92662 -1.39238,5.92662c0,0 -2.58767,-3.33968 -4.33121,-3.64451c-1.41793,-0.24791 -5.35659,1.95073 -5.35659,1.95073c0,0 -5.53062,-6.15948 -7.08324,-6.62033c-2.89444,-0.85913 -4.13471,2.10886 -4.13471,2.10886c0,0 -2.14092,-0.66389 -3.26947,-0.45705c-0.97888,0.17941 -3.1169,1.62754 -3.1169,1.62754c0,0 -4.73549,-2.18216 -6.85242,-1.69576c-1.43725,0.33023 -2.86959,4.58167 -2.86959,4.58167c0,0 -4.72794,-3.99493 -5.86491,-3.88908c-1.37475,0.12798 -1.14,3.14536 -1.14,3.14536c0,0 -1.89527,-0.42102 -2.34519,-2.72537c-0.30746,-1.57469 -0.02586,-3.62966 -0.02586,-3.62966c0,0 -1.29573,3.13643 -1.75774,4.3769c-0.567,1.52235 -1.39428,4.08594 -1.39428,4.08594z" fill="#566580" stroke="#000000" stroke-width="0"/><path d="M297.80911,117.98782c0,0 0.45114,1.80633 1.81762,3.26973c1.81705,1.94592 4.77251,3.8616 5.76882,5.7205c1.85183,3.45513 3.22458,11.18088 3.22458,11.18088c0,0 -4.72794,-3.99493 -5.86491,-3.88908c-1.37475,0.12798 -1.14,3.14536 -1.14,3.14536c0,0 -0.92931,-1.35966 -1.00788,-3.98719c-0.05442,-1.82 0.44455,-4.39351 0.17383,-5.77537c-0.25097,-1.28102 -1.6254,-3.5572 -2.26786,-5.25456c-0.89702,-2.36987 -0.70419,-4.41027 -0.70419,-4.41027z" fill="#8395a1" stroke="#000000" stroke-width="0"/><path d="M317.84214,117.14802c0,0 3.61812,0.52658 5.21787,0.0913c1.65589,-0.45055 4.55485,-2.75039 4.55485,-2.75039c0,0 0.22407,1.81062 0.50208,2.65088c0.252,0.76165 1.09563,2.17804 1.09563,2.17804c0,0 5.18288,-2.49274 6.68629,-2.77876c2.8703,-0.54608 9.2754,-0.25799 9.2754,-0.25799c0,0 -1.89281,1.12085 -2.89604,3.54884c-0.55773,1.34979 -0.64973,5.93598 -1.77491,8.64526c-0.97533,2.34847 -2.97558,2.38334 -3.67438,4.54233c-0.94367,2.91554 -0.88247,5.59647 -0.88247,5.59647c0,0 -5.53062,-6.15948 -7.08324,-6.62033c-2.89444,-0.85913 -4.13471,2.10886 -4.13471,2.10886c0,0 -2.14092,-0.66389 -3.26947,-0.45705c-0.97888,0.17941 -3.1169,1.62754 -3.1169,1.62754c0,0 -4.73549,-2.18216 -6.85242,-1.69576c-1.43725,0.33023 -2.86959,4.58167 -2.86959,4.58167c0,0 0.45295,-5.73833 0.48555,-8.13743c0.02584,-1.90217 -0.30551,-5.11552 -0.30551,-5.11552c0,0 3.22431,-2.17694 4.72328,-3.46304c1.51486,-1.29975 4.3187,-4.29493 4.3187,-4.29493z" fill="#8395a1" stroke="#000000" stroke-width="0"/><path d="M332.09214,131.27301c0,-0.82843 0.67157,-1.5 1.5,-1.5c0.82843,0 1.5,0.67157 1.5,1.5c0,0.82843 -0.67157,1.5 -1.5,1.5c-0.82843,0 -1.5,-0.67157 -1.5,-1.5z" fill="#566580" stroke="none" stroke-width="0.5"/><g stroke="none" stroke-width="0"><path d="M312.48731,117.45308c-1.85796,2.68807 -5.54324,3.36101 -8.23132,1.50305c-2.68807,-1.85796 -3.361,-5.54326 -1.50304,-8.23133c1.85796,-2.68808 5.54324,-3.36101 8.23132,-1.50305c2.68807,1.85796 3.361,5.54325 1.50304,8.23132z" fill="#654779"/><path d="M302.81348,121.04311c-0.68148,-0.47103 0.91807,-3.96637 3.57271,-7.80706c2.65464,-3.84069 5.35909,-6.57235 6.04058,-6.10131c0.68148,0.47104 -0.91807,3.96638 -3.57271,7.80707c-2.65464,3.84068 -5.35909,6.57234 -6.04058,6.1013z" fill="#000000"/><path d="M300.61547,109.35614c0.4638,-0.68643 3.97587,0.87605 7.84443,3.4899c3.86857,2.61385 6.62868,5.28925 6.16488,5.97568c-0.4638,0.68643 -3.97587,-0.87605 -7.84443,-3.4899c-3.86857,-2.61385 -6.62868,-5.28925 -6.16488,-5.97568z" fill="#000000"/><path d="M305.06148,117.79073c-2.04445,-1.4131 -2.55627,-4.21599 -1.14317,-6.26044c1.4131,-2.04445 4.216,-2.55626 6.26045,-1.14316c2.04445,1.4131 2.55627,4.21599 1.14317,6.26044c-1.4131,2.04445 -4.216,2.55626 -6.26045,1.14316z" fill="#000000"/><path d="M305.8196,116.6939c-1.43869,-0.9944 -1.79885,-2.96681 -0.80445,-4.4055c0.9944,-1.43869 2.96681,-1.79885 4.4055,-0.80445c1.43869,0.9944 1.79885,2.96681 0.80445,4.4055c-0.9944,1.43869 -2.96681,1.79885 -4.4055,0.80445z" fill="#705d86"/></g></g></g></svg>