<svg version="1.1" xmlns="http://www.w3.org/2000/svg" xmlns:xlink="http://www.w3.org/1999/xlink" width="412.02355" height="346.51524" viewBox="0,0,412.02355,346.51524"><defs><linearGradient x1="45.23143" y1="167.52314" x2="45.23143" y2="218.35288" gradientUnits="userSpaceOnUse" id="color-1"><stop offset="0" stop-color="#030404"/><stop offset="1" stop-color="#586c76"/></linearGradient></defs><g transform="translate(-29.93545,-35.7319)"><g data-paper-data="{&quot;isPaintingLayer&quot;:true}" fill-rule="nonzero" stroke-linejoin="miter" stroke-miterlimit="10" stroke-dasharray="" stroke-dashoffset="0" style="mix-blend-mode: normal"><g stroke-linecap="butt"><path d="M281.72634,304.39162c0,0 -0.63536,-94.38387 -0.79335,-118.01201c-0.05451,-8.15261 8.18688,-36.76129 40.20201,-36.9211c31.60235,-0.15775 39.85672,29.48704 39.84884,36.89673c-0.07659,46.24274 0.65429,117.98648 0.65429,117.98648l-10.49667,0.09614l-0.15882,-114.84311c0,0 0.07549,-3.0993 -2.81625,-3.15415c-3.43441,-0.06514 -2.94538,3.11562 -2.94538,3.11562l0.20548,114.86995l-48.21366,0.07222l-0.30539,-115.23309c0,0 0.27949,-2.919 -2.8856,-2.93443c-3.11083,-0.01515 -2.81569,2.90899 -2.81569,2.90899l0.35311,115.0668z" fill="#ffffff" stroke="#000000" stroke-width="2"/><path d="M336.32356,200.3338c-0.57113,0 -1.03411,-0.46299 -1.03411,-1.03411c0,-0.57113 0.46299,-1.03413 1.03411,-1.03413c0.57113,0 1.03411,0.463 1.03411,1.03413c0,0.57113 -0.46299,1.03411 -1.03411,1.03411z" fill="#000000" stroke="none" stroke-width="1.5"/><path d="M331.06363,204.5694c-4.4635,-0.31439 -6.55245,-1.79392 -6.16985,-2.58011c0.11788,-0.24224 2.84645,1.06355 6.97038,1.3048c6.40897,0.37493 8.51033,-0.63173 8.51033,-0.63173v1.34616c0,0 -2.4135,1.04672 -9.31086,0.56089z" fill="#000000" stroke="#000000" stroke-width="0"/><path d="M303.25093,199.29969c0,-0.57113 0.46299,-1.03413 1.03411,-1.03413c0.57113,0 1.03413,0.463 1.03413,1.03413c0,0.57113 -0.463,1.03411 -1.03413,1.03411c-0.57113,0 -1.03411,-0.46299 -1.03411,-1.03411z" fill="#000000" stroke="none" stroke-width="1.5"/><path d="M309.54492,204.5694c-6.89736,0.48585 -9.31086,-0.56089 -9.31086,-0.56089v-1.34616c0,0 2.10136,1.00666 8.51033,0.63173c4.12393,-0.24126 6.85251,-1.54704 6.97039,-1.3048c0.3826,0.78618 -1.70634,2.26571 -6.16985,2.58011z" fill="#000000" stroke="#000000" stroke-width="0"/><path d="M320.82536,261.12111c-0.81895,0 -1.48284,-0.66389 -1.48284,-1.48284c0,-0.81895 0.66389,-1.48284 1.48284,-1.48284c0.81895,0 1.48284,0.66389 1.48284,1.48284c0,0.81895 -0.66389,1.48284 -1.48284,1.48284z" fill="#000000" stroke="none" stroke-width="1.5"/></g><g><path d="M301.28655,59.67587c2.79605,-1.56005 6.01918,-2.7925 9.73552,-3.57053c2.30988,-0.48358 4.95931,-0.49291 7.66401,-0.59775c1.9276,-0.03945 3.81147,-0.25958 5.55632,-0.16574c19.84427,1.06726 28.01057,10.39785 31.73061,20.16133c2.59531,6.81156 3.08886,13.83656 3.5954,18.34224c-3.92083,17.54939 -9.64251,28.34297 -8.29187,47.15604c0.06446,0.89795 0.09075,1.89913 0.1161,2.95228c-0.10303,0.16618 -1.2233,1.9673 -2.40234,3.6203c-1.23739,1.7348 -3.23873,2.96273 -3.23873,2.96273l0.15795,-4.00421c0,0 -7.3101,11.31795 -24.60066,11.17154c-16.30625,-0.25547 -26.07151,-10.6752 -26.07151,-10.6752l-0.1162,2.65484c0,0 -1.78396,-1.50822 -3.64602,-4.47171c0.87721,-3.166 -0.48892,-7.04747 -0.60079,-10.08866c-0.46491,-12.63898 -3.03636,-24.94178 -3.86814,-37.63296c-0.36782,-5.61217 0.10045,-11.69113 -0.70626,-17.22585c-0.07867,-0.53977 -0.16532,-1.07395 -0.2658,-1.59801c2.52027,-7.01409 7.04751,-14.41278 15.25241,-18.99067z" fill="#000000" stroke="none" stroke-width="1.5" stroke-linecap="butt"/><path d="M338.75366,152.80278c0,0 -11.35542,14.99788 -18.21429,14.84286c-7.75933,-0.11223 -17.42857,-14.87143 -17.42857,-14.87143c0,0 -4.4321,-2.54959 -6.6866,-9.05599c-1.52199,-4.39239 -0.74533,-13.00182 -1.91325,-15.78452c-0.7968,-1.89846 -3.01324,-3.33667 -4.22033,-5.51429c-1.99866,-3.60563 -3.18126,-7.67619 -3.57167,-10.871c-0.1643,-1.34455 -0.32947,-7.29471 1.58389,-7.99754c1.12907,-0.41473 3.64078,2.29836 3.64078,2.29836l-0.08081,-9.21601c0,0 10.36364,-0.98011 20.62211,-5.70976c7.58363,-3.49642 17.95863,-8.13158 17.95863,-8.13158l-6.0306,9.24428c0,0 7.31902,-2.3462 13.60039,-5.20941c5.16789,-2.35565 9.2625,-5.43395 10.67274,-4.09588c3.91393,3.71365 2.10159,23.41095 2.10159,23.41095c0,0 2.71616,-3.25349 3.87258,-0.74994c0.54619,1.18245 0.88743,7.19722 0.50822,9.40565c-1.45843,8.4935 -6.85109,10.4716 -8.4975,13.78417c-1.29482,2.60516 -1.19253,11.76747 -2.1193,14.19347c-3.5602,9.31948 -5.79801,10.02759 -5.79801,10.02759z" fill="#000000" stroke="none" stroke-width="0" stroke-linecap="butt"/><path d="M294.35105,98.98133c0,0 2.48751,-0.283 12.99121,-3.386c8.0696,-2.38394 17.85501,-8.02569 17.85501,-8.02569c0,0 -0.85236,1.38965 -2.10012,2.84477c-1.32651,1.54696 -4.33908,5.11333 -4.33908,5.11333c0,0 9.34899,-1.97622 16.18575,-5.03792c8.56837,-3.53575 11.2134,-6.11352 12.5713,-5.26852c2.36624,1.39029 1.00258,22.78709 0.69098,28.34501c-0.42163,5.66922 -2.30936,10.26082 -3.18694,13.21651c-1.36704,4.60417 -0.45569,5.45408 -2.25231,15.35716c-0.64672,3.56478 -2.21708,5.21918 -4.04604,7.54769c-1.34189,1.70839 -2.94198,3.8402 -5.39065,6.6909c-5.85759,5.73616 -9.38235,9.19561 -12.94216,9.26459c-3.81077,0.06639 -8.12612,-5.12877 -13.1259,-10.41101c-3.68324,-3.89135 -6.00247,-6.07972 -7.62844,-9.26512c-0.72428,-1.41892 -1.54841,-3.03568 -1.80746,-5.08891c-0.75707,-6.00039 -0.81072,-9.90853 -1.15685,-15.24835c-0.25298,-3.90273 -2.38987,-6.23981 -2.73021,-10.42801c-0.34033,-4.1882 0.41192,-16.22043 0.41192,-16.22043z" fill="#ffffff" stroke="none" stroke-width="0" stroke-linecap="butt"/><path d="M295.02335,125.32496c0,0 -4.93211,-3.51705 -6.16417,-8.97502c-1.29636,-5.74284 -1.46118,-10.27126 0.48013,-10.53039c1.94131,-0.25915 2.70321,2.91538 3.73262,8.89415c1.0294,5.97877 1.95143,10.61127 1.95143,10.61127z" fill="#ffffff" stroke="#000000" stroke-width="1" stroke-linecap="butt"/><path d="M294.82079,121.3774c0,0 -3.56385,-2.92338 -4.31816,-8.45061c-0.42079,-3.08327 2.15675,-2.28016 2.15675,-2.28016" fill="none" stroke="#000000" stroke-width="0.25" stroke-linecap="round"/><path d="M349.33892,114.71369c0.69124,-4.01471 1.23472,-6.47238 2.05446,-7.67647c0.40103,-0.58906 0.80966,-0.99513 1.4474,-0.90999c1.94131,0.25914 1.93033,4.24909 0.63397,9.99193c-1.23206,5.45797 -6.08724,9.20579 -6.08724,9.20579c0,0 0.92203,-4.6325 1.95143,-10.61127z" fill="#ffffff" stroke="#000000" stroke-width="1" stroke-linecap="butt"/><path d="M349.75147,110.64663c0,0 2.52754,-0.95312 2.10675,2.13016c-0.75431,4.87723 -4.21816,8.60061 -4.21816,8.60061" fill="none" stroke="#000000" stroke-width="0.25" stroke-linecap="round"/></g><g stroke="none" stroke-width="0" stroke-linecap="butt"><path d="M324.0741,114.59203c0,-5.14334 4.65229,-9.31284 10.39118,-9.31284c5.73889,0 10.39117,4.1695 10.39117,9.31284c0,5.14334 -4.38238,9.84225 -10.45865,9.84225c-6.88596,0 -10.32371,-4.69891 -10.32371,-9.84225z" fill="#000000"/><path d="M325.42055,114.18026c0,-4.88935 4.0949,-8.91177 9.07398,-8.91177c4.97909,0 9.01545,3.96359 9.01545,8.85294c0,4.88935 -3.80219,8.91177 -9.07399,8.91177c-5.9743,0 -9.01544,-3.96359 -9.01544,-8.85294z" fill="#ffffff"/></g><g stroke="none" stroke-width="0" stroke-linecap="butt"><path d="M297.0741,114.39203c0,-5.14333 4.74184,-9.31283 10.59118,-9.31283c5.84934,0 10.59118,4.1695 10.59118,9.31283c0,5.14333 -4.46674,9.84225 -10.65995,9.84225c-7.0185,0 -10.5224,-4.69892 -10.5224,-9.84225z" fill="#000000"/><path d="M298.44651,113.98026c0,-4.88935 4.17371,-8.91176 9.24863,-8.91176c5.07493,0 9.18896,3.96359 9.18896,8.85294c0,4.88935 -3.87537,8.91177 -9.24864,8.91177c-6.08929,0 -9.18896,-3.96359 -9.18896,-8.85294z" fill="#ffffff"/></g><path d="M341.4761,100.08138c0,0 1.52429,0.31807 4.2558,1.11029c2.49492,0.72361 4.44935,1.74403 4.44935,1.74403l0.1951,1.17035c0,0 -7.24963,-3.12997 -15.1158,-2.4706c-6.2896,0.52724 -9.96319,2.8124 -9.96319,2.8124l0.04575,-4.17683c0,0 3.12748,-1.70421 7.86366,-1.85557c4.90428,-0.15672 8.09084,0.59125 8.09084,0.59125z" fill="#000000" stroke="none" stroke-width="1.5" stroke-linecap="butt"/><path d="M301.29465,104.09433c0,0 3.36963,-1.819 8.03244,-2.28178c5.16698,-0.51283 7.76823,-0.06628 7.76823,-0.06628l0.29508,4.13747c0,0 -3.83554,-0.68065 -8.01795,-0.52113c-5.59346,0.21333 -6.64488,1.43293 -10.89774,1.89119c-3.64408,0.39266 -6.73723,0.15884 -6.73723,0.15884l-0.02589,-1.23155c0,0 3.59517,0.07398 5.23371,-0.06836c1.35239,-0.11749 3.9757,-0.93808 3.9757,-0.93808z" fill="#000000" stroke="none" stroke-width="1.5" stroke-linecap="butt"/><g><path d="M213.15367,373.18923c-8.79814,-6.71476 -4.10385,-18.32742 -4.10385,-18.32742c0,0 1.71912,-0.36005 2.78977,-1.69802c2.20633,-2.75718 2.82921,-7.71281 9.48837,-8.34348c3.06193,-0.28999 10.50327,5.23737 14.09147,8.06865c1.22441,0.96612 3.09697,1.28348 4.56991,1.01338c1.87514,-0.34385 4.35987,-0.5828 5.96731,0.10751c2.79656,1.20097 8.46869,7.80051 8.46869,7.80051c0,0 -5.17512,8.34778 -15.43947,12.32865c-11.819,4.5838 -21.69197,2.21004 -25.8322,-0.94979z" fill="#000000" stroke="none" stroke-width="0" stroke-linecap="butt"/><path d="M212.73398,354.90846c0,0 0.87044,-0.53113 1.57758,-1.59099c1.24107,-1.86009 1.67472,-4.89969 5.88396,-5.96382c2.78875,-0.70502 11.96572,4.75521 15.82618,7.16403c1.07318,0.66963 2.40641,0.91775 3.40882,0.76733c1.55825,-0.23384 3.91756,-0.38245 5.803,0.38423c2.03574,0.82779 5.60098,4.27579 5.60098,4.27579c0,0 -2.1811,0.14821 -4.80091,-0.46376c-2.84782,-0.66524 -6.3079,-1.76168 -10.1578,-2.74627c-5.21524,-1.33377 -10.83426,-2.54014 -13.7031,-2.91937c-2.3921,-0.31621 -2.13808,2.43875 -4.62042,2.80673c-1.2456,0.18464 -4.81826,-1.71385 -4.81826,-1.71385z" fill="#ffffff" stroke="none" stroke-width="0" stroke-linecap="butt"/><path d="M211.61474,356.82046c0,0 4.54693,1.68056 5.22873,2.46081c2.05592,2.35278 1.71667,5.72121 6.75637,6.3065c8.24276,0.95727 12.88936,-1.91349 20.21117,-2.94794c4.1099,-0.58065 8.09607,-0.08331 8.09607,-0.08331c0,0 -1.34554,1.15971 -3.30414,2.79722c-4.27267,3.57224 -12.53743,9.67052 -23.49066,8.87149c-20.31486,-1.48196 -13.49755,-17.40476 -13.49755,-17.40476z" fill="#ffffff" stroke="none" stroke-width="0" stroke-linecap="butt"/><path d="M220.94164,358.35941c0,0 -0.12308,-3.16877 1.67828,-2.93364c3.85888,0.50369 20.37991,5.26538 20.37991,5.26538c0,0 -13.68793,3.9899 -19.63397,2.56805c-0.99758,-0.23854 -3.15186,-1.84517 -3.47898,-2.97946c-0.41345,-1.43368 1.05476,-1.92033 1.05476,-1.92033z" fill="#ffffff" stroke="none" stroke-width="0" stroke-linecap="butt"/><path d="M243.233,361.01754c0,0 -10.95188,-0.43809 -15.0409,-0.98104c-3.16347,-0.42004 -7.437,-2.00358 -7.437,-2.00358" fill="none" stroke="#000000" stroke-width="1" stroke-linecap="round"/></g><g fill="#000000" stroke="none" stroke-width="0" stroke-linecap="butt"><path d="M323.96191,113.59259c0,0 -0.14581,-10.33851 12.29581,-9.16514c8.61879,0.78337 8.79999,8.92987 8.79999,8.92987l-1.33992,0.90627c0,0 -0.74331,-4.56789 -9.04943,-4.94691c-7.05026,-0.32171 -10.70646,4.27592 -10.70646,4.27592z"/><g><path d="M343.90892,116.56357c0,0 -1.75923,7.14836 -9.65502,7.27528c-8.28178,0.13313 -9.50012,-7.07389 -9.50012,-7.07389c0,0 4.04949,4.06481 9.39685,3.95232c6.4877,-0.13647 9.75828,-4.15371 9.75828,-4.15371z"/></g></g><g fill="#000000" stroke="none" stroke-width="0" stroke-linecap="butt"><path d="M297.32779,113.7601c0,0 -0.04408,-10.34524 12.11088,-9.18244c9.15802,0.8761 9.23668,10.99497 9.23668,10.99497h-1.30905c0,0 -0.67699,-5.92383 -8.79172,-6.29944c-6.88781,-0.31882 -11.24678,4.48691 -11.24678,4.48691z"/><g><path d="M317.0139,116.50406c0,0 -1.71552,7.14836 -9.41508,7.27528c-8.07597,0.13313 -9.26404,-7.07389 -9.26404,-7.07389c0,0 3.94885,4.06481 9.16334,3.95232c6.32647,-0.13647 9.51577,-4.15371 9.51577,-4.15371z"/></g></g><g stroke="none" stroke-width="1.5" stroke-linecap="butt"><path d="M302.35418,114.83944c0.03999,-2.75843 2.30855,-4.96213 5.06696,-4.92214c2.75843,0.03999 4.96213,2.30855 4.92214,5.06696c-0.03999,2.75843 -2.30854,4.96213 -5.06696,4.92214c-2.75843,-0.03999 -4.96213,-2.30855 -4.92214,-5.06696z" fill="#000000"/><path d="M303.88248,114.8616c0.02775,-1.91437 1.60214,-3.44374 3.51649,-3.41599c1.91436,0.02775 3.44374,1.60214 3.41599,3.51649c-0.02775,1.91437 -1.60213,3.44374 -3.51649,3.41599c-1.91436,-0.02775 -3.44374,-1.60214 -3.41599,-3.51649z" fill="#ffffff"/><path d="M305.17569,114.88035c0.0174,-1.20015 1.00441,-2.15895 2.20456,-2.14155c1.20015,0.01739 2.15895,1.00441 2.14155,2.20456c-0.0174,1.20015 -1.00441,2.15895 -2.20456,2.14155c-1.20015,-0.01739 -2.15895,-1.00441 -2.14155,-2.20456z" fill="#000000"/></g><g stroke="none" stroke-width="1.5" stroke-linecap="butt"><path d="M329.75417,114.83944c0.03999,-2.75843 2.30855,-4.96213 5.06696,-4.92214c2.75843,0.03999 4.96213,2.30855 4.92214,5.06696c-0.03999,2.75843 -2.30854,4.96213 -5.06696,4.92214c-2.75843,-0.03999 -4.96213,-2.30855 -4.92214,-5.06696z" fill="#000000"/><path d="M331.28247,114.8616c0.02775,-1.91437 1.60214,-3.44374 3.51649,-3.41599c1.91436,0.02775 3.44374,1.60214 3.41599,3.51649c-0.02775,1.91437 -1.60213,3.44374 -3.51649,3.41599c-1.91436,-0.02775 -3.44374,-1.60214 -3.41599,-3.51649z" fill="#ffffff"/><path d="M332.57568,114.88035c0.0174,-1.20015 1.00441,-2.15895 2.20456,-2.14155c1.20015,0.01739 2.15895,1.00441 2.14155,2.20456c-0.0174,1.20015 -1.00441,2.15895 -2.20456,2.14155c-1.20015,-0.01739 -2.15895,-1.00441 -2.14155,-2.20456z" fill="#000000"/></g><g stroke="none" stroke-width="0" stroke-linecap="butt"><path d="M265.00182,341.8321c-6.67514,-6.38936 -7.1875,-27.5625 -7.1875,-27.5625c0,0 7.73056,-8.01471 12.7008,-7.76918c2.22303,0.10982 8.42049,2.52388 8.42049,2.52388c0,0 7.96173,-2.4427 11.28373,-1.26586c3.54032,1.25418 9.03248,8.63616 9.03248,8.63616c0,0 -0.18579,1.59077 -1.20626,7.9258c-0.78394,4.86665 -1.38934,14.13565 -5.27877,17.55313c-6.48629,5.69923 -22.67883,4.82695 -27.76497,-0.04143z" fill="#000000"/><path d="M259.90351,316.22137c0,0 1.55193,-0.36205 2.72694,1.78176c1.67483,3.05577 3.07001,12.1495 6.25168,14.8758c2.47384,2.11977 7.35935,2.52661 9.26844,2.60164c2.02053,0.07941 7.02614,-0.00847 9.79643,-2.12036c3.07039,-2.34066 3.94518,-9.23999 5.63386,-12.12086c1.35619,-2.31363 2.75919,-3.58597 2.75919,-3.58597c0,0 0.03982,2.00168 -0.1254,5.00073c-0.22429,4.07139 -0.96058,12.01341 -3.93588,15.86563c-2.97901,3.85702 -10.72152,4.63985 -14.94878,4.47371c-3.63531,-0.14287 -9.53316,-1.22383 -12.02578,-4.49811c-3.39792,-4.46349 -4.28453,-13.83757 -4.6253,-18.23355c-0.20412,-2.63304 -0.7754,-4.04039 -0.7754,-4.04039z" fill="#ffffff"/><path d="M260.14222,314.7098c0,0 5.56837,-5.31738 9.12427,-6.08135c3.1939,-0.68619 10.526,2.34223 10.526,2.34223c0,0 7.25306,-2.06578 9.5223,-1.42518c3.04291,0.85901 7.10484,6.11896 7.10484,6.11896c0,0 -11.02765,-0.39069 -17.01887,-0.54836c-6.09931,-0.16051 -19.25856,-0.40632 -19.25856,-0.40632z" fill="#ffffff"/><path d="M292.76004,318.6876c0,0 -1.05448,1.43533 -1.93886,3.08086c-1.23305,2.29429 -2.25198,8.22254 -4.68839,10.23525c-2.1484,1.77479 -6.0659,1.3634 -7.56753,1.35065c-1.7132,-0.01456 -5.38032,0.03072 -7.53165,-1.8681c-2.17227,-1.91728 -3.59422,-8.04225 -4.63539,-10.20057c-0.87023,-1.80398 -1.72136,-2.83675 -1.72136,-2.83675c0,0 1.29414,-0.90285 2.97217,0.69404c1.56718,1.49139 2.42773,7.86877 4.41831,9.80766c1.80625,1.75936 4.78913,2.11416 6.2586,2.12665c1.37425,0.01168 4.12711,0.17766 6.07496,-1.03632c1.98082,-1.23453 3.4635,-9.08812 4.94142,-10.70301c1.84705,-2.01824 3.41771,-0.65032 3.41771,-0.65032z" fill="#ffffff"/></g><g stroke="none" stroke-width="0" stroke-linecap="butt"><path d="M265.15904,379.22509c-2.98498,-1.79057 -4.76912,-7.72342 -5.74802,-13.17161c-1.01498,-5.64903 -1.54629,-11.22662 -1.54629,-11.22662c0,0 7.76806,-8.17466 12.76505,-8.17466c2.27552,0 8.78159,3.19246 8.78159,3.19246c0,0 6.8299,-3.04479 10.2387,-2.1064c2.81377,0.77458 8.77356,8.03183 8.77356,8.03183c0,0 0.11543,3.03725 -0.09249,7.42761c-0.23519,4.96608 -1.00712,10.86626 -5.10521,14.80003c-6.24635,5.99589 -21.90086,4.9261 -28.06689,1.22735z" fill="#000000"/><path d="M260.44288,354.88976c0,0 6.08904,-5.44035 9.30336,-5.9923c2.99557,-0.51439 9.3726,2.78531 9.3726,2.78531c0,0 5.89298,-2.6331 10.05195,-1.79704c4.31691,0.86782 7.17772,6.26167 7.17772,6.26167c0,0 -10.11262,-0.47116 -15.60234,-0.66345c-6.35245,-0.2225 -20.3033,-0.59419 -20.3033,-0.59419z" fill="#ffffff"/><path d="M260.19134,356.58756c0,0 1.24235,-1.03393 4.20962,5.09491c0.98424,2.03294 1.51426,4.50286 3.08377,6.52491c1.67029,2.1519 4.53453,3.79656 10.94774,3.86751c3.78225,0.04184 6.64191,-0.19022 8.49503,-1.18358c2.94226,-1.57718 3.72966,-4.49968 4.54273,-6.94345c2.05801,-6.18561 4.8154,-6.22843 4.8154,-6.22843c0,0 -0.36149,3.40665 -0.63967,7.65442c-0.23839,3.6401 -0.91925,7.96969 -3.99598,10.92208c-2.49144,2.39075 -6.57211,3.64826 -13.09707,3.62085c-12.03435,-0.05056 -13.94517,-3.8158 -15.72349,-8.98914c-2.18225,-6.34842 -2.63805,-14.34009 -2.63805,-14.34009z" fill="#ffffff"/><path d="M265.09615,358.28541c0,0 1.59839,-0.31017 2.45224,0.31993c0.30988,0.22868 2.29892,5.67303 5.81423,8.31936c1.43521,1.08043 3.85843,0.85606 5.37876,0.93069c1.24443,0.06108 4.85489,-0.06706 5.62678,-0.53741c1.99004,-1.21261 2.76496,-3.30966 3.68157,-5.23178c0.75804,-1.5896 1.68596,-3.07619 1.83375,-3.19875c0.71005,-0.5888 2.25193,-0.28763 2.25193,-0.28763c0,0 -4.23402,9.88419 -6.72838,10.75283c-1.1223,0.39083 -3.73068,0.73348 -6.53911,0.7009c-2.67447,-0.03103 -5.54206,-0.40234 -7.02342,-1.39639c-1.54414,-1.03618 -2.5356,-2.51942 -3.5133,-3.97663c-2.10897,-3.14329 -3.23507,-6.39512 -3.23507,-6.39512z" fill="#ffffff"/></g><g stroke="none" stroke-width="0" stroke-linecap="butt"><path d="M265.00182,341.8321c-6.67514,-6.38936 -7.1875,-27.5625 -7.1875,-27.5625c0,0 7.73056,-8.01471 12.7008,-7.76918c2.22303,0.10982 8.42049,2.52388 8.42049,2.52388c0,0 7.96173,-2.4427 11.28373,-1.26586c3.54032,1.25418 9.03248,8.63616 9.03248,8.63616c0,0 -0.18579,1.59077 -1.20626,7.9258c-0.78394,4.86665 -1.38934,14.13565 -5.27877,17.55313c-6.48629,5.69923 -22.67883,4.82695 -27.76497,-0.04143z" fill="#000000"/><path d="M259.90351,316.22137c0,0 1.55193,-0.36205 2.72694,1.78176c1.67483,3.05577 3.07001,12.1495 6.25168,14.8758c2.47384,2.11977 7.35935,2.52661 9.26844,2.60164c2.02053,0.07941 7.02614,-0.00847 9.79643,-2.12036c3.07039,-2.34066 3.94518,-9.23999 5.63386,-12.12086c1.35619,-2.31363 2.75919,-3.58597 2.75919,-3.58597c0,0 0.03982,2.00168 -0.1254,5.00073c-0.22429,4.07139 -0.96058,12.01341 -3.93588,15.86563c-2.97901,3.85702 -10.72152,4.63985 -14.94878,4.47371c-3.63531,-0.14287 -9.53316,-1.22383 -12.02578,-4.49811c-3.39792,-4.46349 -4.28453,-13.83757 -4.6253,-18.23355c-0.20412,-2.63304 -0.7754,-4.04039 -0.7754,-4.04039z" fill="#ffffff"/><path d="M260.14222,314.7098c0,0 5.56837,-5.31738 9.12427,-6.08135c3.1939,-0.68619 10.526,2.34223 10.526,2.34223c0,0 7.25306,-2.06578 9.5223,-1.42518c3.04291,0.85901 7.10484,6.11896 7.10484,6.11896c0,0 -11.02765,-0.39069 -17.01887,-0.54836c-6.09931,-0.16051 -19.25856,-0.40632 -19.25856,-0.40632z" fill="#ffffff"/><path d="M292.76004,318.6876c0,0 -1.05448,1.43533 -1.93886,3.08086c-1.23305,2.29429 -2.25198,8.22254 -4.68839,10.23525c-2.1484,1.77479 -6.0659,1.3634 -7.56753,1.35065c-1.7132,-0.01456 -5.38032,0.03072 -7.53165,-1.8681c-2.17227,-1.91728 -3.59422,-8.04225 -4.63539,-10.20057c-0.87023,-1.80398 -1.72136,-2.83675 -1.72136,-2.83675c0,0 1.29414,-0.90285 2.97217,0.69404c1.56718,1.49139 2.42773,7.86877 4.41831,9.80766c1.80625,1.75936 4.78913,2.11416 6.2586,2.12665c1.37425,0.01168 4.12711,0.17766 6.07496,-1.03632c1.98082,-1.23453 3.4635,-9.08812 4.94142,-10.70301c1.84705,-2.01824 3.41771,-0.65032 3.41771,-0.65032z" fill="#ffffff"/></g><g stroke="#000000" stroke-width="0" stroke-linecap="butt"><path d="M222.6779,310.96755c1.99262,-0.09462 5.88935,1.90904 9.0811,4.00655c3.24378,2.1317 5.40911,5.19889 8.43319,5.86078c2.47958,0.54271 5.77145,-1.30227 8.71916,-0.08101c3.24619,1.34491 9.14645,8.19539 9.14645,8.19539c0,0 -3.13665,4.7231 -8.58789,8.88195c-7.38137,5.63138 -24.28635,10.24002 -33.43211,3.82206c-4.14674,-2.90994 -6.32214,-7.01711 -6.71176,-10.64139c-0.59929,-5.57459 2.21023,-10.32795 2.21023,-10.32795c0,0 2.67892,-0.77918 3.24468,-1.68057c2.02096,-3.21981 4.10892,-7.85593 7.89697,-8.03581z" fill="#000000"/><path d="M214.5635,321.85553c0,0 1.72736,-0.35259 2.7429,-2.23673c1.45019,-2.69059 3.04901,-5.98458 6.32549,-5.5476c3.42118,0.45629 7.68382,4.03254 14.47913,7.18085c3.78019,1.75138 7.03686,0.61683 9.72848,1.48882c1.43924,0.46627 2.94469,1.64091 4.06303,2.72892c1.04437,1.01606 2.3316,1.96483 2.3316,1.96483c0,0 -2.84766,-0.01916 -4.91149,-0.44681c-3.02956,-0.62776 -6.00868,-1.77333 -9.26447,-2.64923c-4.91504,-1.3223 -7.75773,-1.75212 -12.68905,-3.0123c-5.08069,-1.29835 -4.22276,2.37959 -7.31716,2.62118c-1.82817,0.14273 -5.48845,-2.09195 -5.48845,-2.09195z" fill="#fff9f9"/><path d="M213.01013,323.50157c0,0 3.36309,0.9496 5.56635,2.78342c1.10628,0.92079 1.32804,1.87223 1.87736,2.94361c0.64635,1.26061 1.67827,2.62042 4.14132,3.31083c6.89432,1.93251 13.46508,-1.63573 18.76659,-2.3271c7.07932,-0.92322 11.34082,-0.46788 11.34082,-0.46788c0,0 -1.45978,1.0719 -2.92674,2.69445c-1.62165,1.79364 -4.45581,4.23155 -8.11522,6.0031c-6.40411,3.10029 -16.67655,5.09729 -24.35606,1.12586c-11.10823,-5.74458 -6.2944,-16.06629 -6.2944,-16.06629z" fill="#fff9f9"/><path d="M227.30479,327.54059c8.45304,1.25538 16.59379,0.97504 16.59379,0.97504c0,0 -2.96185,0.39255 -5.24201,1.04318c-4.32239,1.34466 -9.64779,1.88864 -12.20723,1.25596c-2.37869,-0.41579 -4.26045,-1.23296 -4.65909,-2.75178c-0.06179,-0.23543 -0.14032,-0.49756 -0.12915,-0.7509c0.02719,-0.61698 0.26829,-1.18182 0.26829,-1.18182c0,0 3.15381,1.0804 5.3754,1.41033z" fill="#fff9f9"/><path d="M223.60686,324.68151c0,0 -0.18659,-0.34961 -0.06234,-0.77257c0.35965,-1.22427 1.67408,-1.58003 2.87817,-1.25977c1.17429,0.31233 3.39898,0.86333 5.95885,1.45391c1.79667,0.41451 3.78991,0.81643 5.56549,1.30714c3.63927,1.00577 6.85313,2.35579 6.85313,2.35579c0,0 -10.0303,-0.73991 -14.44779,-1.26615c-3.14068,-0.37414 -6.7455,-1.81834 -6.7455,-1.81834z" fill="#fff9f9"/></g><g stroke="none" stroke-width="0" stroke-linecap="butt"><path d="M346.9706,326.60467c0,0 9.51388,-2.21707 11.62602,-3.02986c1.20869,-0.46512 4.17066,-0.35595 5.89582,-0.11882c4.17096,0.57329 7.92856,1.51532 7.92856,1.51532c0,0 4.64975,-1.35859 8.12189,-0.29146c0.59524,0.18294 12.83838,5.06735 12.83838,5.06735c0,0 -0.02999,0.89397 -2.35197,3.28563c-3.90183,4.0189 -11.64207,5.70432 -20.09359,5.92089c-3.9367,0.10087 -10.35812,-1.38808 -15.19276,-4.36454c-5.25503,-3.23529 -8.77235,-7.98451 -8.77235,-7.98451z" fill="#000000"/><path d="M357.672,325.93569c1.88194,-0.60089 4.3886,-0.37456 6.02471,-0.26505c1.44293,0.0966 4.37768,0.47915 8.49233,1.18836c1.70155,0.29328 4.79602,-1.16273 6.48912,-0.84105c1.95156,0.37078 3.47355,0.47043 4.93834,1.03479c2.71,1.04411 3.07356,1.42505 3.07356,1.42505c0,0 -3.97336,-0.59494 -7.76055,-0.13887c-2.55977,0.30827 -4.45094,1.38315 -6.62704,1.23749c-2.63857,-0.17663 -4.74718,-1.15585 -8.60739,-1.92424c-5.26839,-1.04867 -10.81828,-0.7327 -10.81828,-0.7327c0,0 1.6274,0.02767 4.79519,-0.98378z" fill="#ffffff"/><path d="M363.53934,329.29131c2.9473,0.78832 8.6418,2.69329 8.6418,2.69329c0,0 6.40326,-1.8714 9.33542,-1.98796c3.42203,-0.13603 10.17567,0.33623 10.17567,0.33623c0,0 -9.03716,6.62304 -21.12765,5.66839c-13.28777,-1.04919 -19.52181,-7.17838 -19.52181,-7.17838c0,0 10.57147,-0.04648 12.49657,0.46844z" fill="#ffffff"/></g><g stroke="none" stroke-width="0" stroke-linecap="butt"><path d="M353.94231,309.64019c2.79727,-1.55802 5.61595,-3.44258 7.28875,-3.34325c2.12416,0.12612 9.12548,2.45061 9.12548,2.45061c0,0 5.9801,-2.33928 7.95062,-1.7611c4.83497,1.41868 10.90863,7.3596 10.90863,7.3596c0,0 -7.20592,10.49664 -20.52165,10.0059c-11.05681,-0.4075 -20.13927,-12.04532 -20.13927,-12.04532c0,0 2.70122,-1.17025 5.38746,-2.66644z" fill="#000000"/><path d="M352.73073,311.93669c0,0 1.76226,-0.56293 3.34428,-1.33093c1.80532,-0.87639 3.29432,-2.1725 4.94214,-2.34035c2.49289,-0.25393 10.00463,2.49862 10.00463,2.49862c0,0 4.36078,-2.57562 6.61137,-2.16448c2.60481,0.47586 7.21844,4.59902 7.21844,4.59902c0,0 -9.80133,-0.42261 -15.16483,-0.63333c-5.34337,-0.20993 -16.95602,-0.62857 -16.95602,-0.62857z" fill="#ffffff"/><path d="M351.64727,313.20284c0,0 5.51985,-0.05151 10.74519,0.7791c3.17828,0.50522 5.92637,2.01939 8.18505,2.09813c2.34443,0.08174 4.93564,-1.34666 7.81733,-1.70022c3.9758,-0.48779 7.98629,0.03388 7.98629,0.03388c0,0 -2.71135,6.87717 -16.06043,6.69185c-13.09955,-0.18186 -18.67343,-7.90276 -18.67343,-7.90276z" fill="#ffffff"/></g><g stroke="none" stroke-width="0" stroke-linecap="butt"><path d="M370.53663,375.98706c-20.47082,-0.96733 -28.12554,-13.53242 -28.12554,-13.53242c0,0 2.71653,-0.392 6.83493,-1.48531c2.68329,-0.71233 6.06014,-2.11619 9.33015,-2.54995c3.71397,-0.49265 12.65415,2.07887 12.65415,2.07887c0,0 7.5665,-1.16041 10.18145,-1.08951c2.39628,0.06497 5.64275,1.6353 8.90641,2.98476c3.53996,1.46371 7.00957,2.71287 7.00957,2.71287c0,0 -5.32595,11.895 -26.79112,10.88068z" fill="#000000"/><path d="M371.9241,373.04902c-15.77972,-0.36519 -24.43022,-8.69086 -24.43022,-8.69086c0,0 3.9868,-0.27736 9.50817,-0.09058c4.76849,0.16132 15.54374,3.40002 15.54374,3.40002c0,0 11.11871,-2.20647 13.74432,-2.09914c2.70676,0.11064 8.07969,0.70579 8.07969,0.70579c0,0 -5.42289,7.16873 -22.44569,6.77477z" fill="#ffffff"/><path d="M349.61528,362.37367c0,0 7.29129,-2.23856 11.42178,-2.16673c3.68922,0.06416 12.18725,2.57732 12.18725,2.57732c0,0 4.39278,-2.00972 7.93755,-1.63684c4.91015,0.3125 8.82829,3.34764 8.82829,3.34764c0,0 -4.74465,-1.06146 -9.01849,-0.87689c-2.70823,0.11695 -7.40519,1.97181 -7.40519,1.97181c0,0 -7.27253,-2.14503 -11.23099,-2.67659c-4.02418,-0.54039 -12.7202,-0.53971 -12.7202,-0.53971z" fill="#ffffff"/></g><g stroke="none" stroke-width="0" stroke-linecap="butt"><path d="M369.4773,358.77258c-14.11406,-0.57673 -23.55776,-13.10955 -23.55776,-13.10955c0,0 12.40264,-7.32549 15.47069,-7.24366c1.48315,0.03956 10.59697,4.54523 10.59697,4.54523c0,0 5.24471,-4.04361 7.45385,-4.14394c2.85203,-0.12952 13.98828,8.41946 13.98828,8.41946c0,0 -8.5128,12.16335 -23.95203,11.53246z" fill="#000000"/><path d="M351.73506,344.45558c0,0 8.38777,-3.74185 9.8568,-3.59773c1.966,0.19287 9.51182,4.53413 9.51182,4.53413c0,0 6.53617,-4.05197 8.80719,-3.90832c2.9853,0.18883 7.35796,4.30259 7.35796,4.30259c0,0 -6.37904,-0.84877 -9.33247,-0.69854c-1.15069,0.05853 -5.76786,2.57382 -6.97561,2.64064c-1.49148,0.12928 -6.68247,-3.02925 -9.05931,-3.55791c-4.79232,-1.06592 -10.16638,0.28515 -10.16638,0.28515z" fill="#ffffff"/><path d="M350.01013,346.55015c0,0 8.0717,-0.46476 11.6477,-0.04396c1.97995,0.23299 6.7076,3.14283 9.30931,3.28094c1.08238,0.05746 6.52917,-2.34345 7.87252,-2.31503c4.80329,0.1016 11.09052,1.19727 11.09052,1.19727c0,0 -9.90742,7.72871 -20.25573,7.24475c-11.74594,-0.54932 -19.66433,-9.36396 -19.66433,-9.36396z" fill="#ffffff"/></g><g stroke="#000000" stroke-width="0" stroke-linecap="butt"><path d="M304.23436,311.13893c1.17629,-2.60589 4.21646,-5.30805 6.78789,-5.30534c2.07818,0.0022 5.84922,1.95166 8.88283,3.16492c2.06514,0.82593 4.9853,2.05165 6.4618,2.62634c2.58157,1.00482 4.32702,-2.79979 6.95829,-1.93343c1.29896,0.42769 3.61649,1.86912 6.08709,3.57802c3.10995,2.15114 6.10451,4.38213 6.10451,4.38213c0,0 -9.31847,13.2344 -22.73836,17.06466c-6.25944,1.78655 -13.03074,1.45219 -17.4577,-1.99728c-2.55253,-1.98892 -4.32567,-5.34724 -4.77194,-9.07386c-0.2182,-1.82204 0.08248,-3.42791 0.71162,-4.49611c0.91708,-1.55709 2.34649,-2.1574 2.34649,-2.1574c0,0 -0.54879,-3.24677 0.62749,-5.85266z" fill="#000000"/><path d="M305.82312,316.45535c0,0 -0.10115,-1.59252 0.8994,-3.32112c1.26847,-2.19148 3.51453,-4.9063 5.82532,-4.56756c1.09607,0.16068 15.54814,5.31493 15.54814,5.31493c0,0 3.84046,-2.01597 5.95119,-1.49508c2.11073,0.52089 7.71835,4.61882 7.71835,4.61882c0,0 -7.65405,0.06974 -12.79115,-0.10304c-4.92904,-0.16578 -12.11179,-1.97883 -14.79659,-2.06132c-2.6919,-0.08271 -3.41226,1.77451 -5.24993,1.99733c-1.7637,0.21384 -3.10473,-0.38296 -3.10473,-0.38296z" fill="#fff9f9"/><path d="M305.01186,318.64159c0,0 1.25048,0.21113 2.28284,0.64249c0.86773,0.36257 1.13381,1.10243 1.49729,1.89016c1.2313,2.66848 3.27196,3.74362 6.21032,3.79759c2.32316,0.04267 6.94366,-0.88576 11.45404,-2.14231c2.57605,-0.71767 5.005,-1.70913 7.22981,-2.26739c4.52139,-1.13452 8.28559,-1.17804 8.28559,-1.17804c0,0 -13.30533,14.26548 -26.39992,14.02497c-6.69682,-0.12301 -12.36696,-4.33496 -12.29376,-11.03252c0.03076,-2.81395 1.73378,-3.73494 1.73378,-3.73494z" fill="#fff9f9"/><path d="M315.66014,320.45616c4.71885,0.33033 11.58224,0.32408 11.58224,0.32408c0,0 -9.55976,2.75532 -12.5939,2.54293c-3.74055,-0.31712 -4.10912,-3.52658 -4.10912,-3.52658c0,0 3.19734,0.52494 5.12079,0.65958z" fill="#fff9f9"/><path d="M310.95185,318.39409c0,0 1.74566,-2.08293 3.62999,-2.06249c0.82671,0.00897 3.83357,0.86266 7.44021,1.37818c1.46277,0.20909 3.3936,0.7336 5.34245,0.89333c2.80425,0.22986 4.56895,0.13114 4.56895,0.13114c0,0 -2.07428,0.81085 -4.98044,1.03608c-2.44361,0.18938 -5.5423,-0.19147 -7.82891,-0.27276c-3.22494,-0.11467 -8.17225,-1.10347 -8.17225,-1.10347z" fill="#fff9f9"/></g><g stroke="none" stroke-linecap="butt"><path d="M319.27272,161.29423c-12.87089,-0.65633 -20.55342,-14.32229 -20.55342,-14.32229c0,0 3.32513,-1.19713 6.59378,-2.4882c2.51899,-0.99496 5.14126,-2.44089 7.2635,-2.44089c2.20534,0 8.48481,0.92191 8.48481,0.92191c0,0 6.29699,-1.20418 8.91756,-0.49774c3.61741,0.97516 11.98624,5.99295 11.98624,5.99295c0,0 -5.75625,13.6979 -22.69247,12.83426z" fill="#000000" stroke-width="NaN"/><path d="M313.51615,149.44114c3.14433,0.48615 8.19909,1.83394 8.19909,1.83394c0,0 4.06432,-1.09778 6.64398,-1.38523c3.14421,-0.35035 10.86498,-0.56576 10.86498,-0.56576c0,0 -6.98824,10.42001 -18.90967,9.55488c-12.20204,-0.88548 -18.65955,-10.70547 -18.65955,-10.70547c0,0 8.35767,0.72595 11.86117,1.26764z" fill="#ffffff" stroke-width="0"/><path d="M304.75654,146.7728c0,0 4.85732,-2.17602 7.78081,-2.57228c2.56589,-0.34779 8.82769,0.32112 8.82769,0.32112c0,0 5.56194,-0.77533 7.98818,-0.31611c2.80474,0.53087 7.86993,3.31764 7.86993,3.31764c0,0 -5.23954,-0.03854 -7.80883,0.12356c-2.70932,0.17094 -8.04929,0.87696 -8.04929,0.87696c0,0 -4.9425,-0.70804 -7.65982,-0.99451c-2.81537,-0.2968 -8.94868,-0.75639 -8.94868,-0.75639z" fill="#ffffff" stroke-width="0"/></g><g stroke-width="0" stroke-linecap="butt"><path d="M303.97971,341.47907c0,0 -1.34541,-6.66719 4.04948,-8.61909c7.90226,-2.85908 18.07319,4.92117 18.07319,4.92117c0,0 4.6769,-3.96319 7.3291,-3.04376c1.50873,0.52303 4.23996,2.35887 6.51371,4.30186c3.09552,2.64521 5.61996,5.48899 5.61996,5.48899c0,0 -6.95454,16.12546 -30.48417,13.06762c-14.17697,-1.8424 -11.10127,-16.11679 -11.10127,-16.11679z" fill="#000000" stroke="#000000"/><path d="M313.71112,354.9084c-8.91049,-2.59043 -7.7851,-12.39129 -7.7851,-12.39129c0,0 1.71485,-0.07886 2.81031,0.42125c1.3381,0.61087 4.20126,2.50854 6.58981,3.74411c0.65134,0.33693 1.66067,0.89291 2.86248,1.08285c1.42616,0.2254 3.09691,0.04127 4.3891,-0.14379c3.47747,-0.49803 8.10738,-1.35566 10.79656,-1.60335c3.26531,-0.30075 9.40123,-0.51677 9.40123,-0.51677c0,0 -3.10672,4.62625 -9.25904,7.38641c-5.76055,2.5844 -14.2614,3.63231 -19.80535,2.02059z" fill="#ffffff" stroke="none"/><path d="M306.38012,340.50593c0,0 -1.93846,-5.47234 4.96823,-6.26453c4.74653,-0.54442 10.67793,2.75473 13.37009,4.45509c0.90909,0.57418 1.99478,0.50262 2.904,-0.00802c1.38364,-0.77708 3.60856,-1.66349 6.03095,-1.1924c4.66158,0.90657 8.21382,5.92927 8.21382,5.92927c0,0 -17.00189,-3.88248 -23.37704,-4.40694c-3.23111,-0.26581 -4.63434,1.21008 -7.11471,1.73108c-1.52866,0.32109 -4.99535,-0.24355 -4.99535,-0.24355z" fill="#ffffff" stroke="none"/><path d="M314.13952,342.22059c0,0 2.45869,-1.24214 6.67554,-0.67826c2.59553,0.34708 14.49343,2.35607 14.49343,2.35607c0,0 -6.65987,0.70382 -10.49049,0.47547c-4.6637,-0.27801 -10.67849,-2.15328 -10.67849,-2.15328z" fill="#ffffff" stroke="none"/><path d="M317.92353,345.39772c-2.70316,-0.45908 -4.31947,-2.42747 -4.31947,-2.42747c0,0 3.92411,0.90599 5.7114,1.21545c1.54474,0.26746 4.46256,0.71225 4.46256,0.71225c0,0 -3.61417,0.88025 -5.85449,0.49977z" fill="#ffffff" stroke="none"/></g><g stroke="#000000" stroke-width="0" stroke-linecap="butt"><path d="M302.5568,110.82353c0,0 5.32668,-3.51215 8.18799,-6.8357c1.66423,-1.9331 4.61131,-5.42713 4.61131,-5.42713l16.01317,-0.56183l3.76272,11.01989c0,0 -7.21331,0.98256 -13.69966,1.44116c-6.93882,0.49058 -18.87553,0.36362 -18.87553,0.36362z" fill="#000000"/><path d="M340.81299,150.16825c0,0 1.35018,-14.22401 1.76835,-25.35505c0.27464,-7.31052 0.25783,-14.32431 0.25783,-14.32431c0,0 -11.86659,-2.15072 -24.17521,-1.86196c-16.19095,0.37984 -28.37752,3.68326 -28.37752,3.68326c0,0 -4.65534,-22.83923 6.43969,-24.71878c11.09402,-1.87938 55.73741,12.59773 55.73741,12.59773l-4.22121,42.71864z" fill="#000000"/><path d="M293.96203,142.90777l-4.22121,-42.71864c0,0 44.64338,-14.47711 55.7374,-12.59773c11.09503,1.87956 6.43969,24.71878 6.43969,24.71878c0,0 -12.18656,-3.30342 -28.37752,-3.68326c-12.30862,-0.28876 -24.17521,1.86196 -24.17521,1.86196c0,0 -0.01681,7.01379 0.25783,14.32432c0.41817,11.13105 1.76835,25.35505 1.76835,25.35505z" fill="#000000"/><path d="M346.72539,155.57588c-3.68142,0.34592 -5.20645,-0.70629 -4.64887,-4.15292c0.74945,-4.6326 1.64657,-8.7613 2.29312,-12.5368c1.1619,-6.78483 1.89106,-12.80545 2.17389,-21.23404c0.23827,-7.10094 0.51686,-17.63185 0.51686,-17.63185l10.46861,-1.68849c0,0 -0.04736,12.21901 -0.83656,19.73835c-0.52815,5.03213 -0.85919,12.48028 -1.91802,19.47756c-0.82979,5.48372 -1.85408,10.3319 -2.74182,13.5616c-0.88774,3.22969 -1.2736,4.08758 -5.3072,4.46659z" fill="#654779"/><path d="M290.17175,151.1093c-0.88774,-3.22969 -1.91202,-8.07788 -2.74182,-13.5616c-1.05883,-6.99728 -1.38986,-14.44543 -1.91801,-19.47756c-0.7892,-7.51934 -0.83656,-19.73835 -0.83656,-19.73835l10.4686,1.68849c0,0 0.27858,10.53091 0.51686,17.63185c0.28281,8.4286 1.01199,14.44922 2.17389,21.23404c0.64655,3.7755 1.54367,7.90419 2.29312,12.5368c0.55759,3.44663 -0.96744,4.49884 -4.64886,4.15292c-4.03361,-0.37902 -4.41947,-1.23689 -5.30721,-4.46659z" fill="#654779"/><path d="M346.72539,155.57588c-3.68142,0.34592 -5.20645,-0.70629 -4.64886,-4.15292c0.74945,-4.6326 1.64658,-8.7613 2.29313,-12.5368c1.1619,-6.78483 1.89106,-12.80545 2.17388,-21.23404c0.23827,-7.10094 0.51686,-17.63185 0.51686,-17.63185l10.46861,-1.68849c0,0 -0.02085,5.37949 -0.26542,11.19622c-0.02831,0.67308 -0.0942,2.02912 -0.0942,2.02912c0,0 -2.17213,-0.8841 -3.27594,-1.16177c-1.12798,-0.28375 -3.42099,-0.52287 -3.42099,-0.52287c0,0 0.1296,6.36343 -0.65026,15.36769c-0.76488,8.83123 -3.11858,19.93578 -2.75286,23.25769c0.6654,6.04394 5.78077,-0.6647 5.78077,-0.6647c0,0 -0.55414,2.31797 -0.8175,3.27612c-0.88774,3.22969 -1.27361,4.08758 -5.30721,4.46659z" fill="#53305f"/><path d="M290.17175,151.1093c-0.26336,-0.95815 -0.8175,-3.27612 -0.8175,-3.27612c0,0 5.11539,6.70864 5.78078,0.6647c0.36573,-3.32192 -1.98798,-14.42647 -2.75286,-23.25769c-0.77987,-9.00426 -0.65026,-15.36769 -0.65026,-15.36769c0,0 -2.29302,0.23913 -3.421,0.52287c-1.1038,0.27767 -3.27593,1.16177 -3.27593,1.16177c0,0 -0.0659,-1.35605 -0.0942,-2.02912c-0.24457,-5.81673 -0.26542,-11.19622 -0.26542,-11.19622l10.4686,1.68849c0,0 0.27858,10.53091 0.51686,17.63185c0.28281,8.4286 1.01199,14.44922 2.17389,21.23404c0.64655,3.7755 1.54367,7.90419 2.29312,12.5368c0.55759,3.44663 -0.96744,4.49884 -4.64886,4.15292c-4.03361,-0.37902 -4.41947,-1.23689 -5.30721,-4.46659z" fill="#53305f"/><g fill="#566580"><path d="M280.92854,96.91413c0.26036,-4.40812 0.67492,-21.39601 0.89558,-30.97661c0.0908,-3.94268 1.17378,-6.99141 4.8602,-7.9672c5.93187,-1.57018 12.10147,-3.6916 22.94637,-4.58263c14.30757,-1.17553 30.42694,1.15215 30.42694,1.15215l1.85733,49.00567c0,0 -7.58617,-1.97109 -23.83985,-1.6803c-16.16887,0.88646 -25.13636,2.66338 -32.74522,3.80633c-3.34863,0.503 -4.76969,-2.52129 -4.40135,-8.7574z"/><path d="M356.87446,105.67154c-7.60886,-1.14294 -16.57635,-2.91987 -32.74522,-3.80633c-16.25367,-0.29078 -23.83985,1.50529 -23.83985,1.50529l1.85733,-48.83066c0,0 16.11937,-2.32768 30.42694,-1.15215c10.8449,0.89103 17.01451,3.01245 22.94637,4.58263c3.68643,0.9758 4.76939,4.02452 4.8602,7.9672c0.22066,9.5806 0.63521,26.5685 0.89558,30.97661c0.36834,6.23612 -1.05271,9.2604 -4.40134,8.7574z"/></g><g fill="#3d496d"><path d="M280.92854,96.91413c0.17415,-2.94834 0.41726,-11.52426 0.62521,-19.74748c4.3962,0.81283 8.93976,1.28014 13.35691,1.7167c0.01343,0.00096 0.02688,0.00191 0.04031,0.00286c0.13205,0.05731 0.26429,0.11404 0.39675,0.17021c4.85306,5.10874 10.96957,9.58059 15.24088,12.4767c9.03433,6.12565 19.9481,9.74301 31.28492,10.91896l0.04145,1.09341c0,0 -7.58617,-1.97109 -23.83985,-1.6803c-16.16887,0.88646 -25.13636,2.66338 -32.74522,3.80633c-3.34863,0.503 -4.76969,-2.52129 -4.40135,-8.7574z"/><path d="M281.70763,70.90238c2.69554,2.41859 5.86717,4.37857 9.10743,6.03213c-3.08631,-0.33766 -6.19049,-0.73851 -9.22267,-1.3077c0.04033,-1.61908 0.07901,-3.20948 0.11523,-4.72443z"/><path d="M281.82411,65.93751c0.0908,-3.94268 1.17378,-6.99141 4.8602,-7.9672c0.33112,-0.08764 0.66298,-0.17702 0.99635,-0.26778c-0.34049,2.5953 -0.367,5.26472 -0.00126,8.07848c0.29846,2.29609 1.25396,4.61458 2.64314,6.88801c-3.19044,-1.7872 -6.22874,-3.95289 -8.49955,-6.6832c0.00036,-0.01613 0.00074,-0.03223 0.00111,-0.0483z"/><path d=""/><path d=""/><path d="M356.87446,105.67154c-7.60886,-1.14294 -16.57635,-2.91987 -32.74522,-3.80633c-16.25367,-0.29078 -23.83985,1.50529 -23.83985,1.50529l0.72354,-19.02247c3.40525,2.87036 6.86267,5.34559 9.57566,7.18511c14.08406,9.54958 32.73575,13.00318 50.4372,10.6143c-0.57036,2.65119 -1.94088,3.85614 -4.15133,3.52411z"/></g><g fill="#8395a1"><path d="M340.44245,64.69339l0.11491,3.03219c-2.0455,-1.96982 -3.89111,-4.09796 -6.00492,-6.04412c1.98932,0.96934 3.9667,1.95318 5.89001,3.01193z"/><path d="M340.05763,54.53983l0.25343,6.68688c-5.1964,-2.67983 -10.68706,-4.96809 -15.63451,-8.03056c8.63627,0.36972 15.38108,1.34368 15.38108,1.34368z"/><path d="M346.10344,68.22334c3.9059,2.81187 7.37546,6.61815 10.58298,10.17501c0.4185,0.46386 0.84121,0.92688 1.26699,1.38953c-4.40786,-2.99209 -8.98802,-5.75364 -13.48439,-8.82033c-3.87901,-2.64563 -6.55957,-6.19536 -9.91657,-9.28609c4.01438,1.9561 7.98014,3.9712 11.551,6.54187z"/><path d="M332.57366,53.38768c10.8449,0.89103 17.01451,3.01245 22.94637,4.58263c3.68643,0.9758 4.76939,4.02452 4.8602,7.9672c0.07961,3.45652 0.18445,7.8772 0.2982,12.32344c-0.58403,-0.63209 -1.16341,-1.26453 -1.73541,-1.89853c-3.36184,-3.72453 -6.995,-7.67559 -11.08563,-10.62119c-7.1235,-5.12955 -15.90603,-7.99142 -23.40361,-12.68374c2.69154,0.01255 5.43755,0.10981 8.11989,0.33019z"/></g><g fill="#2c2f5d"><path d="M280.92854,96.91413c0.0676,-1.1446 0.14561,-3.13733 0.2279,-5.6283c6.47791,3.63506 14.68777,4.39151 22.75953,4.42701c5.21948,2.30723 10.56202,4.36911 15.93519,6.1291c-0.58009,0.00478 -1.17208,0.01246 -1.77606,0.02326c-16.16887,0.88646 -25.13636,2.66338 -32.74522,3.80633c-3.34863,0.503 -4.76969,-2.52129 -4.40135,-8.7574z"/><path d="M281.39371,83.27408c2.18214,1.53278 4.3126,3.12973 6.66476,4.46443c2.53142,1.43642 5.12243,2.82233 7.75996,4.14973c-4.27142,-0.2865 -8.19632,-0.85825 -11.66078,-2.39355c-1.00477,-0.44527 -1.97082,-0.97159 -2.89536,-1.59551c0.04363,-1.46479 0.08771,-3.02235 0.13143,-4.62511z"/><path d="M300.28939,103.37049l0.29359,-7.71882c1.11037,0.03776 2.22298,0.05628 3.333,0.06116c5.21266,2.30423 10.54808,4.36373 15.91416,6.12222c-13.29634,0.05704 -19.54074,1.53544 -19.54074,1.53544z"/></g></g><g stroke="none" stroke-width="0" stroke-linecap="butt"><g><path d="M325.42026,138.84274c0,1.02839 0.01192,3.5077 -1.02661,5.2353c-1.32361,2.20183 -4.60639,3.91752 -4.60639,3.91752c0,0 -0.08311,-1.21342 -0.66021,-2.4108c-1.07505,-2.23054 -2.72573,-5.34389 -2.72573,-6.86593c0,-2.33909 2.45758,-4.58529 4.94285,-4.58529c2.48528,0 4.07609,2.37011 4.07609,4.7092z" fill="#000000"/><path d="M320.20304,135.88861c0,0 2.57563,1.70779 2.57563,2.9748c0,1.26701 -1.84874,6.61765 -1.84874,6.61765c0,0 -3.19307,-4.52563 -3.38657,-7.02942c-0.10965,-1.41884 2.65967,-2.56303 2.65967,-2.56303z" fill="#ffffff"/></g><g><path d="M320.06028,149.73057c0,0 -1.16564,-5.18685 -1.53706,-12.24885c-0.23101,-4.3923 -0.23915,-10.40252 -0.40532,-12.93996c-0.2751,-4.20066 -1.15623,-9.00697 -1.15623,-9.00697l8.34849,-0.85732l0.29909,4.23702c0,0 -0.44176,2.14039 -0.53175,3.50181c-0.19148,2.89698 -0.73899,13.04878 -0.73899,13.04878c0,0 0.08268,1.876 0.02764,3.88788c-0.04773,1.74452 -0.05744,3.60231 -0.08974,4.7829c-0.05508,2.01356 -0.26572,5.94736 -0.26572,5.94736z" fill="#000000"/><path d="M320.73825,148.42592c0,0 -0.40334,-4.17468 -0.68373,-9.26482c-0.27605,-5.01128 -0.27759,-10.91388 -0.48217,-14.08792c-0.28204,-4.37606 -0.94814,-10.45375 -0.94814,-10.45375l5.23627,-0.49274c0,0 -0.04721,5.22843 -0.15364,8.9359c-0.09747,3.39554 -0.38165,10.51116 -0.57673,16.34676c-0.16665,4.98498 -0.25477,9.0359 -0.25477,9.0359z" fill="#ffffff"/></g></g><g stroke="none" stroke-width="0" stroke-linecap="butt"><path d="M323.76662,378.02605c-13.54404,0.02753 -17.48379,-7.07844 -19.90886,-12.28784c-1.49653,-3.21476 -2.28595,-5.81606 -2.28595,-5.81606c0,0 8.20567,-7.57815 12.99432,-7.3402c2.27094,0.11284 10.16563,2.32609 10.16563,2.32609c0,0 6.81104,-2.28416 9.80738,-1.25444c3.85358,1.32432 10.66904,8.17765 10.66904,8.17765c0,0 -0.99219,2.19225 -2.06762,4.52118c-2.29773,4.97593 -6.93205,11.64833 -19.37394,11.67362z" fill="#000000"/><path d="M304.56108,361.52965c0,0 2.46238,-0.75995 4.8114,0.28149c4.13445,1.83301 4.57056,5.81723 13.76138,6.03676c10.71572,0.25596 9.12111,-3.49872 13.44166,-5.13734c2.623,-0.9948 5.65224,-0.37139 5.65224,-0.37139c0,0 -1.75011,6.32186 -7.73014,10.15073c-2.69997,1.72873 -6.71716,2.75971 -11.03176,2.80165c-2.84473,0.02765 -5.7644,-0.10889 -7.85692,-0.89006c-4.25247,-1.58752 -6.5213,-4.53461 -8.18519,-7.2086c-1.86919,-3.00394 -2.86266,-5.66324 -2.86266,-5.66324z" fill="#ffffff"/><path d="M304.70393,359.57727c0,0 6.14067,-4.49506 10.21601,-4.97699c3.58151,-0.42353 9.64114,2.35794 9.64114,2.35794c0,0 6.21226,-2.10445 9.36012,-1.59879c4.08173,0.65568 7.63988,5.31308 7.63988,5.31308c0,0 -11.66076,-0.62515 -17.61926,-0.80221c-6.30735,-0.18743 -19.23788,-0.29303 -19.23788,-0.29303z" fill="#ffffff"/><path d="M333.75155,362.24392c0,0 -3.36518,3.56124 -9.14363,3.57041c-7.60606,0.01207 -11.04685,-3.90374 -11.04685,-3.90374l2.09524,0.09524c0,0 3.42067,2.46236 8.32898,2.48933c4.79902,0.02636 7.90912,-2.29885 7.90912,-2.29885z" fill="#ffffff"/></g><g stroke="none" stroke-width="0" stroke-linecap="butt"><path d="M418.86756,355.98999c-5.11346,-0.46836 -13.05067,-1.7352 -17.69717,-6.84923c-4.64967,-5.11752 -4.03902,-11.3867 -4.03902,-11.3867c0,0 2.60607,-0.57777 5.46153,-1.65641c3.43183,-1.29637 7.41593,-3.12415 10.22572,-2.98522c2.00893,0.09933 7.50276,2.33348 7.50276,2.33348c0,0 5.31802,-2.28951 7.50112,-1.79743c3.61168,0.81408 12.47877,6.22303 12.47877,6.22303c0,0 -0.36043,2.55322 -1.53656,5.56508c-2.00217,5.12719 -6.86031,11.74752 -19.89714,10.55341z" fill="#000000"/><path d="M402.01445,337.84047c0,0 1.80071,-0.60393 3.69282,-1.29762c2.0859,-0.76474 4.34803,-1.62928 5.91177,-1.70252c3.15835,-0.14793 8.93383,2.48159 8.93383,2.48159c0,0 5.26284,-2.04131 7.66666,-1.71513c2.47705,0.33612 7.19865,3.48687 7.19865,3.48687c0,0 -6.03414,0.31521 -10.06005,0.17856c-1.36142,-0.04621 -2.53375,-0.75967 -5.49628,-0.78701c-2.55521,-0.02358 -4.80827,0.56428 -7.21918,0.43271c-5.58671,-0.30489 -10.62822,-1.07744 -10.62822,-1.07744z" fill="#ffffff"/><path d="M419.17007,353.87255c-10.6978,-0.1953 -15.67908,-4.38275 -17.87935,-8.15561c-1.83937,-3.15402 -1.69618,-6.01829 -1.69618,-6.01829c0,0 7.30317,0.3676 10.08038,1.13537c1.8082,0.49989 3.11169,5.23447 10.57064,5.51593c7.05263,0.26613 6.5914,-4.01377 9.27458,-4.86854c2.06643,-0.6583 8.27479,-0.31352 8.27479,-0.31352c0,0 -0.70918,13.03172 -18.62485,12.70465z" fill="#ffffff"/></g><g stroke="none" stroke-width="0" stroke-linecap="butt"><path d="M419.01337,333.37901c-24.31572,-0.6068 -21.26194,-20.03405 -21.26194,-20.03405c0,0 2.56937,-0.77227 6.62109,-2.17056c2.68852,-0.92784 6.60846,-2.71006 8.76999,-2.6317c2.21803,0.08041 7.87488,2.12393 7.87488,2.12393c0,0 4.44269,-2.15008 7.37244,-1.54859c3.60754,0.74065 12.144,5.77795 12.144,5.77795c0,0 1.6934,19.06233 -21.52045,18.48303z" fill="#000000"/><path d="M419.20724,331.50486c-20.42602,0.04237 -19.00003,-16.22112 -19.00003,-16.22112c0,0 2.54668,-0.24383 6.32592,0.46719c4.48671,0.84412 5.05301,8.01477 12.67433,8.25231c8.80954,0.27458 8.6326,-6.5971 12.92122,-7.13648c3.41425,-0.42941 6.27248,-0.09663 6.27248,-0.09663c0,0 0.33189,14.69422 -19.19391,14.73472z" fill="#ffffff"/><path d="M402.72763,313.28032c0,0 2.22082,-0.59721 4.56969,-1.41126c2.03285,-0.70453 4.11294,-1.63637 5.52278,-1.69679c2.99217,-0.12824 7.93817,2.52642 7.93817,2.52642c0,0 5.00901,-2.0152 7.44048,-1.67664c2.6544,0.3696 7.682,3.42154 7.682,3.42154c0,0 -4.04463,0.45598 -8.59546,0.43627c-1.89723,-0.00822 -3.82672,-0.60366 -5.7443,-0.70366c-3.09648,-0.16147 -6.05802,0.13785 -8.02519,0.06882c-4.27957,-0.15016 -10.78817,-0.9647 -10.78817,-0.9647z" fill="#ffffff"/></g><g stroke="none" stroke-width="0" stroke-linecap="butt"><path d="M418.7135,375.46495c-10.98237,-0.35523 -16.93414,-5.10743 -19.88134,-9.49727c-2.55492,-3.80554 -2.79509,-7.35297 -2.79509,-7.35297c0,0 3.99247,-1.2624 7.80246,-2.57952c2.79895,-0.9676 5.4387,-1.95113 7.56186,-1.8573c2.36138,0.10435 10.16074,2.65489 10.16074,2.65489c0,0 4.88266,-2.75407 7.50602,-2.17479c3.72498,0.82253 12.43601,6.12726 12.43601,6.12726c0,0 -1.22292,15.37732 -22.79066,14.6797z" fill="#000000"/><path d="M398.72171,360.44252c0,0 2.28271,0.22212 5.1513,0.41022c2.36954,0.15538 5.06626,0.21498 7.8483,0.74894c2.16473,0.41548 5.91639,3.33152 9.27105,3.42845c3.32047,0.09595 5.56864,-2.01023 8.80133,-2.82138c3.92251,-0.98424 9.25436,-0.7952 9.25436,-0.7952c0,0 -0.11151,10.86809 -18.7923,10.90981c-19.52636,0.04361 -21.53403,-11.88084 -21.53403,-11.88084z" fill="#ffffff"/><path d="M401.86328,358.50047c0,0 7.03984,-2.3419 10.33862,-2.3419c3.12755,0 8.96776,2.3419 8.96776,2.3419c0,0 5.127,-2.11778 7.55604,-1.87946c2.60429,0.25552 7.58061,3.36457 7.58061,3.36457c0,0 -9.55203,0.59658 -14.96126,0.36335c-6.00867,-0.25908 -19.48177,-1.84846 -19.48177,-1.84846z" fill="#ffffff"/></g><text transform="translate(196.28399,57.1819) scale(0.5,0.5)" font-size="40" xml:space="preserve" fill="#9966ff" fill-rule="nonzero" stroke="none" stroke-width="1" stroke-linecap="butt" stroke-linejoin="miter" stroke-miterlimit="10" stroke-dasharray="" stroke-dashoffset="0" font-family="Sans Serif" font-weight="normal" text-anchor="start" style="mix-blend-mode: normal"><tspan x="0" dy="0">too lazy to do the body rn</tspan></text><path d="M29.93545,218.35288v-50.82975h30.59198v50.82975z" fill="url(#color-1)" stroke="none" stroke-width="0" stroke-linecap="butt"/><path d="M69.94034,210.35191v-65.41977h62.12525v65.41977z" fill="#8395a1" stroke="none" stroke-width="0" stroke-linecap="butt"/><path d="M78.41196,212.70514v-58.36008h63.06654v58.36008z" fill="#566580" stroke="none" stroke-width="0" stroke-linecap="butt"/><path d="M85.00101,217.41159v-55.53621h60.24266v55.53621z" fill="#3d496d" stroke="none" stroke-width="0" stroke-linecap="butt"/><path d="M92.06069,224.47128v-53.65362h58.83073v53.65362z" fill="#2c2f5d" stroke="none" stroke-width="0" stroke-linecap="butt"/><path d="M159.83369,201.40964v-58.36008h63.53718v58.36008z" fill="#8c82a1" stroke="none" stroke-width="0" stroke-linecap="butt"/><path d="M168.30531,207.05739v-55.06556h58.83073v55.06556z" fill="#705d86" stroke="none" stroke-width="0" stroke-linecap="butt"/><path d="M175.83565,214.58772v-54.12427h58.36008v54.12427z" fill="#654779" stroke="none" stroke-width="0" stroke-linecap="butt"/><path d="M186.6605,222.5887v-51.30039h55.53621v51.30039z" fill="#53305f" stroke="none" stroke-width="0" stroke-linecap="butt"/></g></g></svg>