<svg version="1.1" xmlns="http://www.w3.org/2000/svg" xmlns:xlink="http://www.w3.org/1999/xlink" width="439.51652" height="330.96205" viewBox="0,0,439.51652,330.96205"><defs><linearGradient x1="242.94892" y1="134.13595" x2="242.94892" y2="180.13594" gradientUnits="userSpaceOnUse" id="color-1"><stop offset="0" stop-color="#000000"/><stop offset="1" stop-color="#919191"/></linearGradient><linearGradient x1="134.16729" y1="176.80253" x2="134.16729" y2="293.50903" gradientUnits="userSpaceOnUse" id="color-2"><stop offset="0" stop-color="#000000"/><stop offset="1" stop-color="#646464"/></linearGradient></defs><g transform="translate(-20.24174,-14.89363)"><g data-paper-data="{&quot;isPaintingLayer&quot;:true}" fill-rule="nonzero" stroke-linejoin="miter" stroke-miterlimit="10" stroke-dasharray="" stroke-dashoffset="0" style="mix-blend-mode: normal"><g><path d="M349.66867,70.5444c-21.49433,10.00426 -59.1,0 -59.1,0c0,0 -6.28914,3.5742 -6.93294,-0.49684c-0.72855,-4.60696 -2.14701,-11.10246 -1.93059,-12.85361c0.08243,-0.66699 -1.62178,-4.33144 -1.62178,-4.33144c0,0 1.79592,-13.34663 2.57426,-17.49222c0.44336,-2.36141 1.68671,-5.5598 1.68671,-5.5598c0,0 -0.80803,1.26308 -0.76372,0.85622c0.10246,-0.94084 3.2069,-3.1191 5.80546,-4.07261c3.822,-1.40243 6.67557,-2.75807 6.66485,-2.90069c-0.08968,-1.19298 -9.38592,6.34609 -9.04058,5.4243c0.34466,-0.92 9.64388,-7.88318 13.08008,-8.95648c4.41066,-1.37768 8.49725,-1.63844 8.61637,-1.77522c1.27265,-1.46133 -5.56325,1.55188 -5.46272,1.42797c0.92746,-1.14317 15.87581,-4.98256 16.67459,-4.91958c1.11234,0.08771 18.86886,8.38346 18.48498,8.84166c-0.10074,0.12025 -10.58047,-5.38045 -10.65681,-4.75862c-0.02159,0.17585 8.2266,3.51572 15.61506,5.98865c6.39362,2.13995 9.31381,4.4911 9.62138,4.95551c0.4362,0.65863 0.97064,-0.2517 0.97064,-0.2517c0,0 1.70375,3.1387 1.58539,4.97447c-0.13444,2.08526 -1.13785,10.07315 -1.37844,12.90522c-0.05252,0.61834 0.24334,10.45122 0.24334,10.45122c0,0 -1.63154,2.59663 -1.77871,3.19491c-0.14717,0.59828 -1.91578,8.86415 -2.95683,9.34869z" fill="#000000" stroke="#4b331e" stroke-width="0" stroke-linecap="round"/><path d="M288.62204,71.8657c-0.57709,-7.29323 0.335,-17.15448 0.335,-17.15448c0,0 -1.33941,-14.54124 9.16429,-17.64424c12.89951,-3.8108 26.04546,5.55409 37.32134,4.30659c12.27677,-0.98644 9.5696,17.54115 8.91888,29.14792c-0.42163,5.66922 -2.53327,9.49969 -3.15031,12.52053c-0.61704,3.02084 -0.4096,6.13662 -2.20622,16.0397c-1.12121,6.18021 -4.16183,8.92466 -10.01942,14.66081c-5.85759,5.73616 -9.05378,9.25275 -13.01359,9.32173c-3.81077,0.06639 -8.93565,-5.1002 -13.93542,-10.38244c-5.32393,-5.62474 -8.87489,-8.47713 -9.71551,-15.13975c-0.75707,-6.00039 -0.77653,-9.90853 -1.12266,-15.24835c-0.25298,-3.90273 -2.26119,-6.44504 -2.57636,-10.42801z" fill="#ffffff" stroke="#000000" stroke-width="1.5" stroke-linecap="butt"/><path d="M290.32171,81.98892c0,0 -4.93211,-3.51705 -6.16417,-8.97502c-1.29636,-5.74284 -1.46118,-9.7328 0.48013,-9.99193c1.94131,-0.25915 2.70321,2.37692 3.73262,8.35569c1.0294,5.97877 1.95143,10.61127 1.95143,10.61127z" data-paper-data="{&quot;index&quot;:null}" fill="#ffffff" stroke="#000000" stroke-width="1" stroke-linecap="butt"/><path d="M290.11909,78.04135c0,0 -3.56385,-2.92338 -4.31816,-8.45061c-0.42079,-3.08327 2.15675,-2.28016 2.15675,-2.28016" fill="none" stroke="#000000" stroke-width="0.25" stroke-linecap="round"/><path d="M344.55485,71.37765c1.0294,-5.97877 1.7913,-8.61483 3.73262,-8.35569c1.94131,0.25914 1.77649,4.24909 0.48013,9.99193c-1.23206,5.45797 -6.16417,8.97502 -6.16417,8.97502c0,0 0.92203,-4.6325 1.95143,-10.61127z" data-paper-data="{&quot;index&quot;:null}" fill="#ffffff" stroke="#000000" stroke-width="1" stroke-linecap="butt"/><path d="M344.96736,67.31059c0,0 2.57754,-0.80312 2.15675,2.28016c-0.75431,5.52723 -4.31816,8.45061 -4.31816,8.45061" data-paper-data="{&quot;index&quot;:null}" fill="none" stroke="#000000" stroke-width="0.25" stroke-linecap="round"/><path d="M317.85563,37.07227c0,0 9.00633,1.81723 14.34829,2.97427c2.61822,0.56709 6.23997,-0.07922 8.69881,0.6942c3.37554,1.06176 5.21351,3.49104 5.21351,3.49104c0,0 0.82064,7.54191 0.29924,11.44057c-0.28109,2.10178 -1.80451,1.63679 -2.12964,1.77012c-0.7901,0.32402 -1.52266,-11.83444 -2.55388,-11.42292c-2.67253,1.06651 -6.07097,2.13613 -14.20708,1.7017c-5.4569,-0.53356 -13.55151,-6.63233 -13.55151,-6.63233c0,0 1.34361,2.18439 2.90488,3.67131c1.42658,1.35864 -4.08097,0.50312 -4.08097,0.50312c0,0 -0.22284,-1.39854 -2.69481,-2.84903c-1.81134,-1.06286 -1.57481,2.88042 -2.06529,5.55178c-0.35766,1.94798 -1.66381,2.75139 -1.66381,2.75139c0,0 -2.70673,-9.16654 -5.52188,-6.74703c-2.25972,1.94214 -4.94865,4.13305 -6.26972,5.72065c-2.27704,2.73644 -7.11225,12.07807 -7.11225,12.07807c0,0 0.05202,-8.67704 0.78456,-14.43937c0.0316,-0.24861 -0.02474,-1.69949 0.01554,-1.94924c0.87853,-5.44624 4.40693,-9.22064 6.61129,-10.90836c4.48883,-3.43676 21.77321,1.67583 21.77321,1.67583z" fill="#000000" stroke="#4b331e" stroke-width="0" stroke-linecap="round"/></g><path d="M336.96561,104.16316c0,4.22077 -4.52123,6.04251 -7.47038,8.907c-3.32164,3.22628 -6.18948,10.2918 -13.77128,10.2918c-9.44012,0 -13.14103,-9.46465 -16.79203,-14.26477c-1.88475,-2.47796 -5.31392,-3.64988 -5.31392,-6.70546c0,-2.54563 -2.98074,-0.32597 -1.31659,-2.47092c0.6849,-0.88278 1.79911,-1.28323 1.79911,-1.28323c0,0 1.14397,-0.13585 2.12992,-1.56088c0.56262,-0.81318 1.17054,-1.00954 1.89165,-1.41533c0.78768,-0.44325 2.70067,-1.06937 2.70067,-1.06937c0,0 2.38581,-0.16565 3.07567,-0.41847c0.46743,-0.1713 2.80282,-0.47348 5.30739,-0.9116c3.06822,-0.53672 5.96175,-0.04719 6.41456,-0.04719c0.52647,0 4.00102,-0.13695 7.46,0.60666c1.65262,0.35528 4.68747,1.03179 4.68747,1.03179c0,0 2.39426,0.68327 2.72554,0.83985c0.95081,0.44941 1.72516,1.23518 2.53362,2.05077c1.77,1.78561 1.7887,1.44524 1.7887,1.44524c0,0 0.89158,-0.02619 1.61511,0.70865c0.37232,0.37813 0.60773,0.53895 0.89945,0.8799c1.95502,2.28487 1.23533,-2.64599 1.23533,0.12841z" fill="#000000" stroke="none" stroke-width="NaN" stroke-linecap="butt"/><g stroke-linecap="butt"><path d="M250.92291,116.10201c11.51184,0.44621 21.50311,2.71194 25.73875,7.94514c6.81557,8.42075 9.07567,15.15269 9.65016,21.42968c0.35486,3.33261 -1.83395,10.31497 -2.62774,18.55394c-0.7834,8.13111 -0.3966,16.26361 0.01393,16.85112c0.05389,0.07714 -1.94818,7.23407 -3.67871,12.0887c-0.1867,0.52375 0.37902,2.82279 0.19801,3.38948c-2.03594,6.37402 -4.40803,13.23235 -4.40803,13.23235l-0.68763,-10.36912c0,0 -2.64793,13.56764 -4.4199,14.95155c-0.73449,0.57364 -0.28815,-12.34583 -1.24612,-12.08689c-1.01769,0.27508 -2.47519,11.38344 -3.80225,12.37c-1.27421,0.94726 -0.50603,-7.68349 -2.51163,-8.10584c-1.45192,-0.30576 -4.22074,14.99426 -5.50268,15.32655c-1.32536,0.34354 -2.29097,-12.3706 -3.75097,-12.16171c-1.54056,0.22042 -3.1544,0.35516 -4.83796,0.38153c-17.29056,0.14641 -24.35066,-10.87154 -24.35066,-10.87154c0,0 0.2336,8.5255 0.21675,9.20362c-0.00975,0.39239 -2.61013,-7.27735 -3.74753,-8.41214c-1.13739,-1.1348 -2.16005,-3.33274 -2.16005,-3.33274l-2.51237,11.16878c0,0 -4.75787,-5.91456 -6.33745,-8.90326c-1.65829,-3.13763 -3.05308,-10.28787 -3.85322,-15.1436c-1.78019,-10.34688 -2.83908,-22.14498 -2.83908,-22.14498c0,0 1.9257,-7.3395 2.57551,-13.42034c1.17221,-3.90088 3.03359,-12.12185 10.9009,-19.78804c6.33417,-6.17224 10.76508,-10.99868 22.97998,-12.15226z" fill="#000000" stroke="none" stroke-width="1.5"/><path d="M221.76748,167.48504c-0.57709,-7.29323 0.335,-17.15448 0.335,-17.15448c0,0 3.41059,-0.04124 13.91429,-3.14424c8.0696,-2.38394 20.54731,-9.48722 20.54731,-9.48722c0,0 -2.16005,3.00503 -3.40781,4.46015c-1.32651,1.54696 -3.99292,4.56297 -3.99292,4.56297c0,0 7.838,-1.66761 14.67476,-4.72931c8.56837,-3.53575 10.59252,-6.05309 12.95042,-4.5927c2.7829,1.72362 1.03006,23.1827 0.71846,28.74062c-0.42163,5.66922 -2.53327,9.49969 -3.15031,12.52053c-0.61704,3.02084 -0.4096,6.13662 -2.20622,16.0397c-1.12121,6.18021 -4.16183,8.92466 -10.01942,14.66081c-5.85759,5.73616 -9.05378,9.25275 -13.01359,9.32173c-3.81077,0.06639 -8.93565,-5.1002 -13.93542,-10.38244c-5.32393,-5.62474 -8.87489,-8.47713 -9.71551,-15.13975c-0.75707,-6.00039 -0.77653,-9.90853 -1.12266,-15.24835c-0.25298,-3.90273 -2.26119,-6.44504 -2.57636,-10.42801z" data-paper-data="{&quot;index&quot;:null}" fill="#ffffff" stroke="#000000" stroke-width="1.5"/><path d="M214.1325,185.42017c-0.11967,-0.93691 -1.92617,0.8257 -3.31889,0.40624c-1.5348,-0.46225 3.74705,-4.04186 2.55382,-4.90256c-0.93123,-0.67171 0.90184,-0.72877 -2.44452,1.42345c-1.55047,0.99719 4.17597,-6.33188 3.02092,-6.36441c-1.06503,-0.02999 -0.03002,0.17596 -1.63191,1.28925c-2.74815,1.90994 2.15368,-6.69043 0.93581,-8.32385c-0.77755,-1.04287 -1.32971,-2.16324 -4.46668,1.91955c-1.10605,1.43954 0.74876,-4.51023 -0.03849,-5.37546c-1.33337,-1.46545 -4.96031,0.97685 -4.96031,0.97685l14.33333,-32.33334l63.6,3.46667c0,0 2.76512,3.21066 -2.18916,6.65432c-1.45066,1.00833 1.44,4.24953 -0.71125,4.79817c-4.03628,1.02939 -13.72415,-0.86702 -18.03182,1.3244c-3.91475,1.99153 -9.88278,3.27126 -12.97723,5.96321c-3.01158,2.61987 -5.77461,5.4619 -7.77216,6.73426c-10.10907,6.43909 -23.75172,24.65897 -23.75172,24.65897c0,0 -3.78929,2.70911 -2.14975,-2.31572z" fill="url(#color-1)" stroke="none" stroke-width="NaN"/></g><g stroke-width="1.5" stroke-linecap="butt"><path d="M89.54144,231.98581c0,0 6.36196,-6.75484 6.49441,-7.74235c0.34739,-2.59002 -0.17317,-45.82391 37.12711,-47.42158c46.0751,-1.04213 40.27247,40.32086 42.86956,48.12477c3.56101,10.70035 6.35509,19.84766 6.35509,19.84766c0,0 -2.85635,-2.34236 -4.21121,-3.57479c-1.26366,-1.14948 -3.92396,-3.58834 -3.92396,-3.58834c0,0 0.6035,2.23255 1.13441,5.7266c0.12309,0.8101 2.75953,3.61094 4.50742,6.55959c2.2946,3.87094 3.82551,7.99663 3.81975,8.20755c-0.01036,0.37934 -3.24224,-2.81722 -5.07689,-3.13017c-2.02392,-0.34524 -2.45756,-0.84047 -2.48444,0.09921c-0.05736,2.00537 -0.22497,4.07428 -0.54708,6.14315c-0.22639,1.51821 0.75285,6.61933 1.45944,9.91446c0.62331,2.90682 2.4729,6.02424 2.27864,5.85568c-0.90325,-0.78376 -2.56759,-0.81073 -3.34922,-1.27995c-1.0478,-0.62901 -2.2849,-1.88228 -3.31349,-1.44319c-2.62149,1.11909 -4.60841,6.60136 -4.60841,6.60136l-1.19245,-2.67753c0,0 -1.05563,2.5071 -2.22968,3.80152c-1.17406,1.29441 -3.54957,3.32243 -3.54957,3.32243l-0.09502,-4.22524c0,0 -7.28767,12.56773 -25.13556,12.40073c-16.83185,-0.2914 -26.91188,-12.17677 -26.91188,-12.17677l-0.11995,3.02827c0,0 -4.02031,-3.75592 -6.3807,-11.073c-2.8133,-8.72111 -10.55939,-0.12912 -10.55939,-0.12912c0,0 4.80104,-11.66996 1.3142,-10.67161c-4.36921,1.251 -7.17057,0.39382 -7.17057,0.39382c0,0 3.72425,-3.09937 5.76395,-5.44082c1.8168,-2.08558 2.73189,-3.85226 2.73189,-3.85226c0,0 -2.17551,1.23727 -4.3692,1.84553c-2.28886,0.63466 -4.15999,0.60561 -4.15999,0.60561c0,0 4.92307,-5.74582 7.04515,-12.40386c0.25642,-0.80453 -1.61184,-2.18361 -4.24284,-1.2702c-3.29246,1.14306 -3.71916,2.10193 -4.16284,2.33334c-0.29299,0.15282 1.77924,-4.80878 4.92426,-8.05904c3.87233,-4.0019 5.86103,-5.50266 5.86103,-5.50266c0,0 -1.40554,0.75469 -3.43747,0.90697c-1.28798,0.09653 -2.4545,-0.05578 -2.4545,-0.05578z" fill="url(#color-2)" stroke="none"/><path d="M108.17832,239.28808c-0.12465,-1.57527 -1.28164,-4.82962 -0.28708,-6.38903c0.76156,-1.19408 3.96522,-2.02754 4.8817,-0.58146c0.09623,0.15185 -4.25962,-10.18399 -4.25962,-10.18399c0,0 3.41059,-0.04124 13.91429,-3.14424c8.0696,-2.38394 20.54731,-9.48722 20.54731,-9.48722c0,0 -2.16005,3.00503 -3.40781,4.46015c-1.32651,1.54696 -3.99292,4.56297 -3.99292,4.56297c0,0 7.838,-1.66761 14.67476,-4.72931c8.56837,-3.53575 10.59252,-6.05309 12.95042,-4.5927c2.7829,1.72362 1.03006,23.1827 0.71846,28.74062c-0.08172,1.09879 -0.64687,1.51843 -1.39692,2.17697c-0.62364,0.54755 -1.43742,1.34333 -1.63405,2.06747c-0.13256,0.48818 1.26252,-1.05572 1.9359,-1.08764c0.19722,-0.00935 -0.15952,1.27961 -0.02324,1.33517c0.61595,0.25112 0.35396,1.37637 0.39897,2.0398c0.11291,1.66417 -2.20837,4.89898 -2.43096,5.98876c-0.26035,1.27461 -0.31901,3.97647 -2.35136,5.41699c-0.64569,0.45766 -1.9433,0.7296 -3.12279,1.59976c-1.2084,0.89148 -2.29283,2.37748 -2.42525,2.50858c-0.08517,0.08432 3.83432,-2.30889 5.32338,-0.33735c1.26126,1.66992 0.62246,5.45901 0.36979,6.85172c-1.12121,6.18021 -4.16183,8.92466 -10.01942,14.66081c-5.85759,5.73616 -9.05378,9.25275 -13.01359,9.32173c-3.81077,0.06639 -8.93565,-5.1002 -13.93542,-10.38244c-5.32393,-5.62474 -8.87489,-8.47713 -9.71551,-15.13975c-0.34581,-2.74081 -1.69751,-10.23381 -0.89075,-11.82365c0.95946,-1.89075 3.22779,0.15294 4.6192,0.63669c-0.91708,-0.78849 -2.0493,-1.61463 -2.84449,-2.57004c-1.31118,-1.57537 -2.25604,-4.29192 -1.7128,-4.45205c0.76663,-0.22598 5.12756,4.41344 5.16834,4.43753c0.46407,0.27409 -1.12723,-1.38027 -1.33885,-1.80847c-0.66039,-1.33624 -2.10375,-3.80952 -2.28721,-3.6442c-0.07993,0.07203 -4.27054,-4.65867 -4.41246,-6.45217z" fill="#ffffff" stroke="#000000"/></g><g stroke-linecap="butt"><path d="M324.29986,242.62473c0,0 6.16329,-6.75484 6.29161,-7.74235c0.05099,-0.39244 1.50744,-5.61926 -0.42294,-8.36213c-1.59814,-2.27078 -6.68252,-2.1734 -6.36473,-2.1882c0.68114,-0.03172 8.34794,-3.32812 8.88582,-5.58743c0.35661,-1.49792 1.90274,-5.2712 -0.63184,-6.42316c-2.14244,-0.97373 -8.37471,0.54926 -8.68688,0.5176c-0.47359,-0.04803 11.98154,-11.16736 23.64206,-18.21594c2.09362,-1.26556 0.02262,-8.27038 0.07443,-8.54601c0.02543,-0.13531 10.18766,3.27811 12.40421,2.63647c2.18712,-0.63311 4.98738,-1.16079 7.06763,-1.25276c2.35695,-0.05503 4.57378,0.00818 6.65906,0.17844c1.31808,0.10762 3.86074,-6.55518 3.79877,-6.49171c-0.06536,0.06694 -1.02935,5.27645 -0.27293,6.31129c0.84455,1.15541 3.45344,1.237 4.09441,1.39598c1.54851,0.38406 13.71878,-1.57252 13.7517,-1.85231c0.03114,-0.26467 -3.74165,1.94603 -4.71634,3.5993c-0.46639,0.79109 0.7979,2.28451 1.37898,2.6621c5.49466,3.57041 10.68747,2.01815 12.98948,7.21619c0.52128,1.17708 3.99596,8.58044 7.68845,11.05732c3.59422,2.41096 2.65986,4.15229 2.70207,4.24333c0.06654,0.14351 -1.59846,-0.15818 -4.56525,0.32251c-1.29262,0.20943 0.33229,4.34582 0.14668,4.29899c-0.23246,-0.05866 -3.66538,0.70251 -3.58006,1.29972c0.15017,1.05116 2.20412,4.64783 2.05625,4.35487c-2.35053,-4.657 -1.25035,7.51283 -0.60041,9.52876c3.44981,10.70035 6.15664,19.84766 6.15664,19.84766c0,0 -2.76715,-2.34236 -4.0797,-3.57479c-1.2242,-1.14948 -3.80143,-3.58834 -3.80143,-3.58834c0,0 0.58465,2.23255 1.09899,5.7266c0.11925,0.8101 2.67336,3.61094 4.36667,6.55959c2.22295,3.87094 3.70605,7.99663 3.70047,8.20755c-0.01004,0.37934 -3.141,-2.81722 -4.91836,-3.13017c-1.96072,-0.34524 -2.38081,-0.84047 -2.40686,0.09921c-0.05557,2.00537 -0.21795,4.07428 -0.53,6.14315c-0.21932,1.51821 0.72935,6.61933 1.41387,9.91446c0.60385,2.90682 2.39568,6.02424 2.20748,5.85568c-0.87504,-0.78376 -2.48742,-0.81073 -3.24464,-1.27995c-1.01508,-0.62901 -2.21355,-1.88228 -3.21002,-1.44319c-2.53963,1.11909 -4.46451,6.60136 -4.46451,6.60136l-1.15522,-2.67753c0,0 -1.02266,2.5071 -2.16005,3.80152c-1.1374,1.29441 -3.43873,3.32243 -3.43873,3.32243l-0.09205,-4.22524c0,0 -7.0601,12.56773 -24.35066,12.40073c-16.30625,-0.2914 -26.07151,-12.17677 -26.07151,-12.17677l-0.1162,3.02827c0,0 -3.89477,-3.75592 -6.18145,-11.073c-2.72545,-8.72111 -10.22966,-0.12912 -10.22966,-0.12912c0,0 4.65112,-11.66996 1.27316,-10.67161c-4.23278,1.251 -6.94665,0.39382 -6.94665,0.39382c0,0 3.60795,-3.09937 5.58396,-5.44082c1.76007,-2.08558 2.64658,-3.85226 2.64658,-3.85226c0,0 -2.10758,1.23727 -4.23277,1.84553c-2.21739,0.63466 -4.03008,0.60561 -4.03008,0.60561c0,0 4.76933,-5.74582 6.82515,-12.40386c0.24841,-0.80453 -1.56151,-2.18361 -4.11035,-1.2702c-3.18965,1.14306 -3.60302,2.10193 -4.03284,2.33334c-0.28384,0.15282 1.72368,-4.80878 4.77049,-8.05904c3.75141,-4.0019 5.67801,-5.50266 5.67801,-5.50266c0,0 -1.36165,0.75469 -3.33013,0.90697c-1.24776,0.09653 -2.37785,-0.05578 -2.37785,-0.05578z" fill="#000000" stroke="none" stroke-width="1.5"/><path d="M340.88015,250.05552c-0.12465,-1.57527 -1.28164,-4.82962 -0.28708,-6.38903c0.76156,-1.19408 3.96522,-2.02754 4.8817,-0.58146c0.09623,0.15185 -4.25962,-10.18399 -4.25962,-10.18399c0,0 7.12511,2.93462 7.27452,2.2538c0.47475,-2.1634 2.43421,-4.15564 6.63977,-5.39804c8.0696,-2.38394 5.80008,4.67013 5.80008,4.67013c0,0 12.58718,-11.15232 11.33942,-9.6972c-1.32651,1.54696 -0.45358,5.15286 -0.45358,5.15286c0,0 7.95869,-2.93282 9.28853,-4.39714c2.25572,-2.48383 5.96944,6.00171 6.27107,6.1566c0.21485,-0.2754 0.14619,4.48992 0.58907,4.35207c0.12594,-0.0392 3.43492,-3.48377 4.21655,-3.88594c0.8102,-0.41687 1.60952,1.92064 2.2459,2.31479c2.7829,1.72362 2.50479,8.73041 2.19319,14.28833c-0.08172,1.09879 -0.64687,1.51843 -1.39692,2.17697c-0.62364,0.54755 -1.43742,1.34333 -1.63405,2.06747c-0.13256,0.48818 1.26252,-1.05572 1.9359,-1.08764c0.19722,-0.00935 -0.15952,1.27961 -0.02324,1.33517c0.61595,0.25112 0.35396,1.37637 0.39897,2.0398c0.11291,1.66417 -2.20837,4.89898 -2.43096,5.98876c-0.26035,1.27461 -0.31901,3.97647 -2.35136,5.41699c-0.64569,0.45766 -1.9433,0.7296 -3.12279,1.59976c-1.2084,0.89148 -2.29283,2.37748 -2.42525,2.50858c-0.08517,0.08432 3.83432,-2.30889 5.32338,-0.33735c1.26126,1.66992 0.62246,5.45901 0.36979,6.85172c-1.12121,6.18021 -4.16183,8.92466 -10.01942,14.66081c-5.85759,5.73616 -9.05378,9.25275 -13.01359,9.32173c-3.81077,0.06639 -8.93565,-5.1002 -13.93542,-10.38244c-5.32393,-5.62474 -8.87489,-8.47713 -9.71551,-15.13975c-0.34581,-2.74081 -1.69751,-10.23381 -0.89075,-11.82365c0.95946,-1.89075 3.22779,0.15294 4.6192,0.63669c-0.91708,-0.78849 -2.0493,-1.61463 -2.84449,-2.57004c-1.31118,-1.57537 -2.25604,-4.29192 -1.7128,-4.45205c0.76663,-0.22598 5.12756,4.41344 5.16834,4.43753c0.46407,0.27409 -1.12723,-1.38027 -1.33885,-1.80847c-0.66039,-1.33624 -2.10375,-3.80952 -2.28721,-3.6442c-0.07993,0.07203 -4.27054,-4.65867 -4.41246,-6.45217z" fill="#ffffff" stroke="#000000" stroke-width="1.5"/><path d="M329.59826,279.68519c0,0 0.53317,-3.12167 0.85082,-4.58288c0.31816,-1.46353 1.05662,-4.19133 1.05662,-4.19133c0,0 2.28586,-2.60539 3.55121,-3.40986c1.54766,-0.98396 5.05953,-2.06462 5.05953,-2.06462c0,0 -7.21983,4.4884 -7.65834,7.0708c-0.07703,0.45364 -0.86441,3.14606 -0.383,3.65203c0.57759,0.60707 2.49147,-0.953 3.07742,-0.15829c1.48305,2.01144 2.42944,4.36101 2.42944,4.36101c0,0 -2.71557,-2.72786 -3.86475,-2.39103c-1.29243,0.37882 -4.11895,1.71418 -4.11895,1.71418z" fill="#ffffff" stroke="none" stroke-width="0"/><path d="M404.96776,282.56551c-1.14918,-0.33683 -3.86475,4.21586 -3.86475,4.21586c0,0 -0.5743,-3.76887 0.90875,-5.78031c0.58595,-0.79471 2.70259,0.05571 3.28018,-0.55136c0.4814,-0.50598 0.30231,-2.38737 0.22528,-2.841c-0.43851,-2.58239 -4.61696,-5.85424 -4.61696,-5.85424c0,0 2.19395,0.8779 3.7416,1.86186c1.26535,0.80447 1.82776,2.39607 1.82776,2.39607c0,0 0.73846,2.72781 1.05662,4.19134c0.31765,1.4612 1.56047,5.39391 1.56047,5.39391c0,0 -2.82653,-2.65329 -4.11896,-3.0321z" data-paper-data="{&quot;index&quot;:null}" fill="#ffffff" stroke="none" stroke-width="0"/><path d="M407.43329,262.32209c-1.14918,-0.33683 -1.02613,6.54758 -1.02613,6.54758c0,0 -3.31154,-5.18818 -1.82849,-7.19962c0.14783,-0.2005 0.06314,-1.42436 0.31793,-1.48455c0.75513,-0.1784 1.82072,-0.13359 2.25259,-0.5875c0.4814,-0.50598 -1.6239,-1.47495 -1.70093,-1.92859c-0.43851,-2.58239 -2.69076,-5.34735 -2.69076,-5.34735c0,0 0.06498,-0.54141 1.61264,0.44255c1.26535,0.80447 2.43604,3.91676 2.43604,3.91676c0,0 2.56329,2.52505 2.88145,3.98858c0.31766,1.4612 2.27013,4.27874 2.27013,4.27874c0,0 -3.23204,-2.24777 -4.52447,-2.62659z" data-paper-data="{&quot;index&quot;:null}" fill="#ffffff" stroke="none" stroke-width="0"/><path d="M323.85206,265.22038c0,0 2.96627,-4.54098 3.28392,-6.00218c0.31816,-1.46353 1.86765,-5.61064 1.86765,-5.61064c0,0 0.86655,-1.0847 2.1319,-1.88918c0.53386,-0.27431 -0.21219,2.29469 -0.21219,2.29469c0,0 -1.13708,0.12909 -1.57559,2.71149c-0.07703,0.45363 -1.57406,4.05847 -1.09265,4.56445c0.57759,0.60707 3.91078,-0.54748 4.49673,0.24723c1.48305,2.01144 -3.2478,5.17204 -3.2478,5.17204c0,0 1.8465,-4.24855 0.69732,-3.91172c-1.29243,0.37881 -6.3493,2.42383 -6.3493,2.42383z" fill="#ffffff" stroke="none" stroke-width="0"/><path d="M332.12894,234.86652c0.31816,-1.46353 0.77919,-5.9009 0.77919,-5.9009c0,0 -0.60996,-1.61291 -1.77226,-2.96799c-1.09827,-1.28043 -2.38908,-1.93674 -2.40891,-2.18657c0.27827,-0.14298 2.38455,0.23868 4.19862,1.81809c1.66625,1.45072 2.70046,3.74198 2.70046,3.74198c0,0 -0.77426,0.49191 -1.21277,3.07431c-0.07703,0.45363 -1.5015,2.89745 -1.02008,3.40342c0.27905,0.2933 1.21093,-0.14624 2.01575,-0.06424c0.86103,0.08772 1.59761,0.69892 1.90047,1.10968c1.48305,2.01144 -12.31831,13.44434 -12.31831,13.44434c0,0 10.91701,-12.95624 9.76783,-12.6194c-1.29243,0.37881 -7.3652,3.58486 -7.3652,3.58486c0,0 4.41756,-4.97637 4.73521,-6.43757z" fill="#ffffff" stroke="none" stroke-width="0"/><path d="M406.60082,245.37639c-0.41629,-0.15069 -1.14606,-0.56672 -1.33525,1.19058c-0.23368,2.1706 -0.0659,4.08965 -0.0659,4.08965c0,0 -1.73079,-5.88523 -0.52999,-7.89666c0.11969,-0.2005 0.24122,-1.48773 0.44752,-1.54792c0.61142,-0.1784 0.71379,-0.64053 1.06347,-1.09444c0.38978,-0.50598 -0.68117,-1.91852 -0.74354,-2.37216c-0.35505,-2.58239 -0.84822,-5.90991 -0.84822,-5.90991c0,0 -0.92922,-1.82448 0.35096,-4.33682c1.0523,-2.06513 1.80278,-2.9076 1.96799,-2.74608c-0.09718,-0.05388 -0.86844,0.47314 -1.07452,2.46861c-0.30813,2.98363 0.51306,6.85007 0.51306,6.85007c0,0 1.37859,4.48109 1.6362,5.94462c0.2572,1.4612 3.54855,11.08575 3.54855,11.08575c0,0 -2.99674,-4.0791 -4.0432,-4.45792z" data-paper-data="{&quot;index&quot;:null}" fill="#ffffff" stroke="none" stroke-width="0"/><path d="M389.19606,193.03414c-0.52736,1.07516 3.55287,2.69504 3.55287,2.69504c0,0 -1.25925,0.55893 -3.00851,-0.25434c-1.58875,-0.73865 -2.62332,-2.93569 -3.44669,-3.79409c-0.17244,-0.17977 -2.28001,0.39259 -2.296,0.13127c-0.17411,0.11268 -3.11711,0.08411 -3.49096,-0.41866c-0.41673,-0.56044 -2.10985,-0.23479 -2.56997,-0.23604c-2.61935,-0.00707 -2.24185,-0.47574 -2.24185,-0.47574c0,0 -1.10396,-0.81924 -1.10327,-0.87204c0.01307,-1.00281 0.62789,-3.17969 1.1496,-3.75426c-0.00636,0.00641 -0.11678,1.1078 0.61257,2.90555c0.24276,0.59837 0.6553,0.49567 1.13198,0.67292c1.34241,0.49916 2.5598,0.52434 2.5598,0.52434c0,0 2.29053,0.37482 3.78685,0.3102c1.49394,-0.06453 5.86984,-1.25589 5.86984,-1.25589c0,0 -0.67357,1.59869 -1.26667,2.80786z" data-paper-data="{&quot;index&quot;:null}" fill="#ffffff" stroke="none" stroke-width="0"/><path d="M348.84378,196.9222c0.38978,-0.50598 -6.34235,4.69613 -6.40472,4.24249c0.41963,-0.49669 2.90604,-2.87076 2.90604,-2.87076c0,0 2.52708,-2.47998 3.80726,-4.99233c1.0523,-2.06513 -0.02023,-5.54363 0.14498,-5.3821c-0.05815,-0.03224 2.64299,1.0226 5.06826,1.71857c0.54976,0.15776 1.98337,0.82515 3.08911,0.77768c2.16821,-0.09309 4.26247,-1.0699 4.27106,-0.9671c-0.1337,1.29465 -2.01833,2.24714 -4.10917,2.97809c-1.34115,0.46886 -5.19891,-1.0834 -5.18134,-1.05625c0.21681,0.33512 -0.62494,2.54457 -0.62494,2.54457c0,0 -3.3162,3.46104 -2.96652,3.00713z" data-paper-data="{&quot;index&quot;:null}" fill="#ffffff" stroke="none" stroke-width="0"/><path d="M334.67597,215.30424c0.19938,-0.25882 -0.57144,-4.42215 -3.097,-4.53509c-2.41176,-0.10785 -4.92787,0.58638 -4.95834,0.36479c0.41963,-0.49669 4.50341,-3.13698 4.50341,-3.13698c0,0 3.96471,-3.54489 4.60594,-4.30013c0.36011,-0.14829 2.7112,-0.55794 2.7112,-0.55794c0,0 -0.60731,0.78646 -1.70362,1.91309c-0.64589,0.66376 -1.84392,1.34131 -2.15894,2.32621c-0.4135,1.29276 1.01219,2.81551 1.03635,4.13563c0.04048,2.2119 -1.06285,3.95121 -0.939,3.79043z" data-paper-data="{&quot;index&quot;:null}" fill="#ffffff" stroke="none" stroke-width="0"/><path d="M413.44578,214.10636c-0.52736,1.07515 -2.52546,0.9073 -2.52546,0.9073c0,0 -1.53307,-0.98072 -2.08692,0.37789c-0.43714,1.07232 0.20758,4.61301 -0.56404,4.25427c-0.05811,-0.02702 -0.50639,-1.60567 -1.11374,-3.83998c-0.39927,-1.4688 0.86088,-1.73116 0.38978,-3.51212c-0.38166,-1.44285 -2.4935,-4.3944 -2.84431,-5.73973c-0.84046,-3.2231 -1.49218,-5.77791 -1.47512,-5.80331c0.15664,-0.23328 2.80699,6.50984 5.10118,9.06777c2.3798,2.65337 5.11863,4.28793 5.11863,4.28793z" data-paper-data="{&quot;index&quot;:null}" fill="#ffffff" stroke="none" stroke-width="0"/><path d="M371.81538,222.72991c-0.14596,-0.15199 -0.77548,0.8824 -2.37795,1.74744c-0.88205,0.47614 -2.30244,2.05567 -2.4295,2.01813c-0.1898,0.62427 -3.91766,3.44519 -4.14132,3.44237c-0.42877,-0.48883 -1.83561,-2.67013 -1.83561,-2.67013c0,0 -1.34016,-0.30305 -2.54861,-0.23218c-1.25487,0.0736 -2.38568,0.51446 -2.71756,0.13423c-0.09309,-0.37816 3.15578,-1.67923 3.37229,-1.75902c0.56034,0.73741 2.10819,-0.08907 3.03528,0.3689c1.2169,0.60113 -0.41684,1.98878 0.8922,2.16118c0.69264,0.09122 3.02821,-2.40034 4.26208,-3.0928c2.67335,-1.50031 4.58488,-2.01797 4.4887,-2.11812z" data-paper-data="{&quot;index&quot;:null}" fill="#ffffff" stroke="none" stroke-width="0"/><path d="M397.91473,234.42392c-0.007,-0.21214 -1.2878,-1.47672 -2.84807,-3.07127c-0.84132,-0.85981 -1.87488,-2.9809 -2.58276,-2.44868c-1.92962,1.45078 -3.0384,3.97807 -3.20285,3.82645c0.00789,-0.65018 -1.10222,-4.50262 -1.10222,-4.50262c0,0 -3.26395,-3.45761 -3.24951,-4.44824c0.18356,-0.34348 3.22379,1.83533 3.22379,1.83533c0,0 1.83116,2.32325 1.70179,3.88993c-0.07621,0.92301 2.79468,-3.50378 3.17803,-2.54342c0.50319,1.26056 2.02417,2.1547 2.88248,3.158c1.43812,1.68106 2.00599,4.50738 1.9993,4.30454z" data-paper-data="{&quot;index&quot;:null}" fill="#ffffff" stroke="none" stroke-width="0"/></g><g stroke="#000000"><path d="M369.72065,118.36177c0,0 6.11357,-5.97319 6.23465,-6.83997c0.16794,-1.20229 1.93479,-14.4727 5.77878,-25.55672c0.37906,-1.093 -0.35703,-3.53411 -1.90436,-4.39031c-1.5616,-0.86409 -3.93622,-0.14044 -3.90659,-0.62391c0.03176,-0.51816 2.54271,-1.7975 4.91933,-2.20273c1.76892,-0.30161 3.46342,0.28034 4.00592,-0.10874c6.53514,-4.68708 15.64739,-8.46844 26.72585,-8.99064c1.94276,-0.05602 8.31101,0.82965 10.83681,-0.5734c1.74595,-0.96985 -2.5113,-5.3432 -1.58984,-4.67698c0.32861,0.23759 3.20947,0.41013 4.77577,1.83051c2.08922,1.8946 3.09523,5.17224 4.71315,5.70074c0.61489,0.20086 2.18593,-1.39232 3.71034,-2.05116c1.28784,-0.5566 2.59365,-0.19005 2.73876,-0.12547c0.13494,0.06005 -0.64746,1.27564 -0.63076,2.44859c0.01926,1.35337 0.86506,2.70931 1.54115,3.13551c16.26125,10.25105 13.89796,31.14677 15.78676,36.15327c3.52811,9.35167 6.30189,17.34808 6.30189,17.34808c0,0 -2.78422,-2.0303 -4.10576,-3.09975c-1.23258,-0.99746 -3.8276,-3.11396 -3.8276,-3.11396c0,0 3.17751,10.3219 1.48389,20.6833c-1.48298,9.49371 -7.15356,17.28584 -7.15356,17.28584l-1.1748,-2.33761c0,0 -1.00425,2.20641 -2.13211,3.35068c-1.12787,1.14426 -3.41426,2.94138 -3.41426,2.94138l-0.12301,-3.70331c0,0 -6.96774,11.07659 -24.25892,11.07473c-16.30782,-0.11914 -26.15984,-10.45687 -26.15984,-10.45687l-0.094,2.65572c0,0 -3.92216,-3.26008 -6.26239,-9.65552c-2.78927,-7.62262 -3.3417,-12.21573 -3.3417,-12.21573c0,0 -2.32312,1.91865 -5.69365,2.8221c-4.22346,1.13208 -6.94352,0.40332 -6.94352,0.40332c0,0 3.58511,-2.74724 5.54389,-4.81641c1.74472,-1.84305 2.61825,-3.39923 2.61825,-3.39923c0,0 -2.09844,1.10228 -4.2191,1.65328c-2.21266,0.57492 -4.0255,0.5646 -4.0255,0.5646c0,0 4.93263,-5.07869 6.93958,-10.93269c1.89488,-5.52711 2.00804,-10.97448 2.00804,-10.97448c0,0 -1.35607,0.67299 -3.32337,0.82294c-1.24701,0.09506 -2.37818,-0.02902 -2.37818,-0.02902z" data-paper-data="{&quot;index&quot;:null}" fill="#000000" stroke-width="0" stroke-linecap="butt"/><path d="M386.90397,129.42617c-0.63804,-7.28815 0.19158,-17.15668 0.19158,-17.15668c0,0 3.41013,-0.06975 13.88752,-3.26045c8.04939,-2.45132 20.46728,-9.65866 20.46728,-9.65866c0,0 -2.13485,3.02298 -3.3704,4.48848c-1.31353,1.558 -3.95463,4.59619 -3.95463,4.59619c0,0 7.82378,-1.73308 14.63471,-4.85183c8.53851,-3.60726 10.54155,-6.14143 12.91157,-4.70081c2.79721,1.70029 1.22383,23.17328 0.95871,28.73361c-0.37422,5.67255 -2.45376,9.52054 -3.04553,12.54643c-0.59176,3.02589 -0.35828,6.13983 -2.07205,16.05758c-1.0695,6.18937 -4.08707,8.95914 -9.8965,14.74406c-5.80943,5.78493 -8.97611,9.32812 -12.93521,9.4302c-3.81008,0.09825 -8.97798,-5.02532 -14.02173,-10.26558c-5.37077,-5.58004 -8.94545,-8.40264 -9.84174,-15.058c-0.80721,-5.99385 -0.85934,-9.90169 -1.2501,-15.23843c-0.2856,-3.90048 -2.31499,-6.42591 -2.66345,-10.40611z" data-paper-data="{&quot;index&quot;:null}" fill="#ffffff" stroke-width="1.5" stroke-linecap="butt"/><path d="M388.68818,139.65133c0,0 -4.96134,-3.47569 -6.23899,-8.92317c-1.34433,-5.7318 -1.5425,-9.72024 0.39658,-9.99559c1.93908,-0.27537 2.72299,2.35424 3.80234,8.32419c1.07935,5.96996 2.04007,10.59459 2.04007,10.59459z" data-paper-data="{&quot;index&quot;:null}" fill="#ffffff" stroke-width="1.25" stroke-linecap="butt"/><path d="M388.4526,135.7056c0,0 -3.58817,-2.89348 -4.38866,-8.41421c-0.44655,-3.07964 2.13761,-2.29811 2.13761,-2.29811" data-paper-data="{&quot;index&quot;:null}" fill="none" stroke-width="0.25" stroke-linecap="round"/><path d="M442.83073,128.58704c0.97938,-5.98717 1.71922,-8.6295 3.66264,-8.3866c1.94341,0.2429 1.81195,4.23409 0.56365,9.98757c-1.18639,5.46808 -6.08892,9.02624 -6.08892,9.02624c0,0 0.88327,-4.64005 1.86265,-10.62721z" data-paper-data="{&quot;index&quot;:null}" fill="#ffffff" stroke-width="1.25" stroke-linecap="butt"/><path d="M443.20929,124.51667c0,0 2.57074,-0.82464 2.17574,2.26205c-0.70808,5.53334 -4.24736,8.48641 -4.24736,8.48641" data-paper-data="{&quot;index&quot;:null}" fill="none" stroke-width="0.25" stroke-linecap="round"/></g><g><path d="M124.79118,74.16655c0.19506,-1.23942 -0.24496,-15.62075 6.98445,-26.51023c0.6281,-0.94609 2.06341,-2.74829 2.06341,-2.74829l1.0185,1.71902c0,0 2.17969,-2.65785 4.88111,-4.74732c3.06849,-2.37339 6.81014,-4.24757 8.79522,-4.87196c1.93139,-0.6075 4.14841,-0.49924 6.61864,-0.52164c1.86614,-0.01692 3.92933,-0.20735 5.82536,-0.27656c1.88009,-0.03624 3.86306,-1.4847 5.56205,-1.40023c4.97731,0.24746 8.80282,2.12401 12.37893,3.28892c3.58284,1.1671 6.91386,1.62406 9.32994,3.45436c0.9284,0.70331 -2.91908,0.52418 -2.13844,1.29905c1.13485,1.12646 6.03626,3.05829 6.89417,4.29803c7.12058,10.28981 6.2058,23.89213 7.64789,27.58519c3.37692,8.64793 -2.45833,42.07492 -2.45833,42.07492l-6.22094,0.97041c0,0 -1.00105,2.02622 -2.11441,3.07236c-1.11337,1.04613 -3.36608,2.68517 -3.36608,2.68517l-0.0901,-3.41481c0,0 -6.91093,10.15714 -23.83618,10.02216c-15.96174,-0.23551 -25.52067,-9.84117 -25.52067,-9.84117l-0.11375,2.44743c0,0 -3.81249,-3.0355 -6.05085,-8.9491c-2.66786,-7.04833 -3.17101,-11.2867 -3.17101,-11.2867c0,0 -2.28966,1.75078 -5.59625,2.55764c-4.14335,1.01104 -6.79989,0.31829 -6.79989,0.31829c0,0 3.53172,-2.50488 5.46599,-4.39722c1.72288,-1.68555 2.59066,-3.11337 2.59066,-3.11337c0,0 -2.06305,0.99996 -4.14334,1.49154c-2.17054,0.51293 -3.94494,0.48945 -3.94494,0.48945c0,0 4.86981,-4.64372 6.88219,-10.0247c1.90001,-5.08051 2.05536,-10.10124 2.05536,-10.10124c0,0 0.44569,-4.77127 0.5713,-5.56937z" fill="#000000" stroke="none" stroke-width="1.5" stroke-linecap="butt"/><path d="M134.74233,90.61385c-0.57709,-7.29323 0.335,-17.15448 0.335,-17.15448c0,0 17.18409,2.82355 32.55393,1.51426c12.43279,-1.05909 23.67846,-6.63719 23.68127,-4.35866c0.00858,6.94864 -0.65092,15.44808 -0.8307,18.65467c-0.42163,5.66922 -2.53327,9.49969 -3.15031,12.52053c-0.61704,3.02084 -0.4096,6.13662 -2.20622,16.0397c-1.12121,6.18021 -4.16183,8.92466 -10.01942,14.66081c-5.85759,5.73616 -9.05378,9.25275 -13.01359,9.32173c-3.81077,0.06639 -8.93565,-5.1002 -13.93542,-10.38244c-5.32393,-5.62474 -8.87489,-8.47713 -9.71551,-15.13975c-0.75707,-6.00039 -0.77653,-9.90853 -1.12266,-15.24835c-0.25298,-3.90273 -2.26119,-6.44504 -2.57636,-10.42801z" fill="#ffffff" stroke="#000000" stroke-width="1.5" stroke-linecap="butt"/><path d="M136.44198,100.73708c0,0 -4.93211,-3.51705 -6.16417,-8.97502c-1.29636,-5.74284 -1.46118,-9.7328 0.48013,-9.99193c1.94131,-0.25915 2.70321,2.37692 3.73262,8.35569c1.0294,5.97877 1.95143,10.61127 1.95143,10.61127z" data-paper-data="{&quot;index&quot;:null}" fill="#ffffff" stroke="#000000" stroke-width="1" stroke-linecap="butt"/><path d="M136.23938,96.7895c0,0 -3.56385,-2.92338 -4.31816,-8.45061c-0.42079,-3.08327 2.15675,-2.28016 2.15675,-2.28016" fill="none" stroke="#000000" stroke-width="0.25" stroke-linecap="round"/><path d="M190.67514,90.12579c1.0294,-5.97877 1.7913,-8.61483 3.73262,-8.35569c1.94131,0.25914 1.77649,4.24909 0.48013,9.99193c-1.23206,5.45797 -6.16417,8.97502 -6.16417,8.97502c0,0 0.92203,-4.6325 1.95143,-10.61127z" data-paper-data="{&quot;index&quot;:null}" fill="#ffffff" stroke="#000000" stroke-width="1" stroke-linecap="butt"/><path d="M191.08768,86.05875c0,0 2.57754,-0.80312 2.15675,2.28016c-0.75431,5.52723 -4.31816,8.45061 -4.31816,8.45061" data-paper-data="{&quot;index&quot;:null}" fill="none" stroke="#000000" stroke-width="0.25" stroke-linecap="round"/><path d="M174.24615,35.64629c0,6.72727 -5.9648,12.18081 -13.32275,12.18081c-7.35795,0 -13.32275,-5.45354 -13.32275,-12.18081c0,-6.72727 5.9648,-12.1808 13.32275,-12.1808c7.35795,0 13.32275,5.45353 13.32275,12.1808z" fill="#000000" stroke="none" stroke-width="0" stroke-linecap="butt"/></g><g><g stroke-width="1.5" stroke-linecap="butt"><path d="M210.15487,267.67479c-0.23005,-1.22696 1.92811,-9.1283 8.02974,-14.26926c7.76166,-6.53965 20.87125,-10.48503 32.30647,-10.94405c2.46307,-0.05221 12.08047,1.3516 18.91541,4.72322c5.68809,2.80589 8.87107,7.57327 9.74989,8.45793c2.36785,2.38358 1.40486,3.93191 1.85138,5.09199c0.7001,1.81887 1.81846,2.99883 1.34204,7.36337c-0.34388,3.1503 -0.0156,20.86744 -4.36445,28.57699c-0.68325,1.21126 -8.37346,26.35146 -9.96355,26.45934c-3.09569,0.21 -0.55901,-25.63635 -0.70783,-25.48258c-1.18816,1.22763 3.30234,-0.52714 3.30234,-0.52714l-3.85681,2.91634c0,0 -3.40558,3.69759 -21.46774,3.5392c-17.03392,-0.27637 -21.59399,-2.89407 -21.59399,-2.89407l-2.41956,20.39742l-11.51254,-31.2048l0.24474,-12.35003c0,0 0.27208,-9.17316 0.14445,-9.85388z" fill="#000000" stroke="none"/><path d="M216.56847,289.71839c-0.60284,-7.88992 1.39457,-11.41797 1.39457,-11.41797c0,0 2.51817,-7.18458 13.4906,-10.54145c8.42971,-2.57898 14.9868,-1.15116 14.9868,-1.15116c0,0 11.53058,1.22504 13.24038,0.72557c2.05621,0.71859 9.39381,4.48618 11.85694,6.06605c2.90709,1.86464 3.58313,8.85215 3.25763,14.86478c-0.44045,6.13304 -2.64632,10.27689 -3.2909,13.54488c-0.64457,3.26798 -0.42788,6.63868 -2.30468,17.35196c-1.17124,6.68583 -4.34755,9.65482 -10.46654,15.86026c-6.11899,6.20545 -9.45781,10.00975 -13.59433,10.08437c-3.98083,0.07182 -9.33441,-5.51746 -14.5573,-11.23186c-5.56151,-6.08492 -9.27094,-9.17068 -10.14907,-16.37838c-0.79086,-6.4913 -0.81118,-10.71918 -1.17276,-16.49587c-0.26427,-4.22203 -2.3621,-6.97234 -2.69134,-11.28117z" fill="#ffffff" stroke="#000000"/></g><path d="M219.57984,303.39931c0,0 -4.93211,-3.51705 -6.16417,-8.97502c-1.29636,-5.74284 -1.46118,-9.7328 0.48013,-9.99193c1.94131,-0.25915 2.70321,2.37692 3.73262,8.35569c1.0294,5.97877 1.95143,10.61127 1.95143,10.61127z" data-paper-data="{&quot;index&quot;:null}" fill="#ffffff" stroke="#000000" stroke-width="1" stroke-linecap="butt"/><path d="M219.37724,299.45175c0,0 -3.56385,-2.92338 -4.31816,-8.45061c-0.42079,-3.08327 2.15675,-2.28016 2.15675,-2.28016" fill="none" stroke="#000000" stroke-width="0.25" stroke-linecap="round"/><path d="M273.81295,292.78804c1.0294,-5.97877 1.7913,-8.61483 3.73262,-8.35569c1.94131,0.25914 1.77649,4.24909 0.48013,9.99193c-1.23206,5.45797 -6.16417,8.97502 -6.16417,8.97502c0,0 0.92203,-4.6325 1.95143,-10.61127z" data-paper-data="{&quot;index&quot;:null}" fill="#ffffff" stroke="#000000" stroke-width="1" stroke-linecap="butt"/><path d="M274.22548,288.72098c0,0 2.57754,-0.80312 2.15675,2.28016c-0.75431,5.52723 -4.31816,8.45061 -4.31816,8.45061" data-paper-data="{&quot;index&quot;:null}" fill="none" stroke="#000000" stroke-width="0.25" stroke-linecap="round"/><path d="M230.86954,320.30171c0,0 -0.69866,0.05719 -1.05585,-0.24313c-0.23498,-0.19757 -0.16839,-0.72643 -0.20076,-0.90485c-0.02781,-0.15328 -0.04085,-0.77254 0.11344,-1.01866c0.23482,-0.37459 0.68285,-0.37071 0.68285,-0.37071c0,0 2.58102,-0.8572 3.93055,-1.10203c1.50842,-0.27365 4.69645,-0.46303 4.69645,-0.46303c0,0 0.43168,0.07256 0.67961,0.29234c0.2187,0.19388 0.25475,0.52405 0.28873,0.71137c0.04144,0.22843 0.04263,0.67097 -0.09956,1.00615c-0.13286,0.31317 -0.40847,0.52748 -0.40847,0.52748c0,0 -3.02872,0.04413 -4.48353,0.30806c-1.42002,0.25761 -4.14347,1.257 -4.14347,1.257z" fill="#000000" stroke="none" stroke-width="0" stroke-linecap="butt"/><path d="M255.64578,319.82518c-1.4548,-0.26392 -4.48353,-0.30805 -4.48353,-0.30805c0,0 -0.27561,-0.21431 -0.40847,-0.52749c-0.14219,-0.33518 -0.141,-0.77773 -0.09956,-1.00616c0.03399,-0.18732 0.07003,-0.51749 0.28874,-0.71137c0.24793,-0.21979 0.67961,-0.29235 0.67961,-0.29235c0,0 3.18803,0.18938 4.69645,0.46303c1.34953,0.24482 3.93055,1.10202 3.93055,1.10202c0,0 0.44803,-0.00388 0.68285,0.37071c0.15429,0.24612 0.14124,0.86538 0.11344,1.01866c-0.03237,0.17843 0.03422,0.70728 -0.20076,0.90485c-0.35719,0.30032 -1.05585,0.24313 -1.05585,0.24313c0,0 -2.72346,-0.99939 -4.14348,-1.257z" data-paper-data="{&quot;index&quot;:null}" fill="#000000" stroke="none" stroke-width="0" stroke-linecap="butt"/></g><g><g stroke-linecap="butt"><path d="M94.12131,141.71108c-5.10578,32.17123 -6.68844,29.48223 -32.35416,30.6051c-25.66572,1.12286 -32.99984,-0.48939 -39.1818,-32.57576c-3.93638,-20.43114 -4.80052,-40.36311 12.83627,-55.55353c9.6337,-8.29743 24.42254,-4.80023 36.93184,-3.52532c10.39196,1.05911 20.59576,12.36085 20.59576,12.36085c0,0 3.92765,31.32606 1.17209,48.68865z" fill="#000000" stroke="#00a68e" stroke-width="0"/><path d="M31.86112,135.88095c-0.57709,-7.29323 0.335,-17.15448 0.335,-17.15448c0,0 20.16967,-0.36006 34.5163,-3.97832c12.35228,-3.11528 19.07886,-9.62768 20.16975,-8.95203c2.7829,1.72362 1.03006,23.1827 0.71846,28.74062c-0.42163,5.66922 -2.53327,9.49969 -3.15031,12.52053c-0.61704,3.02084 -0.4096,6.13662 -2.20622,16.0397c-1.12121,6.18021 -4.16183,8.92466 -10.01942,14.66081c-5.85759,5.73616 -9.05378,9.25275 -13.01359,9.32173c-3.81077,0.06639 -8.93565,-5.1002 -13.93542,-10.38244c-5.32393,-5.62474 -8.87489,-8.47713 -9.71551,-15.13975c-0.75707,-6.00039 -0.77653,-9.90853 -1.12266,-15.24835c-0.25298,-3.90273 -2.26119,-6.44504 -2.57636,-10.42801z" fill="#ffffff" stroke="#000000" stroke-width="1.5"/></g><path d="M33.02666,144.35162c0,0 -4.93211,-3.51705 -6.16417,-8.97502c-1.29636,-5.74284 -1.46118,-9.7328 0.48013,-9.99193c1.94131,-0.25915 2.70321,2.37692 3.73262,8.35569c1.0294,5.97877 1.95143,10.61127 1.95143,10.61127z" data-paper-data="{&quot;index&quot;:null}" fill="#ffffff" stroke="#000000" stroke-width="1" stroke-linecap="butt"/><path d="M32.82406,140.40406c0,0 -3.56385,-2.92338 -4.31816,-8.45061c-0.42079,-3.08327 2.15675,-2.28016 2.15675,-2.28016" fill="none" stroke="#000000" stroke-width="0.25" stroke-linecap="round"/><path d="M87.25981,133.74035c1.0294,-5.97877 1.7913,-8.61483 3.73262,-8.35569c1.94131,0.25914 1.77649,4.24909 0.48013,9.99193c-1.23206,5.45797 -6.16417,8.97502 -6.16417,8.97502c0,0 0.92203,-4.6325 1.95143,-10.61127z" data-paper-data="{&quot;index&quot;:null}" fill="#ffffff" stroke="#000000" stroke-width="1" stroke-linecap="butt"/><path d="M87.67237,129.67329c0,0 2.57754,-0.80312 2.15675,2.28016c-0.75431,5.52723 -4.31816,8.45061 -4.31816,8.45061" data-paper-data="{&quot;index&quot;:null}" fill="none" stroke="#000000" stroke-width="0.25" stroke-linecap="round"/></g></g></g></svg>