<svg version="1.1" xmlns="http://www.w3.org/2000/svg" xmlns:xlink="http://www.w3.org/1999/xlink" width="95.99999" height="251.33164" viewBox="0,0,95.99999,251.33164"><defs><linearGradient x1="299.4365" y1="115.9661" x2="299.4365" y2="132.11371" gradientUnits="userSpaceOnUse" id="color-1"><stop offset="0" stop-color="#000000"/><stop offset="1" stop-color="#000000" stop-opacity="0"/></linearGradient><linearGradient x1="302.7618" y1="120.50489" x2="302.7618" y2="129.66975" gradientUnits="userSpaceOnUse" id="color-2"><stop offset="0" stop-color="#000000"/><stop offset="1" stop-color="#000000" stop-opacity="0"/></linearGradient><linearGradient x1="307.60603" y1="121.46502" x2="307.60603" y2="136.82707" gradientUnits="userSpaceOnUse" id="color-3"><stop offset="0" stop-color="#000000"/><stop offset="1" stop-color="#000000" stop-opacity="0"/></linearGradient></defs><g transform="translate(-272.00001,-54.33417)"><g data-paper-data="{&quot;isPaintingLayer&quot;:true}" fill-rule="nonzero" stroke-linejoin="miter" stroke-miterlimit="10" stroke-dasharray="" stroke-dashoffset="0" style="mix-blend-mode: normal"><path d="M280.96199,303.22407c0,0 -0.63536,-94.38387 -0.79335,-118.01201c-0.05451,-8.15261 8.18688,-36.76129 40.20201,-36.9211c31.60235,-0.15775 39.85672,29.48704 39.84884,36.89673c-0.07659,46.24274 0.65429,117.98648 0.65429,117.98648l-10.49667,0.09614l-0.15882,-114.84311c0,0 0.07549,-3.0993 -2.81625,-3.15415c-3.43441,-0.06514 -2.94538,3.11562 -2.94538,3.11562l0.20548,114.86995l-48.21366,0.07222l-0.30539,-115.23309c0,0 0.27949,-2.919 -2.8856,-2.93443c-3.11083,-0.01515 -2.81569,2.90899 -2.81569,2.90899l0.35311,115.0668z" fill="#000000" stroke="#000000" stroke-width="2" stroke-linecap="butt"/><path d="M335.55916,199.16625c-0.57113,0 -1.03411,-0.46299 -1.03411,-1.03411c0,-0.57113 0.46299,-1.03413 1.03411,-1.03413c0.57113,0 1.03411,0.463 1.03411,1.03413c0,0.57113 -0.46299,1.03411 -1.03411,1.03411z" fill="#000000" stroke="none" stroke-width="1.5" stroke-linecap="butt"/><path d="M330.29928,203.40185c-4.4635,-0.31439 -6.55245,-1.79392 -6.16985,-2.58011c0.11788,-0.24224 2.84645,1.06355 6.97038,1.3048c6.40897,0.37493 8.51033,-0.63173 8.51033,-0.63173v1.34616c0,0 -2.4135,1.04672 -9.31086,0.56089z" fill="#000000" stroke="#000000" stroke-width="0" stroke-linecap="butt"/><path d="M302.48653,198.13214c0,-0.57113 0.46299,-1.03413 1.03411,-1.03413c0.57113,0 1.03413,0.463 1.03413,1.03413c0,0.57113 -0.463,1.03411 -1.03413,1.03411c-0.57113,0 -1.03411,-0.46299 -1.03411,-1.03411z" fill="#000000" stroke="none" stroke-width="1.5" stroke-linecap="butt"/><path d="M308.78052,203.40185c-6.89736,0.48585 -9.31086,-0.56089 -9.31086,-0.56089v-1.34616c0,0 2.10136,1.00666 8.51033,0.63173c4.12393,-0.24126 6.85251,-1.54704 6.97039,-1.3048c0.3826,0.78618 -1.70634,2.26571 -6.16985,2.58011z" fill="#000000" stroke="#000000" stroke-width="0" stroke-linecap="butt"/><path d="M320.06098,259.95361c-0.81895,0 -1.48284,-0.66389 -1.48284,-1.48284c0,-0.81895 0.66389,-1.48284 1.48284,-1.48284c0.81895,0 1.48284,0.66389 1.48284,1.48284c0,0.81895 -0.66389,1.48284 -1.48284,1.48284z" data-paper-data="{&quot;index&quot;:null}" fill="#000000" stroke="none" stroke-width="1.5" stroke-linecap="butt"/><path d="M292.00001,305.33249l0.33334,-148.33333l27.66665,14.66667l27.66667,-15.33334l-2.66666,149z" fill="#3d496d" stroke="none" stroke-width="0" stroke-linecap="butt"/><path d="M275.8585,102.71257c0,0 6.16329,-5.92187 6.29161,-6.78761c0.33654,-2.27063 -0.16776,-40.17317 35.96775,-41.57382c44.63633,-0.91362 39.01489,35.34872 41.53088,42.1903c3.44981,9.38084 6.15664,17.40016 6.15664,17.40016c0,0 -2.76715,-2.05351 -4.0797,-3.13397c-1.2242,-1.00773 -3.80143,-3.14585 -3.80143,-3.14585c0,0 3.09111,10.3481 1.31092,20.69498c-1.5623,9.48098 -7.29782,17.22543 -7.29782,17.22543l-1.15522,-2.34735c0,0 -1.02266,2.19794 -2.16005,3.33274c-1.1374,1.13479 -3.43873,2.91273 -3.43873,2.91273l-0.09205,-3.70421c0,0 -7.0601,11.01795 -24.35066,10.87154c-16.30625,-0.25547 -26.07151,-10.6752 -26.07151,-10.6752l-0.1162,2.65484c0,0 -3.89477,-3.29276 -6.18145,-9.70754c-2.72545,-7.64567 -3.23946,-12.24324 -3.23946,-12.24324c0,0 -2.33908,1.89916 -5.71704,2.7744c-4.23278,1.09673 -6.94665,0.34526 -6.94665,0.34526c0,0 3.60795,-2.71717 5.58396,-4.76989c1.76007,-1.8284 2.64658,-3.37722 2.64658,-3.37722c0,0 -2.10758,1.0847 -4.23277,1.61795c-2.21739,0.5564 -4.03008,0.53093 -4.03008,0.53093c0,0 4.97492,-5.03728 7.03074,-10.87429c1.94102,-5.51108 2.09972,-10.95731 2.09972,-10.95731c0,0 -1.36165,0.66163 -3.33013,0.79513c-1.24776,0.08463 -2.37785,-0.0489 -2.37785,-0.0489z" fill="#000000" stroke="none" stroke-width="1.5" stroke-linecap="butt"/><path d="M292.64439,114.03419c-0.57709,-7.29323 0.335,-17.15448 0.335,-17.15448c0,0 3.41059,-0.04124 13.91429,-3.14424c8.0696,-2.38394 20.54731,-9.48722 20.54731,-9.48722c0,0 -2.16005,3.00503 -3.40781,4.46015c-1.32651,1.54696 -3.99292,4.56297 -3.99292,4.56297c0,0 7.838,-1.66761 14.67476,-4.72931c8.56837,-3.53575 10.59252,-6.05309 12.95042,-4.5927c2.7829,1.72362 1.03006,23.1827 0.71846,28.74062c-0.42163,5.66922 -2.53327,9.49969 -3.15031,12.52053c-0.61704,3.02084 -0.4096,6.13662 -2.20622,16.0397c-1.12121,6.18021 -4.16183,8.92466 -10.01942,14.66081c-5.85759,5.73616 -9.05378,9.25275 -13.01359,9.32173c-3.81077,0.06639 -8.93565,-5.1002 -13.93542,-10.38244c-5.32393,-5.62474 -8.87489,-8.47713 -9.71551,-15.13975c-0.75707,-6.00039 -0.77653,-9.90853 -1.12266,-15.24835c-0.25298,-3.90273 -2.26119,-6.44504 -2.57636,-10.42801z" fill="#ffffff" stroke="#000000" stroke-width="1.5" stroke-linecap="butt"/><path d="M340.71438,98.91383c0,0 1.52429,0.31807 4.2558,1.11029c2.49492,0.72361 4.44935,1.74403 4.44935,1.74403l0.1951,1.17035c0,0 -7.24963,-3.12997 -15.1158,-2.4706c-6.2896,0.52724 -9.96319,2.8124 -9.96319,2.8124l0.04575,-4.17683c0,0 3.12748,-1.70421 7.86366,-1.85557c4.90428,-0.15672 8.09084,0.59125 8.09084,0.59125z" data-paper-data="{&quot;index&quot;:null}" fill="#000000" stroke="none" stroke-width="1.5" stroke-linecap="butt"/><path d="M327.95026,141.90138c0.5704,0.21186 3.08357,1.39942 6.02385,2.59586c2.9637,1.20597 7.21362,2.29294 7.19412,2.4605c-0.02476,0.21265 -10.43477,0.22694 -13.67937,0.63224c-2.71902,0.33964 -6.68867,0.70564 -6.68867,0.70564c0,0 -7.10401,-1.16169 -13.27235,-2.44521c-4.94371,-1.02869 -10.39929,-1.66108 -10.40995,-1.75461c-0.01439,-0.12613 3.86835,-0.71071 6.82417,-1.39467c1.14585,-0.49661 5.43971,-1.48513 5.43971,-1.48513c0,0 4.95585,-0.27766 7.60826,0.579c2.84203,0.91791 2.83546,2.44556 3.0831,2.46906c0,0 1.18436,-1.74932 2.36886,-2.10461c1.18451,-0.35528 5.08219,-0.41633 5.50828,-0.25808z" fill="#ffffff" stroke="#000000" stroke-width="1.4" stroke-linecap="butt"/><path d="M309.30227,146.45497c5.09114,1.02674 11.91756,2.80736 11.91756,2.80736c0,0 5.78976,-1.55585 8.44678,-1.8344c2.05992,-0.21596 11.216,-0.70654 11.26026,-0.33377c0.04328,0.36447 -9.03119,12.90033 -21.14808,12.44714c-13.76954,-0.43578 -22.86459,-15.13559 -22.82675,-15.30472c0.03784,-0.16913 7.2591,1.19165 12.35024,2.2184z" fill="#ffffff" stroke="#000000" stroke-width="1.9" stroke-linecap="butt"/><path d="M294.41665,148.44402c0,0 -3.1442,-3.17375 -4.20406,-5.01292c-1.19139,-2.06741 -2.59595,-6.78708 -2.59595,-6.78708l69.4,0.2l-2.9,5.6z" fill="#6c3e7a" stroke="none" stroke-width="0" stroke-linecap="butt"/><path d="M320.27653,143.46129c-1.03376,0 -3.5381,-3.26042 -3.7867,-5.3637c-0.22243,-1.88186 1.31512,-3.82799 3.7867,-3.82799c2.47159,0 4.2021,0.49077 4.02999,4.18853c-0.14607,3.13818 -1.55841,5.00317 -4.02999,5.00317z" fill="#ffffff" stroke="#000000" stroke-width="1.15" stroke-linecap="butt"/><path d="M287.61665,136.64402l69.4,0.2l-2.00159,3.86514c-0.35744,-0.88177 -0.7788,-1.73129 -1.60703,-2.09573c-0.73764,-0.32458 -2.69981,-0.05963 -3.02865,0.85081c-0.72039,-1.75266 -2.605,-1.53919 -3.85159,-0.08401c-0.15276,0.17833 -0.48073,0.56462 -0.60758,0.88349c-1.14445,-1.14181 -3.60745,-0.35425 -4.20774,0.68891c-0.22695,-0.56623 -0.54222,-1.02014 -0.91904,-1.58538c-1.53276,-1.04477 -6.38037,-1.43955 -6.71599,1.09333c-0.21288,-0.53535 -0.51778,-1.03645 -1.08173,-1.25373c-0.84112,-0.32406 -2.68758,0.3489 -2.93955,1.3472c-0.42941,-0.97053 -0.50005,-1.95244 -1.83951,-1.96003c-1.32286,0.0079 -1.55909,0.50784 -2.34256,1.30669c-0.15217,0.15516 -0.20215,-0.45809 -0.41477,-0.50302c-0.31778,-0.06716 -1.00767,0.18379 -1.26815,0.33011c-0.40555,0.22781 -1.21794,1.08081 -1.34426,1.72195c-0.48718,-0.71831 -1.57965,-1.17873 -2.27211,-1.57471c-1.70647,-0.9702 -3.81784,-0.70934 -5.32054,0.58705c-0.21591,0.18627 -0.84996,0.90378 -1.21563,1.5154c-0.1313,-0.41657 -0.35688,-0.78722 -0.64521,-1.21023c-1.60978,-1.07318 -2.7331,-1.50169 -4.57646,-0.0768c-0.34413,0.26601 -1.36511,1.12392 -1.79981,1.86314c-0.26574,-0.77105 -0.8258,-1.3856 -1.10184,-2.16132c-1.20464,-0.8555 -2.7647,-2.08721 -4.34191,-0.95315c-0.29782,0.21414 -1.13311,1.40899 -1.5514,2.32327c-0.0193,-0.11154 -0.04662,-0.22444 -0.08521,-0.34087c-1.01834,-2.5455 -3.22126,-1.0442 -4.50905,0.45873c-0.22036,0.25717 -0.94026,0.87296 -1.04574,1.28598c-1.32049,-1.15198 -3.41474,-1.4332 -4.34466,-0.05489c-1.14952,-2.19575 -2.42072,-6.46732 -2.42072,-6.46732z" fill="#5a3466" stroke="none" stroke-width="0" stroke-linecap="butt"/><path d="M323.87864,113.36757c0,0 0.1026,3.96976 0.00576,7.12662c-0.19174,6.25113 -1.08147,27.7607 -1.08147,27.7607l-2.98167,0.00864c0,0 -0.80294,-4.17274 -1.12322,-9.49979c-0.43353,-7.21063 -0.4495,-16.29321 -0.76344,-19.63229c-0.29758,-3.16513 -0.89593,-5.71453 -0.89593,-5.71453" fill="#ffffff" stroke="#000000" stroke-width="1.3" stroke-linecap="round"/><path d="M296.52141,136.11307c0,0 15.84078,-5.42857 24.17143,-5.42857c8.40207,0 22.45714,5.71429 22.45714,5.71429c0,0 1.46976,12.31427 -3.8496,19.42701c-5.44833,7.28519 -14.73851,10.80156 -19.03612,10.80156c-3.93867,0 -15.38906,-4.45069 -20.30079,-11.32803c-5.35356,-7.49598 -3.44207,-19.18625 -3.44207,-19.18625z" fill="#53305f" stroke="none" stroke-width="0" stroke-linecap="butt"/><path d="M294.34403,124.15741c0,0 -4.93211,-3.51705 -6.16417,-8.97502c-1.29636,-5.74284 -1.46118,-9.7328 0.48013,-9.99193c1.94131,-0.25915 2.70321,2.37692 3.73262,8.35569c1.0294,5.97877 1.95143,10.61127 1.95143,10.61127z" data-paper-data="{&quot;index&quot;:null}" fill="#ffffff" stroke="#000000" stroke-width="1" stroke-linecap="butt"/><path d="M294.14144,120.20985c0,0 -3.56385,-2.92338 -4.31816,-8.45061c-0.42079,-3.08327 2.15675,-2.28016 2.15675,-2.28016" fill="none" stroke="#000000" stroke-width="0.25" stroke-linecap="round"/><path d="M297.15484,113.55395c0.07093,-4.89188 4.83834,-8.93609 10.21137,-8.8582c5.37302,0.0779 9.02724,4.2484 8.95632,9.14029c-0.07093,4.89188 -4.12352,8.79439 -9.49655,8.7165c-5.37302,-0.0779 -9.74207,-4.1067 -9.67114,-8.99859z" fill="#000000" stroke="#000000" stroke-width="1.4" stroke-linecap="butt"/><path d="M301.59248,113.67189c0.03999,-2.75843 2.30855,-4.96213 5.06696,-4.92214c2.75843,0.03999 4.96213,2.30855 4.92214,5.06696c-0.03999,2.75843 -2.30854,4.96213 -5.06696,4.92214c-2.75843,-0.03999 -4.96213,-2.30855 -4.92214,-5.06696z" fill="#000000" stroke="#ffffff" stroke-width="1" stroke-linecap="butt"/><path d="M324.21112,113.55468c0.20353,-4.88817 4.45264,-8.85847 9.77048,-8.85847c5.31783,0 9.27453,3.96607 9.27453,8.85847c0,4.8924 -3.88585,9.07104 -9.69964,9.14188c-5.52997,0.06739 -9.55792,-4.03692 -9.34537,-9.14188z" fill="#ffffff" stroke="#000000" stroke-width="1.4" stroke-linecap="butt"/><path d="M328.81387,113.64023c0,-2.81845 2.2848,-5.10325 5.10325,-5.10325c2.81845,0 5.10325,2.2848 5.10325,5.10325c0,2.81845 -2.28479,5.10325 -5.10325,5.10325c-2.81845,0 -5.10325,-2.2848 -5.10325,-5.10325z" fill="#000000" stroke="none" stroke-width="1.5" stroke-linecap="butt"/><path d="M297.08641,113.02177c0,0 0.06357,-9.01512 10.60111,-8.8249c9.47101,0.16586 9.55554,9.40723 9.55554,9.40723z" fill="#000000" stroke="#000000" stroke-width="1.15" stroke-linecap="butt"/><path d="M345.89777,229.30806c-0.05124,-2.00814 -0.77071,-8.42247 -2.54131,-8.81333c-1.41844,-0.31313 -2.33065,2.84459 -2.84967,4.25823c-1.64033,4.47988 -2.96069,9.15057 -4.35603,13.85859c-0.24091,0.81285 -0.55607,1.7004 -0.89658,2.63593c0.17047,-2.54903 0.12062,-5.13533 -0.10995,-7.57142c-2.82908,-2.81363 -6.34112,6.8093 -7.53967,9.56151c-0.4811,1.10955 -1.08839,2.49684 -1.68205,4.00473c0.48719,-2.66147 1.0248,-5.31139 1.33208,-7.98008c0.6897,-4.98098 1.97038,-9.81256 2.45241,-14.82972c0.44917,-4.67989 0.69736,-10.79338 -0.36274,-15.31581c-1.75716,-7.47098 -5.49022,3.66299 -6.88657,6.20771c-0.88302,2.14507 -2.04884,4.72106 -2.93691,7.36883c0.44143,-4.06805 0.72948,-11.7624 -1.32715,-13.90218c-3.43909,-3.46502 -6.45552,4.07377 -8.25348,7.40015c-2.09103,3.88728 -3.29386,9.22882 -4.80409,13.62728c-0.50274,1.46462 -1.7644,4.32062 -2.679,7.12318c-0.1574,-2.46895 -0.66636,-4.90394 -1.46484,-5.77553c-4.20228,-0.08137 -4.99117,6.86633 -7.23417,10.44573c-0.38109,1.57585 -0.97759,3.11363 -1.56176,4.66613l0.13707,-88.64331l27.66665,21.31446l27.66667,-22.2833l-0.9806,79.62558c-0.18106,0.33844 -0.35744,0.68112 -0.52841,1.02852c0.66683,-2.23507 -0.21262,-5.84351 -0.2599,-8.01186z" fill="#364161" stroke="none" stroke-width="0" stroke-linecap="butt"/><path d="M323.83347,113.15267c0,0 -0.24686,-9.4582 11.19813,-9.1032c9.71427,0.33347 9.54677,9.65229 9.54677,9.65229z" fill="#ffffff" stroke="#000000" stroke-width="1.15" stroke-linecap="butt"/><g fill="#2f3955" stroke="none" stroke-width="0" stroke-linecap="butt"><path d="M292.33334,156.50493l27.66665,15.04366l27.66667,-15.46609l-0.42287,33.94224c-2.34481,0.32875 -3.76972,5.41033 -4.25414,8.16556c-0.02301,0.13089 -0.04996,0.27063 -0.07792,0.41634c-0.47406,-1.60845 -1.44921,-2.70832 -2.93052,-1.36227c-1.27954,1.16269 -1.6875,3.54656 -2.61484,5.12786c-0.43745,0.75801 -0.90488,1.91522 -1.33317,3.25945c-0.05574,-1.58142 -0.16962,-3.09065 -0.2803,-4.35906c-0.45398,-1.40557 -0.72195,-5.27118 -2.03673,-5.75726c-0.64618,-0.2389 -1.44717,0.39428 -2.16688,1.333c0.06555,-0.29602 0.12235,-0.58967 0.16935,-0.8768c1.49233,-4.4706 2.02322,-9.3742 1.2986,-14.34957c-1.9254,-2.13144 -4.11561,2.47839 -5.1069,6.33543c-0.07289,-3.3445 -0.55216,-6.95115 -3.1114,-3.3907c-1.53537,2.31923 -2.60792,6.23293 -3.47148,9.21152c-0.0825,0.28455 -0.20165,0.60359 -0.31035,0.93366c-0.88904,-3.63885 -4.13218,-4.56965 -6.79369,-3.32825c-2.30953,1.62965 -3.14891,4.43456 -4.59058,7.27671c-0.23454,0.46238 -0.59176,1.18947 -0.81554,1.922c-0.04603,-0.47753 -0.11961,-0.94657 -0.25322,-1.41005c-0.12667,-3.07446 -1.83325,-6.84506 -4.38234,-5.10635c-1.03182,0.7038 -1.94769,3.08589 -2.46643,4.46509c-1.6161,2.37149 -3.1341,5.65412 -4.27159,8.52379c-0.12726,0.32105 -0.30931,0.68418 -0.46976,1.06405c0.10286,-2.16841 0.2165,-5.21499 -0.86875,-6.11436c-0.85856,-0.71151 -2.36728,0.50279 -3.14924,0.84331c-0.24905,0.37396 -0.48106,0.74218 -0.69687,1.10726z"/><path d="M335.18036,211.60789c0.08524,-0.40939 0.18601,-0.88874 0.3001,-1.41084c-0.07708,1.07835 -0.21243,2.11048 -0.42918,3.03597c0.02255,-0.59196 0.03695,-1.18267 0.12908,-1.62513z"/></g><path d="M300.61626,103.01011c0,0 3.36963,-1.819 8.03244,-2.28178c5.16698,-0.51283 7.76823,-0.06628 7.76823,-0.06628l0.29508,4.13747c0,0 -3.83554,-0.68065 -8.01795,-0.52113c-5.59346,0.21333 -6.64488,1.43293 -10.89774,1.89119c-3.64408,0.39266 -6.73723,0.15884 -6.73723,0.15884l-0.02589,-1.23155c0,0 3.59517,0.07398 5.23371,-0.06836c1.35239,-0.11749 3.9757,-0.93808 3.9757,-0.93808z" fill="#000000" stroke="none" stroke-width="1.5" stroke-linecap="butt"/><path d="M348.57719,113.54614c1.0294,-5.97877 1.7913,-8.61483 3.73262,-8.35569c1.94131,0.25914 1.77649,4.24909 0.48013,9.99193c-1.23206,5.45797 -6.16417,8.97502 -6.16417,8.97502c0,0 0.92203,-4.6325 1.95143,-10.61127z" data-paper-data="{&quot;index&quot;:null}" fill="#ffffff" stroke="#000000" stroke-width="1" stroke-linecap="butt"/><path d="M348.98976,109.47908c0,0 2.57754,-0.80312 2.15675,2.28016c-0.75431,5.52723 -4.31816,8.45061 -4.31816,8.45061" data-paper-data="{&quot;index&quot;:null}" fill="none" stroke="#000000" stroke-width="0.25" stroke-linecap="round"/><path d="M293.75001,305.08249l0.10299,-45.83025c0.05239,0.21941 0.10795,0.43842 0.16685,0.65701c1.04484,3.21621 4.91649,8.04093 6.862,2.53924c1.7579,-3.12357 2.40106,-6.54359 3.3227,-9.95871c0.44658,-1.65481 0.77573,-3.35767 0.99568,-5.07434c-0.0119,1.063 0.01819,2.11952 0.16741,3.13584c0.51637,3.48535 0.77942,6.91146 1.46125,10.35589c0.77923,3.93637 4.41635,7.36082 6.61881,2.3194c0.25312,-0.53119 0.39685,-1.08435 0.5308,-1.63552c-0.17929,2.72923 0.58407,6.17879 3.17517,6.56234c3.91621,0.33675 4.51971,-4.80465 5.55101,-7.89536c0.39854,-1.1944 0.71397,-2.36177 0.96485,-3.53801c0.11123,2.12315 0.50872,4.39925 0.84282,5.65909c1.34042,4.12831 2.82799,0.99769 3.33914,-1.63926c0.01519,2.60776 0.82313,5.31243 1.95579,7.5518c3.11851,3.22649 5.48599,-4.98498 5.972,-6.96572c0.82196,-3.3499 1.19482,-6.69841 1.73116,-10.09363c0.12959,1.22169 0.30354,2.43878 0.48491,3.67369c0.09326,2.66555 0.01355,8.44291 2.15969,10.29624c2.74199,1.17386 4.28211,-1.72416 5.33306,-3.82797c-0.03903,1.08506 0.82933,2.14122 1.98962,3.04755l-0.72771,40.66069z" fill="#364161" stroke="none" stroke-width="0" stroke-linecap="butt"/><path d="M294.00001,305.33249l0.04935,-21.96368c0.13187,0.26223 0.2719,0.52189 0.42033,0.7788c0.56217,1.47924 2.58808,3.81953 4.4151,3.04097c1.5552,-0.66273 1.81009,-3.22639 2.08603,-4.60303c0.14539,-0.84117 0.29877,-1.72057 0.43318,-2.60859c0.32104,2.06122 0.98385,4.2433 1.37951,5.48394c0.01519,1.23164 1.03546,4.97136 2.72899,4.73654c1.3636,-0.18907 2.42947,-3.14915 2.8573,-4.25079c0.54973,-1.59292 1.14522,-3.32538 1.60752,-5.08225c-0.00921,1.26533 0.06435,2.54834 0.06435,3.77079c0,1.73273 -0.3531,3.94493 0.39404,5.55348c0.97895,2.10762 2.39324,1.33586 2.90588,-0.21509c0.49606,1.91974 2.46385,3.97239 3.86809,2.41289c0.57922,-0.64326 0.77712,-2.17694 0.81314,-3.00593c0.22105,-0.93496 0.48772,-1.94204 0.69227,-2.94973c0.37722,2.869 1.89524,6.37299 4.09687,4.35601c1.9257,-1.90706 2.97532,-7.3168 2.9767,-10.02068c0.08196,-0.33029 0.16936,-0.66561 0.25451,-1.00403c0.01555,2.2212 0.14865,4.40445 0.2481,6.60053c0.68376,1.74029 2.04547,1.59933 2.72016,-0.03668c0.82702,-2.00543 1.22867,-4.763 1.27135,-6.91724c0.00161,-0.2384 0.00729,-0.47727 0.01595,-0.71658c0.28661,1.59519 0.80132,3.18234 1.48548,4.5591c0.75761,1.46078 1.92184,0.89283 2.53114,-0.33817c1.05173,-2.12488 1.19243,-5.03039 1.66033,-7.35811c0.05338,-1.06676 0.11827,-2.1211 0.17532,-3.17505c0.45407,1.66208 1.19823,3.28296 1.3785,4.95745c0.92629,2.3653 2.1952,4.71919 3.68549,2.49029c0.0035,0.53379 0.07666,1.09744 0.07668,1.47979c0.00009,2.39021 0.45933,4.62878 0.73047,6.98457c0.23395,0.82732 0.44873,2.29035 1.01818,2.94615c1.48554,1.7108 2.19964,-0.94483 2.42213,-2.54039c0.35154,0.39814 1.01695,0.60686 1.49155,0.88394c0.10847,0.06333 0.21671,0.12254 0.32473,0.17772l-0.27871,15.5731z" fill="#2f3955" stroke="none" stroke-width="0" stroke-linecap="butt"/><path d="M275.00001,304.99916c0,0 -3,-21.57754 -3,-43.66667c0,-14.2526 3,-28.52363 3,-38c0,-7.81661 -2.33334,-18.17506 -2.33334,-27.33334c0,-6.53554 1.81357,-18.22416 6.75661,-27.13501c5.21628,-9.40343 13.57673,-15.86499 13.57673,-15.86499l7.33333,18.33334v133.66667z" fill="#2c2f5d" stroke="none" stroke-width="0" stroke-linecap="butt"/><path d="M296.15905,242.82292c1.67204,0.80535 4.58796,0.90794 6.13009,0.04708c1.62054,-0.99438 2.68505,-2.23259 3.41715,-3.58587c0.19854,-0.36701 0.52796,-2.18126 0.4307,-1.50138c0.05759,2.10638 2.79132,5.74871 6.0884,2.97791c2.18194,-1.85358 3.11947,-4.05804 3.66608,-6.31454c0.00781,-0.03508 0.0154,-0.07012 0.02275,-0.10513c0.27647,1.12826 0.76836,2.25717 1.13594,3.21381c0.63621,1.63952 1.48717,5.57747 5.0356,5.67684c0.41068,0.00481 2.10249,1.5101 4.48084,1.8333c2.36526,0.32142 5.4166,-0.53883 6.01888,-0.68537c1.88753,-1.4906 3.33185,-3.24576 3.977,-5.1752c0.38056,1.63198 2.22612,3.42973 4.40637,3.80636c1.89754,0.49177 4.0149,0.68185 5.61129,-0.16454c-0.34884,0.95825 0.55118,2.51818 1.97206,2.72992c0.53144,0.07919 1.08907,0.07045 1.63768,-0.00155l-0.14495,5.19633l-0.1733,-0.22124c-0.04019,-0.05409 -0.12619,-0.09146 -0.2258,-0.09146c-0.13797,0 -0.24982,0.07171 -0.25,0.1602c0,0.00001 0,0.00001 0,0.00002l-0.00062,0.3059c-0.30165,0.75317 -2.48433,3.27721 -3.66504,3.54621c-0.34959,0.07964 -1.38955,-0.23796 -1.7476,-0.31491c-1.76641,-0.52141 -4.30795,-1.54947 -4.84486,-2.86803c-0.1934,-0.47496 -0.05592,-0.95953 -0.08694,-1.4478c0.01036,-0.03173 0.02001,-0.06338 0.02895,-0.09493l-0.0072,-0.00632l0.00831,0.00056l0.00272,-0.01661l0.05726,-0.00047l-0.00639,-0.32053c-0.0015,-0.08776 -0.11284,-0.15861 -0.24998,-0.15861c-0.13023,0 -0.23721,0.06389 -0.24894,0.14548l-0.05124,0.31296c-0.01363,0.04977 -0.02808,0.09868 -0.04334,0.14672c-0.20528,0.22261 -0.30101,0.45532 -0.30806,0.69298c-0.23598,0.39625 -0.90273,0.06668 -1.26949,0.30635c-1.34999,0.88222 -3.11727,1.41011 -5.19495,0.7656c-1.45799,-0.84686 -3.11223,-1.542 -4.47201,-2.4331c-0.74562,-0.48863 -0.54996,-1.36526 -0.87315,-2.04039l0.1463,-0.03958l-0.19203,-0.29219c-0.0366,-0.05945 -0.12695,-0.1015 -0.23261,-0.1015c-0.13765,0 -0.24932,0.07138 -0.25,0.1596l-0.00287,0.31958c-0.04253,1.13124 -0.73105,2.26004 -1.52435,3.26393c-1.75652,2.11185 -5.67531,1.10482 -6.97901,-0.49295l-0.00859,-0.21357c-0.00301,-0.08692 -0.11375,-0.15678 -0.24993,-0.15678c-0.12991,0 -0.23667,0.06358 -0.24884,0.14488l-0.05033,0.29552c-1.6416,2.06761 -2.95669,3.68023 -6.9393,2.32297c-1.50832,-0.50523 -3.36631,-2.07847 -3.76704,-3.15001c-0.23853,-0.63782 -0.89053,-3.58002 -0.89053,-3.58002c0,0 -1.07261,3.49705 -2.15604,4.15741c-1.65776,0.89371 -3.13023,1.00943 -5.30411,0.72124c-0.38437,-0.05095 -1.14019,-0.12449 -1.64085,-0.28088z" fill="#364161" stroke="none" stroke-width="0" stroke-linecap="butt"/><g fill="#2f3955" stroke="none" stroke-width="0" stroke-linecap="butt"><path d="M339.91097,251.39729c0,-1.72079 3.42548,1.88733 4.75236,-0.11239c0.39274,-1.18768 -0.28852,-7.93986 1.98059,-4.70405c-0.03283,2.58691 0.48668,5.08042 -2.83062,5.90974c-0.68561,0.23578 -3.4604,0.09185 -4.00122,-0.88693c0.0989,-0.07164 0.0989,-0.20637 0.0989,-0.20637z"/><path d="M331.13322,250.39729c0,-0.25 -0.25,-0.25 -0.25,-0.25c-0.30292,0 -0.60284,-0.0365 -0.89348,-0.10732c-0.01372,-0.01355 -0.02734,-0.02744 -0.04085,-0.04168l-0.06428,-0.15725c0,0 -0.11181,-0.22361 -0.33541,-0.1118c-0.06868,0.03435 -0.10573,0.07924 -0.12408,0.12495c-0.66254,-0.27759 -1.24735,-0.74538 -1.66721,-1.37336c-0.23174,-0.34661 -0.86007,-1.89466 -0.0969,-1.83355c1.4398,0 2.27452,1.16427 3.59422,1.54483c1.66997,0.48157 2.58936,0.05943 4.05701,-0.67497c0.89188,-0.30609 1.46659,0.74325 0.66178,1.22304c-1.31657,0.78487 -2.53404,1.34238 -4.01972,1.85478c-0.29484,-0.00324 -0.58599,-0.00753 -0.86401,-0.04752c0.02558,-0.03573 0.04295,-0.08426 0.04295,-0.15016z"/><path d="M319.77211,249.48062c-1.06923,0.04396 -2.18893,-2.01544 -1.56511,-2.9519c0.4051,-0.60814 1.39664,-0.43699 2.00956,-0.43699c3.00435,0 1.93442,2.91867 -0.22374,3.51056c-0.06602,-0.12167 -0.2207,-0.12167 -0.2207,-0.12167z"/><path d="M309.10544,250.59173c-0.29544,0 -0.56179,-0.04243 -0.80187,-0.12055l-0.13247,-0.13956c0,0 -0.13723,-0.13723 -0.29078,-0.04896c-1.54478,-0.894 -1.74117,-3.52117 -1.74952,-5.12847c0.21729,-0.74228 0.82799,-0.65068 1.4828,-0.11912c1.47836,1.20009 1.96249,3.41742 4.23095,3.37927c0.42879,-0.27417 2.27103,-2.21774 2.80959,-1.90774c0.82608,0.4755 -0.3609,3.36577 -0.98445,3.66263c-1.82404,0.72896 -2.86113,0.98578 -4.31502,0.6491c-0.01509,-0.2266 -0.24924,-0.2266 -0.24924,-0.2266z"/><path d="M298.21528,244.9552c3.15168,-1.05056 4.01517,0.88353 1.75873,3.22943c-0.52082,0.16054 -1.02829,0.41034 -1.57528,0.41034l-0.3365,0.10909c-1.73066,-0.52666 -1.24375,-2.80545 0.15305,-3.74885z"/></g><path d="M339.66667,305.66581v-133.66666l7.33333,-18.33334c0,0 8.36045,6.46156 13.57673,15.86499c4.94304,8.91085 6.75661,20.59948 6.75661,27.13501c0,9.15828 -2.33334,19.51673 -2.33334,27.33334c0,9.47637 3,23.7474 3,38c0,22.08913 -3,43.66666 -3,43.66666z" data-paper-data="{&quot;index&quot;:null}" fill="#2c2f5d" stroke="none" stroke-width="0" stroke-linecap="butt"/><path d="M285.2005,255.88418c2.3812,-3.16056 5.3857,-3.85756 5.38224,-8.50314c-0.01877,-3.77716 -1.01174,-6.79568 -2.9755,-10.00432c-1.23622,-1.46227 -2.8254,-1.57541 -4.55788,-1.5247c2.26859,-0.62176 4.6008,-1.6673 6.32729,-2.66758c3.20172,-2.55229 4.54003,-4.89571 4.54,-9.02675c-0.0036,-3.20705 -0.9179,-7.64882 -3.66096,-9.57885c-1.87886,-1.28513 -4.26571,-4.20475 -6.6738,-3.7337c0.08318,-0.04755 0.16556,-0.09931 0.24581,-0.15781c1.74058,-1.26879 3.14624,-3.03486 4.57579,-4.63961c1.97613,-2.22414 4.84651,-6.19984 4.84651,-9.22777c-0.00003,-3.94651 -0.61017,-6.63837 -2.38119,-10.13872c-2.11674,-2.16264 -3.4056,-6.36313 -7.19237,-5.13093c0.49481,-0.35882 1.07796,-0.48361 1.66053,-0.68259c3.55424,-1.21708 5.79325,-3.74476 8.8929,-5.61336c1.72083,-2.7463 3.66463,-5.52426 3.97683,-8.73847l1.79331,4.48328v133.66667h-15.63171c-1.12991,-2.17479 -2.7585,-4.75858 -4.92894,-5.10348c1.35629,-0.64474 3.65701,-1.42362 5.07598,-1.56946c2.90916,-2.29695 6.73472,-2.96836 6.73465,-7.44384c-0.00029,-3.87862 -0.63209,-6.72157 -2.3201,-10.0707c-0.84943,-1.66465 -2.49467,-3.5933 -4.24168,-4.21413c-1.20391,-0.42783 -3.03305,0.52706 -4.14597,-0.17919c2.42583,-0.27319 8.33826,-1.92731 8.37439,-5.10513c-0.00076,-3.20693 -1.79012,-7.04692 -4.14961,-9.39428c-1.20648,-1.09814 -3.8382,-2.16893 -6.08333,-2.68453c2.38544,-0.39438 5.26112,-1.42642 6.51683,-3.01691z" fill="#24274d" stroke="none" stroke-width="0" stroke-linecap="butt"/><path d="M361,259.56776c-2.24513,0.5156 -4.87686,1.58639 -6.08333,2.68453c-2.35949,2.34736 -4.14885,6.18734 -4.14961,9.39427c0.03614,3.17782 5.94857,4.83195 8.37439,5.10514c-1.11293,0.70625 -2.94206,-0.24864 -4.14597,0.17919c-1.74701,0.62083 -3.39225,2.54949 -4.24169,4.21413c-1.68801,3.34913 -2.3198,6.19207 -2.32009,10.0707c-0.00007,4.47548 3.82549,5.14688 6.73465,7.44383c1.41897,0.14584 3.71969,0.92472 5.07598,1.56946c-2.17045,0.3449 -3.79904,2.92869 -4.92894,5.10348h-15.63171v-133.66667l1.7933,-4.48327c0.3122,3.2142 2.25599,5.99217 3.97683,8.73846c3.09965,1.86861 5.33866,4.39628 8.8929,5.61336c0.58257,0.19898 1.16572,0.32378 1.66053,0.6826c-3.78677,-1.2322 -5.07563,2.96828 -7.19237,5.13092c-1.77101,3.50036 -2.38115,6.19222 -2.38119,10.13872c0,3.02793 2.87037,7.00363 4.8465,9.22777c1.42955,1.60475 2.83521,3.37082 4.57579,4.63961c0.08025,0.05849 0.16263,0.11026 0.2458,0.15781c-2.40809,-0.47105 -4.79493,2.44857 -6.67379,3.7337c-2.74306,1.93003 -3.65735,6.3718 -3.66096,9.57885c-0.00004,4.13105 1.33828,6.47446 4.54,9.02675c1.7265,1.00028 4.05871,2.04582 6.3273,2.66758c-1.73248,-0.05071 -3.32166,0.06244 -4.55788,1.52471c-1.96376,3.20863 -2.95674,6.22715 -2.9755,10.00431c-0.00346,4.64558 3.00103,5.34258 5.38224,8.50314c1.2557,1.59049 4.13139,2.62253 6.51683,3.01691z" data-paper-data="{&quot;index&quot;:null}" fill="#24274d" stroke="none" stroke-width="0" stroke-linecap="butt"/><path d="M275.00001,223.58249c0,-7.81661 -2.33334,-18.17506 -2.33334,-27.33334c0,-6.53554 1.81357,-18.22416 6.75661,-27.13501c5.21628,-9.40343 13.57673,-15.86499 13.57673,-15.86499l2.09821,5.24554c-2.22653,0.56654 -4.381,1.92373 -5.69235,3.64357c-2.20175,2.97248 -1.44586,6.94841 0.13925,10.13398c0.88624,1.35566 1.74543,2.74242 2.89617,3.93108c-2.56305,-1.5531 -6.9675,0.13725 -9.03029,1.789c-3.0714,3.03931 -3.89711,4.95108 -3.86538,9.33731c0.53461,1.4548 1.59135,3.03622 3.01816,3.93986c-2.69263,-0.21881 -5.48907,2.52982 -5.75884,5.0449c-0.09317,4.4819 1.92496,6.01682 5.08382,8.59061c0.41251,0.27397 0.8536,0.44213 1.2697,0.67765c-2.3469,0.63505 -4.95942,3.54773 -5.84234,5.52831c-0.12102,3.70471 -2.0729,7.04172 2.28859,9.39368c1.99884,1.49909 4.33917,2.08744 6.66239,0.73259c0.32198,-0.18777 0.68803,-0.86504 0.94984,-0.98105c0.45294,-0.20071 -0.13202,0.99575 -0.33345,1.44836c-2.53758,2.80116 -5.91298,2.81598 -7.77126,6.55231c-1.66631,3.39595 0.68347,7.13558 4.0767,8.67331c0.89747,0.03367 2.26416,0.5714 3.23365,1.00944c-2.40402,0.27932 -6.08968,3.87741 -7.40436,5.18809c-2.33358,2.33164 -4.81734,4.22475 -6.48908,7.10562c0.86116,-10.19512 2.47088,-19.70932 2.47088,-26.65084z" fill="#24274d" stroke="none" stroke-width="0" stroke-linecap="butt"/><path d="M367.5982,250.98333c-1.67174,-2.88088 -4.15551,-4.77399 -6.48908,-7.10562c-1.31468,-1.31068 -5.00033,-4.90877 -7.40436,-5.18809c0.96949,-0.43804 2.33619,-0.97577 3.23365,-1.00944c3.39322,-1.53773 5.74301,-5.27736 4.0767,-8.67331c-1.85828,-3.73633 -5.23369,-3.75115 -7.77126,-6.55231c-0.20144,-0.45262 -0.7864,-1.64907 -0.33346,-1.44836c0.26182,0.11602 0.62787,0.79328 0.94984,0.98105c2.32322,1.35485 4.66356,0.7665 6.66239,-0.73259c4.36149,-2.35196 2.40961,-5.68896 2.28859,-9.39368c-0.88293,-1.98058 -3.49544,-4.89326 -5.84234,-5.52831c0.41609,-0.23552 0.85719,-0.40368 1.2697,-0.67765c3.15886,-2.57379 5.17699,-4.10871 5.08382,-8.59061c-0.26977,-2.51508 -3.06621,-5.26371 -5.75884,-5.0449c1.4268,-0.90365 2.48355,-2.48506 3.01816,-3.93986c0.03173,-4.38623 -0.79397,-6.298 -3.86538,-9.33731c-2.06279,-1.65176 -6.46724,-3.3421 -9.0303,-1.789c1.15074,-1.18866 2.00994,-2.57542 2.89618,-3.93108c1.58511,-3.18557 2.341,-7.16151 0.13925,-10.13398c-1.31135,-1.71983 -3.46582,-3.07702 -5.69235,-3.64357l2.09821,-5.24554c0,0 8.36045,6.46156 13.57673,15.86499c4.94304,8.91085 6.75661,20.59947 6.75661,27.13501c0,9.15828 -2.33334,19.51673 -2.33334,27.33334c0,6.94153 1.60971,16.45572 2.47087,26.65084z" data-paper-data="{&quot;index&quot;:null}" fill="#24274d" stroke="none" stroke-width="0" stroke-linecap="butt"/><path d="M297.09615,116.43504l5.07692,1.38462l-2,12.84615z" fill="#000000" stroke="none" stroke-width="0" stroke-linecap="butt"/><path d="M302.42671,128.51197l-1.13514,-7.29106l2.8815,-0.78586z" data-paper-data="{&quot;index&quot;:null}" fill="#000000" stroke="none" stroke-width="0" stroke-linecap="butt"/><path d="M304.83003,121.2812l4.82994,1.31726l-1.9027,12.2212z" data-paper-data="{&quot;index&quot;:null}" fill="#000000" stroke="none" stroke-width="0" stroke-linecap="butt"/><path d="M296.71153,115.19687l5.44993,2.34035l-1.76233,15.96111z" fill="url(#color-1)" stroke="none" stroke-width="0" stroke-linecap="butt"/><path d="M302.43373,129.66975l-1.60315,-8.27314l4.01628,-0.8148z" data-paper-data="{&quot;index&quot;:null}" fill="url(#color-2)" stroke="none" stroke-width="0" stroke-linecap="butt"/><path d="M304.09055,121.38809l6.18481,0.80238l-2.50404,14.86736z" data-paper-data="{&quot;index&quot;:null}" fill="url(#color-3)" stroke="none" stroke-width="0" stroke-linecap="butt"/><path d="M296.66427,136.25592c0,0 15.84078,-5.42857 24.17143,-5.42857c4.30091,0 10.08305,1.4973 14.70302,2.95901c-1.00608,0.9739 -1.61186,2.33199 -1.94693,3.81472c-0.04849,0.21457 -0.17972,0.6898 -0.26418,1.17058c-0.76479,-2.36149 -1.7382,-6.00046 -4.33464,-4.4445c-1.4749,0.89426 -3.64726,4.37 -3.65986,6.7973c-0.43637,-1.13267 -0.98171,-2.4091 -1.85354,-2.70781c-1.89676,-0.64987 -3.31633,1.97537 -4.18556,3.10769c-0.85998,1.12756 -2.50582,3.75513 -3.26155,6.01638c-0.04128,-1.21677 -0.0915,-2.43178 -0.0915,-3.62964c-0.22302,-0.90975 -0.42617,-3.02967 -1.25486,-3.59937c-2.21319,-1.52149 -3.73357,2.1519 -4.64007,3.36512c-0.70014,1.75322 -2.21065,4.90398 -2.12332,7.32858c-2.32992,-3.13264 -4.83935,-1.80354 -6.04807,1.89619c-0.01154,1.67557 -0.00164,3.2342 0.14319,4.79256c-0.70811,-0.7172 -1.3522,-1.46886 -1.9115,-2.25198c-5.35356,-7.49598 -3.44207,-19.18625 -3.44207,-19.18625z" fill="#482a52" stroke="none" stroke-width="0" stroke-linecap="butt"/><path d="M339.15754,155.68294c-5.44833,7.28519 -14.73851,10.80156 -19.03612,10.80156c-3.15027,0 -11.10599,-2.84723 -16.67796,-7.50604c1.53745,0.25129 2.99538,-0.00225 3.90893,-1.79829c0.02929,-0.08761 0.05774,-0.17377 0.0847,-0.25926c0.4255,2.12362 3.87229,4.08041 5.64389,3.39165c2.71735,-1.36864 3.86297,-5.65501 4.42643,-8.54496c0.03004,0.1458 0.05907,0.27083 0.0799,0.35683c0.38822,1.60224 0.8602,5.38501 2.4223,6.18368c2.22753,1.10858 3.39094,-0.06168 4.30845,-1.67711c0.02192,0.88602 0.47952,1.98945 0.80054,2.46411c1.21635,1.79852 2.25352,2.55343 4.26103,1.21176c2.33988,-2.24042 3.0341,-6.05698 3.2642,-9.17504c0.00871,-0.40319 0.03949,-0.84623 0.06259,-1.30051c0.00964,0.01747 0.0185,0.0331 0.02646,0.04674c1.07215,1.83572 1.59101,3.67039 4.07177,2.43005c1.05941,-0.54165 1.07231,-1.92201 1.02624,-3.12385c0.27449,0.45372 0.75099,0.84049 1.1393,1.0999c0.7822,0.52254 1.64878,0.8052 2.53918,0.90575c-0.57696,1.60523 -1.34208,3.14285 -2.35183,4.49304z" fill="#482a52" stroke="none" stroke-width="0" stroke-linecap="butt"/><g fill="#3d2345" stroke="none" stroke-width="0" stroke-linecap="butt"><path d="M296.52141,136.11307c0,0 15.84078,-5.42857 24.17143,-5.42857c1.20645,0 2.52945,0.11782 3.91067,0.31961c-0.16406,0.1399 -0.31616,0.2836 -0.45364,0.42959c-0.2583,0.27854 -1.40841,1.61932 -1.53346,2.39332c-0.1825,-0.31469 -0.4343,-0.69854 -0.5779,-0.8887c-0.60385,-0.79967 -1.10819,-1.38953 -2.20281,-1.38953c-1.9168,0.02638 -5.37642,3.46197 -5.12807,5.69008c-0.54282,-0.63879 -1.48142,-0.83294 -2.3005,-0.83294c-1.04981,0.00723 -2.60198,0.60828 -2.97234,1.68379c-0.14084,0.40897 -0.27453,0.78027 -0.27766,1.20908c-0.00073,0.10002 -0.00001,0.27144 0.00289,0.43727c-0.20469,-0.73433 -1.03835,-1.70494 -1.5002,-2.019c-3.76138,-1.24571 -5.84681,3.4095 -5.92875,6.46788c-0.05493,-0.51152 -0.34809,-1.88675 -1.12365,-2.05804c-1.48364,-0.32769 -2.31567,1.05421 -2.85984,2.14764c-0.42232,1.26132 -0.69911,2.44446 -0.87615,3.6328c-1.29269,-6.02913 -0.35002,-11.79428 -0.35002,-11.79428z"/><path d="M339.01468,155.54009c-5.44833,7.28519 -14.73851,10.80156 -19.03612,10.80156c-1.98112,0 -5.8627,-1.12603 -9.85674,-3.1205c1.71708,-0.01966 3.1491,-0.25296 5.00652,-1.51269c0.3236,-0.45702 0.75097,-0.73302 1.06299,-1.12658c0.05504,0.74529 0.69492,1.72938 1.0073,2.07159c1.30164,1.42592 3.03106,2.10367 4.52813,0.60782c0.06117,-0.06207 0.11978,-0.12726 0.17523,-0.19516c0.16642,0.49128 0.79382,0.86877 1.24985,1.09882c1.69967,0.85745 2.92849,0.21961 4.50994,-0.57112c0.45336,-0.2318 0.92551,-0.66464 1.23387,-1.07743c0.15996,-0.21414 0.08514,-0.95354 0.26581,-0.75655c1.6407,1.78892 2.95632,-1.68579 3.46928,-2.70639c0.16356,-0.34216 0.85222,-2.98584 0.84542,-3.80252c0.16078,0.24566 0.45877,0.59726 0.54959,0.63597c0.818,0.34867 1.56904,0.31002 2.43882,0.29806c0.68275,-0.32636 1.16997,-0.69993 1.45925,-1.43336c0.10447,-0.26486 0.02087,-1.12386 0.09479,-0.8489c0.12225,0.45471 0.77542,0.67127 1.60005,0.76361c-0.1909,0.29878 -0.39204,0.59041 -0.60397,0.87378z"/></g><path d="M302.81665,153.84402v-12.7h10.3v12.7z" fill="#2c1932" stroke="none" stroke-width="0" stroke-linecap="butt"/><path d="M314.61665,156.64402v-17.8h10.3v17.8z" fill="#2c1932" stroke="none" stroke-width="0" stroke-linecap="butt"/><path d="M326.31665,153.94402v-12.7h10.3v12.7z" fill="#2c1932" stroke="none" stroke-width="0" stroke-linecap="butt"/><path d="M305.12124,151.31695c-0.94972,-0.33991 -0.75459,-3.15351 -0.75459,-3.97293c-0.02886,-1.00198 -0.43924,-2.55721 0.32677,-3.32323c0.23466,-0.23466 1.10829,0.03716 1.45466,-0.16411c0.35917,-0.20871 0.40328,-0.5846 0.86856,-0.56266c0.38011,0 3.91044,-0.59946 3.96903,-0.25433c0.1279,0.75342 -0.01918,1.77156 -0.0158,2.54438c0.09269,0.27809 1.1515,1.78906 0.73687,2.0965l-0.11333,-0.11333c-0.04524,-0.04524 -0.10774,-0.07322 -0.17677,-0.07322c-0.13807,0 -0.25,0.11193 -0.25,0.25c0,0.03483 0.00712,0.06798 0.01998,0.09811l0.18359,0.45898l0.10143,-0.04057c0.16039,0.6142 0.33869,1.40514 0.17955,1.49606c-0.22644,0.12938 -0.57738,-0.17564 -0.78226,-0.01428c-0.40561,0.31945 0.21718,1.45564 -0.18373,1.68903c-0.50083,0.29156 -0.70367,-0.8684 -1.28886,-0.50649c-0.04203,0.026 -0.24232,0.77147 -0.24652,0.77137c-0.51969,-0.41136 -1.83389,-0.09412 -2.71998,-0.0177c-0.33088,-0.22306 -0.9106,-0.21913 -1.30862,-0.36159z" fill="#3a2141" stroke="none" stroke-width="0" stroke-linecap="butt"/><path d="M329.26665,151.84402l0.03042,0.11497c-0.28546,0.08515 -0.55203,0.20014 -0.79027,0.15185c-0.97041,-0.1967 -0.93679,-3.41245 -0.94338,-4.10686c-0.57816,-1.7866 -0.0313,-5.00995 2.25323,-5.00995c2.27398,0 4.63578,-0.8597 4.65187,1.98055c0.27332,1.11088 1.96855,6.32869 0.14812,6.31946c-1.20182,0.00424 -3.18217,1.34512 -4.44968,0.80551c-0.02014,-0.15566 -0.18968,-0.19805 -0.18968,-0.19805c-0.05608,-0.01308 -0.11178,-0.02034 -0.16704,-0.02292c-0.01472,-0.01256 -0.02929,-0.0255 -0.04371,-0.03884c-0.00139,-0.03304 -0.01931,-0.24571 -0.24989,-0.24571c-0.25,0 -0.25,0.25 -0.25,0.25z" fill="#3a2141" stroke="none" stroke-width="0" stroke-linecap="butt"/><path d="M320.85414,154.50396c-2.19328,0.01872 -3.54652,-0.61322 -4.01036,-2.90457c-0.86488,-2.16219 -0.52972,-5.00018 -0.66703,-7.27298c0.45807,-0.71637 0.00691,-1.20136 0.31448,-1.95448c0.09386,-0.22982 0.92994,0.12213 1.16667,-0.33333c0.19046,-0.36645 -0.15345,-1.14828 0.23088,-1.48088c0.28089,-0.24308 0.70778,0.27646 1.07925,0.27771c2.59108,-0.72367 3.03226,0.41818 4.56351,2.49099c-0.12402,2.05285 -1.84935,5.41221 -1.07553,7.02201c0.38139,1.14724 -0.05753,3.74878 -1.48957,4.18085c-0.05799,-0.02531 -0.11229,-0.02531 -0.11229,-0.02531z" fill="#3a2141" stroke="none" stroke-width="0" stroke-linecap="butt"/><path d="M277.08331,97.41581c0,0 4.53456,-3.25929 6.26274,-5.14458c1.6268,-1.77469 3.8206,-5.85542 3.8206,-5.85542l1.83333,3.4375c0,0 -1.96085,3.80488 -3.73645,4.93171c-2.13131,1.35256 -8.18022,2.63079 -8.18022,2.63079z" fill="#000000" stroke="none" stroke-width="0" stroke-linecap="butt"/><path d="M278.91664,93.41581c0,0 4.53457,-3.25929 6.26274,-5.14458c1.6268,-1.77469 3.82059,-5.85542 3.82059,-5.85542l1.83334,3.4375c0,0 -1.96085,3.80488 -3.73645,4.9317c-2.13131,1.35256 -8.18022,2.6308 -8.18022,2.6308z" fill="#000000" stroke="none" stroke-width="0" stroke-linecap="butt"/><path d="M357.98642,95.95168c-1.7756,-1.12682 -3.73645,-4.93171 -3.73645,-4.93171l1.83334,-3.4375c0,0 2.1938,4.08073 3.8206,5.85543c1.72817,1.88528 6.26274,5.14457 6.26274,5.14457c0,0 -6.04891,-1.27823 -8.18022,-2.63079z" data-paper-data="{&quot;index&quot;:null}" fill="#000000" stroke="none" stroke-width="0" stroke-linecap="butt"/><path d="M356.81975,90.95169c-1.7756,-1.12682 -3.73645,-4.9317 -3.73645,-4.9317l1.83334,-3.4375c0,0 2.19379,4.08073 3.82059,5.85542c1.72818,1.88528 6.26274,5.14458 6.26274,5.14458c0,0 -6.04891,-1.27824 -8.18022,-2.6308z" data-paper-data="{&quot;index&quot;:null}" fill="#000000" stroke="none" stroke-width="0" stroke-linecap="butt"/><path d="M318.83575,110.40384c-0.35236,1.39294 -1.07635,2.43174 -1.29483,3.84824c0,0 -0.2055,1.23299 -1.43849,1.02749c-1.23299,-0.2055 -1.02749,-1.43849 -1.02749,-1.43849c0.0486,-0.27598 0.11267,-0.53859 0.18707,-0.79247c-0.09855,-0.08002 -0.17443,-0.17153 -0.2327,-0.26721c-0.0145,-0.01356 -0.029,-0.02758 -0.0435,-0.04208c-0.66558,-0.66558 -0.32877,-1.33116 -0.1218,-1.61933c0.0176,-0.23113 0.04418,-0.49586 0.07926,-0.7836c-1.33935,-0.80424 -2.18992,-2.93992 -1.97041,-4.54695c-2.35579,-0.00781 -4.52489,-0.71499 -7.06361,-0.14819c-0.90494,0.60742 -1.92895,0.98376 -2.85412,0.64274c-1.85342,0.83525 -2.97266,2.80043 -3.50144,4.99629c-0.18545,0.77012 -0.31987,2.1607 -0.67909,3.30238c0.30181,0.22819 0.49684,0.59018 0.49684,0.99771c0,0.20995 -0.05176,0.4078 -0.14321,0.58151l-0.6461,1.29219l-0.04379,-0.02189l-0.02133,0.13657c-1.81147,2.28514 -3.56472,4.60742 -3.52786,7.65265c0,0 0,1.25 -1.25,1.25c-0.49119,0 -0.78937,-0.19302 -0.97038,-0.42735c0.00862,0.06121 0.0173,0.12241 0.02604,0.18359l-0.02937,0.08934h0.03257v1.31469c0,0.69036 -0.55964,1.25 -1.25,1.25c-0.41416,0 -0.78127,-0.20142 -1.00873,-0.51164l-1.30596,-1.74128l0.01192,-0.00894c-0.02887,-0.03311 -0.05734,-0.06663 -0.08537,-0.10059c-0.70052,-0.84859 -1.60813,-3.8585 -1.95105,-4.88637c-2.23311,-6.69345 -3.48425,-13.90332 -3.48425,-20.95226v-1.5338c0,-0.69036 0.55964,-1.25 1.25,-1.25c0.46331,0 0.86774,0.25206 1.08365,0.62653l0.64556,1.07593l-0.02761,0.01657c0.04804,0.0666 0.09278,0.13591 0.13371,0.20833c0.1824,0.32275 0.3122,0.6641 0.40716,1.01789c0.00833,-0.62053 0.0135,-1.23933 0.01345,-1.85579l0.00001,-0.00003h-0.00001l-0.00008,-2.03051c0,-0.00002 0,-0.00004 0,-0.00006c0,-0.69036 0.55964,-1.25 1.25,-1.25c0.64351,0 1.17345,0.48627 1.2424,1.11141l0.21706,1.73646l-0.2094,0.02617l0.00002,0.4064c0,0.00001 0,0.00001 0,0.00002c0.00002,0.24821 0.00001,0.49642 -0.00002,0.74463c0.20282,1.28341 0.23308,2.56784 0.22248,3.89459c0.09013,-0.02065 0.18398,-0.03157 0.28037,-0.03157c0.23427,0 0.45348,0.06444 0.64088,0.17657c-0.01792,-0.62656 0.01862,-1.25407 0.09808,-1.88246c-0.52283,-1.3229 -0.65796,-2.76223 0.02494,-4.1575c0.44361,-0.90637 0.93934,-2.36286 1.88671,-2.461c0.41375,-1.10146 0.83502,-2.20503 1.20316,-3.31042l0.42911,-1.28734c0.15709,-0.51078 0.63267,-0.88206 1.19497,-0.88206c0.63664,0 1.16211,0.47594 1.24004,1.09142l0.21652,1.51561l-0.13801,0.01972c0.09603,0.17699 0.15058,0.37977 0.15058,0.59529v0.29325c0.27981,0.03447 0.53098,0.16141 0.72203,0.34931c0.22559,-0.22187 0.53504,-0.35875 0.87646,-0.35875c0.3704,0 0.70317,0.1611 0.93206,0.41706l0.06411,-0.19234c0.15709,-0.51078 0.63267,-0.88206 1.19497,-0.88206c0.11235,0 0.22125,0.01482 0.32483,0.04262c0.89917,-1.17866 1.86161,-2.18459 2.52384,-2.48531c0.82875,-0.37633 1.92296,-0.85844 2.70274,-0.38897c0.24185,0.14561 0.37961,0.74063 0.45472,1.4337c0.17025,-0.08686 0.36306,-0.13585 0.5673,-0.13585c0.51896,0 0.96405,0.31625 1.15307,0.76654c0.05762,-0.06704 0.11558,-0.1339 0.17388,-0.20058l0.11024,-0.03928l-0.02692,-0.03365l1.0878,-0.87024c0.21512,-0.17514 0.48962,-0.28013 0.78864,-0.28013c0.17151,0 0.33494,0.03454 0.48374,0.09704c0.22086,-0.19667 0.51195,-0.31616 0.83095,-0.31616c0.28904,0 0.55517,0.0981 0.7669,0.26283c0.21173,-0.16473 0.47786,-0.26283 0.7669,-0.26283c0.46029,0 0.86248,0.24879 1.07942,0.61923c0.15249,-0.2689 0.29743,-0.53705 0.43192,-0.80471c0.32548,-0.64773 1.13597,-2.50039 1.86599,-2.82332c0.08248,-0.03649 0.16612,-0.069 0.25077,-0.09806l-0.02394,-0.04789l1.29219,-0.6461c0.1737,-0.09145 0.37156,-0.14321 0.58151,-0.14321c0.09265,0 0.18294,0.01008 0.26985,0.0292c0.29628,-0.54828 0.59078,-1.09364 0.87921,-1.63626c0.3021,-0.56834 2.27319,-4.23078 3.3109,-4.0875c2.70981,0.37417 1.71288,3.49567 1.32803,4.70826c-0.00073,0.00231 -0.00147,0.00463 -0.0022,0.00694c0.42698,0.19882 0.72296,0.63174 0.72296,1.13379v1.31469h-0.0806c0.01459,0.13669 0.01886,0.27451 0.01014,0.41376c-0.02583,0.41225 -0.24573,0.85893 -0.58577,1.30855c0.12863,0.20688 0.25479,0.45352 0.37749,0.7447c0.27505,0.65273 -3.13926,4.68134 -3.50747,5.80766c-1.0275,3.14297 -1.57902,6.5637 -2.38585,9.77491c-0.06016,0.23945 -0.12788,0.47372 -0.20128,0.70395c-0.0343,1.30841 -0.13096,2.61229 -0.45606,3.89745zM292.52412,124.17471c0.00449,0.03696 0.009,0.07391 0.01353,0.11086c0.0032,-0.03371 0.00656,-0.06734 0.01007,-0.10091c-0.00795,-0.00325 -0.01582,-0.00657 -0.0236,-0.00995zM297.27054,110.27043c0.02238,-0.09138 0.04593,-0.18235 0.07099,-0.27279c-0.07336,0.01909 -0.14933,0.03168 -0.22728,0.03712c0.05284,0.07758 0.1046,0.15657 0.15629,0.23567zM315.54325,103.16131c0.03971,-0.02945 0.08267,-0.05685 0.12915,-0.08167c-0.03824,-0.03486 -0.07877,-0.0721 -0.12045,-0.11105c-0.04325,0.05709 -0.09129,0.11034 -0.14353,0.15917c0.04506,0.00888 0.09,0.02 0.13483,0.03355zM308.60004,102.89449c0.76676,0.08372 1.53408,0.26659 2.38507,0.50409c-0.1058,-0.41058 -0.17399,-0.85556 -0.21431,-1.30733c-0.11953,0.03798 -0.24685,0.05848 -0.37896,0.05848c-0.37778,0 -0.71641,-0.16758 -0.94562,-0.43247c-0.2778,0.40244 -0.56048,0.79535 -0.84618,1.17724zM303.00732,94.94566c0.10557,-0.07337 0.21316,-0.1448 0.32356,-0.21459c0.02578,-0.03155 0.05182,-0.06317 0.07812,-0.09486l-0.08086,-0.10107c-0.13459,0.16171 -0.22314,0.26649 -0.23391,0.28208c-0.02944,0.04263 -0.0584,0.08546 -0.08692,0.12843zM304.39944,93.5298c0.01139,-0.13465 0.02483,-0.26832 0.04068,-0.39813c-0.24608,0.3346 -0.52151,0.68225 -0.75887,0.97443l0.66321,-0.53057c0.01446,-0.01177 0.02919,-0.02323 0.04417,-0.03435c0.0036,-0.00379 0.00721,-0.00759 0.01081,-0.01138z" fill="#000000" stroke="none" stroke-width="0.5" stroke-linecap="butt"/></g></g></svg>