<svg version="1.1" xmlns="http://www.w3.org/2000/svg" xmlns:xlink="http://www.w3.org/1999/xlink" width="49.80795" height="11.51425" viewBox="0,0,49.80795,11.51425"><g transform="translate(-296.19426,-136.40136)"><g data-paper-data="{&quot;isPaintingLayer&quot;:true}" fill-rule="nonzero" stroke="none" stroke-width="0" stroke-linecap="butt" stroke-linejoin="miter" stroke-miterlimit="10" stroke-dasharray="" stroke-dashoffset="0" style="mix-blend-mode: normal"><g><g><g><path d="M297.5836,144.41917c0,0 -1.15095,-2.21584 -1.34332,-3.44496c-0.17966,-1.14789 0.22464,-3.70275 0.22464,-3.70275c0,0 1.60519,-0.87008 2.53929,-0.87008c1.71028,0 1.91779,1.36728 1.91779,1.36728c0,0 0.21109,2.18045 0.19123,3.2033c-0.02145,1.10481 -0.31553,3.19863 -0.31553,3.19863z" fill="#cccccc"/><path d="M297.61168,144.44725c0,0 -1.15095,-2.21584 -1.34332,-3.44496c-0.17966,-1.14789 0.22464,-3.70276 0.22464,-3.70276c0,0 0.84376,-0.45735 1.66379,-0.70888c-0.17453,1.04477 -0.51622,2.06007 -0.52002,3.10772l-0.09382,0.46696c-0.00387,0.01748 -0.00591,0.03566 -0.00591,0.05432c0,0.13807 0.11193,0.25 0.25,0.25c0.11032,0 0.20395,-0.07146 0.23713,-0.17061l0.15872,-0.4398c1.56264,-2.0754 -0.6655,1.71836 0.16737,2.05092c0.30998,0.12377 0.64599,-0.00676 0.95406,-0.24979c-0.01063,0.02841 -0.02156,0.05554 -0.03286,0.08121c-0.40605,0.92267 -0.74943,1.78913 -1.04507,2.65813z" fill="#b9b9b9"/></g><g><path d="M301.21632,144.57154c0,0 -1.15095,-2.21584 -1.34332,-3.44496c-0.17966,-1.14789 0.22464,-3.70275 0.22464,-3.70275c0,0 1.60519,-0.87008 2.53928,-0.87008c1.71028,0 1.91779,1.36728 1.91779,1.36728c0,0 0.21109,2.18046 0.19123,3.20331c-0.02145,1.10481 -0.31553,3.19863 -0.31553,3.19863z" fill="#cccccc"/><path d="M301.2444,144.59963c0,0 -1.15095,-2.21584 -1.34332,-3.44496c-0.17966,-1.14789 0.22464,-3.70275 0.22464,-3.70275c0,0 0.84376,-0.45735 1.66378,-0.70889c-0.17453,1.04477 -0.51621,2.06007 -0.52002,3.10772l-0.09382,0.46696c-0.00387,0.01748 -0.00591,0.03566 -0.00591,0.05432c0,0.13807 0.11193,0.25 0.25,0.25c0.11032,0 0.20395,-0.07146 0.23713,-0.17061l0.15872,-0.4398c1.56264,-2.0754 -0.6655,1.71836 0.16737,2.05092c0.30998,0.12377 0.64599,-0.00675 0.95406,-0.24979c-0.01063,0.02841 -0.02156,0.05554 -0.03286,0.08121c-0.40605,0.92267 -0.74943,1.78913 -1.04507,2.65813z" fill="#b9b9b9"/></g><g><path d="M304.57237,145.31734c0,0 -1.15095,-2.21585 -1.34332,-3.44497c-0.17966,-1.14789 0.22464,-3.70275 0.22464,-3.70275c0,0 1.60519,-0.87008 2.53928,-0.87008c1.71028,0 1.91779,1.36728 1.91779,1.36728c0,0 0.21109,2.18045 0.19123,3.2033c-0.02145,1.10481 -0.31553,3.19863 -0.31553,3.19863z" fill="#cccccc"/><path d="M304.60044,145.34542c0,0 -1.15094,-2.21584 -1.34331,-3.44496c-0.17966,-1.14789 0.22463,-3.70275 0.22463,-3.70275c0,0 0.84376,-0.45736 1.66379,-0.70889c-0.17453,1.04477 -0.51621,2.06007 -0.52002,3.10772l-0.09382,0.46696c-0.00387,0.01748 -0.00592,0.03566 -0.00592,0.05432c0,0.13807 0.11193,0.25 0.25,0.25c0.11032,0 0.20395,-0.07146 0.23713,-0.17061l0.15872,-0.4398c1.56264,-2.0754 -0.6655,1.71837 0.16737,2.05092c0.30998,0.12377 0.64598,-0.00676 0.95405,-0.24979c-0.01063,0.02841 -0.02156,0.05555 -0.03285,0.08122c-0.40605,0.92267 -0.74943,1.78913 -1.04507,2.65813z" fill="#b9b9b9"/></g><g><path d="M308.20509,145.46971c0,0 -1.15095,-2.21584 -1.34332,-3.44496c-0.17966,-1.14789 0.22464,-3.70275 0.22464,-3.70275c0,0 1.60519,-0.87008 2.53929,-0.87008c1.71028,0 1.91779,1.36727 1.91779,1.36727c0,0 0.21109,2.18046 0.19123,3.20331c-0.02145,1.10481 -0.31552,3.19863 -0.31552,3.19863z" fill="#cccccc"/><path d="M308.23317,145.49779c0,0 -1.15094,-2.21584 -1.34331,-3.44496c-0.17966,-1.14789 0.22463,-3.70276 0.22463,-3.70276c0,0 0.84376,-0.45735 1.66379,-0.70888c-0.17453,1.04477 -0.51621,2.06007 -0.52002,3.10772l-0.09382,0.46696c-0.00387,0.01748 -0.00592,0.03566 -0.00592,0.05432c0,0.13807 0.11193,0.25 0.25,0.25c0.11032,0 0.20395,-0.07146 0.23713,-0.17061l0.15872,-0.4398c1.56264,-2.0754 -0.6655,1.71836 0.16737,2.05092c0.30998,0.12377 0.64599,-0.00675 0.95406,-0.24979c-0.01063,0.02841 -0.02156,0.05554 -0.03286,0.08121c-0.40605,0.92267 -0.74943,1.78913 -1.04507,2.65813z" fill="#b9b9b9"/></g></g><g><g><path d="M311.78165,146.80891c0,0 -1.15095,-2.21584 -1.34332,-3.44496c-0.17966,-1.14789 0.22463,-3.70275 0.22463,-3.70275c0,0 1.60519,-0.87009 2.53929,-0.87009c1.71028,0 1.91779,1.36728 1.91779,1.36728c0,0 0.21109,2.18045 0.19123,3.2033c-0.02145,1.10481 -0.31552,3.19863 -0.31552,3.19863z" fill="#cccccc"/><path d="M311.80973,146.83699c0,0 -1.15095,-2.21584 -1.34332,-3.44496c-0.17966,-1.14789 0.22463,-3.70275 0.22463,-3.70275c0,0 0.84376,-0.45735 1.66379,-0.70888c-0.17453,1.04477 -0.51621,2.06007 -0.52002,3.10772l-0.09382,0.46696c-0.00387,0.01748 -0.00592,0.03566 -0.00592,0.05431c0,0.13807 0.11193,0.25 0.25,0.25c0.11032,0 0.20396,-0.07145 0.23714,-0.17061l0.15872,-0.4398c1.56264,-2.0754 -0.6655,1.71836 0.16736,2.05092c0.30998,0.12377 0.64599,-0.00676 0.95406,-0.24979c-0.01063,0.02841 -0.02157,0.05554 -0.03286,0.08121c-0.40605,0.92267 -0.74943,1.78913 -1.04507,2.65813z" fill="#b9b9b9"/></g><g><path d="M315.41436,146.96129c0,0 -1.15094,-2.21584 -1.34331,-3.44496c-0.17966,-1.14789 0.22463,-3.70275 0.22463,-3.70275c0,0 1.60519,-0.87008 2.53929,-0.87008c1.71028,0 1.91779,1.36727 1.91779,1.36727c0,0 0.21109,2.18046 0.19123,3.20331c-0.02145,1.10481 -0.31552,3.19863 -0.31552,3.19863z" fill="#cccccc"/><path d="M315.44245,146.98937c0,0 -1.15095,-2.21584 -1.34332,-3.44496c-0.17966,-1.14789 0.22463,-3.70276 0.22463,-3.70276c0,0 0.84376,-0.45735 1.66379,-0.70888c-0.17453,1.04477 -0.51621,2.06007 -0.52002,3.10772l-0.09382,0.46696c-0.00387,0.01748 -0.00592,0.03566 -0.00592,0.05432c0,0.13807 0.11193,0.25 0.25,0.25c0.11032,0 0.20396,-0.07146 0.23714,-0.17061l0.15872,-0.4398c1.56264,-2.0754 -0.6655,1.71836 0.16736,2.05092c0.30998,0.12377 0.64599,-0.00675 0.95406,-0.24979c-0.01063,0.02841 -0.02157,0.05554 -0.03286,0.08121c-0.40605,0.92267 -0.74943,1.78913 -1.04507,2.65813z" fill="#b9b9b9"/></g><g><path d="M318.77042,147.70708c0,0 -1.15095,-2.21584 -1.34332,-3.44497c-0.17966,-1.14789 0.22463,-3.70275 0.22463,-3.70275c0,0 1.60519,-0.87008 2.53928,-0.87008c1.71028,0 1.9178,1.36727 1.9178,1.36727c0,0 0.21108,2.18046 0.19122,3.2033c-0.02145,1.10481 -0.31552,3.19863 -0.31552,3.19863z" fill="#cccccc"/><path d="M318.7985,147.73516c0,0 -1.15095,-2.21584 -1.34332,-3.44496c-0.17966,-1.14789 0.22464,-3.70276 0.22464,-3.70276c0,0 0.84376,-0.45736 1.66378,-0.70889c-0.17453,1.04477 -0.51621,2.06007 -0.52002,3.10773l-0.09382,0.46696c-0.00387,0.01748 -0.00591,0.03566 -0.00591,0.05432c0,0.13807 0.11193,0.25 0.25,0.25c0.11032,0 0.20395,-0.07146 0.23713,-0.17061l0.15872,-0.4398c1.56264,-2.0754 -0.6655,1.71837 0.16737,2.05092c0.30998,0.12377 0.64598,-0.00676 0.95405,-0.24979c-0.01063,0.02841 -0.02156,0.05555 -0.03285,0.08122c-0.40605,0.92267 -0.74943,1.78913 -1.04508,2.65813z" fill="#b9b9b9"/></g><g><path d="M322.40314,147.85946c0,0 -1.15095,-2.21584 -1.34332,-3.44496c-0.17966,-1.14789 0.22463,-3.70275 0.22463,-3.70275c0,0 1.60519,-0.87009 2.53929,-0.87009c1.71028,0 1.91779,1.36728 1.91779,1.36728c0,0 0.21109,2.18046 0.19123,3.20331c-0.02145,1.10481 -0.31552,3.19863 -0.31552,3.19863z" fill="#cccccc"/><path d="M322.43122,147.88754c0,0 -1.15095,-2.21584 -1.34332,-3.44497c-0.17966,-1.14789 0.22464,-3.70275 0.22464,-3.70275c0,0 0.84376,-0.45735 1.66378,-0.70888c-0.17453,1.04477 -0.51621,2.06007 -0.52002,3.10772l-0.09382,0.46696c-0.00387,0.01748 -0.00592,0.03566 -0.00592,0.05431c0,0.13807 0.11193,0.25 0.25,0.25c0.11032,0 0.20396,-0.07145 0.23714,-0.17061l0.15872,-0.4398c1.56264,-2.0754 -0.6655,1.71836 0.16736,2.05091c0.30998,0.12377 0.64599,-0.00675 0.95406,-0.24979c-0.01063,0.02841 -0.02157,0.05554 -0.03286,0.08121c-0.40605,0.92267 -0.74943,1.78913 -1.04507,2.65813z" fill="#b9b9b9"/></g></g><g data-paper-data="{&quot;index&quot;:null}"><g><path d="M331.30256,146.5884c0,0 -0.29408,-2.09382 -0.31553,-3.19863c-0.01986,-1.02284 0.19123,-3.2033 0.19123,-3.2033c0,0 0.2075,-1.36728 1.91779,-1.36728c0.9341,0 2.53929,0.87008 2.53929,0.87008c0,0 0.40429,2.55487 0.22464,3.70275c-0.19237,1.22913 -1.34332,3.44496 -1.34332,3.44496z" fill="#cccccc"/><path d="M333.87388,146.81752c-0.29564,-0.869 -0.63903,-1.73546 -1.04507,-2.65813c-0.0113,-0.02567 -0.02222,-0.0528 -0.03286,-0.08121c0.30807,0.24303 0.64408,0.37356 0.95406,0.24979c0.83287,-0.33256 -1.39527,-4.12632 0.16737,-2.05092l0.15872,0.4398c0.03318,0.09915 0.12681,0.17061 0.23713,0.17061c0.13807,0 0.25,-0.11193 0.25,-0.25c0,-0.01865 -0.00204,-0.03683 -0.00592,-0.05432l-0.09381,-0.46696c-0.0038,-1.04765 -0.34549,-2.06295 -0.52002,-3.10772c0.82002,0.25153 1.66379,0.70889 1.66379,0.70889c0,0 0.40429,2.55487 0.22463,3.70275c-0.19237,1.22913 -1.34331,3.44496 -1.34331,3.44496z" fill="#b9b9b9"/></g><g><path d="M327.66984,146.74078c0,0 -0.29408,-2.09382 -0.31553,-3.19863c-0.01986,-1.02284 0.19123,-3.2033 0.19123,-3.2033c0,0 0.2075,-1.36728 1.91779,-1.36728c0.9341,0 2.53929,0.87008 2.53929,0.87008c0,0 0.40429,2.55487 0.22464,3.70276c-0.19237,1.22913 -1.34332,3.44496 -1.34332,3.44496z" fill="#cccccc"/><path d="M330.24116,146.96991c-0.29564,-0.869 -0.63903,-1.73546 -1.04507,-2.65814c-0.0113,-0.02567 -0.02222,-0.0528 -0.03286,-0.08121c0.30807,0.24303 0.64408,0.37356 0.95406,0.24979c0.83287,-0.33256 -1.39527,-4.12632 0.16737,-2.05092l0.15872,0.4398c0.03318,0.09915 0.12681,0.17061 0.23713,0.17061c0.13807,0 0.25,-0.11193 0.25,-0.25c0,-0.01865 -0.00204,-0.03683 -0.00591,-0.05432l-0.09382,-0.46695c-0.0038,-1.04765 -0.34548,-2.06296 -0.52002,-3.10773c0.82002,0.25153 1.66379,0.70889 1.66379,0.70889c0,0 0.40429,2.55487 0.22464,3.70275c-0.19237,1.22913 -1.34332,3.44496 -1.34332,3.44496z" fill="#b9b9b9"/></g><g><path d="M324.3138,147.48657c0,0 -0.29408,-2.09383 -0.31553,-3.19864c-0.01986,-1.02284 0.19123,-3.2033 0.19123,-3.2033c0,0 0.20751,-1.36728 1.91779,-1.36728c0.9341,0 2.53928,0.87008 2.53928,0.87008c0,0 0.40429,2.55486 0.22463,3.70275c-0.19237,1.22913 -1.34331,3.44497 -1.34331,3.44497z" fill="#cccccc"/><path d="M326.88511,147.7157c-0.29564,-0.869 -0.63903,-1.73546 -1.04507,-2.65814c-0.0113,-0.02567 -0.02222,-0.0528 -0.03285,-0.08121c0.30807,0.24303 0.64407,0.37356 0.95405,0.24979c0.83287,-0.33256 -1.39527,-4.12632 0.16737,-2.05092l0.15872,0.4398c0.03318,0.09915 0.12681,0.17061 0.23713,0.17061c0.13807,0 0.25,-0.11193 0.25,-0.25c0,-0.01865 -0.00204,-0.03683 -0.00592,-0.05432l-0.09382,-0.46696c-0.0038,-1.04765 -0.34548,-2.06295 -0.52002,-3.10772c0.82002,0.25153 1.66379,0.70889 1.66379,0.70889c0,0 0.40429,2.55487 0.22463,3.70275c-0.19237,1.22913 -1.34331,3.44496 -1.34331,3.44496z" fill="#b9b9b9"/></g><g><path d="M320.68107,147.63894c0,0 -0.29407,-2.09382 -0.31552,-3.19863c-0.01986,-1.02284 0.19123,-3.2033 0.19123,-3.2033c0,0 0.2075,-1.36728 1.91779,-1.36728c0.9341,0 2.53929,0.87008 2.53929,0.87008c0,0 0.40429,2.55487 0.22464,3.70275c-0.19237,1.22913 -1.34332,3.44497 -1.34332,3.44497z" fill="#cccccc"/><path d="M323.25239,147.86807c-0.29564,-0.869 -0.63903,-1.73546 -1.04507,-2.65813c-0.0113,-0.02567 -0.02222,-0.0528 -0.03286,-0.08121c0.30807,0.24303 0.64408,0.37356 0.95406,0.24979c0.83287,-0.33256 -1.39527,-4.12632 0.16737,-2.05092l0.15872,0.4398c0.03318,0.09915 0.12681,0.17061 0.23713,0.17061c0.13807,0 0.25,-0.11193 0.25,-0.25c0,-0.01865 -0.00204,-0.03683 -0.00592,-0.05432l-0.09382,-0.46696c-0.0038,-1.04765 -0.34548,-2.06295 -0.52002,-3.10772c0.82002,0.25153 1.66379,0.70889 1.66379,0.70889c0,0 0.40429,2.55487 0.22463,3.70275c-0.19237,1.22913 -1.34331,3.44496 -1.34331,3.44496z" fill="#b9b9b9"/></g></g><g data-paper-data="{&quot;index&quot;:null}"><g><path d="M341.39878,145.4978c0,0 -0.29407,-2.09382 -0.31552,-3.19863c-0.01986,-1.02284 0.19123,-3.2033 0.19123,-3.2033c0,0 0.20751,-1.36728 1.91779,-1.36728c0.9341,0 2.53929,0.87008 2.53929,0.87008c0,0 0.40429,2.55487 0.22463,3.70275c-0.19237,1.22913 -1.34332,3.44496 -1.34332,3.44496z" fill="#cccccc"/><path d="M343.9701,145.72693c-0.29564,-0.869 -0.63903,-1.73546 -1.04507,-2.65813c-0.0113,-0.02567 -0.02223,-0.0528 -0.03286,-0.08121c0.30807,0.24303 0.64408,0.37356 0.95406,0.24979c0.83287,-0.33256 -1.39528,-4.12632 0.16736,-2.05092l0.15872,0.4398c0.03318,0.09915 0.12682,0.17061 0.23714,0.17061c0.13807,0 0.25,-0.11193 0.25,-0.25c0,-0.01865 -0.00204,-0.03683 -0.00592,-0.05432l-0.09382,-0.46696c-0.0038,-1.04765 -0.34548,-2.06295 -0.52002,-3.10772c0.82002,0.25153 1.66379,0.70888 1.66379,0.70888c0,0 0.40429,2.55487 0.22463,3.70276c-0.19237,1.22913 -1.34332,3.44496 -1.34332,3.44496z" fill="#b9b9b9"/></g><g><path d="M337.76606,145.65017c0,0 -0.29407,-2.09382 -0.31552,-3.19863c-0.01986,-1.02284 0.19123,-3.2033 0.19123,-3.2033c0,0 0.20751,-1.36728 1.91779,-1.36728c0.9341,0 2.53929,0.87008 2.53929,0.87008c0,0 0.40429,2.55487 0.22463,3.70275c-0.19237,1.22913 -1.34331,3.44497 -1.34331,3.44497z" fill="#cccccc"/><path d="M340.33738,145.8793c-0.29564,-0.869 -0.63903,-1.73546 -1.04507,-2.65813c-0.0113,-0.02567 -0.02223,-0.0528 -0.03286,-0.08121c0.30807,0.24303 0.64408,0.37356 0.95406,0.24979c0.83287,-0.33256 -1.39528,-4.12632 0.16736,-2.05092l0.15872,0.4398c0.03318,0.09915 0.12682,0.17061 0.23714,0.17061c0.13807,0 0.25,-0.11193 0.25,-0.25c0,-0.01865 -0.00204,-0.03683 -0.00592,-0.05432l-0.09382,-0.46696c-0.0038,-1.04765 -0.34548,-2.06295 -0.52002,-3.10772c0.82002,0.25153 1.66379,0.70889 1.66379,0.70889c0,0 0.40429,2.55487 0.22463,3.70275c-0.19237,1.22913 -1.34332,3.44496 -1.34332,3.44496z" fill="#b9b9b9"/></g><g><path d="M334.41001,146.39596c0,0 -0.29407,-2.09383 -0.31552,-3.19863c-0.01986,-1.02284 0.19122,-3.2033 0.19122,-3.2033c0,0 0.20751,-1.36728 1.9178,-1.36728c0.9341,0 2.53928,0.87008 2.53928,0.87008c0,0 0.40429,2.55486 0.22463,3.70275c-0.19237,1.22913 -1.34332,3.44497 -1.34332,3.44497z" fill="#cccccc"/><path d="M336.98133,146.62509c-0.29564,-0.869 -0.63903,-1.73546 -1.04508,-2.65813c-0.0113,-0.02567 -0.02222,-0.05281 -0.03285,-0.08122c0.30807,0.24303 0.64407,0.37356 0.95405,0.24979c0.83287,-0.33256 -1.39527,-4.12632 0.16737,-2.05092l0.15872,0.4398c0.03318,0.09915 0.12681,0.17061 0.23713,0.17061c0.13807,0 0.25,-0.11193 0.25,-0.25c0,-0.01865 -0.00204,-0.03683 -0.00591,-0.05432l-0.09382,-0.46696c-0.0038,-1.04765 -0.34548,-2.06295 -0.52002,-3.10772c0.82002,0.25153 1.66378,0.70889 1.66378,0.70889c0,0 0.40429,2.55487 0.22464,3.70275c-0.19237,1.22913 -1.34332,3.44496 -1.34332,3.44496z" fill="#b9b9b9"/></g><g><path d="M330.77729,146.54834c0,0 -0.29407,-2.09382 -0.31552,-3.19863c-0.01986,-1.02284 0.19123,-3.2033 0.19123,-3.2033c0,0 0.20751,-1.36727 1.91779,-1.36727c0.9341,0 2.53929,0.87008 2.53929,0.87008c0,0 0.40429,2.55487 0.22463,3.70275c-0.19237,1.22913 -1.34332,3.44496 -1.34332,3.44496z" fill="#cccccc"/><path d="M333.34861,146.77747c-0.29564,-0.869 -0.63903,-1.73546 -1.04507,-2.65813c-0.0113,-0.02567 -0.02223,-0.0528 -0.03286,-0.08121c0.30807,0.24303 0.64408,0.37356 0.95406,0.24979c0.83287,-0.33256 -1.39528,-4.12632 0.16736,-2.05092l0.15872,0.4398c0.03318,0.09915 0.12682,0.17061 0.23714,0.17061c0.13807,0 0.25,-0.11193 0.25,-0.25c0,-0.01865 -0.00204,-0.03683 -0.00592,-0.05432l-0.09382,-0.46696c-0.0038,-1.04765 -0.34548,-2.06295 -0.52002,-3.10772c0.82002,0.25153 1.66378,0.70888 1.66378,0.70888c0,0 0.40429,2.55487 0.22464,3.70276c-0.19237,1.22913 -1.34332,3.44496 -1.34332,3.44496z" fill="#b9b9b9"/></g></g></g></g></g></svg>