<svg version="1.1" xmlns="http://www.w3.org/2000/svg" xmlns:xlink="http://www.w3.org/1999/xlink" width="94.04938" height="263.04208" viewBox="0,0,94.04938,263.04208"><g transform="translate(-272.97532,-48.47896)"><g data-paper-data="{&quot;isPaintingLayer&quot;:true}" fill-rule="nonzero" stroke-linejoin="miter" stroke-miterlimit="10" stroke-dasharray="" stroke-dashoffset="0" style="mix-blend-mode: normal"><path d="M355.38618,105.76781c0,11.07014 -8.80896,20.04427 -19.67536,20.04427c-10.8664,0 -19.67535,-8.97412 -19.67535,-20.04427c0,-11.07014 8.80895,-20.04427 19.67535,-20.04427c10.8664,0 19.67536,8.97413 19.67536,20.04427z" fill="#000000" stroke="none" stroke-width="NaN" stroke-linecap="butt"/><path d="M322.80048,105.40644c0,-5.08437 3.79445,-9.28249 8.70604,-9.91705c1.79336,-2.68341 4.85039,-4.45059 8.32017,-4.45059c5.52285,0 10,4.47715 10,10c0,1.1415 -0.19126,2.23833 -0.54349,3.2602c1.08696,1.49256 1.52457,3.13295 0.73339,4.71549c0,5.3631 -4.2219,9.74012 -9.52347,9.98884c-0.76463,0.2263 -1.54532,0.30627 -2.33133,0.19591c-1.18291,0.49268 -2.48075,0.76472 -3.84213,0.76472c-5.25603,0 -9.56497,-4.05501 -9.96904,-9.20726c-0.98168,-1.54716 -1.55014,-3.38233 -1.55014,-5.35028z" fill-opacity="0.00806" fill="#000000" stroke="#000000" stroke-width="0" stroke-linecap="butt"/><g fill="#000000" stroke="none" stroke-linecap="butt"><path d="M280.22819,177.95425c0,-21.10292 18.15751,-38.21022 40.55593,-38.21022c22.39843,0 40.82079,17.1073 40.82079,38.21022c0,2.70002 0.0039,117.77204 0.0039,117.77204l-11.39983,-0.12964l-0.14337,-113.82486c0,0 0.46851,-2.08621 -1.77595,-2.22047c-2.48625,-0.14872 -2.11767,1.68282 -2.11767,1.68282l0.10343,114.38802l-50.32146,0.07847l0.10485,-114.20488c0,0 -0.19035,-2.13951 -1.8053,-2.16297c-2.01199,-0.02922 -1.98832,2.04221 -1.98832,2.04221l-0.29988,114.25674l-11.38239,0.22905c0,0 -0.35473,-116.42094 -0.35473,-117.90653z" stroke-width="0"/><path d="M282.51338,179.2607c0,-20.02201 17.22746,-36.58913 38.47861,-36.58913c21.25115,0 38.72991,16.56711 38.72991,36.58913c0,2.56173 0.00369,114.79215 0.00369,114.79215l-7.50523,0.21307l0.19503,-111.38321c0,0 0.08238,-5.30397 -4.03353,-5.43136c-4.01424,-0.25313 -4.29562,4.92124 -4.29562,4.92124l-0.56401,112.58967l-45.42645,-0.26162l0.09948,-112.07984c0,0 0.71386,-5.00198 -3.49923,-5.04073c-4.92978,-0.04534 -4.96689,4.92616 -4.96689,4.92616l0.56795,112.12904l-7.39669,-0.11875c0,0 -0.38702,-113.84632 -0.38702,-115.25581z" stroke-width="0"/><g><path d="M309.66773,196.88952c-5.66213,0 -7.34973,-0.4705 -7.34973,-0.4705l-0.08286,-1.2733c0,0 5.25623,0.13066 7.69744,0.13066c4.20542,0 7.61458,-1.35635 7.61458,-0.87378c0,0.48257 -1.95246,2.48691 -7.87944,2.48691z" stroke-width="0"/><path d="M305.16517,191.64685c0,-0.55682 0.44467,-1.00821 0.99321,-1.00821c0.54854,0 0.99321,0.45139 0.99321,1.00821c0,0.55682 -0.44467,1.00821 -0.99321,1.00821c-0.54854,0 -0.99321,-0.45139 -0.99321,-1.00821z" stroke-width="0.5"/></g><g data-paper-data="{&quot;index&quot;:null}"><path d="M324.48294,194.40261c0,-0.48257 3.40916,0.87378 7.61458,0.87378c2.44121,0 7.69744,-0.13066 7.69744,-0.13066l-0.08286,1.2733c0,0 -1.6876,0.4705 -7.34973,0.4705c-5.92698,0 -7.87944,-2.00433 -7.87944,-2.48691z" stroke-width="0"/><path d="M335.87166,192.65505c-0.54853,0 -0.99321,-0.45139 -0.99321,-1.00821c0,-0.55682 0.44467,-1.00821 0.99321,-1.00821c0.54853,0 0.99321,0.45139 0.99321,1.00821c0,0.55682 -0.44467,1.00821 -0.99321,1.00821z" stroke-width="0.5"/></g><path d="M320.03017,245.11539c0,-0.55681 0.44467,-1.00821 0.99321,-1.00821c0.54854,0 0.99321,0.45139 0.99321,1.00821c0,0.55681 -0.44467,1.00821 -0.99321,1.00821c-0.54854,0 -0.99321,-0.45139 -0.99321,-1.00821z" stroke-width="0.5"/></g><path d="M279.4899,109.61236c2.88904,-7.12918 2.85124,-13.03672 2.85124,-13.03672c0,0 -1.85997,0.61665 -2.84266,0.69861c-1.61013,0.13429 -2.80363,-0.26204 -2.80363,-0.26204l6.42399,-6.92498c0,0 0.2475,-17.60523 8.9764,-29.16254c6.74693,-8.93313 20.64648,-12.51508 30.3551,-12.44472c8.42215,0.06104 22.55613,3.08573 28.68941,10.58184c10.08388,12.32455 6.38707,19.81995 10.11,32.42062c3.72078,12.59341 5.77495,16.18431 5.77495,16.18431c0,0 -11.21961,7.07993 -12.27708,-0.18458c-3.35821,-2.26684 5.05879,-4.66133 5.05879,-4.66133c0,0 2.51404,9.65365 0.49901,21.29599c-1.43966,8.31802 -7.42166,16.10527 -7.42166,16.10527l-1.17358,-2.98711c0,0 -0.27736,1.51046 -1.52332,3.13635c-1.38133,1.80253 -3.94985,3.49671 -3.94985,3.49671l0.00318,-3.58884c0,0 -4.58502,5.92133 -10.91754,9.01637c-6.10567,2.98416 -11.80358,2.51788 -14.49123,2.46803c-14.12802,-0.26204 -24.08852,-10.83115 -24.08852,-10.83115l-1.5995,1.70352c0,0 -3.09691,-2.20769 -5.16904,-7.29265c-3.07463,-7.54506 -3.82841,-13.97384 -3.82841,-13.97384c0,0 -3.51398,2.22964 -6.51964,2.91866c-3.62077,0.83002 -6.65099,0.20519 -6.65099,0.20519c0,0 3.61051,-2.54967 5.08456,-3.95508c1.38725,-1.32265 3.51514,-4.24416 3.51514,-4.24416c0,0 -3.21775,1.31904 -4.68875,1.66038c-2.23938,0.51964 -3.49867,0.11212 -3.5017,0.11114c0.01496,-0.01614 4.76048,-5.13461 6.10532,-8.45325zM322.80048,105.40642c0,1.96795 0.56846,3.80312 1.55014,5.35028c0.40407,5.15225 4.71301,9.20726 9.96904,9.20726c1.36138,0 2.65922,-0.27204 3.84213,-0.76472c0.78601,0.11036 1.5667,0.03039 2.33133,-0.19591c5.30157,-0.24872 9.52347,-4.62574 9.52347,-9.98884c0.79118,-1.58254 0.35357,-3.22293 -0.73339,-4.71549c0.35223,-1.02187 0.54349,-2.1187 0.54349,-3.2602c0,-5.52285 -4.47715,-10 -10,-10c-3.46978,0 -6.52681,1.76718 -8.32017,4.45059c-4.91159,0.63456 -8.70604,4.83268 -8.70604,9.91705z" fill="#000000" stroke="none" stroke-width="NaN" stroke-linecap="butt"/><g data-paper-data="{&quot;index&quot;:null}" stroke="none" stroke-width="0" stroke-linecap="butt"><path d="M340.73167,296.70779v-101.79101h21.98058v101.79101z" fill="#53305f"/><path d="M364.03237,196.84402c0,0 -13.39129,2.32021 -19.67858,2.49759c-2.96511,0.08365 3.37874,-13.55525 3.08322,-7.18678c-1.77735,38.30123 0.19641,106.84139 0.19641,106.84139l-24.89564,12.52481c0,0 4.15089,-41.85413 4.93398,-79.85759c0.41081,-19.93703 -2.88704,-39.32008 -2.19462,-49.95302c1.10613,-16.98589 8.34157,-40.34969 8.34157,-40.34969c0,0 25.6038,5.09121 26.9916,28.93106c0.22325,3.83515 1.21597,5.68616 1.82443,8.71708c0.87466,4.35691 1.39762,17.83514 1.39762,17.83514z" fill="#3d496d"/><path d="M329.59192,174.01088c0,-2.74765 1.74846,-11.84686 5.1799,-17.94508c2.38905,-4.24572 6.16413,-6.46653 8.3428,-6.46653c2.84572,0 11.58861,5.56425 13.16601,16.93789c1.14955,8.28868 4.15332,16.19427 4.15332,18.35621c0,2.53802 -25.73602,8.27282 -17.53515,4.80591c3.72608,-1.57519 0.58574,2.17872 0.16648,7.68383c-0.5614,7.3716 -11.42945,31.00725 -11.42945,31.00725c0,0 -1.60699,-30.73511 -1.85067,-34.26608c-0.46488,-6.7362 -0.19325,-17.05559 -0.19325,-20.11339z" fill="#566580"/><path d="M339.65491,218.82907c2.38438,-6.72833 6.0345,-21.1256 6.0345,-21.1256c0,0 -1.77503,16.43693 -2.20903,30.75349c-0.6459,21.3067 0.15314,45.62748 0.15314,46.40882c0,1.37201 -11.51723,-38.86127 -11.51723,-38.86127c0,0 5.43351,-11.23517 7.53862,-17.17544z" fill="#566580"/><path d="M356.62371,200.76527c2.8982,0 2.93513,2.30964 2.93513,5.15872c0,2.84908 -9.87271,37.17832 -9.87271,37.17832c0,0 -0.6226,-34.32924 -0.6226,-37.17832c0,-2.84908 2.17157,-5.15872 7.56018,-5.15872z" fill="#654779"/><path d="M359.29202,220.68859c0,0 2.22358,15.27414 2.22358,17.87761c0,2.60347 -1.71231,4.714 -3.82456,4.714c-2.11225,0 -5.78132,6.84864 -5.78132,6.84864z" fill="#654779"/></g><path d="M278.64258,296.70779v-101.79101h21.98058v101.79101z" fill="#53305f" stroke="none" stroke-width="0" stroke-linecap="butt"/><path d="M277.32247,196.84401c0,0 0.52296,-13.47823 1.39762,-17.83514c0.60846,-3.03092 1.60118,-4.88193 1.82443,-8.71708c1.3878,-23.83985 26.9916,-28.93106 26.9916,-28.93106c0,0 7.23544,23.3638 8.34157,40.34969c0.69242,10.63294 -2.60543,30.01599 -2.19462,49.95302c0.78309,38.00346 4.93398,79.85759 4.93398,79.85759l-24.89564,-12.52481c0,0 1.97376,-68.54016 0.19641,-106.84139c-0.29552,-6.36847 6.04833,7.27043 3.08322,7.18678c-6.28729,-0.17738 -19.67858,-2.49759 -19.67858,-2.49759z" fill="#3d496d" stroke="none" stroke-width="0" stroke-linecap="butt"/><path d="M273.03158,117.71263c0,0 0,0 0.00001,0c-0.00002,0.00002 -0.00003,0.00004 -0.00003,0.00004z" fill="#000000" stroke="none" stroke-width="NaN" stroke-linecap="butt"/><g><path d="M290.12576,98.44197c0.96521,-0.18364 5.78639,4.94033 6.72949,9.89722c0.94309,4.95689 -0.15061,10.72809 -0.15061,10.72809c0,0 -6.46652,-3.53164 -7.66724,-8.4325c-3.07712,-12.5596 0.12316,-12.00917 1.08836,-12.19281z" fill="#000000" stroke="none" stroke-width="0" stroke-linecap="butt"/><path d="M289.85337,99.49444c1.31694,-0.1432 3.38354,5.86128 4.11895,9.72657c0.73541,3.86529 0.71005,7.6557 0.71005,7.6557c0,0 -4.13639,-3.64493 -5.07269,-7.46653c-2.39948,-9.79373 -0.51797,-9.83292 0.24369,-9.91574z" fill="#ffffff" stroke="none" stroke-width="0" stroke-linecap="butt"/><path d="M294.42698,114.16648c0,0 -3.02608,-5.45514 -3.46106,-7.54108c-0.69361,-3.32613 1.47037,-3.38348 1.47037,-3.38348" fill="none" stroke="#000000" stroke-width="0.5" stroke-linecap="round"/></g><g data-paper-data="{&quot;index&quot;:null}"><path d="M353.88305,110.50907c-1.20072,4.90086 -7.66724,8.4325 -7.66724,8.4325c0,0 -0.13666,-0.7211 -0.2717,-1.87244c2.47006,-1.8208 4.07247,-4.75059 4.07247,-8.05465c0.79118,-1.58254 0.35357,-3.22293 -0.73339,-4.71549c0.35223,-1.02187 0.54349,-2.1187 0.54349,-3.2602c0,-0.0699 -0.00072,-0.13962 -0.00214,-0.20918c1.30216,-1.58872 2.53252,-2.59661 2.97016,-2.51335c0.96521,0.18363 4.16548,-0.36679 1.08836,12.19281z" fill="#000000" stroke="none" stroke-width="0" stroke-linecap="butt"/><path d="M350.48414,103.11621c0,0 2.16397,0.05735 1.47037,3.38348c-0.26572,1.27427 -1.49839,3.80586 -2.41746,5.58308" fill="none" stroke="#000000" stroke-width="0.5" stroke-linecap="round"/></g><path d="M297.10034,135.49642c-1.12791,-6.71582 -0.20637,-6.94188 -1.0642,-13.44379c-0.47362,-3.58977 -2.15797,-7.18909 -2.73202,-11.13223c-1.20896,-8.30433 -1.27196,-25.65977 -0.47554,-29.40025c4.41933,-20.75585 15.3863,-24.96608 29.85603,-25.48425c20.77576,-0.74399 24.79696,12.48506 27.42961,23.79025c1.68189,7.22242 1.31467,17.05316 0.03543,26.05402c-0.19665,-0.53894 -0.49329,-1.06879 -0.86646,-1.58121c0.35223,-1.02187 0.54349,-2.1187 0.54349,-3.2602c0,-5.52285 -4.47715,-10 -10,-10c-3.46978,0 -6.52681,1.76718 -8.32017,4.45059c-4.91159,0.63456 -8.70604,4.83268 -8.70604,9.91705c0,1.96795 0.56846,3.80312 1.55014,5.35028c0.40407,5.15225 4.71301,9.20726 9.96904,9.20726c1.36138,0 2.65922,-0.27204 3.84213,-0.76472c0.78601,0.11036 1.5667,0.03039 2.33133,-0.19591c3.47316,-0.16294 6.48295,-2.09768 8.14588,-4.92072c-0.8021,3.52465 -1.6852,6.74003 -2.34208,9.9016c-1.22544,5.89815 -0.7524,7.76045 -1.86263,12.66938c-1.15349,5.10023 -6.83176,10.81045 -11.83191,15.83737c-4.57165,4.59612 -7.90818,8.33063 -12.38271,8.22359c-5.04445,-0.12068 -8.96195,-6.22631 -14.50155,-12.44391c-4.38889,-4.92605 -8.03319,-9.29321 -8.61781,-12.77419z" fill="#000000" stroke="none" stroke-width="0" stroke-linecap="butt"/><path d="M290.24901,92.15844v-21.15411c0,0 21.21081,-18.67174 31.8391,-18.67174c9.85589,0 29.78844,18.67174 29.78844,18.67174l0.9522,14.8825c0,0 -4.02246,-9.83788 -7.66885,-7.46317c-3.58931,2.33754 -8.09884,4.34045 -12.35135,5.93521c-7.20699,2.70273 -13.67575,4.23311 -13.67575,4.23311c0,0 2.88671,-3.50484 4.29889,-5.2734c0.74057,-0.92746 1.4281,-2.38433 1.4281,-2.38433c0,0 -9.19557,5.48816 -17.51331,7.89872c-11.3727,3.29591 -17.09747,3.32547 -17.09747,3.32547z" fill="#000000" stroke="none" stroke-width="0" stroke-linecap="butt"/><path d="M325.13824,97.1057l-0.26203,-4.42239c0,0 5.28442,-1.73418 9.39801,-1.86949c1.93577,-0.06368 3.62752,0.07878 4.87624,0.24747c-3.01812,0.20154 -5.6697,1.74214 -7.36581,4.03289c-3.92225,0.7313 -6.64641,2.01153 -6.64641,2.01153z" data-paper-data="{&quot;index&quot;:null}" fill="#000000" stroke="none" stroke-width="0" stroke-linecap="butt"/><g stroke="none" stroke-width="0" stroke-linecap="butt"><path d="M298.6548,103.73851c0,0 -0.12279,-6.93911 -1.89814,-14.06879c-1.07018,-4.29777 -1.49037,-8.15146 -1.44965,-11.58846c0.05243,-4.42539 1.51919,-7.55379 1.35531,-11.65195c-0.47781,-11.94878 1.42489,-16.50206 1.42489,-16.50206c0,0 12.12428,15.90737 12.84217,19.11565c1.40138,6.26278 2.71896,13.95027 3.1113,21.88355c0.28134,5.68883 -0.41019,7.59194 -0.41019,7.59194z" fill="#566580"/><path d="M312.70824,78.43926c-0.09946,0.01192 -0.31097,0.03671 -0.41047,0.04828c-1.05952,0.12335 -1.57655,0.7953 -3.7654,1.06633c-3.18374,0.39423 -6.55748,0.26054 -6.55748,0.26054c0,0 3.31286,-1.73819 5.7417,-3.15666c2.92399,-1.70666 3.94495,-4.00195 3.94495,-4.00195c0,0 0.14798,0.81991 0.2201,1.23512c0.25716,1.48042 0.60991,2.99136 0.82659,4.54833z" fill="#3d496d"/><path d="M298.6548,103.73851c0,0 -0.12279,-6.93911 -1.89814,-14.06879c-0.4232,-1.69955 -0.74477,-3.32966 -0.97637,-4.89201c2.18919,-0.63771 4.45256,-1.75638 6.65706,-2.19187c3.41314,-0.67427 6.92697,-0.92996 10.38246,-1.33223c0.10289,-0.01199 0.20576,-0.02416 0.3086,-0.03651c0.42427,3.13675 0.74869,6.4017 0.91227,9.70936c0.28134,5.68883 -0.41019,7.59194 -0.41019,7.59194z" fill="#3d496d"/><path d="M313.55345,84.86818c0.17762,1.31319 0.23906,2.66034 0.3772,4.0122c-2.82431,0.43775 -11.08969,-1.09383 -13.19332,-0.37497c1.70637,-1.01168 9.60465,-2.33033 12.72711,-3.6266c0.02967,-0.00353 0.05934,-0.00708 0.08901,-0.01063z" fill="#2c2f5d"/><path d="M298.6548,103.73851c0,0 -0.12279,-6.93911 -1.89814,-14.06879c-0.4232,-1.69955 1.03327,0.27943 3.35908,-0.11396c4.00324,-0.67711 5.37565,0.43706 8.04067,1.23594c3.54736,1.06338 5.81893,-1.18635 5.88426,0.13475c0.28134,5.68883 -0.41019,7.59194 -0.41019,7.59194z" fill="#2c2f5d"/></g><g data-paper-data="{&quot;index&quot;:null}" stroke="none" stroke-width="0" stroke-linecap="butt"><path d="M324.14841,118.31601c0,0 -2.59903,-4.60813 -0.40629,-12.03303c2.64939,-8.97116 7.41077,-18.63026 11.69131,-26.31624c4.7631,-8.55246 8.93082,-14.66184 8.93082,-14.66184c0,0 6.90071,5.18372 6.48174,22.20297c-0.11587,4.70683 -0.79159,10.31889 -2.32795,16.97689c-1.91778,8.31091 -5.39274,18.23218 -5.39274,18.23218z" fill="#566580"/><path d="M343.28437,91.27681c-5.13612,-4.99152 -7.57499,-6.06534 -7.57499,-6.06534c0,0 2.05505,-1.29963 8.66265,2.85902c5.64373,3.55202 6.19486,4.09054 6.19486,4.09054c0,0 -0.05108,0.53233 -0.07912,0.8021c-0.18637,1.79303 -0.61071,4.93364 -0.9568,6.94438c-0.45616,-0.97604 -2.95857,-5.43523 -6.2466,-8.63069z" fill="#3d496d"/><path d="M324.14841,118.31601c0,0 -2.59903,-4.60813 -0.40629,-12.03303c1.96659,-6.65911 5.09685,-13.69727 8.33034,-20.02613c2.00731,-3.92888 17.69507,12.8131 16.44558,18.22792c-1.91778,8.31091 -5.39274,18.23218 -5.39274,18.23218z" fill="#3d496d"/><path d="M324.14841,118.31601c0,0 -2.59903,-4.60813 -0.40629,-12.03303c0.6091,-2.06249 1.32983,-4.16135 2.13069,-6.26423c0.77776,-2.04222 0.81122,3.9702 10.61218,7.00365c9.75281,3.01854 11.50606,-0.35716 11.37455,0.15417c-1.38428,5.3823 -2.38659,12.89176 -3.31881,15.67637c-0.11671,0.34861 -3.30254,5.05569 -9.08731,5.91932c-7.22526,1.07869 -13.19075,4.25879 -13.19075,4.25879z" fill="#2c2f5d"/><path d="M334.36936,104.97597c-5.37881,-2.7513 -7.50385,-5.91398 -8.03307,-6.15237c0.46005,-1.16567 0.94288,-2.33069 1.44312,-3.48956c0.74569,0.35259 -0.46533,3.22869 6.45552,7.22997c4.31963,2.49739 8.72719,4.68203 8.72719,4.68203c0,0 -4.16915,-0.00736 -8.59275,-2.27007z" fill="#2c2f5d"/></g><path d="M297.976,133.2187c-0.33616,-2.10447 -0.30018,-4.90075 -0.35805,-7.96877c2.23379,-0.70055 4.57352,-2.53268 6.82139,-2.9231c3.39758,-0.75206 6.8995,-0.97043 10.37323,-0.98184c0.76358,-0.00251 2.2876,-0.11985 2.2876,-0.11985c0,0 -0.84858,1.332 -0.94655,1.45712c-1.33932,1.71048 -2.53474,2.42602 -4.30901,3.58066c-0.83305,0.54259 -1.82032,0.84082 -2.574,1.48599l-0.42405,0.20106c-0.08719,0.03904 -0.14792,0.12657 -0.14792,0.22828c0,0.13276 0.10347,0.24133 0.23416,0.2495l0.49665,0.03566l0.00814,-0.11348c1.84071,0.10175 6.5712,0.56717 6.5712,0.56717c0,0 -2.15808,1.56562 -2.36726,1.78072c-1.15874,1.52459 -2.49295,3.10168 -4.35885,3.67484c-1.66491,0.51142 -2.79884,2.28456 -4.32232,3.596c-1.18265,1.02607 -3.34323,-0.45915 -5.44037,0.46391c-0.68716,-1.48706 -1.22157,-3.19531 -1.544,-5.21386z" fill-opacity="0.19355" fill="#000000" stroke="none" stroke-width="0" stroke-linecap="butt"/><path d="M324.54052,110.7567c0.13293,1.69499 1.54512,3.24178 3.42261,4.5369c0.01232,1.89205 0.08498,3.78939 0.08499,5.65407c0.00001,3.50418 18.3017,-5.97016 18.59711,-2.47716c0.21845,2.56918 -1.45025,7.77175 -1.45025,7.77175c0,0 -1.75319,3.46641 -11.01473,4.88996c-4.75267,0.73051 -5.87582,8.09883 -5.88215,8.09883c-0.25,0 -0.25,0.25 -0.25,0.25c0.03902,2.34016 3.46774,5.74429 4.74061,7.71586c0.34326,0.53168 0.71411,1.03976 1.10541,1.53049c-1.31909,1.20111 -2.63784,2.36426 -3.82892,3.50015c-2.62204,2.50056 -5.47801,6.21315 -8.77908,6.21315c-4.10432,0 -6.9048,-3.78999 -10.07829,-7.4154c-4.79276,-5.47527 -11.46201,-7.91572 -13.04194,-17.80658c-0.52264,-3.27185 -0.14577,-8.2159 -0.62048,-13.25355c1.64966,-1.19782 3.98849,-2.20905 4.30717,-3.65467c0.75539,-3.46238 5.16218,-4.35585 8.15682,-5.00647c3.42348,-0.74379 6.83143,-1.44054 10.29175,-1.98847c1.08934,-0.17249 2.17317,-0.37347 3.25484,-0.58541c0.25239,0.71643 0.58408,1.39547 0.98452,2.02658z" fill="#ffffff" stroke="none" stroke-width="0" stroke-linecap="butt"/><path d="M301.51324,100.91069c3.72242,0.06992 1.84035,3.0592 0.29902,4.48884c-0.10658,0.09886 -1.22688,1.09542 -1.22657,1.10848c0.01561,0.67624 1.12769,0.57768 1.51781,0.71058c0.60949,0.26829 2.37596,0.32288 2.75017,0.70152c0.12015,0.12157 -0.40029,1.28388 -0.5762,1.40739c-1.54676,1.08605 -2.67078,2.29821 -3.85795,3.82677c-1.23025,0.97974 -2.42637,1.9804 -3.62565,2.97661c-0.89007,-3.931 -2.81097,-4.34959 -2.81393,-16.13114c2.54256,0.19473 5.02368,0.84543 7.5333,0.91094z" fill-opacity="0.19355" fill="#000000" stroke="none" stroke-width="0" stroke-linecap="butt"/><path d="M297.976,133.2187c-0.30853,-1.9315 -0.30358,-4.44577 -0.34542,-7.21804c2.53722,-0.64589 5.17872,-1.31924 7.73829,-1.32196c0.62411,-0.00017 3.18734,-1.45765 3.18734,-1.45765c0,0 -0.39692,1.6359 -0.57226,1.81411c-0.47366,0.48142 -0.95796,0.81319 -1.42221,1.28556c-1.06725,1.08592 -1.86388,2.46766 -0.27081,3.43156c1.1658,1.12882 2.85002,1.41643 4.44169,1.68555c-1.84053,1.09964 -3.36589,3.51961 -5.42913,5.02014c-0.83188,0.60501 -1.65468,1.2108 -2.47607,1.81375c-1.00985,-0.13128 -2.16801,-0.34069 -3.30743,0.16083c-0.68716,-1.48706 -1.22157,-3.19531 -1.544,-5.21386z" fill-opacity="0.19355" fill="#000000" stroke="none" stroke-width="0" stroke-linecap="butt"/><path d="M309.71132,135.22992c-1.66491,0.51142 -2.79884,2.28456 -4.32232,3.596c-0.375,0.32536 -0.84833,0.39821 -1.38679,0.37542c0.67145,-0.49313 1.34474,-0.9877 2.02401,-1.48172c2.13846,-1.55525 3.71081,-3.81574 5.49532,-5.05597c0.11529,-0.08013 2.2266,-2.37796 2.2266,-2.37796c0,0 -1.01154,2.31111 -0.90333,2.3386l0.01459,-0.00958l-0.00165,0.01175l0.03062,0.0043l0.00027,0.06965l0.26757,-0.00101c-0.95008,1.11057 -2.04863,2.10163 -3.4449,2.53053z" fill-opacity="0.19355" fill="#000000" stroke="none" stroke-width="0" stroke-linecap="butt"/><g stroke="none" stroke-width="0" stroke-linecap="butt"><path d="M307.88968,97.58467c5.64136,0 10.21459,4.47197 10.21459,9.98843c0,5.51646 -4.7706,9.74171 -10.41197,9.74171c-5.64137,0 -10.31875,-4.22525 -10.31875,-9.74171c0,-5.51645 4.87476,-9.98843 10.51613,-9.98843z" fill="#000000"/><path d="M307.88968,97.83904c4.97522,0 8.78866,3.85659 8.78866,8.8032c0,4.94661 -4.01083,9.08774 -8.98605,9.08774c-4.97523,0 -8.81106,-3.98769 -8.81106,-8.9343c0,-4.94662 4.03322,-8.95664 9.00844,-8.95664z" fill="#ffffff"/></g><path d="M294.85046,105.54405l-1.78408,-6.26584l7.19167,-1.18423l0.32653,-1.46623c0,0 3.68245,-1.72538 7.2562,-2.03587c3.72054,-0.32324 9.00496,-0.09575 9.00496,-0.09575l0.32754,4.71657c0,0 -4.80797,-1.2906 -8.17678,-1.07798c-6.17314,0.38961 -6.13035,5.40804 -10.09703,6.09492c-3.96668,0.68688 -5.96411,-3.31373 -5.96411,-3.31373z" fill="#000000" stroke="none" stroke-width="0" stroke-linecap="butt"/><g stroke="none" stroke-linecap="butt"><path d="M329.05381,134.68303c2.14614,0.63336 4.57,2.14674 7.10189,3.18958c3.1668,1.30434 5.91835,2.72636 5.91835,2.98404c0,0.09852 0.6422,0.57742 0.34258,1.11686c-1.789,3.22099 -9.63005,12.83494 -20.94009,13.0257c-12.59325,-0.3248 -20.68677,-10.85655 -23.27914,-15.25835c-0.66575,-1.13043 -0.11257,-1.97072 -0.18768,-1.99564c-0.32963,-0.10935 2.17574,-0.56882 4.39722,-1.19556c1.32363,-0.37344 6.02869,-2.52762 9.16564,-2.62169c0,0 6.11008,0.84857 11.13979,1.05021c0,0 4.30069,-0.8974 6.34144,-0.29515z" fill="#000000" stroke-width="NaN"/><path d="M302.5719,137.90518c0,0 4.45428,-1.58314 9.14685,-1.84617c3.5353,-0.19816 8.14505,1.24124 10.14351,1.24124c1.78589,0 3.62586,-1.29154 6.32678,-0.57417c4.23256,1.12417 8.12418,3.53158 8.12418,3.53158c0,0 -3.47556,-0.50449 -6.7587,-0.10932c-2.77486,0.33399 -5.25973,0.85453 -6.95291,0.86581c-2.06827,0.01378 -6.82484,-0.83276 -11.18375,-1.76195c-4.64917,-0.99105 -8.84595,-1.34702 -8.84595,-1.34702z" fill="#ffffff" stroke-width="0"/><path d="M313.57977,141.66485c5.82065,1.20577 8.52116,2.22429 8.52116,2.22429c0,0 2.73973,-0.85807 10.10428,-1.81233c3.83362,-0.49674 8.34249,0.13003 8.34249,0.13003c0,0 -1.67172,2.4939 -5.81691,5.31831c-3.13971,2.13931 -7.86424,4.77611 -13.40623,4.89818c-13.03253,0.28708 -21.37398,-13.37554 -21.37398,-13.37554c0,0 7.27229,1.30021 13.62919,2.61706z" fill="#ffffff" stroke-width="0"/></g><path d="M307.36609,102.62477c2.71342,0 4.91309,2.23007 4.91309,4.98099c0,2.75092 -2.19966,4.98098 -4.91309,4.98098c-2.71342,0 -4.91309,-2.23006 -4.91309,-4.98098c0,-2.75092 2.19966,-4.98099 4.91309,-4.98099z" fill="#000000" stroke="none" stroke-width="0" stroke-linecap="butt"/><g stroke="none" stroke-width="0" stroke-linecap="butt"><path d="M318.27576,115.69993c-0.17487,-2.97289 -0.92532,-8.11666 -0.92532,-8.11666c0,0 -0.33218,-1.57308 0.02454,-1.56279c0.72424,0.02089 3.69895,0.74156 5.76195,1.2617c0.26433,0.99195 0.67733,1.92324 1.21369,2.76855c0.08467,1.07959 0.34079,2.111 0.74114,3.06703l-0.27826,14.97008c0,0 0.82184,1.93768 0.72844,3.69896c-0.06976,1.31553 -0.97469,4.70292 -1.02626,5.67536c-0.11348,2.13998 -0.40577,3.89334 -0.40577,3.89334l-4.14036,-0.01448c0,0 -0.12488,-2.01528 -0.87252,-4.2695c-0.71961,-2.16969 -2.11593,-4.55553 -2.18508,-5.58924c-0.19992,-2.98816 1.64422,-3.39436 1.64464,-3.39445c-0.00008,-0.01074 -0.06325,-8.68907 -0.28083,-12.3879z" fill="#000000"/><path d="M320.91863,141.07171c0,0 -0.2909,-3.80356 -0.49735,-8.24071c-0.20504,-4.40659 -0.32473,-9.70108 -0.5883,-13.30096c-0.42508,-5.80554 -1.77895,-15.81414 -1.77895,-15.81414l4.74892,1.46572c-0.00165,0.07474 -0.00248,0.14968 -0.00248,0.22481c0,1.76541 0.45748,3.42396 1.26034,4.86359l-0.6545,30.76117z" fill="#ffffff"/><path d="M318.50104,129.9718c0.34401,0 0.62288,4.77542 0.62288,4.77542c0,0 -1.24576,-1.59275 -1.24576,-2.7251c0,-1.13236 0.27887,-2.05032 0.62288,-2.05032z" fill="#ffffff"/></g><path d="M297.19336,108.16544c0,0 -0.16627,-2.22288 0.81062,-4.59656c1.16899,-2.84044 3.93233,-5.91812 9.99819,-5.95021c4.4123,-0.02334 6.77688,1.48178 8.31843,3.36171c2.53146,3.08714 2.42486,7.54013 2.42486,7.54013c0,0 -3.8425,-3.63892 -10.73391,-3.68259c-6.35827,-0.0403 -10.81819,3.32752 -10.81819,3.32752z" fill="#000000" stroke="none" stroke-width="0" stroke-linecap="butt"/><path d="M308.01154,114.2279c6.89141,-0.04367 10.57432,-7.3532 10.57432,-7.3532c0,0 -0.53176,3.65503 -3.06322,6.74218c-1.54155,1.87993 -3.26777,3.22545 -7.68007,3.20211c-6.06586,-0.03209 -7.23328,-2.15222 -8.40228,-4.99266c-0.97689,-2.37368 -1.44899,-2.65515 -1.44899,-2.65515c0,0 3.66196,5.09702 10.02024,5.05673z" data-paper-data="{&quot;index&quot;:null}" fill="#000000" stroke="none" stroke-width="0" stroke-linecap="butt"/><path d="M307.48826,115.54523c6.89141,-0.04367 10.57432,-7.3532 10.57432,-7.3532c0,0 1.24479,3.45764 -1.28667,6.54479c-1.54155,1.87993 -5.04432,3.42284 -9.45662,3.3995c-6.06586,-0.03209 -7.23328,-2.15222 -8.40228,-4.99266c-0.97689,-2.37368 -1.44899,-2.65515 -1.44899,-2.65515c0,0 3.66196,5.09702 10.02024,5.05673z" data-paper-data="{&quot;index&quot;:null}" fill-opacity="0.35484" fill="#000000" stroke="none" stroke-width="0" stroke-linecap="butt"/><path d="M311.76293,174.01089c0,3.0578 0.27163,13.37719 -0.19325,20.11339c-0.24368,3.53097 -1.85067,34.26608 -1.85067,34.26608c0,0 -10.86805,-23.63565 -11.42945,-31.00725c-0.41926,-5.50511 -3.5596,-9.25902 0.16648,-7.68383c8.20087,3.46691 -17.53515,-2.26789 -17.53515,-4.80591c0,-2.16194 3.00377,-10.06753 4.15332,-18.35621c1.5774,-11.37364 10.32029,-16.93789 13.16601,-16.93789c2.17867,0 5.95375,2.22081 8.3428,6.46653c3.43144,6.09822 5.1799,15.19743 5.1799,17.94508z" fill="#566580" stroke="none" stroke-width="0" stroke-linecap="butt"/><path d="M309.23852,236.00451c0,0 -11.51723,40.23328 -11.51723,38.86127c0,-0.78134 0.79905,-25.10212 0.15314,-46.40882c-0.434,-14.31656 -2.20903,-30.75349 -2.20903,-30.75349c0,0 3.65012,14.39727 6.03451,21.1256c2.10511,5.94027 7.53862,17.17544 7.53862,17.17544z" fill="#566580" stroke="none" stroke-width="0" stroke-linecap="butt"/><path d="M292.2913,205.92399c0,2.84908 -0.6226,37.17832 -0.6226,37.17832c0,0 -9.87271,-34.32924 -9.87271,-37.17832c0,-2.84908 0.03693,-5.15872 2.93513,-5.15872c5.38861,0 7.56018,2.30964 7.56018,5.15872z" fill="#654779" stroke="none" stroke-width="0" stroke-linecap="butt"/><path d="M289.44512,250.12883c0,0 -3.66907,-6.84864 -5.78132,-6.84864c-2.11225,0 -3.82456,-2.11053 -3.82456,-4.714c0,-2.60347 2.22358,-17.87761 2.22358,-17.87761z" fill="#654779" stroke="none" stroke-width="0" stroke-linecap="butt"/></g></g></svg>