<svg version="1.1" xmlns="http://www.w3.org/2000/svg" xmlns:xlink="http://www.w3.org/1999/xlink" width="223.89198" height="201.6825" viewBox="0,0,223.89198,201.6825"><g transform="translate(-128.05401,-79.15875)"><g data-paper-data="{&quot;isPaintingLayer&quot;:true}" fill-rule="nonzero" stroke-linejoin="miter" stroke-miterlimit="10" stroke-dasharray="" stroke-dashoffset="0" style="mix-blend-mode: normal"><g><path d="M270.36158,267.50523c0,0 -0.63536,-94.38387 -0.79335,-118.01201c-0.05451,-8.15261 8.18688,-36.76129 40.20201,-36.9211c31.60235,-0.15775 39.85672,29.48704 39.84884,36.89673c-0.07659,46.24274 0.65429,117.98648 0.65429,117.98648l-10.49667,0.09614l-0.15882,-114.84311c0,0 0.07549,-3.0993 -2.81625,-3.15415c-3.43441,-0.06514 -2.94538,3.11562 -2.94538,3.11562l0.20548,114.86995l-48.21366,0.07222l-0.30539,-115.23309c0,0 0.27949,-2.919 -2.8856,-2.93443c-3.11083,-0.01515 -2.81569,2.90899 -2.81569,2.90899l0.35311,115.0668z" fill="#ffffff" stroke="#000000" stroke-width="2" stroke-linecap="butt"/><path d="M324.95876,163.4474c-0.57113,0 -1.03411,-0.46299 -1.03411,-1.03411c0,-0.57113 0.46299,-1.03413 1.03411,-1.03413c0.57113,0 1.03411,0.463 1.03411,1.03413c0,0.57113 -0.46299,1.03411 -1.03411,1.03411z" fill="#000000" stroke="none" stroke-width="1.5" stroke-linecap="butt"/><path d="M319.69888,167.68301c-4.4635,-0.31439 -6.55245,-1.79392 -6.16985,-2.58011c0.11788,-0.24224 2.84645,1.06355 6.97038,1.3048c6.40897,0.37493 8.51033,-0.63173 8.51033,-0.63173v1.34616c0,0 -2.4135,1.04672 -9.31086,0.56089z" fill="#000000" stroke="#000000" stroke-width="0" stroke-linecap="butt"/><path d="M291.88612,162.41329c0,-0.57113 0.46299,-1.03413 1.03411,-1.03413c0.57113,0 1.03413,0.463 1.03413,1.03413c0,0.57113 -0.463,1.03411 -1.03413,1.03411c-0.57113,0 -1.03411,-0.46299 -1.03411,-1.03411z" fill="#000000" stroke="none" stroke-width="1.5" stroke-linecap="butt"/><path d="M298.18012,167.68301c-6.89736,0.48585 -9.31086,-0.56089 -9.31086,-0.56089v-1.34616c0,0 2.10136,1.00666 8.51033,0.63173c4.12393,-0.24126 6.85251,-1.54704 6.97039,-1.3048c0.3826,0.78618 -1.70634,2.26571 -6.16985,2.58011z" fill="#000000" stroke="#000000" stroke-width="0" stroke-linecap="butt"/><path d="M309.46058,224.23473c-0.81895,0 -1.48284,-0.66389 -1.48284,-1.48284c0,-0.81895 0.66389,-1.48284 1.48284,-1.48284c0.81895,0 1.48284,0.66389 1.48284,1.48284c0,0.81895 -0.66389,1.48284 -1.48284,1.48284z" data-paper-data="{&quot;index&quot;:null}" fill="#000000" stroke="none" stroke-width="1.5" stroke-linecap="butt"/><path d="M285.39731,267.51964v-119.20147c0,0 0.75721,-9.73105 0.75721,-14.63937c0,-4.498 -0.75721,-13.6872 -0.75721,-13.6872c0,0 2.67319,-2.35297 4.6557,-3.74807c1.98251,-1.3951 5.17197,-2.80371 5.17197,-2.80371c0,0 -0.6016,40.10902 14.55952,40.03867c15.43477,-0.07162 13.83154,-40.03867 13.83154,-40.03867c0,0 3.91276,1.51959 6.16585,2.94655c2.25309,1.42695 4.75379,3.60523 4.75379,3.60523c0,0 -0.75721,9.42463 -0.75721,14.19201c0,4.84193 0.75721,14.63937 0.75721,14.63937v118.69667z" fill="#ffffff" stroke="#000000" stroke-width="2" stroke-linecap="butt"/><path d="M267.88851,166.24632c0,0 -0.20077,-19.78975 -0.17393,-20.19035c0.477,-7.12005 4.83854,-22.18371 21.24252,-29.82731c0.11034,-0.05141 3.572,23.68508 18.69216,22.32661c15.12015,-1.35847 15.97782,-25.4525 16.00113,-25.44362c19.86495,7.57333 26.84005,27.0305 26.83354,33.1572c-0.00223,1.34726 0.03762,3.75205 0.09456,6.46006c-2.16362,0.69298 -4.32627,1.38894 -6.48896,2.08491c-2.21381,0.71242 -4.42142,1.44255 -6.62791,2.17675c-0.26106,-2.56984 -0.69024,-4.71783 -1.39514,-5.03636c-2.23441,0.13486 -2.14538,2.91562 -2.14538,2.91562c0,0 1.72243,9.01032 1.94722,17.2226c0.5287,19.3149 1.1916,97.44735 1.1916,97.44735l-53.88033,-0.26111c0,0 0.14832,-70.98622 0.36852,-91.69851c0.11397,-10.71959 0.85942,-23.80125 0.85942,-23.80125c0,0 1.25691,-2.90771 -1.90818,-2.92314c-1.51083,0.58485 -1.27952,17.05479 -1.27952,17.05479z" fill="#e2e2e2" stroke="#000000" stroke-width="0" stroke-linecap="butt"/><path d="M265.87933,169.09213v-11.2h16.2v11.2z" fill="#eaeaea" stroke="#000000" stroke-width="0" stroke-linecap="butt"/><path d="M283.16069,268.78026v-53.6c0,0 5.37449,-6.65157 9.75686,-16.12746c3.16014,-6.8331 4.74837,-16.57486 8.42726,-19.54035c3.30715,-2.66584 14.62862,-5.64786 20.46776,-10.31741c9.61454,-7.68873 13.94812,-20.21478 13.94812,-20.21478l1.4,119.8z" fill-opacity="0.1909" fill="#000000" stroke="none" stroke-width="0" stroke-linecap="butt"/><path d="M337.54598,161.62548l-1,-8.81217l13.73334,-3.25449l1.66667,9.56321z" fill="#eaeaea" stroke="#000000" stroke-width="0" stroke-linecap="butt"/><path d="M291.41873,143.86838c8.71219,0 15.77481,7.31217 15.77481,16.33217c0,9.02002 -7.06262,16.33218 -15.77481,16.33218c-3.10837,0 -5.49426,0.64604 -6.5723,-0.90717c-1.94351,-2.80015 -0.86985,-9.29426 -0.86985,-15.09609c0,-9.02002 -1.27005,-16.66109 7.44214,-16.66109z" data-paper-data="{&quot;index&quot;:null}" fill-opacity="0.12097" fill="#000000" stroke="none" stroke-width="0" stroke-linecap="butt"/><path d="M329.51072,146.35865l-0.45981,-20.69505c0,0 0.08114,5.56798 2.63919,12.88657c2.35419,5.14776 5.64175,11.29396 5.64175,11.29396z" data-paper-data="{&quot;index&quot;:null}" fill="#e2e2e2" stroke="#000000" stroke-width="0" stroke-linecap="round"/><path d="M279.67363,151.29372c0,0 3.80464,-8.42061 5.31911,-12.41376c1.71836,-6.6888 4.3478,-13.81456 4.3478,-13.81456l-1.64361,21.83297z" data-paper-data="{&quot;index&quot;:null}" fill="#e2e2e2" stroke="#000000" stroke-width="0" stroke-linecap="round"/><path d="M334.15323,160.01961c0,5.80183 2.57365,12.29594 0.63015,15.09609c-1.07804,1.5532 -4.96392,0.90717 -8.07229,0.90717c-3.72751,0 -9.56515,-2.10602 -12.26478,-4.34415c-3.61014,-2.99298 -3.51003,-6.82722 -3.51003,-11.98802c0,-9.02001 7.06262,-16.33217 15.77481,-16.33217c8.71219,0 7.44214,7.64108 7.44214,16.66109z" data-paper-data="{&quot;index&quot;:null}" fill-opacity="0.12097" fill="#000000" stroke="none" stroke-width="0" stroke-linecap="butt"/><path d="M303.62926,169.39521c0,0 2.45845,-3.15386 3.11151,-4.17781c0.73271,-1.1488 1.42374,-3.8033 1.42374,-3.8033c0,0 1.97691,4.11822 2.04153,4.22732c0.70861,1.19636 3.30976,4.12184 3.30976,4.12184l-4.99502,-3.87761l-0.18857,-1.3828l-0.6914,1.75993z" fill="#c8c8c8" stroke="#000000" stroke-width="0" stroke-linecap="round"/><path d="M291.06576,140.92103c8.99501,0 16.28691,7.54954 16.28691,16.86237c0,9.31284 -7.2919,16.86236 -16.28691,16.86236c-8.99502,0 -16.28691,-7.54953 -16.28691,-16.86236c0,-9.31284 7.2919,-16.86237 16.28691,-16.86237z" data-paper-data="{&quot;index&quot;:null}" fill="#e2e2e2" stroke="none" stroke-width="0" stroke-linecap="butt"/><path d="M341.11269,157.40703c0,9.31442 -7.26158,16.86522 -16.2192,16.86522c-8.9576,0 -16.21919,-7.55082 -16.21919,-16.86522c0,-9.31442 7.26158,-16.86522 16.21919,-16.86522c8.9576,0 16.2192,7.55082 16.2192,16.86523z" fill="#e2e2e2" stroke="none" stroke-width="0" stroke-linecap="butt"/><g stroke="#000000" stroke-width="0" stroke-linecap="butt"><path d="M277.77933,117.98438l14.55,-5.06859l9.25,24.48694l-4.71682,3.47595z" fill="#eaeaea"/><path d="M314.52933,137.25178l9.9,-25.29959l16.05,6.62113l-21.68668,22.27167z" data-paper-data="{&quot;index&quot;:null}" fill="#eaeaea"/><path d="M293.67933,141.51241l7.7,-7.03796l5.35,10.3767l0.32155,8.94759z" fill="#dadada"/><path d="M308.30778,153.71788l0.71457,-8.81484l4.95698,-8.86654l9.95,4.90456z" data-paper-data="{&quot;index&quot;:null}" fill="#dadada"/></g><g fill="#000000" stroke="none" stroke-width="0" stroke-linecap="butt"><path d="M303.46857,197.15557c0,0 2.69836,-27.73487 3.01168,-37.03009c0.19779,-5.86772 -1.31322,-13.35765 -1.31322,-13.35765l6.03898,0.18872c0,0 -2.29082,7.89335 -1.93206,13.4857c0.59041,9.20344 5.14027,36.52461 5.14027,36.52461c0,0 -3.70316,6.30456 -5.65557,6.33822c-1.6422,0.02831 -5.29008,-6.14951 -5.29008,-6.14951z"/><path d="M303.22506,149.69291l-1.69846,-13.96514c0,0 4.48021,-1.93897 6.66011,-1.96781c2.52397,-0.03339 7.60333,1.77909 7.60333,1.77909l-1.69846,14.72002z"/></g><path d="M282.71069,268.94694v-34.75c0,0 7.51251,18.46192 15.94774,14.63482c3.87262,-1.75702 13.46225,-24.89695 20.48161,-32.41744c3.45114,-3.69753 7.59387,5.59673 10.2365,4.62443c5.09748,-1.87551 7.33415,-11.34181 7.33415,-11.34181l0.5,59.25z" fill-opacity="0.09892" fill="#000000" stroke="none" stroke-width="0" stroke-linecap="butt"/></g><g><path d="M128.86839,280.54028c0,0 5.3295,-95.08562 5.17151,-118.71376c-0.05451,-8.15261 11.34475,-36.76129 43.35988,-36.9211c31.60235,-0.15775 42.66371,29.48704 42.65583,36.89673c-0.07659,46.24274 6.97003,119.0391 6.97003,119.0391l-22.45274,-0.78982l2.67451,-115.00977c0,0 0.07549,-3.0993 -2.81625,-3.15415c-3.43441,-0.06514 -2.94538,3.11562 -2.94538,3.11562l0.20548,114.86995l-48.21366,0.07222l-0.30539,-115.23309c0,0 0.27949,-2.919 -2.8856,-2.93443c-3.11083,-0.01515 -2.81569,2.90899 -2.81569,2.90899l2.68644,115.0668z" fill="#101010" stroke="#000000" stroke-width="0" stroke-linecap="butt"/><path d="M204.82512,280.18034l0.33333,-31.69058c0,0 12.10724,-41.9345 14.9106,-41.9345c2.52917,0 4.00514,42.01784 4.00514,42.01784l3.50513,32.04625z" fill="#000000" stroke="none" stroke-width="0" stroke-linecap="butt"/><path d="M128.05401,279.91319l5.41751,-78.92488c0,0 3.02611,12.03528 5.36759,14.91709c2.09939,2.58385 9.45108,1.57767 9.45108,1.57767l1.92096,62.76345z" fill="#000000" stroke="none" stroke-width="0" stroke-linecap="butt"/><path d="M151.15286,235.2803c0,0 -1.01767,-47.53187 -1.60316,-47.63717c-0.55428,-0.09969 4.76983,2.30384 4.76983,2.30384c0,0 2.76007,0.19479 5.68242,-0.16368c0.60197,-0.07384 4.30282,-0.20386 8.11501,-1.20911c2.34484,-0.61832 4.62819,-1.9822 6.56573,-2.63865c2.02648,-0.68658 3.35214,-2.1699 3.62469,-2.18664c3.29474,-0.20231 5.01217,3.19808 5.01217,3.19808c0,0 6.70418,1.09203 12.50761,0.84641c1.95748,-0.08284 3.99413,-0.28792 5.48353,-0.71096c1.24914,-0.3548 1.8478,-1.12845 2.81973,-0.98417c2.06838,0.30705 -1.46864,3.18894 -0.8893,3.20166c2.26237,0.0497 -6.52558,17.60053 -13.53896,29.56443c-3.97292,6.77728 -9.04927,11.58263 -9.04927,11.58263c0,0 -20.48163,4.83785 -24.71436,5.53135c-5.34068,0.87502 -4.78566,-0.69803 -4.78566,-0.69803z" fill="#313131" stroke="none" stroke-width="0" stroke-linecap="butt"/><path d="M155.14561,233.47616c0,1.60163 0.55926,14.36667 -0.06667,14.36667c-0.16549,0 -0.25573,-2.31746 -0.66513,-2.62398c-0.68867,-0.51561 -1.79256,0.75578 -2.11714,-0.15866c-0.21227,-0.59803 0.51559,-1.38485 0.51559,-1.8507c0,-0.88222 0.48728,-1.5391 0.7302,-2.07099c0.19808,-0.43373 0.12199,-0.82902 0.40313,-0.82902c0.06856,0 -3.64994,-1.29656 -3.59271,-1.79145c0.05632,-0.48701 3.89124,-0.16818 3.60889,-0.68953c-0.36864,-0.68068 -1.86123,-0.93157 -1.78779,-1.44832c0.12787,-0.89978 1.8577,-0.21889 2.38158,-0.78942c0.84868,-0.92427 0.59003,-2.75036 0.59003,-2.11461z" fill="#9a9a9a" stroke="none" stroke-width="0" stroke-linecap="butt"/><path d="M162.96069,216.83503c0,0.28781 3.93797,2.28623 3.115,2.53381c-0.50117,0.15077 -3.93522,-0.61544 -3.76635,-0.4566c1.09713,1.032 4.37899,1.16422 4.1556,1.80517c-0.24556,0.70457 -4.50727,1.11761 -5.25426,1.11761c-1.30314,0 -2.91746,-1.18798 -3.36881,-3.10275c-0.13845,-0.58736 0.28548,-1.39409 0.28548,-2.06392c0,-0.3881 -0.68704,-2.64262 -0.23842,-2.87286c0.52604,-0.26998 2.20734,1.49342 2.32272,1.11395c0.50967,-1.6763 -0.20066,-3.40776 0.99903,-3.40776c0.60424,0 5.50121,-0.04209 5.97699,0.46119c0.5003,0.52922 -2.37923,0.23772 -3.35049,1.23779c-0.38001,0.39128 -0.68791,0.93563 -0.81443,1.70774c-0.10925,0.66674 -0.06206,1.5669 -0.06206,1.92661z" fill="#ffffff" stroke="#000000" stroke-width="0.5" stroke-linecap="butt"/><path d="M157.75307,218.08909c0.07906,-0.23717 0.31623,-0.15811 0.31623,-0.15811l0.28078,0.09593c0.0032,0.0021 0.0064,0.00421 0.00961,0.00631c0.08626,-0.15467 0.27452,-0.1076 0.27452,-0.1076c0.81263,0.20361 1.65212,0.7869 2.49925,1.03993c-0.84103,-0.60262 -1.91381,-1.39451 -2.80988,-1.38073c0,0 -0.25,0 -0.25,-0.25c0,-0.25 0.25,-0.25 0.25,-0.25c0.13206,0.00147 0.26552,0.01584 0.3998,0.04113c-0.17629,-0.08529 -0.33188,-0.1684 -0.45514,-0.24979c0,0 -0.20801,-0.13868 -0.06934,-0.34669c0.13868,-0.20801 0.34669,-0.06934 0.34669,-0.06934c0.9626,0.64695 2.74325,1.06903 3.40267,1.986l0.07046,-0.0016c0,0 0.22361,0.1118 0.1118,0.33541c-0.04557,0.09113 -0.1097,0.12655 -0.1697,0.13653l0.0579,0.02806c0,0 0.10229,0.05115 0.13391,0.15344c0.07325,0.02196 0.17095,0.08054 0.17095,0.23683c0,0.25 -0.25,0.25 -0.25,0.25h-0.16667c-1.10885,-0.01234 -2.1231,-0.77978 -3.16945,-1.11045c-0.00737,0.02603 -0.01994,0.05357 -0.0392,0.08246c-0.13868,0.20801 -0.34669,0.06934 -0.34669,0.06934c-0.07372,-0.05003 -0.14744,-0.10007 -0.22116,-0.1501l-0.21922,-0.07074c0,0 -0.23717,-0.07906 -0.15811,-0.31623zM160.53276,217.95281c0.29975,0.19381 0.58967,0.39868 0.8625,0.59028c-0.19629,-0.20986 -0.50678,-0.40575 -0.8625,-0.59028z" fill="#c3c3c3" stroke="none" stroke-width="0.5" stroke-linecap="butt"/><path d="M152.46737,188.34923l-1.60089,15.29741c0,0 -1.00533,-6.44163 -2.17884,-9.11292c-1.07002,-2.43571 -4.13579,-5.7398 -4.13579,-5.7398z" fill="#313131" stroke="#000000" stroke-width="0" stroke-linecap="round"/><path d="M202.37173,162.23019l-0.62787,-28.25901c0,0 0.1108,7.60305 3.60381,17.59655c3.21463,7.02924 7.70377,15.42184 7.70377,15.42184z" data-paper-data="{&quot;index&quot;:null}" fill="#393939" stroke="#000000" stroke-width="0" stroke-linecap="round"/><path d="M152.00178,188.98131l-2.06983,15.35681c0,0 -0.45118,-7.84657 -1.27745,-10.30209c-0.74563,-2.2159 -3.46313,-3.78612 -3.46313,-3.78612z" fill="#404040" stroke="#000000" stroke-width="0" stroke-linecap="round"/><path d="M140.30792,169.44806c0,0 5.19522,-11.4983 7.26323,-16.95094c2.34641,-9.13354 5.93691,-18.86371 5.93691,-18.86371l-2.24434,29.81282z" data-paper-data="{&quot;index&quot;:null}" fill="#393939" stroke="#000000" stroke-width="0" stroke-linecap="round"/><path d="M152.61981,133.3135c0,0 -0.34653,-1.10897 1.84737,-2.53933c2.19391,-1.43037 7.93672,-2.78416 7.93672,-2.78416c0,0 -2.76386,21.00055 13.83672,20.69986c15.05903,-0.20659 13.15659,-21.22195 13.75032,-21.03258c1.75713,0.56044 6.57781,2.1698 8.44145,3.26333c2.49334,1.46302 3.62144,2.61122 3.62144,2.61122c0,0 1.63925,47.9245 1.63925,51.20762c0,5.54134 -1.76041,85.92855 -2.76238,94.29284c-0.06906,0.5765 -13.22128,1.1835 -25.32794,1.06827c-13.12273,-0.1249 -23.4653,0.54112 -23.53254,-0.29148c0,0 -2.75521,-88.61616 -2.75521,-93.98448z" fill="#393939" stroke="#000000" stroke-width="0" stroke-linecap="butt"/><path d="M157.98741,155.96219c11.09783,0 20.0944,9.31444 20.0944,20.80438c0,11.48995 -8.99657,20.80438 -20.0944,20.80438c-11.09784,0 -20.0944,-9.31443 -20.0944,-20.80438c0,-11.48995 8.99657,-20.80438 20.0944,-20.80438z" data-paper-data="{&quot;index&quot;:null}" fill="#393939" stroke="none" stroke-width="0" stroke-linecap="butt"/><path d="M207.9326,190.48077c0,0 -2.71749,1.57022 -3.46313,3.78611c-0.82626,2.45552 -1.27745,10.3021 -1.27745,10.3021l-2.06983,-15.35682z" data-paper-data="{&quot;index&quot;:null}" fill="#313131" stroke="#000000" stroke-width="0" stroke-linecap="round"/><path d="M209.34057,190.33567c0,0 -3.06576,3.30409 -4.13579,5.73981c-1.17352,2.67129 -2.17884,9.11291 -2.17884,9.11291l-1.60089,-15.29741z" data-paper-data="{&quot;index&quot;:null}" fill="#313131" stroke="#000000" stroke-width="0" stroke-linecap="round"/><path d="M171.71208,192.07234c0,0 3.04532,-3.90674 3.85428,-5.17512c0.90761,-1.42304 1.76361,-4.71121 1.76361,-4.71121c0,0 2.44883,5.1013 2.52888,5.23645c0.87777,1.48195 4.49494,5.40211 4.49494,5.40211l-6.58251,-5.09959l-0.23358,-1.7129l-0.85645,2.18005z" fill="#272727" stroke="#000000" stroke-width="0" stroke-linecap="round"/><path d="M172.97045,190.30112c0,0 2.04323,-3.17795 2.85219,-4.44633c0.90761,-1.42304 1.49031,-4.62011 1.49031,-4.62011c0,0 1.90224,4.7369 1.98229,4.87205c0.87777,1.48195 2.85516,4.03562 2.85516,4.03562" fill="none" stroke="#000000" stroke-width="0.5" stroke-linecap="round"/><g stroke="#282828" stroke-width="0" stroke-linecap="butt"><path d="M218.76069,106.70875c0,16.43047 -18.06826,38.15 -40.85,38.15c-22.78174,0 -42.45,-19.51953 -42.45,-35.95c0,-16.43047 18.46826,-29.75 41.25,-29.75c22.78175,0 42.05,11.11953 42.05,27.55z" fill="#313131"/><path d="M214.36069,106.52187c0,6.98923 -5.26573,15.94158 -11.10534,23.97397c-2.12156,2.91822 -7.35234,5.90385 -9.77744,8.31528c-4.77661,4.74968 -7.30711,7.84765 -14.2418,7.84765c-9.44207,0 -16.49903,-5.79736 -23.45785,-12.81614c-7.88912,-7.9571 -15.08165,-17.65516 -15.08165,-25.37526c0,-14.52984 16.3319,-26.3086 36.47831,-26.3086c20.14641,0 37.18577,9.83326 37.18577,24.36309z" fill="#000000"/></g><path d="M151.07991,93.75731c0,0 1.85311,-1.66877 1.83118,-1.63496c-0.00674,0.0104 -1.83118,-1.70771 -1.83118,-1.70771l3.65362,-0.77737v5.36383z" fill="#000000" stroke="none" stroke-width="0" stroke-linecap="butt"/><path d="M199.45693,95.57011v-5.36382l3.65362,0.77736c0,0 -1.82444,1.71811 -1.83119,1.70771c-0.02193,-0.03381 1.83119,1.63497 1.83119,1.63497z" data-paper-data="{&quot;index&quot;:null}" fill="#000000" stroke="none" stroke-width="0" stroke-linecap="butt"/><path d="M152.33567,280.54654l-1.03092,-45.50877c0,0 19.48933,-2.45463 26.31608,-4.00728c9.682,-2.20204 26.51446,-43.45142 26.51446,-43.45142l-1.89947,93.17366z" fill="#000000" stroke="none" stroke-width="0" stroke-linecap="butt"/><path d="M217.46107,176.83891c0,11.32667 -8.83035,20.50873 -19.72313,20.50873c-10.89277,0 -19.72313,-9.18207 -19.72313,-20.50873c0,-11.32667 8.83035,-20.50873 19.72313,-20.50873c10.89277,0 19.72313,9.18207 19.72313,20.50874z" fill="#393939" stroke="none" stroke-width="0" stroke-linecap="butt"/></g></g></g></svg>