<svg version="1.1" xmlns="http://www.w3.org/2000/svg" xmlns:xlink="http://www.w3.org/1999/xlink" width="343.8048" height="285.6114" viewBox="0,0,343.8048,285.6114"><defs><linearGradient x1="35.9444" y1="265.68591" x2="35.9444" y2="324.82624" gradientUnits="userSpaceOnUse" id="color-1"><stop offset="0" stop-color="#030404"/><stop offset="1" stop-color="#586c76"/></linearGradient></defs><g transform="translate(-18.14754,-46.33358)"><g data-paper-data="{&quot;isPaintingLayer&quot;:true}" fill-rule="nonzero" stroke-linejoin="miter" stroke-miterlimit="10" stroke-dasharray="" stroke-dashoffset="0" style="mix-blend-mode: normal"><path d="M281.0304,304.39159c0,0 -0.63536,-94.38387 -0.79335,-118.01201c-0.05451,-8.15261 8.18688,-36.76129 40.20201,-36.9211c31.60235,-0.15775 39.85672,29.48704 39.84884,36.89673c-0.07659,46.24274 0.65429,117.98648 0.65429,117.98648l-10.49667,0.09614l-0.15882,-114.84311c0,0 0.07549,-3.0993 -2.81625,-3.15415c-3.43441,-0.06514 -2.94538,3.11562 -2.94538,3.11562l0.20548,114.86995l-48.21366,0.07222l-0.30539,-115.23309c0,0 0.27949,-2.919 -2.8856,-2.93443c-3.11083,-0.01515 -2.81569,2.90899 -2.81569,2.90899l0.35311,115.0668z" fill="#ffffff" stroke="#000000" stroke-width="2" stroke-linecap="butt"/><path d="M335.62758,200.33378c-0.57113,0 -1.03411,-0.46299 -1.03411,-1.03411c0,-0.57113 0.46299,-1.03413 1.03411,-1.03413c0.57113,0 1.03411,0.463 1.03411,1.03413c0,0.57113 -0.46299,1.03411 -1.03411,1.03411z" fill="#000000" stroke="none" stroke-width="1.5" stroke-linecap="butt"/><path d="M330.36769,204.56937c-4.4635,-0.31439 -6.55245,-1.79392 -6.16985,-2.58011c0.11788,-0.24224 2.84645,1.06355 6.97038,1.3048c6.40897,0.37493 8.51033,-0.63173 8.51033,-0.63173v1.34616c0,0 -2.4135,1.04672 -9.31086,0.56089z" fill="#000000" stroke="#000000" stroke-width="0" stroke-linecap="butt"/><path d="M302.55494,199.29967c0,-0.57113 0.46299,-1.03413 1.03411,-1.03413c0.57113,0 1.03413,0.463 1.03413,1.03413c0,0.57113 -0.463,1.03411 -1.03413,1.03411c-0.57113,0 -1.03411,-0.46299 -1.03411,-1.03411z" fill="#000000" stroke="none" stroke-width="1.5" stroke-linecap="butt"/><path d="M308.84894,204.56937c-6.89736,0.48585 -9.31086,-0.56089 -9.31086,-0.56089v-1.34616c0,0 2.10136,1.00666 8.51033,0.63173c4.12393,-0.24126 6.85251,-1.54704 6.97039,-1.3048c0.3826,0.78618 -1.70634,2.26571 -6.16985,2.58011z" fill="#000000" stroke="#000000" stroke-width="0" stroke-linecap="butt"/><path d="M320.12939,261.12113c-0.81895,0 -1.48284,-0.66389 -1.48284,-1.48284c0,-0.81895 0.66389,-1.48284 1.48284,-1.48284c0.81895,0 1.48284,0.66389 1.48284,1.48284c0,0.81895 -0.66389,1.48284 -1.48284,1.48284z" data-paper-data="{&quot;index&quot;:null}" fill="#000000" stroke="none" stroke-width="1.5" stroke-linecap="butt"/><path d="M288.96851,95.34249c0.33654,-2.27063 -6.91776,-38.42317 29.21775,-39.82382c18.6045,-0.3808 5.77312,23.3639 5.14223,46.006c-0.78338,28.11471 7.05797,56.3716 -2.51945,56.2905c0.11627,-0.01551 -8.19786,3.71186 -18.80037,-1.80148c-0.43746,-0.22748 -3.73759,5.86608 -3.73759,5.86608c0,0 -3.54974,-3.88445 -4.98809,-10.10344c-0.03785,-0.16366 -2.88893,2.2306 -2.88893,2.2306c0,0 -2.14499,-4.78062 -1.62312,-6.68429c0.08574,-0.31277 -2.60891,-1.06067 -2.60891,-1.06067c0,0 5.01599,-4.73823 4.44452,-6.34136c-2.72545,-7.64567 -0.90613,-16.57657 -0.90613,-16.57657c0,0 -0.86023,-27.1358 -0.73191,-28.00154z" fill="#000000" stroke="none" stroke-width="1.5" stroke-linecap="butt"/><path d="M350.48721,124.14403c0,0 1.81933,8.93091 -0.90612,16.57658c-0.57147,1.60313 4.44452,6.34136 4.44452,6.34136c0,0 -2.69465,0.74791 -2.60891,1.06068c0.52187,1.90367 -1.62312,6.68429 -1.62312,6.68429c0,0 -2.85108,-2.39426 -2.88893,-2.2306c-1.43835,6.21899 -4.98809,10.10344 -4.98809,10.10344c0,0 -3.30014,-6.09356 -3.73759,-5.86608c-10.60251,5.51334 -18.91664,1.78596 -18.80037,1.80147c-9.57741,0.0811 -1.73606,-28.1758 -2.51945,-56.29051c-0.6309,-22.6421 -13.46227,-46.38679 5.14222,-46.00599c36.13551,1.40065 28.88121,37.55319 29.21775,39.82382c0.12832,0.86574 -0.73191,28.00154 -0.73191,28.00154z" data-paper-data="{&quot;index&quot;:null}" fill="#000000" stroke="none" stroke-width="1.5" stroke-linecap="butt"/><path d="M292.7128,115.20173c-0.57709,-7.29323 0.335,-17.15448 0.335,-17.15448c0,0 3.41059,-0.04124 13.91429,-3.14424c8.0696,-2.38394 20.54731,-9.48722 20.54731,-9.48722c0,0 -2.16005,3.00503 -3.40781,4.46015c-1.32651,1.54696 -3.99292,4.56297 -3.99292,4.56297c0,0 7.838,-1.66761 14.67476,-4.72931c8.56837,-3.53575 10.59252,-6.05309 12.95042,-4.5927c2.7829,1.72362 1.03006,23.1827 0.71846,28.74062c-0.42163,5.66922 -2.53327,9.49969 -3.15031,12.52053c-0.61704,3.02084 -0.4096,6.13662 -2.20622,16.0397c-1.12121,6.18021 -4.16183,8.92466 -10.01942,14.66081c-5.85759,5.73616 -9.05378,9.25275 -13.01359,9.32173c-3.81077,0.06639 -8.93565,-5.1002 -13.93542,-10.38244c-5.32393,-5.62474 -8.87489,-8.47713 -9.71551,-15.13975c-0.75707,-6.00039 -0.77653,-9.90853 -1.12266,-15.24835c-0.25298,-3.90273 -2.26119,-6.44504 -2.57636,-10.42801z" fill="#ffffff" stroke="#000000" stroke-width="1.5" stroke-linecap="butt"/><path d="M340.7828,100.08136c0,0 1.52429,0.31807 4.2558,1.11029c2.49492,0.72361 4.44935,1.74403 4.44935,1.74403l0.1951,1.17035c0,0 -7.24963,-3.12997 -15.1158,-2.4706c-6.2896,0.52724 -9.96319,2.8124 -9.96319,2.8124l0.04575,-4.17683c0,0 3.12748,-1.70421 7.86366,-1.85557c4.90428,-0.15672 8.09084,0.59125 8.09084,0.59125z" data-paper-data="{&quot;index&quot;:null}" fill="#000000" stroke="none" stroke-width="1.5" stroke-linecap="butt"/><path d="M328.01867,143.06892c0.5704,0.21186 3.08357,1.39942 6.02385,2.59586c2.9637,1.20597 7.21362,2.29294 7.19412,2.4605c-0.02476,0.21265 -10.43477,0.22694 -13.67937,0.63224c-2.71902,0.33964 -6.68867,0.70564 -6.68867,0.70564c0,0 -7.10401,-1.16169 -13.27235,-2.44521c-4.94371,-1.02869 -10.39929,-1.66108 -10.40995,-1.75461c-0.01439,-0.12613 3.86835,-0.71071 6.82417,-1.39467c1.14585,-0.49661 5.43971,-1.48513 5.43971,-1.48513c0,0 4.95585,-0.27766 7.60826,0.579c2.84203,0.91791 2.83546,2.44556 3.0831,2.46906c0,0 1.18436,-1.74932 2.36886,-2.10461c1.18451,-0.35528 5.08219,-0.41633 5.50828,-0.25808z" fill="#ffffff" stroke="#000000" stroke-width="1.4" stroke-linecap="butt"/><path d="M309.37068,147.6225c5.09114,1.02674 11.91756,2.80736 11.91756,2.80736c0,0 5.78976,-1.55585 8.44678,-1.8344c2.05992,-0.21596 11.216,-0.70654 11.26026,-0.33377c0.04328,0.36447 -9.03119,12.90033 -21.14808,12.44714c-13.76954,-0.43578 -22.86459,-15.13559 -22.82675,-15.30472c0.03784,-0.16913 7.2591,1.19165 12.35024,2.2184z" fill="#ffffff" stroke="#000000" stroke-width="1.9" stroke-linecap="butt"/><path d="M320.34494,144.62882c-1.03376,0 -3.5381,-3.26042 -3.7867,-5.3637c-0.22243,-1.88186 1.31512,-3.82799 3.7867,-3.82799c2.47159,0 4.2021,0.49077 4.02999,4.18853c-0.14607,3.13818 -1.55841,5.00317 -4.02999,5.00317z" fill="#ffffff" stroke="#000000" stroke-width="1.15" stroke-linecap="butt"/><path d="M323.94705,114.5351c0,0 0.1026,3.96976 0.00576,7.12662c-0.19174,6.25113 -1.08147,27.7607 -1.08147,27.7607l-2.98167,0.00864c0,0 -0.80294,-4.17274 -1.12322,-9.49979c-0.43353,-7.21063 -0.4495,-16.29321 -0.76344,-19.63229c-0.29758,-3.16513 -0.89593,-5.71453 -0.89593,-5.71453" fill="#ffffff" stroke="#000000" stroke-width="1.3" stroke-linecap="round"/><path d="M294.20984,121.37738c0,0 -3.56385,-2.92338 -4.31816,-8.45061c-0.42079,-3.08327 2.15675,-2.28016 2.15675,-2.28016" fill="none" stroke="#000000" stroke-width="0.25" stroke-linecap="round"/><path d="M297.22326,114.72148c0.07093,-4.89188 4.83834,-8.93609 10.21137,-8.8582c5.37302,0.0779 9.02724,4.2484 8.95632,9.14029c-0.07093,4.89188 -4.12352,8.79439 -9.49655,8.7165c-5.37302,-0.0779 -9.74207,-4.1067 -9.67114,-8.99859z" fill="#ffffff" stroke="#000000" stroke-width="1.4" stroke-linecap="butt"/><path d="M301.6609,114.83942c0.03999,-2.75843 2.30855,-4.96213 5.06696,-4.92214c2.75843,0.03999 4.96213,2.30855 4.92214,5.06696c-0.03999,2.75843 -2.30854,4.96213 -5.06696,4.92214c-2.75843,-0.03999 -4.96213,-2.30855 -4.92214,-5.06696z" fill="#000000" stroke="none" stroke-width="1.5" stroke-linecap="butt"/><path d="M324.27952,114.72221c0.20353,-4.88817 4.45264,-8.85847 9.77048,-8.85847c5.31783,0 9.27453,3.96607 9.27453,8.85847c0,4.8924 -3.88585,9.07104 -9.69964,9.14188c-5.52997,0.06739 -9.55792,-4.03692 -9.34537,-9.14188z" fill="#ffffff" stroke="#000000" stroke-width="1.4" stroke-linecap="butt"/><path d="M328.88228,114.80776c0,-2.81845 2.2848,-5.10325 5.10325,-5.10325c2.81845,0 5.10325,2.2848 5.10325,5.10325c0,2.81845 -2.28479,5.10325 -5.10325,5.10325c-2.81845,0 -5.10325,-2.2848 -5.10325,-5.10325z" fill="#000000" stroke="none" stroke-width="1.5" stroke-linecap="butt"/><path d="M297.15482,114.1893c0,0 0.06357,-9.01512 10.60111,-8.8249c9.47101,0.16586 9.55554,9.40723 9.55554,9.40723z" fill="#ffffff" stroke="#000000" stroke-width="1.15" stroke-linecap="butt"/><path d="M323.90189,114.3202c0,0 -0.24686,-9.4582 11.19813,-9.1032c9.71427,0.33347 9.54677,9.65229 9.54677,9.65229z" fill="#ffffff" stroke="#000000" stroke-width="1.15" stroke-linecap="butt"/><path d="M300.68467,104.17764c0,0 3.36963,-1.819 8.03244,-2.28178c5.16698,-0.51283 7.76823,-0.06628 7.76823,-0.06628l0.29508,4.13747c0,0 -3.83554,-0.68065 -8.01795,-0.52113c-5.59346,0.21333 -6.64488,1.43293 -10.89774,1.89119c-3.64408,0.39266 -6.73723,0.15884 -6.73723,0.15884l-0.02589,-1.23155c0,0 3.59517,0.07398 5.23371,-0.06836c1.35239,-0.11749 3.9757,-0.93808 3.9757,-0.93808z" fill="#000000" stroke="none" stroke-width="1.5" stroke-linecap="butt"/><path d="M349.05819,110.64662c0,0 2.57754,-0.80312 2.15675,2.28016c-0.75431,5.52723 -4.31816,8.45061 -4.31816,8.45061" data-paper-data="{&quot;index&quot;:null}" fill="none" stroke="#000000" stroke-width="0.25" stroke-linecap="round"/><g stroke="none" stroke-width="0" stroke-linecap="butt"><path d="M18.14754,324.82624v-59.14034h35.59372v59.14034z" fill="url(#color-1)"/><path d="M64.69316,315.51712v-76.1158h72.28263v76.1158z" fill="#8395a1"/><path d="M74.54989,318.2551v-67.90187h73.37783v67.90187z" fill="#566580"/><path d="M82.21622,323.73105v-64.6163h70.09225v64.6163z" fill="#3d496d"/><path d="M90.43017,331.94498v-62.42591h68.44947v62.42591z" fill="#2c2f5d"/><path d="M169.28395,305.1128v-67.90187h73.92542v67.90187z" fill="#8c82a1"/><path d="M179.14067,311.68395v-64.0687h68.44946v64.0687z" fill="#705d86"/><path d="M187.9022,320.44548v-62.97351h67.90187v62.97351z" fill="#654779"/><path d="M200.4969,329.7546v-59.68793h64.61629v59.68793z" fill="#53305f"/></g><path d="M306.31076,122.6735l0.14286,17.42857" fill="none" stroke="#1e2629" stroke-width="2.5" stroke-linecap="round"/><path d="M308.73933,121.24492l0.14286,15.14286" fill="none" stroke="#1e2629" stroke-width="3" stroke-linecap="round"/><path d="M301.59648,140.79254c0,1.10457 -0.83147,2 -1.85714,2c-1.02567,0 -1.85714,-0.89543 -1.85714,-2c0,-1.10457 0.83147,-2 1.85714,-2c1.02567,0 1.85714,0.89543 1.85714,2z" fill="#1e2629" stroke="none" stroke-width="0" stroke-linecap="butt"/><path d="M309.73933,139.00683c0,0.51284 -0.35178,0.92857 -0.78571,0.92857c-0.43394,0 -0.78571,-0.41574 -0.78571,-0.92857c0,-0.51284 0.35178,-0.92857 0.78571,-0.92857c0.43394,0 0.78571,0.41574 0.78571,0.92857z" fill="#1e2629" stroke="none" stroke-width="0" stroke-linecap="butt"/><g><path d="M287.96654,143.4606v-94.79076h66.05039v95.82546l-7.30204,-0.14782c-0.26758,-0.28206 -0.5323,1.05672 -0.83116,0.81578c-1.72478,-1.39056 -4.44803,-1.90469 -5.96165,-3.62963c-0.10908,-0.12431 -2.37251,-2.1333 -1.93826,-2.57549c0.27833,-0.28341 -1.05409,1.98447 -1.05409,1.98447c0,0 -1.54391,-5.54053 -0.44245,-5.8512c0.27798,-0.0784 -4.50369,3.5434 -4.50369,3.5434c0,0 2.12857,-3.52249 2.15536,-3.53171c-0.88372,-1.06105 -5.24569,0.51847 -5.24569,0.51847c0,0 0.00628,-6.29941 -0.4733,-6.23224c-0.91787,0.12857 -0.97884,1.51751 -1.31965,2.3423c-0.33181,0.80303 -4.42509,0.92375 -4.74547,2.58976c-0.15407,-0.1192 -0.00115,4.00216 -0.00115,4.00216c0,0 -2.64301,-3.22581 -3.84487,-4.907c-0.08432,-0.2285 -1.69831,3.65658 -1.69831,3.65658c0,0 -3.63372,-4.4588 -3.63372,-3.03018v3.44899c0,0.09284 -0.00066,0.18547 -0.00193,0.2779c0,0 -1.7853,-1.74102 -2.07737,-2.44975c-0.17421,-0.42273 -1.6381,-2.0303 -2.38231,-3.92822c-1.03315,-2.6348 -1.39616,-5.69213 -1.39616,-5.69213c-0.05912,-0.15136 -0.58211,8.01469 -0.58211,8.01469c0,0 -2.3385,-4.83653 -2.43149,-4.24908c-0.56446,3.56618 -3.57681,9.68459 -3.84153,9.62892l-0.29211,-2.23401c-0.14927,-1.29366 -1.29645,-2.29994 -2.68951,-2.29994c-1.22107,0 0.96638,5.97411 0.96638,5.97411c0,0 -5.47629,-2.83015 -5.47629,-1.66287v3.68603l-0.34424,0.26563c0,0 -0.02298,0.78897 0.00116,1.08084z" fill="#705d86" stroke="none" stroke-width="0" stroke-linecap="butt"/><path d="" fill="#705d86" stroke="none" stroke-width="0" stroke-linecap="butt"/><path d="" fill="#705d86" stroke="none" stroke-width="0" stroke-linecap="butt"/><path d="" fill="#705d86" stroke="none" stroke-width="0" stroke-linecap="butt"/><path d="M339.51321,126.30795l-8.47198,-13.00554l8.15438,-0.0015l-0.06676,-24.89483l-10.07038,-13.60559l10.51424,0.27054l-0.21579,-16.11405l-15.79652,-11.84799h30.45653v97.3036h-9.27896c-1.62703,-0.89612 -3.60715,-1.50147 -4.81589,-2.87894c-0.1191,-0.13572 -0.23919,-0.27145 -0.36017,-0.40724z" fill="#654779" stroke="none" stroke-width="0" stroke-linecap="butt"/><path d="M288.01305,143.76756v-97.30359h58.19301c0,0 -44.54159,3.25491 -46.30287,20.35383c-0.12387,1.20257 0.00434,50.06938 0.05972,69.29417c-0.41766,-0.91339 -1.37116,-1.55166 -2.48062,-1.55166c-1.22107,0 0.96638,5.97411 0.96638,5.97411c0,0 -5.47629,-2.83016 -5.47629,-1.66288v3.68604l-0.14234,1.20999z" fill="#8c82a1" stroke="none" stroke-width="0" stroke-linecap="butt"/><path d="" fill="#8c82a1" stroke="none" stroke-width="0" stroke-linecap="butt"/><path d="M354.94915,49.11648l-67.72715,-0.0329" fill="none" stroke="#53305f" stroke-width="5.5" stroke-linecap="round"/><path d="M355.66824,116.07271l-67.72715,-0.0329" fill="none" stroke="#53305f" stroke-width="5.5" stroke-linecap="round"/><path d="M287.65131,142.49619l5.32106,0.00259" fill="none" stroke="#53305f" stroke-width="5.5" stroke-linecap="round"/><path d="M341.07865,142.52214l14.29981,0.00694" fill="none" stroke="#53305f" stroke-width="5.5" stroke-linecap="round"/><path d="M287.33266,49.12804l23.72232,0.02307" fill="none" stroke="#654779" stroke-width="5.5" stroke-linecap="round"/><path d="M291.68678,53.76927" fill="none" stroke="#654779" stroke-width="10.5" stroke-linecap="round"/><path d="M287.98761,116.06159l11.05613,0.02307" fill="none" stroke="#654779" stroke-width="5.5" stroke-linecap="round"/><path d="M292.97237,142.55264l-5.27456,-0.01199" fill="none" stroke="#654779" stroke-width="5.5" stroke-linecap="round"/><path d="M333.48443,49.08358l21.46472,0.0329" fill="none" stroke="#462750" stroke-width="5.5" stroke-linecap="round"/><path d="M355.49342,116.06203l-19.28767,-0.03289" fill="none" stroke="#462750" stroke-width="5.5" stroke-linecap="round"/><path d="M344.2417,142.55084l11.2517,0.02807" fill="none" stroke="#462750" stroke-width="5.5" stroke-linecap="round"/><path d="M286.58043,73.50638l67.72714,0.03289" fill="none" stroke="#53305f" stroke-width="5.5" stroke-linecap="round"/><path d="M286.62693,73.55083l11.05614,0.02307" fill="none" stroke="#654779" stroke-width="5.5" stroke-linecap="round"/><path d="M354.13275,73.57588l-19.01552,-0.03289" fill="none" stroke="#462750" stroke-width="5.5" stroke-linecap="round"/><path d="M335.09822,94.7588c0,7.59418 -6.48353,13.7505 -14.48138,13.7505c-7.99784,0 -14.48138,-6.15631 -14.48138,-13.7505c0,-7.59418 6.48354,-13.7505 14.48138,-13.7505c7.99784,0 14.48138,6.15632 14.48138,13.7505z" fill="none" stroke="#070909" stroke-width="2" stroke-linecap="butt"/><path d="M320.45339,92.81202l4.62543,-6.87685c0,0 2.30325,-0.57619 5.19925,2.90063c2.52408,3.03032 1.49514,5.13641 1.49514,5.13641l-8.04701,2.76902z" data-paper-data="{&quot;index&quot;:null}" fill="#070909" stroke="none" stroke-width="0" stroke-linecap="butt"/><path d="M317.87021,96.56528l-8.04701,-2.76902c0,0 -1.02894,-2.10609 1.49514,-5.13641c2.89598,-3.47683 5.19924,-2.90063 5.19924,-2.90063l4.62543,6.87685z" data-paper-data="{&quot;index&quot;:null}" fill="#070909" stroke="none" stroke-width="0" stroke-linecap="butt"/><path d="M323.3316,95.58086l2.74648,7.74268c0,0 -1.08259,2.08137 -5.13471,2.08137c-4.64918,0 -5.61236,-2.08137 -5.61236,-2.08137l2.74648,-7.74268z" data-paper-data="{&quot;index&quot;:null}" fill="#070909" stroke="none" stroke-width="0" stroke-linecap="butt"/><path d="M325.08502,95.23111c0,2.33571 -1.98072,4.22917 -4.42408,4.22917c-2.44335,0 -4.42408,-1.89346 -4.42408,-4.22917c0,-2.33571 1.98072,-4.22918 4.42408,-4.22918c2.44335,0 4.42408,1.89347 4.42408,4.22918z" fill="#070909" stroke="#705d86" stroke-width="2" stroke-linecap="butt"/></g><text transform="translate(63.50433,157.2739) scale(0.5,0.5)" font-size="40" xml:space="preserve" fill="#1e2629" fill-rule="nonzero" stroke="none" stroke-width="1" stroke-linecap="butt" stroke-linejoin="miter" stroke-miterlimit="10" stroke-dasharray="" stroke-dashoffset="0" font-family="Sans Serif" font-weight="normal" text-anchor="start" style="mix-blend-mode: normal"><tspan x="0" dy="0">idk what i did with this</tspan></text></g></g></svg>