<svg version="1.1" xmlns="http://www.w3.org/2000/svg" xmlns:xlink="http://www.w3.org/1999/xlink" width="257.53135" height="136.02094" viewBox="0,0,257.53135,136.02094"><defs><linearGradient x1="310.15392" y1="124.00643" x2="310.15392" y2="138.68413" gradientUnits="userSpaceOnUse" id="color-1"><stop offset="0" stop-color="#ffffff"/><stop offset="1" stop-color="#ffffff" stop-opacity="0"/></linearGradient><linearGradient x1="337.82057" y1="124.00643" x2="337.82057" y2="138.68413" gradientUnits="userSpaceOnUse" id="color-2"><stop offset="0" stop-color="#ffffff"/><stop offset="1" stop-color="#ffffff" stop-opacity="0"/></linearGradient><linearGradient x1="210.74274" y1="116.82286" x2="210.74274" y2="129.65619" gradientUnits="userSpaceOnUse" id="color-3"><stop offset="0" stop-color="#ffffff"/><stop offset="1" stop-color="#ffffff" stop-opacity="0"/></linearGradient><linearGradient x1="236.40514" y1="170.04154" x2="236.40514" y2="191.37044" gradientUnits="userSpaceOnUse" id="color-4"><stop offset="0" stop-color="#a6a6a6"/><stop offset="1" stop-color="#000000"/></linearGradient><linearGradient x1="264.08387" y1="170.04346" x2="264.08387" y2="191.37235" gradientUnits="userSpaceOnUse" id="color-5"><stop offset="0" stop-color="#a6a6a6"/><stop offset="1" stop-color="#000000"/></linearGradient><linearGradient x1="248.47477" y1="179.91628" x2="248.47477" y2="181.44918" gradientUnits="userSpaceOnUse" id="color-6"><stop offset="0" stop-color="#a6a6a6"/><stop offset="1" stop-color="#000000"/></linearGradient><linearGradient x1="124.74418" y1="163.59607" x2="124.74418" y2="184.46712" gradientUnits="userSpaceOnUse" id="color-7"><stop offset="0" stop-color="#ffffff" stop-opacity="0"/><stop offset="1" stop-color="#ffffff"/></linearGradient><linearGradient x1="153.09719" y1="164.19623" x2="153.09719" y2="185.06728" gradientUnits="userSpaceOnUse" id="color-8"><stop offset="0" stop-color="#ffffff" stop-opacity="0"/><stop offset="1" stop-color="#ffffff"/></linearGradient><linearGradient x1="139.1807" y1="173.25883" x2="139.1807" y2="174.75883" gradientUnits="userSpaceOnUse" id="color-9"><stop offset="0" stop-color="#ffffff" stop-opacity="0"/><stop offset="1" stop-color="#ffffff"/></linearGradient><linearGradient x1="178.99144" y1="228.51959" x2="178.99144" y2="245.17724" gradientUnits="userSpaceOnUse" id="color-10"><stop offset="0" stop-color="#ffffff"/><stop offset="1" stop-color="#ffffff" stop-opacity="0"/></linearGradient><linearGradient x1="206.53094" y1="228.53083" x2="206.53094" y2="245.18849" gradientUnits="userSpaceOnUse" id="color-11"><stop offset="0" stop-color="#ffffff"/><stop offset="1" stop-color="#ffffff" stop-opacity="0"/></linearGradient><linearGradient x1="192.64215" y1="230.23051" x2="192.64215" y2="231.23051" gradientUnits="userSpaceOnUse" id="color-12"><stop offset="0" stop-color="#8d4400"/><stop offset="1" stop-color="#000000"/></linearGradient></defs><g transform="translate(-111.10932,-111.98953)"><g data-paper-data="{&quot;isPaintingLayer&quot;:true}" fill-rule="nonzero" stroke-linejoin="miter" stroke-miterlimit="10" stroke-dasharray="" stroke-dashoffset="0" style="mix-blend-mode: normal"><g stroke="#000000" stroke-width="1"><path d="M299.21846,136.75568v-12.74923h21.87089v12.74923c0,0 -7.22034,1.92845 -10.93545,1.92845c-3.56936,0 -10.93545,-1.92845 -10.93545,-1.92845z" fill="url(#color-1)" stroke-linecap="butt"/><path d="M326.88512,136.75568v-12.74923h21.8709v12.74923c0,0 -7.22034,1.92845 -10.93545,1.92845c-3.56936,0 -10.93545,-1.92845 -10.93545,-1.92845z" fill="url(#color-2)" stroke-linecap="butt"/><path d="M321.05179,127.81882h5.66667" fill="none" stroke-linecap="round"/><path d="M348.88513,129.15315l5.5,-10.10282" fill="none" stroke-linecap="round"/><path d="M299.0518,129.53437l-5.16667,-10.29345" fill="none" stroke-linecap="round"/></g><g><path d="M199.80729,127.97006v-11.1472h21.87089v11.1472c0,0 -7.22034,1.68613 -10.93545,1.68613c-3.56936,0 -10.93545,-1.68613 -10.93545,-1.68613z" fill="url(#color-3)" stroke="#000000" stroke-width="1" stroke-linecap="butt"/><path d="M226.38864,125.22154l3.8079,-10.47664l20.55525,7.47114l-3.8079,10.47664c0,0 -7.36198,-0.88178 -10.85361,-2.15087c-3.35464,-1.2193 -9.70164,-5.32027 -9.70164,-5.32027z" fill="none" stroke="#000000" stroke-width="1" stroke-linecap="butt"/><path d="M221.64062,120.15619h5.66667" fill="none" stroke="#000000" stroke-width="1" stroke-linecap="round"/><path d="M249.47392,121.32286l5.5,-8.83333" fill="none" stroke="#000000" stroke-width="1" stroke-linecap="round"/><path d="M194.47395,112.65619l5.16667,9" fill="none" stroke="#000000" stroke-width="1" stroke-linecap="round"/><path d="M213.32656,123.79823c0,0.25 -0.25,0.25 -0.25,0.25l-0.2411,-0.0034c-0.93722,-0.16226 -1.05034,-0.75768 -1.6502,-1.19782c-0.2042,-0.14983 -1.11232,1.34216 -1.59889,2.17156l0.00134,0.00027c0.11685,0.02099 0.20551,0.12317 0.20551,0.24605c0,0.08283 -0.04028,0.15625 -0.10233,0.20175l-0.26434,0.19825l-0.00219,-0.00291l-0.00832,0.01038c-1.57357,0.93503 -3.08079,2.48738 -4.36272,3.76931c0,0 -0.17678,0.17678 -0.35355,0c-0.17678,-0.17678 0,-0.35355 0,-0.35355c1.2056,-1.2056 2.60236,-2.6228 4.06546,-3.59454c-0.8406,0.08616 -2.32517,-0.15009 -2.51965,-0.53301c-0.19681,-0.3875 0.01243,-1.18366 -0.07217,-1.61454l-0.12047,-0.236c0,0 -0.1118,-0.22361 0.1118,-0.33541c0.22361,-0.1118 0.33541,0.1118 0.33541,0.1118l0.14619,0.29734c0.02533,0.12502 0.03673,1.63425 0.12587,1.65016c0.75236,0.13435 1.51357,0.02712 2.24909,0.14586c0.44485,-0.85063 1.36979,-2.76115 2.21321,-2.63034c0.54696,0.08483 0.94672,1.08515 1.68313,1.20218l0.1589,-0.0034c0,0 0.25,0 0.25,0.25z" fill="#000000" stroke="none" stroke-width="0.5" stroke-linecap="butt"/><path d="M216.33788,123.60623c-0.20801,-0.13868 -0.06934,-0.34669 -0.06934,-0.34669l0.21272,-0.2757c0.68439,-0.41063 1.1173,-1.01882 1.96972,-0.89889c0,0 0.00827,0.00138 0.02153,0.00515c-0.22273,-1.01717 -2.56602,-0.58794 -3.09981,-1.94616c-0.29093,-0.74026 0.0582,-1.90974 -0.07609,-2.70462c0,0 -0.0411,-0.2466 0.2055,-0.2877c0.2466,-0.0411 0.2877,0.2055 0.2877,0.2055c0.12904,0.78392 -0.19045,1.89538 0.05724,2.62871c0.57118,1.69107 3.85766,0.33991 3.04614,2.81832c-0.06656,0.32253 -0.15049,0.64199 -0.25189,0.95531l-0.20781,0.41723c0,0 -0.1118,0.22361 -0.33541,0.1118c-0.22361,-0.1118 -0.1118,-0.33541 -0.1118,-0.33541l0.19219,-0.38277c0.09455,-0.29366 0.16945,-0.59388 0.23188,-0.896c0.01107,-0.03257 0.02092,-0.06428 0.02959,-0.09514c-0.04099,0.00401 -0.07115,-0.00102 -0.07115,-0.00102c-0.62101,-0.12748 -1.10658,0.52022 -1.63028,0.83444l-0.05394,0.1243c0,0 -0.13868,0.20801 -0.34669,0.06934z" fill="#000000" stroke="none" stroke-width="0.5" stroke-linecap="butt"/><path d="M202.03142,123.95517c-0.22361,-0.1118 -0.1118,-0.33541 -0.1118,-0.33541l0.12395,-0.24549c0.44359,-1.55258 1.33872,-1.67696 2.89966,-1.6927c0,0 0.08266,0 0.15291,0.04753c0.04491,-0.43885 0.06409,-0.82387 0.06375,-0.99753c0.0738,-1.15508 -2.28676,-0.45437 -2.89883,-0.99913c-0.64498,-0.57404 -0.23283,-1.99235 -0.2345,-2.7342c0,0 0,-0.25 0.25,-0.25c0.25,0 0.25,0.25 0.25,0.25c-0.0009,0.44343 -0.3701,2.01754 0.03217,2.33246c0.94485,0.73972 3.02656,-0.50979 3.10117,1.40087c-0.00124,0.72459 -0.17265,2.95239 -0.8519,3.41266c-0.19416,0.13157 -1.24591,-0.0964 -1.30627,-0.01933c-0.14797,0.18895 0.11334,0.73172 0.19844,0.89486l0.02639,0.17847c0,0 0,0.25 -0.25,0.25c-0.25,0 -0.25,-0.25 -0.25,-0.25l0.02639,0.04514c-0.18172,-0.37581 -0.46531,-1.12403 -0.06822,-1.50514c0.29442,-0.28258 1.08884,0.15031 1.3604,-0.01933c0.24605,-0.15371 0.40532,-0.86017 0.49995,-1.55834c-0.0539,0.021 -0.10185,0.021 -0.10185,0.021c-1.48073,-0.01894 -2.04613,0.01757 -2.43367,1.37396l-0.14272,0.28784c0,0 -0.1118,0.22361 -0.33541,0.1118z" fill="#000000" stroke="none" stroke-width="0.5" stroke-linecap="butt"/></g><g stroke="#000000" stroke-width="1.5"><g><path d="M247.17751,180.70599c0,5.88981 -4.82296,10.66444 -10.77239,10.66444c-5.94942,0 -10.77239,-4.77464 -10.77239,-10.66444c0,-5.88981 4.82296,-10.66446 10.77239,-10.66446c5.94942,0 10.77239,4.77464 10.77239,10.66446z" fill="url(#color-4)" stroke-linecap="butt"/><path d="M274.57322,180.70791c0,5.88981 -4.69626,10.66444 -10.48942,10.66444c-5.79315,0 -10.48941,-4.77464 -10.48941,-10.66444c0,-5.88981 4.69626,-10.66446 10.48942,-10.66446c5.79316,0 10.48942,4.77464 10.48942,10.66446z" fill="url(#color-5)" stroke-linecap="butt"/><path d="M247.66673,180.77681l5.43744,0.11758" fill="url(#color-6)" stroke-linecap="round"/></g><path d="M221.25568,178.38922l4.12707,2.44567" fill="none" stroke-linecap="round"/><path d="M279.79894,178.08352l-5.65562,2.44567" fill="none" stroke-linecap="round"/></g><g stroke="#000000" stroke-width="1.5"><path d="M137.62906,174.0316c0,5.76338 -5.76876,10.43552 -12.88487,10.43552c-7.11612,0 -12.88487,-4.67215 -12.88487,-10.43552c0,-5.76338 5.76875,-10.43552 12.88487,-10.43552c7.11612,0 12.88487,4.67214 12.88487,10.43552z" fill="url(#color-7)" stroke-linecap="butt"/><path d="M165.64358,174.63175c0,5.76338 -5.61722,10.43552 -12.54642,10.43552c-6.9292,0 -12.54642,-4.67215 -12.54642,-10.43552c0,-5.76338 5.61722,-10.43552 12.54643,-10.43552c6.9292,0 12.54642,4.67214 12.54642,10.43552z" fill="url(#color-8)" stroke-linecap="butt"/><path d="M138.2142,174.10088l1.933,-0.18409" fill="url(#color-9)" stroke-linecap="round"/></g><g stroke-width="1"><path d="M169.6973,243.461c0,0 -2.1123,-4.30449 -2.1123,-6.46116c0,-2.83264 0.84492,-8.48027 0.84492,-8.48027c0,0 7.23481,0.30287 10.77274,0.30287c3.50272,0 10.35028,-0.30287 10.35028,-0.30287c0,0 1.16177,6.34619 1.16177,9.28791c0,2.55662 -3.16845,6.15829 -3.16845,6.15829c0,0 -5.23407,3.53345 -8.97728,3.53345c-3.21814,0 -8.87167,-4.03822 -8.87167,-4.03822z" fill="url(#color-10)" stroke="#000000" stroke-linecap="butt"/><path d="M206.95339,247.51047c-3.7432,0 -8.97728,-3.53345 -8.97728,-3.53345c0,0 -3.16845,-3.60166 -3.16845,-6.15829c0,-2.94173 1.16177,-9.28791 1.16177,-9.28791c0,0 6.84756,0.30286 10.35028,0.30286c3.53793,0 10.77273,-0.30286 10.77273,-0.30286c0,0 0.84492,5.64763 0.84492,8.48027c0,2.15667 -2.1123,6.46115 -2.1123,6.46115c0,0 -5.65353,4.03822 -8.87167,4.03822z" data-paper-data="{&quot;index&quot;:null}" fill="url(#color-11)" stroke="#000000" stroke-linecap="butt"/><path d="M195.59007,230.78718l-5.89581,-0.11338" fill="none" stroke="url(#color-12)" stroke-linecap="round"/><path d="M223.70847,229.76677l-5.89581,1.70071" fill="none" stroke="#000000" stroke-linecap="round"/><path d="M168.26527,230.7872l-7.02962,-2.26762" fill="none" stroke="#000000" stroke-linecap="round"/></g><g><g stroke="#000000" stroke-width="1"><g><path d="M310.97401,186.30557c0,0 0.68482,-2.14781 1.3482,-5.32541c0.30385,-1.45548 -0.18699,-3.95898 0.6518,-5.09498c2.67004,-3.61614 7.3425,-3.15859 10.99802,-3.15859c3.63466,0 8.17869,-0.53224 10.87288,3.15859c1.11575,1.5285 -0.25165,2.64379 -0.07602,4.30522c0.24847,2.35039 1.58241,5.26667 0.07602,7.43126c-2.57122,3.69468 -6.97034,3.61777 -10.68545,3.61777c-3.56936,0 -9.93545,-0.7224 -9.93545,-0.7224l-3.24999,-4.21145z" fill-opacity="0.48387" fill="#ffffff" stroke-linecap="butt"/><path d="M334.80733,179.39471h5.66667" fill="none" stroke-linecap="round"/><path d="M368.14068,171.32277l-5.5,9.30029" fill="none" stroke-linecap="round"/><path d="M312.80733,180.97401l-5.16667,-9.47577" fill="none" stroke-linecap="round"/><path d="M361.80105,189.46416c0,0 -6.36609,0.7224 -9.93545,0.7224c-3.71511,0 -8.11423,0.0769 -10.68545,-3.61777c-1.50639,-2.16458 -0.17244,-5.08086 0.07602,-7.43126c0.17563,-1.66143 -1.19177,-2.77672 -0.07602,-4.30522c2.69418,-3.69083 7.23822,-3.15859 10.87288,-3.15859c3.65552,0 8.32798,-0.45755 10.99801,3.15859c0.83879,1.13601 0.34794,3.63951 0.6518,5.09498c0.66338,3.1776 1.3482,5.32541 1.3482,5.32541z" data-paper-data="{&quot;index&quot;:null}" fill-opacity="0.48387" fill="#ffffff" stroke-linecap="butt"/></g><path d="M335.13673,183.87784l5,0.70191" fill="none" stroke-linecap="round"/></g><path d="M323.01281,186.12943c0.25,0 0.25,0.25 0.25,0.25l-0.07322,0.29281c-0.33197,0.32932 -0.91909,1.44996 -1.49317,1.34635c-0.34478,-0.06223 -0.65331,-0.9213 -1.05354,-0.81807c-0.66002,0.17025 -1.51563,0.64732 -2.23766,0.90033c-0.04773,0.75063 -0.82796,1.92885 -0.82796,2.68779c0,0 0,0.25 -0.25,0.25c-0.25,0 -0.25,-0.25 -0.25,-0.25c0,-0.61847 0.9709,-2.45854 0.82295,-2.82835c-0.49578,-1.23928 -1.2204,-1.40649 -0.82108,-3.00379c0.00289,-0.22538 0.04403,-0.45774 0.14055,-0.66142l-0.02639,-0.12026c0,0 0,-0.25 0.25,-0.25c0.25,0 0.25,0.25 0.25,0.25l-0.02639,0.34387c-0.08057,0.14864 -0.09405,0.32985 -0.09151,0.4989c-0.38331,1.53324 0.32654,1.5235 0.73162,2.58631c0.6634,-0.25236 1.6174,-0.81322 2.20241,-0.88524c0.81838,-0.10075 0.77527,0.49284 1.2671,0.80638c0.06363,0.04057 0.97113,-1.11735 1.05953,-1.20635l-0.07322,0.06074c0,0 0,-0.25 0.25,-0.25z" fill="#272727" stroke="none" stroke-width="0.5" stroke-linecap="butt"/><path d="M324.7533,179.55149c-0.25,0 -0.25,-0.25 -0.25,-0.25l0.00323,-0.30805c-0.51403,-1.49279 0.48635,-1.3592 1.52735,-1.8881c0,0 0.02716,-0.01358 0.06728,-0.02181c0.16325,-0.37811 0.63031,-0.79761 0.4974,-1.32159c-0.24881,-0.98086 -1.72995,-1.6427 -2.08243,-2.64711c0,0 -0.07906,-0.23717 0.15811,-0.31623c0.23717,-0.07906 0.31623,0.15811 0.31623,0.15811c0.30312,0.97942 1.96482,1.68551 2.09471,2.69035c0.14514,1.12275 -1.35105,1.43655 0.08442,1.91504l0.2482,0.12339c0,0 0.22361,0.1118 0.1118,0.33541c-0.1118,0.22361 -0.33541,0.1118 -0.33541,0.1118l-0.21593,-0.10867c-0.43094,-0.14365 -0.68153,-0.28501 -0.81216,-0.42831c-0.9058,0.40969 -1.54007,0.16514 -1.16604,1.31761l0.00323,0.38814c0,0 0,0.25 -0.25,0.25z" fill="#272727" stroke="none" stroke-width="0.5" stroke-linecap="butt"/></g></g></g></svg>