<svg version="1.1" xmlns="http://www.w3.org/2000/svg" xmlns:xlink="http://www.w3.org/1999/xlink" width="38.19044" height="38.19044" viewBox="0,0,38.19044,38.19044"><g transform="translate(-220.9048,-160.90481)"><g data-paper-data="{&quot;isPaintingLayer&quot;:true}" stroke-miterlimit="10" stroke-dasharray="" stroke-dashoffset="0" style="mix-blend-mode: normal"><path d="M259.09524,180.00003c0,10.54601 -8.54924,19.09522 -19.09522,19.09522c-10.54601,0 -19.09522,-8.54922 -19.09522,-19.09522c0,-10.54601 8.54922,-19.09522 19.09522,-19.09522c10.54601,0 19.09522,8.54922 19.09522,19.09522" fill="#727272" fill-rule="evenodd" stroke="none" stroke-width="0.07853" stroke-linecap="round" stroke-linejoin="round"/><path d="M231.3125,191.25v-22.5h17.375v22.5z" fill="#ffffff" fill-rule="nonzero" stroke="none" stroke-width="0" stroke-linecap="butt" stroke-linejoin="miter"/><path d="M232.87503,172.25003l5.625,0.125" fill="none" fill-rule="nonzero" stroke="#000000" stroke-width="0.5" stroke-linecap="round" stroke-linejoin="miter"/><path d="M240.25003,172.50003l3.625,0.125" fill="none" fill-rule="nonzero" stroke="#000000" stroke-width="0.5" stroke-linecap="round" stroke-linejoin="miter"/><path d="M245.75003,172.50003l0.875,0.125" fill="none" fill-rule="nonzero" stroke="#000000" stroke-width="0.5" stroke-linecap="round" stroke-linejoin="miter"/><path d="M232.75003,174.62503l13.875,0.125" fill="none" fill-rule="nonzero" stroke="#000000" stroke-width="0.5" stroke-linecap="round" stroke-linejoin="miter"/><path d="M233.06253,177.00003h2.375" fill="none" fill-rule="nonzero" stroke="#000000" stroke-width="0.5" stroke-linecap="round" stroke-linejoin="miter"/><path d="M237.93753,177.12503l8.75,-0.125" fill="none" fill-rule="nonzero" stroke="#000000" stroke-width="0.5" stroke-linecap="round" stroke-linejoin="miter"/><path d="M233.31253,179.00003h9.375" fill="none" fill-rule="nonzero" stroke="#000000" stroke-width="0.5" stroke-linecap="round" stroke-linejoin="miter"/><path d="M244.37503,178.87503l3.125,-0.125" fill="none" fill-rule="nonzero" stroke="#000000" stroke-width="0.5" stroke-linecap="round" stroke-linejoin="miter"/><path d="M233.06253,181.31253l5.625,0.125" fill="none" fill-rule="nonzero" stroke="#000000" stroke-width="0.5" stroke-linecap="round" stroke-linejoin="miter"/><path d="M240.43753,181.56253l3.625,0.125" fill="none" fill-rule="nonzero" stroke="#000000" stroke-width="0.5" stroke-linecap="round" stroke-linejoin="miter"/><path d="M245.93753,181.56253l0.875,0.125" fill="none" fill-rule="nonzero" stroke="#000000" stroke-width="0.5" stroke-linecap="round" stroke-linejoin="miter"/><path d="M232.93753,183.68753l13.875,0.125" fill="none" fill-rule="nonzero" stroke="#000000" stroke-width="0.5" stroke-linecap="round" stroke-linejoin="miter"/><path d="M233.25003,186.06253h2.375" fill="none" fill-rule="nonzero" stroke="#000000" stroke-width="0.5" stroke-linecap="round" stroke-linejoin="miter"/><path d="M238.12503,186.18753l8.75,-0.125" fill="none" fill-rule="nonzero" stroke="#000000" stroke-width="0.5" stroke-linecap="round" stroke-linejoin="miter"/><path d="M233.50003,188.06253h9.375" fill="none" fill-rule="nonzero" stroke="#000000" stroke-width="0.5" stroke-linecap="round" stroke-linejoin="miter"/><path d="M244.56253,187.93753l3.125,-0.125" fill="none" fill-rule="nonzero" stroke="#000000" stroke-width="0.5" stroke-linecap="round" stroke-linejoin="miter"/></g></g></svg>