<svg version="1.1" xmlns="http://www.w3.org/2000/svg" xmlns:xlink="http://www.w3.org/1999/xlink" width="120.03322" height="247.15769" viewBox="0,0,120.03322,247.15769"><g transform="translate(-273.0017,-56.46684)"><g data-paper-data="{&quot;isPaintingLayer&quot;:true}" fill-rule="nonzero" stroke-linejoin="miter" stroke-miterlimit="10" stroke-dasharray="" stroke-dashoffset="0" style="mix-blend-mode: normal"><g stroke="none" stroke-width="0" stroke-linecap="butt"><path d="M285.71934,270.605l-10.20356,-7.313l82.04831,-114.47887l10.20356,7.313z" fill="#676767"/><path d="M363.16414,175.41691c0,0 -0.98325,-8.3863 -3.97555,-14.39553c-1.85851,-3.73231 -6.19778,-9.7179 -6.19778,-9.7179l8.41923,-4.88499c0,0 7.90629,0.63963 12.2286,2.98948c6.5292,3.54965 19.39628,1.41185 19.39628,1.41185c0,0 -6.51798,10.94085 -14.49847,17.70828c-4.38949,3.72227 -15.3723,6.8888 -15.3723,6.8888z" fill="#53305f"/><path d="M363.16414,175.41691c0,0 -0.4922,-4.19807 -1.83992,-8.78209c1.93587,-0.73388 3.87787,-1.44398 5.83891,-2.08678c6.24192,-3.04435 17.84503,-5.84006 20.16918,-13.15982c3.27815,-0.1656 5.7026,-0.56841 5.7026,-0.56841c0,0 -6.51798,10.94085 -14.49847,17.70828c-4.38949,3.72227 -15.3723,6.8888 -15.3723,6.8888z" fill="#000000"/><path d="M359.42265,159.02695c-1.55386,-2.82549 -2.8603,-6.14375 -2.96863,-7.262c-0.20166,-2.08163 4.34526,-4.33877 6.70711,-4.56758c1.3039,-0.12632 3.88254,2.32983 9.37717,3.59208c1.04741,2.12937 2.04297,4.29034 2.98949,6.47475c-5.35737,0.79182 -10.72082,1.48584 -16.10514,1.76276z" fill="#654779"/><path d="M384.80951,152.98411c0.07159,0.73894 -1.73061,2.33753 -4.40429,4.09788c-0.83062,0.12746 -1.66126,0.25499 -2.49201,0.38137c-0.80942,-1.88925 -1.65454,-3.76195 -2.53699,-5.6131c4.2942,0.46613 9.36114,0.38912 9.43329,1.13384z" fill="#654779"/><path d="M363.21153,164.09359c-0.70111,0.01222 -1.57519,-0.82669 -2.46401,-2.06848c4.56967,-0.2957 9.12413,-0.86843 13.67332,-1.52614c-3.96485,1.96938 -8.24027,3.54287 -11.2093,3.59461z" fill="#654779"/></g><g fill="#000000" stroke="none" stroke-linecap="butt"><path d="M279.53378,185.718c0,-21.10292 18.15751,-38.21022 40.55593,-38.21022c22.39843,0 40.82079,17.1073 40.82079,38.21022c0,2.70002 0.0039,117.77204 0.0039,117.77204l-11.39983,-0.12964l-0.14337,-113.82486c0,0 0.46851,-2.08621 -1.77595,-2.22047c-2.48625,-0.14872 -2.11767,1.68282 -2.11767,1.68282l0.10343,114.38802l-50.32146,0.07847l0.10485,-114.20488c0,0 -0.19035,-2.13951 -1.8053,-2.16297c-2.01199,-0.02922 -1.98832,2.04221 -1.98832,2.04221l-0.29988,114.25674l-11.38239,0.22905c0,0 -0.35473,-116.42094 -0.35473,-117.90653z" stroke-width="0"/><path d="M281.81897,186.79187c0,-20.02201 17.22746,-36.58913 38.47861,-36.58913c21.25115,0 38.72991,16.56711 38.72991,36.58913c0,2.56173 0.00369,114.79215 0.00369,114.79215l-7.50523,0.21307l0.19503,-111.38321c0,0 0.08238,-5.30397 -4.03353,-5.43136c-4.01424,-0.25313 -4.29562,4.92124 -4.29562,4.92124l-0.56401,112.58967l-45.42645,-0.26162l0.09948,-112.07984c0,0 0.71386,-5.00198 -3.49923,-5.04073c-4.92978,-0.04534 -4.96689,4.92616 -4.96689,4.92616l0.56795,112.12904l-7.39669,-0.11875c0,0 -0.38702,-113.84632 -0.38702,-115.25581z" stroke-width="0"/><g><path d="M308.97333,204.42071c-5.66213,0 -7.34973,-0.4705 -7.34973,-0.4705l-0.08286,-1.2733c0,0 5.25623,0.13066 7.69744,0.13066c4.20542,0 7.61458,-1.35635 7.61458,-0.87378c0,0.48257 -1.95246,2.48691 -7.87944,2.48691z" stroke-width="0"/><path d="M304.47076,199.17804c0,-0.55682 0.44467,-1.00821 0.99321,-1.00821c0.54854,0 0.99321,0.45139 0.99321,1.00821c0,0.55682 -0.44467,1.00821 -0.99321,1.00821c-0.54854,0 -0.99321,-0.45139 -0.99321,-1.00821z" stroke-width="0.5"/></g><g data-paper-data="{&quot;index&quot;:null}"><path d="M323.78853,201.9338c0,-0.48257 3.40916,0.87378 7.61458,0.87378c2.44121,0 7.69744,-0.13066 7.69744,-0.13066l-0.08286,1.2733c0,0 -1.6876,0.4705 -7.34973,0.4705c-5.92698,0 -7.87944,-2.00433 -7.87944,-2.48691z" stroke-width="0"/><path d="M335.1773,200.18623c-0.54853,0 -0.99321,-0.45139 -0.99321,-1.00821c0,-0.55682 0.44467,-1.00821 0.99321,-1.00821c0.54853,0 0.99321,0.45139 0.99321,1.00821c0,0.55682 -0.44467,1.00821 -0.99321,1.00821z" stroke-width="0.5"/></g><path d="M319.33578,252.64656c0,-0.55681 0.44467,-1.00821 0.99321,-1.00821c0.54854,0 0.99321,0.45139 0.99321,1.00821c0,0.55681 -0.44467,1.00821 -0.99321,1.00821c-0.54854,0 -0.99321,-0.45139 -0.99321,-1.00821z" stroke-width="0.5"/></g><path d="M274.33715,127.38394c0,0 4.89728,-16.5183 6.24425,-19.84218c2.88904,-7.12918 2.71235,-1.64783 2.71235,-1.64783c0,0 -1.02663,6.44998 -2.00932,6.53194c-1.61013,0.13429 -8.28273,-1.65093 -8.28273,-1.65093c0,0 4.04637,-2.45988 6.30087,-5.9696c2.04082,-3.17707 5.32984,-8.09073 6.80334,-10.20773c2.00713,-2.88368 -2.72889,6.75235 -2.72889,6.75235c0,0 0.94194,-19.54967 9.67084,-31.10698c0.48584,-0.64326 -2.29213,-1.08177 -2.29213,-1.08177c0,0 7.62792,-10.00742 32.64722,-11.36295c1.06788,0.03887 -0.78644,2.389 -1.70745,1.99239c-0.6084,-0.26199 -0.29714,-3.32381 -0.29714,-3.32381c0,0 8.8915,0.76935 11.67437,1.48744c10.54886,2.72201 23.84208,9.63872 23.84208,9.63872c0,0 -4.19459,5.08331 -5.65943,5.02644c-1.35366,-0.05255 -0.02465,-5.29242 0.83697,-4.23934c0.84546,1.03333 8.09604,9.34976 8.09604,9.34976c0,0 -3.57422,2.88939 -4.22736,2.68402c-0.72406,-0.22768 1.48415,-3.50361 1.9026,-2.39881c2.80361,7.4021 1.68212,13.79409 4.33872,22.78566c3.72078,12.59341 4.05081,17.39121 4.05081,17.39121c0,0 -6.30416,3.63041 -7.4478,0.33258c-3.35821,-2.26684 1.95365,-6.38538 1.95365,-6.38538l4.7416,27.69213c0,0 -8.71007,-0.36954 -9.58617,-2.08688c-1.09624,-2.14888 5.57331,-5.63658 5.34357,-4.30926c-1.43966,8.31802 -8.5208,20.32402 -8.5208,20.32402c0,0 -1.63728,-3.20008 -3.68489,-3.12824c-2.10693,0.07391 -2.9039,3.39924 -3.06145,1.89637c-0.12356,-1.17856 6.6719,-5.97399 6.6719,-5.97399c0,0 -0.27736,1.51046 -1.52332,3.13635c-1.38133,1.80253 -5.9811,10.52796 -5.9811,10.52796l-4.84057,0.16116c0,0 2.28998,-4.85992 -4.04254,-1.76488c-6.10567,2.98416 -11.80358,2.51788 -14.49123,2.46803c-14.12802,-0.26204 -22.14408,-2.49782 -22.14408,-2.49782l-5.48839,5.73129c0,0 -1.15247,-14.5688 -3.2246,-19.65376c-3.07463,-7.54506 -3.82841,-13.97384 -3.82841,-13.97384c0,0 6.90269,2.36853 3.89703,3.05755c-1.9541,8.33002 -7.32018,7.83145 -7.32018,7.83145c0,0 -5.44252,-15.73149 -3.96847,-17.1369c1.38725,-1.32265 2.8207,1.17251 2.8207,1.17251c0,0 -3.21775,1.31904 -4.68875,1.66038c-2.24208,0.52027 -3.5017,0.11114 -3.5017,0.11114z" fill="#000000" stroke="none" stroke-width="NaN" stroke-linecap="butt"/><g data-paper-data="{&quot;index&quot;:null}" stroke="none" stroke-width="0" stroke-linecap="butt"><path d="M345.71751,234.75175l-1.55172,-35.18391l17.28736,-0.34483l0.90909,55.57576z" fill="#3c4a50"/><path d="M351.99894,242.31713c-2.35453,-2.83581 -6.28143,-7.5654 -6.28143,-7.5654l-1.55172,-35.18391l17.28736,-0.34483c0,0 0.06198,3.78885 0.11921,7.28813c0.01984,1.21281 -9.31041,2.48246 -9.2856,4.62334c0.22505,19.42936 2.73647,34.82514 -0.28782,31.18266z" fill="#222a2e"/><path d="M346.37546,206.19686c0.34368,6.87025 0.6714,19.49682 0.96312,33.92583c-0.25016,-0.03959 -0.44774,-0.00667 -0.44774,-0.00667c-6.11174,1.01862 -12.22965,1.84301 -18.35656,2.59805l-2.01917,-75.12074l10.6875,-15.59375c0,0 24.51871,7.75626 24.44563,28.75544c-0.03203,9.20341 0.24187,19.00498 0.24187,19.00498c0,0 -8.11981,4.10841 -15.51465,6.43687z" fill="#2c2f5d"/><path d="M336.53761,169.30744c2.71979,-4.58669 4.33629,-9.44245 7.26826,-9.59357c9.38776,-0.48387 15.40322,27.05305 15.40322,31.7742c0,4.72115 -21.33805,13.87096 -26.37097,13.87096c-5.03292,0 -1.85484,-21.0853 -1.85484,-25.80645c0,-4.85694 3.6116,-6.96892 5.55432,-10.24515z" fill="#3d496d"/><path d="M343.80082,232.76395c-3.77877,1.13977 -7.57422,2.29014 -11.39578,3.10805c-0.02426,0.00519 -0.04852,0.01037 -0.07278,0.01552c-0.23432,-3.32531 -0.5066,-6.39633 -0.77714,-9.11116c4.07592,-1.2556 8.11062,-2.60777 12.09814,-4.16483c0.0369,2.80713 0.08577,6.24702 0.14756,10.15241z" fill="#3d496d"/><path d="M331.46643,210.54475c2.76228,-1.728 12.09751,1.19343 12.09751,4.08847c0,0.33886 0.01783,2.24029 0.05563,5.32746c-4.05719,1.62459 -8.16884,3.01759 -12.32454,4.30159c-0.59573,-5.556 -1.11819,-9.15021 -1.11819,-9.62905c0,-1.08354 -0.36264,-3.05489 1.28959,-4.08847z" fill="#3d496d"/><path d="M328.62017,249.06752c0,0 -2.17571,-1.626 -2.28083,-6.18843c-0.08139,-3.53275 1.93992,-4.74025 1.93992,-4.74025c0,0 2.4761,0.62329 8.69019,0.25725c6.08004,-0.35814 10.33766,-3.77997 10.33766,-3.77997c0,0 1.75256,1.18795 2.00113,4.20335c0.26298,3.19017 -1.8875,4.33897 -1.8875,4.33897z" fill="#53305f"/><path d="M339.28891,239.43798c3.58864,-0.49334 6.20231,-2.21706 6.82683,-2.21706c1.46193,0 2.06566,0.75293 2.06566,2.25547c0,1.04679 -3.25379,2.40303 -9.09782,4.41016c-2.54437,0.87386 -6.02273,1.99817 -9.56991,2.3156c-1.45611,0.1303 -1.045,-4.1767 -1.045,-5.67925c0,-0.86067 6.00825,-0.42342 10.82023,-1.08492z" fill="#654779"/><path d="M360.36452,238.3898c-1.21781,-0.74381 -3.95249,-1.46179 -5.21663,-2.14224c-0.53306,-3.45274 0.43751,-7.60557 0.27308,-11.19102c-0.3357,-7.32017 -1.26894,-13.30874 -0.44034,-13.38321c3.33856,-0.30003 4.50045,-2.37131 4.50045,-0.30003c0,1.36594 0.86476,16.71871 0.88344,27.0165z" fill="#576b75"/><path d="M357.16245,239.39208c1.07576,0.61783 2.13295,1.26068 3.1805,1.9206c-0.06991,3.78517 -0.31608,6.36424 -0.86187,6.36424c-0.6201,0 -1.48373,-3.48419 -2.31863,-8.28484z" fill="#576b75"/></g><path d="M278.4554,254.79876l0.90909,-55.57576l17.28736,0.34483l-1.55173,35.18391z" fill="#3c4a50" stroke="none" stroke-width="0" stroke-linecap="butt"/><path d="M288.53088,211.13447c0.0248,-2.14088 -9.30544,-3.41053 -9.28561,-4.62334c0.05724,-3.49928 0.11921,-7.28813 0.11921,-7.28813l17.28736,0.34483l-1.55173,35.18391c0,0 -3.9269,4.72959 -6.28143,7.5654c-3.02429,3.64247 -0.51287,-11.7533 -0.28781,-31.18266z" fill="#222a2e" stroke="none" stroke-width="0" stroke-linecap="butt"/><path d="M278.92752,199.75999c0,0 0.2739,-9.80157 0.24187,-19.00498c-0.07308,-20.99918 24.44563,-28.75544 24.44563,-28.75544l10.6875,15.59375l-2.01917,75.12075c-6.12691,-0.75504 -12.24481,-1.57943 -18.35656,-2.59805c0,0 -0.19758,-0.03292 -0.44774,0.00667c0.29172,-14.429 0.61944,-27.05558 0.96312,-33.92583c-7.39484,-2.32846 -15.51465,-6.43687 -15.51465,-6.43687z" fill="#2c2f5d" stroke="none" stroke-width="0" stroke-linecap="butt"/><g><path d="M291.43135,107.97315c0.96521,-0.18364 5.78639,4.94033 6.72949,9.89722c0.94309,4.95689 -0.15061,10.72809 -0.15061,10.72809c0,0 -6.46652,-3.53164 -7.66724,-8.4325c-3.07712,-12.5596 0.12316,-12.00917 1.08836,-12.19281z" fill="#000000" stroke="none" stroke-width="0" stroke-linecap="butt"/><path d="M291.15896,109.02562c1.31694,-0.1432 3.38354,5.86128 4.11895,9.72657c0.73541,3.86529 0.71005,7.6557 0.71005,7.6557c0,0 -4.13639,-3.64493 -5.07269,-7.46653c-2.39948,-9.79373 -0.51797,-9.83292 0.24369,-9.91574z" fill="#ffffff" stroke="none" stroke-width="0" stroke-linecap="butt"/><path d="M295.73257,123.69767c0,0 -3.02608,-5.45514 -3.46106,-7.54108c-0.69361,-3.32613 1.47037,-3.38348 1.47037,-3.38348" fill="none" stroke="#000000" stroke-width="0.5" stroke-linecap="round"/></g><path d="M298.40593,145.02758c-1.12791,-6.71582 -0.20637,-6.94188 -1.0642,-13.44379c-0.47362,-3.58977 -2.15797,-7.18909 -2.73202,-11.13223c-1.20896,-8.30433 -1.27196,-25.65977 -0.47554,-29.40025c4.41933,-20.75585 15.3863,-24.96608 29.85603,-25.48425c20.77576,-0.74399 24.79696,12.48506 27.42961,23.79025c1.84023,7.90235 1.22737,18.92724 -0.34916,28.57116c-0.96559,5.90663 -2.47529,10.80823 -3.46814,15.58687c-1.22544,5.89815 -0.7524,7.76045 -1.86263,12.66938c-1.15349,5.10023 -6.83176,10.81045 -11.83191,15.83737c-4.57165,4.59612 -7.90818,8.33063 -12.38271,8.22359c-5.04445,-0.12068 -8.96195,-6.22631 -14.50155,-12.44391c-4.38889,-4.92605 -8.03319,-9.29321 -8.61781,-12.77419z" fill="#000000" stroke="none" stroke-width="0" stroke-linecap="butt"/><path d="M298.21135,126.20605c-0.94553,-5.09249 -3.54204,-4.25562 -2.79146,-22.70284c0.35027,-8.60857 1.58748,-16.65181 3.61898,-20.76639c6.59974,-13.36702 19.1364,-15.03633 24.02784,-15.03633c0.90508,0 2.23057,0.09251 3.81869,0.3531l-0.40934,0.43997c-2.06717,3.47259 -2.07469,6.72794 -2.07469,10.64312c0,8.53733 1.159,17.0037 1.22781,25.53085c0.03716,4.60608 -1.01128,11.21593 0.97312,15.37299c0,0 0.28761,0.57523 0.86284,0.69418c1.70983,2.65889 3.64435,5.24985 6.03235,7.32166c3.60857,3.13077 7.73685,5.21869 12.11537,6.68361c-0.50464,3.26874 -0.61019,5.73014 -1.0462,7.88918c-1.44877,7.17412 -1.89749,7.23551 -4.27323,10.21882c-2.5746,3.23301 -6.22007,6.15229 -9.11253,8.91074c-2.62204,2.50056 -5.47801,6.21315 -8.77908,6.21315c-4.10432,0 -6.9048,-3.78999 -10.07829,-7.4154c-4.79276,-5.47527 -11.46201,-7.91572 -13.04194,-17.80658c-0.63652,-3.98482 0.06119,-10.45004 -1.07025,-16.54383z" fill="#ffffff" stroke="none" stroke-width="0" stroke-linecap="butt"/><g stroke="none" stroke-width="0" stroke-linecap="butt"><path d="M309.19529,107.11586c5.64136,0 10.21459,4.47197 10.21459,9.98843c0,5.51646 -4.7706,9.74171 -10.41197,9.74171c-5.64137,0 -10.31875,-4.22525 -10.31875,-9.74171c0,-5.51645 4.87476,-9.98843 10.51613,-9.98843z" fill="#000000"/><path d="M309.19529,107.37023c4.97522,0 8.78866,3.85659 8.78866,8.8032c0,4.94661 -4.01083,9.08774 -8.98605,9.08774c-4.97523,0 -8.81106,-3.98769 -8.81106,-8.9343c0,-4.94662 4.03322,-8.95664 9.00844,-8.95664z" fill="#ffffff"/></g><g stroke="none" stroke-width="0" stroke-linecap="butt"><path d="M335.75522,107.14048c5.64136,0 10.21459,4.47198 10.21459,9.98844c0,5.51645 -4.72127,9.64301 -10.36263,9.64301c-3.16285,0 -6.23667,-1.06026 -8.11031,-3.26759c-1.46826,-1.72975 -1.95625,-3.95178 -1.95625,-6.37542c0,-5.51646 4.57322,-9.98844 10.21459,-9.98844z" fill="#000000"/><path d="M335.75522,107.39486c4.97523,0 8.70691,4.08541 8.70691,9.03202c0,4.94661 -3.87973,8.68387 -8.85495,8.68387c-4.97523,0 -8.8604,-3.81265 -8.8604,-8.75926c0,-4.94661 4.03322,-8.95663 9.00844,-8.95663z" fill="#ffffff"/></g><g stroke="none" stroke-linecap="butt"><path d="M330.35944,144.21418c2.14614,0.63336 4.57,2.14674 7.10189,3.18958c3.1668,1.30434 5.91835,2.72636 5.91835,2.98404c0,0.09852 0.6422,0.57742 0.34258,1.11686c-1.789,3.22099 -9.63005,12.83494 -20.94009,13.0257c-12.59325,-0.3248 -20.68677,-10.85655 -23.27914,-15.25835c-0.66575,-1.13043 -0.11257,-1.97072 -0.18768,-1.99564c-0.32963,-0.10935 2.17574,-0.56882 4.39722,-1.19556c1.32363,-0.37344 6.02869,-2.52762 9.16564,-2.62169c0,0 6.11008,0.84857 11.13979,1.05021c0,0 4.30069,-0.8974 6.34144,-0.29515z" fill="#000000" stroke-width="NaN"/><path d="M303.87753,147.43635c0,0 4.45428,-1.58314 9.14685,-1.84617c3.5353,-0.19816 8.14505,1.24124 10.14351,1.24124c1.78589,0 3.62586,-1.29154 6.32678,-0.57417c4.23256,1.12417 8.12418,3.53158 8.12418,3.53158c0,0 -3.47556,-0.50449 -6.7587,-0.10932c-2.77486,0.33399 -5.25973,0.85453 -6.95291,0.86581c-2.06827,0.01378 -6.82484,-0.83276 -11.18375,-1.76195c-4.64917,-0.99105 -8.84595,-1.34702 -8.84595,-1.34702z" fill="#ffffff" stroke-width="0"/><path d="M314.8854,151.19601c5.82065,1.20577 8.52116,2.22429 8.52116,2.22429c0,0 2.73973,-0.85807 10.10428,-1.81233c3.83362,-0.49674 8.34249,0.13003 8.34249,0.13003c0,0 -1.67172,2.4939 -5.81691,5.31831c-3.13971,2.13931 -7.86424,4.77611 -13.40623,4.89818c-13.03253,0.28708 -21.37398,-13.37554 -21.37398,-13.37554c0,0 7.27229,1.30021 13.62919,2.61706z" fill="#ffffff" stroke-width="0"/></g><path d="M294.24097,110.44708l0.13102,-1.63769l7.19167,-1.18423l0.32653,-1.46623c0,0 3.68245,-1.72538 7.2562,-2.03587c3.72054,-0.32324 9.00496,-0.09575 9.00496,-0.09575l0.32754,4.71657c0,0 -4.80797,-1.2906 -8.17678,-1.07798c-6.17314,0.38961 -6.13035,1.25866 -10.09703,1.94554c-3.96668,0.68688 -5.96411,0.83565 -5.96411,0.83565z" fill="#000000" stroke="none" stroke-width="0" stroke-linecap="butt"/><path d="M338.374,104.12857c-6.5361,-0.02665 -11.93017,2.50832 -11.93017,2.50832l-0.26203,-4.42239c0,0 5.28442,-1.73418 9.39801,-1.86949c4.11358,-0.13531 7.12519,0.66021 7.12519,0.66021l0.19551,1.20419l7.3882,2.16685l0.13101,1.6377c0,0 -5.86035,-1.86016 -12.04572,-1.88538z" data-paper-data="{&quot;index&quot;:null}" fill="#000000" stroke="none" stroke-width="0" stroke-linecap="butt"/><g stroke="none" stroke-width="0" stroke-linecap="butt"><path d="M319.86219,138.32495c0,0 -0.06312,-8.68679 -0.28083,-12.38791c-0.17487,-2.97289 -0.92532,-8.11666 -0.92532,-8.11666c0,0 -0.33218,-1.57308 0.02454,-1.56279c1.13657,0.03279 7.81544,1.78895 7.81544,1.78895l-0.37692,20.27841c0,0 0.82184,1.93768 0.72844,3.69896c-0.06976,1.31553 -0.97469,4.70292 -1.02626,5.67536c-0.11348,2.13998 -0.40577,3.89334 -0.40577,3.89334l-4.14036,-0.01448c0,0 -0.12488,-2.01528 -0.87252,-4.2695c-0.71961,-2.16969 -2.11593,-4.55553 -2.18508,-5.58924c-0.19994,-2.9885 1.64464,-3.39445 1.64464,-3.39445z" fill="#000000"/><path d="M322.22423,150.60289c0,0 -0.2909,-3.80356 -0.49735,-8.24071c-0.20504,-4.40659 -0.32473,-9.70108 -0.5883,-13.30096c-0.42508,-5.80554 -1.77895,-15.81414 -1.77895,-15.81414l6.10614,1.88461l-0.75385,35.43068z" fill="#ffffff"/><path d="M319.80663,139.50295c0.34401,0 0.62288,4.77542 0.62288,4.77542c0,0 -1.24576,-1.59275 -1.24576,-2.7251c0,-1.13236 0.27887,-2.05032 0.62288,-2.05032z" fill="#ffffff"/></g><path d="M291.69351,108.35628l-0.13889,-27.82078c0,0 21.21081,-18.67174 31.8391,-18.67174c9.85589,0 29.78844,18.67174 29.78844,18.67174l0.9522,14.8825c0,0 -4.02246,-9.83788 -7.66885,-7.46317c-9.67233,6.2991 -24.49932,12.25165 -24.49932,12.25165c0,0 1.35893,-5.58817 2.77111,-7.35673c0.40106,-0.50228 4.54916,0.19938 2.91708,1.29507c-3.05457,2.05067 -9.21276,0.88049 -9.06677,2.71752c0.21178,2.665 -14.723,6.91855 -14.723,6.91855c0,0 0.95423,-2.43077 0.8543,-5.378c-0.04024,-1.18672 4.68297,-0.25604 3.93319,-0.03875c-11.3727,3.29591 -16.95858,9.99214 -16.95858,9.99214z" fill="#000000" stroke="none" stroke-width="0" stroke-linecap="butt"/><path d="M296.48203,141.5086v-7.99242c0,0 8.71554,-4.09091 15.75,-4.09091c2.16035,0 7.55555,-6.63889 7.55555,-6.63889l2.944,0.96543l2.97654,-1.11249c0,0 4.87876,6.78594 6.88502,6.78594c6.05017,0 11.9684,3.18182 16.58349,3.18182c5.3673,0 8.97207,-3.18182 8.97207,-3.18182l-3.33333,12.08334z" fill="#000000" stroke-opacity="0.5" stroke="#000000" stroke-width="1" stroke-linecap="butt"/><g stroke="none" stroke-width="0" stroke-linecap="butt"><path d="M298.80921,148.40992l-0.81081,-12.56757l18.91892,-5.67568l-7.43243,32.16216z" fill="#3d496d"/><path d="M308.75809,156.66512c-0.30869,1.07638 -7.51755,-7.6993 -8.08133,-9.78429c-0.30363,-1.12286 -0.52305,-9.67608 0.09449,-9.87653c1,-0.32459 13.01218,-5.12868 13.86184,-4.09786c0.42724,0.51834 -5.20833,21.43409 -5.875,23.75868z" fill="#566580"/></g><g stroke="none" stroke-width="0" stroke-linecap="butt"><path d="M298.18421,148.40992l-0.81081,-12.56757l18.91892,-5.67568l-7.43243,32.16216z" fill="#3d496d"/><path d="M308.13309,156.66512c-0.30869,1.07638 -7.51755,-7.6993 -8.08133,-9.78429c-0.30363,-1.12286 -0.52305,-9.67608 0.09449,-9.87653c1,-0.32459 13.01218,-5.12868 13.86184,-4.09786c0.42724,0.51834 -5.20833,21.43409 -5.875,23.75868z" fill="#566580"/></g><g data-paper-data="{&quot;index&quot;:null}" stroke="none" stroke-width="0" stroke-linecap="butt"><path d="M334.93082,162.32885l-7.43243,-32.16216l18.91892,5.67568l-0.81081,12.56757z" fill="#3d496d"/><path d="M329.78263,132.90643c0.84966,-1.03082 12.86183,3.77327 13.86183,4.09786c0.61755,0.20045 0.39812,8.75367 0.0945,9.87653c-0.56378,2.08498 -7.77265,10.86066 -8.08134,9.78429c-0.66666,-2.32459 -6.30224,-23.24034 -5.875,-23.75868z" fill="#566580"/></g><path d="M308.36446,162.83247l7.75862,-33.79311l6.55172,-4.13793l5.34483,4.13793l7.5862,34.82759l-15.16562,11.02819z" fill="#53305f" stroke="none" stroke-width="0" stroke-linecap="butt"/><path d="M331.84464,162.20591l-10.7072,8.31146l-9.31943,-8.6672l5.34078,-25.04078c0,0 3.16607,7.04554 7.40461,11.0057c-0.08388,14.85572 7.28124,14.39082 7.28124,14.39082z" fill="#000000" stroke-opacity="0.41129" stroke="#000000" stroke-width="2.5" stroke-linecap="butt"/><g stroke-linecap="butt"><path d="M309.04452,111.99993c2.71342,0 4.91309,2.23007 4.91309,4.98099c0,2.75092 -2.19966,4.98098 -4.91309,4.98098c-2.71342,0 -4.91309,-2.23006 -4.91309,-4.98098c0,-2.75092 2.19966,-4.98099 4.91309,-4.98099z" fill="#3f4e55" stroke="none" stroke-width="0"/><path d="M309.04452,113.16065c2.08112,0 3.76819,1.7104 3.76819,3.82028c0,2.10988 -1.68707,3.82026 -3.76819,3.82026c-2.08112,0 -3.7682,-1.71039 -3.7682,-3.82026c0,-2.10988 1.68708,-3.82028 3.7682,-3.82028z" fill="#000000" stroke-opacity="0.53226" stroke="#000000" stroke-width="1"/></g><path d="M298.49895,117.69663c0,0 -0.16627,-2.22288 0.81062,-4.59656c1.16899,-2.84044 3.93233,-5.91812 9.99819,-5.95021c4.4123,-0.02334 6.77688,1.48178 8.31843,3.36171c2.53146,3.08714 2.42486,7.54013 2.42486,7.54013c0,0 -6.55852,-4.11629 -11.23965,-4.19341c-4.68113,-0.07712 -10.31245,3.83834 -10.31245,3.83834z" fill="#000000" stroke="none" stroke-width="0" stroke-linecap="butt"/><g stroke-linecap="butt"><path d="M335.75522,111.97521c2.71342,0 4.91309,2.23007 4.91309,4.98099c0,2.75092 -2.19966,4.98098 -4.91309,4.98098c-2.71342,0 -4.91309,-2.23006 -4.91309,-4.98098c0,-2.75092 2.19966,-4.98099 4.91309,-4.98099z" fill="#3f4e55" stroke="none" stroke-width="0"/><path d="M335.75522,113.13592c2.08111,0 3.7682,1.7104 3.7682,3.82027c0,2.10988 -1.68707,3.82027 -3.7682,3.82027c-2.08112,0 -3.76819,-1.71039 -3.76819,-3.82027c0,-2.10988 1.68707,-3.82027 3.76819,-3.82027z" fill="#000000" stroke-opacity="0.53226" stroke="#000000" stroke-width="1"/></g><path d="M325.45992,117.71803c0,0 -0.53134,-3.2454 0.9459,-6.12374c1.32927,-2.59004 4.34124,-4.84529 9.8629,-4.81608c11.13492,0.0589 11.0941,11.29489 11.0941,11.29489c0,0 -6.76127,-4.11771 -11.56002,-4.19551c-4.79875,-0.07779 -10.34288,3.84044 -10.34288,3.84044z" data-paper-data="{&quot;index&quot;:null}" fill="#000000" stroke="none" stroke-width="0" stroke-linecap="butt"/><path d="M309.83435,179.55259c0,4.72115 3.17808,25.80645 -1.85484,25.80645c-5.03292,0 -26.37097,-9.14982 -26.37097,-13.87096c0,-4.72115 6.01547,-32.25807 15.40323,-31.7742c2.93197,0.15112 4.54847,5.00688 7.26826,9.59357c1.94272,3.27623 5.55432,5.3882 5.55432,10.24515z" fill="#3d496d" stroke="none" stroke-width="0" stroke-linecap="butt"/><path d="M297.16437,222.61153c3.98752,1.55705 8.02221,2.90923 12.09813,4.16483c-0.27054,2.71483 -0.54282,5.78584 -0.77714,9.11116c-0.02426,-0.00516 -0.04852,-0.01033 -0.07278,-0.01552c-3.82155,-0.8179 -7.617,-1.96828 -11.39577,-3.10805c0.06178,-3.90539 0.11065,-7.34528 0.14756,-10.15241z" fill="#3d496d" stroke="none" stroke-width="0" stroke-linecap="butt"/><path d="M310.6408,214.63321c0,0.47884 -0.52246,4.07305 -1.11819,9.62905c-4.1557,-1.28401 -8.26735,-2.677 -12.32454,-4.30159c0.03781,-3.08717 0.05563,-4.98859 0.05563,-5.32746c0,-2.89504 9.33522,-5.81647 12.09751,-4.08847c1.65223,1.03358 1.28959,3.00494 1.28959,4.08847z" fill="#3d496d" stroke="none" stroke-width="0" stroke-linecap="butt"/><path d="M293.39689,243.15843c0,0 -2.15048,-1.1488 -1.8875,-4.33897c0.24857,-3.0154 2.00114,-4.20335 2.00114,-4.20335c0,0 4.25762,3.42183 10.33766,3.77997c6.21409,0.36604 8.69019,-0.25725 8.69019,-0.25725c0,0 2.02131,1.2075 1.93992,4.74025c-0.10512,4.56243 -2.28083,6.18843 -2.28083,6.18843z" fill="#53305f" stroke="none" stroke-width="0" stroke-linecap="butt"/><path d="M312.34896,240.52289c0,1.50254 0.41111,5.80955 -1.045,5.67925c-3.54718,-0.31743 -7.02554,-1.44174 -9.56991,-2.3156c-5.84403,-2.00713 -9.09782,-3.36337 -9.09782,-4.41016c0,-1.50254 0.60374,-2.25547 2.06566,-2.25547c0.62452,0 3.23818,1.72373 6.82682,2.21706c4.81198,0.66151 10.82023,0.22425 10.82023,1.08492z" fill="#654779" stroke="none" stroke-width="0" stroke-linecap="butt"/><path d="M281.33655,211.3733c0,-2.07127 1.16189,0 4.50045,0.30003c0.82861,0.07447 -0.10464,6.06304 -0.44034,13.38321c-0.16442,3.58545 0.80615,7.73828 0.27309,11.19102c-1.26415,0.68044 -3.99883,1.39843 -5.21663,2.14224c0.01868,-10.2978 0.88343,-25.65056 0.88343,-27.0165z" fill="#576b75" stroke="none" stroke-width="0" stroke-linecap="butt"/><path d="M281.33655,247.67691c-0.54578,0 -0.79196,-2.57907 -0.86186,-6.36424c1.04754,-0.65992 2.10474,-1.30277 3.1805,-1.9206c-0.83489,4.80065 -1.69853,8.28484 -2.31863,8.28484z" fill="#576b75" stroke="none" stroke-width="0" stroke-linecap="butt"/><path d="M325.96591,131.43777c0,0 1.34489,7.4476 2.72833,14.48271c0.44954,2.28603 1.63058,7.27655 1.81588,8.34611c0.29848,1.72287 0.0824,3.87636 0.0824,3.87636c0,0 -1.13331,-0.0362 -1.43497,-2.76249c-0.15454,-1.39669 -0.79777,-4.02593 -1.53726,-6.84691c-0.11716,-0.44693 -0.0651,-2.15139 -0.0651,-2.15139c0,0 -1.01309,-1.05363 -1.42553,-1.59169c-0.64998,-0.84796 -1.33852,-1.37907 -1.33852,-1.37907c0,0 -4.24724,-5.17912 -4.24724,-6.5516c0,-1.37248 -2.16881,-4.20206 -2.16881,-4.20206l4.06716,-4.51602z" fill="#ffffff" stroke-opacity="0.41129" stroke="#000000" stroke-width="2.5" stroke-linecap="butt"/></g></g></svg>