<svg version="1.1" xmlns="http://www.w3.org/2000/svg" xmlns:xlink="http://www.w3.org/1999/xlink" width="194.68776" height="200.38824" viewBox="0,0,194.68776,200.38824"><g transform="translate(-157.02429,-47.5)"><g data-paper-data="{&quot;isPaintingLayer&quot;:true}" fill-rule="nonzero" stroke-linejoin="miter" stroke-miterlimit="10" stroke-dasharray="" stroke-dashoffset="0" style="mix-blend-mode: normal"><g stroke="none" stroke-width="0" stroke-linecap="butt"><path d="M197.35438,135.56149c0.96947,14.26439 -6.91733,26.41741 -17.6156,27.14451c-10.6983,0.7271 -20.15687,-10.24704 -21.12634,-24.51147c-0.96947,-14.26439 6.9173,-26.41741 17.6156,-27.14451c10.6983,-0.7271 20.15691,10.24704 21.12634,24.51147z" fill="#999999"/><path d="M158.1214,146.87701l-1.09711,-16.14251l41.97045,-2.85246l1.09711,16.14251z" fill="#747474"/><path d="M173.83017,115.53765l-1.24338,-18.2948l7.53315,-0.512l1.24338,18.2948z" fill="#747474"/><path d="M178.3699,102.79596l-0.29255,-4.30467l8.07124,-0.54857l0.29255,4.30467z" fill="#747474"/></g><g stroke-width="0.5"><path d="M278.51858,245.3772l-28.20836,-39.81345l28.2012,-19.98092l28.20835,39.81345c0,0 0.00827,7.4594 -2.68414,13.30356c-1.38155,2.99875 -4.86617,5.33474 -6.53032,6.51384c-2.16132,1.53133 -7.4198,2.94955 -11.52067,2.62884c-4.33816,-0.33926 -7.46603,-2.46531 -7.46603,-2.46531z" fill="#696969" stroke="none" stroke-linecap="butt"/><path d="M263.22665,204.71359l-13.99375,-19.75089l8.29447,-5.87674l13.99375,19.75088z" fill="#505050" stroke="none" stroke-linecap="butt"/><path d="M252.98658,184.55261c0,0 -2.77333,1.60399 -3.47097,0.61932c-0.50394,-0.71124 -0.32614,-5.97857 -0.32614,-5.97857c0,0 8.09649,-4.59951 12.03676,-5.88558c3.05392,-0.99678 9.63085,-1.18669 9.63085,-1.18669l2.07429,5.19991c0,0 -9.86401,-1.98068 -12.49957,-0.11336c-2.81403,1.9938 -7.44526,7.34493 -7.44526,7.34493z" fill="#505050" stroke="none" stroke-linecap="butt"/><path d="M261.47091,219.44549l-5.4295,-7.66329l26.54108,-18.80471l5.42951,7.66329z" fill="#505050" stroke="none" stroke-linecap="butt"/><path d="M273.77932,236.82675l-10.72662,-15.13965l26.54108,-18.80471l10.72662,15.13965z" fill="#505050" stroke="none" stroke-linecap="butt"/><path d="M279.32511,243.85249l-3.44311,-4.85963l25.4196,-18.01013l3.44311,4.85963c0,0 -3.77568,12.22013 -8.20725,15.35996c-3.99664,2.83166 -17.21235,2.65017 -17.21235,2.65017z" fill="#505050" stroke="none" stroke-linecap="butt"/><path d="M274.04313,232.43525l-7.01864,-9.90619l22.05526,-15.62643l7.01864,9.9062z" fill="#d3d3d3" stroke="none" stroke-linecap="butt"/><path d="M278.22472,225.26149l-0.32013,-6.79154l10.64704,1.1592" fill="none" stroke="#000000" stroke-linecap="round"/></g><g stroke="none" stroke-width="0" stroke-linecap="butt"><path d="M314.45739,103.22074c7.94022,6.95909 10.35492,17.18981 5.39336,22.85086c-4.96159,5.66113 -15.42059,4.60886 -23.36081,-2.35024c-7.94022,-6.95909 -10.35492,-17.18981 -5.39336,-22.85086c4.96159,-5.66113 15.42059,-4.60886 23.36081,2.35024z" fill="#9a9a9a"/><path d="M333.23129,155.92282l-38.33884,-33.60145l18.4808,-21.08632l38.3388,33.60153z" fill="#bfbfbf"/><path d="M331.29117,150.07961l-30.35163,-26.60116l14.63062,-16.69335l30.35163,26.60116z" fill="#aaaaaa"/></g><g stroke="none" stroke-linecap="butt"><path d="M241.3275,86.72583v-39.22583h21.7075v39.22583z" fill="#9f9f9f" stroke-width="none"/><path d="M237.9,93.2v-7.9975h28.5625v7.9975z" fill="#7f7f7f" stroke-width="0"/><path d="M244.33185,81.68433v-30.88981h15.86806v30.88981z" fill="#7f7f7f" stroke-width="0"/></g></g></g></svg>