<svg version="1.1" xmlns="http://www.w3.org/2000/svg" xmlns:xlink="http://www.w3.org/1999/xlink" width="93.4684" height="256.54916" viewBox="0,0,93.4684,256.54916"><g transform="translate(-272.12261,-53.3875)"><g data-paper-data="{&quot;isPaintingLayer&quot;:true}" fill-rule="nonzero" stroke-linejoin="miter" stroke-miterlimit="10" stroke-dasharray="" stroke-dashoffset="0" style="mix-blend-mode: normal"><path d="M274.40898,306.61251v-253.22501h91.18203v253.22501z" fill-opacity="0.01" fill="#000000" stroke="none" stroke-width="0" stroke-linecap="butt"/><g stroke-linecap="butt"><g><path d="M281.0304,304.39162c0,0 -0.63536,-94.38387 -0.79335,-118.01201c-0.05451,-8.15261 8.18688,-36.76129 40.20201,-36.9211c31.60235,-0.15775 39.85672,29.48704 39.84884,36.89673c-0.07659,46.24274 0.65429,117.98648 0.65429,117.98648l-10.49667,0.09614l-0.15882,-114.84311c0,0 0.07549,-3.0993 -2.81625,-3.15415c-3.43441,-0.06514 -2.94538,3.11562 -2.94538,3.11562l0.20548,114.86995l-48.21366,0.07222l-0.30539,-115.23309c0,0 0.27949,-2.919 -2.8856,-2.93443c-3.11083,-0.01515 -2.81569,2.90899 -2.81569,2.90899l0.35311,115.0668z" fill="#ffffff" stroke="#000000" stroke-width="2"/><path d="M277.01045,306.31744l0.37876,-128.40058c0,0 11.34949,-28.69139 42.03945,-29.02179c32.22527,-0.34693 41.28836,27.8855 41.28836,27.8855l3.0301,129.1581c0,0 -6.19159,-1.48426 -14.6261,-1.48553c-3.90846,-0.00059 -8.4226,-93.4627 -8.4226,-93.4627l-43.70728,0.28678c0,0 -1.22873,94.69045 -2.9921,94.69815c-5.09242,0.02224 -16.98859,0.34208 -16.98859,0.34208z" fill="#3d496d" stroke="none" stroke-width="0"/><path d="M296.7061,306.31744v-154.15645c0,0 16.91439,-5.68144 23.86205,-5.68144c8.13959,0 21.96824,5.68144 21.96824,5.68144v154.15645z" fill="#333e44" stroke="none" stroke-width="0"/><path d="M295.1731,307.22504l-1.37356,-153.56405c0,0 4.12783,-4.00707 6.1106,-0.41388c4.46388,8.08947 4.28965,29.39191 15.02569,29.67485c0,0 -1.4826,87.01372 -6.22395,110.11523c-1.01283,4.93483 -1.53695,11.56424 -3.73189,13.66521c-3.90003,3.73305 -9.80689,0.52264 -9.80689,0.52264z" fill="#705d86" stroke="#000000" stroke-width="0"/><path d="M332.2944,294.24958c-8.5601,-41.70769 -6.98148,-109.73647 -6.98148,-109.73647c10.73604,-0.28294 10.18305,-22.72167 14.64693,-30.81114c1.98277,-3.59319 6.1106,0.41388 6.1106,0.41388c0,0 0.83362,138.73276 0.72593,150.77221c-0.01466,1.63829 -2.09949,2.79183 -2.09949,2.79183c0,0 -2.9685,5.46256 -6.86573,-0.60962c-1.19379,-1.86001 -4.87728,-9.60746 -5.53677,-12.8207z" data-paper-data="{&quot;index&quot;:null}" fill="#705d86" stroke="#000000" stroke-width="0"/></g><path d="M277.38442,179.54318c0.83524,0.59831 1.67059,1.19647 2.50608,1.79442c3.67474,2.62995 7.30183,5.35091 10.91874,8.09502c-1.36704,3.09815 -2.78697,6.16568 -4.30493,9.17662c-0.92373,1.83225 -1.86683,3.65273 -2.82766,5.4624c-2.10924,-1.33168 -4.22805,-2.64698 -6.35294,-3.95106z" fill-opacity="0.11765" fill="#000000" stroke="none" stroke-width="0"/><path d="M303.917,199.34303c-2.90153,3.97039 -5.73124,7.94452 -8.47019,12.05026c-1.09181,-0.66727 -2.18222,-1.33676 -3.27114,-2.00858c1.10921,-2.07691 2.19593,-4.16753 3.25781,-6.27325c1.2375,-2.45399 2.43858,-4.92885 3.61275,-7.41832c1.61883,1.22432 3.2413,2.44297 4.87077,3.6499z" fill-opacity="0.11765" fill="#000000" stroke="none" stroke-width="0"/><path d="M315.96322,207.84405c-2.27365,3.92396 -4.49869,7.87728 -6.68874,11.85118c-1.75692,-1.03779 -3.51118,-2.07979 -5.26243,-3.12656c2.59418,-3.87744 5.27641,-7.63365 8.02315,-11.38801c1.30114,0.90206 2.60994,1.79083 3.92801,2.66339z" fill-opacity="0.11765" fill="#000000" stroke="none" stroke-width="0"/><path d="M277.21686,236.34353l0.00434,-1.47257c3.48171,-5.50433 6.86615,-11.06904 10.10342,-16.7238c0.93159,0.57451 1.86427,1.14731 2.798,1.71847c-2.99959,5.08984 -5.80742,10.31066 -8.78965,15.40179c-0.52706,0.89978 -1.05818,1.80029 -1.59189,2.70175c-0.83809,-0.54435 -1.67993,-1.08584 -2.52422,-1.62564z" fill-opacity="0.11765" fill="#000000" stroke="none" stroke-width="0"/><path d="M277.28907,211.8658c0.4995,0.31394 0.99847,0.6288 1.49684,0.94465c0.0182,0.01153 0.0364,0.02307 0.0546,0.0346c-0.51693,0.90564 -1.03778,1.80888 -1.56232,2.70986z" fill-opacity="0.11765" fill="#000000" stroke="none" stroke-width="0"/><path d="M294.40689,247.61345c-2.10331,-1.37704 -4.20534,-2.75617 -6.30573,-4.13793c0.62445,-1.05262 1.24545,-2.10378 1.86049,-3.15379c2.95579,-5.04621 5.73141,-10.23886 8.70991,-15.28655c1.93699,1.15857 3.87772,2.31125 5.82169,3.45878c-3.40688,6.34937 -6.75082,12.73426 -10.08637,19.1195z" fill-opacity="0.11765" fill="#000000" stroke="none" stroke-width="0"/><path d="M310.11388,257.8544c-2.43302,-1.58162 -4.86547,-3.16419 -7.2968,-4.74856c3.40978,-6.53135 6.82605,-13.06402 10.30856,-19.55928c3.43263,1.99337 6.87314,3.97409 10.31895,5.94609c-4.47971,6.09373 -8.94439,12.19747 -13.33071,18.36174z" fill-opacity="0.11765" fill="#000000" stroke="none" stroke-width="0"/><path d="M337.03569,220.95643c-2.52891,3.48475 -5.07371,6.95616 -7.62276,10.42357c-3.84404,-2.19818 -7.68182,-4.40673 -11.50976,-6.63107c2.12176,-3.85193 4.27677,-7.6843 6.47771,-11.48887c4.17098,2.61899 8.39607,5.18235 12.65481,7.69636z" fill-opacity="0.11765" fill="#000000" stroke="none" stroke-width="0"/><path d="M277.01045,306.31739l0.01189,-4.02943c3.7801,-6.63034 7.25926,-13.47617 10.73788,-20.30424c1.41402,0.91917 2.82742,1.83995 4.24091,2.76132c-4.53312,7.1805 -8.98331,14.47438 -13.6733,21.5666l-1.31738,0.00576z" fill-opacity="0.11765" fill="#000000" stroke="none" stroke-width="0"/><path d="M293.64324,270.59529c1.51405,-2.85507 3.01904,-5.71706 4.52003,-8.58271c2.06583,1.34627 4.13242,2.69132 6.19946,4.03565c-2.3535,3.40458 -4.67522,6.83392 -6.95483,10.29627c-1.68624,-1.0976 -3.37233,-2.19432 -5.05942,-3.28857c0.42948,-0.82212 0.86088,-1.64247 1.29476,-2.46064z" fill-opacity="0.11765" fill="#000000" stroke="none" stroke-width="0"/><path d="M289.75239,256.52016c-1.64166,3.13531 -3.28742,6.26673 -4.94376,9.39011c-0.30138,0.56832 -0.60154,1.13772 -0.90066,1.70806c-2.25086,-1.43736 -4.50688,-2.86557 -6.77075,-4.28085l0.00266,-0.90224c1.85987,-3.48076 3.838,-6.92788 5.85074,-10.35143c2.25226,1.48147 4.50631,2.96004 6.76177,4.43635z" fill-opacity="0.11765" fill="#000000" stroke="none" stroke-width="0"/><path d="M277.08538,280.91842l0.01711,-5.80169c0.73967,0.47079 1.4787,0.9427 2.21717,1.41557c-0.74421,1.46163 -1.48795,2.92445 -2.23428,4.38612z" fill-opacity="0.11765" fill="#000000" stroke="none" stroke-width="0"/><path d="M318.5037,263.30484c4.50205,-6.32202 9.08713,-12.58011 13.68536,-18.82971c6.69488,3.80039 13.40145,7.58046 20.10087,11.36881c-1.29694,3.04816 -2.61354,6.07383 -4.00113,9.03778c-2.11095,4.50907 -4.52566,8.89054 -7.1128,13.1846c-7.54674,-4.93777 -15.10943,-9.84976 -22.67231,-14.76148z" fill-opacity="0.11765" fill="#000000" stroke="none" stroke-width="0"/><path d="M363.43447,292.61197c-0.50365,-0.28416 -1.00744,-0.56801 -1.51138,-0.8515c-4.12291,-2.75077 -8.25501,-5.48668 -12.39369,-8.21197c2.84262,-4.6948 5.49778,-9.48726 7.81531,-14.42522c1.28098,-2.7294 2.49775,-5.5145 3.69321,-8.32231c0.55763,0.31685 1.11516,0.63383 1.67257,0.95098z" fill-opacity="0.11765" fill="#000000" stroke="none" stroke-width="0"/><path d="M338.16072,236.36152c2.5331,-3.44576 5.06102,-6.89623 7.57205,-10.36068c5.27254,3.00767 10.57495,5.94738 15.86941,8.83076c-1.92568,3.82757 -3.68379,7.7705 -5.38735,11.74244c-6.01776,-3.40264 -12.0403,-6.79994 -18.05411,-10.21252z" fill-opacity="0.11765" fill="#000000" stroke="none" stroke-width="0"/><path d="M315.39851,287.97808c-3.21513,-2.04678 -6.41514,-4.11094 -9.60779,-6.18158c2.28018,-3.46323 4.60307,-6.89312 6.95811,-10.29807c7.6977,5.00085 15.39589,10.00095 23.07873,15.02582c-2.18417,3.3223 -4.42172,6.60656 -6.64744,9.87273c-4.63237,-2.73748 -9.23636,-5.52537 -13.78161,-8.4189z" fill-opacity="0.11765" fill="#000000" stroke="none" stroke-width="0"/><path d="M363.74713,305.93863l-18.01446,0.07867c-2.63214,-1.5236 -5.26673,-3.04237 -7.89826,-4.56627c2.12768,-3.12754 4.259,-6.27208 6.34425,-9.44944c4.1785,2.74921 8.35075,5.50853 12.51421,8.28206c2.34078,1.31898 4.67853,2.64513 7.01486,3.97499z" fill-opacity="0.11765" fill="#000000" stroke="none" stroke-width="0"/><path d="M290.28119,306.25946c3.40785,-5.32974 6.73191,-10.72356 10.0998,-16.05696c3.20545,2.08139 6.41848,4.15567 9.64725,6.21121c4.39378,2.79721 8.84176,5.49688 13.3171,8.14788c-0.41095,0.52328 -0.82569,1.04289 -1.24414,1.55891z" fill-opacity="0.11765" fill="#000000" stroke="none" stroke-width="0"/><path d="M285.71045,173.20567c-1.36955,-0.9802 -2.7387,-1.96095 -4.10767,-2.94199c2.27801,-3.41329 5.54177,-7.48404 9.93974,-11.15255c3.33466,1.72367 6.82945,3.12428 10.28812,4.59769c-2.46472,5.33749 -4.7139,10.79823 -6.98475,16.24584c-3.02634,-2.28751 -6.06404,-4.55077 -9.13543,-6.74898z" fill-opacity="0.11765" fill="#000000" stroke="none" stroke-width="0"/><path d="M319.65277,172.94706c-1.78851,4.40758 -3.66725,8.84158 -5.94117,12.94618c-0.97517,1.76026 -2.38881,3.65889 -3.78828,5.46558c-2.21725,-1.63966 -4.42092,-3.3023 -6.61958,-4.97225c2.4138,-5.41259 4.75746,-10.85678 7.12552,-16.27006c0.29817,-0.6816 0.56009,-1.29593 0.79508,-1.8581c2.82583,1.53311 5.63468,3.09723 8.42843,4.68864z" fill-opacity="0.11765" fill="#000000" stroke="none" stroke-width="0"/><path d="M323.7637,194.84825c-0.90735,1.4553 -1.80558,2.91619 -2.69541,4.38222c-1.01195,-0.67337 -2.01846,-1.35633 -3.02027,-2.04751c1.56161,-2.0107 3.04821,-3.99675 4.37969,-6.38776c2.25495,-4.04934 4.15482,-8.40767 5.94645,-12.76779c1.55847,0.92713 3.11276,1.86169 4.66321,2.80301c-3.17654,4.62702 -6.322,9.28367 -9.27367,14.01783z" fill-opacity="0.11765" fill="#000000" stroke="none" stroke-width="0"/><path d="M329.71957,149.83718c-2.01184,4.59665 -4.19468,9.1118 -6.22998,13.78219c-2.71329,-1.53538 -5.44092,-3.04471 -8.18456,-4.52463c0.1955,-0.35839 0.40615,-0.73797 0.63437,-1.14265c1.78922,-3.17267 3.79647,-6.11321 5.84479,-9.03098c2.83076,0.09434 5.47233,0.414 7.93537,0.91608z" fill-opacity="0.11765" fill="#000000" stroke="none" stroke-width="0"/><path d="M301.55174,152.77893c2.26742,-1.03388 4.71479,-1.90859 7.35039,-2.56484c-0.57847,0.93181 -1.14167,1.87879 -1.68467,2.8464c-0.32021,0.57061 -0.63573,1.14392 -0.94688,1.71972c-1.57299,-0.66704 -3.15215,-1.3216 -4.71885,-2.00129z" fill-opacity="0.11765" fill="#000000" stroke="none" stroke-width="0"/><path d="M348.11562,158.7577c-2.92422,4.19087 -5.74629,8.46632 -8.5914,12.63798c-0.26779,0.39265 -0.53617,0.78528 -0.80503,1.17792c-2.16612,-1.31805 -4.33961,-2.6231 -6.52138,-3.91335c2.26746,-5.34427 4.74698,-10.45914 7.01586,-15.67948c3.44578,1.63282 6.39424,3.63445 8.90196,5.77694z" fill-opacity="0.11765" fill="#000000" stroke="none" stroke-width="0"/><path d="M350.16652,202.39771c-2.39184,3.49453 -4.81875,6.96045 -7.26972,10.40659c-4.51916,-2.65937 -9.00111,-5.37466 -13.42073,-8.15338c0.90922,-1.4998 1.82729,-2.99417 2.75503,-4.48258c2.9649,-4.75675 6.13029,-9.43278 9.32412,-14.0796c4.51621,2.83152 9.00457,5.71075 13.47359,8.62072c-1.55744,2.6171 -3.15893,5.19959 -4.8623,7.68826z" fill-opacity="0.11765" fill="#000000" stroke="none" stroke-width="0"/><path d="M360.71702,176.78054l0.18429,7.85535c-0.27847,0.47196 -0.55596,0.94525 -0.83282,1.41954c-4.25851,-2.77148 -8.53462,-5.51496 -12.83554,-8.21591c0.183,-0.26754 0.36573,-0.53508 0.5482,-0.80264c2.41598,-3.54263 4.81082,-7.16839 7.27068,-10.7482c4.11064,5.64932 5.66519,10.49187 5.66519,10.49187z" fill-opacity="0.11765" fill="#000000" stroke="none" stroke-width="0"/><path d="M361.81422,223.5481c-3.4115,-1.87866 -6.82162,-3.78265 -10.21996,-5.71508c2.33556,-3.29209 4.64798,-6.60306 6.92745,-9.94069c0.9699,-1.42014 1.90765,-2.86887 2.82349,-4.33614z" fill-opacity="0.11765" fill="#000000" stroke="none" stroke-width="0"/><path d="M277.38919,177.91683c0,0 0.62395,-1.57734 1.97486,-3.99661c3.6835,2.63421 7.31892,5.31988 10.85607,8.09164c10.20613,7.99765 20.0599,16.44818 30.25814,24.46407c-0.68906,12.16839 -0.12111,24.47426 1.40587,36.402c-0.83948,1.77357 -1.68379,3.54459 -2.53236,5.31348c-14.52095,-9.1344 -28.33976,-19.34172 -42.08249,-29.62758z" fill-opacity="0.11765" fill="#000000" stroke="none" stroke-width="0"/><path d="M333.84835,216.47951c-0.17158,0.40058 -0.34396,0.8011 -0.51716,1.20155c-0.98458,2.27643 -1.98107,4.5456 -2.98834,6.80837c-0.14428,-3.53229 -0.18987,-7.07542 -0.12888,-10.61519c1.20433,0.87813 2.41643,1.74568 3.63438,2.60528z" fill-opacity="0.11765" fill="#000000" stroke="none" stroke-width="0"/><path d="M277.01045,306.31739l0.22203,-75.26799c12.29896,9.14336 24.74852,18.09032 37.73389,26.19556c-4.43172,9.06937 -8.95022,18.10218 -13.47771,27.15714c-3.58491,7.16982 -6.90668,14.62727 -10.54922,21.85447l-13.92898,0.06083z" fill-opacity="0.11765" fill="#000000" stroke="none" stroke-width="0"/><path d="M302.10173,306.20784c2.80267,-5.78727 5.48717,-11.64557 8.33118,-17.33359c4.41152,-8.82306 8.81394,-17.62587 13.13687,-26.46144c0.63775,0.36548 1.27846,0.72866 1.92167,1.08925c2.11889,9.61933 4.84593,19.18211 8.16766,28.25384c1.76581,4.82248 4.4524,9.25636 6.61493,13.91445c0.05726,0.12335 0.11457,0.24669 0.17191,0.37004z" fill-opacity="0.11765" fill="#000000" stroke="none" stroke-width="0"/><path d="M363.74713,305.93863l-12.27831,0.05362c-0.71511,-1.51015 -1.4229,-3.02165 -2.12466,-4.53301c-2.08267,-4.48544 -4.69886,-8.74233 -6.38933,-13.3898c-2.16729,-5.95836 -4.07402,-12.14362 -5.70871,-18.4153c1.05649,0.51358 2.1126,1.01617 3.16649,1.50665c5.54281,2.57958 11.44781,4.41768 16.77156,7.42346c2.12101,1.19752 3.89354,2.97187 6.0186,4.15112z" fill-opacity="0.11765" fill="#000000" stroke="none" stroke-width="0"/><path d="M359.8131,234.39674c0.76646,0.55837 1.53142,1.11897 2.29508,1.68149l0.8045,34.29202c-0.23412,-0.15463 -0.47268,-0.30205 -0.71721,-0.43973c-5.59582,-3.15071 -11.7696,-5.14447 -17.59371,-7.84999c-3.42464,-1.59087 -6.87382,-3.31939 -10.27809,-5.13941c-0.75376,-3.77137 -1.40803,-7.53992 -1.96038,-11.27587c-0.0593,-0.398 -0.11749,-0.79654 -0.17456,-1.19558c3.45136,-7.34544 6.8163,-14.73751 10.0553,-22.20599c5.89287,3.9947 11.81904,7.94411 17.56907,12.13306z" fill-opacity="0.11765" fill="#000000" stroke="none" stroke-width="0"/><path d="M319.42866,148.89504c5.147,-0.05541 9.70313,0.61825 13.72584,1.78949c-0.54956,2.23736 -1.07972,4.45855 -1.60313,6.64679c-2.09345,8.75216 -6.23,16.95085 -8.06247,25.77126c-0.78509,3.77896 -1.42074,7.60656 -1.91681,11.46574c-8.45476,-6.80902 -16.74582,-13.82379 -25.29164,-20.51089c-3.66942,-2.87132 -7.44046,-5.65286 -11.26023,-8.38138c6.50903,-7.84556 17.53589,-16.59936 34.40844,-16.78101z" fill-opacity="0.11765" fill="#000000" stroke="none" stroke-width="0"/><path d="M353.93499,164.81714c-1.95351,4.40794 -3.80125,8.85395 -5.41325,13.35834c-3.47629,9.71371 -6.9481,19.29798 -10.75376,28.8214c-0.88293,-0.63372 -1.76218,-1.27245 -2.63698,-1.91721c-1.43862,-1.06032 -2.86684,-2.13383 -4.28653,-3.21813c0.50121,-5.6281 1.29878,-11.20624 2.42511,-16.67607c1.78765,-8.68149 5.8998,-16.77773 7.97466,-25.3948c0.40252,-1.6717 0.80627,-3.36908 1.21863,-5.08209c4.95154,2.93443 8.70048,6.60657 11.47213,10.10857z" fill-opacity="0.11765" fill="#000000" stroke="none" stroke-width="0"/><path d="M360.71702,176.78054l1.09682,46.75193c-5.15536,-3.62905 -10.41264,-7.1196 -15.62525,-10.67078c4.17306,-10.28808 7.93974,-20.64377 11.68686,-31.14952c0.74108,-2.07775 1.53491,-4.14287 2.36766,-6.19739c0.32576,0.80426 0.47391,1.26576 0.47391,1.26576z" fill-opacity="0.11765" fill="#000000" stroke="none" stroke-width="0"/><path d="M340.73702,277.79946c-0.80306,2.36851 -1.58814,4.74239 -2.26414,7.14944c-1.9059,6.78632 -4.3503,13.91765 -5.84574,21.12563l-18.28609,0.07986c-4.83403,-2.69517 -9.44007,-5.7913 -13.05503,-9.90343c-3.24693,-3.69349 -5.27228,-8.67703 -6.29822,-13.85189c9.59923,-6.0515 19.48783,-11.61722 29.49705,-16.96828c5.36783,4.19649 10.79298,8.3035 16.25217,12.36867z" fill-opacity="0.11765" fill="#000000" stroke="none" stroke-width="0"/><path d="M308.34466,252.32901c2.52795,2.14089 5.07483,4.24955 7.638,6.33136c-6.7896,3.68166 -13.51536,7.4753 -20.12683,11.46255c4.30793,-5.81539 8.41319,-11.79908 12.48883,-17.79391z" fill-opacity="0.11765" fill="#000000" stroke="none" stroke-width="0"/><path d="M363.47926,294.52117l0.26786,11.41746l-21.0414,0.09189c1.5061,-6.39452 3.80669,-12.7169 5.39509,-18.37921c0.33881,-1.20779 0.70657,-2.40677 1.09076,-3.60075c4.75105,3.49288 9.51865,6.97278 14.2877,10.47061z" fill-opacity="0.11765" fill="#000000" stroke="none" stroke-width="0"/><path d="M277.01045,306.31739l0.03518,-11.92568c2.25895,-1.50497 4.50561,-3.04805 6.75928,-4.60966c0.77103,-0.53426 1.54448,-1.06448 2.32025,-1.59082c1.51942,5.38115 3.97002,10.43431 7.48981,14.47495c1.19955,1.37705 2.30722,2.54372 3.37403,3.56397l-19.97856,0.08725z" fill-opacity="0.11765" fill="#000000" stroke="none" stroke-width="0"/><path d="M317.24411,239.31006c4.45451,-6.40336 9.04326,-12.69594 13.64771,-18.97609c5.9246,1.14094 11.88138,1.98227 17.70493,2.50061c4.43427,0.388 8.83396,0.71201 13.22354,0.97312l0.22465,9.57563c-0.70481,0.93974 -1.40068,1.88577 -2.0868,2.83848c-3.33688,1.43606 -6.58766,2.97205 -9.70549,4.57361c-8.27897,4.26493 -16.58748,8.49476 -24.83694,12.8328c-3.83562,-3.16229 -7.63725,-6.36843 -11.41715,-9.60984c1.07728,-1.57468 2.15808,-3.14509 3.24555,-4.70833z" fill-opacity="0.11765" fill="#000000" stroke="none" stroke-width="0"/><path d="M346.64965,258.64779c-1.39348,3.00961 -2.05009,6.29328 -2.86194,9.52301c-3.33923,-2.52453 -6.64085,-5.08956 -9.91213,-7.69c5.31597,-2.76865 10.65091,-5.50101 15.97996,-8.23702c-1.12909,2.09789 -2.2,4.23151 -3.20589,6.40401z" fill-opacity="0.11765" fill="#000000" stroke="none" stroke-width="0"/><path d="M363.18851,282.1276c-3.60497,-2.53385 -7.21811,-5.06074 -10.79909,-7.62829c0.01683,-0.05255 0.03363,-0.1051 0.05039,-0.15767c1.26241,-3.95866 1.72439,-8.2053 3.48937,-11.96688c1.93716,-4.12853 4.12742,-8.10677 6.51533,-11.95985z" fill-opacity="0.11765" fill="#000000" stroke="none" stroke-width="0"/><path d="M361.58494,213.77534c-4.0213,-0.24657 -8.05325,-0.54717 -12.11651,-0.9027c-3.95273,-0.33942 -7.97467,-0.84636 -12.00462,-1.50744c2.19057,-3.00051 4.37186,-6.00884 6.53103,-9.03565c5.46517,-3.74667 11.36633,-7.30654 17.07302,-10.59492z" fill-opacity="0.11765" fill="#000000" stroke="none" stroke-width="0"/><path d="M360.51604,180.37252c0.09222,-0.12266 0.18439,-0.24678 0.27652,-0.37227l0.00949,0.40437c-0.17425,0.09308 -0.34818,0.18678 -0.52178,0.28114c0.07862,-0.10434 0.15721,-0.20876 0.23577,-0.31324z" fill-opacity="0.11765" fill="#000000" stroke="none" stroke-width="0"/><path d="M277.38919,177.91683c0,0 11.34949,-28.69139 42.03945,-29.02179c17.63154,-0.18982 28.32935,8.17575 34.40269,15.79165c-3.78352,6.33511 -7.59533,12.65232 -11.30563,19.00724c-3.85835,5.25755 -7.71293,10.51807 -11.56211,15.78252c-3.35748,2.63831 -6.62373,5.46463 -9.84021,8.36789c-3.19539,-0.85658 -6.34121,-1.80263 -9.40477,-2.83101c-5.29772,-1.77835 -10.12455,-4.73361 -15.19341,-7.08627c-6.69502,-3.10742 -12.98422,-6.70193 -19.16386,-10.57035z" fill-opacity="0.11765" fill="#000000" stroke="none" stroke-width="0"/><path d="M277.30656,205.92747l0.02031,-6.88386c4.84882,2.86518 9.80489,5.54182 14.98363,7.95186c5.35327,2.49127 10.47861,5.55682 16.07303,7.44531c1.37115,0.46286 2.75727,0.90935 4.1559,1.33915c-2.85275,2.66439 -5.69531,5.31013 -8.55819,7.85552c-1.64425,2.48114 -3.26529,4.95402 -4.82931,7.43957c-7.76898,-7.92456 -14.79227,-16.58562 -21.84537,-25.14756z" fill-opacity="0.11765" fill="#000000" stroke="none" stroke-width="0"/><path d="M278.47438,275.97749c-0.4601,0.53712 -0.91984,1.07437 -1.37919,1.61177l0.06329,-21.45632c0.83231,-0.38904 1.66419,-0.77223 2.49636,-1.14596c3.00625,-1.35013 6.06842,-2.59893 9.07168,-3.96149c-2.10889,5.45172 -3.62449,11.17782 -4.26598,17.35204c-0.01002,0.09646 -0.01978,0.19309 -0.02927,0.28989c-1.93105,2.48439 -3.91162,4.92586 -5.95689,7.31007z" fill-opacity="0.11765" fill="#000000" stroke="none" stroke-width="0"/><path d="M277.26045,221.56175c4.73094,5.65337 9.56662,11.22251 14.71906,16.48018c-0.51549,0.31322 -1.0351,0.62227 -1.55911,0.927c-4.2071,2.44656 -8.76201,4.23204 -13.22952,6.17502z" fill-opacity="0.11765" fill="#000000" stroke="none" stroke-width="0"/><path d="M327.0254,271.69656c-0.73727,-1.33837 -1.48008,-2.67713 -2.22905,-4.01524c4.37122,-3.28625 8.76415,-6.5737 13.14299,-9.88928c0.2267,2.22334 0.51437,4.22341 0.84438,5.76563c0.53304,2.49111 2.8592,7.51428 4.2148,10.517c2.05382,4.54932 4.34672,9.11114 6.32988,13.7615c-2.93252,2.91327 -5.96422,5.70957 -9.06617,8.42289c-4.30921,-8.23101 -8.73694,-16.39382 -13.23683,-24.56249z" fill-opacity="0.11765" fill="#000000" stroke="none" stroke-width="0"/><path d="M347.68327,250.32723c-0.06063,0.40431 -0.11951,0.80886 -0.17649,1.21362c-0.01697,-0.34643 -0.03237,-0.69369 -0.04609,-1.04065c0.07421,-0.05764 0.1484,-0.1153 0.22258,-0.17297z" fill-opacity="0.11765" fill="#000000" stroke="none" stroke-width="0"/><path d="M345.29509,306.01921c-0.10851,-0.2139 -0.21712,-0.42774 -0.32582,-0.64152c3.0618,-2.61576 6.06486,-5.30177 8.98323,-8.08895c0.17483,0.12022 0.36229,0.23089 0.56295,0.32809c1.73035,2.89933 3.61932,5.71447 5.65985,8.3374z" fill-opacity="0.11765" fill="#000000" stroke="none" stroke-width="0"/><path d="M359.16909,254.81258c1.14893,0.95298 2.29718,1.90401 3.44554,2.85291l0.37877,16.14494c-1.282,1.15957 -2.56413,2.31894 -3.82258,3.50237c-0.96496,-2.03435 -1.89084,-4.07713 -2.20598,-6.28175c-0.8317,-5.81842 -0.48872,-11.80783 0.34168,-17.75585c0.62232,0.51128 1.24325,1.02368 1.86258,1.53738z" fill-opacity="0.11765" fill="#000000" stroke="none" stroke-width="0"/><path d="M363.33102,288.20241c-0.08251,-0.23872 -0.16451,-0.47762 -0.24617,-0.71665c0.06021,-0.06291 0.12061,-0.12563 0.18123,-0.18815c0.01422,-0.01467 0.02845,-0.02933 0.04268,-0.04399z" fill-opacity="0.11765" fill="#000000" stroke="none" stroke-width="0"/><path d="M319.41567,306.13223c-0.23646,-0.40529 -0.4718,-0.81124 -0.70595,-1.21788c-4.33399,-7.52678 -8.18327,-15.33498 -12.0234,-23.14834c3.33576,-2.68227 6.68993,-5.34208 10.07365,-7.9658c0.50479,0.90692 1.00678,1.81397 1.50618,2.72081c4.82096,8.75425 9.55985,17.49962 14.15694,26.33132c-1.34014,1.08903 -2.6884,2.16844 -4.04266,3.24073z" fill-opacity="0.11765" fill="#000000" stroke="none" stroke-width="0"/><path d="M322.15022,224.61914c5.19441,4.52835 10.54952,8.903 15.9452,13.2319c-0.0476,0.22752 -0.09199,0.45261 -0.13298,0.67505c-0.34056,1.84816 -0.51603,4.35259 -0.55844,7.11038c-5.84623,4.4822 -11.74675,8.89148 -17.61067,13.29595c-2.57204,-4.39287 -5.22615,-8.75372 -7.98479,-13.04496c3.43386,-7.0965 6.85405,-14.20049 10.3417,-21.26832z" fill-opacity="0.11765" fill="#000000" stroke="none" stroke-width="0"/><path d="M300.37721,269.10604c2.12442,-4.19264 4.21236,-8.40497 6.28107,-12.6277c1.74295,2.82688 3.44418,5.67759 5.11039,8.54103c-3.23208,2.49438 -6.43632,5.02272 -9.62235,7.57327c-0.58519,-1.16482 -1.17436,-2.32733 -1.76911,-3.48659z" fill-opacity="0.11765" fill="#000000" stroke="none" stroke-width="0"/><path d="M326.77196,215.36968c0.62846,-1.23988 1.26012,-2.47805 1.89543,-3.71425c4.84797,3.95135 9.60563,8.01378 14.32364,12.12489c-0.53579,1.26596 -1.07874,2.57377 -1.60312,3.89399c-4.96077,-4.01419 -9.86528,-8.08679 -14.61595,-12.30462z" fill-opacity="0.11765" fill="#000000" stroke="none" stroke-width="0"/><path d="M351.35056,231.1301c-0.25108,1.10234 -0.48902,2.20918 -0.71188,3.32134c-0.03616,0.18046 -0.0724,0.36106 -0.10871,0.54181c-0.32052,-0.25518 -0.64105,-0.51038 -0.96158,-0.76563c0.41633,-1.15591 0.87115,-2.32724 1.34106,-3.4876c0.14705,0.13001 0.29409,0.26003 0.44111,0.39007z" fill-opacity="0.11765" fill="#000000" stroke="none" stroke-width="0"/><path d="M362.21725,240.72771l0.08718,3.71587c-0.99541,-0.81239 -1.9941,-1.62219 -2.99528,-2.43014c0.07768,-0.38489 0.15559,-0.769 0.23351,-1.15227c0.48635,-0.40036 0.97173,-0.80169 1.45607,-1.20402c0.40598,0.3571 0.81214,0.71396 1.21852,1.07056z" fill-opacity="0.11765" fill="#000000" stroke="none" stroke-width="0"/><path d="M280.07457,306.30403c0.9836,-1.72572 1.96579,-3.45225 2.94615,-5.17984c5.24366,-4.29453 10.46693,-8.61416 15.71407,-12.90473c2.97477,6.04352 5.97353,12.0733 9.21478,17.96284z" fill-opacity="0.11765" fill="#000000" stroke="none" stroke-width="0"/><path d="M277.37501,182.7265c2.10953,2.04054 4.21802,4.08283 6.32663,6.12591c10.14292,9.70172 20.35265,19.37108 30.72495,28.83496c-3.06379,6.17649 -6.06851,12.38477 -9.06936,18.59503c-3.55147,-5.04814 -7.28155,-9.95221 -11.2303,-14.64524c-5.6967,-6.77045 -7.54013,-9.66571 -14.68347,-15.15095c-0.67953,-0.5218 -1.39826,-0.98597 -2.13433,-1.42489z" fill-opacity="0.11765" fill="#000000" stroke="none" stroke-width="0"/><path d="M294.5956,258.35478c-5.55245,-9.88794 -11.4253,-19.69044 -17.35693,-29.4073l0.03331,-11.2906c3.42181,3.13248 5.49499,6.0029 9.20028,10.41503c4.95086,5.89533 9.5455,12.13424 13.86938,18.57469c-1.90006,3.91103 -3.81079,7.81624 -5.74604,11.70818z" fill-opacity="0.11765" fill="#000000" stroke="none" stroke-width="0"/><path d="M320.6735,205.33886c-0.52809,1.0204 -1.05351,2.04224 -1.57651,3.06538c-6.04848,-5.5489 -12.0456,-11.16149 -18.00845,-16.80597c6.64721,4.37828 13.20518,8.89202 19.58496,13.74058z" fill-opacity="0.11765" fill="#000000" stroke="none" stroke-width="0"/><path d="M280.56521,285.12146c-1.16652,2.08307 -2.33697,4.16385 -3.51064,6.24279l0.12727,-43.14478c3.38049,5.6993 6.69726,11.42784 9.89792,17.18545c0.69296,1.24655 1.37451,2.49971 2.04675,3.75827c-2.76922,5.36515 -5.6106,10.69126 -8.56129,15.95827z" fill-opacity="0.11765" fill="#000000" stroke="none" stroke-width="0"/><path d="M319.42866,148.89504c12.46016,-0.13414 21.45748,4.00446 27.80697,9.13167c-3.08949,6.20118 -6.35149,12.3294 -9.81643,18.26155c-3.92381,6.71776 -8.15247,13.32759 -11.97822,20.12111c-13.63034,-10.22531 -28.02272,-19.0333 -42.35518,-28.25966c6.15242,-8.34943 17.6664,-19.0536 36.34286,-19.25467z" fill-opacity="0.11765" fill="#000000" stroke="none" stroke-width="0"/><path d="M360.71702,176.78054l0.30206,12.87544c-3.36859,4.77758 -6.63126,9.61521 -9.52271,14.59591c-1.80376,3.10709 -3.1543,6.44503 -4.47459,9.79729c-4.47769,-3.87474 -8.99787,-7.6974 -13.60342,-11.41527c3.98745,-7.22192 8.4995,-14.21128 12.64944,-21.32553c2.9777,-5.10467 5.80924,-10.34598 8.51467,-15.65324c4.46221,5.91591 6.13455,11.1254 6.13455,11.1254z" fill-opacity="0.11765" fill="#000000" stroke="none" stroke-width="0"/></g><g><path d="M275.5451,108.84402c0,0 6.16329,-5.92187 6.29161,-6.78761c0.33654,-2.27063 -0.16776,-40.17317 35.96775,-41.57382c44.63633,-0.91362 39.01489,35.34872 41.53088,42.1903c3.44981,9.38084 6.15664,17.40016 6.15664,17.40016c0,0 -2.76715,-2.05351 -4.0797,-3.13397c-1.2242,-1.00773 -3.80143,-3.14585 -3.80143,-3.14585c0,0 3.09111,10.3481 1.31092,20.69498c-1.5623,9.48098 -7.29782,17.22543 -7.29782,17.22543l-1.15522,-2.34735c0,0 -1.02266,2.19794 -2.16005,3.33274c-1.1374,1.13479 -3.43873,2.91273 -3.43873,2.91273l-0.09205,-3.70421c0,0 -7.0601,11.01795 -24.35066,10.87154c-16.30625,-0.25547 -26.07151,-10.6752 -26.07151,-10.6752l-0.1162,2.65484c0,0 -3.89477,-3.29276 -6.18145,-9.70754c-2.72545,-7.64567 -3.23946,-12.24324 -3.23946,-12.24324c0,0 -2.33908,1.89916 -5.71704,2.7744c-4.23278,1.09673 -6.94665,0.34526 -6.94665,0.34526c0,0 3.60795,-2.71717 5.58396,-4.76989c1.76007,-1.8284 2.64658,-3.37722 2.64658,-3.37722c0,0 -2.10758,1.0847 -4.23277,1.61795c-2.21739,0.5564 -4.03008,0.53093 -4.03008,0.53093c0,0 4.97492,-5.03728 7.03074,-10.87429c1.94102,-5.51108 2.09972,-10.95731 2.09972,-10.95731c0,0 -1.36165,0.66163 -3.33013,0.79513c-1.24776,0.08463 -2.37785,-0.0489 -2.37785,-0.0489z" fill="#000000" stroke="none" stroke-width="1.5" stroke-linecap="butt"/><path d="M292.33099,120.16564c-0.57709,-7.29323 0.335,-17.15448 0.335,-17.15448c0,0 3.41059,-0.04124 13.91429,-3.14424c8.0696,-2.38394 20.54731,-9.48722 20.54731,-9.48722c0,0 -2.16005,3.00503 -3.40781,4.46015c-1.32651,1.54696 -3.99292,4.56297 -3.99292,4.56297c0,0 7.838,-1.66761 14.67476,-4.72931c8.56837,-3.53575 10.59252,-6.05309 12.95042,-4.5927c2.7829,1.72362 1.03006,23.1827 0.71846,28.74062c-0.42163,5.66922 -2.53327,9.49969 -3.15031,12.52053c-0.61704,3.02084 -0.4096,6.13662 -2.20622,16.0397c-1.12121,6.18021 -4.16183,8.92466 -10.01942,14.66081c-5.85759,5.73616 -9.05378,9.25275 -13.01359,9.32173c-3.81077,0.06639 -8.93565,-5.1002 -13.93542,-10.38244c-5.32393,-5.62474 -8.87489,-8.47713 -9.71551,-15.13975c-0.75707,-6.00039 -0.77653,-9.90853 -1.12266,-15.24835c-0.25298,-3.90273 -2.26119,-6.44504 -2.57636,-10.42801z" fill="#ffffff" stroke="#000000" stroke-width="1.5" stroke-linecap="butt"/><path d="M340.40099,105.04528c0,0 1.52429,0.31807 4.2558,1.11029c2.49492,0.72361 4.44935,1.74403 4.44935,1.74403l0.1951,1.17035c0,0 -7.24963,-3.12997 -15.1158,-2.4706c-6.2896,0.52724 -9.96319,2.8124 -9.96319,2.8124l0.04575,-4.17683c0,0 3.12748,-1.70421 7.86366,-1.85557c4.90428,-0.15672 8.09084,0.59125 8.09084,0.59125z" data-paper-data="{&quot;index&quot;:null}" fill="#000000" stroke="none" stroke-width="1.5" stroke-linecap="butt"/><path d="M327.63686,148.03283c0.5704,0.21186 3.08357,1.39942 6.02385,2.59586c2.9637,1.20597 7.21362,2.29294 7.19412,2.4605c-0.02476,0.21265 -10.43477,0.22694 -13.67937,0.63224c-2.71902,0.33964 -6.68867,0.70564 -6.68867,0.70564c0,0 -7.10401,-1.16169 -13.27235,-2.44521c-4.94371,-1.02869 -10.39929,-1.66108 -10.40995,-1.75461c-0.01439,-0.12613 3.86835,-0.71071 6.82417,-1.39467c1.14585,-0.49661 5.43971,-1.48513 5.43971,-1.48513c0,0 4.95585,-0.27766 7.60826,0.579c2.84203,0.91791 2.83546,2.44556 3.0831,2.46906c0,0 1.18436,-1.74932 2.36886,-2.10461c1.18451,-0.35528 5.08219,-0.41633 5.50828,-0.25808z" fill="#ffffff" stroke="#000000" stroke-width="1.4" stroke-linecap="butt"/><path d="M319.96313,149.59273c-1.03376,0 -3.5381,-3.26042 -3.7867,-5.3637c-0.22243,-1.88186 1.31512,-3.82799 3.7867,-3.82799c2.47159,0 4.2021,0.49077 4.02999,4.18853c-0.14607,3.13818 -1.55841,5.00317 -4.02999,5.00317z" fill="#ffffff" stroke="#000000" stroke-width="1.15" stroke-linecap="butt"/><path d="M323.56523,119.49902c0,0 0.1026,3.96976 0.00576,7.12662c-0.19174,6.25113 -1.08147,27.7607 -1.08147,27.7607l-2.98167,0.00864c0,0 -0.80294,-4.17274 -1.12322,-9.49979c-0.43353,-7.21063 -0.4495,-16.29321 -0.76344,-19.63229c-0.29758,-3.16513 -0.89593,-5.71453 -0.89593,-5.71453" fill="#ffffff" stroke="#000000" stroke-width="1.3" stroke-linecap="round"/><path d="M294.03063,130.28886c0,0 -4.93211,-3.51705 -6.16417,-8.97502c-1.29636,-5.74284 -1.46118,-9.7328 0.48013,-9.99193c1.94131,-0.25915 2.70321,2.37692 3.73262,8.35569c1.0294,5.97877 1.95143,10.61127 1.95143,10.61127z" data-paper-data="{&quot;index&quot;:null}" fill="#ffffff" stroke="#000000" stroke-width="1" stroke-linecap="butt"/><path d="M293.82804,126.3413c0,0 -3.56385,-2.92338 -4.31816,-8.45061c-0.42079,-3.08327 2.15675,-2.28016 2.15675,-2.28016" fill="none" stroke="#000000" stroke-width="0.25" stroke-linecap="round"/><path d="M296.84145,119.6854c0.07093,-4.89188 4.83834,-8.93609 10.21137,-8.8582c5.37302,0.0779 9.02724,4.2484 8.95632,9.14029c-0.07093,4.89188 -4.12352,8.79439 -9.49655,8.7165c-5.37302,-0.0779 -9.74207,-4.1067 -9.67114,-8.99859z" fill="#ffffff" stroke="#000000" stroke-width="1.4" stroke-linecap="butt"/><path d="M301.27909,119.80334c0.03999,-2.75843 2.30855,-4.96213 5.06696,-4.92214c2.75843,0.03999 4.96213,2.30855 4.92214,5.06696c-0.03999,2.75843 -2.30854,4.96213 -5.06696,4.92214c-2.75843,-0.03999 -4.96213,-2.30855 -4.92214,-5.06696z" fill="#000000" stroke="none" stroke-width="1.5" stroke-linecap="butt"/><path d="M323.89772,119.68613c0.20353,-4.88817 4.45264,-8.85847 9.77048,-8.85847c5.31783,0 9.27453,3.96607 9.27453,8.85847c0,4.8924 -3.88585,9.07104 -9.69964,9.14188c-5.52997,0.06739 -9.55792,-4.03692 -9.34537,-9.14188z" fill="#ffffff" stroke="#000000" stroke-width="1.4" stroke-linecap="butt"/><path d="M328.50047,119.77168c0,-2.81845 2.2848,-5.10325 5.10325,-5.10325c2.81845,0 5.10325,2.2848 5.10325,5.10325c0,2.81845 -2.28479,5.10325 -5.10325,5.10325c-2.81845,0 -5.10325,-2.2848 -5.10325,-5.10325z" fill="#000000" stroke="none" stroke-width="1.5" stroke-linecap="butt"/><path d="M296.77301,119.15322c0,0 0.06357,-9.01512 10.60111,-8.8249c9.47101,0.16586 9.55554,9.40723 9.55554,9.40723z" fill="#ffffff" stroke="#000000" stroke-width="1.15" stroke-linecap="butt"/><path d="M323.52008,119.28412c0,0 -0.24686,-9.4582 11.19813,-9.1032c9.71427,0.33347 9.54677,9.65229 9.54677,9.65229z" fill="#ffffff" stroke="#000000" stroke-width="1.15" stroke-linecap="butt"/><path d="M300.30286,109.14156c0,0 3.36963,-1.819 8.03244,-2.28178c5.16698,-0.51283 7.76823,-0.06628 7.76823,-0.06628l0.29508,4.13747c0,0 -3.83554,-0.68065 -8.01795,-0.52113c-5.59346,0.21333 -6.64488,1.43293 -10.89774,1.89119c-3.64408,0.39266 -6.73723,0.15884 -6.73723,0.15884l-0.02589,-1.23155c0,0 3.59517,0.07398 5.23371,-0.06836c1.35239,-0.11749 3.9757,-0.93808 3.9757,-0.93808z" fill="#000000" stroke="none" stroke-width="1.5" stroke-linecap="butt"/><path d="M348.26379,119.67759c1.0294,-5.97877 1.7913,-8.61483 3.73262,-8.35569c1.94131,0.25914 1.77649,4.24909 0.48013,9.99193c-1.23206,5.45797 -6.16417,8.97502 -6.16417,8.97502c0,0 0.92203,-4.6325 1.95143,-10.61127z" data-paper-data="{&quot;index&quot;:null}" fill="#ffffff" stroke="#000000" stroke-width="1" stroke-linecap="butt"/><path d="M348.67638,115.61053c0,0 2.57754,-0.80312 2.15675,2.28016c-0.75431,5.52723 -4.31816,8.45061 -4.31816,8.45061" data-paper-data="{&quot;index&quot;:null}" fill="none" stroke="#000000" stroke-width="0.25" stroke-linecap="round"/><path d="M356.25186,116.15447c0,25.06212 -16.22278,45.37898 -36.2346,45.37898c-20.01182,0 -36.2346,-20.31686 -36.2346,-45.37898c0,-25.06212 16.22278,-45.37898 36.2346,-45.37898c20.01182,0 36.2346,20.31686 36.2346,45.37898z" fill="#8395a1" stroke="none" stroke-width="0" stroke-linecap="butt"/><path d="M336.57873,152.3913c0,10.23494 -7.44849,18.532 -16.63668,18.532c-9.18818,0 -16.63668,-8.29706 -16.63668,-18.532c0,-10.23494 7.4485,-18.53199 16.63668,-18.53199c9.18818,0 16.63668,8.29706 16.63668,18.53199z" fill="#566580" stroke="none" stroke-width="0" stroke-linecap="butt"/><path d="M328.1551,155.12899c0,4.53594 -3.77139,8.21305 -8.42363,8.21305c-4.65224,0 -8.42363,-3.67711 -8.42363,-8.21305c0,-4.53594 3.77139,-8.21304 8.42363,-8.21304c4.65224,0 8.42363,3.6771 8.42363,8.21304z" fill="#2c2f5d" stroke="none" stroke-width="0" stroke-linecap="butt"/><path d="M289.40637,126.69923v-22.74381h60.65017v22.74382z" fill="#050707" stroke="none" stroke-width="0" stroke-linecap="butt"/><path d="M299.09355,119.53913v-8.84482h8.84482v8.84482z" fill="#8c82a1" stroke="none" stroke-width="0" stroke-linecap="butt"/><path d="M331.04919,119.90614v-8.84482h8.84481v8.84482z" fill="#8c82a1" stroke="none" stroke-width="0" stroke-linecap="butt"/><path d="M288.20891,94.40264c2.72636,1.65322 5.47337,3.21762 8.22616,4.66808c5.14328,2.71003 10.8602,4.67197 16.20375,6.96779c0.85904,0.36908 1.7198,0.73323 2.58216,1.09275c0.42754,0.87212 0.85646,1.74362 1.28607,2.61477c-2.22623,0.87419 -4.44815,1.7591 -6.66433,2.65825c-2.25111,0.91332 -4.511,1.80697 -6.77845,2.68342c-1.46429,-0.9901 -2.93367,-1.97274 -4.41071,-2.94409c-4.44135,-2.92079 -8.57628,-6.77372 -13.33875,-9.08681c0.72824,-3.0304 1.70264,-5.92727 2.8941,-8.65416z" fill-opacity="0.09412" fill="#000000" stroke="none" stroke-width="0" stroke-linecap="butt"/><path d="M322.00305,120.92263c0.07387,0.1523 0.14766,0.30471 0.22136,0.45724c-1.76152,1.08035 -3.52326,2.16111 -5.2856,3.24178c-3.46141,-2.37226 -6.90562,-4.77064 -10.36696,-7.14412c1.53267,-0.60153 3.0617,-1.21128 4.58673,-1.83001c2.29567,-0.9314 4.59747,-1.84757 6.90383,-2.75239c1.32141,2.67382 2.64157,5.34718 3.94064,8.0275z" fill-opacity="0.09412" fill="#000000" stroke="none" stroke-width="0" stroke-linecap="butt"/><path d="M313.64355,126.5981c-4.29203,2.50183 -8.6409,4.94264 -12.92503,7.47489c-4.42944,-3.25693 -8.96925,-6.38197 -13.58588,-9.40716c5.18785,-1.82019 10.35301,-3.69598 15.48147,-5.65577c3.68973,2.51046 7.35264,5.0599 11.02944,7.58805z" fill-opacity="0.09412" fill="#000000" stroke="none" stroke-width="0" stroke-linecap="butt"/><path d="M283.78269,116.15449c0,-3.2807 0.27799,-6.48008 0.80607,-9.56322c4.28474,2.22424 8.11687,5.83011 12.14177,8.47671c0.77942,0.51251 1.55672,1.02812 2.33228,1.54626c-4.96496,1.86987 -9.96245,3.66489 -14.97968,5.41092c-0.19822,-1.9218 -0.30043,-3.88128 -0.30043,-5.87067z" fill-opacity="0.09412" fill="#000000" stroke="none" stroke-width="0" stroke-linecap="butt"/><path d="M317.58817,147.06885c-3.98972,-3.12306 -7.99462,-6.22737 -12.00539,-9.32903c-0.60545,-0.46822 -1.2133,-0.93364 -1.82343,-1.39636c4.34661,-2.54613 8.74838,-5.01262 13.07753,-7.55949c1.6527,1.12509 3.31055,2.2424 4.97722,3.34651c-1.39212,4.98596 -2.79923,9.96439 -4.22594,14.93838z" fill-opacity="0.09412" fill="#000000" stroke="none" stroke-width="0" stroke-linecap="butt"/><path d="M323.85167,124.79026c-0.34972,1.26694 -0.70025,2.53329 -1.05168,3.79911c-0.89882,-0.59896 -1.79522,-1.20155 -2.68978,-1.8069c1.21044,-0.74232 2.42063,-1.48463 3.63071,-2.22678c0.03693,0.07817 0.07385,0.15636 0.11076,0.23457z" fill-opacity="0.09412" fill="#000000" stroke="none" stroke-width="0" stroke-linecap="butt"/><path d="M327.20892,111.82714c-0.59935,2.55783 -1.23654,5.1129 -1.91338,7.6696c-0.02422,0.01485 -0.04844,0.0297 -0.07266,0.04454c-0.02341,-0.0484 -0.04683,-0.09679 -0.07026,-0.14516c-1.25848,-2.59656 -2.53689,-5.18656 -3.81705,-7.77678c0.87367,-0.33844 1.74788,-0.67551 2.62255,-1.01144c1.08172,0.41175 2.16539,0.81796 3.2508,1.21923z" fill-opacity="0.09412" fill="#000000" stroke="none" stroke-width="0" stroke-linecap="butt"/><path d="M302.29177,155.74233c-4.21405,-2.96573 -7.90659,-6.95624 -10.86222,-11.70178c1.51113,-1.00585 3.03218,-1.99806 4.56422,-2.9751c1.4896,-0.94998 2.99555,-1.87817 4.5123,-2.79155c0.98451,0.73783 1.96317,1.48258 2.93562,2.2346c4.37843,3.38599 8.74986,6.77507 13.10211,10.18837c-1.12777,3.90342 -2.2683,7.80456 -3.42383,11.70495c-0.59966,2.02408 -1.16477,4.06319 -1.71541,6.1092c-6.91755,-3.25877 -5.05222,-9.91097 -9.11278,-12.76868z" fill-opacity="0.09412" fill="#000000" stroke="none" stroke-width="0" stroke-linecap="butt"/><path d="M284.90101,127.3857c4.26133,2.78666 8.45712,5.65855 12.56049,8.64134c-1.12404,0.68573 -2.24136,1.3806 -3.34971,2.08744c-1.48424,0.94656 -2.95827,1.90721 -4.42308,2.8806c-2.15566,-4.11955 -3.79061,-8.70491 -4.7877,-13.60938z" fill-opacity="0.09412" fill="#000000" stroke="none" stroke-width="0" stroke-linecap="butt"/><path d="M327.98231,122.97433c0.11214,-0.40787 0.22327,-0.81566 0.3334,-1.2234c3.28705,-2.01423 6.57446,-4.02574 9.86483,-6.03136c5.92425,2.02744 11.88026,3.96771 17.83684,5.91378c-0.71757,8.30608 -3.0752,16.11798 -6.97926,22.58327c-4.29724,-2.46602 -8.68696,-4.80849 -12.93503,-7.27511c-1.28288,-0.74466 -2.55589,-1.50407 -3.82053,-2.27599c-1.57874,-3.40519 -3.13601,-6.81435 -4.71429,-10.18692c0.13813,-0.50133 0.27614,-1.00275 0.41403,-1.50426z" fill-opacity="0.09412" fill="#000000" stroke="none" stroke-width="0" stroke-linecap="butt"/><path d="M341.52439,153.24955c-2.33528,-4.21157 -4.50286,-8.55547 -6.595,-12.94361c4.00535,2.30828 8.12975,4.51479 12.17212,6.83072c-1.64498,2.26098 -3.50566,4.31363 -5.57712,6.1129z" fill-opacity="0.09412" fill="#000000" stroke="none" stroke-width="0" stroke-linecap="butt"/><path d="M330.52038,113.03478c1.12319,0.40423 2.24802,0.80383 3.37428,1.19944c-1.43604,0.87687 -2.87164,1.75472 -4.30702,2.63328c0.32041,-1.27727 0.63125,-2.55467 0.93274,-3.83271z" fill-opacity="0.09412" fill="#000000" stroke="none" stroke-width="0" stroke-linecap="butt"/><path d="M337.83561,156.0334c-1.60948,1.04696 -2.4048,2.72184 -3.271,4.56972c-0.9246,-0.75213 -1.8467,-1.4954 -2.75804,-2.23342c-3.72801,-3.01903 -7.47954,-6.00404 -11.24673,-8.96868c1.46128,-5.08083 2.9017,-10.16598 4.32617,-15.25875c1.55078,1.00309 3.111,1.99208 4.68355,2.96271c2.89043,6.20992 5.8611,12.39631 9.16584,18.32172c-0.29632,0.20699 -0.59625,0.40926 -0.89978,0.60671z" fill-opacity="0.09412" fill="#000000" stroke="none" stroke-width="0" stroke-linecap="butt"/><path d="M326.13122,129.67409c0.24421,0.52736 0.48826,1.05525 0.73232,1.5835c-0.33153,-0.21414 -0.66262,-0.42894 -0.9933,-0.64436c0.08705,-0.31301 0.17405,-0.62606 0.26098,-0.93914z" fill-opacity="0.09412" fill="#000000" stroke="none" stroke-width="0" stroke-linecap="butt"/><path d="M320.01728,170.3157c-2.06117,-0.10578 -3.80696,-0.34398 -5.29259,-0.68761c0.56243,-2.08677 1.13926,-4.16685 1.7511,-6.23208c1.02328,-3.454 2.03483,-6.9086 3.03618,-10.36486c3.37917,2.66528 6.74505,5.34814 10.09191,8.05851c1.0847,0.87842 2.19217,1.76551 3.30445,2.66804c-1.87712,2.93133 -5.09063,5.67426 -12.89106,6.558z" fill-opacity="0.09412" fill="#000000" stroke="none" stroke-width="0" stroke-linecap="butt"/><path d="M320.01729,70.77551c4.71083,0 9.21168,1.12584 13.34038,3.1744c-0.23801,3.5709 -0.68412,7.13407 -1.15888,10.6473c-0.93486,6.91798 -2.0881,13.71054 -3.49213,20.45735c-1.58427,0.59963 -3.16769,1.20143 -4.74973,1.80666c-2.06608,-0.79648 -4.1247,-1.61418 -6.17445,-2.45726c-1.647,-3.3732 -3.26849,-6.75743 -4.82465,-10.16761c-2.89776,-6.35021 -5.56389,-12.77719 -8.39501,-19.13816c4.68764,-2.77237 9.92649,-4.32267 15.45446,-4.32267z" fill-opacity="0.09412" fill="#000000" stroke="none" stroke-width="0" stroke-linecap="butt"/><path d="M298.06662,95.97426c-2.78932,-1.46971 -5.57318,-3.0594 -8.33529,-4.74157c3.0397,-5.78197 7.10671,-10.64169 11.8757,-14.17175c2.74744,6.19409 5.34641,12.44805 8.16666,18.62841c1.01712,2.22894 2.06202,4.44685 3.12365,6.65785c-4.93063,-2.05976 -10.12891,-3.89552 -14.83073,-6.37293z" fill-opacity="0.09412" fill="#000000" stroke="none" stroke-width="0" stroke-linecap="butt"/><path d="M335.66726,85.06592c0.41104,-3.04167 0.79342,-6.11398 1.04721,-9.19583c6.826,4.44652 12.37955,11.53431 15.79701,20.18177c-6.62785,2.55501 -13.28525,5.03838 -19.9348,7.54212c1.22249,-6.11356 2.24501,-12.27084 3.09058,-18.52806z" fill-opacity="0.09412" fill="#000000" stroke="none" stroke-width="0" stroke-linecap="butt"/><path d="M331.3075,109.60164c0.14481,-0.65033 0.28725,-1.30095 0.42735,-1.95192c7.31906,-2.76319 14.65256,-5.48959 21.9508,-8.30155c0.26022,0.8169 0.50203,1.6455 0.7248,2.48498c-5.56837,3.32051 -11.11507,6.67392 -16.65236,10.04527c-2.15535,-0.74461 -4.30606,-1.50203 -6.45058,-2.27679z" fill-opacity="0.09412" fill="#000000" stroke="none" stroke-width="0" stroke-linecap="butt"/><path d="M356.25188,116.15449c0,0.62509 -0.00902,1.24851 -0.02703,1.8699c-4.7242,-1.54242 -9.44693,-3.08458 -14.15243,-4.67321c4.37744,-2.6592 8.76191,-5.30578 13.1595,-7.93232c0.66666,3.44183 1.01997,7.03706 1.01997,10.73563z" fill-opacity="0.09412" fill="#000000" stroke="none" stroke-width="0" stroke-linecap="butt"/><path d="M306.7538,122.87146c1.38527,1.74839 2.74449,3.5744 4.10639,5.42216c-7.06501,4.1666 -14.34674,8.03761 -21.52694,12.00854c-1.89799,-3.77467 -3.36417,-7.92414 -4.31173,-12.33967c4.0868,-3.30068 8.18874,-6.58761 12.30663,-9.8632c1.23142,-0.97955 2.45864,-1.96546 3.68317,-2.9555c1.91349,2.57637 3.82735,5.15248 5.74248,7.72768z" fill-opacity="0.09412" fill="#000000" stroke="none" stroke-width="0" stroke-linecap="butt"/><path d="M283.78267,116.15449c0,-6.9734 1.25597,-13.57943 3.50006,-19.48263c3.88482,5.21633 7.76241,10.43811 11.64019,15.65985c-1.25456,1.01455 -2.51187,2.02484 -3.7736,3.02848c-3.61991,2.87947 -7.22753,5.7677 -10.8234,8.66633c-0.35707,-2.55679 -0.54325,-5.18718 -0.54325,-7.87203z" fill-opacity="0.09412" fill="#000000" stroke="none" stroke-width="0" stroke-linecap="butt"/><path d="M319.83369,111.84621c2.74389,1.79373 5.47892,3.59554 8.20599,5.40544c-4.14878,2.84209 -8.33042,5.62642 -12.58529,8.26588c-0.52621,0.32643 -1.05406,0.65067 -1.58341,0.9729c-1.44049,-1.9611 -2.87562,-3.9013 -4.34097,-5.7503c-1.93375,-2.60088 -3.86629,-5.20264 -5.79853,-7.8046c2.45494,-1.99978 4.90365,-4.00957 7.35857,-6.01124c2.91487,1.64011 5.82967,3.28031 8.74363,4.92193z" fill-opacity="0.09412" fill="#000000" stroke="none" stroke-width="0" stroke-linecap="butt"/><path d="M290.74006,95.45315c5.68667,3.21767 11.38007,6.42364 17.07436,9.62798c-2.05771,1.68044 -4.11239,3.36465 -6.17134,5.04199c-3.63227,-4.8916 -7.26461,-9.78307 -10.90302,-14.66996z" fill-opacity="0.09412" fill="#000000" stroke="none" stroke-width="0" stroke-linecap="butt"/><path d="M318.38632,70.82065c0.73424,7.0706 3.89713,14.29028 6.60331,20.71748c-0.87867,0.65384 -1.75458,1.31159 -2.62681,1.97457c-3.92887,2.98634 -7.78827,6.07152 -11.62521,9.18712c-4.27763,-2.41175 -8.55551,-4.82304 -12.8331,-7.23486c-2.62161,-1.47814 -5.24011,-3.18294 -7.94688,-4.65756c6.22561,-11.55705 16.58866,-19.32992 28.42869,-19.98675z" fill-opacity="0.09412" fill="#000000" stroke="none" stroke-width="0" stroke-linecap="butt"/><path d="M334.13217,113.03357c-0.99437,0.69351 -1.98949,1.38615 -2.98593,2.0767c-3.154,-2.09602 -6.31854,-4.18103 -9.49492,-6.25508c-2.54531,-1.43626 -5.09089,-2.87204 -7.63661,-4.30757c3.45525,-2.79637 6.93247,-5.56257 10.46608,-8.24848c0.63324,-0.48133 1.26842,-0.9599 1.90519,-1.43623c2.54908,6.07931 5.08317,12.15282 7.74619,18.17066z" fill-opacity="0.09412" fill="#000000" stroke="none" stroke-width="0" stroke-linecap="butt"/><path d="M302.29175,155.74233c-4.41139,-3.10461 -8.25128,-7.33223 -11.27258,-12.3734c7.31491,-4.04679 14.73471,-7.99 21.92735,-12.24313c2.8882,3.90558 5.85318,7.78148 9.16305,11.10667c0.46299,0.46513 0.95273,0.9163 1.46087,1.35681c-5.9206,5.97094 -11.82089,12.08327 -18.00952,17.79362c-0.78962,-2.21629 -1.40473,-4.32842 -3.26917,-5.64056z" fill-opacity="0.09412" fill="#000000" stroke="none" stroke-width="0" stroke-linecap="butt"/><path d="M317.2994,128.49174c4.69695,-2.9137 9.30527,-6.00279 13.87855,-9.15141c2.85726,1.90699 5.70612,3.8229 8.54761,5.74774c0.21081,0.43013 0.42281,0.85978 0.63606,1.28895c-3.81416,3.91094 -7.58036,7.847 -11.31827,11.76347c-1.00277,0.98099 -2.00228,1.9707 -3,2.96654c-0.50654,-0.43568 -0.99399,-0.88237 -1.45321,-1.34372c-3.11364,-3.12805 -5.91497,-6.7629 -8.63763,-10.4428c0.45008,-0.27476 0.89908,-0.55098 1.34689,-0.82878z" fill-opacity="0.09412" fill="#000000" stroke="none" stroke-width="0" stroke-linecap="butt"/><path d="M314.82049,169.65003c-4.30255,-0.97473 -6.44572,-2.82536 -7.74114,-4.9109c6.63023,-6.05437 12.9211,-12.58608 19.2391,-18.95059c1.39926,1.05859 2.82501,2.085 4.13754,3.13496c2.04265,1.63403 4.1987,3.23628 6.45015,4.72957c-7.40151,5.25995 -14.87564,10.46691 -22.08565,15.99695z" fill-opacity="0.09412" fill="#000000" stroke="none" stroke-width="0" stroke-linecap="butt"/><path d="M349.1393,144.04816c-0.09229,0.15445 -0.18546,0.30813 -0.2795,0.46105c-2.91271,2.41553 -5.87051,4.76309 -8.90755,6.96776c-2.57714,-1.64907 -5.0258,-3.45938 -7.30991,-5.28656c-1.21439,-0.97145 -2.5347,-1.91996 -3.8366,-2.89515c0.90734,-0.90421 1.81622,-1.80325 2.72772,-2.69522c3.46532,-3.62981 6.9544,-7.27753 10.48345,-10.90663c2.38444,4.78074 4.75831,9.56562 7.12238,14.35476z" fill-opacity="0.09412" fill="#000000" stroke="none" stroke-width="0" stroke-linecap="butt"/><path d="M335.58658,116.28415c0.38991,0.86137 0.78301,1.7214 1.17974,2.57996c-0.82936,-0.55674 -1.6594,-1.11271 -2.49014,-1.66791c0.437,-0.30374 0.87378,-0.60779 1.31041,-0.91204z" fill-opacity="0.09412" fill="#000000" stroke="none" stroke-width="0" stroke-linecap="butt"/><path d="M320.01727,170.3157c-0.08774,-0.0045 -0.1749,-0.00925 -0.2615,-0.01423c5.11386,-3.83392 10.33732,-7.53144 15.55219,-11.22472c-2.13809,4.07892 -3.24806,9.87459 -15.29068,11.23894z" fill-opacity="0.09412" fill="#000000" stroke="none" stroke-width="0" stroke-linecap="butt"/><path d="M353.8455,99.85908c-2.18758,1.35295 -4.37511,2.70599 -6.56253,4.05919c-3.4215,2.32118 -6.82267,4.69521 -10.22622,7.07307c-2.66788,-6.05375 -5.2093,-12.16248 -7.77461,-18.27406c4.86478,-3.57378 9.78999,-7.0624 14.62015,-10.68804c4.37397,4.80548 7.81621,10.90885 9.94323,17.82984z" fill-opacity="0.09412" fill="#000000" stroke="none" stroke-width="0" stroke-linecap="butt"/><path d="M321.88735,70.8349c7.28215,0.46365 13.99688,3.61977 19.52207,8.68921c-4.4707,3.34645 -9.01954,6.58017 -13.52328,9.87742c-2.43852,-5.75206 -5.3018,-12.27063 -5.99879,-18.56663z" fill-opacity="0.09412" fill="#000000" stroke="none" stroke-width="0" stroke-linecap="butt"/><path d="M342.45604,122.70264c-1.36074,-2.80104 -2.672,-5.6217 -3.94936,-8.45656c3.55529,-2.48353 7.10671,-4.96551 10.67979,-7.39069c1.87049,-1.15636 3.74091,-2.31284 5.61129,-3.46939c0.56619,2.42291 0.97535,4.9298 1.21273,7.50223c-4.29464,4.0626 -8.50264,8.22433 -12.64875,12.42894c-0.30181,-0.20494 -0.60371,-0.40978 -0.90569,-0.61452z" fill-opacity="0.09412" fill="#000000" stroke="none" stroke-width="0" stroke-linecap="butt"/><path d="M356.25187,116.15449c0,5.09917 -0.60029,10.08669 -1.78051,14.77726c-2.71715,-1.8794 -5.43985,-3.75031 -8.16897,-5.61276c3.27188,-3.31255 6.58294,-6.59701 9.94572,-9.8251c0.0025,0.21983 0.00376,0.44003 0.00376,0.66061z" fill-opacity="0.09412" fill="#000000" stroke="none" stroke-width="0" stroke-linecap="butt"/><path d="M351.16454,140.24558c-1.83585,-3.71318 -3.67766,-7.42382 -5.5258,-11.13196c2.60782,1.78406 5.20999,3.5757 7.80732,5.37493c-0.64986,1.99097 -1.41094,3.91523 -2.28153,5.75703z" fill-opacity="0.09412" fill="#000000" stroke="none" stroke-width="0" stroke-linecap="butt"/><path d="M341.39573,153.36073c-1.71191,-1.43362 -3.41309,-2.8772 -5.06857,-4.36323c-2.81704,-2.52869 -5.57294,-5.16368 -8.28834,-7.84356c2.98642,-3.38797 6.04131,-6.70376 9.14293,-9.99755c3.8394,4.5005 7.70803,8.97049 11.70212,13.31363c-2.07358,3.38006 -4.57416,6.3849 -7.48814,8.89071z" fill-opacity="0.09412" fill="#000000" stroke="none" stroke-width="0" stroke-linecap="butt"/><path d="M355.47449,126.04402c-0.87577,5.44917 -2.48589,10.60572 -4.80187,15.21026c-3.77532,-4.13132 -7.4417,-8.37347 -11.08187,-12.6431c2.0127,-2.11675 4.04246,-4.22974 6.08347,-6.3524c0.52373,-0.53827 1.04631,-1.07856 1.56797,-1.62051c2.72322,1.83358 5.47379,3.62537 8.2323,5.40575z" fill-opacity="0.09412" fill="#000000" stroke="none" stroke-width="0" stroke-linecap="butt"/><path d="M325.55458,138.68068c-2.23595,-2.24351 -4.44832,-4.505 -6.64893,-6.74932c-0.42095,-0.42928 -0.84213,-0.85834 -1.26353,-1.28717c2.98128,-3.94873 5.98477,-7.75219 9.55799,-11.19793c2.58119,2.99566 5.13818,6.01502 7.6997,9.02928c-3.17019,3.36299 -6.29282,6.74739 -9.34523,10.20514z" fill-opacity="0.09412" fill="#000000" stroke="none" stroke-width="0" stroke-linecap="butt"/><path d="M339.97546,115.56778c1.43258,1.04188 2.87816,2.06367 4.33372,3.07015c-0.38301,0.39682 -0.76655,0.79271 -1.1507,1.18753c-1.96132,2.03976 -3.91231,4.07099 -5.84793,6.10526c-2.50215,-2.94616 -5.00008,-5.89709 -7.52081,-8.82558c1.8628,-1.579 3.70745,-3.20771 5.55548,-4.84168c1.5616,1.09677 3.10733,2.19675 4.63025,3.30432z" fill-opacity="0.09412" fill="#000000" stroke="none" stroke-width="0" stroke-linecap="butt"/><path d="M310.48541,117.8273c2.992,-2.3245 6.13948,-4.56884 9.21478,-6.88862c1.75509,1.93374 3.48756,3.8899 5.20573,5.86014c-3.63829,3.4921 -6.70951,7.33317 -9.7421,11.32826c-2.50024,-2.53451 -5.00755,-5.0619 -7.52012,-7.584c0.94682,-0.90591 1.89398,-1.81127 2.84171,-2.71579z" fill-opacity="0.09412" fill="#000000" stroke="none" stroke-width="0" stroke-linecap="butt"/><path d="M326.05377,105.83319c2.12274,1.46332 4.24147,2.91719 6.33987,4.37189c-1.62719,1.43584 -3.25399,2.86347 -4.89475,4.25366c-1.65751,-1.90281 -3.32823,-3.79253 -5.01972,-5.66156c1.2198,-0.9644 2.41639,-1.94894 3.57461,-2.964z" fill-opacity="0.09412" fill="#000000" stroke="none" stroke-width="0" stroke-linecap="butt"/><path d="M337.8356,156.0334c-4.51809,2.93899 -2.62042,10.82617 -13.88491,13.59815c-0.1116,-0.15774 -0.22286,-0.31567 -0.33378,-0.47378c-2.85947,-4.07622 -5.6011,-8.25915 -8.23297,-12.51849c1.06731,-1.4064 2.16366,-2.80719 3.27412,-4.22858c2.3018,-2.94632 4.66511,-5.80817 7.07801,-8.61301c2.7044,2.66598 5.4488,5.28713 8.25312,7.8044c1.49144,1.33878 3.02973,2.64264 4.58414,3.93708c-0.2435,0.16794 -0.48941,0.3327 -0.73773,0.49423z" fill-opacity="0.09412" fill="#000000" stroke="none" stroke-width="0" stroke-linecap="butt"/><path d="M307.65337,143.37947c2.14701,-2.70073 4.41688,-5.33609 6.45663,-8.0329c0.47305,-0.62543 0.94145,-1.24936 1.40727,-1.87101c0.29657,0.30199 0.59304,0.60409 0.88939,0.90631c2.26404,2.30869 4.54045,4.6351 6.8418,6.94189c-2.50631,2.90768 -4.96015,5.87513 -7.34849,8.9322c-0.83299,1.06622 -1.65747,2.12208 -2.46794,3.17755c-1.98914,-3.315 -3.91412,-6.67099 -5.77866,-10.05404z" fill-opacity="0.09412" fill="#000000" stroke="none" stroke-width="0" stroke-linecap="butt"/><path d="M300.73258,130.18443c-0.34159,-0.68318 -0.68068,-1.36529 -1.01723,-2.04669c1.80059,-1.72427 3.59998,-3.44951 5.39981,-5.1737c2.6466,2.65652 5.28736,5.3189 7.92018,7.98929c-0.56816,0.75728 -1.13929,1.51834 -1.71681,2.28191c-1.73305,2.29135 -3.62643,4.53965 -5.47356,6.82c-1.75794,-3.27354 -3.46097,-6.56796 -5.11239,-9.87081z" fill-opacity="0.09412" fill="#000000" stroke="none" stroke-width="0" stroke-linecap="butt"/><path d="M320.01727,170.31571c-1.41352,-0.07255 -2.67872,-0.20737 -3.81341,-0.39576c-1.25899,-3.03439 -2.55157,-6.06192 -3.87242,-9.08701c0.2688,-0.38953 0.54078,-0.77678 0.81567,-1.16224c2.25281,3.60585 4.58432,7.15529 6.99922,10.63017c-0.04288,0.005 -0.0859,0.00995 -0.12906,0.01484z" fill-opacity="0.09412" fill="#000000" stroke="none" stroke-width="0" stroke-linecap="butt"/><path d="M308.01433,151.13409c1.03226,1.78246 2.08209,3.55501 3.15004,5.31561c-0.15918,0.21739 -0.31756,0.43516 -0.47509,0.6534c-0.88387,-1.99293 -1.77587,-3.98246 -2.67495,-5.96901z" fill-opacity="0.09412" fill="#000000" stroke="none" stroke-width="0" stroke-linecap="butt"/><path d="M288.5826,138.7406c2.27573,-2.14931 4.54422,-4.30665 6.80874,-6.46804c2.10134,4.43046 4.1855,8.86853 6.24023,13.3191c-0.37467,0.54242 -0.73839,1.08962 -1.08872,1.64248c-0.96448,1.52205 -1.86485,3.13932 -2.70279,4.80983c-3.7354,-3.62554 -6.88949,-8.14548 -9.25746,-13.30336z" fill-opacity="0.09412" fill="#000000" stroke="none" stroke-width="0" stroke-linecap="butt"/><path d="M302.29175,155.74234c-0.58887,-0.41443 -1.16755,-0.84886 -1.73546,-1.30258c0.85721,-1.77104 1.78786,-3.48856 2.79675,-5.10074c1.69274,3.70405 3.36279,7.41767 5.00316,11.14367c-0.66112,1.00813 -1.30041,2.03425 -1.91367,3.086c-1.40237,-2.93341 -1.67594,-6.08464 -4.15077,-7.82635z" fill-opacity="0.09412" fill="#000000" stroke="none" stroke-width="0" stroke-linecap="butt"/><path d="M311.91857,168.73994c-1.35817,-0.57142 -2.40421,-1.26467 -3.23101,-2.03436c0.43646,-0.80051 0.88938,-1.58393 1.35677,-2.35376c0.63172,1.4617 1.25669,2.92423 1.87424,4.38812z" fill-opacity="0.09412" fill="#000000" stroke="none" stroke-width="0" stroke-linecap="butt"/><path d="M287.83771,100.81428c-0.34377,-0.92101 -0.69418,-1.8556 -1.04378,-2.80059c1.77431,-5.08943 4.27239,-9.69242 7.33134,-13.60495c4.7386,5.00574 9.59401,9.90953 14.42202,14.8344c-1.78315,2.68144 -3.58769,5.35068 -5.44184,7.9915c-1.20549,1.71695 -2.41856,3.42785 -3.63837,5.13341c-3.87081,-3.85687 -7.74943,-7.70592 -11.62938,-11.55377z" fill-opacity="0.09412" fill="#000000" stroke="none" stroke-width="0" stroke-linecap="butt"/><path d="M308.20058,115.17597c-1.01043,0.96194 -2.02001,1.92501 -3.02905,2.88886c-1.06357,-1.06484 -2.12797,-2.12883 -3.19307,-3.19213c1.33885,-1.86899 2.66971,-3.74431 3.99148,-5.62688c1.72839,-2.46171 3.41334,-4.94818 5.0779,-7.44618c1.01402,1.03963 2.02572,2.08115 3.03375,3.12568c1.09268,1.13225 2.17395,2.27584 3.24565,3.42893c-3.0486,2.29455 -6.1669,4.51629 -9.12666,6.82172z" fill-opacity="0.09412" fill="#000000" stroke="none" stroke-width="0" stroke-linecap="butt"/><path d="M323.08202,103.77805c-0.9678,0.8293 -1.96039,1.63874 -2.96896,2.43437c-1.15909,-1.25107 -2.3293,-2.49104 -3.51296,-3.71757c-1.1872,-1.2302 -2.37951,-2.45618 -3.57473,-3.67983c0.33,-0.50041 0.65956,-1.00107 0.98885,-1.50187c2.98304,2.20455 6.02172,4.34939 9.06781,6.4649z" fill-opacity="0.09412" fill="#000000" stroke="none" stroke-width="0" stroke-linecap="butt"/><path d="M302.76264,88.34093c2.71688,2.37641 5.54872,4.65644 8.44935,6.86918c-0.22986,0.34951 -0.45983,0.69895 -0.69,1.04829c-2.58756,-2.63754 -5.18145,-5.27036 -7.75935,-7.91747z" fill-opacity="0.09412" fill="#000000" stroke="none" stroke-width="0" stroke-linecap="butt"/><path d="M298.1005,124.83151c-0.44672,-0.92552 -0.88859,-1.85072 -1.3255,-2.77643c1.04817,-1.43165 2.09242,-2.86637 3.13226,-4.30458c0.91187,0.91064 1.82322,1.82181 2.73396,2.73359c-1.51384,1.44854 -3.02706,2.8981 -4.54072,4.34742z" fill-opacity="0.09412" fill="#000000" stroke="none" stroke-width="0" stroke-linecap="butt"/><path d="M290.92813,108.81142c2.1584,2.14354 4.31542,4.28843 6.46994,6.43582c-0.76673,1.06202 -1.5359,2.1221 -2.30731,3.18042c-1.44903,-3.17518 -2.83815,-6.36931 -4.16263,-9.61624z" fill-opacity="0.09412" fill="#000000" stroke="none" stroke-width="0" stroke-linecap="butt"/><path d="M283.78267,116.1545c0,-2.43976 0.15374,-4.83454 0.44975,-7.17c2.34632,4.88136 4.69787,9.76152 7.03815,14.64706c-1.82402,2.46805 -3.65848,4.92798 -5.50075,7.38199c-1.28765,-4.65547 -1.98714,-9.65496 -1.98714,-14.85906z" fill-opacity="0.09412" fill="#000000" stroke="none" stroke-width="0" stroke-linecap="butt"/><path d="M293.80663,128.93915c-2.21569,2.11669 -4.43446,4.23029 -6.65962,6.33686c-0.02251,-0.06058 -0.04491,-0.12123 -0.06721,-0.18196c1.97571,-2.62279 3.94334,-5.25165 5.89965,-7.88928c0.27595,0.57802 0.55169,1.15615 0.82718,1.73438z" fill-opacity="0.09412" fill="#000000" stroke="none" stroke-width="0" stroke-linecap="butt"/><path d="M343.69947,81.80809c-2.24069,2.71179 -4.70524,5.26962 -7.09953,7.82735c-3.53441,3.77569 -6.91577,7.93117 -10.65236,11.54257c-3.27483,-2.36466 -6.53426,-4.74966 -9.75442,-7.18256c4.13035,-6.28829 8.28325,-12.56275 12.82258,-18.6149c0.63824,-0.85095 1.26178,-1.69299 1.88139,-2.52384c4.76772,1.87718 9.11053,4.95536 12.80233,8.95138z" fill-opacity="0.09412" fill="#000000" stroke="none" stroke-width="0" stroke-linecap="butt"/><path d="M320.01727,70.77551c2.5248,0 4.98929,0.3234 7.3685,0.93892c-0.38663,0.5184 -0.77589,1.04059 -1.17001,1.56611c-4.53289,6.04415 -8.68301,12.30931 -12.80916,18.58896c-1.40752,-1.08489 -2.80608,-2.18062 -4.19364,-3.28955c-3.82745,-3.05889 -7.29207,-5.80661 -10.59087,-9.05306c5.99568,-5.50231 13.39246,-8.75138 21.39518,-8.75138z" fill-opacity="0.09412" fill="#000000" stroke="none" stroke-width="0" stroke-linecap="butt"/><path d="M342.03406,112.7372c-1.32045,-0.96032 -2.64477,-1.91659 -3.97139,-2.87063c3.03898,-2.66573 6.11522,-5.28726 9.32312,-7.66953c1.92986,-1.43317 3.87913,-2.83529 5.84545,-4.21016c0.98237,2.81286 1.7436,5.77453 2.25614,8.85051c-2.91522,3.08097 -5.8106,6.18051 -8.72555,9.24128c-1.58886,-1.09397 -3.16611,-2.20571 -4.72777,-3.34146z" fill-opacity="0.09412" fill="#000000" stroke="none" stroke-width="0" stroke-linecap="butt"/><path d="M356.25186,116.15449v0.00001c0,2.03573 -0.09568,4.05367 -0.28573,6.04203c-2.09971,-1.36048 -4.1927,-2.73084 -6.27029,-4.1247c2.12239,-2.2331 4.23533,-4.48554 6.35425,-6.73478c0.13338,1.58297 0.20177,3.19021 0.20177,4.81745z" fill-opacity="0.09412" fill="#000000" stroke="none" stroke-width="0" stroke-linecap="butt"/><path d="M328.83087,103.25297c3.59962,-3.5497 6.89225,-7.55937 10.32424,-11.22565c2.31283,-2.47072 4.65819,-4.93747 6.82673,-7.52546c2.33422,3.00264 4.33919,6.40872 5.94188,10.1268c-2.2425,1.55826 -4.46316,3.15104 -6.65846,4.78388c-3.48619,2.59297 -6.81932,5.46091 -10.11784,8.36258c-2.10477,-1.50719 -4.21239,-3.01215 -6.31656,-4.52216z" fill-opacity="0.09412" fill="#000000" stroke="none" stroke-width="0" stroke-linecap="butt"/></g></g></g></svg>