<svg version="1.1" xmlns="http://www.w3.org/2000/svg" xmlns:xlink="http://www.w3.org/1999/xlink" width="209.62751" height="288.08929" viewBox="0,0,209.62751,288.08929"><g transform="translate(-143.90116,-55.85573)"><g data-paper-data="{&quot;isPaintingLayer&quot;:true}" fill-rule="nonzero" stroke-linecap="butt" stroke-linejoin="miter" stroke-miterlimit="10" stroke-dasharray="" stroke-dashoffset="0" style="mix-blend-mode: normal"><path d="M282.36126,137.56891c0,0 -10.02983,-0.07689 -11.03227,-1.00938c-0.7345,-0.68325 5.99687,-2.22477 5.99687,-2.22477l-2.64787,14.25166c0,0 -7.20692,1.26777 -11.01233,1.86204c-2.10907,0.32935 -1.39365,4.47172 -1.39365,4.47172c0,0 -4.4083,3.95756 -18.53632,4.2196c-2.68765,0.04985 -8.38556,0.51613 -14.49123,-2.46803c-3.4334,-1.67809 -6.35311,-4.18702 -8.30685,-6.13253c0.11245,-0.60034 0.17126,-1.21957 0.17126,-1.85254c0,-1.14301 -0.19177,-2.24123 -0.54489,-3.26424c-2.26178,-10.06424 -9.17788,-17.34918 -9.60417,-29.51744c-0.32146,-9.17574 1.29348,-18.86185 2.19421,-27.95829c0.15153,-1.53028 -0.10709,-4.22482 0.27911,-5.17608c0.6802,-1.67539 1.81445,-3.56497 1.24265,-5.28038c-1.14326,-3.42978 -2.39612,-5.81837 -4.01074,-7.29185c0.78332,-1.20728 1.69573,-2.45683 2.76231,-3.76041c6.13328,-7.49611 20.26726,-10.5208 28.68941,-10.58184c6.23566,-0.04519 23.15213,3.53469 29.04658,8.99434c1.63848,1.51762 5.96544,5.46139 5.96544,5.46139c0,0 -1.64929,1.44112 -2.48299,2.6995c1.72564,2.62541 2.53563,4.59281 5.43502,9.76234c4.16722,7.43003 5.94603,14.17289 5.94603,14.17289c0,0 -4.92404,2.63714 -9.50925,0.83156c-1.42883,-0.56265 5.19708,-6.18998 4.47006,-5.90214c0.42948,3.37328 0.46061,5.58737 0.46061,5.58737l8.06204,19.25848c0,0 -9.49852,2.00212 -11.89221,0.77037c-0.90822,-0.46736 9.12539,-7.54151 8.2382,-7.29544c0.38014,1.73803 -3.47463,5.02016 -2.83537,7.01229c1.55127,4.83423 -0.65968,20.35981 -0.65968,20.35981z" data-paper-data="{&quot;index&quot;:null}" fill="#000000" stroke="none" stroke-width="NaN"/><path d="M221.23869,135.3793l-0.19779,-0.04395l-0.05053,-0.85903z" data-paper-data="{&quot;index&quot;:null}" fill="#000000" stroke="none" stroke-width="NaN"/><g fill="#000000" stroke="none"><path d="M200.5813,185.96092c0,-21.10292 18.15751,-38.21022 40.55593,-38.21022c22.39843,0 40.82079,17.1073 40.82079,38.21022c0,2.70002 0.0039,117.77204 0.0039,117.77204l-11.39983,-0.12964l-0.14337,-113.82486c0,0 0.46851,-2.08621 -1.77595,-2.22047c-2.48625,-0.14872 -2.11767,1.68282 -2.11767,1.68282l0.10343,114.38802l-50.32146,0.07847l0.10485,-114.20488c0,0 -0.19035,-2.13951 -1.8053,-2.16297c-2.01199,-0.02922 -1.98832,2.04221 -1.98832,2.04221l-0.29988,114.25674l-11.38239,0.22905c0,0 -0.35473,-116.42094 -0.35473,-117.90653z" stroke-width="0"/><g><path d="M230.02084,204.89619c-5.66213,0 -7.34973,-0.4705 -7.34973,-0.4705l-0.08286,-1.2733c0,0 5.25623,0.13066 7.69744,0.13066c4.20542,0 7.61458,-1.35635 7.61458,-0.87378c0,0.48257 -1.95246,2.48691 -7.87944,2.48691z" stroke-width="0"/><path d="M225.51829,199.65352c0,-0.55682 0.44467,-1.00821 0.99321,-1.00821c0.54854,0 0.99321,0.45139 0.99321,1.00821c0,0.55682 -0.44467,1.00821 -0.99321,1.00821c-0.54854,0 -0.99321,-0.45139 -0.99321,-1.00821z" stroke-width="0.5"/></g><g data-paper-data="{&quot;index&quot;:null}"><path d="M244.83605,202.40928c0,-0.48257 3.40916,0.87378 7.61458,0.87378c2.44121,0 7.69744,-0.13066 7.69744,-0.13066l-0.08286,1.2733c0,0 -1.6876,0.4705 -7.34973,0.4705c-5.92698,0 -7.87944,-2.00433 -7.87944,-2.48691z" stroke-width="0"/><path d="M256.2247,200.66172c-0.54853,0 -0.99321,-0.45139 -0.99321,-1.00821c0,-0.55682 0.44467,-1.00821 0.99321,-1.00821c0.54853,0 0.99321,0.45139 0.99321,1.00821c0,0.55682 -0.44467,1.00821 -0.99321,1.00821z" stroke-width="0.5"/></g><path d="M240.3833,253.12206c0,-0.55681 0.44467,-1.00821 0.99321,-1.00821c0.54854,0 0.99321,0.45139 0.99321,1.00821c0,0.55681 -0.44467,1.00821 -0.99321,1.00821c-0.54854,0 -0.99321,-0.45139 -0.99321,-1.00821z" stroke-width="0.5"/></g><path d="M197.22567,116.22643c0.63926,-1.99213 1.10513,-4.01408 1.48527,-5.75211c-3.22545,-0.89458 -7.25454,-4.45653 -7.25454,-4.45653l11.66257,-8.27687c0,0 0.03113,-2.2141 0.46061,-5.58738c-2.07057,-0.81978 -4.17554,-1.9983 -4.17554,-1.9983c0,0 7.08012,-13.15754 11.28598,-19.55638c-0.83371,-1.25838 -1.71441,-3.0838 -1.71441,-3.0838c0,0 2.78979,-0.86945 4.42828,-2.38707c5.89445,-5.45964 22.81092,-9.03953 29.04658,-8.99434c8.42215,0.06104 22.55613,3.08573 28.68941,10.58184c1.06658,1.30358 1.97899,2.55313 2.76231,3.76041c-1.61462,1.47348 -2.86748,3.86207 -4.01074,7.29185c-0.57181,1.71542 0.56244,3.60498 1.24265,5.28038c0.3862,0.95126 0.12759,3.6458 0.27912,5.17608c0.90072,9.09644 2.51566,18.78254 2.1942,27.95828c-0.42629,12.16827 -7.34239,19.45321 -9.60417,29.51745c-0.35312,1.02301 -0.54488,2.12123 -0.54488,3.26424c0,0.63297 0.05881,1.25221 0.17126,1.85254c-1.95374,1.94552 -4.87344,4.45444 -8.30685,6.13253c-6.10567,2.98416 -11.80358,2.51788 -14.49123,2.46803c-14.12802,-0.26204 -18.53632,-4.2196 -18.53632,-4.2196l-2.5785,-6.14072c-1.30747,0.07111 -3.36706,-0.16197 -5.47613,-0.49132c-3.80541,-0.59427 -7.77185,-1.50198 -7.77185,-1.50198c0,0 0.55965,-7.83706 0.77263,-12.45139c-4.64996,-0.23963 -13.85669,-1.62655 -13.85669,-1.62655c0,0 2.28971,-11.92505 3.84097,-16.75928z" fill="#000000" stroke="none" stroke-width="NaN"/><path d="M214.42174,304.31128v-88.51799h53.21776v88.51799z" fill="#481310" stroke="none" stroke-width="0"/><g data-paper-data="{&quot;index&quot;:null}" stroke="none" stroke-width="0"><path d="M282.77522,264.79037v27.35138l-13.42704,2.32073v-27.35137z" fill="#773128"/><path d="M282.77522,280.90776c-4.26706,3.08047 -8.68428,5.94374 -13.42704,8.3519v-3.5441c4.95754,-3.08101 9.23247,-6.88013 13.42704,-10.79318z" fill="#894939"/><path d="M269.34817,279.89522c0.00673,-0.00853 0.01016,-0.01324 0.01016,-0.01324c3.60859,-4.93806 7.25927,-9.82389 10.96081,-14.66709l2.45607,-0.42451v6.7349c-4.24847,4.00682 -8.50719,7.9719 -13.42704,11.22429z" fill="#894939"/></g><g stroke="none" stroke-width="0"><path d="M269.3482,263.54988v-27.35137l13.42704,2.32073v27.35138z" fill="#773128"/><path d="M282.77522,255.73861c-4.19457,-3.91305 -8.4695,-7.71216 -13.42704,-10.79318v-3.5441c4.74276,2.40816 9.15999,5.27143 13.42704,8.3519z" fill="#894939"/><path d="M269.34817,247.91141c4.91985,3.25239 9.17856,7.21747 13.42704,11.22429v6.7349l-2.45607,-0.42451c-3.70154,-4.8432 -7.35223,-9.72903 -10.96081,-14.66709c0,0 -0.00344,-0.0047 -0.01016,-0.01323z" fill="#894939"/></g><path d="M199.57632,214.77386v-5.00323c0,0 -3.44785,-20.89777 3.88043,-38.4724c5.27731,-12.65602 16.01623,-23.71547 38.25205,-23.40968c19.05733,0.26208 30.66463,9.52997 36.45197,21.03652c2.86782,5.70188 3.18487,11.91552 4.02079,17.73639c1.78841,12.45348 1.39639,23.10917 1.39639,23.10917l-1.05331,31.59936z" fill="#59220f" stroke="none" stroke-width="0"/><path d="M217.45346,143.50304c-1.12791,-6.71582 -0.20637,-6.94188 -1.0642,-13.44379c-0.47362,-3.58977 -2.15797,-7.18909 -2.73202,-11.13223c-1.20896,-8.30433 -1.27196,-25.65977 -0.47554,-29.40025c4.41933,-20.75585 15.3863,-24.96608 29.85603,-25.48425c20.77576,-0.74399 24.79696,12.48506 27.42961,23.79025c1.84023,7.90235 1.22737,18.92724 -0.34916,28.57116c-0.96559,5.90663 -2.47529,10.80823 -3.46814,15.58687c-1.22544,5.89815 -0.7524,7.76045 -1.86263,12.66938c-1.15349,5.10023 -6.83176,10.81045 -11.83191,15.83737c-4.57165,4.59612 -7.90818,8.33063 -12.38271,8.22359c-5.04445,-0.12068 -8.96195,-6.22631 -14.50155,-12.44391c-4.38889,-4.92605 -8.03319,-9.29321 -8.61781,-12.77419z" fill="#000000" stroke="none" stroke-width="0"/><path d="M223.32296,165.08081c0,-7.98723 7.56929,-14.46216 16.90648,-14.46216c9.33719,0 16.90648,6.47493 16.90648,14.46216c0,7.98723 -7.56929,14.46217 -16.90648,14.46217c-9.33719,0 -16.90647,-6.47494 -16.90647,-14.46217z" fill="#000000" stroke="none" stroke-width="0"/><path d="M266.67601,120.06256c-0.04558,0.22121 1.06922,-0.05581 1.0177,0.16612c-0.65882,2.83831 -1.43442,5.55499 -2.06444,8.1239c-0.87304,3.55983 -7.94751,7.87132 -7.94751,7.87132c0,0 6.18138,3.6477 5.93237,4.88074c-1.44877,7.17412 -1.89749,7.23551 -4.27323,10.21882c-2.5746,3.23301 -6.22007,6.15229 -9.11253,8.91074c-2.62204,2.50056 -5.47801,6.21315 -8.77908,6.21315c-4.10432,0 -6.9048,-3.78999 -10.07829,-7.4154c-4.16404,-4.75701 -9.74454,-7.22321 -12.17315,-14.27505c-0.25896,-0.75192 9.31159,-5.27064 9.31159,-5.27064c0,0 -4.89427,7.97889 -5.74686,-0.95267c-0.13224,-1.1816 5.73929,-0.74072 5.73929,-0.74072c0,0 -10.69357,-9.92476 -11.1668,-12.68409c0.10245,-0.00441 0.2045,-0.01037 0.30613,-0.01784c0.4043,-0.02973 0.80191,-0.0835 1.19143,-0.15988c12.61498,-2.12302 24.9513,-4.93303 37.5278,-7.27474c4.05652,-0.75531 6.3613,-1.21883 10.50811,-1.42667c-0.11602,0.90642 -4.37733,2.31708 -4.18663,3.2359c0.02977,0.14343 4.02371,0.45325 3.99408,0.59702z" fill="#ffffff" stroke="none" stroke-width="0"/><path d="M228.24281,105.59134c5.64136,0 10.21459,4.47197 10.21459,9.98843c0,5.51646 -4.7706,9.74171 -10.41197,9.74171c-5.64137,0 -10.31875,-4.22525 -10.31875,-9.74171c0,-5.51645 4.87476,-9.98843 10.51613,-9.98843z" fill="#000000" stroke="none" stroke-width="0"/><path d="M254.80274,105.61596c5.64136,0 10.21459,4.47198 10.21459,9.98844c0,5.51645 -4.72127,9.64301 -10.36263,9.64301c-3.16285,0 -6.23667,-1.06026 -8.11031,-3.26759c-1.46826,-1.72975 -1.95625,-3.95178 -1.95625,-6.37542c0,-5.51646 4.57322,-9.98844 10.21459,-9.98844z" fill="#000000" stroke="none" stroke-width="0"/><g stroke="none"><path d="M249.40696,142.68971c2.14614,0.63336 4.57,2.14674 7.10189,3.18958c3.1668,1.30434 5.91835,2.72636 5.91835,2.98404c0,0.09852 0.6422,0.57742 0.34258,1.11686c-1.789,3.22099 -9.63005,12.83494 -20.94009,13.0257c-12.59325,-0.3248 -20.68677,-10.85655 -23.27914,-15.25835c-0.66575,-1.13043 -0.11257,-1.97072 -0.18768,-1.99564c-0.32963,-0.10935 2.17574,-0.56882 4.39722,-1.19556c1.32363,-0.37344 6.02869,-2.52762 9.16564,-2.62169c0,0 6.11008,0.84857 11.13979,1.05021c0,0 4.30069,-0.8974 6.34144,-0.29515z" fill="#000000" stroke-width="NaN"/><path d="M222.92505,145.9118c0,0 4.45428,-1.58314 9.14685,-1.84617c3.5353,-0.19816 8.14505,1.24124 10.14351,1.24124c1.78589,0 3.62586,-1.29154 6.32678,-0.57417c4.23256,1.12417 8.12418,3.53158 8.12418,3.53158c0,0 -3.47556,-0.50449 -6.7587,-0.10932c-2.77486,0.33399 -5.25973,0.85453 -6.95291,0.86581c-2.06827,0.01378 -6.82484,-0.83276 -11.18375,-1.76195c-4.64917,-0.99105 -8.84595,-1.34702 -8.84595,-1.34702z" fill="#ffffff" stroke-width="0"/><path d="M233.93291,149.67147c5.82065,1.20577 8.52116,2.22429 8.52116,2.22429c0,0 2.73973,-0.85807 10.10428,-1.81233c3.83362,-0.49674 8.34249,0.13003 8.34249,0.13003c0,0 -1.67172,2.4939 -5.81691,5.31831c-3.13971,2.13931 -7.86424,4.77611 -13.40623,4.89818c-13.03253,0.28708 -21.37398,-13.37554 -21.37398,-13.37554c0,0 7.27229,1.30021 13.62919,2.61706z" fill="#ffffff" stroke-width="0"/></g><path d="M213.28848,108.92257l0.13102,-1.63769l7.19167,-1.18423l0.32653,-1.46623c0,0 3.68245,-1.72538 7.2562,-2.03587c3.72054,-0.32324 9.00496,-0.09575 9.00496,-0.09575l0.32754,4.71657c0,0 -4.80797,-1.2906 -8.17678,-1.07798c-6.17314,0.38961 -6.13035,1.25866 -10.09703,1.94554c-3.96668,0.68688 -5.96411,0.83565 -5.96411,0.83565z" fill="#000000" stroke="none" stroke-width="0"/><path d="M257.42143,102.60405c-6.5361,-0.02665 -11.93017,2.50832 -11.93017,2.50832l-0.26203,-4.42239c0,0 5.28442,-1.73418 9.39801,-1.86949c4.11358,-0.13531 7.12519,0.66021 7.12519,0.66021l0.19551,1.20419l7.3882,2.16685l0.13101,1.6377c0,0 -5.86035,-1.86016 -12.04572,-1.88538z" data-paper-data="{&quot;index&quot;:null}" fill="#000000" stroke="none" stroke-width="0"/><path d="M227.71919,110.63144c2.71342,0 4.91309,2.23007 4.91309,4.98099c0,2.75092 -2.19966,4.98098 -4.91309,4.98098c-2.71342,0 -4.91309,-2.23006 -4.91309,-4.98098c0,-2.75092 2.19966,-4.98099 4.91309,-4.98099z" fill="#a1634f" stroke="none" stroke-width="0"/><path d="M254.87175,110.85056c2.71342,0 4.91309,2.23006 4.91309,4.98098c0,2.75092 -2.19966,4.98098 -4.91309,4.98098c-2.71342,0 -4.91309,-2.23006 -4.91309,-4.98098c0,-2.75091 2.19966,-4.98098 4.91309,-4.98098z" fill="#a1634f" stroke="none" stroke-width="0"/><g stroke="none" stroke-width="0"><path d="M238.90971,136.80041c0,0 -0.06312,-8.68679 -0.28083,-12.38791c-0.17487,-2.97289 -0.92532,-8.11666 -0.92532,-8.11666c0,0 -0.33218,-1.57308 0.02454,-1.56279c1.13657,0.03279 7.81544,1.78895 7.81544,1.78895l-0.37692,20.27841c0,0 0.82184,1.93768 0.72844,3.69896c-0.06976,1.31553 -0.97469,4.70292 -1.02626,5.67536c-0.11348,2.13998 -0.40577,3.89334 -0.40577,3.89334l-4.14036,-0.01448c0,0 -0.12488,-2.01528 -0.87252,-4.2695c-0.71961,-2.16969 -2.11593,-4.55553 -2.18508,-5.58924c-0.19994,-2.9885 1.64464,-3.39445 1.64464,-3.39445z" fill="#000000"/><path d="M241.27174,149.07835c0,0 -0.2909,-3.80356 -0.49735,-8.24071c-0.20504,-4.40659 -0.32473,-9.70108 -0.5883,-13.30096c-0.42508,-5.80554 -1.77895,-15.81414 -1.77895,-15.81414l6.10614,1.88461l-0.75385,35.43068z" fill="#ffffff"/><path d="M238.85416,137.97842c0.34401,0 0.62288,4.77542 0.62288,4.77542c0,0 -1.24576,-1.59275 -1.24576,-2.7251c0,-1.13236 0.27887,-2.05032 0.62288,-2.05032z" fill="#ffffff"/></g><path d="M217.54647,116.17211c0,0 -0.16627,-2.22288 0.81062,-4.59656c1.16899,-2.84044 3.93233,-5.91812 9.99819,-5.95021c4.4123,-0.02334 6.77688,1.48178 8.31843,3.36171c2.53146,3.08714 2.42486,7.54013 2.42486,7.54013z" fill="#000000" stroke="none" stroke-width="0"/><path d="M244.50744,116.19352c0,0 -0.53134,-3.2454 0.9459,-6.12374c1.32927,-2.59004 4.34124,-4.84529 9.8629,-4.81608c11.13492,0.0589 11.0941,11.29489 11.0941,11.29489z" data-paper-data="{&quot;index&quot;:null}" fill="#000000" stroke="none" stroke-width="0"/><path d="M216.72384,130.43356l-3.33622,-22.84029c0,0 12.56594,-2.65601 30.15432,-2.95127c13.78103,-0.23135 26.30483,2.95127 26.30483,2.95127l-2.95127,23.09693c0,0 -3.61551,0.66804 -21.61505,1.1467c-1.33138,0.03541 -2.67944,-1.27097 -3.77653,-1.27658c-1.55086,-0.00793 -2.65251,1.05948 -4.61127,1.02083c-12.83637,-0.25331 -20.1688,-1.14758 -20.1688,-1.14758z" fill="#000000" stroke="none" stroke-width="0"/><path d="M216.72385,128.95191l-3.33622,-22.84029c0,0 12.56594,-2.65601 30.15432,-2.95127c13.78103,-0.23135 26.30483,2.95127 26.30483,2.95127l-2.95127,23.09693c0,0 -3.61551,0.66804 -21.61505,1.1467c-1.33138,0.03541 -2.67944,-1.27097 -3.77653,-1.27658c-1.55086,-0.00793 -2.65251,1.05948 -4.61127,1.02083c-12.83637,-0.25331 -20.1688,-1.14758 -20.1688,-1.14758z" fill="#59220f" stroke="none" stroke-width="0"/><path d="M221.72989,127.28469l-2.71246,-17.00415c0,0 10.21654,-1.97734 24.5165,-2.19716c11.20445,-0.17224 21.38673,2.19716 21.38673,2.19716l-2.39949,17.19521c0,0 -2.93952,0.49734 -17.57378,0.8537c-1.08246,0.02636 -2.17848,-0.94622 -3.07045,-0.9504c-1.26091,-0.0059 -2.15659,0.78877 -3.74912,0.75999c-10.43641,-0.18859 -16.39794,-0.85435 -16.39794,-0.85435z" data-paper-data="{&quot;index&quot;:null}" fill="#481310" stroke="none" stroke-width="0"/><path d="M221.72991,125.87723l-2.71246,-17.00415c0,0 7.4752,-1.44678 18.58711,-2.00282c1.87869,-0.09401 3.86134,-0.16256 5.92939,-0.19435c0.36381,-0.00559 0.72653,-0.00851 1.08787,-0.00891c10.76708,-0.01196 20.29886,2.20608 20.29886,2.20608l-2.39949,17.19521c0,0 -2.93953,0.49735 -17.57378,0.8537c-1.08246,0.02636 -2.17848,-0.94622 -3.07045,-0.95039c-1.2609,-0.00591 -2.15659,0.78877 -3.74912,0.75999c-10.43641,-0.18858 -16.39793,-0.85435 -16.39793,-0.85435z" data-paper-data="{&quot;index&quot;:null}" fill="#773128" stroke="none" stroke-width="0"/><path d="M218.1093,107.81001c0,0.26757 -0.94388,2.54871 -0.79512,5.07699c0.33165,5.63664 1.83448,13.92155 1.15274,13.92155c-0.98754,0 -3.75501,-17.86623 -3.75501,-18.73033c0,-0.8641 0.71115,-0.93875 1.69869,-0.93875c0.98754,0 1.69869,-0.19356 1.69869,0.67054z" fill="#6d4321" stroke="none" stroke-width="0"/><path d="M267.21236,106.54203c0.98754,0 1.69869,0.07466 1.69869,0.93875c0,0.8641 -2.76747,18.73033 -3.755,18.73033c-0.68174,0 0.82109,-8.28491 1.15274,-13.92155c0.14876,-2.52828 -0.79512,-4.80942 -0.79512,-5.07699c0,-0.8641 0.71115,-0.67054 1.69869,-0.67054z" data-paper-data="{&quot;index&quot;:null}" fill="#6d4321" stroke="none" stroke-width="0"/><path d="M264.63242,106.40466c0,0.23499 -1.35145,1.06254 -3.87878,0.767c-1.36431,-0.15954 -7.53304,-1.41514 -13.52983,-1.50181c-11.4787,-0.16591 -25.40646,0.87201 -25.40646,0.47484c0,-0.60466 12.77927,-1.99647 22.48945,-1.99647c9.71018,0 20.32561,1.65177 20.32561,2.25644z" fill="#6d4321" stroke="none" stroke-width="0"/><path d="M219.01743,108.87307c0,0 5.57957,-1.07989 14.26342,-1.7323c0.93795,1.93501 4.3078,3.9807 6.70655,5.75609c0.85584,2.35613 2.57212,4.2994 4.76897,5.44995c2.16552,2.49357 4.71598,4.71282 6.93653,7.11649c0.37235,0.40306 0.72225,0.81053 1.05375,1.21968c-2.13179,0.08195 -4.70393,0.16363 -7.79927,0.239c-1.08246,0.02636 -2.17848,-0.94622 -3.07045,-0.95039c-1.2609,-0.00591 -2.15659,0.78877 -3.74912,0.75999c-2.45537,-0.04437 -4.66304,-0.11515 -6.60366,-0.19746c-3.69865,-6.20479 -7.3445,-13.15452 -12.50562,-17.65411z" data-paper-data="{&quot;index&quot;:null}" fill="#894939" stroke="none" stroke-width="0"/><path d="M231.35441,107.29639c1.60937,2.31937 4.13654,4.80602 4.76629,5.48608c4.59279,4.95965 9.25515,9.25612 13.80674,13.99978c-1.48694,0.04797 -3.14117,0.09497 -4.98006,0.13975c-1.08246,0.02636 -2.17848,-0.94622 -3.07045,-0.95039c-1.2609,-0.00591 -2.15659,0.78877 -3.74912,0.75999c-0.22899,-0.00414 -0.45583,-0.0085 -0.68049,-0.01309c-4.23453,-5.15882 -8.31144,-10.40951 -12.49551,-15.65803c-0.4893,-0.61378 -1.21107,-1.64029 -2.08975,-2.80454c2.10567,-0.29892 5.00025,-0.65762 8.49235,-0.95953z" data-paper-data="{&quot;index&quot;:null}" fill="#a1634f" stroke="none" stroke-width="0"/><path d="M277.05823,177.6495c0.82742,5.09447 -2.06462,21.45046 -4.51628,30.58449c2.22692,0.34267 4.75119,0.88118 4.6701,1.554c-0.40683,3.37551 -5.65822,10.71433 -11.60997,13.71228c2.0915,2.35766 5.18822,6.00917 4.30509,6.00917c-4.21779,0 -22.06095,-6.25137 -37.9736,-13.48611c-0.18058,-1.77447 -0.43966,-3.52806 -0.7972,-5.25227c-2.17203,-10.37751 -6.71642,-22.23231 -15.90663,-28.4924c-2.16156,-1.47239 -4.94291,-2.43393 -7.51497,-3.24026c1.82276,-6.41328 4.62056,-11.67005 8.56379,-11.67005c5.36582,0 11.58576,19.03904 24.04588,17.64667c5.22674,-0.33707 12.98813,-2.93841 17.65681,-8.80522c4.77089,-5.99525 18.35728,-2.99163 19.077,1.43971z" fill="#6d4321" stroke="none" stroke-width="0"/><path d="M202.25261,200.54888c0,-4.03444 0.65319,-10.56192 2.08524,-16.55793c2.3107,0.71559 4.82345,1.57039 6.73234,2.88595c2.7359,1.88551 5.02511,4.29738 6.94125,7.02401c-0.17842,0.18116 -0.26678,0.3621 -0.26678,0.3621c-2.39508,4.90422 -4.5416,9.91199 -6.55226,14.97674c-5.41648,-3.3582 -8.93979,-6.43918 -8.93979,-8.69088z" fill="#6d4321" stroke="none" stroke-width="0"/><path d="M227.21029,216.98834c0.24515,1.15935 0.44321,2.33389 0.60082,3.5206c-4.80793,-2.25149 -9.35167,-4.56805 -13.18008,-6.79691c1.90623,-4.81933 3.93424,-9.58747 6.18254,-14.26344c3.2095,5.41469 5.17997,11.72639 6.39672,17.53975z" fill="#6d4321" stroke="none" stroke-width="0"/><path d="M263.39667,247.55339c0,3.02252 0.18204,12.96134 -0.1496,23.62193c-7.28787,-0.23966 -14.57498,-0.49454 -21.85794,-0.84028c-0.90716,-2.30896 -1.84385,-4.62839 -2.81047,-6.91714c-12.12163,-3.46794 -20.95454,-36.96213 -20.95454,-36.96213c0,0 16.17786,4.2505 29.87482,7.71179c8.98776,2.27125 15.89774,10.47159 15.89774,13.38584z" fill="#531915" stroke="none" stroke-width="0"/><path d="M254.41881,305.40896c-3.44146,0 -8.1388,-14.56407 -14.2233,-30.33921c4.22522,0.1953 8.45177,0.36139 12.67899,0.51299c-0.05788,0.51763 -0.48572,3.59835 -0.29245,4.37938c0.84607,3.41899 4.19116,5.72877 6.57149,8.10719c0.31254,0.31228 0.62981,0.61995 0.95124,0.92351c-0.94897,9.24105 -2.65303,16.41615 -5.68599,16.41615z" fill="#531915" stroke="none" stroke-width="0"/><path d="M265.03336,273.67368c-0.12987,3.35329 -0.31514,6.72998 -0.57701,9.94128c-1.92211,-1.77117 -4.78076,-3.84265 -5.36121,-6.31517c-0.27779,-1.18329 0.18878,-2.42403 0.32363,-3.63198c0,0 0.00799,-0.07189 0.00283,-0.18301c1.8705,0.06481 3.74111,0.12734 5.61177,0.18888z" fill="#531915" stroke="none" stroke-width="0"/><g stroke="none" stroke-width="0"><path d="M143.90116,323.32962c0,0 9.02261,-2.10259 11.02569,-2.87341c1.14628,-0.4411 3.9553,-0.33757 5.59138,-0.11268c3.95558,0.54369 7.51915,1.43707 7.51915,1.43707c0,0 4.40965,-1.28844 7.7025,-0.27641c0.5645,0.17349 12.17544,4.80569 12.17544,4.80569c0,0 -0.02844,0.84781 -2.23052,3.11597c-3.70035,3.81138 -11.04091,5.40977 -19.05602,5.61515c-3.73342,0.09566 -9.82326,-1.3164 -14.40825,-4.13917c-4.98368,-3.06823 -8.31937,-7.57221 -8.31937,-7.57221z" fill="#000000"/><path d="M154.04998,322.69516c1.78476,-0.56986 4.16199,-0.35522 5.71361,-0.25136c1.36842,0.09161 4.15163,0.45441 8.05381,1.127c1.61369,0.27814 4.54837,-1.10269 6.15404,-0.79762c1.85079,0.35163 3.29419,0.44614 4.68334,0.98136c2.57006,0.9902 2.91485,1.35146 2.91485,1.35146c0,0 -3.76819,-0.56422 -7.35982,-0.1317c-2.42759,0.29235 -4.22111,1.31173 -6.28484,1.17359c-2.50232,-0.16751 -4.50205,-1.09617 -8.16293,-1.82488c-4.99635,-0.99452 -10.25966,-0.69487 -10.25966,-0.69487c0,0 1.54337,0.02624 4.54758,-0.93298z" fill="#ffffff"/><path d="M159.61431,325.87752c2.79511,0.74761 8.19556,2.55422 8.19556,2.55422c0,0 6.07261,-1.77477 8.85337,-1.88531c3.24533,-0.12901 9.65023,0.31887 9.65023,0.31887c0,0 -8.57051,6.28105 -20.03668,5.37569c-12.60163,-0.99501 -18.51376,-6.80771 -18.51376,-6.80771c0,0 10.02559,-0.04408 11.85128,0.44425z" fill="#ffffff"/></g><g stroke-width="0"><path d="M311.30647,320.76885c0,0 2.80812,-1.78893 5.71742,-4.10094c2.88681,-2.29415 5.86639,-5.1119 8.0514,-5.0199c1.94102,0.08173 8.09473,2.30573 8.09473,2.30573c0,0 6.34623,-3.51263 8.84158,-2.42859c2.1668,0.9413 5.22109,4.43957 7.76238,7.21325c1.96322,2.14274 3.75469,3.80824 3.75469,3.80824c0,0 -0.60507,1.41291 -1.21115,3.63943c-1.06714,3.92026 -2.05966,9.79611 -5.5415,13.58771c-3.28881,3.58138 -9.57606,3.17306 -13.8029,2.99508c-4.05318,-0.17066 -9.77756,0.58934 -13.1677,-3.05853c-3.68296,-3.96295 -5.598,-10.06469 -6.87375,-14.2855c-0.80745,-2.67141 -1.62521,-4.65597 -1.62521,-4.65597z" fill="#000000" stroke="none"/><path d="M315.41756,320.65777c0,0 1.19814,-0.6977 2.44205,-1.76181c2.12226,-1.81552 4.7925,-4.81867 6.70962,-5.37168c2.6952,-0.77746 8.62611,3.13349 8.62611,3.13349c0,0 5.79405,-3.62603 8.47318,-2.83287c1.36344,0.40365 2.86672,2.19242 4.32157,3.87021c1.66979,1.92568 3.42747,3.74044 3.42747,3.74044c0,0 -2.21352,0.47073 -4.54014,-0.16731c-3.41894,-0.93759 -5.94635,-3.15656 -11.1159,-3.18296c-6.19541,-0.03163 -7.27663,1.75881 -10.95938,2.34106c-4.18854,0.66221 -7.38458,0.23143 -7.38458,0.23143z" fill="#ffffff" stroke="none"/><path d="M313.9731,322.32443c0,0 2.58503,-0.38218 4.79299,1.52004c3.71744,3.20267 4.83066,9.41538 14.64697,9.55707c9.50119,0.30123 9.12828,-5.89657 12.51491,-9.01501c2.1524,-1.98194 5.15623,-1.50655 5.15623,-1.50655c0,0 -0.65052,2.48341 -1.54191,5.8112c-0.79244,2.95838 -1.65874,6.63069 -4.20284,9.10864c-2.63655,2.568 -9.01882,2.9064 -12.25525,2.85795c-3.69679,-0.05534 -9.19365,0.24891 -12.26095,-2.96301c-2.74203,-2.87131 -4.06659,-7.07122 -5.11873,-10.35547c-0.91395,-2.85289 -1.73143,-5.01485 -1.73143,-5.01485z" fill="#ffffff" stroke="#000000"/><path d="M325.19534,328.54661c0,0 5.6582,0.79209 8.32934,0.85016c2.41387,0.05247 7.00399,-0.51682 7.00399,-0.51682c0,0 -1.64731,2.8211 -7.22222,2.77778c-4.5752,-0.03555 -8.11111,-3.11111 -8.11111,-3.11111z" fill="#ffffff" stroke="#000000"/><path d="M341.08421,321.76885c0,0 -4.84127,0.14297 -7.33101,0.04937c-2.43496,-0.09154 -7.44676,-0.60493 -7.44676,-0.60493c0,0 3.78325,-1.37591 7.88889,-1.22222c3.88895,0.14558 6.88888,1.77778 6.88888,1.77778z" fill="#ffffff" stroke="#000000"/></g><g stroke="none" stroke-width="0"><path d="M221.67013,324.19813c0,0 2.14153,-1.12169 5.49495,-3.03983c2.78076,-1.59057 6.59367,-4.05187 8.90997,-3.95056c1.54474,0.06756 5.88214,1.5451 5.88214,1.5451c0,0 6.14211,-1.47392 8.69037,-0.51946c2.944,1.1027 4.63987,2.90249 6.55827,4.43901c2.25288,1.80444 4.48085,3.27597 4.48085,3.27597c0,0 -3.56305,9.38769 -7.15912,11.94062c-3.33157,2.36516 -8.44076,3.10112 -13.6845,2.85674c-5.24373,-0.24436 -9.07589,-1.42708 -12.16442,-4.0927c-3.28976,-2.83928 -7.00852,-12.4549 -7.00852,-12.4549z" fill="#000000"/><path d="M223.73856,325.60359c0,0 5.02489,-0.40973 9.39074,1.26464c3.33482,1.27895 2.20696,5.04389 8.75424,5.04727c7.90015,0.00407 5.96847,-3.09098 9.61482,-4.41675c3.40278,-1.23721 7.16517,-0.86093 7.16517,-0.86093c0,0 -0.91477,6.74454 -5.68039,10.30104c-3.00249,2.24069 -9.16472,1.96853 -12.4583,1.87099c-2.67093,-0.0791 -6.35091,-0.29229 -8.72487,-2.07711c-5.19983,-3.9094 -8.06139,-11.12913 -8.06139,-11.12913z" fill="#ffffff"/><path d="M225.88657,323.80032c0,0 6.1172,-4.00816 9.15199,-4.51632c2.59883,-0.43516 7.15694,2.12964 7.15694,2.12964c0,0 4.54967,-1.91065 6.62935,-1.48786c2.62056,0.53275 8.16802,4.98832 8.16802,4.98832c0,0 -2.80356,0.39853 -6.37219,0.08928c-2.74883,-0.23821 -1.99526,-0.99323 -8.27231,-1.26718c-5.9873,-0.2613 -5.10679,0.71518 -8.18968,0.74165c-4.1245,0.03541 -8.2721,-0.67754 -8.2721,-0.67754z" fill="#ffffff"/><path d="M246.25285,328.41458c0,0 -0.55197,1.82979 -3.89823,1.82979c-3.02805,0 -3.89823,-1.82979 -3.89823,-1.82979z" fill="#ffffff"/></g><g stroke-width="0"><path d="M266.8527,319.38907c0,0 2.80812,-1.78893 5.71742,-4.10094c2.88681,-2.29415 5.86639,-5.1119 8.0514,-5.0199c1.94102,0.08173 8.09473,2.30573 8.09473,2.30573c0,0 6.34623,-3.51263 8.84158,-2.42859c2.1668,0.9413 5.22109,4.43957 7.76238,7.21325c1.96322,2.14274 3.75469,3.80824 3.75469,3.80824c0,0 -0.60507,1.41291 -1.21115,3.63943c-1.06714,3.92026 -1.61522,12.24055 -5.09706,16.03215c-3.28881,3.58138 -10.0205,3.17306 -14.24734,2.99508c-4.05318,-0.17066 -10.25879,0.56713 -14.03576,-3.32242c-4.45264,-4.58537 -4.91744,-11.87025 -6.19319,-16.09106c-0.80745,-2.67141 -1.43771,-5.03097 -1.43771,-5.03097z" fill="#000000" stroke="none"/><path d="M270.96383,319.27796c0,0 1.19814,-0.6977 2.44205,-1.76181c2.12226,-1.81552 4.7925,-4.81867 6.70962,-5.37168c2.6952,-0.77746 8.62611,3.13349 8.62611,3.13349c0,0 5.79405,-3.62603 8.47318,-2.83287c1.36344,0.40365 2.86672,2.19242 4.32157,3.87021c1.66979,1.92568 3.42747,3.74044 3.42747,3.74044c0,0 -2.21352,0.47073 -4.54014,-0.16731c-3.41894,-0.93759 -5.94635,-3.15656 -11.1159,-3.18296c-6.19541,-0.03163 -7.27663,1.75881 -10.95938,2.34106c-4.18854,0.66221 -7.38458,0.23143 -7.38458,0.23143z" fill="#ffffff" stroke="none"/><path d="M269.51933,320.94461c0,0 2.15447,0.28449 4.36243,2.18671c3.71744,3.20267 3.63808,11.09698 15.07753,11.33485c11.00466,0.22882 9.43384,-7.58407 12.82047,-10.70251c2.1524,-1.98194 4.78817,-1.88849 4.78817,-1.88849c0,0 -0.58802,4.55285 -1.47941,7.88064c-0.79244,2.95838 -1.59624,6.75569 -4.14034,9.23364c-2.63655,2.568 -9.08132,2.7814 -12.31775,2.73295c-3.69679,-0.05534 -9.30476,0.24891 -12.37206,-2.96301c-2.74203,-2.87131 -4.33048,-8.7865 -5.38262,-12.07075c-0.91395,-2.85289 -1.35643,-5.74402 -1.35643,-5.74402z" fill="#ffffff" stroke="#000000"/><path d="M280.74157,329.61126c0,0 5.6582,0.79209 8.32934,0.85016c2.41387,0.05247 7.00399,-0.51682 7.00399,-0.51682c0,0 -1.64731,2.8211 -7.22222,2.77778c-4.5752,-0.03555 -8.11111,-3.11111 -8.11111,-3.11111z" fill="#ffffff" stroke="#000000"/><path d="M296.63046,320.38907c0,0 -4.84127,0.14297 -7.33101,0.04937c-2.43496,-0.09154 -7.44676,-0.60493 -7.44676,-0.60493c0,0 3.78325,-1.37591 7.88889,-1.22222c3.88895,0.14558 6.88888,1.77778 6.88888,1.77778z" fill="#ffffff" stroke="#000000"/></g><g stroke="none" stroke-width="0"><path d="M203.78302,340.55386c-2.89434,-0.14662 -7.90323,0.16721 -10.4681,-2.15017c-3.20771,-2.89819 -4.37063,-6.00969 -5.66178,-9.48556c-1.10502,-2.97479 -2.56525,-6.57109 -2.56525,-6.57109c0,0 2.29017,-1.51532 5.75095,-3.72772c1.85497,-1.18584 4.41354,-3.81488 5.96837,-3.73611c1.92265,0.0974 7.86289,1.94058 7.86289,1.94058c0,0 5.23557,-2.61686 7.52134,-1.65486c1.77893,0.74869 4.22317,3.40624 6.44369,5.65121c1.82436,1.84444 3.63373,3.41038 3.63373,3.41038c0,0 -1.15903,2.37381 -1.90094,5.19049c-0.73649,2.79617 -1.39654,6.3058 -3.60465,8.63378c-3.15744,3.32885 -8.98158,2.70164 -12.98027,2.49908z" fill="#000000"/><path d="M188.43628,322.20753c0,0 2.20693,-1.19378 4.3327,-2.67037c1.53917,-1.06913 2.90303,-2.48563 3.99298,-2.74888c2.86551,-0.69209 8.13718,1.44305 8.13718,1.44305c0,0 4.79649,-1.98672 6.50905,-1.31025c0.9953,0.39315 2.05366,1.50095 3.32014,2.7124c2.01107,1.92369 4.12239,4.10873 4.12239,4.10873c0,0 -5.00994,-0.3645 -8.55409,-0.18851c-1.30289,0.0647 -1.74572,-2.52144 -5.33461,-2.53528c-4.81516,-0.01855 -3.81741,1.79371 -5.65524,2.01953c-4.4907,0.55181 -10.87051,-0.83042 -10.87051,-0.83042z" fill="#ffffff"/><path d="M187.38994,323.39341c0,0 6.06304,1.19117 7.93721,2.60125c3.73267,2.80838 4.22399,7.07155 9.22421,7.07437c5.2323,0.00295 5.36178,-3.91246 8.95731,-6.35813c2.08638,-1.41915 6.24895,-1.78281 6.24895,-1.78281c0,0 -2.7878,10.52556 -7.18507,12.76571c-1.26172,0.64277 -5.2506,1.11391 -9.20778,1.10137c-3.3367,-0.01058 -6.59039,-0.26425 -8.77657,-2.0639c-2.00345,-1.64923 -3.54823,-5.06296 -4.88995,-8.11725c-1.20076,-2.73341 -2.30832,-5.2206 -2.30832,-5.2206z" fill="#ffffff"/><path d="M208.17781,329.74138c0,0 -0.04252,1.46491 -3.52277,1.46491c-2.85242,0 -3.59253,-1.67419 -3.59253,-1.67419c0,0 1.71671,0.62782 3.66229,0.62782c1.94558,0 3.45301,-0.41854 3.45301,-0.41854z" fill="#ffffff"/></g></g></g></svg>