<svg version="1.1" xmlns="http://www.w3.org/2000/svg" xmlns:xlink="http://www.w3.org/1999/xlink" width="92.63117" height="319.41104" viewBox="0,0,92.63117,319.41104"><g transform="translate(-193.25423,-55.46596)"><g data-paper-data="{&quot;isPaintingLayer&quot;:true}" fill-rule="nonzero" stroke-linejoin="miter" stroke-miterlimit="10" stroke-dasharray="" stroke-dashoffset="0" style="mix-blend-mode: normal"><g stroke="none" stroke-linecap="butt"><path d="M200.58131,185.96091c0,-21.10292 18.15751,-38.21022 40.55593,-38.21022c22.39843,0 40.82079,17.1073 40.82079,38.21022c0,2.70002 0.0039,117.77204 0.0039,117.77204l-17.0665,-0.12964l1.18996,-109.82486c0,0 4.80184,-6.08621 2.55738,-6.22047c-2.48625,-0.14872 -2.11767,1.68282 -2.11767,1.68282l0.10343,114.38802l-50.32146,0.07847l0.10485,-105.34124c0,0 -0.19035,-2.13951 -1.8053,-2.16297c-2.01199,-0.02922 -1.98832,2.04221 -1.98832,2.04221l14.14456,104.83755l-25.60944,2.30634c0,0 -0.57212,-117.94268 -0.57212,-119.42827z" fill="#000000" stroke-width="0"/><path d="M230.02079,204.89618c-5.66213,0 -7.34973,-0.4705 -7.34973,-0.4705l-0.08286,-1.2733c0,0 5.25623,0.13066 7.69744,0.13066c4.20542,0 7.61458,-1.35635 7.61458,-0.87378c0,0.48257 -1.95246,2.48691 -7.87944,2.48691z" fill="#000000" stroke-width="0"/><path d="M225.51828,199.65351c0,-0.55682 0.44467,-1.00821 0.99321,-1.00821c0.54854,0 0.99321,0.45139 0.99321,1.00821c0,0.55682 -0.44467,1.00821 -0.99321,1.00821c-0.54854,0 -0.99321,-0.45139 -0.99321,-1.00821z" fill="#000000" stroke-width="0.5"/><path d="M244.83606,202.40927c0,-0.48257 3.40916,0.87378 7.61458,0.87378c2.44121,0 7.69744,-0.13066 7.69744,-0.13066l-0.08286,1.2733c0,0 -1.6876,0.4705 -7.34973,0.4705c-5.92698,0 -7.87944,-2.00433 -7.87944,-2.48691z" fill="#000000" stroke-width="0"/><path d="M256.2247,200.66171c-0.54853,0 -0.99321,-0.45139 -0.99321,-1.00821c0,-0.55682 0.44467,-1.00821 0.99321,-1.00821c0.54853,0 0.99321,0.45139 0.99321,1.00821c0,0.55682 -0.44467,1.00821 -0.99321,1.00821z" fill="#000000" stroke-width="0.5"/><path d="M240.38325,253.12205c0,-0.55681 0.44467,-1.00821 0.99321,-1.00821c0.54854,0 0.99321,0.45139 0.99321,1.00821c0,0.55681 -0.44467,1.00821 -0.99321,1.00821c-0.54854,0 -0.99321,-0.45139 -0.99321,-1.00821z" fill="#000000" stroke-width="0.5"/><path d="M233.25538,257.12676v-49.49596h49.05429c0,0 0,8.20664 0,13.91369c0,4.54346 -12.01056,4.83113 -13.41154,17.37505c-2.0565,18.41323 -1.48572,48.15835 -1.48572,48.15835c0,0 -37.26334,0.2801 -37.98712,-12.46592c-0.29322,-5.16371 3.83008,-17.48521 3.83008,-17.48521z" fill="#4e4140" stroke-width="0"/><path d="M200.4726,261.22229v-16.79355c0,0 13.23883,-11.1353 21.77171,-14.32762c11.86244,-4.43797 42.76487,-9.81678 42.76487,-9.81678c0,0 -28.51026,22.52112 -28.97922,36.94314c-0.69401,21.34281 -0.24621,39.543 -0.24621,39.543c0,0 -23.24256,-2.44718 -26.38525,-17.8528c-1.28966,-6.322 -8.9259,-17.69539 -8.9259,-17.69539z" fill="#773128" stroke-width="0"/><path d="M200.4726,244.42875c0,0 13.23882,-11.1353 21.7717,-14.32762c11.86244,-4.43797 42.76487,-9.81677 42.76487,-9.81677c0,0 -10.43868,8.24583 -18.78719,17.95366c-5.95882,2.21041 -11.85771,4.6182 -17.72069,7.22397c-7.48275,3.32677 -14.917,7.0638 -22.19115,10.8279c-1.98426,1.02678 -3.90753,2.15438 -5.83754,3.26127z" fill-opacity="0.20968" fill="#000000" stroke-width="0"/><path d="M200.74697,194.28892c0,0 5.66523,-1.89765 14.18863,-3.69607c1.2848,-0.27109 5.76516,3.64471 5.58101,7.41723c-0.10389,2.12829 -2.54801,1.8663 -2.54801,1.8663c0,0 11.84758,-11.95732 15.12653,-12.02392c5.38685,-0.10941 2.42046,6.01446 7.21661,8.19525c1.57254,0.71502 -2.60965,1.30961 -2.60965,1.30961c0,0 5.62597,-5.46134 9.99425,-8.11422c1.49502,-0.90793 2.81294,-2.12255 3.65743,-2.04105c17.67884,1.70607 -18.64473,-38.51776 -4.48909,-38.51776c11.45522,0 32.97197,9.64447 34.14191,23.0605c2.56456,29.40847 2.21124,40.12473 2.21124,40.12473c0,0 -11.94647,18.47864 -30.94912,18.94411c-16.48569,0.40383 -52.14378,17.12052 -52.14378,17.12052z" fill="#59220f" stroke-width="0"/><path d="M207.07146,240.04545c-3.40496,0 -1.64406,-37.87755 -1.64406,-40.99877c0,-1.01168 2.88088,-2.28513 7.24793,-3.49538c2.55213,-0.70728 2.10766,11.31091 2.10766,11.31091c0,0 -4.93184,-2.11576 -2.24678,-2.15959c12.35113,-0.20165 18.12575,-12.51959 20.91128,-12.77285c2.98578,-0.27148 -0.45193,13.90567 -0.45193,13.90567c0,0 -3.40107,-2.30645 -1.93551,-2.54188c8.0498,-1.29309 14.5568,-11.65817 15.67437,-11.54239c1.05836,0.10965 1.91682,2.50498 2.59697,5.84202c-0.91642,0.99693 -1.42219,2.41867 -2.60169,3.75057c-6.56198,7.40992 -9.18466,17.16173 -14.02739,25.65931c-0.4573,1.10745 -0.9247,2.21814 -1.39757,3.33158c-10.89948,5.00876 -22.49027,9.7108 -24.23329,9.7108z" fill="#6d4321" stroke-width="0"/><path d="M254.32542,219.20483c0,1.35711 -7.7483,5.51639 -16.78682,9.7845c0.09174,-0.22147 0.18303,-0.44279 0.27383,-0.66397c4.3616,-7.61078 6.5836,-17.35359 12.50327,-23.95097c0.60726,-0.67678 1.48974,-2.22106 2.42264,-3.47959c1.1084,7.20587 1.58709,16.4444 1.58709,18.31003z" fill="#6d4321" stroke-width="0"/><path d="M258.18845,183.30235c-1.68103,-10.93192 -6.35084,-16.2269 -5.58909,-16.95802c2.47955,-2.37986 8.0879,-9.67022 10.72402,-9.67022c0.98239,0 11.33904,4.94443 14.22304,11.97377c1.32765,3.23595 2.07502,9.5564 2.49029,16.30425c-3.64373,-0.08343 -7.29478,-0.05693 -10.9694,0.10179c-3.23226,0.1396 -6.92337,0.30543 -10.27565,1.15226c-0.24773,-0.94461 -0.45081,-1.91282 -0.6032,-2.90383z" fill="#6d4321" stroke-width="0"/><path d="M280.49415,209.9843c0,1.63488 -15.76398,-6.65579 -20.97868,-21.42354c3.14977,-0.78453 6.69605,-0.88117 9.66057,-1.00921c3.68512,-0.15916 7.34576,-0.1831 10.9992,-0.09546c0.52573,10.6176 0.31891,21.47966 0.31891,22.5282z" fill="#6d4321" stroke-width="0"/><path d="M278.49154,213.96179c-0.41464,1.79722 -9.99189,11.86255 -18.75519,12.45474c-2.03857,0.13775 0.05541,-11.30297 -4.76602,-24.26186c-0.35577,-0.95623 -0.85381,-2.17443 -1.41004,-3.48388c1.10883,-0.65725 2.1836,-1.38623 3.38504,-1.8172c1.00115,-0.35913 2.024,-0.66751 3.06358,-0.93548c5.72351,9.85799 19.18112,15.01614 18.48263,18.04369z" fill="#6d4321" stroke-width="0"/><path d="M257.36686,187.757c0.17622,0.89187 0.10287,2.03657 0.35719,2.85367c0.28245,0.90749 0.60977,1.77019 0.97463,2.59107c-0.94315,0.25565 -1.87255,0.54547 -2.78468,0.87705c-1.24819,0.45374 -2.3473,1.1974 -3.48825,1.8664c-0.96697,-2.20631 -1.96146,-4.39756 -2.6229,-5.84182c-0.47342,-1.03372 1.74561,-0.52302 4.07036,-0.51659c1.4282,0.00394 3.3677,-2.46719 3.49364,-1.82977z" fill="#6d4321" stroke-width="0"/><path d="M270.12478,199.3429c-4.07502,-4.12038 -7.47699,-8.62085 -7.47699,-9.25238c0,-1.27106 12.2207,-1.18713 14.51543,-1.18713c1.31451,0 1.74276,5.03664 1.86876,9.72049c-2.56342,0.47741 -5.06273,1.16655 -7.46155,2.1398c-0.48525,-0.46391 -0.96992,-0.93975 -1.44565,-1.42078z" fill="#8d6e47" stroke-width="0"/><path d="M279.05191,206.27874c0,0.73565 -2.49876,-1.02855 -5.44046,-3.6354c1.76862,-0.64782 3.59537,-1.14227 5.46301,-1.51438c0.01962,2.46039 -0.02255,4.49676 -0.02255,5.14978z" fill="#8d6e47" stroke-width="0"/><path d="M278.08056,181.78057c0,1.49008 -14.49516,1.5109 -16.13425,1.5109c-0.71077,0 -1.43238,-3.72868 -2.63301,-7.0958c-0.35978,-1.00898 -0.81637,-1.97213 -1.30642,-2.86756c4.94274,-2.63729 10.07229,-4.46652 15.28665,-6.05004c0.37324,0.47591 0.7311,0.97749 1.0684,1.50547c3.22488,5.04791 3.71862,12.33943 3.71862,12.99703z" fill="#8d6e47" stroke-width="0"/><path d="M254.33794,167.42702c0,-1.49008 6.29314,-7.5545 7.93223,-7.5545c0.72309,0 5.29822,1.57173 9.20115,5.37924c-5.02925,1.56225 -9.97696,3.37592 -14.75928,5.93536c-1.25241,-1.90842 -2.3741,-3.2759 -2.3741,-3.76011z" fill="#8d6e47" stroke-width="0"/><path d="M212.71287,204.26126c0,0.11055 -0.24191,2.80075 1.56358,5.08743c0.52122,0.66013 8.81646,-2.83479 15.6466,-3.9758c4.28849,-0.71641 7.02878,3.95314 6.31277,5.1398c-4.10121,6.79697 -5.99594,17.32116 -7.74619,18.38648c-4.73942,2.88472 -12.18237,4.8969 -16.60744,5.91598c-2.2038,0.50753 -4.53524,-7.04064 -4.97965,-14.86616c-0.42677,-7.51488 0.33708,-17.32341 0.33708,-17.96649c0,-1.31274 3.92609,-4.34144 4.87066,-3.14699c0.77761,0.98333 0.60259,4.83302 0.60259,5.42576z" fill="#8d6e47" stroke-width="0"/><path d="M245.68186,233.98177c0,0 -7.80628,8.7452 -10.55435,17.2222c-0.7561,2.33234 -1.36949,4.8265 -1.86033,7.39497c-7.4361,3.60984 -14.4408,7.87407 -21.33185,12.51901c-0.48096,0.32419 -1.03718,0.75364 -1.64394,1.23653c-5.39323,-11.69882 -8.19466,-15.56417 -8.19466,-17.56886c0,-2.38391 3.22456,-8.37028 28.37337,-15.07218c8.50003,-2.26517 15.21175,-5.73167 15.21175,-5.73167z" fill="#894939" stroke-width="0"/><path d="M232.86829,291.41265c0.32718,2.93019 -7.79263,0.5015 -12.59684,-2.62317c-1.15396,-0.75054 -5.80471,-5.844 -5.85297,-5.95678c-0.80471,-1.88037 -1.56864,-3.61753 -2.29137,-5.22355c0.69573,-0.53372 1.36432,-1.03526 1.99735,-1.46195c1.53372,-1.0338 3.07297,-2.04854 4.62142,-3.04108c0.17328,0.30977 0.43922,0.48707 0.43922,0.48707c4.14744,2.76251 8.55931,5.56893 13.17313,7.72896c0.00883,3.89815 0.20863,7.39088 0.51006,10.09051z" fill="#894939" stroke-width="0"/><path d="M234.04379,262.22373c-0.40092,4.73124 -0.42414,9.56681 -0.22,14.00839c-4.12578,-1.69802 -8.12357,-3.8814 -11.90312,-6.0483c3.93047,-2.83037 7.94772,-5.50145 12.12312,-7.96009z" fill="#894939" stroke-width="0"/><path d="M265.33561,265.05679c-0.01111,0.12859 -0.02086,0.25883 -0.02934,0.3906c-5.53443,1.20128 -11.00296,2.6007 -16.32987,4.81907c-3.42848,1.42778 -6.7224,2.77621 -9.587,4.89808c-0.10388,-0.27949 -0.18284,-0.57068 -0.23488,-0.87408c-1.4965,-8.72641 0.01755,-15.99847 0.01755,-19.6274c0,-6.38361 15.52064,-22.66909 20.51866,-22.66909c4.99802,0 7.07849,16.46468 5.64487,33.06282z" fill="#5b4c4a" stroke-width="0"/><path d="M262.89351,284.16096c-1.84805,0 -16.71041,0.31867 -21.78564,-4.59522c2.71777,-2.0539 5.92593,-3.29224 9.1656,-4.64284c5.00383,-2.08606 10.13786,-3.42662 15.33362,-4.56629c0.15066,6.18361 1.56573,13.80434 -2.71359,13.80434z" fill="#5b4c4a" stroke-width="0"/></g><path d="" fill-opacity="0.00806" fill="#000000" stroke="#000000" stroke-width="0" stroke-linecap="butt"/><g stroke="none" stroke-linecap="butt"><path d="" fill="#000000" stroke-width="0"/><path d="" fill="#ffffff" stroke-width="0"/><g fill="#000000"><path d="" stroke-width="0"/><path d="" stroke-width="0.5"/></g><g data-paper-data="{&quot;index&quot;:null}" fill="#000000"><path d="" stroke-width="0"/><path d="" stroke-width="0.5"/></g><path d="" fill="#000000" stroke-width="0.5"/><path d="" fill="#000000" stroke-width="0"/><path d="" fill="#000000" stroke-width="0"/></g><path d="" fill="#000000" stroke="none" stroke-width="NaN" stroke-linecap="butt"/><g><path d="" fill="#000000" stroke="none" stroke-width="0" stroke-linecap="butt"/><path d="" fill="#ffffff" stroke="none" stroke-width="0" stroke-linecap="butt"/><path d="" fill="none" stroke="#000000" stroke-width="0.5" stroke-linecap="round"/></g><g data-paper-data="{&quot;index&quot;:null}"><path d="" fill="#000000" stroke="none" stroke-width="0" stroke-linecap="butt"/><path d="" fill="#ffffff" stroke="none" stroke-width="0" stroke-linecap="butt"/><path d="" fill="none" stroke="#000000" stroke-width="0.5" stroke-linecap="round"/></g><path d="" fill="#000000" stroke="none" stroke-width="0" stroke-linecap="butt"/><path d="" fill="#ffffff" stroke="none" stroke-width="0" stroke-linecap="butt"/><g stroke="none" stroke-width="0" stroke-linecap="butt"><path d="" fill="#000000"/><path d="" fill="#ffffff"/></g><g stroke="none" stroke-width="0" stroke-linecap="butt"><path d="" fill="#000000"/><path d="" fill="#ffffff"/></g><g stroke="none" stroke-linecap="butt"><path d="" fill="#000000" stroke-width="NaN"/><path d="" fill="#ffffff" stroke-width="0"/><path d="" fill="#ffffff" stroke-width="0"/></g><path d="" fill="#000000" stroke="none" stroke-width="0" stroke-linecap="butt"/><path d="" data-paper-data="{&quot;index&quot;:null}" fill="#000000" stroke="none" stroke-width="0" stroke-linecap="butt"/><path d="" fill="#000000" stroke="none" stroke-width="0" stroke-linecap="butt"/><path d="" fill="#000000" stroke="none" stroke-width="0" stroke-linecap="butt"/><g stroke="none" stroke-width="0" stroke-linecap="butt"><path d="" fill="#000000"/><path d="" fill="#ffffff"/><path d="" fill="#ffffff"/></g><path d="" fill="#000000" stroke="none" stroke-width="0" stroke-linecap="butt"/><g stroke="none" stroke-width="0" stroke-linecap="butt"><path d="" fill="#000000"/><path d="" fill="#ffffff"/></g><g stroke="none" stroke-width="0" stroke-linecap="butt"><path d="" data-paper-data="{&quot;index&quot;:null}" fill="#000000"/><path d="" data-paper-data="{&quot;index&quot;:null}" fill="#ffffff"/></g><path d="M193.38461,125.05267c0,0 4.75839,-16.14122 6.10536,-19.4651c2.88904,-7.12918 2.85124,-2.02491 2.85124,-2.02491c0,0 0.06681,4.47022 -0.91588,4.55218c-3.53691,1.23531 -8.1711,-0.81255 -8.1711,-0.81255l9.86468,-10.22804c0,0 0.09444,-6.71745 2.22397,-14.5775c0.4567,-1.68568 4.43111,2.55587 3.08595,3.14942c-1.59654,0.70448 -6.59746,-1.22937 -6.59746,-1.22937c0,0 2.10617,-2.34481 3.9072,-5.26995c2.8198,-4.57979 5.86355,-10.58214 6.35675,-11.23515c6.74693,-8.93313 20.64648,-12.51508 30.3551,-12.44472c4.50207,0.03263 10.63625,0.9121 16.30805,2.86873c2.5205,0.86951 15.87364,6.38252 15.87364,6.38252c0,0 -2.80921,5.60781 -3.71774,5.66051c-1.22902,0.07129 -0.57821,-5.31217 0.22546,-4.32992c2.71001,3.31219 4.83015,5.36337 5.96105,8.17081c0.34999,0.86884 3.01657,6.27244 3.01657,6.27244c0,0 -3.46704,1.09455 -3.82536,1.04933c-0.55295,-0.06979 1.8377,-1.77321 1.94603,-1.25292c0.60302,2.89613 0.82845,5.7519 1.19122,8.8086c0.17542,1.47806 5.47507,11.53031 5.47507,11.53031c0,0 -5.34843,1.03339 -6.03157,0.93461c-0.89587,-0.12953 2.09669,-4.04128 2.37699,-3.09257c3.72078,12.59341 4.63557,17.51359 4.63557,17.51359c0,0 -6.01663,0.21709 -8.52452,-1.08171c-3.35821,-2.26684 2.44561,-5.09349 2.44561,-5.09349c0,0 1.96497,-0.84482 2.72723,2.70538c0.99489,4.63366 1.52521,22.88106 1.52521,22.88106c0,0 -2.03268,0.63887 -3.62432,0.82116c-2.10329,0.24088 -3.87734,1.43195 -6.06915,1.25541c-1.50194,-0.12098 4.58229,-3.25768 3.73259,-1.66098c-1.87425,3.52196 -1.41626,13.10831 -1.41626,13.10831c0,0 -8.01632,-2.64435 -8.6561,-4.76788c-0.36352,-1.20659 3.68457,0.07169 3.68457,0.07169c0,0 -0.27736,1.51046 -1.52332,3.13635c-1.38133,1.80253 -3.94985,3.49671 -3.94985,3.49671l0.00318,-3.58884c0,0 -4.58502,5.92133 -10.91754,9.01637c-6.10567,2.98416 -11.80358,2.51788 -14.49123,2.46803c-14.12802,-0.26204 -24.08852,-10.83115 -24.08852,-10.83115l-4.95521,5.05922c0,0 -4.08388,-12.86699 -6.15601,-17.95195c-3.07463,-7.54506 0.51426,-6.67024 0.51426,-6.67024c0,0 7.14532,2.62443 4.13966,3.31345c-1.64683,4.18572 -9.8093,5.92962 -9.8093,5.92962c0,0 -2.70611,-13.99854 -1.23206,-15.40395c1.38725,-1.32265 2.33078,1.08549 2.33078,1.08549c0,0 -3.21775,1.31904 -4.68875,1.66038c-2.24208,0.52027 -3.5017,0.11114 -3.5017,0.11114z" fill="#000000" stroke="none" stroke-width="NaN" stroke-linecap="butt"/><path d="M210.47888,105.78197c0.96521,-0.18364 5.78639,4.94033 6.72949,9.89722c0.94309,4.95689 -0.15061,10.72809 -0.15061,10.72809c0,0 -6.46652,-3.53164 -7.66724,-8.4325c-3.07712,-12.5596 0.12316,-12.00917 1.08836,-12.19281z" fill="#000000" stroke="none" stroke-width="0" stroke-linecap="butt"/><path d="M214.7801,121.50648c0,0 -3.02608,-5.45514 -3.46106,-7.54108c-0.69361,-3.32613 1.47037,-3.38348 1.47037,-3.38348" fill="none" stroke="#000000" stroke-width="0.5" stroke-linecap="round"/><path d="M274.23609,117.84907c-1.20072,4.90086 -7.66724,8.4325 -7.66724,8.4325c0,0 -1.0937,-5.77121 -0.15061,-10.7281c0.9431,-4.95689 5.76428,-10.08085 6.72949,-9.89722c0.96521,0.18363 4.16548,-0.36679 1.08836,12.19281z" fill="#000000" stroke="none" stroke-width="0" stroke-linecap="butt"/><path d="M270.83718,110.45621c0,0 2.16397,0.05735 1.47037,3.38348c-0.43498,2.08594 -3.46106,7.54108 -3.46106,7.54108" fill="none" stroke="#000000" stroke-width="0.5" stroke-linecap="round"/><path d="M217.45345,142.83638c-1.12791,-6.71582 -0.20637,-6.94188 -1.0642,-13.44379c-0.47362,-3.58977 -2.15797,-7.18909 -2.73202,-11.13223c-1.20896,-8.30433 -1.27196,-25.65977 -0.47554,-29.40025c4.41933,-20.75585 15.3863,-24.96608 29.85603,-25.48425c20.77576,-0.74399 24.79696,12.48506 27.42961,23.79025c1.84023,7.90235 1.22737,18.92724 -0.34916,28.57116c-0.96559,5.90663 -2.47529,10.80823 -3.46814,15.58687c-1.22544,5.89815 -0.7524,7.76045 -1.86263,12.66938c-1.15349,5.10023 -6.83176,10.81045 -11.83191,15.83737c-4.57165,4.59612 -7.90818,8.33063 -12.38271,8.22359c-5.04445,-0.12068 -8.96195,-6.22631 -14.50155,-12.44391c-4.38889,-4.92605 -8.03319,-9.29321 -8.61781,-12.77419z" fill="#000000" stroke="none" stroke-width="0" stroke-linecap="butt"/><path d="M217.25887,124.01487c-0.94553,-5.09249 -3.54204,-4.25562 -2.79146,-22.70284c0.35027,-8.60857 1.58748,-16.65181 3.61898,-20.76639c6.59974,-13.36702 19.1364,-15.03633 24.02784,-15.03633c4.16055,0 17.20519,1.95486 23.80596,13.20532c1.38921,2.3678 -11.09274,9.88658 -10.60406,13.89373c0.50548,4.1449 13.95648,4.79461 13.89595,8.14889c-0.10696,5.92699 0.23361,11.79227 -1.04001,17.97375c-0.62848,3.05035 -1.86346,6.18514 -2.54274,8.95491c-1.44491,5.89168 -1.386,9.63665 -2.01514,12.75206c-1.44877,7.17412 -1.89749,7.23551 -4.27323,10.21882c-2.5746,3.23301 -6.22007,6.15229 -9.11253,8.91074c-2.62204,2.50056 -5.47801,6.21315 -8.77908,6.21315c-4.10432,0 -6.9048,-3.78999 -10.07829,-7.4154c-4.79276,-5.47527 -11.46201,-7.91572 -13.04194,-17.80658c-0.63652,-3.98482 0.06119,-10.45004 -1.07025,-16.54383z" fill="#ffffff" stroke="none" stroke-width="0" stroke-linecap="butt"/><path d="M228.24276,104.92467c5.64136,0 10.21459,4.47197 10.21459,9.98843c0,5.51646 -4.7706,9.74171 -10.41197,9.74171c-5.64137,0 -10.31875,-4.22525 -10.31875,-9.74171c0,-5.51645 4.87476,-9.98843 10.51613,-9.98843z" fill="#000000" stroke="none" stroke-width="0" stroke-linecap="butt"/><g stroke="none" stroke-width="0" stroke-linecap="butt"><g><path d="M225.11653,144.59364c1.93756,-0.46311 5.16632,-2.16517 7.61197,-2.39684c2.42638,-0.22983 9.82824,2.51459 9.82824,2.51459c0,0 5.18555,-2.27569 7.24144,-2.12758c3.35597,0.24177 12.04538,5.50387 12.04538,5.50387c0,0 -0.85574,6.85392 -7.67526,10.72824c-2.86625,1.62838 -9.80567,2.84171 -12.70194,2.52738c-7.97903,-0.86596 -14.46628,-2.22027 -17.88175,-5.68792c-4.33246,-4.39862 -3.7647,-9.61064 -3.7647,-9.61064c0,0 1.84717,-0.62663 5.29663,-1.45111z" fill="#000000"/><path d="M242.53695,145.98259c0,0 4.95391,-1.76581 6.77017,-1.64346c3.92175,0.26419 7.24288,2.43156 7.24288,2.43156c0,0 -4.16079,-0.05907 -7.40426,0.30668c-3.06688,0.34584 -5.19834,1.1195 -6.11796,1.05754c-0.83314,-0.05613 -3.6829,-0.89335 -6.80442,-1.3343c-4.6896,-0.66245 -9.9926,-1.00009 -9.9926,-1.00009c0,0 4.48749,-1.50936 8.30642,-1.63645c2.0485,-0.06817 7.99978,1.8185 7.99978,1.8185z" fill="#ffffff"/><path d="M234.25626,147.96802c3.42076,0.70245 8.48088,2.18996 8.48088,2.18996c0,0 6.45982,-1.46289 9.58255,-1.7273c2.47185,-0.2093 7.58402,0.34272 7.58402,0.34272c0,0 -0.53714,4.58471 -3.57624,6.70381c-4.05537,2.82772 -11.23082,3.3876 -14.64786,3.28629c-2.96739,-0.08797 -11.21515,-1.08481 -15.01723,-3.55701c-4.60493,-2.99423 -4.53949,-7.55318 -4.53949,-7.55318c0,0 8.44394,-0.44293 12.13338,0.31471z" fill="#ffffff"/></g><path d="M229.70199,146.78034l3.00805,0.66835c0,0 -0.31901,1.52898 -0.24572,2.96869c0.07117,1.398 0.17484,2.63331 -0.57116,2.6573c-0.44609,0.01435 -0.09144,-1.75926 -0.60479,-3.29403c-0.55258,-1.65209 -1.58639,-3.00032 -1.58639,-3.00032z" fill="#000000"/></g><path d="M228.24276,105.17904c4.97522,0 8.78866,3.85659 8.78866,8.8032c0,4.94661 -4.01083,9.08774 -8.98605,9.08774c-4.97523,0 -8.81106,-3.98769 -8.81106,-8.9343c0,-4.94662 4.03322,-8.95664 9.00844,-8.95664z" fill="#ffffff" stroke="none" stroke-width="0" stroke-linecap="butt"/><path d="M254.80275,104.94929c5.64136,0 10.21459,4.47198 10.21459,9.98844c0,5.51645 -4.72127,9.64301 -10.36263,9.64301c-3.16285,0 -6.23667,-1.06026 -8.11031,-3.26759c-1.46826,-1.72975 -1.95625,-3.95178 -1.95625,-6.37542c0,-5.51646 4.57322,-9.98844 10.21459,-9.98844z" fill="#000000" stroke="none" stroke-width="0" stroke-linecap="butt"/><path d="M254.80275,105.20367c4.97523,0 8.70691,4.08541 8.70691,9.03202c0,4.94661 -3.87973,8.68387 -8.85495,8.68387c-4.97523,0 -8.8604,-3.81265 -8.8604,-8.75926c0,-4.94661 4.03322,-8.95663 9.00844,-8.95663z" fill="#ffffff" stroke="none" stroke-width="0" stroke-linecap="butt"/><path d="M213.28843,108.2559l0.13102,-1.63769l7.19167,-1.18423l0.32653,-1.46623c0,0 3.68245,-1.72538 7.2562,-2.03587c3.72054,-0.32324 9.00496,-0.09575 9.00496,-0.09575l0.32754,4.71657c0,0 -4.80797,-1.2906 -8.17678,-1.07798c-6.17314,0.38961 -6.13035,1.25866 -10.09703,1.94554c-3.96668,0.68688 -5.96411,0.83565 -5.96411,0.83565z" fill="#000000" stroke="none" stroke-width="0" stroke-linecap="butt"/><path d="M257.42143,101.93738c-6.5361,-0.02665 -11.93017,2.50832 -11.93017,2.50832l-0.26203,-4.42239c0,0 5.28442,-1.73418 9.39801,-1.86949c4.11358,-0.13531 7.12519,0.66021 7.12519,0.66021l0.19551,1.20419l7.3882,2.16685l0.13101,1.6377c0,0 -5.86035,-1.86016 -12.04572,-1.88538z" data-paper-data="{&quot;index&quot;:null}" fill="#000000" stroke="none" stroke-width="0" stroke-linecap="butt"/><path d="M227.71921,109.96477c2.71342,0 4.91309,2.23007 4.91309,4.98099c0,2.75092 -2.19966,4.98098 -4.91309,4.98098c-2.71342,0 -4.91309,-2.23006 -4.91309,-4.98098c0,-2.75092 2.19966,-4.98099 4.91309,-4.98099z" fill="#000000" stroke="none" stroke-width="0" stroke-linecap="butt"/><path d="M254.8717,110.18389c2.71342,0 4.91309,2.23006 4.91309,4.98098c0,2.75092 -2.19966,4.98098 -4.91309,4.98098c-2.71342,0 -4.91309,-2.23006 -4.91309,-4.98098c0,-2.75091 2.19966,-4.98098 4.91309,-4.98098z" fill="#000000" stroke="none" stroke-width="0" stroke-linecap="butt"/><path d="M238.90966,136.13375c0,0 -0.06312,-8.68679 -0.28083,-12.38791c-0.17487,-2.97289 -0.92532,-8.11666 -0.92532,-8.11666c0,0 -0.33218,-1.57308 0.02454,-1.56279c1.13657,0.03279 7.81544,1.78895 7.81544,1.78895l-0.37692,20.27841c0,0 0.82184,1.93768 0.72844,3.69896c-0.06976,1.31553 -0.97469,4.70292 -1.02626,5.67536c-0.11348,2.13998 -0.40577,3.89334 -0.40577,3.89334l-4.14036,-0.01448c0,0 -0.12488,-2.01528 -0.87252,-4.2695c-0.71961,-2.16969 -2.11593,-4.55553 -2.18508,-5.58924c-0.19994,-2.9885 1.64464,-3.39445 1.64464,-3.39445z" fill="#000000" stroke="none" stroke-width="0" stroke-linecap="butt"/><path d="M241.27169,148.41169c0,0 -0.2909,-3.80356 -0.49735,-8.24071c-0.20504,-4.40659 -0.32473,-9.70108 -0.5883,-13.30096c-0.42508,-5.80554 -1.77895,-15.81414 -1.77895,-15.81414l6.10614,1.88461l-0.75385,35.43068z" fill="#ffffff" stroke="none" stroke-width="0" stroke-linecap="butt"/><path d="M238.85415,137.31176c0.34401,0 0.62288,4.77542 0.62288,4.77542c0,0 -1.24576,-1.59275 -1.24576,-2.7251c0,-1.13236 0.27887,-2.05032 0.62288,-2.05032z" fill="#ffffff" stroke="none" stroke-width="0" stroke-linecap="butt"/><path d="M210.60209,99.49844v-21.15411c0,0 21.21081,-18.67174 31.8391,-18.67174c9.85589,0 29.78844,18.67174 29.78844,18.67174l0.9522,14.8825c0,0 -4.20052,1.55768 -7.84691,3.93239c-9.67233,6.2991 -25.84904,-1.22724 -25.84904,-1.22724c0,0 2.88671,-3.50484 4.29889,-5.2734c0.74057,-0.92746 1.4281,-2.38433 1.4281,-2.38433c0,0 -9.19557,5.48816 -17.51331,7.89872c-11.3727,3.29591 -17.09747,3.32547 -17.09747,3.32547z" fill="#000000" stroke="none" stroke-width="0" stroke-linecap="butt"/><path d="M217.54648,115.50544c0,0 -0.16627,-2.22288 0.81062,-4.59656c1.16899,-2.84044 3.93233,-5.91812 9.99819,-5.95021c4.4123,-0.02334 6.77688,1.48178 8.31843,3.36171c2.53146,3.08714 2.42486,7.54013 2.42486,7.54013z" fill="#000000" stroke="none" stroke-width="0" stroke-linecap="butt"/><path d="M219.11865,113.93325c0,0 0.38648,-8.1425 9.36763,-8.12298c3.32151,0.00722 5.24312,1.47836 6.59481,2.79979c2.45356,2.39865 2.57629,5.32319 2.57629,5.32319z" fill="#ffffff" stroke="none" stroke-width="0" stroke-linecap="butt"/><path d="M244.50744,115.52685c0,0 -0.53134,-3.2454 0.9459,-6.12374c1.32927,-2.59004 4.34124,-4.84529 9.8629,-4.81608c11.13492,0.0589 11.0941,11.29489 11.0941,11.29489z" data-paper-data="{&quot;index&quot;:null}" fill="#000000" stroke="none" stroke-width="0" stroke-linecap="butt"/><path d="M245.68661,113.69262c0,0 0.21519,-7.7079 9.56586,-7.72822c8.98115,-0.01952 9.56245,7.99026 9.56245,7.99026z" data-paper-data="{&quot;index&quot;:null}" fill="#ffffff" stroke="none" stroke-width="0" stroke-linecap="butt"/><path d="M219.97816,146.11387c0,0 -3.84241,-0.9075 -4.50273,-3.77711c-1.80704,-7.853 -6.97795,-46.11558 -6.97795,-46.11558h67.04423c0,0 -9.37935,37.65769 -10.83969,46.01577c-0.80926,4.63168 -3.30604,6.10066 -3.30604,6.10066c0,0 -0.07161,-3.40046 0.03959,-8.22327c0.06581,-2.85418 -2.85701,-5.27188 -5.30576,-5.72828c-7.26249,-1.35359 -8.06043,-6.44575 -13.15392,-6.44575c-5.28455,0 -10.63809,5.12652 -17.85551,5.96129c-4.06718,0.47041 -5.24649,3.96931 -5.46804,7.10196c-0.19026,2.6902 0.32581,5.1103 0.32581,5.1103z" fill-opacity="0.50806" fill="#000000" stroke="none" stroke-width="0" stroke-linecap="butt"/><path d="M215.02768,142.06327l-6.53018,-50.34273h67.04423l-11.29545,50.16624c0,0 -1.72847,-8.42953 -7.59467,-9.52287c-7.26249,-1.35359 -8.06043,-6.18486 -13.15392,-6.18486c-5.28455,0 -10.89899,4.99608 -18.11641,5.83085c-7.55994,0.87438 -10.35361,10.05337 -10.35361,10.05337z" fill="#000000" stroke="none" stroke-width="0" stroke-linecap="butt"/><path d="M202.5095,97.21114c0,0 -0.92691,-1.70389 -0.71325,-3.57299c0.30193,-2.6412 1.80223,-3.44433 1.80223,-3.44433c0,0 9.85364,0.01979 39.38263,-2.58876c35.59891,-3.14476 35.4282,-6.42783 35.4282,-6.42783c0,0 1.59816,1.01063 1.75229,2.85263c0.20073,2.3989 -0.84418,3.52132 -0.84418,3.52132c0,0 -6.64511,3.10679 -35.56952,6.47791c-29.5331,3.44205 -41.2384,3.18206 -41.2384,3.18206z" fill="#59220f" stroke="#000000" stroke-width="NaN" stroke-linecap="butt"/><path d="M205.79738,96.18321c-1.40379,0.06918 -2.54487,-0.95947 -2.54487,-2.14305c0,-1.18358 1.14007,-2.09883 2.54487,-2.14305c10.77912,-0.33926 26.68791,-1.84806 38.85791,-3.14156c0.24192,1.01129 0.50632,2.01617 0.79101,3.01507c-8.74104,1.75863 -21.50985,3.51868 -39.64892,4.41258z" fill="#6d4321" stroke="none" stroke-width="0" stroke-linecap="butt"/><path d="M262.1622,86.77137c0,0 -3.7184,2.16796 -14.27683,4.48659c-0.26295,-0.91817 -0.50796,-1.84149 -0.73316,-2.77031c8.74232,-0.94675 15.01,-1.71627 15.01,-1.71627z" fill="#6d4321" stroke="none" stroke-width="0" stroke-linecap="butt"/><path d="M279.13518,85.18609c0,0.53933 0.94872,2.0256 -10.90062,4.19166c-6.28244,1.14843 -13.43219,1.6517 -13.43219,1.6517c0,0 20.54212,-7.84929 21.89081,-7.84929c1.34868,0 2.442,0.89809 2.442,2.00593z" fill="#6d4321" stroke="none" stroke-width="0" stroke-linecap="butt"/><path d="M228.24276,104.92466c5.64136,0 10.21459,4.47197 10.21459,9.98843c0,5.51646 -4.7706,9.74171 -10.41197,9.74171c-5.64137,0 -10.31875,-4.22525 -10.31875,-9.74171c0,-5.51645 4.87476,-9.98843 10.51613,-9.98843z" fill="#000000" stroke="none" stroke-width="0" stroke-linecap="butt"/><path d="M228.24276,105.17903c4.97522,0 8.78866,3.85659 8.78866,8.8032c0,4.94661 -4.01083,9.08774 -8.98605,9.08774c-4.97523,0 -8.81106,-3.98769 -8.81106,-8.9343c0,-4.94662 4.03322,-8.95664 9.00844,-8.95664z" fill="#ffffff" stroke="none" stroke-width="0" stroke-linecap="butt"/><path d="M217.54639,115.50543c0,0 -0.16627,-2.22288 0.81062,-4.59656c1.16899,-2.84044 3.93233,-5.91812 9.99819,-5.95021c4.4123,-0.02334 6.77688,1.48178 8.31843,3.36171c2.53146,3.08714 2.42486,7.54013 2.42486,7.54013c0,0 -4.68486,-5.03958 -10.4228,-5.14045c-7.11355,-0.12505 -11.1293,4.78538 -11.1293,4.78538z" fill="#000000" stroke="none" stroke-width="0" stroke-linecap="butt"/><path d="M228.38441,120.294c5.73794,-0.10087 10.4228,-5.14045 10.4228,-5.14045c0,0 0.1066,4.45299 -2.42486,7.54013c-1.54155,1.87993 -3.90613,3.38505 -8.31843,3.36171c-6.06586,-0.03209 -8.8292,-3.10977 -9.99819,-5.95021c-0.97689,-2.37368 -0.81062,-4.59656 -0.81062,-4.59656c0,0 4.01575,4.91043 11.1293,4.78538z" fill="#000000" stroke="none" stroke-width="0" stroke-linecap="butt"/><path d="M218.7193,116.23956c0,0 -0.14721,-1.88845 0.71768,-3.90499c1.03497,-2.41308 3.4815,-5.02772 8.85193,-5.05498c3.90644,-0.01983 5.99992,1.25884 7.36474,2.85593c2.24124,2.62267 2.14686,6.40569 2.14686,6.40569c0,0 -4.14776,-4.28136 -9.22786,-4.36705c-6.29801,-0.10623 -9.85336,4.0654 -9.85336,4.0654z" fill-opacity="0.20968" fill="#000000" stroke="none" stroke-width="0" stroke-linecap="butt"/><path d="M228.57272,119.58817c5.08011,-0.0857 9.22786,-4.36705 9.22786,-4.36705c0,0 0.09438,3.78302 -2.14686,6.40569c-1.36482,1.59709 -3.4583,2.87576 -7.36474,2.85593c-5.37043,-0.02726 -7.81696,-2.6419 -8.85193,-5.05498c-0.86489,-2.01655 -0.71768,-3.90499 -0.71768,-3.90499c0,0 3.55535,4.17164 9.85336,4.06541z" fill-opacity="0.20968" fill="#000000" stroke="none" stroke-width="0" stroke-linecap="butt"/><path d="M229.27722,113.58013c0.52318,1.02416 0.73915,1.27593 0.32573,2.26359c-0.48041,1.14769 -1.65472,4.90738 -1.65472,4.90738c0,0 -0.95192,-3.63492 -1.34692,-4.54088c-0.49092,-1.12595 -0.17902,-1.46803 0.33093,-2.47328c0.33424,-0.65888 1.17025,-3.04411 1.17025,-3.04411c0,0 0.6405,1.84149 1.17473,2.8873z" fill="#6d4321" stroke="#59220f" stroke-width="1.5" stroke-linecap="butt"/><path d="M217.54639,115.50543c0,0 -0.16627,-2.22288 0.81062,-4.59656c1.16899,-2.84044 3.93233,-5.91812 9.99819,-5.95021c4.4123,-0.02334 6.77688,1.48178 8.31843,3.36171c2.53146,3.08714 2.42486,7.54013 2.42486,7.54013c0,0 -4.68486,-5.03958 -10.4228,-5.14045c-7.11355,-0.12505 -11.1293,4.78538 -11.1293,4.78538z" fill="#000000" stroke="none" stroke-width="0" stroke-linecap="butt"/><path d="M228.38441,120.294c5.73794,-0.10087 10.4228,-5.14045 10.4228,-5.14045c0,0 0.1066,4.45299 -2.42486,7.54013c-1.54155,1.87993 -3.90613,3.38505 -8.31843,3.36171c-6.06586,-0.03209 -8.8292,-3.10977 -9.99819,-5.95021c-0.97689,-2.37368 -0.81062,-4.59656 -0.81062,-4.59656c0,0 4.01575,4.91043 11.1293,4.78538z" fill="#000000" stroke="none" stroke-width="0" stroke-linecap="butt"/><path d="M218.7193,116.23956c0,0 -0.14721,-1.88845 0.71768,-3.90499c1.03497,-2.41308 3.4815,-5.02772 8.85193,-5.05498c3.90644,-0.01983 5.99992,1.25884 7.36474,2.85593c2.24124,2.62267 2.14686,6.40569 2.14686,6.40569c0,0 -4.14776,-4.28136 -9.22786,-4.36705c-6.29801,-0.10623 -9.85336,4.0654 -9.85336,4.0654z" fill-opacity="0.20968" fill="#000000" stroke="none" stroke-width="0" stroke-linecap="butt"/><path d="M228.76023,118.27558c5.08011,-0.0857 9.22786,-4.36705 9.22786,-4.36705c0,0 0.09438,3.78302 -2.14686,6.40569c-1.36482,1.59709 -3.4583,2.87576 -7.36474,2.85593c-5.37043,-0.02726 -7.81696,-2.6419 -8.85193,-5.05498c-0.86489,-2.01655 -0.71768,-3.90499 -0.71768,-3.90499c0,0 3.55535,4.17164 9.85336,4.06541z" fill-opacity="0.20968" fill="#000000" stroke="none" stroke-width="0" stroke-linecap="butt"/><g stroke="none" stroke-width="0" stroke-linecap="butt"><g><path d="M222.95389,355.4145c1.96014,-0.53709 5.22653,-2.51104 7.70069,-2.77972c2.45466,-0.26654 9.94279,2.91628 9.94279,2.91628c0,0 5.24599,-2.63921 7.32584,-2.46744c3.39509,0.28039 13.60319,6.38307 13.60319,6.38307c0,0 0.22461,6.96749 -6.67439,11.4607c-2.89966,1.8885 -12.42769,4.27694 -15.35772,3.9124c-8.07203,-1.00429 -14.63488,-2.57494 -18.09016,-6.59652c-4.38295,-5.10127 -3.80858,-11.14586 -3.80858,-11.14586c0,0 1.8687,-0.72673 5.35836,-1.68291z" fill="#000000"/><path d="M247.42642,355.11934c3.96746,0.30639 7.87246,3.36514 7.87246,3.36514c0,0 -3.88219,-0.17754 -7.16346,0.24664c-3.10263,0.40108 -6.13118,0.8622 -7.06152,0.79035c-0.84285,-0.0651 -3.72582,-1.03606 -6.88373,-1.54744c-4.74426,-0.76827 -10.98132,-1.15985 -10.98132,-1.15985c0,0 4.75785,-2.1866 8.6213,-2.33399c2.07237,-0.07906 8.74721,2.54512 8.74721,2.54512c0,0 5.01164,-2.04786 6.84907,-1.90597z" fill="#ffffff"/><path d="M240.77987,361.97675c0,0 6.53511,-1.36948 9.69424,-1.67613c2.50066,-0.24273 8.32661,-0.03866 8.32661,-0.03866c0,0 -0.5434,5.31708 -3.61792,7.77469c-4.10264,3.27943 -12.01591,3.92874 -15.47277,3.81125c-3.00197,-0.10202 -11.34586,-1.2581 -15.19226,-4.12522c-4.6586,-3.47253 -4.5924,-8.75974 -4.5924,-8.75974c0,0 7.75233,0.03001 11.37075,0.55293c3.30457,0.47756 9.48376,2.46087 9.48376,2.46087z" fill="#ffffff"/></g><path d="M228.29541,358.37313l3.00805,0.66835c0,0 -0.31901,1.52898 -0.24572,2.96869c0.07117,1.398 0.17484,2.63331 -0.57116,2.6573c-0.44609,0.01435 -0.09144,-1.75926 -0.60479,-3.29403c-0.55258,-1.65209 -1.58639,-3.00032 -1.58639,-3.00032z" fill="#000000"/></g><g stroke="none" stroke-width="0" stroke-linecap="butt"><g><path d="M223.38979,334.23848c1.93756,-0.46311 5.16632,-2.16517 7.61197,-2.39684c2.42638,-0.22983 9.82824,2.51459 9.82824,2.51459c0,0 5.18555,-2.27569 7.24144,-2.12758c3.35597,0.24177 12.04538,5.50387 12.04538,5.50387c0,0 -0.85574,6.85392 -7.67526,10.72824c-2.86625,1.62838 -9.80567,2.84171 -12.70194,2.52738c-7.97903,-0.86596 -14.46628,-2.22027 -17.88175,-5.68792c-4.33246,-4.39862 -3.7647,-9.61064 -3.7647,-9.61064c0,0 1.84717,-0.62663 5.29663,-1.45111z" fill="#000000"/><path d="M240.81022,335.62742c0,0 4.95391,-1.76581 6.77017,-1.64346c3.92175,0.26419 7.24288,2.43156 7.24288,2.43156c0,0 -4.16079,-0.05907 -7.40426,0.30668c-3.06688,0.34584 -5.19834,1.1195 -6.11796,1.05754c-0.83314,-0.05613 -3.6829,-0.89335 -6.80442,-1.3343c-4.6896,-0.66245 -9.9926,-1.00009 -9.9926,-1.00009c0,0 4.48749,-1.50936 8.30642,-1.63645c2.0485,-0.06817 7.99978,1.8185 7.99978,1.8185z" fill="#ffffff"/><path d="M232.52954,337.61287c3.42076,0.70245 8.48088,2.18996 8.48088,2.18996c0,0 6.45982,-1.46289 9.58255,-1.7273c2.47185,-0.2093 7.58402,0.34272 7.58402,0.34272c0,0 -0.53714,4.58471 -3.57624,6.70381c-4.05537,2.82772 -11.23082,3.3876 -14.64786,3.28629c-2.96739,-0.08797 -11.21515,-1.08481 -15.01723,-3.55701c-4.60493,-2.99423 -4.53949,-7.55318 -4.53949,-7.55318c0,0 8.44394,-0.44293 12.13338,0.31471z" fill="#ffffff"/></g><path d="M228.06983,336.28116l3.00805,0.66835c0,0 -0.31901,1.52898 -0.24572,2.96869c0.07117,1.398 0.17484,2.63331 -0.57116,2.6573c-0.44609,0.01435 -0.09144,-1.75926 -0.60479,-3.29403c-0.55258,-1.65209 -1.58639,-3.00032 -1.58639,-3.00032z" fill="#000000"/></g></g></g></svg>