<svg version="1.1" xmlns="http://www.w3.org/2000/svg" xmlns:xlink="http://www.w3.org/1999/xlink" width="40.75" height="40.98125" viewBox="0,0,40.75,40.98125"><g transform="translate(-219.625,-159.39375)"><g data-paper-data="{&quot;isPaintingLayer&quot;:true}" fill-rule="nonzero" stroke-linejoin="miter" stroke-miterlimit="10" stroke-dasharray="" stroke-dashoffset="0" style="mix-blend-mode: normal"><path d="M219.625,180c0,-11.2528 9.1222,-20.375 20.375,-20.375c11.2528,0 20.375,9.1222 20.375,20.375c0,11.2528 -9.1222,20.375 -20.375,20.375c-11.2528,0 -20.375,-9.1222 -20.375,-20.375z" fill="#000000" stroke="#727272" stroke-width="0" stroke-linecap="butt"/><g><path d="M243.85278,172.82499c0,0 4.74943,1.7262 4.46379,7.80688c-0.20838,4.43597 -3.33656,7.46047 -8.07188,7.85535c-4.09929,0.34183 -7.62256,-2.61704 -8.44306,-6.91596c-0.96059,-5.03289 3.69452,-8.24698 3.69452,-8.24698" fill="none" stroke="#ffffff" stroke-width="2" stroke-linecap="round"/><path d="M234.35752,170.45563c0,0 1.26233,-0.45227 3.31006,0.14245c1.75142,0.50869 3.20197,1.35249 3.20197,1.35249c0,0 -1.13071,0.48195 -2.36557,1.82324c-1.56265,1.6973 -2.14646,2.78306 -2.14646,2.78306z" fill="#ffffff" stroke="none" stroke-width="0" stroke-linecap="butt"/></g><path d="M219.625,179.76875c0,-11.2528 9.1222,-20.375 20.375,-20.375c11.2528,0 20.375,9.1222 20.375,20.375c0,11.2528 -9.1222,20.375 -20.375,20.375c-11.2528,0 -20.375,-9.1222 -20.375,-20.375z" fill-opacity="0.81569" fill="#000000" stroke="#727272" stroke-width="0" stroke-linecap="butt"/><text transform="translate(235,186) scale(0.5,0.5)" font-size="40" xml:space="preserve" fill="#ffffff" fill-rule="nonzero" stroke="none" stroke-width="1" stroke-linecap="butt" stroke-linejoin="miter" stroke-miterlimit="10" stroke-dasharray="" stroke-dashoffset="0" font-family="&quot;ヒラギノ角ゴ Pro W3&quot;, &quot;Hiragino Kaku Gothic Pro&quot;, Osaka, &quot;メイリオ&quot;, Meiryo, &quot;ＭＳ Ｐゴシック&quot;, &quot;MS PGothic&quot;" font-weight="normal" text-anchor="start" style="mix-blend-mode: normal"><tspan x="0" dy="0">2</tspan></text></g></g></svg>