<svg version="1.1" xmlns="http://www.w3.org/2000/svg" xmlns:xlink="http://www.w3.org/1999/xlink" width="91.67557" height="253.37455" viewBox="0,0,91.67557,253.37455"><g transform="translate(-193.79747,-57.45066)"><g data-paper-data="{&quot;isPaintingLayer&quot;:true}" fill-rule="nonzero" stroke-linejoin="miter" stroke-miterlimit="10" stroke-dasharray="" stroke-dashoffset="0" style="mix-blend-mode: normal"><path d="M193.79749,120.37551c0,0 4.89602,-12.42366 6.24299,-15.74754c2.88904,-7.12918 2.30073,-0.23738 2.30073,-0.23738c0,0 -1.85997,0.61665 -2.84266,0.69861c-1.61013,0.13429 -2.80363,-0.26204 -2.80363,-0.26204l6.42399,-6.92498c0,0 0.2475,-17.60523 8.9764,-29.16254c0.76255,-1.00964 0.73347,3.78361 0.4611,3.47929c-0.87705,-0.97992 -5.60242,-4.43166 -5.60242,-4.43166c0,0 8.68534,-4.46878 14.60068,-6.59569c6.48228,-2.33076 10.01087,-3.33665 12.60472,-3.72489c1.12992,-0.16913 4.32897,1.05622 4.32897,1.05622c0,0 2.60112,-1.21412 5.86811,-1.04486c5.86816,0.30403 13.71705,1.00175 18.9882,2.57923c5.40326,1.61701 12.02106,5.90356 12.02106,5.90356c0,0 -4.19936,4.38943 -5.35233,4.99901c-0.87669,0.46351 0.22618,-5.18337 1.12643,-4.08308c1.01561,1.24128 4.78756,6.17815 6.37912,10.54794c1.06529,2.92486 3.51371,4.16258 3.51371,4.16258c0,0 -3.96981,0.93816 -4.73437,0.78929c-0.72437,-0.14105 1.5392,-3.0614 1.82022,-1.81252c1.30957,5.81982 0.96928,11.41569 3.13131,18.73333c3.72078,12.59341 4.22323,16.87396 4.22323,16.87396c0,0 -7.68347,5.00972 -8.99953,-0.87432c-3.35821,-2.26684 3.33296,-4.66124 3.33296,-4.66124l0.34276,30.04599c0,0 -6.12079,1.45408 -8.29884,0.02904c-1.91821,-1.25504 2.43278,-5.1746 1.76318,-1.81747c-0.39285,1.96964 2.08593,18.76423 2.08593,18.76423c0,0 -4.34614,1.05978 -5.14379,0.06593c-0.84553,-1.05351 1.85462,-4.12016 1.853,-2.47449c-0.00735,7.5233 0.47511,13.92439 0.47511,13.92439l-62.74036,2.75899c0,0 1.90309,-23.68917 -0.16904,-28.77413c-0.40901,-1.0037 4.60434,2.64513 3.36588,4.29308c-1.03226,1.37357 -8.38249,-0.92464 -8.38249,-0.92464c0,0 2.76484,-5.10462 2.28015,-9.17505c-0.33203,-2.78845 -1.09196,-8.16723 -1.09196,-8.16723c0,0 5.4318,5.25744 2.42614,5.94646c-4.72179,0.96765 -10.50456,-0.07006 -10.50456,-0.07006c0,0 1.13322,-14.38562 2.60727,-15.79103c1.38725,-1.32265 2.827,0.84805 2.827,0.84805c0,0 -2.80487,0.08039 -4.27587,0.42173c-2.24208,0.52027 -5.42851,-0.16407 -5.42851,-0.16407z" fill="#000000" stroke="none" stroke-width="NaN" stroke-linecap="butt"/><g stroke="none" stroke-linecap="butt"><path d="" fill="#000000" stroke-width="0"/><path d="" fill="#ffffff" stroke-width="0"/><g fill="#000000"><path d="" stroke-width="0"/><path d="" stroke-width="0.5"/></g><g data-paper-data="{&quot;index&quot;:null}" fill="#000000"><path d="" stroke-width="0"/><path d="" stroke-width="0.5"/></g><path d="" fill="#000000" stroke-width="0.5"/></g><path d="" fill="#571c18" stroke="none" stroke-width="0" stroke-linecap="butt"/><path d="" fill="#773128" stroke="none" stroke-width="0" stroke-linecap="butt"/><path d="" fill="#8d6e47" stroke="none" stroke-width="0" stroke-linecap="butt"/><g stroke="none" stroke-width="0" stroke-linecap="butt"><g><g><g fill="#773128"><path d=""/><path d="" data-paper-data="{&quot;index&quot;:null}"/></g><g fill="#894939"><path d=""/><path d="" data-paper-data="{&quot;index&quot;:null}"/></g><path d="" fill="#773128"/></g><path d="" data-paper-data="{&quot;index&quot;:null}" fill="#773128"/></g><g fill="#000000"><path d=""/><path d="" data-paper-data="{&quot;index&quot;:null}"/></g></g><path d="" fill="#000000" stroke="none" stroke-width="NaN" stroke-linecap="butt"/><g><path d="" fill="#000000" stroke="none" stroke-width="0" stroke-linecap="butt"/><path d="" fill="#ffffff" stroke="none" stroke-width="0" stroke-linecap="butt"/><path d="" fill="none" stroke="#000000" stroke-width="0.5" stroke-linecap="round"/></g><g data-paper-data="{&quot;index&quot;:null}"><path d="" fill="#000000" stroke="none" stroke-width="0" stroke-linecap="butt"/><path d="" fill="#ffffff" stroke="none" stroke-width="0" stroke-linecap="butt"/><path d="" fill="none" stroke="#000000" stroke-width="0.5" stroke-linecap="round"/></g><path d="" fill="#000000" stroke="none" stroke-width="0" stroke-linecap="butt"/><path d="" fill="#ffffff" stroke="none" stroke-width="0" stroke-linecap="butt"/><g stroke="none" stroke-width="0" stroke-linecap="butt"><path d="" fill="#000000"/><path d="" fill="#ffffff"/></g><g stroke="none" stroke-width="0" stroke-linecap="butt"><path d="" fill="#000000"/><path d="" fill="#ffffff"/></g><g stroke="none" stroke-linecap="butt"><path d="" fill="#000000" stroke-width="NaN"/><path d="" fill="#ffffff" stroke-width="0"/><path d="" fill="#ffffff" stroke-width="0"/></g><path d="" fill="#000000" stroke="none" stroke-width="0" stroke-linecap="butt"/><path d="" data-paper-data="{&quot;index&quot;:null}" fill="#000000" stroke="none" stroke-width="0" stroke-linecap="butt"/><path d="" fill="#000000" stroke="none" stroke-width="0" stroke-linecap="butt"/><path d="" fill="#000000" stroke="none" stroke-width="0" stroke-linecap="butt"/><g stroke="none" stroke-width="0" stroke-linecap="butt"><path d="" fill="#000000"/><path d="" fill="#ffffff"/><path d="" fill="#ffffff"/></g><path d="" fill="#000000" stroke="none" stroke-width="0" stroke-linecap="butt"/><g stroke="none" stroke-width="0" stroke-linecap="butt"><path d="" fill="#000000"/><path d="" fill="#ffffff"/></g><g stroke="none" stroke-width="0" stroke-linecap="butt"><path d="" data-paper-data="{&quot;index&quot;:null}" fill="#000000"/><path d="" data-paper-data="{&quot;index&quot;:null}" fill="#ffffff"/></g><g fill="#000000" stroke="none" stroke-linecap="butt"><path d="M200.58125,185.96089c0,-21.10292 18.15751,-38.21022 40.55593,-38.21022c22.39843,0 40.82079,17.1073 40.82079,38.21022c0,2.70002 0.0039,117.77204 0.0039,117.77204l-11.39983,-0.12964l-0.14337,-113.82486c0,0 0.46851,-2.08621 -1.77595,-2.22047c-2.48625,-0.14872 -2.11767,1.68282 -2.11767,1.68282l0.10343,114.38802l-50.32146,0.07847l0.10485,-114.20488c0,0 -0.19035,-2.13951 -1.8053,-2.16297c-2.01199,-0.02922 -1.98832,2.04221 -1.98832,2.04221l-0.29988,114.25674l-11.38239,0.22905c0,0 -0.35473,-116.42094 -0.35473,-117.90653z" stroke-width="0"/><g><path d="M230.0208,204.89616c-5.66213,0 -7.34973,-0.4705 -7.34973,-0.4705l-0.08286,-1.2733c0,0 5.25623,0.13066 7.69744,0.13066c4.20542,0 7.61458,-1.35635 7.61458,-0.87378c0,0.48257 -1.95246,2.48691 -7.87944,2.48691z" stroke-width="0"/><path d="M225.51823,199.65349c0,-0.55682 0.44467,-1.00821 0.99321,-1.00821c0.54854,0 0.99321,0.45139 0.99321,1.00821c0,0.55682 -0.44467,1.00821 -0.99321,1.00821c-0.54854,0 -0.99321,-0.45139 -0.99321,-1.00821z" stroke-width="0.5"/></g><g data-paper-data="{&quot;index&quot;:null}"><path d="M244.836,202.40925c0,-0.48257 3.40916,0.87378 7.61458,0.87378c2.44121,0 7.69744,-0.13066 7.69744,-0.13066l-0.08286,1.2733c0,0 -1.6876,0.4705 -7.34973,0.4705c-5.92698,0 -7.87944,-2.00433 -7.87944,-2.48691z" stroke-width="0"/><path d="M256.2247,200.66169c-0.54853,0 -0.99321,-0.45139 -0.99321,-1.00821c0,-0.55682 0.44467,-1.00821 0.99321,-1.00821c0.54853,0 0.99321,0.45139 0.99321,1.00821c0,0.55682 -0.44467,1.00821 -0.99321,1.00821z" stroke-width="0.5"/></g><path d="M240.38326,253.12203c0,-0.55681 0.44467,-1.00821 0.99321,-1.00821c0.54854,0 0.99321,0.45139 0.99321,1.00821c0,0.55681 -0.44467,1.00821 -0.99321,1.00821c-0.54854,0 -0.99321,-0.45139 -0.99321,-1.00821z" stroke-width="0.5"/><path d="" stroke-width="0"/></g><g><path d="M210.47881,106.44861c0.96521,-0.18364 5.78639,4.94033 6.72949,9.89722c0.94309,4.95689 -0.15061,10.72809 -0.15061,10.72809c0,0 -6.46652,-3.53164 -7.66724,-8.4325c-3.07712,-12.5596 0.12316,-12.00917 1.08836,-12.19281z" fill="#000000" stroke="none" stroke-width="0" stroke-linecap="butt"/><path d="M210.20643,107.50108c1.31694,-0.1432 3.38354,5.86128 4.11895,9.72657c0.73541,3.86529 0.71005,7.6557 0.71005,7.6557c0,0 -4.13639,-3.64493 -5.07269,-7.46653c-2.39948,-9.79373 -0.51797,-9.83292 0.24369,-9.91574z" fill="#ffffff" stroke="none" stroke-width="0" stroke-linecap="butt"/><path d="M214.78003,122.17312c0,0 -3.02608,-5.45514 -3.46106,-7.54108c-0.69361,-3.32613 1.47037,-3.38348 1.47037,-3.38348" fill="none" stroke="#000000" stroke-width="0.5" stroke-linecap="round"/></g><path d="M199.22722,289.8634c0,0 1.43708,-15.31757 1.37482,-25.29601c-0.11731,-18.80246 -1.46624,-89.51718 0.51521,-94.3207c2.88845,-7.00234 7.8238,-9.10266 10.37253,-9.10266c4.10883,0 11.67968,59.15192 11.67968,59.15192v27.50376z" fill="#6d4321" stroke="none" stroke-width="0" stroke-linecap="butt"/><g data-paper-data="{&quot;index&quot;:null}" stroke="none" stroke-width="0" stroke-linecap="butt"><path d="M259.73114,247.98637v-27.50376c0,0 7.57085,-59.15192 11.67968,-59.15192c2.54873,0 7.48408,2.10032 10.37253,9.10266c1.98145,4.80352 0.63252,75.51824 0.51521,94.3207c-0.06226,9.97844 1.37482,25.29601 1.37482,25.29601z" fill="#6d4321"/><path d="M240.92895,310.82521c0,0 0.45675,-48.00759 0.69755,-73.3185c0.25861,-27.18259 0.80453,-84.56289 0.80453,-84.56289c0,0 5.47623,-2.02421 16.62327,0.56437c15.28035,3.54843 14.55629,8.65756 14.55629,8.65756c0,0 -2.09461,3.11132 -1.59074,6.24659c0.88455,5.50401 2.81449,10.29958 3.33077,16.59306c0.18198,2.21834 0.18832,4.62279 -0.08867,7.30997c-0.82638,8.01698 -7.42273,20.05004 -7.55758,22.89616c-0.50844,10.73077 -0.75684,27.67242 -0.87235,44.05091c-0.17026,24.14231 -0.05179,47.06103 -0.05179,47.06103z" fill="#571c18"/><path d="M246.0681,184.92592c0,-1.36981 2.88222,-15.33486 7.72897,-20.56459c6.14398,-6.62946 14.73717,-1.67208 14.65463,0.317c-0.5598,13.49064 1.38599,11.68166 2.39954,20.86642c-0.51062,14.10462 -7.97942,18.75859 -8.87516,26.87343c-6.6004,-3.08057 -7.99214,-4.07327 -15.03178,-5.91868c0.2793,-10.84248 -0.8762,-20.0354 -0.8762,-21.57359z" fill="#773128"/><path d="M245.3924,226.75851c1.67286,-1.00789 3.25484,-2.11467 4.71198,-3.32247c2.28289,-1.89226 4.36783,-3.46516 5.79966,-6.02227c3.12478,1.28657 6.20544,2.69837 9.27879,4.14054c-3.1057,20.3305 -16.06381,10.30381 -18.25968,10.30381c-0.79104,0 -1.26815,-1.97731 -1.53075,-5.09961z" fill="#773128"/><path d="M252.65493,214.72063c-1.24908,2.11346 -3.12619,3.42821 -5.05747,5.0332c-1.03078,0.85664 -2.13096,1.65998 -3.28612,2.41075c-0.12171,-2.96474 -0.12283,-6.51941 -0.05483,-10.233c2.85649,0.77398 5.64778,1.72474 8.39842,2.78905z" fill="#773128"/><path d="M245.32335,237.57411c0,-1.03546 6.57242,0.72596 10.07821,0.83464c3.72477,0.11546 6.44064,-1.67402 7.72937,-1.67402c2.5017,0 -0.15355,52.48925 -0.15355,54.62485c0,2.13559 -15.06477,2.98298 -17.56647,2.98298c-2.5017,0 -0.08755,-54.63287 -0.08755,-56.76846z" fill="#773128"/><path d="M255.31717,168.33174c2.31445,-3.49882 7.70222,-4.59925 8.86275,-4.59925c1.50247,0 0.4556,5.54172 1.20188,10.2204c0.87131,5.46255 3.40826,10.29371 3.40826,12.07979c0,2.25988 -2.11695,10.83215 -7.22768,15.78969c-1.31596,4.8896 -8.78198,3.50855 -9.8191,3.50855c-3.25665,0 -2.03704,-14.4814 -2.03704,-17.79726c0,-2.13424 1.43061,-12.88239 5.61094,-19.20192z" fill="#894939"/><path d="M269.45196,230.41861c0.09218,-6.39486 2.85277,-14.55195 2.72983,-16.81262c-0.38919,-7.15707 5.91646,-12.16634 5.17137,-26.04242c-0.03476,-0.64747 0.14818,-1.17615 0.1167,-1.58629c-0.63813,-8.31254 -3.91586,-18.59462 -2.514,-18.59462c1.39047,0 3.77701,-1.0022 4.97579,7.11968c0.33045,2.23883 -0.48152,23.91651 -0.57398,41.39364c-0.11097,20.977 0.36975,38.1268 -0.84881,38.1268c-1.11967,0 -9.14955,-17.17754 -9.05691,-23.60417z" fill="#8d6e47"/></g><g data-paper-data="{&quot;index&quot;:null}"><path d="M274.23609,118.51571c-1.20072,4.90086 -7.66724,8.4325 -7.66724,8.4325c0,0 -1.0937,-5.77121 -0.15061,-10.7281c0.9431,-4.95689 5.76428,-10.08085 6.72949,-9.89722c0.96521,0.18363 4.16548,-0.36679 1.08836,12.19281z" fill="#000000" stroke="none" stroke-width="0" stroke-linecap="butt"/><path d="M273.66382,117.2911c-0.93629,3.8216 -4.66727,5.23665 -4.66727,5.23665c0,0 -0.43079,-1.56053 0.30462,-5.42582c0.73541,-3.86529 2.80201,-9.86976 4.11895,-9.72656c0.76166,0.08282 2.64317,0.12201 0.2437,9.91574z" fill="#ffffff" stroke="none" stroke-width="0" stroke-linecap="butt"/><path d="M270.83718,111.12285c0,0 2.16397,0.05735 1.47037,3.38348c-0.43498,2.08594 -3.46106,7.54108 -3.46106,7.54108" fill="none" stroke="#000000" stroke-width="0.5" stroke-linecap="round"/></g><path d="M216.12039,306.1368c0,0 0.11847,-22.91872 -0.05179,-47.06103c-0.11551,-16.37849 -0.36391,-33.32014 -0.87235,-44.05091c-0.13485,-2.84612 -6.7312,-14.87918 -7.55758,-22.89616c-0.27699,-2.68718 -0.27065,-5.09163 -0.08867,-7.30997c0.51628,-6.29348 2.44622,-11.08905 3.33077,-16.59306c0.50387,-3.13527 -1.59074,-6.24659 -1.59074,-6.24659c0,0 -0.72406,-5.10913 14.55629,-8.65756c11.14704,-2.58858 16.62327,-0.56437 16.62327,-0.56437c0,0 0.54592,57.3803 0.80453,84.56289c0.2408,25.31091 0.69755,73.3185 0.69755,73.3185z" fill="#571c18" stroke="none" stroke-width="0" stroke-linecap="butt"/><path d="M217.4534,144.1033c-1.12791,-6.71582 -0.20637,-6.94188 -1.0642,-13.44379c-0.47362,-3.58977 -2.15797,-7.18909 -2.73202,-11.13223c-1.20896,-8.30433 -1.27196,-25.65977 -0.47554,-29.40025c4.41933,-20.75585 15.3863,-24.96608 29.85603,-25.48425c20.77576,-0.74399 24.79696,12.48506 27.42961,23.79025c1.84023,7.90235 1.22737,18.92724 -0.34916,28.57116c-0.96559,5.90663 -2.47529,10.80823 -3.46814,15.58687c-1.22544,5.89815 -0.7524,7.76045 -1.86263,12.66938c-1.15349,5.10023 -6.83176,10.81045 -11.83191,15.83737c-4.57165,4.59612 -7.90818,8.33063 -12.38271,8.22359c-5.04445,-0.12068 -8.96195,-6.22631 -14.50155,-12.44391c-4.38889,-4.92605 -8.03319,-9.29321 -8.61781,-12.77419z" fill="#000000" stroke="none" stroke-width="0" stroke-linecap="butt"/><path d="M217.25881,124.68151c-0.94553,-5.09249 -3.54204,-4.25562 -2.79146,-22.70284c0.35027,-8.60857 1.58748,-16.65181 3.61898,-20.76639c6.59974,-13.36702 19.1364,-15.03633 24.02784,-15.03633c4.16055,0 17.20519,1.95486 23.80596,13.20532c1.38921,2.3678 2.77649,5.92394 3.26517,9.93109c0.50548,4.1449 0.08725,8.75725 0.02672,12.11153c-0.10696,5.92699 0.23361,11.79227 -1.04001,17.97375c-0.62848,3.05035 -1.86346,6.18514 -2.54274,8.95491c-1.44491,5.89168 -1.386,9.63665 -2.01514,12.75206c-1.44877,7.17412 -1.89749,7.23551 -4.27323,10.21882c-2.5746,3.23301 -6.22007,6.15229 -9.11253,8.91074c-2.62204,2.50056 -5.47801,6.21315 -8.77908,6.21315c-4.10432,0 -6.9048,-3.78999 -10.07829,-7.4154c-4.79276,-5.47527 -11.46201,-7.91572 -13.04194,-17.80658c-0.63652,-3.98482 0.06119,-10.45004 -1.07025,-16.54383z" fill="#ffffff" stroke="none" stroke-width="0" stroke-linecap="butt"/><g stroke="none" stroke-width="0" stroke-linecap="butt"><path d="M228.24277,105.59131c5.64136,0 10.21459,4.47197 10.21459,9.98843c0,5.51646 -4.7706,9.74171 -10.41197,9.74171c-5.64137,0 -10.31875,-4.22525 -10.31875,-9.74171c0,-5.51645 4.87476,-9.98843 10.51613,-9.98843z" fill="#000000"/><path d="M228.24277,105.84568c4.97522,0 8.78866,3.85659 8.78866,8.8032c0,4.94661 -4.01083,9.08774 -8.98605,9.08774c-4.97523,0 -8.81106,-3.98769 -8.81106,-8.9343c0,-4.94662 4.03322,-8.95664 9.00844,-8.95664z" fill="#ffffff"/></g><g stroke="none" stroke-width="0" stroke-linecap="butt"><path d="M254.80269,105.61593c5.64136,0 10.21459,4.47198 10.21459,9.98844c0,5.51645 -4.72127,9.64301 -10.36263,9.64301c-3.16285,0 -6.23667,-1.06026 -8.11031,-3.26759c-1.46826,-1.72975 -1.95625,-3.95178 -1.95625,-6.37542c0,-5.51646 4.57322,-9.98844 10.21459,-9.98844z" fill="#000000"/><path d="M254.80269,105.87031c4.97523,0 8.70691,4.08541 8.70691,9.03202c0,4.94661 -3.87973,8.68387 -8.85495,8.68387c-4.97523,0 -8.8604,-3.81265 -8.8604,-8.75926c0,-4.94661 4.03322,-8.95663 9.00844,-8.95663z" fill="#ffffff"/></g><g stroke="none" stroke-linecap="butt"><path d="M249.40691,142.68965c2.14614,0.63336 4.57,2.14674 7.10189,3.18958c3.1668,1.30434 5.91835,2.72636 5.91835,2.98404c0,0.09852 0.6422,0.57742 0.34258,1.11686c-1.789,3.22099 -9.63005,12.83494 -20.94009,13.0257c-12.59325,-0.3248 -20.68677,-10.85655 -23.27914,-15.25835c-0.66575,-1.13043 -0.11257,-1.97072 -0.18768,-1.99564c-0.32963,-0.10935 2.17574,-0.56882 4.39722,-1.19556c1.32363,-0.37344 6.02869,-2.52762 9.16564,-2.62169c0,0 6.11008,0.84857 11.13979,1.05021c0,0 4.30069,-0.8974 6.34144,-0.29515z" fill="#000000" stroke-width="NaN"/><path d="M222.925,145.9118c0,0 4.45428,-1.58314 9.14685,-1.84617c3.5353,-0.19816 8.14505,1.24124 10.14351,1.24124c1.78589,0 3.62586,-1.29154 6.32678,-0.57417c4.23256,1.12417 8.12418,3.53158 8.12418,3.53158c0,0 -3.47556,-0.50449 -6.7587,-0.10932c-2.77486,0.33399 -5.25973,0.85453 -6.95291,0.86581c-2.06827,0.01378 -6.82484,-0.83276 -11.18375,-1.76195c-4.64917,-0.99105 -8.84595,-1.34702 -8.84595,-1.34702z" fill="#ffffff" stroke-width="0"/><path d="M233.93287,149.67147c5.82065,1.20577 8.52116,2.22429 8.52116,2.22429c0,0 2.73973,-0.85807 10.10428,-1.81233c3.83362,-0.49674 8.34249,0.13003 8.34249,0.13003c0,0 -1.67172,2.4939 -5.81691,5.31831c-3.13971,2.13931 -7.86424,4.77611 -13.40623,4.89818c-13.03253,0.28708 -21.37398,-13.37554 -21.37398,-13.37554c0,0 7.27229,1.30021 13.62919,2.61706z" fill="#ffffff" stroke-width="0"/></g><path d="M213.28844,108.92254l0.13102,-1.63769l7.19167,-1.18423l0.32653,-1.46623c0,0 3.68245,-1.72538 7.2562,-2.03587c3.72054,-0.32324 9.00496,-0.09575 9.00496,-0.09575l0.32754,4.71657c0,0 -4.80797,-1.2906 -8.17678,-1.07798c-6.17314,0.38961 -6.13035,1.25866 -10.09703,1.94554c-3.96668,0.68688 -5.96411,0.83565 -5.96411,0.83565z" fill="#000000" stroke="none" stroke-width="0" stroke-linecap="butt"/><path d="M257.42143,102.60402c-6.5361,-0.02665 -11.93017,2.50832 -11.93017,2.50832l-0.26203,-4.42239c0,0 5.28442,-1.73418 9.39801,-1.86949c4.11358,-0.13531 7.12519,0.66021 7.12519,0.66021l0.19551,1.20419l7.3882,2.16685l0.13101,1.6377c0,0 -5.86035,-1.86016 -12.04572,-1.88538z" data-paper-data="{&quot;index&quot;:null}" fill="#000000" stroke="none" stroke-width="0" stroke-linecap="butt"/><path d="M227.71914,110.63141c2.71342,0 4.91309,2.23007 4.91309,4.98099c0,2.75092 -2.19966,4.98098 -4.91309,4.98098c-2.71342,0 -4.91309,-2.23006 -4.91309,-4.98098c0,-2.75092 2.19966,-4.98099 4.91309,-4.98099z" fill="#000000" stroke="none" stroke-width="0" stroke-linecap="butt"/><path d="M252.31861,112.81222c0.98474,0 1.78302,0.80931 1.78302,1.80766c0,0.99835 -0.79829,1.80765 -1.78302,1.80765c-0.98474,0 -1.78302,-0.80931 -1.78302,-1.80765c0,-0.99834 0.79829,-1.80766 1.78302,-1.80766z" fill="#000000" stroke="none" stroke-width="0" stroke-linecap="butt"/><g stroke="none" stroke-width="0" stroke-linecap="butt"><path d="M238.90967,136.80041c0,0 -0.06312,-8.68679 -0.28083,-12.38791c-0.17487,-2.97289 -0.92532,-8.11666 -0.92532,-8.11666c0,0 -0.33218,-1.57308 0.02454,-1.56279c1.13657,0.03279 7.81544,1.78895 7.81544,1.78895l-0.37692,20.27841c0,0 0.82184,1.93768 0.72844,3.69896c-0.06976,1.31553 -0.97469,4.70292 -1.02626,5.67536c-0.11348,2.13998 -0.40577,3.89334 -0.40577,3.89334l-4.14036,-0.01448c0,0 -0.12488,-2.01528 -0.87252,-4.2695c-0.71961,-2.16969 -2.11593,-4.55553 -2.18508,-5.58924c-0.19994,-2.9885 1.64464,-3.39445 1.64464,-3.39445z" fill="#000000"/><path d="M241.2717,149.07835c0,0 -0.2909,-3.80356 -0.49735,-8.24071c-0.20504,-4.40659 -0.32473,-9.70108 -0.5883,-13.30096c-0.42508,-5.80554 -1.77895,-15.81414 -1.77895,-15.81414l6.10614,1.88461l-0.75385,35.43068z" fill="#ffffff"/><path d="M238.8541,137.97842c0.34401,0 0.62288,4.77542 0.62288,4.77542c0,0 -1.24576,-1.59275 -1.24576,-2.7251c0,-1.13236 0.27887,-2.05032 0.62288,-2.05032z" fill="#ffffff"/></g><g stroke="none" stroke-width="0" stroke-linecap="butt"><path d="M217.54642,116.17208c0,0 -0.16627,-2.22288 0.81062,-4.59656c1.16899,-2.84044 3.93233,-5.91812 9.99819,-5.95021c4.4123,-0.02334 6.77688,1.48178 8.31843,3.36171c2.53146,3.08714 2.42486,7.54013 2.42486,7.54013z" fill="#000000"/><path d="M219.11865,114.59989c0,0 0.38648,-8.1425 9.36763,-8.12298c3.32151,0.00722 5.24312,1.47836 6.59481,2.79979c2.45356,2.39865 2.57629,5.32319 2.57629,5.32319z" fill="#ffffff"/></g><path d="M244.50739,116.19349c0,0 -0.53134,-3.2454 0.9459,-6.12374c1.32927,-2.59004 4.34124,-4.84529 9.8629,-4.81608c11.13492,0.0589 11.0941,11.29489 11.0941,11.29489c0,0 -2.6194,-5.30438 -11.3757,-5.36216c-8.34595,-0.25539 -10.5272,5.00709 -10.5272,5.00709z" data-paper-data="{&quot;index&quot;:null}" fill="#000000" stroke="none" stroke-width="0" stroke-linecap="butt"/><path d="M211.20302,132.88141l-4.23077,-28.85747c0,0 4.51416,-33.02586 22.72268,-38.62144c37.50875,-4.8295 38.37507,15.34044 40.71021,14.91767c9.27321,-1.67889 -0.15839,30.02823 -0.15839,30.02823c0,0 0.95396,-6.23927 -17.21514,-3.92694c-5.17284,0.65833 -8.20565,4.92565 -8.20565,5.48635c0,4.15533 -0.34194,17.00437 -0.34194,17.00437c0,0 -2.65435,-0.76546 -4.71207,-0.52005c-0.45687,0.05449 0.13323,3.07345 -0.55726,3.17017c-7.41467,1.03859 -28.01166,1.31911 -28.01166,1.31911z" fill="#000000" stroke="none" stroke-width="0" stroke-linecap="butt"/><path d="M211.20302,134.01778l-4.23077,-28.85746c0,0 8.00334,-15.92885 26.21186,-21.52444c4.3615,-1.34032 30.69886,2.08154 33.03401,1.65877c9.27321,-1.67889 4.02862,26.19013 4.02862,26.19013c0,0 0.87202,-3.98965 -8.99401,-4.20512c-2.13482,-0.04663 -4.76177,1.00319 -7.99385,1.41453c-5.17284,0.65833 -8.43292,3.78929 -8.43292,4.35c0,4.15533 -0.34194,17.00437 -0.34194,17.00437c0,0 -2.82483,2.47355 -4.88254,2.71896c-0.45687,0.05449 0.61301,2.15427 -0.07748,2.25099c-1.9243,0.26954 -9.70626,5.59005 -22.74462,4.76115c-8.9436,-0.56858 -5.57635,-5.76186 -5.57635,-5.76186z" fill-opacity="0.42742" fill="#000000" stroke="none" stroke-width="0" stroke-linecap="butt"/><g fill="#000000" stroke="none" stroke-width="0" stroke-linecap="butt"><path d="M245.99716,123.75656c-7.86099,14.39525 -23.25617,19.05914 -34.3861,10.41708c-11.12993,-8.64206 -13.77992,-27.31749 -5.91893,-41.71274c7.86099,-14.39525 23.25618,-19.05913 34.3861,-10.41707c11.12993,8.64206 13.77991,27.31748 5.91893,41.71273z"/><path d="M209.10247,115.47977c-7.75602,-6.02232 -3.85325,-13.65465 1.22832,-22.96016c5.08157,-9.30551 18.47263,-14.35694 26.22865,-8.33463c3.33942,2.59296 6.41842,6.62687 8.17556,11.56092c-4.64276,9.17987 -8.46667,18.94427 -12.8201,28.34293c-7.97119,0.61449 -17.88846,-4.78575 -22.81243,-8.60907z"/><path d="M243.2279,122.09005c-1.54904,2.74361 -4.44031,4.29847 -7.94177,4.9702c3.78813,-8.31959 7.22122,-16.88537 11.23072,-25.03643c1.35513,5.93658 0.76622,12.88386 -3.28896,20.06623z"/><path d="M237.95391,131.23988c-0.51544,0.94389 -7.85546,6.57408 -14.66098,5.26211c-7.65689,-1.4761 -14.82046,-8.72885 -16.44345,-11.44842c0.14192,-0.47275 -4.61555,-12.2034 -3.24507,-10.04196c6.7852,10.70126 35.21452,14.64424 34.3495,16.22827z"/><g><path d="M224.76527,103.28986c0,0 -6.91148,5.09034 -10.2464,2.50087c-3.33492,-2.58947 -1.83042,-11.87816 -1.83042,-11.87816c0,0 3.81551,0.06282 7.15043,2.65229c3.33492,2.58947 4.92639,6.725 4.92639,6.725z"/><path d="M225.27669,101.6773c0,0 -3.55213,3.62662 -6.4236,3.12764c-2.87147,-0.49898 -4.09567,-7.07208 -4.09567,-7.07208c0,0 1.42494,-0.90247 4.29641,-0.40349c2.87147,0.49898 6.22286,4.34793 6.22286,4.34793z"/></g><g data-paper-data="{&quot;index&quot;:null}"><path d="M236.37225,110.10521c3.33492,2.58947 4.9264,6.72501 4.9264,6.72501c0,0 -6.51552,5.39779 -9.85045,2.80832c-3.33492,-2.58947 -2.22637,-12.18561 -2.22637,-12.18561c0,0 3.8155,0.06282 7.15042,2.65229z"/><path d="M236.10345,111.27058c1.54414,2.92961 1.42834,4.8486 1.42834,4.8486c0,0 -5.53647,1.32363 -7.08061,-1.60599c-1.54414,-2.92961 -0.19943,-8.27022 -0.19943,-8.27022c0,0 4.30756,2.09799 5.8517,5.02761z"/></g><g><path d="M224.03454,104.628c0,0 -6.91148,5.09033 -10.2464,2.50086c-3.33492,-2.58947 -1.83042,-11.87816 -1.83042,-11.87816c0,0 3.81551,0.06282 7.15043,2.65229c3.33492,2.58947 4.92639,6.72501 4.92639,6.72501z"/><path d="M224.54596,103.01543c0,0 -3.55213,3.62661 -6.4236,3.12763c-2.87147,-0.49898 -4.09567,-7.07207 -4.09567,-7.07207c0,0 1.42494,-0.90247 4.29641,-0.40349c2.87147,0.49898 6.22286,4.34793 6.22286,4.34793z"/></g><g data-paper-data="{&quot;index&quot;:null}"><path d="M235.64151,111.44334c3.33492,2.58947 4.92639,6.725 4.92639,6.725c0,0 -6.51552,5.39779 -9.85044,2.80832c-3.33492,-2.58947 -2.22637,-12.18561 -2.22637,-12.18561c0,0 3.8155,0.06282 7.15042,2.65229z"/><path d="M235.37271,112.60872c1.54414,2.92961 1.42834,4.84859 1.42834,4.84859c0,0 -5.53646,1.32363 -7.08061,-1.60598c-1.54414,-2.92961 -0.19943,-8.27022 -0.19943,-8.27022c0,0 4.30756,2.09799 5.8517,5.02761z"/></g></g><path d="M265.87213,114.94138l-0.51724,-2.06522l2.5,-0.51724z" fill="#000000" stroke="none" stroke-width="0" stroke-linecap="butt"/><path d="M265.13946,113.73716l-0.94047,-1.91002l2.33506,-1.03201z" fill="#000000" stroke="none" stroke-width="0" stroke-linecap="butt"/><path d="M201.11017,99.98913c0,0 -1.14882,-2.72324 -0.7096,-4.77443c0.59312,-2.76992 2.50769,-4.16636 2.50769,-4.16636c0,0 23.99436,-1.5389 43.65696,1.11696c26.25521,3.54634 35.61689,8.4639 35.61689,8.4639c0,0 2.08002,0.81392 2.2491,2.96657c0.11372,1.44798 -0.9239,3.66785 -0.9239,3.66785c0,0 -11.37735,-5.7185 -36.64494,-7.99421c-24.62795,-2.2181 -45.75219,0.71972 -45.75219,0.71972z" fill="#773128" stroke="none" stroke-width="0" stroke-linecap="butt"/><path d="M245.55993,121.32161c-7.86099,14.39525 -23.25617,19.05914 -34.3861,10.41708c-11.12993,-8.64206 -13.77992,-27.31749 -5.91893,-41.71274c7.86099,-14.39525 23.25618,-19.05913 34.3861,-10.41707c11.12993,8.64206 13.77991,27.31748 5.91893,41.71273z" fill="#59220f" stroke="none" stroke-width="0" stroke-linecap="butt"/><path d="M282.88149,104.63755c0.03395,1.1326 -9.8637,-2.58793 -21.86253,-4.52789c-1.16792,-1.66067 -2.30744,-3.34072 -3.42176,-5.03486c9.70497,1.98497 25.2087,7.04113 25.28429,9.56275z" fill="#894939" stroke="none" stroke-width="0" stroke-linecap="butt"/><path d="M255.55441,98.96855c-1.4338,-0.1262 -5.66361,-4.4723 -4.44081,-5.00557c0.22768,-0.09929 1.82089,-0.10502 4.19436,0.21382c1.10897,1.72447 2.24222,3.43653 3.40292,5.13098c-1.04386,-0.13161 -2.0976,-0.24603 -3.15646,-0.33923z" fill="#894939" stroke="none" stroke-width="0" stroke-linecap="butt"/><g stroke="none" stroke-width="0" stroke-linecap="butt"><path d="M270.32476,125.56463c0,1.05998 -0.57788,1.91926 -1.29073,1.91926c-0.71285,0 -1.29074,-0.85928 -1.29074,-1.91926c0,-1.05998 0.57789,-1.91926 1.29074,-1.91926c0.71285,0 1.29073,0.85928 1.29073,1.91926z" fill="#4f4241"/><path d="M269.90446,125.09829c0,0.46583 -0.42298,0.84346 -0.94474,0.84346c-0.52177,0 -0.94473,-0.37763 -0.94473,-0.84346c0,-0.46583 0.42297,-0.84346 0.94473,-0.84346c0.52177,0 0.94474,0.37763 0.94474,0.84346z" fill="#6a5957"/></g><g stroke="none" stroke-width="0" stroke-linecap="butt"><path d="M267.96218,129.46793c0.10451,-0.7625 0.60494,-1.32366 1.11773,-1.25337c0.51279,0.07029 0.84377,0.7454 0.73926,1.50789c-0.10451,0.7625 -0.60494,1.32366 -1.11773,1.25337c-0.51279,-0.07029 -0.84377,-0.7454 -0.73926,-1.5079z" fill="#4f4241"/><path d="M268.21853,129.84482c0.04593,-0.33509 0.38743,-0.56504 0.76277,-0.5136c0.37534,0.05145 0.64237,0.3648 0.59644,0.69989c-0.04593,0.33509 -0.38743,0.56504 -0.76277,0.5136c-0.37534,-0.05145 -0.64237,-0.3648 -0.59644,-0.69989z" fill="#6a5957"/></g><path d="M245.32811,115.25738c0,0 -14.85906,20.31451 -30.70969,14.07167c-11.68132,-4.60075 -9.89877,-31.96003 -9.89877,-31.96003c0,0 15.08984,-20.37326 29.95961,-14.97176c14.44298,5.24647 10.64885,32.86012 10.64885,32.86012z" fill="#000000" stroke="none" stroke-width="0" stroke-linecap="butt"/><path d="M228.54985,118.84251c0,3.70188 -3.67975,6.70284 -8.21896,6.70284c-4.53921,0 -8.21896,-3.00097 -8.21896,-6.70284c0,-3.70188 3.67975,-6.70284 8.21896,-6.70284c4.53921,0 8.21896,3.00096 8.21896,6.70284z" fill="#59220f" stroke="none" stroke-width="0" stroke-linecap="butt"/><g data-paper-data="{&quot;index&quot;:null}" fill="#ffffff" stroke="none" stroke-width="0" stroke-linecap="butt"><path d="M232.87997,122.72555c-0.63815,-1.07421 -0.67982,-3.39198 0.39604,-4.0311c1.07586,-0.63912 3.01069,0.63164 3.64883,1.70585c0.63815,1.07421 -0.07005,2.12968 -1.14591,2.7688c-1.07586,0.63912 -2.26082,0.63066 -2.89896,-0.44355z"/><path d="M229.27627,124.38868c-0.53169,-1.25501 -0.23569,-3.76641 1.02124,-4.29891c1.25693,-0.5325 3.16128,1.12576 3.69297,2.38077c0.53169,1.25501 -0.38909,2.29164 -1.64602,2.82414c-1.25693,0.5325 -2.5365,0.34901 -3.06819,-0.906z"/><path d="M223.92342,125.41331c-0.192,-1.70892 0.99612,-5.23986 2.70765,-5.43216c1.71153,-0.1923 3.49117,3.09761 3.68318,4.80653c0.192,1.70892 -1.29416,2.63173 -3.00569,2.82403c-1.71153,0.1923 -3.19313,-0.48948 -3.38514,-2.1984z"/><path d="M218.95759,125.4487c0.222,-1.70529 2.30239,-3.9837 4.01029,-3.76135c1.7079,0.22235 2.56685,2.97604 2.34485,4.68133c-0.222,1.70529 -1.88565,2.24614 -3.59355,2.0238c-1.7079,-0.22234 -2.98359,-1.23849 -2.76159,-2.94378z"/><path d="M214.77445,125.16394c0.36433,-1.68063 2.62859,-3.77641 4.3118,-3.41153c1.68321,0.36489 2.30803,3.18097 1.9437,4.8616c-0.36433,1.68064 -2.0675,2.07997 -3.75071,1.71508c-1.68321,-0.36489 -2.86913,-1.48452 -2.5048,-3.16515z"/><path d="M211.47807,123.36567c0.4462,-1.66078 2.81041,-3.64314 4.47373,-3.19625c1.66332,0.44688 2.14947,3.29017 1.70327,4.95095c-0.4462,1.66078 -2.16689,1.97621 -3.83021,1.52933c-1.66332,-0.44688 -2.79299,-1.62324 -2.34678,-3.28402z"/><path d="M208.88373,120.25577c0.64658,-1.59349 3.23612,-3.27083 4.83205,-2.62326c1.59593,0.64757 1.72958,3.52902 1.083,5.12251c-0.64658,1.59349 -2.39297,1.69545 -3.9889,1.04788c-1.59593,-0.64757 -2.57273,-1.95364 -1.92615,-3.54713z"/><path d="M209.21711,114.65871c1.53063,-0.78387 5.25358,-0.92101 6.03863,0.61196c0.78506,1.53297 -1.66305,4.36093 -3.19368,5.1448c-1.53063,0.78387 -2.91933,-0.27999 -3.70439,-1.81297c-0.78506,-1.53297 -0.67119,-3.15993 0.85944,-3.94379z"/><path d="M209.6345,110.97682c1.31912,-0.34305 3.76053,0.31591 4.1041,1.63705c0.34357,1.32113 -1.5746,2.9634 -2.89371,3.30645c-1.31912,0.34305 -2.21044,-0.71903 -2.55401,-2.04016c-0.34357,-1.32113 0.02451,-2.56028 1.34362,-2.90333z"/></g><path d="M243.00466,122.27116c0,0 -5.40044,10.82059 -16.66657,12.58226c-2.63698,0.41234 -6.07955,-0.34709 -9.5945,-0.91768c-2.99447,-0.4861 -3.86684,-1.95529 -5.44672,-3.50477c-3.96376,-3.88751 -4.35593,-5.14256 1.75327,-0.46578c2.17389,1.66418 4.45783,1.43727 7.32826,1.56524c13.28558,0.5923 22.62627,-9.25928 22.62627,-9.25928z" fill="#6d4321" stroke="none" stroke-width="0" stroke-linecap="butt"/><path d="M208.34271,88.32812c0,0 6.12079,-10.43005 17.48035,-11.42477c2.65885,-0.23283 13.37298,3.93196 14.70722,5.43086c3.69142,4.147 3.99769,5.42572 -1.78079,0.34597c-2.0562,-1.80756 -4.35026,-1.73584 -7.20544,-2.0579c-13.21498,-1.49061 -23.20135,7.70583 -23.20135,7.70583z" fill="#6d4321" stroke="none" stroke-width="0" stroke-linecap="butt"/><g fill="none" stroke="#ffffff" stroke-width="0.5" stroke-linecap="butt"><path d="M217.23212,105.27717c0,1.36298 -1.06681,2.46788 -2.38278,2.46788c-1.31598,0 -2.38279,-1.10491 -2.38279,-2.46788c0,-1.36298 1.06681,-2.46789 2.38279,-2.46789c1.31598,0 2.38278,1.10492 2.38278,2.46789z"/><path d="M219.10429,105.27717c0,2.43389 -1.90501,4.40694 -4.25498,4.40694c-2.34996,0 -4.25498,-1.97305 -4.25498,-4.40694c0,-2.43389 1.90502,-4.40694 4.25498,-4.40694c2.34996,0 4.25498,1.97305 4.25498,4.40694z"/></g><g fill="none" stroke="#ffffff" stroke-width="1" stroke-linecap="butt"><path d="M229.95125,100.44517c0,1.73473 -1.35779,3.14102 -3.0327,3.14102c-1.67491,0 -3.03271,-1.40629 -3.03271,-3.14102c0,-1.73473 1.3578,-3.14102 3.03271,-3.14102c1.67491,0 3.0327,1.4063 3.0327,3.14102z"/><path d="M232.33411,100.44517c0,3.09775 -2.42462,5.60896 -5.41554,5.60896c-2.99093,0 -5.41556,-2.51121 -5.41556,-5.60896c0,-3.09775 2.42463,-5.60897 5.41556,-5.60897c2.99093,0 5.41554,2.51122 5.41554,5.60897z"/></g><g fill="none" stroke="#ffffff" stroke-width="0.5" stroke-linecap="butt"><path d="M235.11449,112.05534c0,0.94665 -0.74096,1.71407 -1.65497,1.71407c-0.91401,0 -1.65497,-0.76742 -1.65497,-1.71407c0,-0.94665 0.74096,-1.71407 1.65497,-1.71407c0.91401,0 1.65497,0.76742 1.65497,1.71407z"/><path d="M236.41482,112.05534c0,1.69046 -1.32314,3.06084 -2.9553,3.06084c-1.63216,0 -2.95529,-1.37038 -2.95529,-3.06084c0,-1.69045 1.32313,-3.06083 2.95529,-3.06083c1.63216,0 2.9553,1.37038 2.9553,3.06083z"/></g><g fill="#ffffff" stroke="none" stroke-width="0" stroke-linecap="butt"><path d="M213.26983,93.98706c0.80999,1.15284 1.05643,3.75521 -0.09816,4.56644c-1.1546,0.81123 -3.43944,-0.45093 -4.24943,-1.60377c-0.80999,-1.15284 -0.10463,-2.40052 1.04997,-3.21175c1.1546,-0.81123 2.48764,-0.90376 3.29763,0.24908z"/><path d="M217.17847,91.80682c0.70587,1.36528 0.58933,4.21444 -0.77805,4.92139c-1.36738,0.70695 -3.65132,-0.99352 -4.35719,-2.3588c-0.70587,-1.36528 0.24014,-2.6101 1.60752,-3.31705c1.36738,-0.70695 2.82185,-0.61082 3.52772,0.75446z"/><path d="M222.87602,89.61232c0.36303,1.90488 -0.66878,5.97718 -2.57657,6.34076c-1.90779,0.36359 -4.19201,-3.18216 -4.55505,-5.08704c-0.36303,-1.90488 1.22846,-3.07041 3.13626,-3.434c1.90779,-0.36359 3.63233,0.2754 3.99536,2.18028z"/><path d="M228.01828,87.31505c0.26362,1.92117 -1.32494,5.01644 -3.24904,5.28047c-1.9241,0.26403 -3.67443,-2.47763 -3.93805,-4.39879c-0.26362,-1.92117 1.38625,-3.00246 3.31036,-3.26649c1.9241,-0.26403 3.61311,0.46365 3.87674,2.38482z"/><path d="M233.90029,87.2289c-0.38059,1.90145 -2.89592,4.30509 -4.80027,3.92392c-1.90436,-0.38117 -2.65941,-3.54507 -2.27881,-5.44652c0.38059,-1.90145 2.29374,-2.38228 4.1981,-2.0011c1.90436,0.38117 3.26158,1.62225 2.88099,3.5237z"/><path d="M237.83221,90.72304c-0.72126,1.80004 -3.63305,3.70419 -5.43584,2.98183c-1.80279,-0.72236 -1.96769,-3.97091 -1.24643,-5.77095c0.72126,-1.80004 2.69004,-1.92359 4.49283,-1.20123c1.80279,0.72236 2.9107,2.19031 2.18944,3.99035z"/><path d="M240.72332,96.14133c-1.5286,1.1932 -5.00298,1.37488 -6.19801,-0.15606c-1.19503,-1.53095 0.29601,-4.42181 1.82461,-5.61501c1.5286,-1.1932 3.29248,-0.30998 4.48752,1.22096c1.19503,1.53095 1.41449,3.35692 -0.11412,4.55011z"/><path d="M241.53163,100.68825c-1.65346,1.01314 -6.54181,1.63078 -7.55649,-0.02522c-1.01468,-1.656 2.20861,-5.18925 3.86207,-6.20239c1.65346,-1.01314 3.30644,0.06342 4.32112,1.71942c1.01468,1.656 1.02676,3.49505 -0.6267,4.50819z"/><path d="M241.3479,105.19504c-1.45361,0.49929 -4.25533,-0.03138 -4.75538,-1.48721c-0.50005,-1.45583 1.51521,-3.46747 2.96881,-3.96676c1.45361,-0.49929 2.54721,0.6181 3.04726,2.07393c0.50005,1.45583 0.19292,2.88075 -1.26069,3.38004z"/></g><path d="M254.58065,116.29996c0,0.6979 -0.57731,1.26366 -1.28945,1.26366c-0.60575,0 -1.6112,-0.1607 -1.74953,-0.71252c0.21243,0.16879 0.72992,0.10387 1.02233,0.10387c0.68741,0 1.82482,-0.64014 1.82482,-1.32755c0,-0.13456 0.1444,-0.26413 0.1049,-0.38552c0.35179,0.22566 0.08693,0.61527 0.08693,1.05807z" fill="#000000" stroke="none" stroke-width="0" stroke-linecap="butt"/><path d="M252.31861,113.1652c0.98474,0 1.78302,0.80931 1.78302,1.80766c0,0.99835 -0.79829,1.80765 -1.78302,1.80765c-0.98474,0 -1.78302,-0.80931 -1.78302,-1.80765c0,-0.99834 0.79829,-1.80766 1.78302,-1.80766z" fill-opacity="0.24194" fill="#000000" stroke="none" stroke-width="0" stroke-linecap="butt"/><path d="M254.58065,116.65295c0,0.6979 -0.57731,1.26366 -1.28945,1.26366c-0.60575,0 -1.6112,-0.1607 -1.74953,-0.71252c0.21243,0.16879 0.72992,0.10387 1.02233,0.10387c0.68741,0 1.82482,-0.64014 1.82482,-1.32756c0,-0.13456 0.1444,-0.26413 0.1049,-0.38551c0.35179,0.22566 0.08693,0.61526 0.08693,1.05806z" fill-opacity="0.24194" fill="#000000" stroke="none" stroke-width="0" stroke-linecap="butt"/><path d="M236.83251,184.73925c0,1.53819 -1.1555,10.73111 -0.8762,21.57359c-7.03964,1.84541 -8.43138,2.83811 -15.03178,5.91868c-0.89574,-8.11484 -8.36454,-12.76881 -8.87516,-26.87343c1.01355,-9.18476 2.95934,-7.37578 2.39954,-20.86642c-0.08254,-1.98908 8.51065,-6.94646 14.65463,-0.317c4.84675,5.22973 7.72897,19.19478 7.72897,20.56459z" fill="#773128" stroke="none" stroke-width="0" stroke-linecap="butt"/><path d="M235.97747,231.67146c-2.19587,0 -15.15398,10.02669 -18.25968,-10.30381c3.07335,-1.44217 6.15401,-2.85397 9.27879,-4.14054c1.43183,2.55711 3.51677,4.13001 5.79966,6.02227c1.45714,1.2078 3.03912,2.31458 4.71198,3.32247c-0.2626,3.1223 -0.73971,5.09961 -1.53075,5.09961z" fill="#773128" stroke="none" stroke-width="0" stroke-linecap="butt"/><path d="M238.64411,211.74492c0.068,3.71359 0.06688,7.26826 -0.05483,10.233c-1.15516,-0.75077 -2.25534,-1.55411 -3.28612,-2.41075c-1.93128,-1.60499 -3.80839,-2.91974 -5.05747,-5.0332c2.75064,-1.06431 5.54193,-2.01507 8.39842,-2.78905z" fill="#773128" stroke="none" stroke-width="0" stroke-linecap="butt"/><path d="M237.57724,237.38744c0,2.13559 2.41415,56.76846 -0.08755,56.76846c-2.5017,0 -17.56647,-0.84739 -17.56647,-2.98298c0,-2.1356 -2.65525,-54.62485 -0.15355,-54.62485c1.28873,0 4.0046,1.78948 7.72937,1.67402c3.50579,-0.10868 10.07821,-1.8701 10.07821,-0.83464z" fill="#773128" stroke="none" stroke-width="0" stroke-linecap="butt"/><path d="M233.19436,187.347c0,3.31586 1.21962,17.79726 -2.03704,17.79726c-1.03712,0 -8.50314,1.38106 -9.8191,-3.50855c-5.11074,-4.95754 -7.22768,-13.52981 -7.22768,-15.78969c0,-1.78608 2.53695,-6.61725 3.40826,-12.07979c0.74628,-4.67868 -0.30059,-10.2204 1.20188,-10.2204c1.16053,0 6.5483,1.10044 8.86274,4.59925c4.18033,6.31953 5.61094,17.06768 5.61094,19.20192z" fill="#894939" stroke="none" stroke-width="0" stroke-linecap="butt"/><path d="M204.39171,253.83613c-1.21856,0 -0.73783,-17.14981 -0.84881,-38.12681c-0.09246,-17.47714 -0.90443,-39.15481 -0.57398,-41.39364c1.19878,-8.12187 3.58532,-7.11968 4.97579,-7.11968c1.40186,0 -1.87587,10.28207 -2.514,18.59462c-0.03149,0.41013 0.15146,0.93882 0.1167,1.58629c-0.74508,13.87608 5.56056,18.88535 5.17137,26.04242c-0.12294,2.26067 2.63765,10.41777 2.72983,16.81262c0.09264,6.42663 -7.93723,23.60418 -9.0569,23.60418z" fill="#8d6e47" stroke="none" stroke-width="0" stroke-linecap="butt"/></g></g></svg>