<svg version="1.1" xmlns="http://www.w3.org/2000/svg" xmlns:xlink="http://www.w3.org/1999/xlink" width="34.17311" height="34.17311" viewBox="0,0,34.17311,34.17311"><g transform="translate(-222.91345,-162.91345)"><g data-paper-data="{&quot;isPaintingLayer&quot;:true}" stroke="none" stroke-miterlimit="10" stroke-dasharray="" stroke-dashoffset="0" style="mix-blend-mode: normal"><path d="M229.98312,162.91346h20.03379c3.9166,0 7.06966,3.15307 7.06966,7.06966v20.03379c0,3.91659 -3.15306,7.06966 -7.06966,7.06966h-20.03379c-3.91659,0 -7.06966,-3.15307 -7.06966,-7.06966v-20.03379c0,-3.91659 3.15307,-7.06966 7.06966,-7.06966z" fill="#000000" fill-rule="evenodd" stroke-width="4.43922" stroke-linecap="round" stroke-linejoin="round"/><g fill-rule="nonzero" stroke-width="0" stroke-linecap="butt" stroke-linejoin="miter"><path d="M239.23261,164.71304c0,0 -3.49568,5.2515 -5.37045,8.59394c-1.59483,2.84336 -2.99367,9.58104 -2.99367,9.58104l-2.65985,-0.21659c0,0 -0.40657,0.47213 -0.33756,-0.61783c0.25353,-4.00481 2.7483,-6.83268 4.23834,-9.68509c3.64257,-6.97305 7.1232,-7.65547 7.1232,-7.65547z" fill="#000000"/><path d="M249.40128,183.12899c-2.06161,2.47107 -3.71479,5.86043 -7.31525,7.63227c-0.97991,0.48223 -0.70009,-0.07446 -0.70009,-0.07446l-1.22131,-2.37279c0,0 5.68408,-3.8787 7.6971,-6.44306c2.36636,-3.01446 5.87305,-8.25862 5.87305,-8.25862c0,0 0.70636,3.47584 -4.33352,9.51666z" fill="#000000"/><path d="M227.78317,181.32058c0,0 4.14292,-0.43659 8.83558,2.72711c5.59515,3.77214 6.1598,7.27733 6.1598,7.27733c0,0 -1.2783,2.01123 -4.22055,3.2645c-2.52892,1.0772 -6.19528,0.58541 -6.19528,0.58541l-3.89128,-2.57937c0,0 -2.20508,-3.76025 -2.23958,-5.9483c-0.03327,-2.11031 1.5513,-5.32668 1.5513,-5.32668z" fill="#59220f"/></g></g></g></svg>