<svg version="1.1" xmlns="http://www.w3.org/2000/svg" xmlns:xlink="http://www.w3.org/1999/xlink" width="107.98509" height="278.63046" viewBox="0,0,107.98509,278.63046"><g transform="translate(-191.4564,-64.6151)"><g data-paper-data="{&quot;isPaintingLayer&quot;:true}" fill-rule="nonzero" stroke="none" stroke-linecap="butt" stroke-linejoin="miter" stroke-miterlimit="10" stroke-dasharray="" stroke-dashoffset="0" style="mix-blend-mode: normal"><g><g fill="#000000"><path d="M200.5813,185.96093c0,-21.10292 18.15751,-38.21022 40.55593,-38.21022c22.39843,0 40.82079,17.1073 40.82079,38.21022c0,2.70002 0.0039,117.77204 0.0039,117.77204l-11.39983,-0.12964l-0.14337,-113.82486c0,0 0.46851,-2.08621 -1.77595,-2.22047c-2.48625,-0.14872 -2.11767,1.68282 -2.11767,1.68282l0.10343,114.38802l-50.32146,0.07847l0.10485,-114.20488c0,0 -0.19035,-2.13951 -1.8053,-2.16297c-2.01199,-0.02922 -1.98832,2.04221 -1.98832,2.04221l-0.29988,114.25674l-11.38239,0.22905c0,0 -0.35473,-116.42094 -0.35473,-117.90653z" stroke-width="0"/><g><path d="M230.02084,204.8962c-5.66213,0 -7.34973,-0.4705 -7.34973,-0.4705l-0.08286,-1.2733c0,0 5.25623,0.13066 7.69744,0.13066c4.20542,0 7.61458,-1.35635 7.61458,-0.87378c0,0.48257 -1.95246,2.48691 -7.87944,2.48691z" stroke-width="0"/><path d="M225.51829,199.65353c0,-0.55682 0.44467,-1.00821 0.99321,-1.00821c0.54854,0 0.99321,0.45139 0.99321,1.00821c0,0.55682 -0.44467,1.00821 -0.99321,1.00821c-0.54854,0 -0.99321,-0.45139 -0.99321,-1.00821z" stroke-width="0.5"/></g><g data-paper-data="{&quot;index&quot;:null}"><path d="M244.83605,202.40929c0,-0.48257 3.40916,0.87378 7.61458,0.87378c2.44121,0 7.69744,-0.13066 7.69744,-0.13066l-0.08286,1.2733c0,0 -1.6876,0.4705 -7.34973,0.4705c-5.92698,0 -7.87944,-2.00433 -7.87944,-2.48691z" stroke-width="0"/><path d="M256.2247,200.66173c-0.54853,0 -0.99321,-0.45139 -0.99321,-1.00821c0,-0.55682 0.44467,-1.00821 0.99321,-1.00821c0.54853,0 0.99321,0.45139 0.99321,1.00821c0,0.55682 -0.44467,1.00821 -0.99321,1.00821z" stroke-width="0.5"/></g><path d="M240.3833,253.12207c0,-0.55681 0.44467,-1.00821 0.99321,-1.00821c0.54854,0 0.99321,0.45139 0.99321,1.00821c0,0.55681 -0.44467,1.00821 -0.99321,1.00821c-0.54854,0 -0.99321,-0.45139 -0.99321,-1.00821z" stroke-width="0.5"/></g><path d="M214.42174,304.31129v-88.51799h53.21776v88.51799z" fill="#481310" stroke-width="0"/><g data-paper-data="{&quot;index&quot;:null}" stroke-width="0"><path d="M282.77522,264.79038v27.35138l-13.42704,2.32073v-27.35137z" fill="#773128"/><path d="M282.77522,280.90777c-4.26706,3.08047 -8.68428,5.94374 -13.42704,8.3519v-3.5441c4.95754,-3.08101 9.23247,-6.88013 13.42704,-10.79318z" fill="#894939"/><path d="M269.34817,279.89523c0.00673,-0.00853 0.01016,-0.01324 0.01016,-0.01324c3.60859,-4.93806 7.25927,-9.82389 10.96081,-14.66709l2.45607,-0.42451v6.7349c-4.24847,4.00682 -8.50719,7.9719 -13.42704,11.22429z" fill="#894939"/></g><g stroke-width="0"><path d="M269.3482,263.54989v-27.35137l13.42704,2.32073v27.35138z" fill="#773128"/><path d="M282.77522,255.73862c-4.19457,-3.91305 -8.4695,-7.71216 -13.42704,-10.79318v-3.5441c4.74276,2.40816 9.15999,5.27143 13.42704,8.3519z" fill="#894939"/><path d="M269.34817,247.91142c4.91985,3.25239 9.17856,7.21747 13.42704,11.22429v6.7349l-2.45607,-0.42451c-3.70154,-4.8432 -7.35223,-9.72903 -10.96081,-14.66709c0,0 -0.00344,-0.0047 -0.01016,-0.01323z" fill="#894939"/></g><path d="M199.57632,214.77387v-5.00323c0,0 -3.44785,-20.89777 3.88043,-38.4724c5.27731,-12.65602 16.01623,-23.71547 38.25205,-23.40968c19.05733,0.26208 30.66463,9.52997 36.45197,21.03652c2.86782,5.70188 3.18487,11.91552 4.02079,17.73639c1.78841,12.45348 1.39639,23.10917 1.39639,23.10917l-1.05331,31.59936z" fill="#59220f" stroke-width="0"/><path d="M223.32296,165.08082c0,-7.98723 7.56929,-14.46216 16.90648,-14.46216c9.33719,0 16.90648,6.47493 16.90648,14.46216c0,7.98723 -7.56929,14.46217 -16.90648,14.46217c-9.33719,0 -16.90647,-6.47494 -16.90647,-14.46217z" fill="#000000" stroke-width="0"/><path d="M277.05823,177.64951c0.82742,5.09447 -2.06462,21.45046 -4.51628,30.58449c2.22692,0.34267 4.75119,0.88118 4.6701,1.554c-0.40683,3.37551 -5.65822,10.71433 -11.60997,13.71228c2.0915,2.35766 5.18822,6.00917 4.30509,6.00917c-4.21779,0 -22.06095,-6.25137 -37.9736,-13.48611c-0.18058,-1.77447 -0.43966,-3.52806 -0.7972,-5.25227c-2.17203,-10.37751 -6.71642,-22.23231 -15.90663,-28.4924c-2.16156,-1.47239 -4.94291,-2.43393 -7.51497,-3.24026c1.82276,-6.41328 4.62056,-11.67005 8.56379,-11.67005c5.36582,0 11.58576,19.03904 24.04588,17.64667c5.22674,-0.33707 12.98813,-2.93841 17.65681,-8.80522c4.77089,-5.99525 18.35728,-2.99163 19.077,1.43971z" fill="#6d4321" stroke-width="0"/><path d="M202.25261,200.54889c0,-4.03444 0.65319,-10.56192 2.08524,-16.55793c2.3107,0.71559 4.82345,1.57039 6.73234,2.88595c2.7359,1.88551 5.02511,4.29738 6.94125,7.02401c-0.17842,0.18116 -0.26678,0.3621 -0.26678,0.3621c-2.39508,4.90422 -4.5416,9.91199 -6.55226,14.97674c-5.41648,-3.3582 -8.93979,-6.43918 -8.93979,-8.69088z" fill="#6d4321" stroke-width="0"/><path d="M227.21029,216.98835c0.24515,1.15935 0.44321,2.33389 0.60082,3.5206c-4.80793,-2.25149 -9.35167,-4.56805 -13.18008,-6.79691c1.90623,-4.81933 3.93424,-9.58747 6.18254,-14.26344c3.2095,5.41469 5.17997,11.72639 6.39672,17.53975z" fill="#6d4321" stroke-width="0"/><path d="M263.39667,247.5534c0,3.02252 0.18204,12.96134 -0.1496,23.62193c-7.28787,-0.23966 -14.57498,-0.49454 -21.85794,-0.84028c-0.90716,-2.30896 -1.84385,-4.62839 -2.81047,-6.91714c-12.12163,-3.46794 -20.95454,-36.96213 -20.95454,-36.96213c0,0 16.17786,4.2505 29.87482,7.71179c8.98776,2.27125 15.89774,10.47159 15.89774,13.38584z" fill="#531915" stroke-width="0"/><path d="M254.41881,305.40897c-3.44146,0 -8.1388,-14.56407 -14.2233,-30.33921c4.22522,0.1953 8.45177,0.36139 12.67899,0.51299c-0.05788,0.51763 -0.48572,3.59835 -0.29245,4.37938c0.84607,3.41899 4.19116,5.72877 6.57149,8.10719c0.31254,0.31228 0.62981,0.61995 0.95124,0.92351c-0.94897,9.24105 -2.65303,16.41615 -5.68599,16.41615z" fill="#531915" stroke-width="0"/><path d="M265.03336,273.67368c-0.12987,3.35329 -0.31514,6.72998 -0.57701,9.94128c-1.92211,-1.77117 -4.78076,-3.84265 -5.36121,-6.31517c-0.27779,-1.18329 0.18878,-2.42403 0.32363,-3.63198c0,0 0.00799,-0.07189 0.00283,-0.18301c1.8705,0.06481 3.74111,0.12734 5.61177,0.18888z" fill="#531915" stroke-width="0"/></g><path d="M282.36126,146.32828c0,0 -10.02983,-0.07689 -11.03227,-1.00938c-0.7345,-0.68325 5.99687,-2.22477 5.99687,-2.22477l-2.64787,14.25166c0,0 -7.20692,1.26777 -11.01233,1.86204c-2.10907,0.32935 -1.39365,4.47172 -1.39365,4.47172c0,0 -4.4083,3.95756 -18.53632,4.2196c-2.68765,0.04985 -8.38556,0.51613 -14.49123,-2.46803c-3.4334,-1.67809 -6.35311,-4.18702 -8.30685,-6.13253c0.11245,-0.60034 0.17126,-1.21957 0.17126,-1.85254c0,-1.14301 -0.19177,-2.24123 -0.54489,-3.26424c-2.26178,-10.06424 -9.17788,-17.34918 -9.60417,-29.51744c-0.32146,-9.17574 1.29348,-18.86185 2.19421,-27.95829c0.15153,-1.53028 -0.10709,-4.22482 0.27911,-5.17608c0.6802,-1.67539 1.81445,-3.56497 1.24265,-5.28038c-1.14326,-3.42978 -2.39612,-5.81837 -4.01074,-7.29185c0.78332,-1.20728 1.69573,-2.45683 2.76231,-3.76041c6.13328,-7.49611 20.26726,-10.5208 28.68941,-10.58184c6.23566,-0.04519 23.15213,3.53469 29.04658,8.99434c1.63848,1.51762 5.96544,5.46139 5.96544,5.46139c0,0 -1.64929,1.44112 -2.48299,2.6995c1.72564,2.62541 2.53563,4.59281 5.43502,9.76234c4.16722,7.43003 5.94603,14.17289 5.94603,14.17289c0,0 -4.92404,2.63714 -9.50925,0.83156c-1.42883,-0.56265 5.19708,-6.18998 4.47006,-5.90214c0.42948,3.37328 0.46061,5.58737 0.46061,5.58737l8.06204,19.25848c0,0 -9.49852,2.00212 -11.89221,0.77037c-0.90822,-0.46736 9.12539,-7.54151 8.2382,-7.29544c0.38014,1.73803 -3.47463,5.02016 -2.83537,7.01229c1.55127,4.83423 -0.65968,20.35981 -0.65968,20.35981z" data-paper-data="{&quot;index&quot;:null}" fill="#000000" stroke-width="NaN"/><path d="M221.23869,144.13867l-0.19779,-0.04395l-0.05053,-0.85903z" data-paper-data="{&quot;index&quot;:null}" fill="#000000" stroke-width="NaN"/><path d="M197.22567,124.9858c0.63926,-1.99213 1.10513,-4.01408 1.48527,-5.75211c-3.22545,-0.89458 -7.25454,-4.45653 -7.25454,-4.45653l11.66257,-8.27687c0,0 0.03113,-2.2141 0.46061,-5.58738c-2.07057,-0.81978 -4.17554,-1.9983 -4.17554,-1.9983c0,0 7.08012,-13.15754 11.28598,-19.55638c-0.83371,-1.25838 -1.71441,-3.0838 -1.71441,-3.0838c0,0 2.78979,-0.86945 4.42828,-2.38707c5.89445,-5.45964 22.81092,-9.03953 29.04658,-8.99434c8.42215,0.06104 22.55613,3.08573 28.68941,10.58184c1.06658,1.30358 1.97899,2.55313 2.76231,3.76041c-1.61462,1.47348 -2.86748,3.86207 -4.01074,7.29185c-0.57181,1.71542 0.56244,3.60498 1.24265,5.28038c0.3862,0.95126 0.12759,3.6458 0.27912,5.17608c0.90072,9.09644 2.51566,18.78254 2.1942,27.95828c-0.42629,12.16827 -7.34239,19.45321 -9.60417,29.51745c-0.35312,1.02301 -0.54488,2.12123 -0.54488,3.26424c0,0.63297 0.05881,1.25221 0.17126,1.85254c-1.95374,1.94552 -4.87344,4.45444 -8.30685,6.13253c-6.10567,2.98416 -11.80358,2.51788 -14.49123,2.46803c-14.12802,-0.26204 -18.53632,-4.2196 -18.53632,-4.2196l-2.5785,-6.14072c-1.30747,0.07111 -3.36706,-0.16197 -5.47613,-0.49132c-3.80541,-0.59427 -7.77185,-1.50198 -7.77185,-1.50198c0,0 0.55965,-7.83706 0.77263,-12.45139c-4.64996,-0.23963 -13.85669,-1.62655 -13.85669,-1.62655c0,0 2.28971,-11.92505 3.84097,-16.75928z" fill="#000000" stroke-width="NaN"/><path d="M217.45346,152.26241c-1.12791,-6.71582 -0.20637,-6.94188 -1.0642,-13.44379c-0.47362,-3.58977 -2.15797,-7.18909 -2.73202,-11.13223c-1.20896,-8.30433 -1.27196,-25.65977 -0.47554,-29.40025c4.41933,-20.75585 15.3863,-24.96608 29.85603,-25.48425c20.77576,-0.74399 24.79696,12.48506 27.42961,23.79025c1.84023,7.90235 1.22737,18.92724 -0.34916,28.57116c-0.96559,5.90663 -2.47529,10.80823 -3.46814,15.58687c-1.22544,5.89815 -0.7524,7.76045 -1.86263,12.66938c-1.15349,5.10023 -6.83176,10.81045 -11.83191,15.83737c-4.57165,4.59612 -7.90818,8.33063 -12.38271,8.22359c-5.04445,-0.12068 -8.96195,-6.22631 -14.50155,-12.44391c-4.38889,-4.92605 -8.03319,-9.29321 -8.61781,-12.77419z" fill="#000000" stroke-width="0"/><path d="M266.67601,128.82193c-0.04558,0.22121 1.06922,-0.05581 1.0177,0.16612c-0.65882,2.83831 -1.43442,5.55499 -2.06444,8.1239c-0.87304,3.55983 -7.94751,7.87132 -7.94751,7.87132c0,0 7.00897,4.47529 6.75996,5.70833c-1.44877,7.17412 -1.89749,7.6493 -4.27323,10.63261c-2.5746,3.23301 -7.04766,4.91091 -9.94012,7.66936c-2.62204,2.50056 -5.47801,6.21315 -8.77908,6.21315c-4.10432,0 -6.9048,-3.78999 -10.07829,-7.4154c-4.16404,-4.75701 -10.9977,-8.70422 -13.42631,-15.75606c-1.28428,-4.28357 10.56475,-3.78963 10.56475,-3.78963c0,0 -4.89427,7.97889 -5.74686,-0.95267c-0.13224,-1.1816 5.73929,-0.74072 5.73929,-0.74072c0,0 -10.69357,-9.92476 -11.1668,-12.68409c0.10245,-0.00441 0.2045,-0.01037 0.30613,-0.01784c0.4043,-0.02973 0.80191,-0.0835 1.19143,-0.15988c12.61498,-2.12302 24.9513,-4.93303 37.5278,-7.27474c4.05652,-0.75531 6.3613,-1.21883 10.50811,-1.42667c-0.11602,0.90642 -4.37733,2.31708 -4.18663,3.2359c0.02977,0.14343 4.02371,0.45325 3.99408,0.59702z" fill="#ffffff" stroke-width="0"/><path d="M228.24281,114.35071c5.64136,0 10.21459,4.47197 10.21459,9.98843c0,5.51646 -4.7706,9.74171 -10.41197,9.74171c-5.64137,0 -10.31875,-4.22525 -10.31875,-9.74171c0,-5.51645 4.87476,-9.98843 10.51613,-9.98843z" fill="#000000" stroke-width="0"/><path d="M254.80274,114.37533c5.64136,0 10.21459,4.47198 10.21459,9.98844c0,5.51645 -4.72127,9.64301 -10.36263,9.64301c-3.16285,0 -6.23667,-1.06026 -8.11031,-3.26759c-1.46826,-1.72975 -1.95625,-3.95178 -1.95625,-6.37542c0,-5.51646 4.57322,-9.98844 10.21459,-9.98844z" fill="#000000" stroke-width="0"/><path d="M213.28848,117.68194l0.13102,-1.63769l7.19167,-1.18423l0.32653,-1.46623c0,0 3.68245,-1.72538 7.2562,-2.03587c3.72054,-0.32324 9.00496,-0.09575 9.00496,-0.09575l0.32754,4.71657c0,0 -4.80797,-1.2906 -8.17678,-1.07798c-6.17314,0.38961 -6.13035,1.25866 -10.09703,1.94554c-3.96668,0.68688 -5.96411,0.83565 -5.96411,0.83565z" fill="#000000" stroke-width="0"/><path d="M257.42143,111.36342c-6.5361,-0.02665 -11.93017,2.50832 -11.93017,2.50832l-0.26203,-4.42239c0,0 5.28442,-1.73418 9.39801,-1.86949c4.11358,-0.13531 7.12519,0.66021 7.12519,0.66021l0.19551,1.20419l7.3882,2.16685l0.13101,1.6377c0,0 -5.86035,-1.86016 -12.04572,-1.88538z" data-paper-data="{&quot;index&quot;:null}" fill="#000000" stroke-width="0"/><g stroke-width="0"><path d="M242.67593,182.79391c-4.3957,-0.18482 -12.02421,-0.78561 -15.49616,-4.90557c-4.33064,-5.13892 -5.85907,-11.66718 -6.69687,-16.4165c-0.47488,-2.692 -1.58602,-5.22634 -1.58602,-5.22634c0,0 3.29244,-1.80356 6.39996,-3.12328c3.26113,-1.38496 6.98021,-2.92955 9.54218,-2.7841c1.74995,0.09936 6.2403,1.75782 6.2403,1.75782c0,0 5.34626,-1.99451 8.36498,-1.18306c4.09072,1.0996 14.0383,6.53937 14.0383,6.53937c0,0 -1.08523,11.69718 -6.28868,19.08268c-3.33893,4.73909 -9.44206,6.47241 -14.51799,6.25899z" fill="#000000"/><path d="M240.77696,180.54131c-4.01707,-0.1794 -9.14862,-1.38791 -12.08968,-4.9938c-3.04293,-3.73079 -4.20507,-8.54838 -5.3051,-12.35552c-0.90519,-3.1328 -2.00826,-5.65932 -2.00826,-5.65932c0,0 4.15289,0.95632 6.12361,3.38517c2.45465,3.0253 3.11735,7.84717 6.69439,10.27314c2.07936,1.41023 4.83285,1.80529 6.51361,1.87334c2.67244,0.1082 5.44098,-0.42266 7.62702,-1.33169c3.38509,-1.40764 4.53503,-5.725 7.82434,-8.95125c3.28932,-3.22624 4.84878,-3.47883 4.84878,-3.47883c0,0 -0.62179,10.16788 -6.05921,16.42879c-3.19132,3.67464 -9.88172,5.00143 -14.16948,4.80994z" fill="#ffffff"/><path d="M222.86014,156.08459c0,0 1.4559,-0.53347 3.39301,-1.24036c2.48041,-0.90514 5.7498,-2.04317 7.76194,-2.15948c2.56372,-0.14819 8.33066,2.27354 8.33066,2.27354c0,0 4.80833,-2.43964 7.25285,-2.01998c3.15289,0.54127 10.08603,4.99662 10.08603,4.99662c0,0 -11.86997,-0.11789 -17.94131,-0.42296c-6.20077,-0.31157 -18.88319,-1.42738 -18.88319,-1.42738z" fill="#ffffff"/><path d="M230.62132,158.57853c0,0 7.16654,0.37417 10.90022,0.52897c4.00807,0.16618 12.38343,0.43642 12.38343,0.43642c0,0 -7.6925,1.97815 -12.71519,1.76989c-5.02269,-0.20826 -10.56847,-2.73529 -10.56847,-2.73529z" fill="#ffffff"/><path d="M249.44634,168.55431c0,0 -0.94107,3.14569 -8.2979,2.81574c-6.12538,-0.27473 -7.88507,-3.94204 -7.88507,-3.94204c0,0 3.4933,1.76989 7.8025,1.76989c4.3092,0 8.38046,-0.6436 8.38046,-0.6436z" fill="#ffffff"/></g><path d="M227.71919,119.39081c2.71342,0 4.91309,2.23007 4.91309,4.98099c0,2.75092 -2.19966,4.98098 -4.91309,4.98098c-2.71342,0 -4.91309,-2.23006 -4.91309,-4.98098c0,-2.75092 2.19966,-4.98099 4.91309,-4.98099z" fill="#a1634f" stroke-width="0"/><path d="M254.87175,119.60993c2.71342,0 4.91309,2.23006 4.91309,4.98098c0,2.75092 -2.19966,4.98098 -4.91309,4.98098c-2.71342,0 -4.91309,-2.23006 -4.91309,-4.98098c0,-2.75091 2.19966,-4.98098 4.91309,-4.98098z" fill="#a1634f" stroke-width="0"/><g stroke-width="0"><path d="M238.90971,145.55978c0,0 -0.06312,-8.68679 -0.28083,-12.38791c-0.17487,-2.97289 -0.92532,-8.11666 -0.92532,-8.11666c0,0 -0.33218,-1.57308 0.02454,-1.56279c1.13657,0.03279 7.81544,1.78895 7.81544,1.78895l-0.37692,20.27841c0,0 0.82184,1.93768 0.72844,3.69896c-0.06976,1.31553 -0.97469,4.70292 -1.02626,5.67536c-0.11348,2.13998 -0.40577,3.89334 -0.40577,3.89334l-4.14036,-0.01448c0,0 -0.12488,-2.01528 -0.87252,-4.2695c-0.71961,-2.16969 -2.11593,-4.55553 -2.18508,-5.58924c-0.19994,-2.9885 1.64464,-3.39445 1.64464,-3.39445z" fill="#000000"/><path d="M241.27174,157.83772c0,0 -0.2909,-3.80356 -0.49735,-8.24071c-0.20504,-4.40659 -0.32473,-9.70108 -0.5883,-13.30096c-0.42508,-5.80554 -1.77895,-15.81414 -1.77895,-15.81414l6.10614,1.88461l-0.75385,35.43068z" fill="#ffffff"/><path d="M238.85416,146.73779c0.34401,0 0.62288,4.77542 0.62288,4.77542c0,0 -1.24576,-1.59275 -1.24576,-2.7251c0,-1.13236 0.27887,-2.05032 0.62288,-2.05032z" fill="#ffffff"/></g><path d="M217.54647,124.93148c0,0 -0.16627,-2.22288 0.81062,-4.59656c1.16899,-2.84044 3.93233,-5.91812 9.99819,-5.95021c4.4123,-0.02334 6.77688,1.48178 8.31843,3.36171c2.53146,3.08714 2.42486,7.54013 2.42486,7.54013z" fill="#000000" stroke-width="0"/><path d="M244.50744,124.95289c0,0 -0.53134,-3.2454 0.9459,-6.12374c1.32927,-2.59004 4.34124,-4.84529 9.8629,-4.81608c11.13492,0.0589 11.0941,11.29489 11.0941,11.29489z" data-paper-data="{&quot;index&quot;:null}" fill="#000000" stroke-width="0"/><path d="M216.72384,139.19293l-0.89153,-6.10353c0,0 22.91957,-3.51157 22.56569,-5.91024c-1.51732,-10.28452 -25.01038,-10.82652 -25.01038,-10.82652c0,0 12.56594,-2.65601 30.15432,-2.95127c13.78103,-0.23135 26.30483,2.95127 26.30483,2.95127l-2.95127,23.09693c0,0 -3.61551,0.66804 -21.61505,1.1467c-1.33138,0.03541 -2.67944,-1.27097 -3.77653,-1.27658c-1.55086,-0.00793 -2.65251,1.05948 -4.61127,1.02083c-12.83637,-0.25331 -20.1688,-1.14758 -20.1688,-1.14758z" fill="#000000" stroke-width="0"/><g stroke-width="0"><path d="M252.68193,317.96533c0,0 2.48458,-0.6626 5.46006,-1.50045c3.32047,-0.93499 7.3169,-2.0559 10.47771,-2.0559c2.61209,0 7.47414,2.40019 7.47414,2.40019c0,0 3.89246,-2.39783 6.75698,-2.23981c2.0607,0.11367 6.20622,1.0566 9.69726,1.87246c3.81147,0.89073 6.89341,1.39181 6.89341,1.39181c0,0 -0.25461,2.87224 -1.30916,7.18195c-0.991,4.05008 -2.65767,9.43122 -6.41668,13.02442c-3.52263,3.36726 -9.17425,5.10419 -16.24667,4.9516c-4.01774,-0.08669 -10.55301,-1.39745 -13.68285,-4.49684c-3.78137,-3.74461 -5.41305,-9.25629 -6.75068,-13.50893c-1.29152,-4.10605 -2.35352,-7.02049 -2.35352,-7.02049z" fill="#000000"/><path d="M256.90845,318.49867c0,0 7.2283,-2.18398 10.53964,-2.21872c2.91702,-0.03059 8.29588,2.02113 8.29588,2.02113c0,0 4.95285,-1.81768 7.63768,-1.75821c1.80575,0.04 4.85451,0.7834 7.64453,1.28006c3.13393,0.55786 5.52905,0.93917 5.52905,0.93917c0,0 -7.52638,3.11424 -19.75797,3.35879c-9.13845,0.18269 -19.88883,-3.62221 -19.88883,-3.62221z" fill="#ffffff"/><path d="M255.26195,320.01343c0,0 3.43122,0.79399 5.89452,3.07535c1.49227,1.38203 2.56897,3.03353 3.73952,4.57803c1.97608,2.60736 4.46322,4.90974 11.44293,5.09587c3.05548,0.08148 5.06724,-0.45624 6.73455,-1.06124c2.31525,-0.84013 3.83178,-1.94459 4.92038,-3.33743c1.10137,-1.4092 1.76933,-3.1089 3.19219,-4.31959c3.27322,-2.78514 6.6205,-3.70168 6.6205,-3.70168c0,0 -0.89369,3.21539 -2.41837,6.79961c-2.50257,5.88304 -7.48606,13.31763 -18.78805,13.28723c-5.62513,-0.01513 -9.44262,-1.27244 -12.49822,-3.55504c-4.09082,-3.05593 -5.32569,-7.6446 -6.51901,-11.17955c-1.11952,-3.31632 -2.32091,-5.68156 -2.32091,-5.68156z" fill="#ffffff"/><path d="M276.73464,323.9036c3.85169,0.08705 11.98338,-0.72896 11.98338,-0.72896c0,0 -4.47913,2.51307 -11.72386,2.61496c-6.03816,0.08494 -11.59005,-3.14185 -11.59005,-3.14185c0,0 7.41205,1.1673 11.33054,1.25584z" fill="#ffffff"/><path d="M276.07154,328.729c3.7665,0.01334 9.68288,-1.55897 9.68288,-1.55897c0,0 -1.53543,3.78789 -9.68445,3.64115c-7.63268,-0.13744 -9.21695,-4.36559 -9.21695,-4.36559c0,0 4.90586,2.26813 9.2185,2.28341z" fill="#ffffff"/></g><g stroke-width="0"><path d="M214.62659,339.37948c-4.16113,-4.28061 -5.16832,-8.92191 -6.70855,-13.77321c-1.5419,-4.85656 -2.63142,-9.2326 -2.63142,-9.2326c0,0 10.78575,-5.27994 16.75801,-5.04182c2.02147,0.0806 7.08698,2.07544 7.08698,2.07544c0,0 4.88911,-2.24804 7.73793,-1.63441c4.09457,0.88196 14.47786,6.41963 14.47786,6.41963c0,0 0.26182,13.50779 -7.95743,20.72877c-3.97236,3.48989 -8.41358,4.12276 -13.72193,4.30126c-5.47644,0.18415 -11.98998,-0.70395 -15.04146,-3.84305z" fill="#000000"/><path d="M207.84284,318.42187c0,0 1.78881,-0.07589 6.28639,3.4252c4.12187,3.20863 3.12711,11.07477 14.84327,10.7666c2.23312,-0.05874 4.06243,-0.0882 5.52701,-0.47621c2.38167,-0.63097 3.87969,-1.88674 5.18327,-3.35064c1.23851,-1.39084 2.44839,-3.07681 3.57863,-4.37868c2.76778,-3.18809 5.87392,-4.11829 5.87392,-4.11829c0,0 -0.53843,2.13406 -1.19335,5.02679c-1.38992,6.13919 -5.19942,15.58993 -18.81384,15.52114c-13.05197,-0.06594 -16.068,-6.88473 -18.12739,-12.94919c-1.69997,-5.00603 -3.1579,-9.46674 -3.1579,-9.46674z" fill="#ffffff"/><path d="M210.15327,316.6522c0,0 7.30929,-2.85693 10.7653,-2.98851c2.90318,-0.11053 8.60284,2.25114 8.60284,2.25114c0,0 5.1332,-2.36473 7.92988,-1.96194c1.94555,0.2802 4.86591,1.92406 7.18672,3.15998c1.47633,0.7862 2.97344,1.40732 2.97344,1.40732c0,0 -10.75954,0.76303 -18.33313,0.43752c-10.05922,-0.43233 -19.12505,-2.30552 -19.12505,-2.30552z" fill="#ffffff"/><path d="M237.1102,327.91967c0,0 0.69938,3.13705 -8.74406,2.93912c-7.17013,-0.15028 -8.07354,-3.93378 -8.07354,-3.93378c0,0 4.4432,1.82 8.90922,1.82c4.46602,0 7.90838,-0.82534 7.90838,-0.82534z" fill="#ffffff"/><path d="M229.32473,322.82972c-8.54037,-0.54335 -10.56891,-2.45788 -10.56891,-2.45788l22.02266,0.88484c0,0 -6.01943,1.91878 -11.45375,1.57304z" fill="#ffffff"/></g><g stroke-width="0"><path d="M216.72385,125.55498l-3.33622,-18.31903c0,0 12.56594,-2.13025 30.15432,-2.36706c13.78103,-0.18555 26.30483,2.36706 26.30483,2.36706l-2.95127,18.52487c0,0 -3.61551,0.5358 -21.61505,0.9197c-1.33138,0.0284 -2.67944,-1.01937 -3.77653,-1.02388c-1.55086,-0.00636 -2.65251,0.84976 -4.61127,0.81875c-12.83637,-0.20317 -20.1688,-0.92042 -20.1688,-0.92042z" fill="#481310"/><g><path d="M216.72385,123.83674l-3.33622,-18.31903c0,0 12.56594,-2.13025 30.15432,-2.36706c13.78103,-0.18555 26.30483,2.36706 26.30483,2.36706l-2.95127,18.52487c0,0 -3.61551,0.5358 -21.61505,0.9197c-1.33138,0.0284 -2.67944,-1.01937 -3.77653,-1.02388c-1.55086,-0.00636 -2.65251,0.84976 -4.61127,0.81875c-12.83637,-0.20317 -20.1688,-0.92042 -20.1688,-0.92042z" fill="#59220f"/><path d="M221.72989,122.49954l-2.71246,-13.63816c0,0 10.21654,-1.58592 24.5165,-1.76223c11.20445,-0.13815 21.38673,1.76223 21.38673,1.76223l-2.39949,13.7914c0,0 -2.93952,0.39889 -17.57378,0.68471c-1.08246,0.02114 -2.17848,-0.7589 -3.07045,-0.76226c-1.26091,-0.00474 -2.15659,0.63263 -3.74912,0.60955c-10.43641,-0.15126 -16.39794,-0.68524 -16.39794,-0.68524z" data-paper-data="{&quot;index&quot;:null}" fill="#481310"/><path d="M221.72991,121.3707l-2.71246,-13.63816c0,0 7.4752,-1.16039 18.58711,-1.60636c1.87869,-0.0754 3.86134,-0.13039 5.92939,-0.15588c0.36381,-0.00448 0.72653,-0.00682 1.08787,-0.00715c10.76708,-0.00959 20.29886,1.76939 20.29886,1.76939l-2.39949,13.7914c0,0 -2.93953,0.3989 -17.57378,0.68471c-1.08246,0.02114 -2.17848,-0.75891 -3.07045,-0.76225c-1.2609,-0.00474 -2.15659,0.63263 -3.74912,0.60955c-10.43641,-0.15125 -16.39793,-0.68523 -16.39793,-0.68523z" data-paper-data="{&quot;index&quot;:null}" fill="#773128"/><path d="M218.1093,106.98543c0,0.21461 -0.94388,2.04419 -0.79512,4.07199c0.33165,4.52087 1.83448,11.16576 1.15274,11.16576c-0.98754,0 -3.75501,-14.3296 -3.75501,-15.02264c0,-0.69306 0.71115,-0.75293 1.69869,-0.75293c0.98754,0 1.69869,-0.15525 1.69869,0.53781z" fill="#6d4321"/><path d="M267.21236,105.86291c0.98754,0 1.69869,0.05989 1.69869,0.75293c0,0.69306 -2.76747,15.02264 -3.755,15.02264c-0.68174,0 0.82109,-6.64491 1.15274,-11.16575c0.14876,-2.0278 -0.79512,-3.85739 -0.79512,-4.072c0,-0.69306 0.71115,-0.53781 1.69869,-0.53781z" data-paper-data="{&quot;index&quot;:null}" fill="#6d4321"/><path d="M264.63242,105.75274c0,0.18847 -1.35145,0.85222 -3.87878,0.61518c-1.36431,-0.12797 -7.53304,-1.13502 -13.52983,-1.20452c-11.4787,-0.13307 -25.40646,0.6994 -25.40646,0.38084c0,-0.48496 12.77927,-1.60126 22.48945,-1.60126c9.71018,0 20.32561,1.32479 20.32561,1.80977z" fill="#6d4321"/><path d="M219.01743,107.73253c0,0 5.57957,-0.86612 14.26342,-1.38939c0.93795,1.55197 4.3078,3.19272 6.70655,4.61667c0.85584,1.88973 2.57212,3.44833 4.76897,4.37112c2.16552,1.99996 4.71598,3.77991 6.93653,5.70777c0.37235,0.32328 0.72225,0.65008 1.05375,0.97825c-2.13179,0.06572 -4.70393,0.13124 -7.79927,0.19169c-1.08246,0.02114 -2.17848,-0.75891 -3.07045,-0.76225c-1.2609,-0.00474 -2.15659,0.63264 -3.74912,0.60955c-2.45537,-0.03559 -4.66304,-0.09235 -6.60366,-0.15837c-3.69865,-4.97655 -7.3445,-10.55057 -12.50562,-14.15947z" data-paper-data="{&quot;index&quot;:null}" fill="#894939"/><path d="M231.35441,106.46795c1.60937,1.86025 4.13654,3.85466 4.76629,4.40011c4.59279,3.97788 9.25515,7.42385 13.80674,11.22851c-1.48694,0.03847 -3.14117,0.07617 -4.98006,0.11208c-1.08246,0.02114 -2.17848,-0.7589 -3.07045,-0.76225c-1.2609,-0.00474 -2.15659,0.63264 -3.74912,0.60955c-0.22899,-0.00332 -0.45583,-0.00681 -0.68049,-0.0105c-4.23453,-4.13763 -8.31144,-8.34894 -12.49551,-12.5585c-0.4893,-0.49229 -1.21107,-1.3156 -2.08975,-2.24938c2.10567,-0.23975 5.00025,-0.52744 8.49235,-0.76959z" data-paper-data="{&quot;index&quot;:null}" fill="#a1634f"/></g></g></g></g></svg>