<svg version="1.1" xmlns="http://www.w3.org/2000/svg" xmlns:xlink="http://www.w3.org/1999/xlink" width="205.80939" height="293.59891" viewBox="0,0,205.80939,293.59891"><g transform="translate(-140.93621,-48.95049)"><g data-paper-data="{&quot;isPaintingLayer&quot;:true}" fill-rule="nonzero" stroke="none" stroke-linecap="butt" stroke-linejoin="miter" stroke-miterlimit="10" stroke-dasharray="" stroke-dashoffset="0" style="mix-blend-mode: normal"><g><g fill="#000000"><path d="M200.58126,185.96089c0,-21.10292 18.15751,-38.21022 40.55593,-38.21022c22.39843,0 40.82079,17.1073 40.82079,38.21022c0,0.55707 -3.24964,6.87266 -3.24937,14.99925c0.00101,31.26115 3.25327,102.77279 3.25327,102.77279l-11.39983,-0.12964l-0.14337,-113.82486c0,0 0.46851,-2.08621 -1.77595,-2.22047c-2.48625,-0.14872 -2.11767,1.68282 -2.11767,1.68282l0.10343,114.38802l-50.32146,0.07847l0.10485,-114.20488c0,0 -0.19035,-2.13951 -1.8053,-2.16297c-2.01199,-0.02922 -1.98832,2.04221 -1.98832,2.04221l-0.29988,114.25674l-11.38239,0.22905c0,0 2.08354,-63.44328 1.98191,-97.38576c-0.03675,-12.27459 -2.33664,-20.12622 -2.33664,-20.52077z" stroke-width="0"/><g><path d="M230.02075,204.89616c-5.66213,0 -7.34973,-0.4705 -7.34973,-0.4705l-0.08286,-1.2733c0,0 5.25623,0.13066 7.69744,0.13066c4.20542,0 7.61458,-1.35635 7.61458,-0.87378c0,0.48257 -1.95246,2.48691 -7.87944,2.48691z" stroke-width="0"/><path d="M225.51823,199.65349c0,-0.55682 0.44467,-1.00821 0.99321,-1.00821c0.54854,0 0.99321,0.45139 0.99321,1.00821c0,0.55682 -0.44467,1.00821 -0.99321,1.00821c-0.54854,0 -0.99321,-0.45139 -0.99321,-1.00821z" stroke-width="0.5"/></g><g data-paper-data="{&quot;index&quot;:null}"><path d="M244.83601,202.40925c0,-0.48257 3.40916,0.87378 7.61458,0.87378c2.44121,0 7.69744,-0.13066 7.69744,-0.13066l-0.08286,1.2733c0,0 -1.6876,0.4705 -7.34973,0.4705c-5.92698,0 -7.87944,-2.00433 -7.87944,-2.48691z" stroke-width="0"/><path d="M256.2247,200.66168c-0.54853,0 -0.99321,-0.45139 -0.99321,-1.00821c0,-0.55682 0.44467,-1.00821 0.99321,-1.00821c0.54853,0 0.99321,0.45139 0.99321,1.00821c0,0.55682 -0.44467,1.00821 -0.99321,1.00821z" stroke-width="0.5"/></g><path d="M240.38321,253.12203c0,-0.55681 0.44467,-1.00821 0.99321,-1.00821c0.54854,0 0.99321,0.45139 0.99321,1.00821c0,0.55681 -0.44467,1.00821 -0.99321,1.00821c-0.54854,0 -0.99321,-0.45139 -0.99321,-1.00821z" stroke-width="0.5"/><path d="" stroke-width="0"/></g><path d="M199.86323,309.10819c0,0 2.9654,-57.84309 2.67855,-78.89979c-0.32498,-23.85626 -2.27486,-35.98517 -2.27486,-35.98517h19.70775v114.07757z" fill="#433837" stroke-width="0"/><g data-paper-data="{&quot;index&quot;:null}" stroke-width="0"><path d="M264.3533,308.3008v-114.07756h19.70775c0,0 -1.94988,12.12891 -2.27486,35.98517c-0.28684,21.05669 2.67855,78.89979 2.67855,78.89979z" fill="#433837"/><path d="M264.3533,308.3008v-114.07756h19.70775c0,0 -11.25029,6.72021 -11.92236,21.6092c-0.18016,3.99114 1.4886,9.66201 1.4199,14.70507c-0.28684,21.05669 -9.20529,77.76329 -9.20529,77.76329z" fill="#382f2e"/><path d="M265.63338,201.60728c-1.6003,0.04324 4.06871,-8.81086 4.10994,-7.0558c0.25989,11.0632 -0.60913,42.53185 -0.21995,69.94862c0.35258,24.83925 1.97805,46.35266 1.97805,46.35266l-26.05765,-1.6985c0,0 5.49467,-64.02953 6.3716,-119.78225c0.1041,-6.61816 5.61132,-7.28316 7.71006,-17.76632c1.92667,-9.62369 -1.65923,-19.43616 -1.65923,-19.43616c0,0 8.93014,-1.90503 18.31502,9.96956c5.57683,7.6603 7.02996,15.51017 7.02996,15.51017l1.58531,16.82507c0,0 -8.62773,6.8483 -19.1631,7.13296z" fill="#59220f"/><path d="M264.1812,196.12874c-0.23994,-1.26775 -0.5007,-2.54249 -0.78055,-3.82928c-0.71861,-3.30425 -1.15696,-6.59476 -2.40334,-9.57811c0.98274,-2.38771 1.88595,-5.09732 2.52142,-8.16531c1.4148,-6.8305 -1.48778,-16.00245 0.04429,-16.16835c11.80251,-1.27804 17.0696,22.08737 17.0696,27.43162c0,3.18356 -9.0962,8.0359 -16.45142,10.30943z" fill="#6d4321"/><path d="M259.53193,185.97405c0.61698,2.21832 0.92919,4.56564 1.42054,6.83207c0.29095,1.34207 0.56119,2.67021 0.80852,3.99061c-3.85548,0.9235 -6.76187,0.86905 -6.76187,-0.93049c0,-2.02326 2.23626,-5.18003 4.53281,-9.89219z" fill="#6d4321"/><path d="M254.61036,231.69155c0.23566,-0.0289 0.46553,-0.06808 0.68778,-0.11993c3.71763,-0.86735 5.83567,-4.68504 7.46295,-7.71423c1.3277,-2.47153 2.31072,-5.12997 3.14253,-7.86384c0.16341,10.85589 -0.05386,27.63801 0.18606,43.70937c0.33679,22.56035 2.07043,43.72011 2.07043,45.12021c0,3.06262 -14.34707,-2.03454 -17.55214,-2.03454c-2.19376,0 1.80079,-42.82233 4.00239,-71.09703z" fill="#6d4321"/><path d="M255.04903,205.99126c1.34234,0.98697 2.4714,2.19446 3.25765,3.68219c1.21162,2.29261 1.82512,4.90267 2.32731,7.42935c0,0 0.21618,1.0809 1.25756,1.00962c-0.48821,1.23116 -1.03347,2.43036 -1.65663,3.58477c-1.21163,2.24455 -2.89374,5.80324 -5.75132,6.44814c0.05074,-0.66532 0.10025,-1.32097 0.14845,-1.96612c0.8033,-10.75217 0.27001,-19.07161 0.27001,-19.92231c0,-0.08134 0.05142,-0.17051 0.14697,-0.26565z" fill="#6d4321"/><path d="M262.8463,215.46543c-0.52331,-2.41137 -1.19743,-4.82406 -2.35454,-7.00656c-0.75792,-1.42956 -1.77145,-2.63908 -2.96212,-3.66627c2.3535,-0.83325 5.63306,-1.61759 6.96561,-1.61759c0.36214,0 0.61119,1.24618 0.78215,3.46134c-0.75463,2.96106 -1.48431,5.95378 -2.43111,8.82908z" fill="#6d4321"/><path d="M280.69363,200.08248c0.98831,0.22336 -0.4681,6.91121 -0.4681,15.9456c0,3.39772 -5.45241,29.95798 -5.45241,29.95798c0,0 0.51732,-17.39661 0.27331,-19.53271c-0.4359,-3.81592 -1.05285,-9.52304 -1.10675,-11.70069c-0.13374,-5.40384 5.57208,-14.93727 6.75394,-14.67017z" fill="#504342"/></g><path d="M210.76939,230.53751c-0.0687,-5.04307 1.60006,-10.71393 1.41991,-14.70507c-0.67207,-14.88899 -11.92236,-21.6092 -11.92236,-21.6092h19.70775v114.07757c0,0 -8.91845,-56.7066 -9.20529,-77.76329z" fill="#382f2e" stroke-width="0"/><path d="M199.53149,194.47432l1.58531,-16.82507c0,0 1.45313,-7.84986 7.02996,-15.51016c9.38488,-11.8746 18.31503,-9.96956 18.31503,-9.96956c0,0 -3.58591,9.81247 -1.65924,19.43616c2.09874,10.48316 7.60597,11.14817 7.71006,17.76632c0.87693,55.75273 6.3716,119.78226 6.3716,119.78226l-26.05765,1.6985c0,0 1.62546,-21.51342 1.97805,-46.35266c0.38917,-27.41677 -0.47985,-58.88542 -0.21995,-69.94862c0.04123,-1.75506 5.71025,7.09904 4.10995,7.0558c-10.53537,-0.28466 -19.16311,-7.13296 -19.16311,-7.13296z" fill="#59220f" stroke-width="0"/><path d="M203.69543,185.81931c0,-5.34426 5.26709,-28.70967 17.0696,-27.43162c1.53207,0.1659 -1.37052,9.33784 0.04429,16.16835c0.63548,3.06799 1.53868,5.7776 2.52143,8.16531c-1.24639,2.98335 -1.68473,6.27387 -2.40335,9.57811c-0.27985,1.28679 -0.54061,2.56153 -0.78055,3.82928c-7.35521,-2.27353 -16.45142,-7.12587 -16.45142,-10.30943z" fill="#6d4321" stroke-width="0"/><path d="M229.32885,195.86624c0,1.79953 -2.90639,1.85398 -6.76187,0.93049c0.24732,-1.3204 0.51757,-2.64854 0.80852,-3.99061c0.49134,-2.26642 0.80356,-4.61374 1.42054,-6.83206c2.29655,4.71216 4.53281,7.86893 4.53281,9.89219z" fill="#6d4321" stroke-width="0"/><path d="M233.72005,302.78857c-3.20507,0 -17.55214,5.09716 -17.55214,2.03454c0,-1.4001 1.73364,-22.55986 2.07044,-45.1202c0.23992,-16.07137 0.02265,-32.85349 0.18606,-43.70937c0.83181,2.73388 1.81482,5.39231 3.14253,7.86384c1.62728,3.02919 3.74532,6.84688 7.46295,7.71423c0.22224,0.05185 0.45212,0.09104 0.68778,0.11993c2.20159,28.2747 6.19615,71.09703 4.00239,71.09703z" fill="#6d4321" stroke-width="0"/><path d="M229.42593,206.25691c0,0.85071 -0.5333,9.17014 0.27001,19.92231c0.0482,0.64515 0.09772,1.30079 0.14845,1.96612c-2.85757,-0.6449 -4.53969,-4.20359 -5.75132,-6.44814c-0.62316,-1.15441 -1.16842,-2.35361 -1.65663,-3.58477c1.04138,0.07128 1.25756,-1.00962 1.25756,-1.00962c0.50218,-2.52668 1.11568,-5.13674 2.32731,-7.42935c0.78625,-1.48773 1.91531,-2.69522 3.25765,-3.68219c0.09554,0.09514 0.14697,0.18431 0.14697,0.26565z" fill="#6d4321" stroke-width="0"/><path d="M219.05055,206.63635c0.17096,-2.21516 0.42001,-3.46134 0.78215,-3.46134c1.33255,0 4.61212,0.78434 6.96562,1.61759c-1.19067,1.02719 -2.2042,2.23671 -2.96212,3.66627c-1.15711,2.18249 -1.83123,4.59519 -2.35454,7.00656c-0.9468,-2.8753 -1.67647,-5.86802 -2.43111,-8.82908z" fill="#6d4321" stroke-width="0"/><path d="M210.38831,214.75265c-0.0539,2.17765 -0.67086,7.88477 -1.10675,11.70069c-0.24401,2.1361 0.27331,19.53271 0.27331,19.53271c0,0 -5.45241,-26.56026 -5.45241,-29.95798c0,-9.03439 -1.45641,-15.72224 -0.4681,-15.9456c1.18186,-0.2671 6.88769,9.26633 6.75395,14.67018z" fill="#504342" stroke-width="0"/></g><path d="M193.6608,118.53719c0,0 4.75839,-5.12941 6.10536,-8.45329c2.88904,-7.12918 2.85124,-13.03672 2.85124,-13.03672c0,0 -1.85997,0.61665 -2.84266,0.69861c-1.61013,0.13429 -2.80363,-0.26204 -2.80363,-0.26204l6.42399,-6.92498c0,0 0.2475,-17.60523 8.9764,-29.16254c6.74693,-8.93313 20.64648,-12.51508 30.3551,-12.44472c8.42215,0.06104 22.55613,3.08573 28.68941,10.58184c10.08388,12.32455 6.38707,19.81995 10.11,32.42062c3.72078,12.59341 5.77495,16.18431 5.77495,16.18431c0,0 -1.64899,-0.1627 -2.4478,-0.70191c-3.35821,-2.26684 -4.77049,-4.144 -4.77049,-4.144c0,0 2.51404,9.65365 0.49901,21.29599c-1.43966,8.31802 -7.42166,16.10527 -7.42166,16.10527l-1.17358,-2.98711c0,0 -0.27736,1.51046 -1.52332,3.13635c-1.38133,1.80253 -3.94985,3.49671 -3.94985,3.49671l0.00318,-3.58884c0,0 -4.58502,5.92133 -10.91754,9.01637c-6.10567,2.98416 -11.80358,2.51788 -14.49123,2.46803c-14.12802,-0.26204 -24.08852,-10.83115 -24.08852,-10.83115l-1.5995,1.70352c0,0 -3.09691,-2.20769 -5.16904,-7.29265c-3.07463,-7.54506 -3.82841,-13.97384 -3.82841,-13.97384c0,0 -3.51398,2.22964 -6.51964,2.91866c-3.62077,0.83002 -6.65099,0.20519 -6.65099,0.20519c0,0 3.61051,-2.54967 5.08456,-3.95508c1.38725,-1.32265 3.51514,-4.24416 3.51514,-4.24416c0,0 -3.21775,1.31904 -4.68875,1.66038c-2.24208,0.52027 -3.5017,0.11114 -3.5017,0.11114z" fill="#000000" stroke-width="NaN"/><path d="M217.72964,136.32092c-1.12791,-6.71582 -0.20637,-6.94188 -1.0642,-13.44379c-0.47362,-3.58977 -2.15797,-7.18909 -2.73202,-11.13223c-1.20896,-8.30433 -1.27196,-25.65977 -0.47554,-29.40025c4.41933,-20.75585 15.3863,-24.96608 29.85603,-25.48425c20.77576,-0.74399 24.79696,12.48506 27.42961,23.79025c1.84023,7.90235 1.22737,18.92724 -0.34916,28.57116c-0.96559,5.90663 -2.47529,10.80823 -3.46814,15.58687c-1.22544,5.89815 -0.7524,7.76045 -1.86263,12.66938c-1.15349,5.10023 -6.83176,10.81045 -11.83191,15.83737c-4.57165,4.59612 -7.90818,8.33063 -12.38271,8.22359c-5.04445,-0.12068 -8.96195,-6.22631 -14.50155,-12.44391c-4.38889,-4.92605 -8.03319,-9.29321 -8.61781,-12.77419z" fill="#000000" stroke-width="0"/><path d="M225.5005,117.97732c-0.89642,-4.82799 -10.16532,-4.80448 -9.65872,-20.45888c4.64983,1.71666 9.54934,2.49377 14.71632,3.28831c7.41626,1.14042 14.83882,2.22793 22.26279,3.31667c5.4366,0.79729 10.90782,1.74738 16.39756,2.55321c-0.14689,1.8243 -0.38454,3.6671 -0.7702,5.53889c-0.62848,3.05035 -1.86346,6.18514 -2.54274,8.95491c-1.44491,5.89168 -10.29239,-0.40672 -10.92153,2.70869c-0.7192,3.56141 6.11327,5.82864 5.39187,9.87623c-0.96779,5.43 0.43766,8.88365 -0.75871,10.38596c-2.5746,3.23301 -6.22007,6.15229 -9.11253,8.91074c-2.62204,2.50056 -5.47801,6.21315 -8.77908,6.21315c-4.10432,0 -6.9048,-3.78999 -10.07829,-7.4154c-4.79276,-5.47527 -11.46201,-7.91572 -13.04194,-17.80658c-0.63652,-3.98482 8.02664,-9.97212 6.8952,-16.06591z" fill="#ffffff" stroke-width="0"/><g stroke-width="0"><path d="M228.51896,98.40919c5.64136,0 10.21459,4.47197 10.21459,9.98843c0,5.51646 -4.7706,9.74171 -10.41197,9.74171c-5.64137,0 -10.31875,-4.22525 -10.31875,-9.74171c0,-5.51645 4.87476,-9.98843 10.51613,-9.98843z" fill="#000000"/><path d="M228.51896,98.66356c4.97522,0 8.78866,3.85659 8.78866,8.8032c0,4.94661 -4.01083,9.08774 -8.98605,9.08774c-4.97523,0 -8.81106,-3.98769 -8.81106,-8.9343c0,-4.94662 4.03322,-8.95664 9.00844,-8.95664z" fill="#ffffff"/></g><g stroke-width="0"><path d="M255.07894,98.43381c5.64136,0 10.21459,4.47198 10.21459,9.98844c0,5.51645 -4.72127,9.64301 -10.36263,9.64301c-3.16285,0 -6.23667,-1.06026 -8.11031,-3.26759c-1.46826,-1.72975 -1.95625,-3.95178 -1.95625,-6.37542c0,-5.51646 4.57322,-9.98844 10.21459,-9.98844z" fill="#000000"/><path d="M255.07894,98.68819c4.97523,0 8.70691,4.08541 8.70691,9.03202c0,4.94661 -3.87973,8.68387 -8.85495,8.68387c-4.97523,0 -8.8604,-3.81265 -8.8604,-8.75926c0,-4.94661 4.03322,-8.95663 9.00844,-8.95663z" fill="#ffffff"/></g><path d="M213.56463,101.74042l0.13102,-1.63769l7.19167,-1.18423l0.32653,-1.46623c0,0 3.68245,-1.72538 7.2562,-2.03587c3.72054,-0.32324 9.00496,-0.09575 9.00496,-0.09575l0.32754,4.71657c0,0 -4.80797,-1.2906 -8.17678,-1.07798c-6.17314,0.38961 -6.13035,1.25866 -10.09703,1.94554c-3.96668,0.68688 -5.96411,0.83565 -5.96411,0.83565z" fill="#000000" stroke-width="0"/><g stroke-width="0"><path d="M226.72292,168.55812c-4.60953,-5.7001 -5.39372,-14.37467 -6.15795,-20.08468c-0.38546,-2.88 -1.60707,-5.59963 -1.60707,-5.59963c0,0 4.4169,-2.83058 8.66219,-5.26655c2.46236,-1.41291 5.17526,-3.20046 6.13292,-3.22464c2.0517,-0.05181 8.8879,2.72655 8.8879,2.72655c0,0 5.6277,-3.27699 8.33347,-2.40362c2.22653,0.71868 5.4278,3.45137 8.12759,5.73468c2.26516,1.91572 4.25593,3.49546 4.25593,3.49546c0,0 -0.9179,5.32881 -1.0401,8.02546c-0.25722,5.6763 -0.40426,11.75778 -5.01956,16.64303c-3.072,3.25169 -9.19997,3.32527 -15.10886,3.23066c-6.09458,-0.09758 -12.72055,0.11884 -15.46647,-3.27673z" fill="#000000"/><path d="M228.05029,166.83256c-3.32166,-4.37226 -4.23179,-11.81859 -5.04951,-16.88861c-0.36378,-2.25551 -1.45453,-5.21184 -1.45453,-5.21184c0,0 2.29049,-0.00208 4.26872,2.37158c2.00884,2.41039 3.47504,6.69759 4.7803,9.70614c1.51689,3.49635 3.16542,5.56829 10.66072,5.69714c15.07461,0.25915 10.72415,-9.32542 15.03578,-14.31126c2.02249,-2.33874 4.61054,-2.40172 4.61054,-2.40172c0,0 -0.92954,3.44044 -1.1435,6.95962c-0.27378,4.50307 -0.17961,9.68494 -4.07656,13.8434c-1.45096,1.54834 -8.15218,2.83607 -15.02572,2.97197c-5.16282,0.10208 -10.71213,-0.24321 -12.60624,-2.73642z" fill="#ffffff"/><path d="M222.80727,142.74108c0,0 7.33307,-5.26687 10.76166,-5.9917c3.1382,-0.66345 9.87869,2.47421 9.87869,2.47421c0,0 4.67531,-3.01895 6.62045,-2.50937c2.87649,0.75356 10.10422,7.15511 10.10422,7.15511c0,0 -2.85169,0.35227 -6.7529,-0.47641c-3.54845,-0.75375 -6.89423,-2.75718 -10.63738,-2.84416c-2.67012,-0.06204 -7.34575,1.60467 -10.95823,2.04872c-5.03312,0.61868 -9.01651,0.14359 -9.01651,0.14359z" fill="#ffffff"/><path d="M232.03238,155.01909c0,0 0.9386,0.22977 1.53476,0.56716c1.64664,0.9319 4.64031,2.68486 8.35402,2.68486c4.13659,0 6.82603,-1.45926 8.27139,-2.29882c0.62349,-0.36216 1.28557,-0.55499 1.28557,-0.55499c0,0 -0.27526,2.57428 -3.37332,4.0068c-1.41348,0.65359 -3.1518,0.54398 -6.18363,0.77168c-3.10374,0.2331 -5.31323,-0.34179 -6.78148,-1.24144c-2.49432,-1.52837 -3.1073,-3.93524 -3.1073,-3.93524z" fill="#ffffff"/><path d="M232.49692,144.43347c0,0 6.04013,-1.75875 9.88879,-1.75875c3.84865,0 9.88878,2.62152 9.88878,2.62152l-19.77758,-0.86278z" fill="#ffffff"/></g><path d="M257.69767,95.4219c-6.5361,-0.02665 -11.93017,2.50832 -11.93017,2.50832l-0.26203,-4.42239c0,0 5.28442,-1.73418 9.39801,-1.86949c4.11358,-0.13531 7.12519,0.66021 7.12519,0.66021l0.19551,1.20419l7.3882,2.16685l0.13101,1.6377c0,0 -5.86035,-1.86016 -12.04572,-1.88538z" data-paper-data="{&quot;index&quot;:null}" fill="#000000" stroke-width="0"/><path d="M227.9954,103.44929c2.71342,0 4.91309,2.23007 4.91309,4.98099c0,2.75092 -2.19966,4.98098 -4.91309,4.98098c-2.71342,0 -4.91309,-2.23006 -4.91309,-4.98098c0,-2.75092 2.19966,-4.98099 4.91309,-4.98099z" fill="#000000" stroke-width="0"/><path d="M255.1479,103.66841c2.71342,0 4.91309,2.23006 4.91309,4.98098c0,2.75092 -2.19966,4.98098 -4.91309,4.98098c-2.71342,0 -4.91309,-2.23006 -4.91309,-4.98098c0,-2.75091 2.19966,-4.98098 4.91309,-4.98098z" fill="#000000" stroke-width="0"/><g stroke-width="0"><path d="M239.18586,129.61829c0,0 -0.06312,-8.68679 -0.28083,-12.38791c-0.17487,-2.97289 -0.92532,-8.11666 -0.92532,-8.11666c0,0 -0.33218,-1.57308 0.02454,-1.56279c1.13657,0.03279 7.81544,1.78895 7.81544,1.78895l-0.37692,20.27841c0,0 0.82184,1.93768 0.72844,3.69896c-0.06976,1.31553 -0.97469,4.70292 -1.02626,5.67536c-0.11348,2.13998 -0.40577,3.89334 -0.40577,3.89334l-4.14036,-0.01448c0,0 -0.12488,-2.01528 -0.87252,-4.2695c-0.71961,-2.16969 -2.11593,-4.55553 -2.18508,-5.58924c-0.19994,-2.9885 1.64464,-3.39445 1.64464,-3.39445z" fill="#000000"/><path d="M241.54789,141.89622c0,0 -0.2909,-3.80356 -0.49735,-8.24071c-0.20504,-4.40659 -0.32473,-9.70108 -0.5883,-13.30096c-0.42508,-5.80554 -1.77895,-15.81414 -1.77895,-15.81414l6.10614,1.88461l-0.75385,35.43068z" fill="#ffffff"/><path d="M239.13034,130.79631c0.34401,0 0.62288,4.77542 0.62288,4.77542c0,0 -1.24576,-1.59275 -1.24576,-2.7251c0,-1.13236 0.27887,-2.05032 0.62288,-2.05032z" fill="#ffffff"/></g><path d="M210.87829,92.98296v-21.15411c0,0 21.21081,-18.67174 31.8391,-18.67174c9.85589,0 29.78844,18.67174 29.78844,18.67174l0.9522,14.8825c0,0 -4.02246,-9.83788 -7.66885,-7.46317c-9.67233,6.2991 -26.0271,10.16832 -26.0271,10.16832c0,0 2.88671,-3.50484 4.29889,-5.2734c0.74057,-0.92746 1.4281,-2.38433 1.4281,-2.38433c0,0 -9.19557,5.48816 -17.51331,7.89872c-11.3727,3.29591 -17.09747,3.32547 -17.09747,3.32547z" fill="#000000" stroke-width="0"/><g stroke-width="0"><path d="M217.82267,108.98996c0,0 -0.16627,-2.22288 0.81062,-4.59656c1.16899,-2.84044 3.93233,-5.91812 9.99819,-5.95021c4.4123,-0.02334 6.77688,1.48178 8.31843,3.36171c2.53146,3.08714 2.42486,7.54013 2.42486,7.54013z" fill="#000000"/><path d="M219.39484,107.41777c0,0 0.38648,-8.1425 9.36763,-8.12298c3.32151,0.00722 5.24312,1.47836 6.59481,2.79979c2.45356,2.39865 2.57629,5.32319 2.57629,5.32319z" fill="#ffffff"/></g><g stroke-width="0"><path d="M244.78363,109.01137c0,0 -0.53134,-3.2454 0.9459,-6.12374c1.32927,-2.59004 4.34124,-4.84529 9.8629,-4.81608c11.13492,0.0589 11.0941,11.29489 11.0941,11.29489z" data-paper-data="{&quot;index&quot;:null}" fill="#000000"/><path d="M245.9628,107.17714c0,0 0.21519,-7.7079 9.56586,-7.72822c8.98115,-0.01952 9.56245,7.99026 9.56245,7.99026z" data-paper-data="{&quot;index&quot;:null}" fill="#ffffff"/></g><path d="M249.4175,97.20421l0.66393,-21.5845l11.23324,0.72517l4.63083,15.19428z" fill-opacity="0.28226" fill="#000000" stroke-width="0"/><path d="M216.57285,103.52083l-0.22001,-15.88276l10.47787,-4.11408l7.21037,20.3554z" data-paper-data="{&quot;index&quot;:null}" fill-opacity="0.29032" fill="#000000" stroke-width="0"/><g stroke-width="0"><path d="M140.93621,322.69653c0,0 8.74026,-10.16104 13.23772,-10.0883c2.34867,0.03799 8.86659,2.84284 8.86659,2.84284c0,0 7.03493,-3.16625 10.45285,-1.79569c3.25305,1.30445 10.0703,9.83054 10.0703,9.83054c0,0 -0.8444,1.73799 -1.26568,3.4782c-1.25665,5.19088 -4.94131,14.37104 -21.01962,12.61336c-14.74964,-1.61243 -17.65428,-9.06618 -18.76842,-13.3713c-0.39566,-1.52885 -1.57374,-3.50966 -1.57374,-3.50966z" fill="#000000"/><path d="M160.91404,336.90568c-3.8837,-0.53705 -7.51489,-0.96547 -9.58495,-2.6046c-5.81443,-4.60403 -6.56733,-10.45082 -6.56733,-10.45082c0,0 2.29242,-0.14701 3.70982,0.59631c3.49275,1.83167 4.08056,5.01359 12.86341,5.44232c8.52494,0.31076 10.95787,-3.38718 15.00649,-5.05777c1.41754,-0.58492 4.18605,-0.73797 4.18605,-0.73797c0,0 -0.3662,15.47412 -19.61349,12.81252z" fill="#ffffff"/><path d="M144.15451,321.96785c0,0 6.6461,-7.0522 9.70997,-7.6789c3.16694,-0.64778 8.99267,3.85336 8.99267,3.85336c0,0 6.1198,-3.57163 9.86129,-2.51588c2.81436,0.79413 8.47701,7.6166 8.47701,7.6166c0,0 -2.59994,0.10781 -5.51374,-0.71081c-4.19171,-1.17764 -9.55246,-3.42824 -13.14031,-3.55175c-3.8089,-0.13113 -8.87901,1.85341 -12.97871,2.76187c-2.63819,0.5846 -5.40819,0.22551 -5.40819,0.22551z" fill="#ffffff"/><path d="M153.40165,322.46158c0,0 6.12448,-1.40457 8.60534,-1.40457c5.85517,0 8.90778,1.59463 8.90778,1.59463z" fill="#ffffff"/><path d="M169.91992,326.29247c0,0 -4.57746,1.33683 -7.97197,1.33683c-3.57136,0 -6.72777,-1.33602 -6.72777,-1.33602z" fill="#ffffff"/></g><g stroke-width="0"><path d="M302.98089,323.44797c0,0 2.90915,-0.60927 5.39182,-2.09222c3.59286,-2.1461 7.5156,-5.41388 10.66851,-5.38835c1.87093,0.01515 6.54867,1.86477 6.54867,1.86477c0,0 4.53616,-2.24647 7.12457,-1.51004c2.2821,0.64927 6.23751,3.97075 9.53681,6.25158c2.29991,1.58994 4.49433,2.6978 4.49433,2.6978c0,0 -0.47141,1.24848 -1.04408,3.08181c-1.02755,3.28952 -2.90336,8.46195 -6.67829,11.68377c-3.64995,3.11515 -10.3736,2.52699 -14.57175,2.35207c-4.3999,-0.18333 -11.13917,-0.86038 -14.7433,-4.49228c-2.87739,-2.89957 -4.19041,-6.89566 -5.17194,-9.92789c-0.85147,-2.63046 -1.55535,-4.52101 -1.55535,-4.52101z" fill="#000000"/><path d="M307.56913,323.58523c0,0 1.35197,-0.47146 2.90955,-1.36432c2.42772,-1.39166 5.69126,-3.47072 7.70231,-3.79508c2.61645,-0.42201 7.62343,2.21823 7.62343,2.21823c0,0 4.38617,-2.79661 6.70779,-2.26546c1.76283,0.4033 4.41905,2.65461 6.61831,4.24378c1.38567,1.00126 2.61507,1.66874 2.61507,1.66874c0,0 -2.39449,0.17692 -5.30469,-0.0211c-3.27516,-0.22284 -7.31028,-1.08559 -10.16298,-1.17951c-3.70455,-0.12197 -7.81336,0.69752 -11.82785,0.76568c-3.79488,0.06443 -6.88096,-0.27096 -6.88096,-0.27096z" fill="#ffffff"/><path d="M305.51032,325.07543c0,0 3.93147,0.50673 7.61187,2.36764c2.40375,1.21541 2.9527,5.22593 12.33412,5.46436c10.69887,0.27192 8.23178,-3.86133 13.45462,-5.86114c2.74336,-1.05042 5.5994,-0.85322 5.5994,-0.85322c0,0 -0.67056,1.5376 -1.43554,3.28263c-1.23019,2.80626 -2.38887,7.21246 -7.10685,9.43494c-2.44804,1.15319 -5.63941,1.24561 -10.75174,1.2236c-14.15603,-0.06094 -16.83362,-6.29622 -17.95378,-10.73714c-0.54856,-2.17478 -1.7521,-4.32167 -1.7521,-4.32167z" fill="#ffffff"/><path d="M317.86328,329.0558c0,0 5.7137,-0.0402 8.41222,0.04413c2.232,0.06975 6.64659,0.42646 6.64659,0.42646c0,0 -1.47877,1.7398 -7.35294,1.58823c-5.34804,-0.13799 -7.70588,-2.05882 -7.70588,-2.05882z" fill="#ffffff"/><path d="M319.62798,325.66365c0,0 2.62134,-0.68969 7,-0.41176c2.8258,0.0441 5.52941,0.47059 5.52941,0.47059z" fill="#ffffff"/></g><g stroke-width="0"><path d="M216.11628,123.11032c0,0 -0.02092,-13.37232 -0.56945,-15.7437c-0.36116,-1.56138 -0.94932,-3.40591 -1.11529,-6.35457c-0.12608,-2.24004 -0.81078,-11.46816 -0.81078,-11.46816c0,0 -0.52287,6.91528 2.17791,6.80149c6.29577,-0.26528 12.32688,-1.03327 12.8343,0.21783c0.55778,1.37529 4.48105,-0.52779 11.17224,0.42277c5.18985,0.73729 23.35092,-24.38753 28.52593,-22.61209c13.91666,4.77451 0.81992,40.4193 0.81992,40.4193c0,0 -1.19105,0.32791 -1.22958,2.81746c-0.03339,2.15719 -1.29113,2.46493 -1.78114,4.28622c-0.34143,1.26907 -2.50283,17.77203 -2.50283,17.77203c0,0 -5.17955,-10.68561 -18.07584,-14.95969c-0.36869,-0.12219 -0.54903,0.92881 -0.93073,0.81554c-2.11157,-0.62665 -2.61075,-1.09019 -4.42968,-1.59221c-0.53398,-0.14738 -0.46805,-1.27923 -0.98301,-1.40142c-8.21283,-1.94871 -6.29156,3.92949 -9.47422,7.06649c-5.77833,5.69543 -12.22161,11.71034 -12.22161,11.71034z" fill="#000000"/><path d="M233.12864,103.65181l-5.10916,-5.10466l7.21263,-8.62304l5.60202,1.33337l5.95756,-2.92095l7.22795,3.33381l-4.98628,10.92894z" fill="#675654"/><path d="M233.12864,103.65181l-5.10916,-5.10466l2.16741,-2.59124c0,0 8.23777,1.96736 10.62234,1.03686c0.86266,-0.30913 -2.41505,1.59304 -1.53873,1.07944c0.58703,-3.34861 11.33933,-7.97459 11.33933,-7.97459l3.40981,1.57274l-4.98628,10.92894z" fill="#5a4b4a"/><path d="M251.42287,96.24104l0.66393,-21.58451l11.23324,0.72517l4.63083,15.19427z" fill="#675654"/><path d="M251.57259,96.24104l0.14212,-7.10661c0,0 7.03989,-3.46148 6.15706,-5.08568c-1.14955,-2.11489 -0.75026,-2.78038 0.97957,-3.66666c2.84169,-1.45595 5.01874,-3.68688 5.01874,-3.68688c0,0 0.21736,0.71319 0.3838,1.25931c1.13421,3.72146 3.8467,12.62145 3.8467,12.62145z" fill="#5a4b4a"/><path d="M214.59463,104.36863l-0.22001,-15.88277l10.47788,-4.11408l7.21037,20.3554z" data-paper-data="{&quot;index&quot;:null}" fill="#675654"/><path d="M214.45199,104.41427c0,0 -0.12887,-9.30327 -0.18275,-13.19336c-0.0079,-0.57086 -0.01824,-1.31637 -0.01824,-1.31637c0,0 2.75338,1.46133 5.9036,1.98199c1.91764,0.31695 2.50075,0.82909 2.05041,3.19371c-0.34586,1.81598 7.34123,2.99066 7.34123,2.99066c0,0 0.20782,1.03466 0.42421,1.64553c0.84213,2.37739 1.94977,5.0564 1.94977,5.0564z" data-paper-data="{&quot;index&quot;:null}" fill="#5a4b4a"/><path d="M218.83619,138.53831c0,0 -2.17187,-1.46594 -2.77645,-7.35995c-0.64668,-6.30449 1.44749,-9.42732 1.44749,-9.42732c0,0 10.95448,-18.83298 21.01372,-21.83294c12.98264,-3.8718 26.36415,-21.61372 26.36415,-21.61372c0,0 4.23082,-0.59975 4.58254,1.7133c0.67862,6.08706 0.66637,20.67543 0.66637,20.67543c0,0 -13.0556,8.60397 -24.28856,11.55949c-8.58842,2.25971 -27.00925,26.28572 -27.00925,26.28572z" fill="#481310"/><path d="M216.46345,117.07697c0,0 -0.72111,-3.19659 -1.26963,-5.56796c-0.36116,-1.56138 -0.94932,-3.40591 -1.11528,-6.35457c-0.12608,-2.24004 -0.21859,-5.97962 -0.21859,-5.97962c0,0 11.43214,-5.25684 43.38396,5.70515c13.91666,4.77451 11.31118,8.8744 11.31118,8.8744c0,0 -1.60238,4.3985 -1.64091,6.88804c-0.03339,2.15719 -0.63684,3.57554 -1.12683,5.39682c-0.34143,1.26907 -0.91441,4.61493 -0.91441,4.61493c0,0 -3.57029,-3.12127 -17.30303,-7.19679c-22.62674,-6.71502 -31.10645,-6.3804 -31.10645,-6.3804z" fill="#59220f"/><g fill="#6d4321"><path d="M222.90104,115.243c-3.95763,0 -6.52755,-4.70941 -6.52755,-8.35323c0,-3.64383 -1.4102,-6.32138 2.53776,-6.59773c6.8399,-0.47877 15.29683,0.42186 23.89799,2.63741c5.38533,1.3872 10.76251,3.28078 14.85839,5.09443c-1.28443,2.29486 -2.06749,4.92455 -2.82854,7.41982c-0.68751,2.25416 -1.3349,4.53979 -1.93213,6.84803c-12.47206,-5.04642 -27.78526,-7.04872 -30.00592,-7.04872z"/><path d="M260.53917,126.06488c-1.65401,-1.0174 -3.46656,-1.95293 -5.37461,-2.81072c0.41489,-1.58462 0.85947,-3.15005 1.33202,-4.68942c0.70024,-2.28108 1.31736,-4.96078 2.3263,-7.37036c0.75131,5.00241 2.28369,9.97414 3.6384,14.87359c-0.51993,0.41735 -1.15251,0.4703 -1.92212,-0.00309z"/><path d="M264.85788,112.79465c0,0.66924 0.04422,5.97575 -0.79444,9.75977c-1.20369,-4.24341 -2.39902,-8.53963 -2.9246,-12.84699c2.31223,1.24892 3.71904,2.35496 3.71904,3.08722z"/></g><path d="M246.48053,98.88143c0,-0.88652 7.26198,-4.73457 11.6237,-9.26002c4.35733,-4.52089 7.84157,-9.83228 8.86345,-9.83228c0.98222,0 1.30327,4.04843 1.37171,8.45236c-4.33076,2.95593 -8.15659,6.80112 -11.21793,10.78483c-0.59019,0.76802 -1.10389,1.58717 -1.59656,2.42069c-4.86038,-0.53239 -9.04437,-1.72627 -9.04437,-2.56557z" fill="#571c18"/><path d="M268.19177,99.10673c0,0.67217 -4.08949,2.63327 -8.04748,2.61447c-0.60663,-0.00288 -1.21949,-0.02049 -1.83209,-0.05093c0.25381,-0.38751 0.51909,-0.76702 0.80196,-1.13434c2.55887,-3.32279 5.69803,-6.58367 9.23723,-9.23748c-0.0224,3.72146 -0.15963,7.08363 -0.15963,7.80829z" fill="#571c18"/><g fill="#571c18"><path d="M230.46325,122.17217c0,1.02232 -1.86182,3.51998 -4.05093,5.95569c-2.61469,-1.44553 -5.18561,-2.9808 -7.96449,-4.05856c0.8584,-2.49898 2.27787,-5.19489 3.3041,-5.19489c1.56802,0 8.71132,1.02913 8.71132,3.29776z"/><path d="M219.72704,133.97445c-1.56802,0 -2.0292,-4.26895 -2.0292,-6.53757c0,-0.28838 0.04017,-0.64179 0.11352,-1.03906c0.43217,0.16385 0.85935,0.33938 1.27613,0.53871c1.88342,0.90079 3.7269,2.02542 5.56248,3.06733c-2.15783,2.19821 -4.24684,3.97059 -4.92292,3.97059z"/></g></g></g></g></svg>