<svg version="1.1" xmlns="http://www.w3.org/2000/svg" xmlns:xlink="http://www.w3.org/1999/xlink" width="18.33333" height="18.33333" viewBox="0,0,18.33333,18.33333"><g transform="translate(-230.83334,-170.83335)"><g data-paper-data="{&quot;isPaintingLayer&quot;:true}" fill-rule="nonzero" stroke-linejoin="miter" stroke-miterlimit="10" stroke-dasharray="" stroke-dashoffset="0" style="mix-blend-mode: normal"><path d="M230.83335,189.16668v-18.33333h18.33333v18.33333z" fill-opacity="0.00571" fill="#170a1a" stroke="#000000" stroke-width="0" stroke-linecap="butt"/><g stroke="#d2d2d2" stroke-linecap="butt"><path d="M237.0224,182.89502c0.55143,1.49447 0.13695,3.02387 -0.9258,3.416c-1.06275,0.39213 -1.75002,1.18223 -2.92272,-1.99597c-0.9952,-2.69715 -0.13695,-3.02387 0.9258,-3.416c1.06275,-0.39213 2.37129,0.5015 2.92272,1.99597z" fill="#d2d2d2" stroke-width="0"/><path d="M235.05816,182.19676c-0.01037,-0.16854 -0.01565,-0.33892 -0.01565,-0.51089c0,-3.52501 2.21957,-6.3826 4.95755,-6.3826c2.72796,0 4.9413,2.83671 4.95745,6.34393" fill="none" stroke-width="2"/><path d="M245.90034,180.89905c1.06275,0.39213 1.921,0.71886 0.9258,3.41601c-1.1727,3.1782 -1.85997,2.3881 -2.92272,1.99597c-1.06275,-0.39213 -1.47724,-1.92153 -0.9258,-3.41601c0.55143,-1.49447 1.85998,-2.3881 2.92272,-1.99597z" data-paper-data="{&quot;index&quot;:null}" fill="#d2d2d2" stroke-width="0"/></g><path d="" fill-opacity="0.00571" fill="#170a1a" stroke="#000000" stroke-width="0" stroke-linecap="butt"/><g fill="#d2d2d2" stroke="#d2d2d2"><path d="" stroke-width="0" stroke-linecap="butt"/><path d="" stroke-width="0" stroke-linecap="butt"/><path d="" stroke-width="1.5" stroke-linecap="round"/><g stroke-width="1.5" stroke-linecap="round"><path d=""/><path d=""/></g><path d="" stroke-width="1.5" stroke-linecap="round"/></g></g></g></svg>