<svg version="1.1" xmlns="http://www.w3.org/2000/svg" xmlns:xlink="http://www.w3.org/1999/xlink" width="34.17311" height="34.17311" viewBox="0,0,34.17311,34.17311"><g transform="translate(-222.91345,-162.91345)"><g data-paper-data="{&quot;isPaintingLayer&quot;:true}" stroke="none" stroke-miterlimit="10" stroke-dasharray="" stroke-dashoffset="0" style="mix-blend-mode: normal"><path d="M229.98312,162.91346h20.03379c3.9166,0 7.06966,3.15307 7.06966,7.06966v20.03379c0,3.91659 -3.15306,7.06966 -7.06966,7.06966h-20.03379c-3.91659,0 -7.06966,-3.15307 -7.06966,-7.06966v-20.03379c0,-3.91659 3.15307,-7.06966 7.06966,-7.06966z" fill="#59220f" fill-rule="evenodd" stroke-width="4.43922" stroke-linecap="round" stroke-linejoin="round"/><g fill-rule="nonzero" stroke-width="0" stroke-linecap="butt" stroke-linejoin="miter"><path d="M224.93862,177.40257l5.83586,-10.88721c0,0 6.25098,2.85772 13.91092,8.3298c6.0018,4.28754 10.37598,9.64344 10.37598,9.64344l-8.62223,8.99604c0,0 -1.76794,-0.86359 -9.66314,-6.38767c-0.58399,-0.4086 -0.74801,-1.3997 -1.21815,-1.75137c-0.66461,-0.49711 -1.4783,-0.38865 -2.30859,-1.02883c-5.44115,-4.1953 -8.31064,-6.9142 -8.31064,-6.9142z" fill="#6d4321"/><path d="M228.07086,177.67357l4.2463,-8.17812c0,0 3.67616,1.7573 8.63315,5.05548c0.83808,0.55762 1.71277,1.15929 2.6125,1.80396c0.15828,0.11341 0.31524,0.22762 0.4708,0.34248c4.63546,3.42245 8.02963,7.41094 8.02963,7.41094l-6.50612,6.63297c0,0 -1.42282,-0.72183 -7.83144,-5.22721c-0.47403,-0.33325 -0.63589,-1.10053 -1.01826,-1.38628c-0.54052,-0.40394 -1.17879,-0.34723 -1.85469,-0.86657c-4.42937,-3.40345 -6.78188,-5.58764 -6.78188,-5.58764z" data-paper-data="{&quot;index&quot;:null}" fill="#000000"/><path d="M232.31716,169.49544c0,0 2.74392,1.31167 6.68712,3.79545c-0.21252,1.13097 0.58586,3.08372 1.05254,4.61105c-0.3819,1.28598 -0.26223,2.66827 0.31652,3.86255c0.13773,1.76203 0.52838,3.52859 0.7184,5.26946c0.03186,0.29192 0.05266,0.57859 0.06502,0.86012c-0.94311,-0.64338 -2.07557,-1.42706 -3.43108,-2.38001c-0.47403,-0.33325 -0.63589,-1.10053 -1.01826,-1.38628c-0.54052,-0.40394 -1.17879,-0.34723 -1.85469,-0.86657c-1.0421,-0.80073 -1.96923,-1.53397 -2.77782,-2.18715c0.3842,-3.84653 1.02825,-7.9967 0.24051,-11.57527z" data-paper-data="{&quot;index&quot;:null}" fill="#6d4321"/><path d="M238.12605,172.74456c-0.04605,1.51005 0.24945,3.38422 0.30386,3.87724c0.39681,3.59555 1.03467,6.92797 1.48251,10.4175c-0.6549,-0.45272 -1.38146,-0.95911 -2.18675,-1.52524c-0.47403,-0.33325 -0.63589,-1.10053 -1.01826,-1.38628c-0.54052,-0.40394 -1.17879,-0.34723 -1.85469,-0.86657c-0.09719,-0.07468 -0.19338,-0.14877 -0.28856,-0.22226c-0.1793,-3.56718 -0.26154,-7.1237 -0.39058,-10.71341c-0.01509,-0.41979 0.00121,-1.09113 -0.00614,-1.87167c1.00095,0.54173 2.36029,1.3089 3.95859,2.2907z" data-paper-data="{&quot;index&quot;:null}" fill="#000000"/></g></g></g></svg>