<svg version="1.1" xmlns="http://www.w3.org/2000/svg" xmlns:xlink="http://www.w3.org/1999/xlink" width="34.17311" height="34.17311" viewBox="0,0,34.17311,34.17311"><g transform="translate(-222.91347,-162.91347)"><g data-paper-data="{&quot;isPaintingLayer&quot;:true}" stroke="none" stroke-miterlimit="10" stroke-dasharray="" stroke-dashoffset="0" style="mix-blend-mode: normal"><path d="M229.98314,162.91348h20.03379c3.9166,0 7.06966,3.15307 7.06966,7.06966v20.03379c0,3.91659 -3.15306,7.06966 -7.06966,7.06966h-20.03379c-3.91659,0 -7.06966,-3.15307 -7.06966,-7.06966v-20.03379c0,-3.91659 3.15307,-7.06966 7.06966,-7.06966z" fill="#000000" fill-rule="evenodd" stroke-width="4.43922" stroke-linecap="round" stroke-linejoin="round"/><g fill-rule="nonzero" stroke-width="0" stroke-linecap="butt" stroke-linejoin="miter"><path d="M226.17106,174.69919c0,0 2.5866,-2.41753 4.37288,-3.80599c7.04028,-5.47238 15.7122,-5.02359 23.31496,7.31778c2.55154,4.14185 -1.74693,11.19184 -1.74693,11.19184c0,0 -4.58658,0.62928 -6.88344,-0.6726c-4.60791,-2.61182 -19.05747,-14.03102 -19.05747,-14.03102z" fill="#59220f"/><g><g><path d="M227.65457,175.27099c0,0 0.8758,-2.13782 1.70216,-3.16926c1.74893,-3.32146 3.94499,-3.87933 3.94499,-3.87933c0,0 2.01363,4.91477 1.70832,7.18384c-0.48636,3.61462 -1.82154,5.88662 -1.82154,5.88662c0,0 -2.07191,-0.537 -3.80604,-2.60217c-0.83258,-0.99151 -1.72788,-3.41971 -1.72788,-3.41971z" fill="#59220f"/><path d="M228.40982,176.93841c0,0 0.55069,-1.34423 1.07029,-1.99278c1.0997,-2.08849 3.53796,-4.40731 3.53796,-4.40731c0,0 0.9542,5.01294 0.76222,6.4397c-0.30581,2.27283 -1.89082,3.74686 -1.89082,3.74686c0,0 -1.30278,-0.33766 -2.39318,-1.63621c-0.52352,-0.62345 -1.08647,-2.15027 -1.08647,-2.15027z" fill="#000000"/></g><g fill="#000000"><path d="M227.65457,175.27099c0,0 0.22689,-0.55383 0.55867,-1.23372c0.54221,0.48575 1.12415,0.9088 1.69219,1.37615c1.45649,1.1983 2.80698,2.52873 4.18244,3.8302c-0.46405,1.3085 -0.89938,2.04926 -0.89938,2.04926c0,0 -2.0719,-0.537 -3.80604,-2.60217c-0.83258,-0.99151 -1.72788,-3.41971 -1.72788,-3.41971z"/><path d="M228.40982,176.93841c0,0 0.50895,-1.24232 1.00994,-1.91457c0.1622,0.12792 0.3245,0.25696 0.48568,0.38957c1.19484,0.98303 2.31835,2.05499 3.44282,3.12694c-0.57502,1.36264 -1.45879,2.18453 -1.45879,2.18453c0,0 -1.30278,-0.33766 -2.39318,-1.63621c-0.52352,-0.62345 -1.08647,-2.15026 -1.08647,-2.15026z"/></g></g><g data-paper-data="{&quot;index&quot;:null}"><g><path d="M251.57646,190.27299c0,0 -2.78177,0.2093 -4.12675,-0.16315c-2.80137,-0.77575 -4.25556,-2.56688 -4.25556,-2.56688c0,0 1.62997,-2.32643 4.95646,-4.42167c2.0882,-1.31529 7.80883,-1.54133 7.80883,-1.54133c0,0 0.43623,2.40307 -2.03753,5.60505c-0.64138,1.27208 -2.34545,3.08798 -2.34545,3.08798z" fill="#59220f"/><path d="M249.60336,190.27898c0,0 -1.74914,0.13161 -2.59484,-0.10258c-1.76146,-0.48778 -2.67583,-1.61402 -2.67583,-1.61402c0,0 0.73569,-2.21411 2.82733,-3.53157c1.31303,-0.82704 6.65558,-2.13584 6.65558,-2.13584c0,0 -1.18201,3.42898 -2.73746,5.44234c-0.40329,0.79986 -1.47479,1.94167 -1.47479,1.94167z" fill="#000000"/></g><g fill="#000000"><path d="M251.57647,190.27298c0,0 -2.78178,0.2093 -4.12675,-0.16315c-2.80137,-0.77575 -4.25556,-2.56688 -4.25556,-2.56688c0,0 0.53143,-0.75851 1.60668,-1.79937c1.89195,0.76597 3.80113,1.49451 5.62821,2.38613c0.71257,0.34774 1.38793,0.72894 2.10699,1.04311c-0.5181,0.62972 -0.95957,1.10016 -0.95957,1.10016z"/><path d="M249.60336,190.27898c0,0 -1.74914,0.13161 -2.59484,-0.10258c-1.76146,-0.48778 -2.67583,-1.61402 -2.67583,-1.61402c0,0 0.4102,-1.23455 1.48886,-2.40846c1.55453,0.62264 3.10864,1.24434 4.60749,1.97579c0.20219,0.09867 0.40139,0.20004 0.59944,0.3018c-0.43486,0.79222 -1.42512,1.84748 -1.42512,1.84748z"/></g></g><path d="M224.01097,176.65564c0,0 0.12895,-1.0395 0.80064,-1.76523c0.7441,-0.87221 1.81493,-0.70158 1.81493,-0.70158c0,0 7.86084,6.88311 15.89531,11.33602c3.50084,2.53915 9.65977,4.00158 9.65977,4.00158c0,0 0.37597,0.65851 -0.14376,1.75207c-0.73338,1.07485 -1.75252,1.17528 -1.75252,1.17528c0,0 -3.35404,-0.082 -8.84348,-3.6121c-7.43194,-4.77928 -17.4309,-12.18604 -17.4309,-12.18604z" fill="#59220f"/></g></g></g></svg>