<svg version="1.1" xmlns="http://www.w3.org/2000/svg" xmlns:xlink="http://www.w3.org/1999/xlink" width="34.17311" height="34.17311" viewBox="0,0,34.17311,34.17311"><g transform="translate(-222.91346,-162.91346)"><g data-paper-data="{&quot;isPaintingLayer&quot;:true}" stroke-miterlimit="10" stroke-dasharray="" stroke-dashoffset="0" style="mix-blend-mode: normal"><path d="M229.98313,162.91347h20.03379c3.9166,0 7.06966,3.15307 7.06966,7.06966v20.03379c0,3.91659 -3.15306,7.06966 -7.06966,7.06966h-20.03379c-3.91659,0 -7.06966,-3.15307 -7.06966,-7.06966v-20.03379c0,-3.91659 3.15307,-7.06966 7.06966,-7.06966z" fill="#59220f" fill-rule="evenodd" stroke="none" stroke-width="4.43922" stroke-linecap="round" stroke-linejoin="round"/><g fill-rule="nonzero" stroke-linejoin="miter"><g><path d="M251.43168,184.85123c-0.13066,0.51381 -0.44357,0.82893 -0.6465,1.22876c-0.3455,0.68075 -0.58237,1.29555 -0.58237,1.29555c0,0 -0.35182,-0.0742 -0.60594,-0.23091c-0.1619,0.23889 -0.37357,0.56316 -0.4693,0.76096c-0.21022,0.43435 -0.48027,1.33176 -0.48027,1.33176l-0.39978,-0.44648c0,0 -0.56533,0.48659 -0.76753,0.83792c-0.21264,0.36947 -0.47853,1.32722 -0.47853,1.32722l-0.45216,-0.41058c0,0 -0.31182,1.33512 -1.34654,2.37987c-1.17502,1.18642 -2.38187,1.30072 -2.38187,1.30072l-0.32287,-0.75776c0,0 -1.22988,0.53229 -3.02366,0.74788c0.95207,-2.27804 2.92741,-14.46227 5.10818,-17.1927c3.90616,-4.89067 8.40672,-0.04507 8.40672,-0.04507l-0.94229,4.08143l0.20479,0.99659l-0.26824,-0.03684c0,0 0.00391,0.37771 0.0285,0.50576c0.07208,0.37527 0.50026,0.95688 0.50026,0.95688c0,0 -0.50019,0.07337 -0.92611,-0.04875c0.00509,0.3654 -0.01986,0.88822 -0.15452,1.41777z" data-paper-data="{&quot;index&quot;:null}" fill="#000000" stroke="none" stroke-width="NaN" stroke-linecap="butt"/><path d="M228.7343,173.7922c0,0 0.2096,0.47312 0.01242,0.45821c-0.54971,-0.04156 -1.08117,-0.72199 -1.08117,-0.72199c0,0 0.7113,-0.12514 1.02254,-0.34685c0.1062,-0.07565 0.3698,-0.34619 0.3698,-0.34619l-0.21948,-0.15855l0.83621,-0.57955c0,0 0.79474,-1.90183 2.32889,-3.85295c0.00686,-0.00871 0.0786,0.38889 -0.09364,0.23888c-0.30605,-0.26655 -0.15464,-1.01443 -0.15464,-1.01443c0,0 0.29459,0.10708 0.57936,0.06284c0.24204,-0.0376 0.55621,-0.43409 0.55621,-0.43409c0,0 0.07629,-0.44403 0.63952,-1.11483c0.20427,-0.24329 0.48813,-0.29471 0.79054,-0.49821c0.31369,-0.21108 0.6424,-0.56981 0.6424,-0.56981c0,0 0.2049,0.60371 -0.16942,1.01563c-0.13459,0.1481 -0.29459,0.05148 -0.29459,0.05148c0,0 0.56104,-0.67597 1.57152,-1.15694c0.5097,-0.24261 1.16007,-0.14885 1.62798,-0.21295c0.56441,-0.07731 1.63066,-0.34017 1.63066,-0.34017l-0.12922,0.6682c0,0 0.53488,-0.76694 2.32209,-0.81385c0.99659,-0.02616 1.52169,0.63805 1.52169,0.63805l-0.35138,-0.92846c0,0 0.75641,0.44787 1.53885,0.81538c0.5608,0.26341 0.87558,-0.17634 2.13292,0.41416c1.2535,0.5887 1.68273,1.25496 2.32404,1.81027c0.72261,0.62572 1.9885,1.43418 1.9885,1.43418c0,0 -0.50669,0.40527 -0.93728,0.15582c-0.1022,-0.0592 0.07545,-0.18094 0.07545,-0.18094c0,0 0.54674,0.22561 0.78823,0.38707c0.43121,0.28832 0.70408,0.61106 0.70408,0.61106l-0.66653,0.0837c0,0 0.91693,0.17717 1.37382,0.59213c0.57162,0.51916 0.71403,1.31403 0.77538,1.4932c0.14273,0.41684 -0.11824,1.38878 0.04532,2.327c0.12158,0.6974 0.69393,1.47333 0.69393,1.47333c0,0 -0.56746,-0.01748 -0.52828,0.48285c0.04488,0.57319 0.59504,0.9027 0.59504,0.9027c0,0 -0.54169,0.83073 -0.75355,0.69224c-0.13173,-0.08612 0.28865,-0.41014 0.25301,-0.26128c-0.32316,1.34989 -10.67574,16.15982 -10.67574,16.15982c0,0 -1.98025,1.09726 -4.155,1.21422c-2.09684,0.11277 -3.69531,-0.67646 -4.46804,-1.00194c-4.06197,-1.71092 -5.7812,-5.77415 -5.7812,-5.77415l-0.75673,0.32527c0,0 -0.79413,-0.91591 -0.82504,-2.58544c-0.02722,-1.47018 0.66898,-2.6513 0.66898,-2.6513l-0.61057,-0.01516c0,0 0.46889,-0.87643 0.57016,-1.29051c0.09629,-0.39375 0.02328,-1.13608 0.02328,-1.13608l-0.59747,0.04698c0,0 0.42423,-0.83564 0.57203,-1.295c0.11662,-0.36246 0.24363,-1.23995 0.24363,-1.23995c0,0 0.39572,0.27682 0.32829,0.32496c-0.29868,0.21323 -1.22813,0.17028 -1.22813,0.17028c0,0 0.49743,-0.98939 0.71749,-1.72039c0.12925,-0.42935 0.12044,-0.87334 0.38066,-1.33525c0.4909,-0.8714 1.23219,-1.47268 1.23219,-1.47268z" fill="#000000" stroke="none" stroke-width="NaN" stroke-linecap="butt"/><g><path d="M247.50853,185.87465c-0.87051,1.21601 -3.03886,1.47493 -3.03886,1.47493c0,0 0.33518,-1.70835 1.14099,-2.96818c0.8058,-1.25982 2.69699,-2.13818 2.9423,-1.98127c0.24532,0.1569 1.18646,0.35819 -1.04442,3.47451z" fill="#000000" stroke="none" stroke-width="0" stroke-linecap="butt"/><path d="M247.48606,185.47466c-0.67881,0.94823 -2.21857,1.49514 -2.21857,1.49514c0,0 0.4108,-1.04564 1.03915,-2.02802c0.62835,-0.98238 1.85872,-2.4066 2.20526,-2.22205c0.20042,0.10673 0.71375,0.32489 -1.02584,2.75493z" fill="#ffffff" stroke="none" stroke-width="0" stroke-linecap="butt"/><path d="M247.38822,183.46607c0,0 0.58904,0.25429 0.03162,1.09294c-0.34958,0.52596 -1.78338,1.69328 -1.78338,1.69328" fill="none" stroke="#000000" stroke-width="0.5" stroke-linecap="round"/><g><path d="M231.29726,175.52753c0.2858,0.05586 1.04747,1.99697 0.76061,3.46469c-0.28687,1.46771 -1.22385,2.93498 -1.22385,2.93498c0,0 -1.38986,-1.68437 -1.18005,-3.16506c0.53769,-3.79462 1.35751,-3.29046 1.64329,-3.2346z" fill="#000000" stroke="none" stroke-width="0" stroke-linecap="butt"/><path d="M231.10632,175.78707c0.37811,0.10575 0.28489,1.98551 0.06119,3.13001c-0.22369,1.1445 -0.64844,2.18453 -0.64844,2.18453c0,0 -0.73629,-1.45871 -0.57269,-2.61333c0.41928,-2.95897 0.94125,-2.76237 1.15993,-2.70121z" fill="#ffffff" stroke="none" stroke-width="0" stroke-linecap="butt"/><path d="M230.74752,180.32781c0,0 -0.2313,-1.83437 -0.12107,-2.45621c0.17577,-0.99155 0.77746,-0.76883 0.77746,-0.76883" fill="none" stroke="#000000" stroke-width="0.5" stroke-linecap="round"/></g></g></g><g stroke="none" stroke-width="0" stroke-linecap="butt"><path d="M229.13211,186.49087c0.42989,-1.97201 0.70834,-1.93264 1.18895,-3.81602c0.26535,-1.03984 0.19865,-2.21575 0.47531,-3.36388c0.58266,-2.41798 2.47821,-7.19985 3.10959,-8.14118c3.50352,-5.22338 6.98486,-5.17298 11.02297,-3.72072c5.79794,2.08516 5.44621,6.16801 4.9245,9.56852c-0.36468,2.37697 -1.74843,5.34264 -3.2451,7.82217c-0.91667,1.51864 -1.87228,2.70081 -2.67212,3.9061c-0.98723,1.48767 -1.06234,2.05218 -1.90884,3.28038c-0.87949,1.27607 -3.07109,2.22125 -5.00081,3.05318c-1.76435,0.76064 -3.09393,1.42036 -4.31319,0.89774c-1.37455,-0.58919 -1.77942,-2.70078 -2.61822,-5.02196c-0.66456,-1.83901 -1.18587,-3.4422 -0.96304,-4.46434z" fill="#000000"/><g><g><path d="M231.15303,181.29114c0.30114,-1.50529 -0.50546,-1.56123 1.73424,-6.55381c1.04518,-2.32984 2.27208,-4.40637 3.28449,-5.31449c3.28904,-2.95021 6.92218,-2.02772 8.26794,-1.4886c1.14468,0.45856 4.51814,2.43415 5.09418,6.25696c0.12124,0.80456 0.11096,1.93585 -0.19625,3.09217c-0.31777,1.19608 -0.94119,2.41896 -1.32754,3.33514c-0.68268,1.61888 -1.23544,3.2701 -2.26716,4.83041c-0.50911,0.76996 -1.1944,1.49631 -1.68656,2.18348c-1.0469,1.4617 -1.44345,2.49853 -1.95991,3.28632c-1.1893,1.81411 -1.31952,1.78153 -2.30196,2.34047c-1.06467,0.60572 -2.38939,1.00709 -3.48921,1.44722c-0.99699,0.39898 -2.19194,1.10563 -3.10014,0.74179c-1.12921,-0.45236 -1.48197,-1.80375 -1.95549,-3.15097c-0.71514,-2.03464 -2.28104,-3.44113 -1.62558,-6.3365c0.26407,-1.16648 1.16861,-2.86832 1.52896,-4.66959z" fill="#6d4321"/><path d="M244.05638,187.63239c-0.42265,0.59011 -1.00065,1.57417 -1.00065,1.57417c0,0 -1.8275,0.11535 -3.1543,-0.93923c-1.30892,-1.04037 -1.57693,-2.6278 -1.57693,-2.6278l-1.7329,-0.65346c0,0 -1.18726,0.52932 -2.09201,0.5066c-0.90476,-0.02272 -1.46663,-0.19406 -1.46663,-0.19406c0,0 -0.55719,0.30593 -0.99188,0.36777c-0.43469,0.06184 -0.89677,-0.09909 -0.89677,-0.09909c0,0 0.07131,0.27244 0.01767,0.48313c-0.06896,0.27087 -0.25341,0.5734 -0.25341,0.5734c0,0 -0.32205,-0.53138 -0.79747,-0.74534c-0.3616,-0.16273 -0.48723,0.08319 -0.48702,0.08225c0.26407,-1.16648 1.13913,-2.88013 1.49948,-4.6814c0,0 13.42499,5.6659 12.93283,6.35306z" fill="#6d4321"/><path d="M229.03655,181.91597c0,0 -0.45761,-4.75988 0.19518,-6.38938c0.74809,-1.86739 3.26283,-4.44959 3.26283,-4.44959l18.40059,3.19174c0,0 -0.94032,6.62364 -1.84546,9.2818c-0.66294,1.94689 -4.46015,4.69079 -4.46015,4.69079c0,0 -2.25684,0.29138 -4.02518,-0.73975c-1.55623,-0.90745 -2.09668,-2.66218 -2.09668,-2.66218l-1.79783,-0.71807c0,0 -2.24548,1.08671 -4.56708,0.36548c-0.81641,-0.25363 -1.45339,-0.68213 -1.93006,-1.11733c-0.04098,-0.03742 -0.10251,0.56902 -0.10251,0.56902c0,0 0.25657,0.43714 1.01227,0.74783c0.63101,0.25942 1.49377,0.32775 1.49377,0.32775c0,0 -1.6296,0.48322 -2.79965,0.14748c-0.83208,-0.23876 -0.46416,-0.3429 -0.46416,-0.3429z" fill="#000000"/><path d="M229.56433,185.6844c-0.48619,0.28761 0.30758,-0.7678 0.30758,-0.7678c0,0 0.66105,0.18127 0.9136,0.49964c0.25256,0.31838 0.12245,0.80642 0.12245,0.80642c0,0 -0.30086,-1.15514 -1.34363,-0.53827z" fill="#000000"/></g><path d="M232.02373,173.81235l2.33155,-5.82004c0,0 7.89359,-2.79927 10.8177,-1.62785c2.71161,1.08629 6.13762,8.42028 6.13762,8.42028l-1.37833,4.19951c0,0 -0.02238,-3.15 -1.28733,-2.89855c-3.35538,0.66699 -8.28144,-0.07107 -8.28144,-0.07107c0,0 1.1805,-0.64611 1.76396,-0.97704c0.30597,-0.17354 0.6557,-0.49859 0.6557,-0.49859c0,0 -3.13483,0.49642 -5.68894,0.24287c-3.49219,-0.34668 -5.07048,-0.96952 -5.07048,-0.96952z" fill="#000000"/></g></g><g stroke="none" stroke-linecap="butt"><g fill="#6d4321" stroke-width="0"><path d="M229.96299,170.93605c0.2014,-0.40005 0.49394,-0.61221 0.49394,-0.61221c0,0 0.06116,-0.60895 0.4055,-1.22762c0.34026,-0.61136 0.82194,-0.94643 0.82194,-0.94643c0,0 4.41139,0.35451 11.71251,3.3758c7.30112,3.02129 9.87893,5.54448 9.87893,5.54448c0,0 0.11145,0.40577 -0.09746,0.96711c-0.15815,0.42496 -0.45666,0.77332 -0.45666,0.77332c0,0 0.17577,0.32498 0.0303,0.85447c-0.17023,0.61962 -0.54259,1.05716 -0.54259,1.05716c0,0 -3.39169,-2.82869 -10.11408,-5.75696c-5.60137,-2.43995 -12.35249,-3.02582 -12.35249,-3.02582c0,0 -0.03701,-0.49248 0.22016,-1.00331z"/><path d="M230.71222,170.5909c0.15016,-0.27693 0.40043,-0.40761 0.40043,-0.40761c0,0 0.00314,-0.44292 0.26556,-0.86832c0.25932,-0.42038 0.67263,-0.62507 0.67263,-0.62507c0,0 0.52367,0.08274 1.51607,0.32032c-0.37211,0.29906 -0.67213,0.69088 -0.85983,1.15943c-0.19872,0.49606 -0.24699,1.01681 -0.16622,1.51555c-1.19747,-0.25333 -1.94348,-0.37494 -1.94348,-0.37494c0,0 -0.0769,-0.36574 0.11485,-0.71935z"/><g><path d="M252.66256,177.13683c0,0 0.13774,0.30839 -0.00528,0.7034c-0.10827,0.29903 -0.35215,0.52946 -0.35215,0.52946c0,0 0.18978,0.25453 0.10227,0.63161c-0.10241,0.44126 -0.40636,0.7309 -0.40636,0.7309c0,0 -0.55253,-0.39073 -1.63801,-1.03802c0.43487,-0.30969 0.78548,-0.73786 0.9955,-1.2621c0.13762,-0.34353 0.20308,-0.6989 0.20351,-1.0506c0.762,0.483 1.10054,0.75535 1.10054,0.75535z"/><path d="M243.10444,172.19505c0.36043,0.14789 0.70914,0.29369 1.04638,0.43724c-0.35311,0.29458 -0.63799,0.6746 -0.81874,1.12578c-0.16467,0.41105 -0.22603,0.83904 -0.19628,1.25743c-0.30167,-0.13295 -0.61082,-0.26701 -0.9274,-0.40196c-0.4943,-0.2107 -0.99623,-0.41064 -1.50015,-0.60001c0.27928,-0.27081 0.50597,-0.60089 0.6585,-0.98164c0.19145,-0.4779 0.24326,-0.97872 0.17458,-1.4607c0.50344,0.19521 1.02467,0.40293 1.56311,0.62386z"/></g></g><g stroke-width="0.5"><g><g fill="#6d4321"><path d="M233.8049,169.90786c0.69152,-1.72617 2.78354,-2.512 4.67268,-1.7552c1.88914,0.7568 2.85999,2.76964 2.16847,4.49581c-0.69152,1.72617 -2.78354,2.512 -4.67267,1.7552c-1.88914,-0.7568 -2.85999,-2.76964 -2.16847,-4.49581z"/><g><path d="M233.45684,170.10355c0.64995,-1.62241 2.61915,-2.35983 4.39833,-1.64708c1.77918,0.71275 2.6946,2.60577 2.04465,4.22818c-0.64995,1.62241 -2.61915,2.35983 -4.39832,1.64708c-1.77918,-0.71275 -2.6946,-2.60577 -2.04466,-4.22818z"/><path d="M233.78802,170.23622c0.46372,-1.15754 1.67594,-1.81296 2.95571,-1.71128c-0.22513,0.25613 -0.41112,0.55408 -0.54503,0.88834c-0.63628,1.58829 0.1443,3.39519 1.74348,4.03583c0.26123,0.10465 0.52814,0.17171 0.79468,0.20373c-0.81933,0.63825 -2.00781,0.82019 -3.11437,0.37689c-1.59627,-0.63948 -2.4176,-2.3379 -1.83446,-3.79352z"/></g></g><path d="M234.1084,170.36457c0.5185,-1.29427 2.0408,-1.90202 3.40016,-1.35745c1.35936,0.54457 2.04102,2.03524 1.52253,3.32951c-0.5185,1.29427 -2.0408,1.90203 -3.40016,1.35746c-1.35936,-0.54457 -2.04102,-2.03524 -1.52253,-3.32952z" fill="#000000"/></g><g data-paper-data="{&quot;index&quot;:null}"><g fill="#6d4321"><path d="M251.00189,176.7971c-0.69152,1.72617 -2.78354,2.512 -4.67267,1.7552c-1.88914,-0.7568 -2.85999,-2.76964 -2.16848,-4.49581c0.69152,-1.72617 2.78354,-2.512 4.67267,-1.7552c1.88914,0.7568 2.85999,2.76964 2.16848,4.49581z"/><g><path d="M246.72026,178.82605c-1.77918,-0.71275 -2.6946,-2.60577 -2.04466,-4.22818c0.64995,-1.62241 2.61915,-2.35983 4.39833,-1.64708c1.77918,0.71275 2.6946,2.60577 2.04466,4.22818c-0.64995,1.62241 -2.61915,2.35983 -4.39832,1.64708z"/><path d="M250.78741,177.04629c-0.58313,1.45562 -2.34989,2.11724 -3.94617,1.47776c-1.10656,-0.4433 -1.84072,-1.39545 -1.99278,-2.42285c0.21494,0.16085 0.45432,0.29663 0.71555,0.40127c1.59918,0.64064 3.41136,-0.12758 4.04764,-1.71586c0.13391,-0.33426 0.20507,-0.67821 0.21904,-1.01893c0.996,0.81 1.42043,2.12108 0.95671,3.27862z"/></g></g><path d="M247.06687,178.27541c-1.35936,-0.54457 -2.04102,-2.03525 -1.52253,-3.32952c0.5185,-1.29427 2.0408,-1.90203 3.40016,-1.35746c1.35936,0.54457 2.04102,2.03525 1.52253,3.32952c-0.5185,1.29427 -2.0408,1.90203 -3.40016,1.35746z" fill="#000000"/></g></g></g></g></g></g></svg>