<svg version="1.1" xmlns="http://www.w3.org/2000/svg" xmlns:xlink="http://www.w3.org/1999/xlink" width="139.37748" height="344.35695" viewBox="0,0,139.37748,344.35695"><g transform="translate(-171.21695,-56.79929)"><g data-paper-data="{&quot;isPaintingLayer&quot;:true}" fill-rule="nonzero" stroke-linejoin="miter" stroke-miterlimit="10" stroke-dasharray="" stroke-dashoffset="0" style="mix-blend-mode: normal"><g stroke="none" stroke-linecap="butt"><g><g><g><g><path d="M279.45018,251.5299c-7.55081,6.38359 -18.05208,4.10628 -18.05208,4.10628v-28.5681c1.32945,-0.18511 2.65873,-0.3656 3.98785,-0.53996c6.76303,-0.88722 13.54191,-2.07455 20.33722,-2.9867c1.06004,5.53597 2.27967,9.30223 2.27967,9.30223c0,0 -2.09038,13.22291 -8.55266,18.68625z" data-paper-data="{&quot;index&quot;:null}" fill="#571c18" stroke-width="0"/><path d="M194.87449,232.84365c0,0 1.21963,-3.76626 2.27967,-9.30223c6.79531,0.91215 13.5742,2.09948 20.33722,2.9867c1.32912,0.17436 2.65841,0.35485 3.98785,0.53996v28.5681c0,0 -10.50127,2.27731 -18.05208,-4.10628c-6.46229,-5.46334 -8.55266,-18.68625 -8.55266,-18.68625z" fill="#571c18" stroke-width="0"/><g><path d="M200.58119,185.9609c0,-21.10292 18.15751,-38.21022 40.55593,-38.21022c22.39843,0 40.82079,17.1073 40.82079,38.21022c0,2.70002 0.0039,117.77204 0.0039,117.77204l-11.39983,-0.12964l-0.14337,-113.82486c0,0 0.46851,-2.08621 -1.77595,-2.22047c-2.48625,-0.14872 -2.11767,1.68282 -2.11767,1.68282l0.10343,114.38802l-50.32146,0.07847l0.10485,-114.20488c0,0 -0.19035,-2.13951 -1.8053,-2.16297c-2.01199,-0.02922 -1.98832,2.04221 -1.98832,2.04221l-0.29988,114.25674l-11.38239,0.22905c0,0 -0.35473,-116.42094 -0.35473,-117.90653z" fill="#000000" stroke-width="0"/><path d="M202.86638,187.26735c0,-20.02201 17.22746,-36.58913 38.47861,-36.58913c21.25115,0 38.72991,16.56711 38.72991,36.58913c0,2.56173 0.00369,114.79215 0.00369,114.79215l-7.50523,0.21307l0.19503,-111.38321c0,0 0.08238,-5.30397 -4.03353,-5.43136c-4.01424,-0.25313 -4.29562,4.92124 -4.29562,4.92124l-0.56401,112.58967l-45.42645,-0.26162l0.09948,-112.07984c0,0 0.71386,-5.00198 -3.49923,-5.04073c-4.92978,-0.04534 -4.96689,4.92616 -4.96689,4.92616l0.56795,112.12904l-7.39669,-0.11875c0,0 -0.38702,-113.84632 -0.38702,-115.25581z" fill="#ffffff" stroke-width="0"/><g fill="#000000"><path d="M230.02073,204.89617c-5.66213,0 -7.34973,-0.4705 -7.34973,-0.4705l-0.08286,-1.2733c0,0 5.25623,0.13066 7.69744,0.13066c4.20542,0 7.61458,-1.35635 7.61458,-0.87378c0,0.48257 -1.95246,2.48691 -7.87944,2.48691z" stroke-width="0"/><path d="M225.51818,199.6535c0,-0.55682 0.44467,-1.00821 0.99321,-1.00821c0.54854,0 0.99321,0.45139 0.99321,1.00821c0,0.55682 -0.44467,1.00821 -0.99321,1.00821c-0.54854,0 -0.99321,-0.45139 -0.99321,-1.00821z" stroke-width="0.5"/></g><g data-paper-data="{&quot;index&quot;:null}" fill="#000000"><path d="M244.83594,202.40926c0,-0.48257 3.40916,0.87378 7.61458,0.87378c2.44121,0 7.69744,-0.13066 7.69744,-0.13066l-0.08286,1.2733c0,0 -1.6876,0.4705 -7.34973,0.4705c-5.92698,0 -7.87944,-2.00433 -7.87944,-2.48691z" stroke-width="0"/><path d="M256.2247,200.6617c-0.54853,0 -0.99321,-0.45139 -0.99321,-1.00821c0,-0.55682 0.44467,-1.00821 0.99321,-1.00821c0.54853,0 0.99321,0.45139 0.99321,1.00821c0,0.55682 -0.44467,1.00821 -0.99321,1.00821z" stroke-width="0.5"/></g><path d="M240.38319,253.12204c0,-0.55681 0.44467,-1.00821 0.99321,-1.00821c0.54854,0 0.99321,0.45139 0.99321,1.00821c0,0.55681 -0.44467,1.00821 -0.99321,1.00821c-0.54854,0 -0.99321,-0.45139 -0.99321,-1.00821z" fill="#000000" stroke-width="0.5"/></g></g><path d="M241.13713,147.75068c9.30482,0 17.92347,2.95231 24.82026,7.91694c0,9.33333 0,25.19677 0,34.53011c0,0 0,0.86594 0.56979,1.45824l0.10125,111.97285l-50.32146,0.07847l0.10236,-111.49364c0.59754,-0.59258 0.59754,-1.48641 0.59754,-1.48641c0,-11.82675 0,-23.6535 0,-35.48024c6.74303,-4.7103 15.09132,-7.49631 24.13026,-7.49631z" fill="#000000" stroke-width="0"/></g><path d="M276.08292,243.37989c-3.81324,3.49146 -4.71402,8.8689 -4.71402,8.8689l0.08491,-17.05805l9.37821,-4.21914l0.199,10.91812c0,0 -2.12233,-1.09713 -4.9481,1.49018z" data-paper-data="{&quot;index&quot;:null}" fill="#000000" stroke-width="0"/><path d="M202.03426,241.88971l0.199,-10.91812l9.37821,4.21915l0.08491,17.05805c0,0 -0.90077,-5.37744 -4.71402,-8.8689c-2.82577,-2.58731 -4.9481,-1.49018 -4.9481,-1.49018z" fill="#000000" stroke-width="0"/><path d="M194.87449,232.84365c0,0 2.09983,-6.48437 3.18371,-14.94268c1.08745,-8.4862 -0.30495,-19.33409 -0.30495,-19.33409c0,0 -2.59691,-4.70119 -2.3986,-9.90078c0.17612,-4.6176 4.60097,-9.29708 4.60097,-9.29708l3.16799,-8.18588l18.35561,0.78194v83.6711c0,0 -4.97779,-12.2474 -12.52859,-18.63099c-6.46229,-5.46334 -14.07614,-4.16154 -14.07614,-4.16154z" fill="#6d4321" stroke-width="0"/><g stroke-width="0"><g data-paper-data="{&quot;index&quot;:null}"><path d="M273.9267,237.00519c-7.55081,6.38359 -12.52859,18.63099 -12.52859,18.63099v-83.6711l18.35561,-0.78194l3.16799,8.18588c0,0 4.42485,4.67948 4.60097,9.29708c0.19831,5.19959 -2.3986,9.90078 -2.3986,9.90078c0,0 -1.39239,10.8479 -0.30495,19.33409c1.08387,8.45831 3.18371,14.94268 3.18371,14.94268c0,0 -7.61386,-1.3018 -14.07614,4.16154z" fill="#6d4321"/><path d="M274.11958,232.88801c-0.00879,0.00817 -5.40907,-18.49664 -4.03666,-28.80143c0.45898,-3.44625 1.83503,-7.16715 3.46343,-10.59355c0,0 0.96286,3.69488 4.59362,2.85358c5.37842,-1.24627 6.1857,-7.35081 6.18608,-7.34003c0.14887,4.29232 -1.80062,8.17319 -1.80062,8.17319c0,0 -1.04526,12.93208 -0.22892,19.93752c0.81366,6.98242 2.39,12.33533 2.39,12.33533c0,0 -5.71571,-1.07465 -10.56693,3.43539z" fill="#8d6e47"/><path d="M283.86546,186.49051c-0.04133,0.0329 -1.4804,6.82477 -4.95842,7.89369c-3.99773,1.22865 -4.11937,-3.36483 -4.11937,-3.36483l6.23963,-9.99802c0,0 1.92827,2.54136 2.83817,5.46916z" fill="#8d6e47"/><path d="M276.29166,213.31701c0,0 6.70157,-4.09793 6.30042,-15.40103c-0.06095,-1.7174 0.95624,11.67577 0.70005,12.20081c-1.4747,3.02223 -7.00047,3.20022 -7.00047,3.20022z" fill="#6d4321"/><path d="M270.4149,223.16252c-0.31253,-0.49359 -0.66309,-11.84016 -0.53429,-10.12652c0.84776,11.2784 7.96036,14.61231 7.96036,14.61231c0,0 -5.62708,-1.64462 -7.42607,-4.48579z" data-paper-data="{&quot;index&quot;:null}" fill="#6d4321"/></g><g data-paper-data="{&quot;index&quot;:null}"><path d="M274.75194,274.25799c0,0 -7.09206,-4.07404 -14.00906,-3.16405c-5.55086,0.73026 -13.38975,6.98082 -13.38975,6.98082l-4.39619,0.02516c0,0 0.76534,-131.32042 12.08142,-130.44999c4.94616,0.38046 2.9094,51.17078 7.25443,85.41048c3.33033,26.2436 13.75817,38.12245 13.75817,38.12245z" fill="#571c18"/><g><path d="M276.05098,271.18287c0,0 -7.03377,-4.571 -16.74803,-3.38908c-6.19036,0.75318 -14.05032,8.16848 -14.05032,8.16848c0,0 0.42871,-128.3138 13.61195,-127.29975c8.73721,0.67205 10.18932,8.03405 10.18932,8.03405c0,0 5.6762,2.5033 10.32054,7.99178c3.64945,4.31277 3.87982,11.15832 3.87982,11.15832c0,0 -16.231,14.77764 -14.95819,33.02773c0.80082,11.48243 5.61971,26.09663 7.44013,39.3313c1.62665,11.82585 0.31477,22.97716 0.31477,22.97716z" fill="#773128"/><g><path d="M266.80584,198.69113c-0.22678,0.10718 -4.18222,8.20808 -7.65168,9.89547c-3.85436,1.87458 -7.25198,-2.6497 -7.31084,-2.61571c0.57211,-12.21353 1.35916,-24.03928 2.44156,-33.22743c0.03155,0.00763 4.7888,-0.61806 7.94368,-3.30048c3.12478,-2.65684 4.64764,-7.37062 4.64764,-7.37062c0,0 5.82031,1.93894 8.24336,6.69946c2.80934,5.51944 0.80902,10.66716 0.80902,10.66716c0,0 -6.56497,7.99757 -9.12273,19.25215z" fill="#894939"/><path d="M250.72959,239.72476c6.00408,-3.48819 11.90846,-7.14862 17.80606,-10.81772c0.5492,3.2189 1.09931,6.47272 1.56453,9.68765c-1.19225,0.00557 -2.88353,5.551 -2.22209,11.04062c0.76589,6.3565 4.00886,12.78425 4.00886,12.78425c0,0 -7.43224,-2.90374 -10.88864,-2.7591c-3.14164,0.13146 -8.99576,3.59118 -8.99576,3.59118c0,0 2.92882,-4.91428 2.77381,-7.90625c-0.20496,-3.95601 -3.57025,-6.15495 -4.24701,-4.98816c0.05234,-3.2743 0.11798,-6.84948 0.20023,-10.63247z" fill="#894939"/><path d="M268.18012,226.82309c-5.76616,3.58877 -11.53726,7.17131 -17.39895,10.59836c0.05272,-2.28664 0.1115,-4.63957 0.17703,-7.03946c5.53462,-2.76025 10.99361,-5.71032 16.35034,-8.81008c0.27489,1.7265 0.57025,3.48105 0.87158,5.25118z" fill="#894939"/><path d="M266.83108,218.44276c-5.16929,3.0137 -10.43675,5.88915 -15.77775,8.5873c0.16065,-5.44938 0.35657,-11.08872 0.59546,-16.70273c0.09862,-0.04376 3.56143,3.49507 8.07201,1.79912c3.88706,-1.46151 6.14058,-8.62149 6.29239,-8.69324c-0.19825,1.8695 -0.26557,3.80194 -0.16249,5.77961c0.15046,2.8865 0.51142,5.99255 0.98039,9.22994z" fill="#894939"/><path d="M270.27252,192.04347c-4.01337,1.96711 -9.45774,-1.60726 -9.45774,-1.60726c0,0 9.72809,4.0001 15.28809,-12.50108c0.5815,-1.72579 -1.2155,5.11723 -3.30355,9.22479c-2.07774,4.08727 -2.5268,4.88355 -2.5268,4.88355z" fill="#773128"/><path d="M251.70111,192.41717c-3.73404,-5.33974 1.92255,-15.55118 1.70363,-8.90871c-0.224,6.79633 5.62202,14.31208 5.62202,14.31208c0,0 -4.80376,-1.79702 -7.32565,-5.40337z" fill="#773128"/></g></g></g><g><path d="M194.87449,232.84365c0,0 2.09983,-6.48437 3.18371,-14.94268c1.08745,-8.4862 -0.30495,-19.33409 -0.30495,-19.33409c0,0 -2.59691,-4.70119 -2.3986,-9.90078c0.17612,-4.6176 4.60097,-9.29708 4.60097,-9.29708l3.16799,-8.18588l18.35561,0.78194v83.6711c0,0 -4.97779,-12.2474 -12.52859,-18.63099c-6.46229,-5.46334 -14.07614,-4.16154 -14.07614,-4.16154z" fill="#6d4321"/><path d="M198.19079,229.45262c0,0 1.57634,-5.35291 2.39,-12.33533c0.81634,-7.00544 -0.22892,-19.93752 -0.22892,-19.93752c0,0 -1.9495,-3.88088 -1.80062,-8.17319c0.00037,-0.01078 0.80766,6.09376 6.18608,7.34003c3.63075,0.84131 4.59362,-2.85358 4.59362,-2.85358c1.6284,3.4264 3.00445,7.1473 3.46343,10.59355c1.37241,10.30479 -4.02787,28.80961 -4.03666,28.80144c-4.85122,-4.51004 -10.56693,-3.43539 -10.56693,-3.43539z" fill="#8d6e47"/><path d="M201.85001,181.02136l6.23963,9.99802c0,0 -0.12163,4.59347 -4.11937,3.36483c-3.47802,-1.06892 -4.9171,-7.86078 -4.95843,-7.89369c0.9099,-2.9278 2.83817,-5.46916 2.83817,-5.46916z" fill="#8d6e47"/><path d="M199.58519,210.1168c-0.25619,-0.52505 0.761,-13.91821 0.70005,-12.20081c-0.40115,11.3031 6.30042,15.40103 6.30042,15.40103c0,0 -5.52577,-0.17799 -7.00047,-3.20022z" fill="#6d4321"/><path d="M205.03636,227.64831c0,0 7.1126,-3.33391 7.96036,-14.61231c0.12881,-1.71365 -0.22176,9.63293 -0.53429,10.12652c-1.79899,2.84117 -7.42607,4.48579 -7.42607,4.48579z" data-paper-data="{&quot;index&quot;:null}" fill="#6d4321"/></g><g><path d="M206.82634,271.18286c0,0 10.42784,-11.87885 13.75816,-38.12245c4.34503,-34.2397 2.30828,-85.03002 7.25444,-85.41048c11.31608,-0.87043 12.08142,130.44999 12.08142,130.44999l-4.39619,-0.02516c0,0 -7.83889,-6.25056 -13.38976,-6.98082c-6.917,-0.90999 -14.00905,3.16405 -14.00905,3.16405z" fill="#571c18"/><g><path d="M206.82634,271.18286c0,0 -1.31188,-11.15131 0.31477,-22.97716c1.82043,-13.23467 6.63932,-27.84887 7.44013,-39.3313c1.27281,-18.25009 -14.95819,-33.02773 -14.95819,-33.02773c0,0 0.23038,-6.84555 3.87983,-11.15832c4.64434,-5.48848 10.32053,-7.99178 10.32053,-7.99178c0,0 1.45211,-7.362 10.18932,-8.03405c13.18324,-1.01405 13.61195,127.29975 13.61195,127.29975c0,0 -7.85996,-7.4153 -14.05032,-8.16848c-9.71426,-1.18192 -16.74803,3.38908 -16.74803,3.38908z" fill="#773128"/><g><path d="M206.94874,179.43898c0,0 -2.00032,-5.14772 0.80902,-10.66716c2.42306,-4.76052 8.24336,-6.69946 8.24336,-6.69946c0,0 1.52285,4.71378 4.64764,7.37062c3.15488,2.68242 7.91212,3.30811 7.94368,3.30048c1.0824,9.18815 1.86944,21.0139 2.44156,33.22743c-0.05886,-0.03399 -3.45648,4.49029 -7.31084,2.61571c-3.46947,-1.68739 -7.42491,-9.78829 -7.65169,-9.89547c-2.55776,-11.25458 -9.12273,-19.25215 -9.12273,-19.25215z" fill="#894939"/><path d="M232.34797,250.35723c-0.67676,-1.16679 -4.04205,1.03215 -4.24701,4.98816c-0.15501,2.99197 2.77382,7.90625 2.77382,7.90625c0,0 -5.85412,-3.45972 -8.99576,-3.59118c-3.45639,-0.14464 -10.88864,2.7591 -10.88864,2.7591c0,0 3.24298,-6.42775 4.00886,-12.78425c0.66144,-5.48962 -1.02984,-11.03505 -2.22209,-11.04062c0.46522,-3.21493 1.01533,-6.46876 1.56453,-9.68765c5.8976,3.6691 11.80197,7.32953 17.80606,10.81772c0.08226,3.78299 0.14789,7.35817 0.20023,10.63247z" fill="#894939"/><path d="M215.56879,221.57191c5.35673,3.09976 10.81572,6.04983 16.35034,8.81008c0.06553,2.39989 0.12431,4.75282 0.17703,7.03946c-3.16798,-1.85217 -14.74915,-8.94916 -17.39895,-10.59836c0.30133,-1.77013 0.5967,-3.52469 0.87159,-5.25118z" fill="#894939"/><path d="M217.02663,209.21281c0.10308,-1.97767 0.03576,-3.91011 -0.16249,-5.77961c0.15181,0.07175 2.40533,7.23173 6.29239,8.69324c4.51057,1.69595 7.97339,-1.84288 8.07201,-1.79912c0.23889,5.61401 0.43481,11.25335 0.59546,16.70273c-5.341,-2.69815 -10.60846,-5.57359 -15.77775,-8.5873c0.46896,-3.23739 0.82994,-6.34344 0.98039,-9.22994z" fill="#894939"/><path d="M210.07799,187.15992c-2.08805,-4.10756 -3.88504,-10.95057 -3.30355,-9.22479c5.56,16.50118 15.28809,12.50108 15.28809,12.50108c0,0 -5.44437,3.57437 -9.45774,1.60726c0,0 -0.44907,-0.79628 -2.5268,-4.88355z" fill="#773128"/><path d="M223.85058,197.82054c0,0 5.84601,-7.51575 5.62202,-14.31208c-0.21892,-6.64247 5.43766,3.56897 1.70362,8.90871c-2.52188,3.60635 -7.32564,5.40337 -7.32564,5.40337z" fill="#773128"/></g></g></g></g></g><path d="M216.61833,158.6144c0,0 -0.28811,-4.86327 -1.5783,-9.70039c-0.74378,-2.78858 -4.22105,-5.24908 -4.22105,-5.24908c0,0 6.70427,-5.54671 10.82356,-3.79523c4.11929,1.75148 11.36237,13.22847 11.36237,13.22847l-0.75007,16.76735c0,0 -4.49605,1.10568 -9.98084,-2.77315c-4.98849,-3.52784 -5.65567,-8.47798 -5.65567,-8.47798z" fill="#571c18" stroke-width="0"/><path d="M259.05615,167.09238c-5.48479,3.87883 -9.98084,2.77314 -9.98084,2.77314l-0.75008,-16.76735c0,0 7.24309,-11.477 11.36237,-13.22848c4.11929,-1.75148 10.82356,3.79523 10.82356,3.79523c0,0 -3.47726,2.4605 -4.22105,5.24908c-1.29019,4.83712 -1.57829,9.70039 -1.57829,9.70039c0,0 -0.66718,4.95013 -5.65567,8.47798z" data-paper-data="{&quot;index&quot;:null}" fill="#571c18" stroke-width="0"/></g><g fill-opacity="0.19349" fill="#000000" stroke-width="0"><path d="M215.04003,148.91401c-0.74379,-2.78858 -4.22105,-5.24908 -4.22105,-5.24908c0,0 6.70427,-5.54671 10.82356,-3.79523c4.11929,1.75148 11.36238,13.22848 11.36238,13.22848l1.61406,14.82454c0,0 -4.78803,-0.55259 -10.23606,-5.17193c-5.94008,-5.03654 -8.41395,-9.49603 -8.41395,-9.49603c0,0 -0.5309,-2.84847 -0.92893,-4.34076z"/><path d="M216.9549,159.89504l-0.45654,-2.28271c0,0 4.8645,5.58919 8.97996,7.88424c2.55048,1.42232 6.727,2.46956 6.727,2.46956l2.38452,0.672l0.17018,1.36604l-2.5539,-1.07576c0,0 -3.31941,0.22631 -7.24829,-1.9075c-4.10244,-2.22807 -8.00294,-7.12587 -8.00294,-7.12587z"/></g><g data-paper-data="{&quot;index&quot;:null}" fill-opacity="0.19349" fill="#000000" stroke-width="0"><path d="M265.35625,153.25475c0,0 -2.47387,4.45949 -8.41395,9.49603c-5.44803,4.61934 -10.23606,5.17193 -10.23606,5.17193l1.61406,-14.82454c0,0 7.24309,-11.477 11.36237,-13.22848c4.11929,-1.75148 10.82356,3.79523 10.82356,3.79523c0,0 -3.47726,2.4605 -4.22105,5.24908c-0.39803,1.49229 -0.92893,4.34076 -0.92893,4.34076z"/><path d="M256.36737,167.02092c-3.92887,2.1338 -7.24828,1.9075 -7.24828,1.9075l-2.5539,1.07576l0.17018,-1.36604l2.38452,-0.672c0,0 4.17652,-1.04724 6.727,-2.46956c4.11546,-2.29505 8.97996,-7.88424 8.97996,-7.88424l-0.45654,2.2827c0,0 -3.9005,4.89781 -8.00294,7.12588z"/></g></g><g><g><g><g><g><path d="M193.38455,126.38598c0,0 4.75839,-5.12941 6.10536,-8.45329c2.88904,-7.12918 2.85124,-13.03672 2.85124,-13.03672c0,0 -1.85997,0.61665 -2.84266,0.69861c-1.61013,0.13429 -2.80363,-0.26204 -2.80363,-0.26204l6.42399,-6.92498c0,0 0.2475,-17.60523 8.9764,-29.16254c6.74693,-8.93313 20.64648,-12.51508 30.3551,-12.44472c8.42215,0.06104 22.55613,3.08573 28.68941,10.58184c10.08388,12.32455 6.38707,19.81995 10.11,32.42062c3.72078,12.59341 5.77495,16.18431 5.77495,16.18431c0,0 -1.64899,-0.1627 -2.4478,-0.70191c-3.35821,-2.26684 -4.77049,-4.144 -4.77049,-4.144c0,0 2.51404,9.65365 0.49901,21.29599c-1.43966,8.31802 -7.42166,16.10527 -7.42166,16.10527l-1.17358,-2.98711c0,0 -0.27736,1.51046 -1.52332,3.13635c-1.38133,1.80253 -3.94985,3.49671 -3.94985,3.49671l0.00318,-3.58884c0,0 -4.58502,5.92133 -10.91754,9.01637c-6.10567,2.98416 -11.80358,2.51788 -14.49123,2.46803c-14.12802,-0.26204 -24.08852,-10.83115 -24.08852,-10.83115l-1.5995,1.70352c0,0 -3.09691,-2.20769 -5.16904,-7.29265c-3.07463,-7.54506 -3.82841,-13.97384 -3.82841,-13.97384c0,0 -3.51398,2.22964 -6.51964,2.91866c-3.62077,0.83002 -6.65099,0.20519 -6.65099,0.20519c0,0 3.61051,-2.54967 5.08456,-3.95508c1.38725,-1.32265 3.51514,-4.24416 3.51514,-4.24416c0,0 -3.21775,1.31904 -4.68875,1.66038c-2.24208,0.52027 -3.5017,0.11114 -3.5017,0.11114z" fill="#000000" stroke="none" stroke-width="NaN" stroke-linecap="butt"/><g><g><path d="M210.47875,107.11528c0.96521,-0.18364 5.78639,4.94033 6.72949,9.89722c0.94309,4.95689 -0.15061,10.72809 -0.15061,10.72809c0,0 -6.46652,-3.53164 -7.66724,-8.4325c-3.07712,-12.5596 0.12316,-12.00917 1.08836,-12.19281z" fill="#000000" stroke="none" stroke-width="0" stroke-linecap="butt"/><path d="M210.20637,108.16775c1.31694,-0.1432 3.38354,5.86128 4.11895,9.72657c0.73541,3.86529 0.71005,7.6557 0.71005,7.6557c0,0 -4.13639,-3.64493 -5.07269,-7.46653c-2.39948,-9.79373 -0.51797,-9.83292 0.24369,-9.91574z" fill="#ffffff" stroke="none" stroke-width="0" stroke-linecap="butt"/><path d="M214.77997,122.83979c0,0 -3.02608,-5.45514 -3.46106,-7.54108c-0.69361,-3.32613 1.47037,-3.38348 1.47037,-3.38348" fill="none" stroke="#000000" stroke-width="0.5" stroke-linecap="round"/></g><g data-paper-data="{&quot;index&quot;:null}"><path d="M274.23607,119.18238c-1.20072,4.90086 -7.66724,8.4325 -7.66724,8.4325c0,0 -1.0937,-5.77121 -0.15061,-10.7281c0.9431,-4.95689 5.76428,-10.08085 6.72949,-9.89722c0.96521,0.18363 4.16548,-0.36679 1.08836,12.19281z" fill="#000000" stroke="none" stroke-width="0" stroke-linecap="butt"/><path d="M273.6638,117.95777c-0.93629,3.8216 -5.0727,7.46653 -5.0727,7.46653c0,0 -0.02536,-3.79041 0.71005,-7.6557c0.73541,-3.86529 2.80201,-9.86976 4.11895,-9.72656c0.76166,0.08282 2.64317,0.12201 0.2437,9.91574z" fill="#ffffff" stroke="none" stroke-width="0" stroke-linecap="butt"/><path d="M270.83716,111.78952c0,0 2.16397,0.05735 1.47037,3.38348c-0.43498,2.08594 -3.46106,7.54108 -3.46106,7.54108" fill="none" stroke="#000000" stroke-width="0.5" stroke-linecap="round"/></g><path d="M217.45335,144.16971c-1.12791,-6.71582 -0.20637,-6.94188 -1.0642,-13.44379c-0.47362,-3.58977 -2.15797,-7.18909 -2.73202,-11.13223c-1.20896,-8.30433 -1.27196,-25.65977 -0.47554,-29.40025c4.41933,-20.75585 15.3863,-24.96608 29.85603,-25.48425c20.77576,-0.74399 24.79696,12.48506 27.42961,23.79025c1.84023,7.90235 1.22737,18.92724 -0.34916,28.57116c-0.96559,5.90663 -2.47529,10.80823 -3.46814,15.58687c-1.22544,5.89815 -0.7524,7.76045 -1.86263,12.66938c-1.15349,5.10023 -6.83176,10.81045 -11.83191,15.83737c-4.57165,4.59612 -7.90818,8.33063 -12.38271,8.22359c-5.04445,-0.12068 -8.96195,-6.22631 -14.50155,-12.44391c-4.38889,-4.92605 -8.03319,-9.29321 -8.61781,-12.77419z" fill="#000000" stroke="none" stroke-width="0" stroke-linecap="butt"/><path d="M217.25875,125.34818c-0.94553,-5.09249 -3.54204,-4.25562 -2.79146,-22.70284c0.35027,-8.60857 1.58748,-16.65181 3.61898,-20.76639c6.59974,-13.36702 19.1364,-15.03633 24.02784,-15.03633c4.16055,0 17.20519,1.95486 23.80596,13.20532c1.38921,2.3678 2.77649,5.92394 3.26517,9.93109c0.50548,4.1449 0.08725,8.75725 0.02672,12.11153c-0.10696,5.92699 0.23361,11.79227 -1.04001,17.97375c-0.62848,3.05035 -1.86346,6.18514 -2.54274,8.95491c-1.44491,5.89168 -1.186,9.63665 -1.81514,12.75206c-1.44877,7.17412 -2.09749,7.23551 -4.47323,10.21882c-2.5746,3.23301 -6.22007,6.15229 -9.11253,8.91074c-2.62204,2.50056 -5.47801,6.21315 -8.77908,6.21315c-4.10432,0 -6.9048,-3.78999 -10.07829,-7.4154c-4.79276,-5.47527 -10.86201,-7.91572 -12.44194,-17.80658c-0.63652,-3.98482 -0.53881,-10.45004 -1.67025,-16.54383z" fill="#ffffff" stroke="none" stroke-width="0" stroke-linecap="butt"/></g></g><path d="M210.60203,100.83175v-21.15411c0,0 21.21081,-18.67174 31.8391,-18.67174c9.85589,0 29.78844,18.67174 29.78844,18.67174l0.9522,14.8825c0,0 -4.02246,-9.83788 -7.66885,-7.46317c-9.67233,6.2991 -26.0271,10.16832 -26.0271,10.16832c0,0 2.88671,-3.50484 4.29889,-5.2734c0.74057,-0.92746 1.4281,-2.38433 1.4281,-2.38433c0,0 -9.19557,5.48816 -17.51331,7.89872c-11.3727,3.29591 -17.09747,3.32547 -17.09747,3.32547z" fill="#000000" stroke="none" stroke-width="0" stroke-linecap="butt"/></g><g stroke="none" stroke-width="0" stroke-linecap="butt"><path d="M214.67214,130.96039c0,0 -6.1452,-6.0303 -7.84455,-12.67656c12.72732,0 25.45465,0 38.18197,0c10.26923,0 20.54188,0.00901 30.81206,-0.10113c-3.10406,6.85795 -8.70053,14.66496 -8.70053,14.66496c0,0 -2.20056,-0.70678 -5.22239,-0.98805c-1.95565,-0.18203 -4.604,-0.06961 -6.04582,0.13573c-1.60781,0.22898 -4.95622,0.89702 -7.00516,1.70212c-2.75045,1.08075 -4.04149,2.32828 -4.04149,2.32828l-5.7326,0.01577c0,0 -2.28011,-2.17786 -5.98595,-3.71838c-1.29386,-0.53786 -4.29126,-1.1255 -5.32333,-1.34041c-1.34732,-0.28055 -5.38193,-0.67122 -7.27413,-0.6789c-3.92216,-0.01592 -5.81807,0.65654 -5.81807,0.65654z" fill-opacity="0.37091" fill="#000000"/><path d="M214.67214,129.38031c0,0 -8.27542,-8.12068 -8.27542,-15.90097c0,-7.78029 9.00129,-27.96937 9.00129,-27.96937l52.79466,-4.07201c0,0 9.64423,19.94866 9.64423,28.18368c0,6.69752 -10.71582,21.64595 -10.71582,21.64595c0,0 -2.20056,-0.70678 -5.22239,-0.98805c-1.95565,-0.18203 -4.604,-0.0696 -6.04582,0.13574c-1.60781,0.22898 -4.95623,0.89702 -7.00516,1.70212c-2.75045,1.08075 -4.04149,2.32828 -4.04149,2.32828l-5.73259,0.01578c0,0 -2.28011,-2.17786 -5.98595,-3.71838c-1.29386,-0.53786 -4.29126,-1.1255 -5.32333,-1.34041c-1.34732,-0.28055 -5.38193,-0.67122 -7.27413,-0.6789c-3.92216,-0.01592 -5.81807,0.65654 -5.81807,0.65654z" fill="#000000"/></g></g><g fill="#000000" stroke="none" stroke-width="0" stroke-linecap="butt"><path d="M252.71112,141.5399c0,0 3.01794,-0.07365 7.90995,-3.16795c3.0193,-1.90977 4.30816,-5.27682 4.30816,-5.27682c0,0 1.66511,6.55601 -1.0676,8.44477c-2.73271,1.88876 -11.15051,0 -11.15051,0z"/><path d="M262.65729,140.17016c2.70488,0.35217 3.95263,5.76444 3.95263,5.76444c0,0 -2.20619,-1.97402 -5.12821,-2.23384c-4.73439,-0.42097 -6.96548,0.65926 -6.96548,0.65926c0,0 5.43619,-4.54204 8.14107,-4.18987z" data-paper-data="{&quot;index&quot;:null}"/></g><g data-paper-data="{&quot;index&quot;:null}" fill="none" stroke="none" stroke-width="1" stroke-linecap="butt" font-family="sans-serif" font-weight="normal" font-size="12" text-anchor="start"/></g><g stroke="none" stroke-width="0" stroke-linecap="butt"><path d="M242.3267,83.21352c0,0 7.28019,-3.91845 8.91859,-10.46152c1.61031,-6.43088 -3.66599,-15.68947 -0.80255,-15.89743c4.22482,-0.30684 4.61166,1.32682 7.49258,2.07578c2.42034,0.62922 6.5087,0.83988 7.61836,3.23083c1.18438,2.55194 0.87325,9.54318 -1.62492,14.61285c-2.62837,5.33388 -7.48288,8.68965 -7.48288,8.68965z" fill="#59220f"/><g><path d="M203.10947,97.6058c0,0 -0.61737,-0.97778 -0.45204,-3.30824c0.11088,-1.56296 0.99781,-2.99947 0.99781,-2.99947c0,0 -0.17065,-1.3397 0.24079,-3.96565c0.31567,-2.01475 1.323,-3.22829 1.323,-3.22829c0,0 6.31036,2.56942 15.05085,1.35299c12.40223,-1.72605 29.86618,-7.35834 42.5922,-6.76622c11.98758,0.55776 15.68939,4.4586 15.68939,4.4586c0,0 1.09497,1.18892 1.1451,2.26244c0.07575,1.62213 -0.51808,2.37244 -0.51808,2.37244c0,0 1.03756,1.13824 1.09403,2.69683c0.06606,1.82326 -0.47749,2.62415 -0.47749,2.62415c0,0 -6.12834,-4.23067 -17.76244,-3.96413c-15.48537,0.35476 -27.30079,6.42399 -37.7547,8.33536c-11.71706,2.14233 -21.16841,0.12919 -21.16841,0.12919z" fill="#6d4321"/><path d="M206.7232,95.87936c0,0 -0.59778,-0.66293 -0.52696,-2.30457c0.0475,-1.101 0.80846,-2.14248 0.80846,-2.14248c0,0 -0.02445,-0.11301 -0.04432,-0.33864c1.17355,1.15691 2.78492,1.87089 4.56304,1.87089c3.37509,0 6.14937,-2.57237 6.46923,-5.86349c1.25181,-0.06121 2.58954,-0.18436 3.99243,-0.3932c8.91799,-1.3276 20.64632,-4.49 30.92451,-5.78484c0.01984,0.01456 5.91695,0.85506 6.8371,3.95273c0.76828,2.58638 -3.86539,3.21609 -3.86432,3.23344c-11.98535,1.40999 -21.34292,5.33206 -29.82114,6.88258c-10.63261,1.94451 -19.33802,0.8876 -19.33802,0.8876z" fill="#8d6e47"/><path d="M260.67037,80.35612c10.97276,-0.05988 14.48958,2.53821 14.48958,2.53821c0,0 1.04145,0.79312 1.12422,1.54458c0.12507,1.1355 -0.39169,1.68439 -0.39169,1.68439c0,0 0.98726,0.75971 1.09251,1.85134c0.12313,1.27701 -0.34595,1.8595 -0.34595,1.8595c0,0 -5.74539,-2.7382 -16.36678,-2.11317c-0.05842,0.00344 -0.11677,0.00694 -0.17507,0.01051c-0.00452,-0.03606 2.88231,-0.33348 2.33335,-2.9446c-0.57772,-2.74793 -4.81975,-4.28226 -4.84095,-4.31892c1.05354,-0.06755 2.08228,-0.1064 3.08077,-0.11185z" fill="#8d6e47"/><path d="M209.32038,96.09116c14.52822,-1.25741 25.62403,-8.24558 25.62403,-8.24558c0,0 -2.32314,5.85506 -9.08384,7.99556c-4.64909,1.47195 -23.4915,0.85165 -16.54019,0.25002z" fill="#6d4321"/><path d="M238.81975,88.56183c0,0 5.02702,-4.38233 0.69235,-5.9715c-0.50376,-0.18469 9.61136,-1.71764 9.17361,-1.21161c-4.60308,5.32108 -9.86596,7.1831 -9.86596,7.1831z" fill="#6d4321"/></g><path d="M254.06749,72.41698c0.98497,-4.87895 -1.49623,-11.75059 0.25984,-11.75059c1.2704,0 2.50798,1.54981 4.27014,2.11802c1.48043,0.47738 3.54321,-0.21637 4.22195,1.59758c0.72444,1.93609 0.53414,7.24017 -0.9939,11.0864c-0.26564,0.66865 -0.56847,1.29633 -0.88893,1.87832c-1.01998,-0.66548 -2.23837,-1.05226 -3.54709,-1.05226c-0.59208,0 -1.16567,0.07916 -1.71076,0.22748c-0.79224,-0.34376 -1.66636,-0.53432 -2.58499,-0.53432c-0.15094,0 -0.30068,0.00514 -0.44905,0.01527c0.62335,-1.03514 1.15047,-2.23701 1.42279,-3.5859z" fill="#6d4321"/><path d="M253.40831,67.85124c-0.68071,-0.97918 0.26576,-8.07604 0.26472,-6.0885c-0.00191,3.65379 4.00059,8.63315 4.00059,8.63315c0,0 -3.06272,-0.81478 -4.26531,-2.54464z" fill="#59220f"/></g></g><path d="" fill-opacity="0.37091" fill="#000000" stroke="none" stroke-width="0" stroke-linecap="butt"/><g fill="#000000" stroke="none" stroke-width="0" stroke-linecap="butt"><path d="M228.2427,106.25798c5.64136,0 10.21459,4.47197 10.21459,9.98843c0,5.51646 -4.7706,9.74171 -10.41197,9.74171c-5.64137,0 -10.31875,-4.22525 -10.31875,-9.74171c0,-5.51645 4.87476,-9.98843 10.51613,-9.98843z"/><path d="M228.2427,106.51235c4.97522,0 8.78866,3.85659 8.78866,8.8032c0,4.94661 -4.01083,9.08774 -8.98605,9.08774c-4.97523,0 -8.81106,-3.98769 -8.81106,-8.9343c0,-4.94662 4.03322,-8.95664 9.00844,-8.95664z"/></g><g stroke="none" stroke-width="0" stroke-linecap="butt"><g><path d="M227.71908,111.29808c2.71342,0 4.91309,2.23007 4.91309,4.98099c0,2.75092 -2.19966,4.98098 -4.91309,4.98098c-2.71342,0 -4.91309,-2.23006 -4.91309,-4.98098c0,-2.75092 2.19966,-4.98099 4.91309,-4.98099z" fill="#571c18"/><path d="M227.71908,111.29808c2.71342,0 4.91309,2.23007 4.91309,4.98099c0,0.96777 -0.27223,1.87107 -0.7433,2.6355c-2.15614,-0.11098 -4.31208,-0.22559 -6.46767,-0.34662c-0.64866,-0.03642 -1.36952,-0.07078 -2.0939,-0.0536c-0.33352,-0.6722 -0.52131,-1.43151 -0.52131,-2.23528c0,-2.75092 2.19966,-4.98099 4.91309,-4.98099z" fill="#773128"/></g><path d="M227.71908,112.76466c1.91449,0 3.4665,1.57346 3.4665,3.51441c0,1.94096 -1.552,3.5144 -3.4665,3.5144c-1.91449,0 -3.46651,-1.57345 -3.46651,-3.5144c0,-1.94096 1.55201,-3.51441 3.46651,-3.51441z" fill="#000000"/></g><g stroke="none" stroke-width="0" stroke-linecap="butt"><path d="M241.41122,161.92046c-20.93115,-0.9924 -21.9654,-15.05078 -21.9654,-15.05078c0,0 3.19249,-1.2125 6.81393,-2.50197c2.62411,-0.93435 5.01093,-1.52771 7.31563,-1.83731c1.98712,-0.26694 7.81836,1.44287 9.85382,1.81174c1.5038,0.27252 3.38523,-1.74151 6.79623,-1.40798c2.01064,0.1966 3.48118,1.2533 5.37834,2.28316c2.95249,1.60273 6.40983,3.35524 6.40983,3.35524c0,0 -0.27046,3.9302 -4.01513,7.67657c-2.84416,2.84546 -8.0154,6.0671 -16.58726,5.67133z" fill="#000000"/><path d="M242.75389,146.13923c0,0 3.55679,-2.03317 6.70605,-1.60853c4.94965,0.6674 8.03361,3.37354 8.03361,3.37354c0,0 -9.63545,0.40163 -14.82825,0.2095c-5.81036,-0.21498 -18.38988,-1.43855 -18.38988,-1.43855c0,0 1.58204,-0.29885 3.20034,-0.89527c2.06604,-0.76143 4.43601,-1.86513 6.28822,-1.9123c3.67232,-0.09353 8.98991,2.27162 8.98991,2.27162z" fill="#ffffff"/><path d="M259.95547,149.52162c0,0 -0.80708,4.14143 -4.73296,6.43703c-6.12643,3.58234 -9.59211,3.13635 -12.63268,3.0368c-2.55669,-0.08371 -8.18795,0.6903 -14.62225,-3.20989c-5.58322,-3.3843 -6.12158,-7.52194 -6.12158,-7.52194c0,0 1.03687,0.10861 3.01761,0.16355c2.16742,0.06012 7.19151,-0.05034 9.93804,0.80501c3.79114,1.18068 5.5232,2.76649 7.93979,2.92575c2.43855,0.32363 4.59094,-1.33866 7.78833,-2.31442c2.02093,-0.61674 9.42571,-0.3219 9.42571,-0.3219z" fill="#ffffff"/></g><path d="M217.54636,116.83875c0,0 -0.16627,-2.22288 0.81062,-4.59656c1.16899,-2.84044 3.93233,-5.91812 9.99819,-5.95021c4.4123,-0.02334 6.77688,1.48178 8.31843,3.36171c2.53146,3.08714 2.42486,7.54013 2.42486,7.54013z" fill="#000000" stroke="none" stroke-width="0" stroke-linecap="butt"/><g stroke="none" stroke-width="0" stroke-linecap="butt"><g><path d="M238.9096,137.46708c0,0 -0.06312,-8.68679 -0.28083,-12.38791c-0.17487,-2.97289 -0.92532,-8.11666 -0.92532,-8.11666c0,0 -0.33218,-1.57308 0.02454,-1.56279c1.13657,0.03279 7.81544,1.78895 7.81544,1.78895l-0.37692,20.27841c0,0 0.82184,1.93768 0.72844,3.69896c-0.06976,1.31553 -0.97469,4.70292 -1.02626,5.67536c-0.11348,2.13998 -0.40577,3.89334 -0.40577,3.89334l-4.14036,-0.01448c0,0 -0.12488,-2.01528 -0.87252,-4.2695c-0.71961,-2.16969 -2.11593,-4.55553 -2.18508,-5.58924c-0.19994,-2.9885 1.64464,-3.39445 1.64464,-3.39445z" fill="#000000"/><path d="M241.27163,149.74502c0,0 -0.2909,-3.80356 -0.49735,-8.24071c-0.14904,-3.20315 -0.25299,-6.87544 -0.39988,-10.025c1.25646,0.05205 2.51292,0.10394 3.76938,0.15587l-0.38446,18.06932z" fill="#ffffff"/><path d="M238.85405,138.64509c0.34401,0 0.62288,4.77542 0.62288,4.77542c0,0 -1.24576,-1.59275 -1.24576,-2.7251c0,-1.13236 0.27887,-2.05032 0.62288,-2.05032z" fill="#ffffff"/></g><path d="M240.37441,131.47932c1.25645,0.05205 2.51291,0.10394 3.76937,0.15587l-0.08269,3.88648c-1.17573,-0.0413 -2.35145,-0.08254 -3.52719,-0.12366c-0.05008,-1.34707 -0.10143,-2.67372 -0.1595,-3.91869z" fill-opacity="0.37091" fill="#000000"/></g><path d="" fill="#ffffff" stroke="none" stroke-width="0" stroke-linecap="butt"/><path d="" fill="#ffffff" stroke="none" stroke-width="0" stroke-linecap="butt"/><path d="" fill="#ffffff" stroke="none" stroke-width="0" stroke-linecap="butt"/><g stroke="none" stroke-width="0" stroke-linecap="butt"><path d="M267.59191,384.24953c0,0 8.06794,-3.74967 10.07102,-4.60593c1.14628,-0.49 3.87574,-0.9936 5.51184,-0.7438c3.95558,0.60395 6.64404,2.65688 6.64404,2.65688c0,0 5.39476,-2.62233 8.81628,-1.80941c3.42152,0.81292 10.9821,6.84077 10.9821,6.84077c0,0 -1.17079,14.97826 -19.93409,14.55958c-21.46003,-0.47886 -22.09117,-16.89808 -22.09117,-16.89808z" fill="#000000"/><path d="M281.3859,380.96776c4.03109,-0.02175 4.78808,1.38851 8.69025,2.13568c1.61369,0.30897 5.74169,-2.19704 7.34738,-1.85816c1.85079,0.39062 7.91643,4.00539 7.91643,4.00539c0,0 -4.99133,0.25716 -9.36114,0.06715c-2.54447,-0.11063 -4.14208,-0.66492 -6.35202,-0.7437c-2.14548,-0.07648 -5.12805,-0.07672 -7.97344,-0.15906c-5.11887,-0.14809 -9.97173,-0.36421 -9.97173,-0.36421c0,0 7.10517,-3.0691 9.70429,-3.08312z" fill="#ffffff"/><path d="M278.53173,386.19609c2.79511,0.83049 7.34115,5.98863 11.13912,6.01884c6.49739,0.05166 6.39083,-4.79949 11.71737,-4.92229c3.24533,-0.14331 6.38844,-0.17603 6.38844,-0.17603c0,0 -1.49006,12.72166 -18.60467,12.15782c-19.44342,-1.28206 -19.46843,-13.57181 -19.46843,-13.57181c0,0 7.00248,-0.04896 8.82817,0.49348z" fill="#ffffff"/></g><g stroke="none" stroke-width="0" stroke-linecap="butt"><path d="M289.04652,376.60388c-24.31572,-0.6068 -21.26194,-20.03405 -21.26194,-20.03405c0,0 2.56937,-0.77227 6.62109,-2.17056c2.68852,-0.92784 6.60846,-2.71006 8.76999,-2.6317c2.21803,0.08041 7.87488,2.12393 7.87488,2.12393c0,0 4.44269,-2.15008 7.37244,-1.54859c3.60754,0.74065 12.144,5.77795 12.144,5.77795c0,0 1.6934,19.06233 -21.52045,18.48303z" fill="#000000"/><path d="M289.24044,374.72973c-20.42602,0.04237 -19.00003,-16.22112 -19.00003,-16.22112c0,0 2.54668,-0.24383 6.32592,0.46719c4.48671,0.84412 5.05301,8.01477 12.67433,8.25231c8.80954,0.27458 8.6326,-6.5971 12.92122,-7.13648c3.41425,-0.42941 6.27248,-0.09663 6.27248,-0.09663c0,0 0.33189,14.69422 -19.19391,14.73472z" fill="#ffffff"/><path d="M272.76081,356.5052c0,0 2.22082,-0.59721 4.56969,-1.41126c2.03285,-0.70453 4.11294,-1.63637 5.52278,-1.69679c2.99217,-0.12824 7.93817,2.52642 7.93817,2.52642c0,0 5.00901,-2.0152 7.44048,-1.67664c2.6544,0.3696 7.682,3.42154 7.682,3.42154c0,0 -4.04463,0.45598 -8.59546,0.43627c-1.89723,-0.00822 -3.82672,-0.60366 -5.7443,-0.70366c-3.09648,-0.16147 -6.05802,0.13785 -8.02519,0.06882c-4.27957,-0.15016 -10.78817,-0.9647 -10.78817,-0.9647z" fill="#ffffff"/></g><g stroke="none" stroke-width="0" stroke-linecap="butt"><path d="M171.21695,352.32962c0,0 9.02261,-2.10259 11.02569,-2.87341c1.14628,-0.4411 3.9553,-0.33757 5.59138,-0.11268c3.95558,0.54369 7.51915,1.43707 7.51915,1.43707c0,0 4.40965,-1.28844 7.7025,-0.27641c0.5645,0.17349 12.17544,4.80569 12.17544,4.80569c0,0 -0.02844,0.84781 -2.23052,3.11597c-3.70035,3.81138 -11.04091,5.40977 -19.05602,5.61515c-3.73342,0.09566 -9.82326,-1.3164 -14.40825,-4.13917c-4.98368,-3.06823 -8.31937,-7.57221 -8.31937,-7.57221z" fill="#000000"/><path d="M181.36577,351.69517c1.78476,-0.56986 4.16199,-0.35522 5.71361,-0.25136c1.36842,0.09161 4.15163,0.45441 8.05381,1.127c1.61369,0.27814 4.54837,-1.10269 6.15404,-0.79762c1.85079,0.35163 3.29419,0.44614 4.68334,0.98136c2.57006,0.9902 2.91485,1.35146 2.91485,1.35146c0,0 -3.76819,-0.56422 -7.35982,-0.1317c-2.42759,0.29235 -4.22111,1.31173 -6.28484,1.17359c-2.50232,-0.16751 -4.50205,-1.09617 -8.16293,-1.82488c-4.99635,-0.99452 -10.25966,-0.69487 -10.25966,-0.69487c0,0 1.54337,0.02624 4.54758,-0.93298z" fill="#ffffff"/><path d="M186.9301,354.87752c2.79511,0.74761 8.19556,2.55422 8.19556,2.55422c0,0 6.07261,-1.77477 8.85337,-1.88531c3.24533,-0.12901 9.65023,0.31887 9.65023,0.31887c0,0 -8.57051,6.28105 -20.03668,5.37569c-12.60163,-0.99501 -18.51376,-6.80771 -18.51376,-6.80771c0,0 10.02559,-0.04408 11.85128,0.44425z" fill="#ffffff"/></g></g></g></svg>