<svg version="1.1" xmlns="http://www.w3.org/2000/svg" xmlns:xlink="http://www.w3.org/1999/xlink" width="94.04938" height="247.00274" viewBox="0,0,94.04938,247.00274"><g transform="translate(-192.97542,-56.8647)"><g data-paper-data="{&quot;isPaintingLayer&quot;:true}" fill-rule="nonzero" stroke-linejoin="miter" stroke-miterlimit="10" stroke-dasharray="" stroke-dashoffset="0" style="mix-blend-mode: normal"><g><g fill="#000000" stroke="none" stroke-linecap="butt"><path d="M200.58126,185.9609c0,-21.10292 18.15751,-38.21022 40.55593,-38.21022c22.39843,0 40.82079,17.1073 40.82079,38.21022c0,2.70002 0.0039,117.77204 0.0039,117.77204l-11.39983,-0.12964l-0.14337,-113.82486c0,0 0.46851,-2.08621 -1.77595,-2.22047c-2.48625,-0.14872 -2.11767,1.68282 -2.11767,1.68282l0.10343,114.38802l-50.32146,0.07847l0.10485,-114.20488c0,0 -0.19035,-2.13951 -1.8053,-2.16297c-2.01199,-0.02922 -1.98832,2.04221 -1.98832,2.04221l-0.29988,114.25674l-11.38239,0.22905c0,0 -0.35473,-116.42094 -0.35473,-117.90653z" stroke-width="0"/><g><path d="M230.02078,204.89617c-5.66213,0 -7.34973,-0.4705 -7.34973,-0.4705l-0.08286,-1.2733c0,0 5.25623,0.13066 7.69744,0.13066c4.20542,0 7.61458,-1.35635 7.61458,-0.87378c0,0.48257 -1.95246,2.48691 -7.87944,2.48691z" stroke-width="0"/><path d="M225.51824,199.6535c0,-0.55682 0.44467,-1.00821 0.99321,-1.00821c0.54854,0 0.99321,0.45139 0.99321,1.00821c0,0.55682 -0.44467,1.00821 -0.99321,1.00821c-0.54854,0 -0.99321,-0.45139 -0.99321,-1.00821z" stroke-width="0.5"/></g><g data-paper-data="{&quot;index&quot;:null}"><path d="M244.83601,202.40926c0,-0.48257 3.40916,0.87378 7.61458,0.87378c2.44121,0 7.69744,-0.13066 7.69744,-0.13066l-0.08286,1.2733c0,0 -1.6876,0.4705 -7.34973,0.4705c-5.92698,0 -7.87944,-2.00433 -7.87944,-2.48691z" stroke-width="0"/><path d="M256.2247,200.6617c-0.54853,0 -0.99321,-0.45139 -0.99321,-1.00821c0,-0.55682 0.44467,-1.00821 0.99321,-1.00821c0.54853,0 0.99321,0.45139 0.99321,1.00821c0,0.55682 -0.44467,1.00821 -0.99321,1.00821z" stroke-width="0.5"/></g><path d="M240.38324,253.12204c0,-0.55681 0.44467,-1.00821 0.99321,-1.00821c0.54854,0 0.99321,0.45139 0.99321,1.00821c0,0.55681 -0.44467,1.00821 -0.99321,1.00821c-0.54854,0 -0.99321,-0.45139 -0.99321,-1.00821z" stroke-width="0.5"/></g><path d="M204.12122,181.3143c0,-13.63407 12.29686,-26.39575 25.82605,-26.39575c7.25202,0 13.38823,2.22621 17.87357,7.27292c-4.40806,-3.89392 -11.1497,-3.5984 -17.49378,-3.5984c-13.80712,0 -25,11.19288 -25,25c0,3.68749 -2.6198,11.74606 -1.1865,14.8972c-2.18332,-3.69255 -0.01935,-12.56543 -0.01935,-17.17597z" fill="#481310" stroke="none" stroke-width="0" stroke-linecap="butt"/><path d="M199.42985,218.88779c0,0 23.93861,-37.45259 60.19134,-40.13525c10.97795,-6.14151 6.85039,2.62939 6.85039,2.62939l-4.07012,22.20066c-0.37262,-0.00737 -0.7824,-0.0025 -1.232,0.01577c-1.58951,0.06458 -3.16274,0.18609 -4.71786,0.3592c-1.8623,-0.44266 -3.80532,-0.67699 -5.80307,-0.67699c-3.76111,0 -7.32824,0.83055 -10.52797,2.31826c-4.94961,0.13966 -9.53921,1.71797 -13.36547,4.33157c-1.99304,0.44126 -3.89666,1.12039 -5.67953,2.00609c-0.04806,-0.00027 -0.09616,-0.00041 -0.14428,-0.00041c-9.14473,0 -17.14268,4.90996 -21.50143,12.23745z" fill="#571c18" stroke="none" stroke-width="0" stroke-linecap="butt"/><path d="M262.40146,203.58258c4.60305,0.09099 3.5347,2.04931 1.80587,3.69064c-0.72366,-0.46803 -1.47304,-0.89969 -2.24555,-1.29239z" fill="#571c18" stroke="none" stroke-width="0" stroke-linecap="butt"/><path d="M199.42985,218.88779c0,0 4.2872,-6.70744 11.98058,-14.64857c0.37917,3.087 1.32106,5.99993 2.71991,8.63305c-6.22554,1.75595 -11.46539,5.86273 -14.7005,11.30127z" fill="#481310" stroke="none" stroke-width="0" stroke-linecap="butt"/><path d="M227.99218,205.24299c2.9598,-1.71847 8.02456,-2.05933 11.20657,-3.27753c6.45794,-2.47234 8.69841,-6.4959 10.05584,-6.93072c1.22536,-0.39252 -0.68836,-14.36995 0.57489,-14.68813c3.15102,-0.79367 6.41804,-1.34443 9.79171,-1.59408c10.97795,-6.14151 6.85039,2.62939 6.85039,2.62939l-4.07012,22.20065c-0.37262,-0.00737 -0.7824,-0.0025 -1.23201,0.01577c-1.58951,0.06458 -3.16275,0.18609 -4.71788,0.35921c-1.8623,-0.44266 -3.80531,-0.67698 -5.80304,-0.67698c-3.76111,0 -7.32824,0.83055 -10.52797,2.31826c-4.94961,0.13966 -9.53921,1.71797 -13.36547,4.33157c-1.99304,0.44126 -3.89666,1.12039 -5.67953,2.00609c-0.04806,-0.00027 -0.09616,-0.00041 -0.14428,-0.00041c-0.43634,0 -0.87007,0.01118 -1.30091,0.03326c2.58285,-2.47257 5.37728,-4.99353 8.36182,-6.72636z" fill="#481310" stroke="none" stroke-width="0" stroke-linecap="butt"/><path d="M262.40146,203.58258c4.60305,0.091 3.53469,2.04932 1.80587,3.69065c-0.72366,-0.46803 -1.47304,-0.89969 -2.24555,-1.29239z" fill="#481310" stroke="none" stroke-width="0" stroke-linecap="butt"/><path d="M261.40675,243.11149c0,5.93544 2.06777,17.17312 -2.35724,20.69327c-3.47653,2.76561 -12.83041,-1.50276 -17.70557,-1.50276c-11.08038,0 -20.0628,-8.59188 -20.0628,-19.19051c0,-10.59862 8.98243,-19.19051 20.0628,-19.19051c11.08038,0 20.06281,8.59188 20.06281,19.19051z" fill="none" stroke-opacity="0.5" stroke="#000000" stroke-width="10" stroke-linecap="butt"/><path d="M227.0282,241.58879c0,0 4.83088,-1.26217 13.69461,-1.09188c6.14822,0.11811 10.15233,-6.53104 15.02171,-0.39192c4.61631,3.64679 -13.6328,11.58385 -9.97403,12.22417c13.10995,2.2944 13.11634,-8.50797 13.11634,-8.50797" fill="none" stroke="#290b09" stroke-width="10" stroke-linecap="round"/><path d="M228.20027,232.68115c0,0 5.29969,-2.90306 14.16343,-2.73277c6.14822,0.11812 8.51144,4.01749 13.38083,10.15661c4.61631,3.64679 -13.6328,11.58385 -9.97403,12.22417c13.10995,2.2944 13.11634,-8.50797 13.11634,-8.50797" fill="none" stroke="#330d0b" stroke-width="10" stroke-linecap="round"/><path d="M258.8868,243.82119c0,0 -0.00639,10.80237 -13.11634,8.50797c-3.65877,-0.64032 -11.93729,2.39957 -16.55359,-1.24722c-4.5138,-3.56581 -5.40741,-13.82706 -5.40741,-13.82706" fill="none" stroke="#481310" stroke-width="10" stroke-linecap="round"/><path d="M258.8868,243.82119c0,0 -0.00639,10.80237 -13.11634,8.50797c-7.2363,-1.26643 -14.3368,-2.53124 -14.3368,-2.53124" fill="none" stroke="#571c18" stroke-width="10" stroke-linecap="round"/><path d="M257.99622,259.33383c0,0 -6.35971,0.14549 -19.46968,-2.1489c-7.2363,-1.26643 -13.87927,-5.25425 -13.87927,-5.25425" fill="none" stroke="#481310" stroke-width="10" stroke-linecap="round"/><path d="M261.75568,245.90284c0,5.93543 2.06778,17.17312 -2.35724,20.69327c-3.47653,2.76561 -12.83041,-1.50276 -17.70556,-1.50276c-11.08038,0 -20.06281,-8.59188 -20.06281,-19.19051c0,-10.59863 8.98242,-19.19051 20.06281,-19.19051c11.08038,0 20.06281,8.59188 20.06281,19.19051z" fill="none" stroke="#000000" stroke-width="10" stroke-linecap="butt"/><path d="M261.75568,248.69419c0,5.93544 2.06777,17.17312 -2.35724,20.69326c-3.47653,2.76561 -12.83041,-1.50275 -17.70557,-1.50275c-11.08038,0 -20.0628,-8.59188 -20.0628,-19.19051c0,-10.59862 8.98243,-19.19051 20.0628,-19.19051c11.08038,0 20.06281,8.59188 20.06281,19.19051z" fill="none" stroke-opacity="0.5" stroke="#000000" stroke-width="10" stroke-linecap="butt"/><path d="M255.17407,211.18694c2.00367,-4.30144 3.25352,-9.05937 4.02562,-13.56198c-9.30658,-12.34347 -16.99084,-44.26381 -16.99084,-44.26381c0,0 4.65734,-2.18485 17.57832,-0.19753c14.28921,2.19776 23.88855,20.83089 24.14695,29.49898c0.52769,17.70207 0.42278,39.47898 0.26085,53.76507c-2.13699,-0.59453 -4.38925,-0.91232 -6.71573,-0.91232c-1.38605,0 -2.74576,0.1128 -4.07045,0.32971c-3.43725,-1.77951 -7.34016,-2.7847 -11.47784,-2.7847c-0.35622,0 -0.7107,0.00745 -1.06329,0.0222c-2.50223,-3.88408 -6.05105,-7.03024 -10.24785,-9.03986c-0.85222,-0.99153 -1.78085,-1.91549 -2.77677,-2.76273c2.44222,-2.29058 5.24225,-5.60887 7.33103,-10.09304z" fill="#59220f" stroke="none" stroke-width="0" stroke-linecap="butt"/><path d="M255.17407,211.18694c0.94296,-2.02432 1.71896,-4.14975 2.35678,-6.30208c2.93767,1.21263 6.15695,1.88162 9.53248,1.88162c0.76307,0 1.51815,-0.03419 2.2638,-0.10111c1.43069,8.54735 7.19828,15.62522 14.96328,18.89414c-0.02419,3.92356 -0.05832,7.59274 -0.09545,10.86816c-2.13699,-0.59453 -4.38925,-0.91232 -6.71573,-0.91232c-1.38605,0 -2.74576,0.1128 -4.07045,0.32971c-3.43725,-1.77951 -7.34016,-2.7847 -11.47784,-2.7847c-0.35622,0 -0.7107,0.00745 -1.06329,0.0222c-2.50223,-3.88408 -6.05105,-7.03024 -10.24785,-9.03986c-0.85222,-0.99153 -1.78085,-1.91549 -2.77677,-2.76273c2.44222,-2.29058 5.24225,-5.60887 7.33103,-10.09304z" fill="#481310" stroke="none" stroke-width="0" stroke-linecap="butt"/><path d="M261.75568,243.80933c0,5.93544 2.06777,17.17312 -2.35724,20.69326c-3.47653,2.76561 -12.83041,-1.50275 -17.70557,-1.50275c-11.08038,0 -20.0628,-8.59188 -20.0628,-19.19051c0,-10.59862 8.98243,-19.19051 20.0628,-19.19051c11.08038,0 20.06281,8.59188 20.06281,19.19051z" fill="none" stroke-opacity="0.5" stroke="#000000" stroke-width="10" stroke-linecap="butt"/></g><path d="" fill="#481310" stroke="none" stroke-width="0" stroke-linecap="butt"/><path d="" fill="#481310" stroke="none" stroke-width="0" stroke-linecap="butt"/><path d="" fill="#481310" stroke="none" stroke-width="0" stroke-linecap="butt"/><g><path d="M193.38464,126.45139c0,0 4.75839,-5.12941 6.10536,-8.45329c2.88904,-7.12918 2.85124,-13.03672 2.85124,-13.03672c0,0 -1.85997,0.61665 -2.84266,0.69861c-1.61013,0.13429 -2.80363,-0.26204 -2.80363,-0.26204l6.42399,-6.92498c0,0 0.2475,-17.60523 8.9764,-29.16254c6.74693,-8.93313 20.64648,-12.51508 30.3551,-12.44472c8.42215,0.06104 22.55613,3.08573 28.68941,10.58184c10.08388,12.32455 6.38707,19.81995 10.11,32.42062c3.72078,12.59341 5.77495,16.18431 5.77495,16.18431c0,0 -1.64899,-0.1627 -2.4478,-0.70191c-3.35821,-2.26684 -4.77049,-4.144 -4.77049,-4.144c0,0 2.51404,9.65365 0.49901,21.29599c-1.43966,8.31802 -7.42166,16.10527 -7.42166,16.10527l-1.17358,-2.98711c0,0 -0.27736,1.51046 -1.52332,3.13635c-1.38133,1.80253 -3.94985,3.49671 -3.94985,3.49671l0.00318,-3.58884c0,0 -4.58502,5.92133 -10.91754,9.01637c-6.10567,2.98416 -11.80358,2.51788 -14.49123,2.46803c-14.12802,-0.26204 -24.08852,-10.83115 -24.08852,-10.83115l-1.5995,1.70352c0,0 -3.09691,-2.20769 -5.16904,-7.29265c-3.07463,-7.54506 -3.82841,-13.97384 -3.82841,-13.97384c0,0 -3.51398,2.22964 -6.51964,2.91866c-3.62077,0.83002 -6.65099,0.20519 -6.65099,0.20519c0,0 3.61051,-2.54967 5.08456,-3.95508c1.38725,-1.32265 3.51514,-4.24416 3.51514,-4.24416c0,0 -3.21775,1.31904 -4.68875,1.66038c-2.24208,0.52027 -3.5017,0.11114 -3.5017,0.11114z" fill="#000000" stroke="none" stroke-width="NaN" stroke-linecap="butt"/><g><path d="M210.47884,107.33125c0.96521,-0.18364 5.78639,4.94033 6.72949,9.89722c0.94309,4.95689 -0.15061,10.72809 -0.15061,10.72809c0,0 -6.46652,-3.53164 -7.66724,-8.4325c-3.07712,-12.5596 0.12316,-12.00917 1.08836,-12.19281z" fill="#000000" stroke="none" stroke-width="0" stroke-linecap="butt"/><path d="M214.78006,123.05576c0,0 -3.02608,-5.45514 -3.46106,-7.54108c-0.69361,-3.32613 1.47037,-3.38348 1.47037,-3.38348" fill="none" stroke="#000000" stroke-width="0.5" stroke-linecap="round"/></g><g data-paper-data="{&quot;index&quot;:null}"><path d="M274.23609,119.39835c-1.20072,4.90086 -7.66724,8.4325 -7.66724,8.4325c0,0 -1.0937,-5.77121 -0.15061,-10.7281c0.9431,-4.95689 5.76428,-10.08085 6.72949,-9.89722c0.96521,0.18363 4.16548,-0.36679 1.08836,12.19281z" fill="#000000" stroke="none" stroke-width="0" stroke-linecap="butt"/><path d="M270.83718,112.00549c0,0 2.16397,0.05735 1.47037,3.38348c-0.43498,2.08594 -3.46106,7.54108 -3.46106,7.54108" fill="none" stroke="#000000" stroke-width="0.5" stroke-linecap="round"/></g><path d="M217.45344,144.38566c-1.12791,-6.71582 -0.20637,-6.94188 -1.0642,-13.44379c-0.47362,-3.58977 -2.15797,-7.18909 -2.73202,-11.13223c-1.20896,-8.30433 -1.27196,-25.65977 -0.47554,-29.40025c4.41933,-20.75585 15.3863,-24.96608 29.85603,-25.48425c20.77576,-0.74399 24.79696,12.48506 27.42961,23.79025c1.84023,7.90235 1.22737,18.92724 -0.34916,28.57116c-0.96559,5.90663 -2.47529,10.80823 -3.46814,15.58687c-1.22544,5.89815 -0.7524,7.76045 -1.86263,12.66938c-1.15349,5.10023 -6.83176,10.81045 -11.83191,15.83737c-4.57165,4.59612 -7.90818,8.33063 -12.38271,8.22359c-5.04445,-0.12068 -8.96195,-6.22631 -14.50155,-12.44391c-4.38889,-4.92605 -8.03319,-9.29321 -8.61781,-12.77419z" fill="#000000" stroke="none" stroke-width="0" stroke-linecap="butt"/><path d="M217.25884,125.56414c-0.94553,-5.09249 -3.54204,-4.25562 -2.79146,-22.70284c0.35027,-8.60857 1.58748,-16.65181 3.61898,-20.76639c6.59974,-13.36702 19.1364,-15.03633 24.02784,-15.03633c4.16055,0 17.20519,1.95486 23.80596,13.20532c1.38921,2.3678 2.77649,5.92394 3.26517,9.93109c0.50548,4.1449 0.08725,8.75725 0.02672,12.11153c-0.10696,5.92699 0.23361,11.79227 -1.04001,17.97375c-0.62848,3.05035 -1.86346,6.18514 -2.54274,8.95491c-1.44491,5.89168 -1.386,9.63665 -2.01514,12.75206c-1.44877,7.17412 -1.89749,7.23551 -4.27323,10.21882c-2.5746,3.23301 -6.22007,6.15229 -9.11253,8.91074c-2.62204,2.50056 -5.47801,6.21315 -8.77908,6.21315c-4.10432,0 -6.9048,-3.78999 -10.07829,-7.4154c-4.79276,-5.47527 -11.46201,-7.91572 -13.04194,-17.80658c-0.63652,-3.98482 0.06119,-10.45004 -1.07025,-16.54383z" fill="#000000" stroke="none" stroke-width="0" stroke-linecap="butt"/><g fill="#000000" stroke="none" stroke-width="0" stroke-linecap="butt"><path d="M228.2428,106.47395c5.64136,0 10.21459,4.47197 10.21459,9.98843c0,5.51646 -4.7706,9.74171 -10.41197,9.74171c-5.64137,0 -10.31875,-4.22525 -10.31875,-9.74171c0,-5.51645 4.87476,-9.98843 10.51613,-9.98843z"/><path d="M228.2428,106.72833c4.97522,0 8.78866,3.85659 8.78866,8.8032c0,4.94661 -4.01083,9.08774 -8.98605,9.08774c-4.97523,0 -8.81106,-3.98769 -8.81106,-8.9343c0,-4.94662 4.03322,-8.95664 9.00844,-8.95664z"/></g><g fill="#000000" stroke="none" stroke-width="0" stroke-linecap="butt"><path d="M254.80272,106.49857c5.64136,0 10.21459,4.47198 10.21459,9.98844c0,5.51645 -4.72127,9.64301 -10.36263,9.64301c-3.16285,0 -6.23667,-1.06026 -8.11031,-3.26759c-1.46826,-1.72975 -1.95625,-3.95178 -1.95625,-6.37542c0,-5.51646 4.57322,-9.98844 10.21459,-9.98844z"/><path d="M254.80272,106.75295c4.97523,0 8.70691,4.08541 8.70691,9.03202c0,4.94661 -3.87973,8.68387 -8.85495,8.68387c-4.97523,0 -8.8604,-3.81265 -8.8604,-8.75926c0,-4.94661 4.03322,-8.95663 9.00844,-8.95663z"/></g><path d="M213.28847,109.80518l0.13102,-1.63769l7.19167,-1.18423l0.32653,-1.46623c0,0 3.68245,-1.72538 7.2562,-2.03587c3.72054,-0.32324 9.00496,-0.09575 9.00496,-0.09575l0.32754,4.71657c0,0 -4.80797,-1.2906 -8.17678,-1.07798c-6.17314,0.38961 -6.13035,1.25866 -10.09703,1.94554c-3.96668,0.68688 -5.96411,0.83565 -5.96411,0.83565z" fill="#000000" stroke="none" stroke-width="0" stroke-linecap="butt"/><path d="M257.42143,103.48666c-6.5361,-0.02665 -11.93017,2.50832 -11.93017,2.50832l-0.26203,-4.42239c0,0 5.28442,-1.73418 9.39801,-1.86949c4.11358,-0.13531 7.12519,0.66021 7.12519,0.66021l0.19551,1.20419l7.3882,2.16685l0.13101,1.6377c0,0 -5.86035,-1.86016 -12.04572,-1.88538z" data-paper-data="{&quot;index&quot;:null}" fill="#000000" stroke="none" stroke-width="0" stroke-linecap="butt"/><path d="M227.71917,111.51405c2.71342,0 4.91309,2.23007 4.91309,4.98099c0,2.75092 -2.19966,4.98098 -4.91309,4.98098c-2.71342,0 -4.91309,-2.23006 -4.91309,-4.98098c0,-2.75092 2.19966,-4.98099 4.91309,-4.98099z" fill="#000000" stroke="none" stroke-width="0" stroke-linecap="butt"/><path d="M254.87174,111.73317c2.71342,0 4.91309,2.23006 4.91309,4.98098c0,2.75092 -2.19966,4.98098 -4.91309,4.98098c-2.71342,0 -4.91309,-2.23006 -4.91309,-4.98098c0,-2.75091 2.19966,-4.98098 4.91309,-4.98098z" fill="#000000" stroke="none" stroke-width="0" stroke-linecap="butt"/><g fill="#000000" stroke="none" stroke-width="0" stroke-linecap="butt"><path d="M217.54645,117.05472c0,0 -0.16627,-2.22288 0.81062,-4.59656c1.16899,-2.84044 3.93233,-5.91812 9.99819,-5.95021c4.4123,-0.02334 6.77688,1.48178 8.31843,3.36171c2.53146,3.08714 2.42486,7.54013 2.42486,7.54013z"/><path d="M219.11869,115.48254c0,0 0.38648,-8.1425 9.36763,-8.12298c3.32151,0.00722 5.24312,1.47836 6.59481,2.79979c2.45356,2.39865 2.57629,5.32319 2.57629,5.32319z"/></g><g fill="#000000" stroke="none" stroke-width="0" stroke-linecap="butt"><path d="M244.50743,117.07613c0,0 -0.53134,-3.2454 0.9459,-6.12374c1.32927,-2.59004 4.34124,-4.84529 9.8629,-4.81608c11.13492,0.0589 11.0941,11.29489 11.0941,11.29489z" data-paper-data="{&quot;index&quot;:null}"/><path d="M245.68658,115.24189c0,0 0.21519,-7.7079 9.56586,-7.72822c8.98115,-0.01952 9.56245,7.99026 9.56245,7.99026z" data-paper-data="{&quot;index&quot;:null}"/></g><g stroke="none" stroke-linecap="butt"><g fill="#000000" stroke-width="NaN"><path d="M251.43947,140.12367c2.3147,0.85819 4.92893,2.90877 7.65968,4.32182c3.41552,1.76734 6.38319,3.69417 6.38319,4.0433c0,0.1335 0.69264,0.7824 0.36949,1.51332c-4.70601,10.64453 -2.01508,21.96176 -10.24351,28.39589c-2.94104,2.29971 -9.93899,7.31748 -14.52228,6.8998c-4.41739,-0.40257 -14.74909,-10.03882 -15.46985,-10.02354c-2.55056,-1.82601 -4.66067,-22.33299 -7.45665,-28.29733c-0.71804,-1.53171 -0.12141,-2.67027 -0.20242,-2.70404c-0.35552,-0.14817 2.34663,-0.77075 4.74258,-1.61995c1.42759,-0.506 6.5022,-3.42488 9.88553,-3.55234c0,0 6.58998,1.14979 12.01473,1.42301c0,0 4.63847,-1.21596 6.83951,-0.39992z" stroke-width="NaN"/></g><path d="M255.66959,151.12398c0,0 -3.12145,-2.02597 -14.7705,-3.46864c-8.81656,-1.09189 -13.58084,0.47952 -13.58084,0.47952c0,0 -1.09453,-3.39717 2.25589,-3.94885c5.28708,-0.87053 16.67904,1.11315 23.10254,2.4854c6.35798,1.35825 2.99292,4.45257 2.99292,4.45257z" fill="#481310" stroke-width="0"/><path d="M240.74741,180.71657c-5.08058,-0.85122 -8.00629,-3.17131 -10.74153,-4.98481c-2.99515,-1.98582 -2.28702,-7.23084 -2.28702,-7.23084c0,0 5.14186,5.53423 14.01556,7.31322c4.08644,0.81925 7.00558,-0.9383 9.07472,-1.4339c3.86753,-0.92635 4.76535,-1.54356 4.76535,-1.54356c0,0 -1.0341,3.89147 -3.92123,5.60796c-3.37166,2.00456 -8.91338,2.60575 -10.90584,2.27192z" data-paper-data="{&quot;index&quot;:null}" fill="#330d0b" stroke-width="0"/></g><g fill="#481310" stroke="none" stroke-width="0" stroke-linecap="butt"><path d="M236.84147,108.92974c0,0 -0.79197,0.65425 -1.94472,2.63647c-1.7595,3.02555 -4.62359,7.93851 -8.86855,8.86769c-4.03988,0.88428 -8.50263,-2.26888 -11.36941,-4.20917c-2.11908,-1.43423 -3.26105,-1.72563 -3.26105,-1.72563c0,0 1.1259,-1.05641 2.7887,-3.59421c1.82431,-2.78431 4.34881,-7.10537 8.02456,-7.90994c4.33761,-0.94945 9.02799,2.14016 11.88107,4.18075c1.76838,1.26478 2.74938,1.75406 2.74938,1.75406z"/></g><g data-paper-data="{&quot;index&quot;:null}" stroke="none" stroke-width="0" stroke-linecap="butt"><path d="M247.92004,109.50264c0,0 0.98101,-0.48928 2.74938,-1.75406c2.85309,-2.04059 7.54347,-5.13019 11.88107,-4.18075c3.67576,0.80458 6.20026,5.12563 8.02457,7.90994c1.66279,2.5378 2.78869,3.59421 2.78869,3.59421c0,0 -1.14197,0.2914 -3.26105,1.72563c-2.86678,1.94028 -7.32953,5.09344 -11.3694,4.20916c-4.24497,-0.92919 -7.10906,-5.84214 -8.86856,-8.86769c-1.15274,-1.98222 -1.94471,-2.63648 -1.94471,-2.63648z" fill="#481310"/><path d="M262.93111,99.92535c0,0 -0.14642,7.20175 -0.14642,13.62433c0,6.42258 -6.53335,12.35527 -6.53335,12.35527c0,0 1.66285,-7.44914 1.66285,-13.87172c0,-6.42258 5.01692,-12.10788 5.01692,-12.10788z" fill="#000000"/></g><path d="M234.93515,124.81048c0,-2.09377 1.53702,-3.79192 3.43544,-3.79888c-1.12969,1.28272 -2.23888,3.14267 -3.02316,4.68996c-0.07671,0.10187 -0.15387,0.21143 -0.23104,0.32772c-0.11751,-0.38258 -0.18124,-0.79249 -0.18124,-1.21881z" fill="#481310" stroke="none" stroke-width="0" stroke-linecap="butt"/><path d="M206.13956,93.35244c0,-8.19662 4.21146,-18.36313 10.81222,-24.84606c6.55513,-6.43812 15.46663,-9.21977 24.94991,-9.60477c2.44075,-0.09909 5.47735,0.95258 5.47735,0.95258c0,0 -16.66746,1.5033 -26.45846,10.10699c-10.72524,11.31932 -11.00295,21.41929 -13.31627,27.902c-1.31824,3.69416 -4.86303,4.88326 -4.86303,4.88326c0,0 3.22281,-3.87237 3.32444,-6.71191c0.04313,-1.20494 0.07384,-2.22391 0.07384,-2.68209z" fill="#481310" stroke="none" stroke-width="0" stroke-linecap="butt"/></g><path d="M223.90226,100.72185l1.73132,0.39954l1.19554,0.26568l0.1832,0.0916l0.20295,0.02767l0.6697,0.26788l0.086,0.06211l0.10356,0.02301l0.53576,0.26788l0.11994,0.10281l0.14877,0.05313l0.12326,0.08217l0.08421,0.02807l0.0895,0.05695l0.10473,0.01689l0.93758,0.40182l0.18414,0.13995l0.21781,0.07779l0.40182,0.26788l0.13686,0.15054l0.13717,0.08729l0.13566,-0.00936l0.35084,0.31895l0.40002,0.25456l0.02667,0.13334l0.17586,0.15987l0.26788,0.40182l0.16338,0.45746l0.20795,0.439l0.13394,0.6697l-0.01184,0.24872l0.06039,0.24157v0.53576l-0.02803,0.11213l0.01777,0.11421l-0.12367,1.36041v0.82418l-0.03718,0.14872l0.01901,0.15211l-0.53576,4.42004l-0.00172,0.00449l0.00058,0.00477l-0.24858,1.98861l0,0.24618l-0.06039,0.24157l0.01184,0.24872l-0.26788,1.33941l-0.20795,0.439l-0.15311,0.42871l-0.04076,0.20381l-0.14295,0.30178l-0.07244,0.32597l-0.13394,0.26788l-0.08295,0.09678l-0.05141,0.08569l-0.00539,0.09705l-0.10136,0.08688l-0.07533,0.30134l-0.16598,0.09485l-0.25375,0.42292l-0.09284,0.09284l-0.13057,0.19585l-0.31321,0.28473l-0.26692,0.32852l-0.53576,0.40182l-0.20943,0.08818l-0.17253,0.14789l-0.53576,0.26788l-0.05682,0.01263l-0.04587,0.03583l-1.15357,0.5127l-0.33907,0.16954l-0.01393,0.02438l-0.06966,0.01742l-0.06231,0.03115l-0.56075,0.12461l-0.55728,0.13932h-0.06966l-0.07009,0.01558l-0.02336,-0.01558h-2.48651l-0.02336,0.01558l-0.07009,-0.01558h-0.06966l-0.55728,-0.13932l-0.56075,-0.12461l-0.06231,-0.03115l-0.06966,-0.01742l-0.01393,-0.02438l-0.31823,-0.15911l-0.18058,-0.04515l-0.56075,-0.12461l-0.06231,-0.03115l-0.06966,-0.01742l-0.01393,-0.02438l-0.38986,-0.19493l-0.11994,-0.10281l-0.14877,-0.05313l-0.40182,-0.26788l-0.09138,-0.10052l-0.12233,-0.05906l-0.80364,-0.6697l-0.14978,-0.20496l-0.20193,-0.15385l-0.44927,-0.56158l-0.30391,-0.30391l-0.05947,-0.09911l-0.09332,-0.0682l-0.6697,-0.80364l-0.01117,-0.02315l-0.02044,-0.01558l-0.53576,-0.6697l-0.04609,-0.10057l-0.08186,-0.07442l-0.26788,-0.40182l-0.05313,-0.14877l-0.10281,-0.11994l-0.33222,-0.66443l-0.18155,-0.27232l-0.05313,-0.14877l-0.10281,-0.11994l-0.26788,-0.53576l-0.07244,-0.32597l-0.14295,-0.30178l-0.12227,-0.61137l-0.11951,-0.47805v-0.30776l-0.07464,-0.29857v-3.21457l0.06039,-0.24157l-0.01184,-0.24872l0.13394,-0.6697l0.14295,-0.30178l0.07244,-0.32597l0.14293,-0.28586l0.03694,-0.10342l0.13658,-0.54632l0.07354,-0.04202l0.03383,-0.09473l0.22474,-0.33712l0.10581,-0.20634l0.09783,-0.39132l0.14548,-0.08313l0.16058,-0.31313l0.79034,-0.90324l0.25292,-0.42153l-0.79564,-0.21699l-0.66291,-2.43068l0.66291,-1.10485l0.28648,-0.28648l0.00551,-0.02754l0.06058,-0.03855l0.04926,-0.04926l0.49257,-0.29554l0.48463,-0.3084l0.06609,-0.02203l0.06157,-0.03694l0.02709,0.00739l1.45254,-0.48418l0.40069,-0.03082l0.38988,-0.09747h2.81275l0.11213,0.02803l0.11421,-0.01777l1.47335,0.13394l0.1631,0.0569zM221.97645,106.15138l-0.71111,0.94815l-0.33547,0.55912l-0.0431,0.0431l-0.0205,0.05741l-0.50276,0.75414l-0.37121,0.61869l-0.15942,0.15942l-0.10288,0.20061l-0.55404,0.63318l-0.07749,0.30996l-0.07354,0.04202l-0.03383,0.09473l-0.30213,0.45319l-0.07769,0.34962l-0.03115,0.06231l-0.01742,0.06966l-0.02438,0.01393l-0.04521,0.09041l-0.01973,0.09867v2.65926l0.0593,0.23719l0,0.06096l0.0261,0.05509l0.06828,0.34141l0.04855,0.0971l0.18155,0.27232l0.05313,0.14877l0.10281,0.11994l0.33222,0.66443l0.12137,0.18205l0.45237,0.56547l0.5811,0.69732l0.32163,0.32163l0.07243,0.12071l0.11198,0.08532l0.37803,0.47253l0.50707,0.42256l0.1612,0.10747l0.05703,0.02852l0.18058,0.04515l0.56075,0.12461l0.06231,0.03115l0.06966,0.01742l0.01393,0.02438l0.12988,0.06494l1.63241,0l0.0079,-0.00395l0.05682,-0.01263l0.04587,-0.03583l1.15357,-0.5127l0.28334,-0.14167l0.01284,-0.00963l0.03034,-0.04551l0.03529,-0.03208l0.12522,-0.50087l0.08571,-0.04898l0.00548,-0.09857l0.17834,-0.15287l0.00228,-0.01141l0.20795,-0.439l0.15311,-0.42871l0.12615,-0.63077l0,-0.15427l0.03831,-0.15326l-0.01901,-0.15683l0.2673,-2.13842l0.51704,-4.26554v-0.78662l0.02803,-0.11213l-0.01777,-0.11421l0.10792,-1.18707l-0.05565,-0.03339l-0.04926,-0.04926l-0.06058,-0.03855l-0.00295,-0.01474l-0.61596,-0.26398l-0.30317,-0.10106l-0.28172,-0.17927l-0.31447,-0.11231l-0.27232,-0.18155l-0.30354,-0.15177l-0.38491,-0.15397l-1.00755,-0.2239l-0.00936,-0.00468l-0.01046,0.00019l-1.57515,-0.3635l-0.63644,-0.05786c-0.0847,0.20779 -0.19655,0.40163 -0.33115,0.5771z" fill="#000000" stroke="none" stroke-width="0.5" stroke-linecap="butt"/></g></g></svg>