<svg version="1.1" xmlns="http://www.w3.org/2000/svg" xmlns:xlink="http://www.w3.org/1999/xlink" width="94.04938" height="255.2595" viewBox="0,0,94.04938,255.2595"><g transform="translate(-192.97534,-56.13264)"><g data-paper-data="{&quot;isPaintingLayer&quot;:true}" stroke-miterlimit="10" stroke-dasharray="" stroke-dashoffset="0" style="mix-blend-mode: normal"><g fill="#000000" fill-rule="nonzero" stroke="none" stroke-linecap="butt" stroke-linejoin="miter"><path d="M200.58119,185.96091c0,-21.10292 18.15751,-38.21022 40.55593,-38.21022c22.39843,0 40.82079,17.1073 40.82079,38.21022c0,2.70002 0.0039,117.77204 0.0039,117.77204l-11.39983,-0.12964l-0.14337,-113.82486c0,0 0.46851,-2.08621 -1.77595,-2.22047c-2.48625,-0.14872 -2.11767,1.68282 -2.11767,1.68282l0.10343,114.38802l-50.32146,0.07847l0.10485,-114.20488c0,0 -0.19035,-2.13951 -1.8053,-2.16297c-2.01199,-0.02922 -1.98832,2.04221 -1.98832,2.04221l-0.29988,114.25674l-11.38239,0.22905c0,0 -0.35473,-116.42094 -0.35473,-117.90653z" stroke-width="0"/><path d="M202.86638,187.26736c0,-20.02201 17.22746,-36.58913 38.47861,-36.58913c21.25115,0 38.72991,16.56711 38.72991,36.58913c0,2.56173 0.00369,114.79215 0.00369,114.79215l-7.50523,0.21307l0.19503,-111.38321c0,0 0.08238,-5.30397 -4.03353,-5.43136c-4.01424,-0.25313 -4.29562,4.92124 -4.29562,4.92124l-0.56401,112.58967l-45.42645,-0.26162l0.09948,-112.07984c0,0 0.71386,-5.00198 -3.49923,-5.04073c-4.92978,-0.04534 -4.96689,4.92616 -4.96689,4.92616l0.56795,112.12904l-7.39669,-0.11875c0,0 -0.38702,-113.84632 -0.38702,-115.25581z" stroke-width="0"/><g><path d="M230.02075,204.89618c-5.66213,0 -7.34973,-0.4705 -7.34973,-0.4705l-0.08286,-1.2733c0,0 5.25623,0.13066 7.69744,0.13066c4.20542,0 7.61458,-1.35635 7.61458,-0.87378c0,0.48257 -1.95246,2.48691 -7.87944,2.48691z" stroke-width="0"/><path d="M225.51818,199.65352c0,-0.55682 0.44467,-1.00821 0.99321,-1.00821c0.54854,0 0.99321,0.45139 0.99321,1.00821c0,0.55682 -0.44467,1.00821 -0.99321,1.00821c-0.54854,0 -0.99321,-0.45139 -0.99321,-1.00821z" stroke-width="0.5"/></g><g data-paper-data="{&quot;index&quot;:null}"><path d="M244.83594,202.40927c0,-0.48257 3.40916,0.87378 7.61458,0.87378c2.44121,0 7.69744,-0.13066 7.69744,-0.13066l-0.08286,1.2733c0,0 -1.6876,0.4705 -7.34973,0.4705c-5.92698,0 -7.87944,-2.00433 -7.87944,-2.48691z" stroke-width="0"/><path d="M256.2247,200.6617c-0.54853,0 -0.99321,-0.45139 -0.99321,-1.00821c0,-0.55682 0.44467,-1.00821 0.99321,-1.00821c0.54853,0 0.99321,0.45139 0.99321,1.00821c0,0.55682 -0.44467,1.00821 -0.99321,1.00821z" stroke-width="0.5"/></g><path d="M240.3832,253.12205c0,-0.55681 0.44467,-1.00821 0.99321,-1.00821c0.54854,0 0.99321,0.45139 0.99321,1.00821c0,0.55681 -0.44467,1.00821 -0.99321,1.00821c-0.54854,0 -0.99321,-0.45139 -0.99321,-1.00821z" stroke-width="0.5"/></g><path d="M199.15538,220.14212l0.23809,-35.23809c0,0 -0.51874,-9.13343 3.35797,-15.42839c8.86952,-13.30062 10.66801,-17.04185 29.70752,-18.08351c0.19396,-0.01061 -5.48694,8.84496 -5.78556,33.84714c-0.33643,28.16753 6.41263,22.75757 6.46823,39.06956c0.1439,42.2159 0.18178,87.0833 0.18178,87.0833l-19.41787,-2.88518c0,0 0.04399,-74.16575 0.82671,-84.26485c0.28363,-3.65951 -15.57686,-4.09998 -15.57686,-4.09998z" fill="#481310" fill-rule="nonzero" stroke="none" stroke-width="0" stroke-linecap="butt" stroke-linejoin="miter"/><path d="M220.29784,205.09127c0,0 -4.0334,-11.42695 -3.46965,-22.75351c0.34944,-7.02068 5.06556,-21.17322 5.06556,-21.17322l7.69555,-10.66334l3.93377,6.6755c0,0 -6.13245,10.52828 -5.59674,28.30393c0.45441,15.07816 6.49734,16.92925 6.6112,22.64798c0.19731,9.91012 0.50473,25.35055 0.50473,25.35055c0,0 -6.69512,-4.91674 -6.53773,-21.11571c0.06647,-6.84119 -8.20668,-7.27217 -8.20668,-7.27217z" fill="#382f2e" fill-rule="nonzero" stroke="none" stroke-width="0" stroke-linecap="butt" stroke-linejoin="miter"/><path d="M202.06348,215.14432l-0.59894,-20.61873l14.4881,0.33053l0.85691,19.62221z" fill="#000000" fill-rule="nonzero" stroke="none" stroke-width="0" stroke-linecap="butt" stroke-linejoin="miter"/><path d="M203.02097,213.61689l-0.85691,-19.62221l13.78858,-0.60216l0.85691,19.62221z" fill="#59220f" fill-rule="nonzero" stroke="none" stroke-width="0" stroke-linecap="butt" stroke-linejoin="miter"/><path d="M202.47924,200.20563c0,0 -0.0322,-2.01359 -0.15008,-2.4714c-0.23754,-0.92243 -1.07421,-2.78491 -1.07421,-2.78491c0,0 2.02855,-2.24309 6.91571,-2.7067c4.49774,-0.42667 8.2622,1.16969 8.2622,1.16969c0,0 -0.13534,1.82083 -0.16295,2.94459c-0.03349,1.36288 -0.01632,3.4284 -0.01632,3.4284z" fill="#000000" fill-rule="nonzero" stroke="none" stroke-width="0" stroke-linecap="butt" stroke-linejoin="miter"/><g data-paper-data="{&quot;index&quot;:null}" fill-rule="nonzero" stroke="none" stroke-width="0" stroke-linecap="butt" stroke-linejoin="miter"><path d="M284.83761,220.14212c0,0 -15.86049,0.44047 -15.57686,4.09998c0.78272,10.0991 0.82671,84.26485 0.82671,84.26485l-19.41787,2.88518c0,0 0.03788,-44.8674 0.18178,-87.0833c0.0556,-16.31199 6.80466,-10.90203 6.46823,-39.06956c-0.29862,-25.00218 -5.97952,-33.85775 -5.78556,-33.84714c19.03951,1.04166 20.838,4.78289 29.70752,18.08351c3.87671,6.29496 3.35797,15.42839 3.35797,15.42839l0.23809,35.23809z" fill="#481310"/><path d="M263.69514,205.09128c0,0 -8.27315,0.43098 -8.20668,7.27217c0.15739,16.19897 -6.53773,21.11571 -6.53773,21.11571c0,0 0.30742,-15.44043 0.50473,-25.35055c0.11386,-5.71873 6.15679,-7.56982 6.6112,-22.64798c0.53571,-17.77565 -5.59674,-28.30393 -5.59674,-28.30393l3.93377,-6.6755l7.69555,10.66334c0,0 4.71612,14.15254 5.06556,21.17322c0.56375,11.32656 -3.46965,22.75351 -3.46965,22.75351z" fill="#382f2e"/><path d="M267.18343,214.47833l0.85691,-19.62221l14.4881,-0.33053l-0.59894,20.61873z" fill="#000000"/><path d="M267.18343,213.01473l0.85691,-19.62221l13.78858,0.60216l-0.85691,19.62221z" fill="#59220f"/><path d="M267.7394,199.7853c0,0 0.01717,-2.06552 -0.01632,-3.4284c-0.02761,-1.12376 -0.16295,-2.94459 -0.16295,-2.94459c0,0 3.76446,-1.59636 8.2622,-1.16969c4.88716,0.46361 6.91571,2.7067 6.91571,2.7067c0,0 -0.83667,1.86248 -1.07421,2.78491c-0.11788,0.45781 -0.15008,2.4714 -0.15008,2.4714z" fill="#000000"/><path d="M275.11472,195.97683c1.47689,0 2.67415,1.19726 2.67415,2.67415c0,1.47689 -1.19726,2.67415 -2.67415,2.67415c-1.47689,0 -2.67415,-1.19726 -2.67415,-2.67415c0,-1.47689 1.19726,-2.67415 2.67415,-2.67415z" fill="#000000"/><path d="M267.16306,196.48414l0.39706,-3.92096c0,0 3.76446,-1.59636 8.2622,-1.16969c4.88716,0.46361 6.91571,2.7067 6.91571,2.7067l-0.39705,3.92096z" fill="#6d4321"/><path d="M275.11472,195.1277c1.47689,0 2.67415,1.19726 2.67415,2.67415c0,1.47689 -1.19726,2.67415 -2.67415,2.67415c-1.47689,0 -2.67415,-1.19726 -2.67415,-2.67415c0,-1.47689 1.19726,-2.67415 2.67415,-2.67415z" fill="#8d6e47"/><path d="M282.95295,182.01771c0,0.88789 -2.90887,2.48008 -5.99035,3.91766c-2.49757,-2.03784 -5.12284,-3.96116 -7.5307,-5.93912c-0.26326,-3.28404 -0.71316,-6.78069 -1.48196,-9.18929c-2.39962,-7.51781 -5.68141,-14.59238 -5.68141,-14.59238c0,0 10.98045,3.20387 15.29533,12.22002c3.78248,5.58642 5.38908,12.62833 5.38908,13.58311z" fill="#571c18"/><path d="M269.80314,188.97719c0,0 0.00407,-2.78677 -0.19326,-6.33982c1.7667,1.37251 3.61711,2.74626 5.41123,4.17643c-2.77793,1.2223 -5.21798,2.16339 -5.21798,2.16339z" fill="#571c18"/><path d="M281.22045,180.47534c0,0.52848 -1.1682,1.50357 -2.65699,2.4621c-2.04803,-2.29724 -4.34292,-4.37448 -6.93069,-6.14678c-0.17745,-1.04144 -0.39913,-2.10987 -0.67607,-3.16317c-1.8948,-7.20662 -5.36054,-14.44306 -5.36054,-14.44306c0,0 5.71733,3.91736 10.0725,9.71295c3.31253,4.40809 5.55179,10.94865 5.55179,11.57797z" fill="#773128"/><path d="M265.80314,229.90763c-2.36855,-1.31438 -4.94637,-2.46699 -7.14062,-4.07569c-0.03861,-2.27693 -0.20972,-6.4579 -0.90299,-12.68648c-0.47865,-4.30035 6.85273,-6.21294 6.85273,-6.21294c0,0 -0.95913,6.59194 1.57513,8.91637c2.86378,2.62667 11.66673,3.67466 11.66673,3.67466c0,0 -5.05215,0.13995 -8.36937,2.33661c-1.92786,1.27663 -2.91239,3.67101 -2.91239,4.63834c0,1.10002 -0.27981,2.33925 -0.76922,3.40913z" fill="#571c18"/><path d="M258.68746,228.24346c1.92723,1.22898 4.02394,2.23517 6.02098,3.34309c-0.56662,0.59722 -1.23805,0.97226 -1.97953,0.97226c-2.11264,0 -3.84833,-1.89457 -4.04145,-4.31535z" fill="#571c18"/><path d="M264.72245,222.56302c-1.72152,-1.75803 -3.40789,-3.5748 -5.09494,-5.4446c-0.05581,-1.87149 -0.05489,-3.62777 0.30246,-4.54578c0.77413,-1.98865 3.3118,-2.86924 3.3118,-2.86924c0,0 0.03968,7.57715 0.60601,7.57715c1.66556,0 7.87482,2.37662 7.87482,2.37662c0,0 -0.74343,0.49435 -3.62601,1.39452c-1.4436,0.45081 -2.57789,1.13029 -3.37414,1.51134z" fill="#773128"/><path d="M259.72121,220.18856c0.82425,0.89445 1.65108,1.77621 2.48438,2.64462c-1.30257,-0.06087 -2.517,-0.32364 -2.48791,-1.39734c0.01061,-0.3917 0.01031,-0.81101 0.00353,-1.24728z" fill="#773128"/><path d="M264.26367,196.08287c-1.892,-1.87124 -4.09746,-3.44263 -6.48744,-4.79838c0.88629,-3.79678 1.81663,-8.95513 1.4084,-13.25272c-0.46857,-4.93272 -3.04943,-12.12786 -3.02494,-15.82429c0.04755,-7.17684 0.63999,-5.24419 0.63999,-5.24419c0,0 8.8941,17.29966 8.75647,32.49811c-0.00794,0.87695 -0.6159,3.71976 -1.29248,6.62147z" fill="#504341"/><path d="M257.28891,193.27183c2.42334,1.4296 4.61978,3.10381 6.42631,5.11966c-0.67308,2.78761 -1.27283,5.12598 -1.27283,5.12598c0,0 -6.00393,-4.91321 -6.00393,-6.89944c0,-0.22422 0.37382,-1.48481 0.85045,-3.34619z" fill="#504341"/><path d="M264.01397,185.73049c-1.15722,-0.5925 -2.30489,-1.21232 -3.45918,-1.81575c0.12475,-1.37023 0.17483,-2.76496 0.0616,-3.94598c-0.25896,-2.70097 -1.28809,-7.2595 -2.25329,-10.75184c-1.51386,-5.47755 -1.13923,-9.41161 -1.13923,-9.41161c0,0 2.16429,3.8012 3.83024,11.6503c0.84037,3.9594 2.28521,8.28982 2.94601,14.05652c0.0063,0.05493 0.01085,0.12848 0.01384,0.21837z" fill="#5e4f4d"/><path d="M260.3128,185.99371c1.218,0.63692 2.43036,1.28785 3.65597,1.90301c-0.09375,2.29489 -0.28751,5.3409 -0.28751,5.3409l-4.09395,-3.15566c0,0 0.40817,-1.80983 0.72548,-4.08825z" fill="#5e4f4d"/></g><path d="M211.55243,198.65098c0,1.47689 -1.19726,2.67415 -2.67415,2.67415c-1.47689,0 -2.67415,-1.19726 -2.67415,-2.67415c0,-1.47689 1.19726,-2.67415 2.67415,-2.67415c1.47689,0 2.67415,1.19726 2.67415,2.67415z" fill="#000000" fill-rule="nonzero" stroke="none" stroke-width="0" stroke-linecap="butt" stroke-linejoin="miter"/><path d="M201.652,198.02115l-0.39705,-3.92096c0,0 2.02855,-2.24309 6.91571,-2.7067c4.49774,-0.42667 8.2622,1.16969 8.2622,1.16969l0.39706,3.92096z" fill="#6d4321" fill-rule="nonzero" stroke="none" stroke-width="0" stroke-linecap="butt" stroke-linejoin="miter"/><path d="M211.55243,197.80185c0,1.47689 -1.19726,2.67415 -2.67415,2.67415c-1.47689,0 -2.67415,-1.19726 -2.67415,-2.67415c0,-1.47689 1.19726,-2.67415 2.67415,-2.67415c1.47689,0 2.67415,1.19726 2.67415,2.67415z" fill="#8d6e47" fill-rule="nonzero" stroke="none" stroke-width="0" stroke-linecap="butt" stroke-linejoin="miter"/><path d="M201.04006,182.01771c0,-0.95478 1.6066,-7.99669 5.38908,-13.58311c4.31488,-9.01615 15.29533,-12.22002 15.29533,-12.22002c0,0 -3.28179,7.07457 -5.68141,14.59238c-0.7688,2.4086 -1.2187,5.90525 -1.48196,9.18929c-2.40786,1.97796 -5.03313,3.90128 -7.5307,5.93912c-3.08148,-1.43758 -5.99035,-3.02977 -5.99035,-3.91766z" fill="#571c18" fill-rule="nonzero" stroke="none" stroke-width="0" stroke-linecap="butt" stroke-linejoin="miter"/><path d="M214.18985,188.97719c0,0 -2.44005,-0.94109 -5.21798,-2.16339c1.79412,-1.43017 3.64453,-2.80392 5.41123,-4.17643c-0.19733,3.55305 -0.19326,6.33982 -0.19326,6.33982z" fill="#571c18" fill-rule="nonzero" stroke="none" stroke-width="0" stroke-linecap="butt" stroke-linejoin="miter"/><path d="M202.77254,180.47535c0,-0.62932 2.23926,-7.16988 5.55179,-11.57797c4.35517,-5.79559 10.0725,-9.71295 10.0725,-9.71295c0,0 -3.46574,7.23644 -5.36054,14.44306c-0.27694,1.0533 -0.49862,2.12173 -0.67607,3.16317c-2.58777,1.7723 -4.88266,3.84954 -6.93069,6.14678c-1.48879,-0.95853 -2.65699,-1.93362 -2.65699,-2.4621z" fill="#773128" fill-rule="nonzero" stroke="none" stroke-width="0" stroke-linecap="butt" stroke-linejoin="miter"/><path d="M217.42063,226.49849c0,-0.96733 -0.98453,-3.36171 -2.91239,-4.63834c-3.31722,-2.19666 -8.36937,-2.33661 -8.36937,-2.33661c0,0 8.80295,-1.04799 11.66673,-3.67466c2.53426,-2.32443 1.57513,-8.91637 1.57513,-8.91637c0,0 7.33138,1.91259 6.85273,6.21294c-0.69327,6.22859 -0.86438,10.40955 -0.90299,12.68648c-2.19424,1.6087 -4.77207,2.76131 -7.14062,4.07569c-0.48942,-1.06988 -0.76922,-2.30911 -0.76922,-3.40913z" fill="#571c18" fill-rule="nonzero" stroke="none" stroke-width="0" stroke-linecap="butt" stroke-linejoin="miter"/><path d="M221.26409,232.55881c-0.74148,0 -1.41292,-0.37505 -1.97953,-0.97226c1.99704,-1.10791 4.09376,-2.11411 6.02098,-3.34309c-0.19312,2.42078 -1.92881,4.31535 -4.04145,4.31535z" fill="#571c18" fill-rule="nonzero" stroke="none" stroke-width="0" stroke-linecap="butt" stroke-linejoin="miter"/><path d="M215.8964,221.05169c-2.88259,-0.90017 -3.62601,-1.39452 -3.62601,-1.39452c0,0 6.20926,-2.37662 7.87482,-2.37662c0.56633,0 0.60601,-7.57715 0.60601,-7.57715c0,0 2.53768,0.88058 3.3118,2.86924c0.35736,0.91801 0.35828,2.6743 0.30247,4.54578c-1.68705,1.8698 -3.37343,3.68658 -5.09494,5.4446c-0.79626,-0.38104 -1.93054,-1.06053 -3.37414,-1.51134z" fill="#773128" fill-rule="nonzero" stroke="none" stroke-width="0" stroke-linecap="butt" stroke-linejoin="miter"/><path d="M224.27531,221.43584c0.02909,1.0737 -1.18535,1.33647 -2.48791,1.39734c0.8333,-0.86842 1.66013,-1.75017 2.48438,-2.64462c-0.00678,0.43627 -0.00708,0.85558 0.00353,1.24728z" fill="#773128" fill-rule="nonzero" stroke="none" stroke-width="0" stroke-linecap="butt" stroke-linejoin="miter"/><path d="M218.43684,189.4614c-0.13763,-15.19845 8.75647,-32.49811 8.75647,-32.49811c0,0 0.59244,-1.93265 0.63999,5.24419c0.02449,3.69644 -2.55638,10.89158 -3.02494,15.82429c-0.40823,4.2976 0.52211,9.45594 1.4084,13.25272c-2.38998,1.35575 -4.59544,2.92714 -6.48744,4.79838c-0.67658,-2.90171 -1.28454,-5.74452 -1.29248,-6.62147z" fill="#504341" fill-rule="nonzero" stroke="none" stroke-width="0" stroke-linecap="butt" stroke-linejoin="miter"/><path d="M227.55453,196.61802c0,1.98623 -6.00393,6.89944 -6.00393,6.89944c0,0 -0.59975,-2.33836 -1.27283,-5.12598c1.80653,-2.01585 4.00296,-3.69006 6.42631,-5.11966c0.47663,1.86139 0.85045,3.12197 0.85045,3.34619z" fill="#504341" fill-rule="nonzero" stroke="none" stroke-width="0" stroke-linecap="butt" stroke-linejoin="miter"/><path d="M219.99287,185.51212c0.6608,-5.76671 2.10564,-10.09712 2.94601,-14.05652c1.66594,-7.8491 3.83024,-11.6503 3.83024,-11.6503c0,0 0.37463,3.93406 -1.13923,9.41161c-0.96519,3.49235 -1.99433,8.05087 -2.25329,10.75184c-0.11323,1.18102 -0.06315,2.57575 0.0616,3.94598c-1.15428,0.60343 -2.30195,1.22325 -3.45917,1.81575c0.00299,-0.08989 0.00754,-0.16344 0.01384,-0.21837z" fill="#5e4f4d" fill-rule="nonzero" stroke="none" stroke-width="0" stroke-linecap="butt" stroke-linejoin="miter"/><path d="M224.40567,190.08196l-4.09395,3.15566c0,0 -0.19376,-3.04601 -0.28751,-5.3409c1.22562,-0.61516 2.43797,-1.26609 3.65597,-1.90301c0.31732,2.27841 0.72548,4.08825 0.72548,4.08825z" fill="#5e4f4d" fill-rule="nonzero" stroke="none" stroke-width="0" stroke-linecap="butt" stroke-linejoin="miter"/><g fill="#000000" fill-rule="nonzero" stroke-linecap="butt" stroke-linejoin="miter"><g stroke="none" stroke-width="0"><path d=""/><path d=""/></g><g><path d="" stroke="none" stroke-width="1.5"/><path d="" stroke="#000000" stroke-width="0"/><path d="" stroke="none" stroke-width="1.5"/><path d="" stroke="#000000" stroke-width="0"/><path d="" stroke="none" stroke-width="0.5"/></g></g><g fill-rule="nonzero" stroke="none" stroke-width="0" stroke-linecap="butt" stroke-linejoin="miter"><path d="" data-paper-data="{&quot;index&quot;:null}" fill="#773128"/><path d="" data-paper-data="{&quot;index&quot;:null}" fill="#571c18"/></g><path d="" fill="#773128" fill-rule="nonzero" stroke="none" stroke-width="0" stroke-linecap="butt" stroke-linejoin="miter"/><path d="" fill="#571c18" fill-rule="nonzero" stroke="none" stroke-width="0" stroke-linecap="butt" stroke-linejoin="miter"/><path d="" fill="#773128" fill-rule="nonzero" stroke="none" stroke-width="0" stroke-linecap="butt" stroke-linejoin="miter"/><path d="" data-paper-data="{&quot;index&quot;:null}" fill="#773128" fill-rule="nonzero" stroke="none" stroke-width="0" stroke-linecap="butt" stroke-linejoin="miter"/><g fill-rule="nonzero" stroke="none" stroke-linecap="butt" stroke-linejoin="miter"><g><g><path d="" fill="#000000" stroke-width="1.5"/><g><g><path d="" fill="#000000" stroke-width="1.5"/><path d="" fill="#ffffff" stroke-width="0"/></g><g stroke-width="0"><g><g data-paper-data="{&quot;index&quot;:null}"><path d="" data-paper-data="{&quot;index&quot;:null}" fill="#000000"/><path d="" data-paper-data="{&quot;index&quot;:null}" fill="#ffffff"/></g><path d="" fill="#000000"/></g><g><path d="" data-paper-data="{&quot;index&quot;:null}" fill="#000000"/><path d="" data-paper-data="{&quot;index&quot;:null}" fill="#ffffff"/><path d="" data-paper-data="{&quot;index&quot;:null}" fill="#000000"/></g></g></g></g><path d="" fill="#000000" stroke-width="0"/></g><g fill="none" stroke-width="1" font-family="sans-serif" font-weight="normal" font-size="12" text-anchor="start"><g/></g></g><g fill-rule="nonzero" stroke="none" stroke-width="0" stroke-linecap="butt" stroke-linejoin="miter"><path d="" fill-opacity="0.27407" fill="#000000"/><g><path d="" fill="#000000"/><path d="" fill="#ffffff"/></g></g><g fill-rule="nonzero" stroke="none" stroke-width="0" stroke-linecap="butt" stroke-linejoin="miter"><path d="" fill-opacity="0.27407" fill="#000000"/><g><path d="" fill="#000000"/><path d="" fill="#ffffff"/></g></g><g fill-rule="nonzero" stroke="none" stroke-width="0" stroke-linecap="butt" stroke-linejoin="miter"><path d="" fill="#000000"/><path d="" fill="#ffffff"/><path d="" fill="#ffffff"/></g><g fill-rule="nonzero" stroke="none" stroke-width="0" stroke-linecap="butt" stroke-linejoin="miter"><path d="" fill="#000000"/><path d="" fill="#ffffff"/></g><g fill-rule="nonzero" stroke="none" stroke-width="0" stroke-linecap="round" stroke-linejoin="miter"><path d="" fill="#ffffff"/><path d="" fill="#000000"/></g><path d="" data-paper-data="{&quot;index&quot;:null}" fill="#000000" fill-rule="nonzero" stroke="none" stroke-width="1.5" stroke-linecap="butt" stroke-linejoin="miter"/><path d="" fill="#000000" fill-rule="nonzero" stroke="none" stroke-width="1.5" stroke-linecap="butt" stroke-linejoin="miter"/><path d="" fill="#000000" fill-rule="nonzero" stroke="none" stroke-width="1.5" stroke-linecap="butt" stroke-linejoin="miter"/><path d="" fill="#000000" fill-rule="nonzero" stroke="none" stroke-width="1.5" stroke-linecap="butt" stroke-linejoin="miter"/><g fill-rule="nonzero" stroke="none" stroke-width="0" stroke-linecap="butt" stroke-linejoin="miter"><g><path d="" fill="#000000"/><path d="" fill="#ffffff"/></g><g><path d="" fill="#000000"/><path d="" fill="#ffffff"/></g></g><path d="" fill="#4b494d" fill-rule="nonzero" stroke="none" stroke-width="0" stroke-linecap="butt" stroke-linejoin="miter"/><path d="" fill="#481310" fill-rule="nonzero" stroke="none" stroke-width="0" stroke-linecap="butt" stroke-linejoin="miter"/><path d="" data-paper-data="{&quot;index&quot;:null}" fill="#481310" fill-rule="nonzero" stroke="none" stroke-width="0" stroke-linecap="butt" stroke-linejoin="miter"/><path d="" fill="#000000" fill-rule="nonzero" stroke="none" stroke-width="0" stroke-linecap="butt" stroke-linejoin="miter"/><g fill-rule="nonzero" stroke-linecap="butt" stroke-linejoin="miter"><path d="" fill="#000000" stroke="#060000" stroke-width="3.5"/><path d="" fill="#ffffff" stroke="#000000" stroke-width="0"/><path d="" fill="#060000" stroke="none" stroke-width="1.5"/><path d="" fill="#060000" stroke="#000000" stroke-width="0"/><path d="" fill="#060000" stroke="none" stroke-width="1.5"/><path d="" fill="#060000" stroke="#000000" stroke-width="0"/><path d="" data-paper-data="{&quot;index&quot;:null}" fill="#000000" stroke="none" stroke-width="1.5"/></g><path d="" fill="#000000" fill-rule="evenodd" stroke="none" stroke-width="0.129" stroke-linecap="round" stroke-linejoin="round"/><g fill-rule="evenodd" stroke="none" stroke-width="0.1" stroke-linecap="round" stroke-linejoin="round"><path d="" fill="#000000"/><path d="" fill="#ffffff"/></g><g fill-rule="evenodd" stroke="none" stroke-width="0.1" stroke-linecap="round" stroke-linejoin="miter"><path d="" fill="#000000"/><path d="" fill="#ffffff"/><path d="" fill="#ffffff"/></g><path d="" fill="#000000" fill-rule="evenodd" stroke="none" stroke-width="0.129" stroke-linecap="round" stroke-linejoin="round"/><g fill-rule="evenodd" stroke="none" stroke-width="0.1" stroke-linecap="round" stroke-linejoin="miter"><path d="" fill="#ffffff"/><path d="" fill="#000000"/><path d="" fill="#000000"/></g><g fill-rule="evenodd" stroke="none" stroke-width="0.1" stroke-linecap="round" stroke-linejoin="round"><path d="" fill="#000000"/><path d="" fill="#ffffff"/></g><g fill-rule="evenodd" stroke="none" stroke-width="0.1" stroke-linecap="round" stroke-linejoin="round"><path d="" fill="#000000"/><path d="" fill="#ffffff"/></g><g fill-rule="evenodd" stroke="none" stroke-linecap="round" stroke-linejoin="round"><g stroke-width="0.1"><path d="" fill="#000000"/><path d="" fill="#ffffff"/></g><path d="" fill="#000000" stroke-width="0.129"/><g stroke-width="0.1"><path d="" fill="#000000"/><path d="" fill="#ffffff"/></g><path d="" fill="#000000" stroke-width="0.129"/><g stroke-width="0.1"><path d="" fill="#000000"/><path d="" fill="#ffffff"/></g><g stroke-width="0.1"><path d="" fill="#000000"/><path d="" fill="#ffffff"/></g></g><path d="" fill="#000000" fill-rule="evenodd" stroke="none" stroke-width="0.129" stroke-linecap="round" stroke-linejoin="round"/><path d="" fill="#000000" fill-rule="evenodd" stroke="none" stroke-width="0.129" stroke-linecap="round" stroke-linejoin="round"/><g fill="#000000" fill-rule="nonzero" stroke="none" stroke-linecap="butt" stroke-linejoin="miter"><path d="" stroke-width="0"/><g><path d="" stroke-width="0"/><path d="" stroke-width="0.5"/></g><g data-paper-data="{&quot;index&quot;:null}"><path d="" stroke-width="0"/><path d="" stroke-width="0.5"/></g><path d="" stroke-width="0.5"/></g><path d="" fill="#4e4140" fill-rule="nonzero" stroke="none" stroke-width="0" stroke-linecap="butt" stroke-linejoin="miter"/><path d="" fill="#773128" fill-rule="nonzero" stroke="none" stroke-width="0" stroke-linecap="butt" stroke-linejoin="miter"/><path d="" fill-opacity="0.20968" fill="#000000" fill-rule="nonzero" stroke="none" stroke-width="0" stroke-linecap="butt" stroke-linejoin="miter"/><path d="" fill="#59220f" fill-rule="nonzero" stroke="none" stroke-width="0" stroke-linecap="butt" stroke-linejoin="miter"/><path d="" fill="#000000" fill-rule="nonzero" stroke="none" stroke-width="NaN" stroke-linecap="butt" stroke-linejoin="miter"/><g fill-rule="nonzero" stroke-linejoin="miter"><path d="" fill="#000000" stroke="none" stroke-width="0" stroke-linecap="butt"/><path d="" fill="none" stroke="#000000" stroke-width="0.5" stroke-linecap="round"/></g><g data-paper-data="{&quot;index&quot;:null}" fill-rule="nonzero" stroke-linejoin="miter"><path d="" fill="#000000" stroke="none" stroke-width="0" stroke-linecap="butt"/><path d="" fill="none" stroke="#000000" stroke-width="0.5" stroke-linecap="round"/></g><path d="" fill="#000000" fill-rule="nonzero" stroke="none" stroke-width="0" stroke-linecap="butt" stroke-linejoin="miter"/><path d="" fill="#ffffff" fill-rule="nonzero" stroke="none" stroke-width="0" stroke-linecap="butt" stroke-linejoin="miter"/><g fill-rule="nonzero" stroke="none" stroke-width="0" stroke-linecap="butt" stroke-linejoin="miter"><path d="" fill="#000000"/><path d="" fill="#ffffff"/></g><g fill-rule="nonzero" stroke="none" stroke-width="0" stroke-linecap="butt" stroke-linejoin="miter"><path d="" fill="#000000"/><path d="" fill="#ffffff"/></g><path d="" fill="#000000" fill-rule="nonzero" stroke="none" stroke-width="NaN" stroke-linecap="butt" stroke-linejoin="miter"/><path d="" fill="#ffffff" fill-rule="nonzero" stroke="none" stroke-width="0" stroke-linecap="butt" stroke-linejoin="miter"/><path d="" fill="#ffffff" fill-rule="nonzero" stroke="none" stroke-width="0" stroke-linecap="butt" stroke-linejoin="miter"/><path d="" fill="#000000" fill-rule="nonzero" stroke="none" stroke-width="0" stroke-linecap="butt" stroke-linejoin="miter"/><path d="" data-paper-data="{&quot;index&quot;:null}" fill="#000000" fill-rule="nonzero" stroke="none" stroke-width="0" stroke-linecap="butt" stroke-linejoin="miter"/><path d="" fill="#000000" fill-rule="nonzero" stroke="none" stroke-width="0" stroke-linecap="butt" stroke-linejoin="miter"/><path d="" fill="#000000" fill-rule="nonzero" stroke="none" stroke-width="0" stroke-linecap="butt" stroke-linejoin="miter"/><g fill-rule="nonzero" stroke="none" stroke-width="0" stroke-linecap="butt" stroke-linejoin="miter"><path d="" fill="#000000"/><path d="" fill="#ffffff"/><path d="" fill="#ffffff"/></g><path d="" fill="#000000" fill-rule="nonzero" stroke="none" stroke-width="0" stroke-linecap="butt" stroke-linejoin="miter"/><g fill-rule="nonzero" stroke="none" stroke-width="0" stroke-linecap="butt" stroke-linejoin="miter"><path d="" fill="#000000"/><path d="" fill="#ffffff"/></g><g fill-rule="nonzero" stroke="none" stroke-width="0" stroke-linecap="butt" stroke-linejoin="miter"><path d="" data-paper-data="{&quot;index&quot;:null}" fill="#000000"/><path d="" data-paper-data="{&quot;index&quot;:null}" fill="#ffffff"/></g><path d="" fill-opacity="0.50806" fill="#000000" fill-rule="nonzero" stroke="none" stroke-width="0" stroke-linecap="butt" stroke-linejoin="miter"/><path d="" fill="#000000" fill-rule="nonzero" stroke="none" stroke-width="0" stroke-linecap="butt" stroke-linejoin="miter"/><path d="" fill="#59220f" fill-rule="nonzero" stroke="#000000" stroke-width="NaN" stroke-linecap="butt" stroke-linejoin="miter"/><path d="" fill="#6d4321" fill-rule="nonzero" stroke="none" stroke-width="0" stroke-linecap="butt" stroke-linejoin="miter"/><path d="" fill="#6d4321" fill-rule="nonzero" stroke="none" stroke-width="0" stroke-linecap="butt" stroke-linejoin="miter"/><path d="" fill="#6d4321" fill-rule="nonzero" stroke="none" stroke-width="0" stroke-linecap="butt" stroke-linejoin="miter"/><g fill-rule="nonzero" stroke="none" stroke-width="0" stroke-linecap="butt" stroke-linejoin="miter"><path d="" fill="#000000"/><path d="" fill="#ffffff"/></g><g fill-rule="nonzero" stroke="none" stroke-width="0" stroke-linecap="butt" stroke-linejoin="miter"><g fill="#000000"><path d=""/></g><g data-paper-data="{&quot;index&quot;:null}" fill="#000000"><path d=""/></g><g fill-opacity="0.20968" fill="#000000"><path d=""/></g><g data-paper-data="{&quot;index&quot;:null}" fill-opacity="0.20968" fill="#000000"><path d=""/></g></g><path d="" fill="#6d4321" fill-rule="nonzero" stroke="#59220f" stroke-width="1.5" stroke-linecap="butt" stroke-linejoin="miter"/><g fill-rule="nonzero" stroke="none" stroke-width="0" stroke-linecap="butt" stroke-linejoin="miter"><g fill="#000000"><path d=""/></g><g data-paper-data="{&quot;index&quot;:null}" fill="#000000"><path d=""/></g><g fill-opacity="0.20968" fill="#000000"><path d=""/></g><g data-paper-data="{&quot;index&quot;:null}" fill-opacity="0.20968" fill="#000000"><path d=""/></g></g><path d="" fill="#6d4321" fill-rule="nonzero" stroke="none" stroke-width="0" stroke-linecap="butt" stroke-linejoin="miter"/><path d="" fill="#6d4321" fill-rule="nonzero" stroke="none" stroke-width="0" stroke-linecap="butt" stroke-linejoin="miter"/><path d="" fill="#6d4321" fill-rule="nonzero" stroke="none" stroke-width="0" stroke-linecap="butt" stroke-linejoin="miter"/><path d="" fill="#6d4321" fill-rule="nonzero" stroke="none" stroke-width="0" stroke-linecap="butt" stroke-linejoin="miter"/><path d="" fill="#6d4321" fill-rule="nonzero" stroke="none" stroke-width="0" stroke-linecap="butt" stroke-linejoin="miter"/><path d="" fill="#6d4321" fill-rule="nonzero" stroke="none" stroke-width="0" stroke-linecap="butt" stroke-linejoin="miter"/><path d="" fill="#8d6e47" fill-rule="nonzero" stroke="none" stroke-width="0" stroke-linecap="butt" stroke-linejoin="miter"/><path d="" fill="#8d6e47" fill-rule="nonzero" stroke="none" stroke-width="0" stroke-linecap="butt" stroke-linejoin="miter"/><path d="" fill="#8d6e47" fill-rule="nonzero" stroke="none" stroke-width="0" stroke-linecap="butt" stroke-linejoin="miter"/><path d="" fill="#8d6e47" fill-rule="nonzero" stroke="none" stroke-width="0" stroke-linecap="butt" stroke-linejoin="miter"/><path d="" fill="#8d6e47" fill-rule="nonzero" stroke="none" stroke-width="0" stroke-linecap="butt" stroke-linejoin="miter"/><path d="" fill="#894939" fill-rule="nonzero" stroke="none" stroke-width="0" stroke-linecap="butt" stroke-linejoin="miter"/><path d="" fill="#894939" fill-rule="nonzero" stroke="none" stroke-width="0" stroke-linecap="butt" stroke-linejoin="miter"/><path d="" fill="#894939" fill-rule="nonzero" stroke="none" stroke-width="0" stroke-linecap="butt" stroke-linejoin="miter"/><path d="" fill="#5b4c4a" fill-rule="nonzero" stroke="none" stroke-width="0" stroke-linecap="butt" stroke-linejoin="miter"/><path d="" fill="#5b4c4a" fill-rule="nonzero" stroke="none" stroke-width="0" stroke-linecap="butt" stroke-linejoin="miter"/><g fill-rule="nonzero" stroke-linecap="butt" stroke-linejoin="miter"><path d="" fill="#000000" stroke="#060000" stroke-width="3.5"/><path d="" fill="#ffffff" stroke="#000000" stroke-width="0"/><path d="" fill="#060000" stroke="none" stroke-width="1.5"/><path d="" fill="#060000" stroke="#000000" stroke-width="0"/><path d="" fill="#060000" stroke="none" stroke-width="1.5"/><path d="" fill="#060000" stroke="#000000" stroke-width="0"/><path d="" data-paper-data="{&quot;index&quot;:null}" fill="#000000" stroke="none" stroke-width="1.5"/></g><path d="" fill="#000000" fill-rule="evenodd" stroke="none" stroke-width="0.129" stroke-linecap="round" stroke-linejoin="round"/><g fill-rule="evenodd" stroke="none" stroke-width="0.1" stroke-linecap="round" stroke-linejoin="round"><path d="" fill="#000000"/><path d="" fill="#ffffff"/></g><g fill-rule="evenodd" stroke="none" stroke-width="0.1" stroke-linecap="round" stroke-linejoin="miter"><path d="" fill="#000000"/><path d="" fill="#ffffff"/><path d="" fill="#ffffff"/></g><path d="" fill="#000000" fill-rule="evenodd" stroke="none" stroke-width="0.129" stroke-linecap="round" stroke-linejoin="round"/><g fill-rule="evenodd" stroke="none" stroke-width="0.1" stroke-linecap="round" stroke-linejoin="miter"><path d="" fill="#ffffff"/><path d="" fill="#000000"/><path d="" fill="#000000"/></g><g fill-rule="evenodd" stroke="none" stroke-width="0.1" stroke-linecap="round" stroke-linejoin="round"><path d="" fill="#000000"/><path d="" fill="#ffffff"/></g><g fill-rule="evenodd" stroke="none" stroke-width="0.1" stroke-linecap="round" stroke-linejoin="round"><path d="" fill="#000000"/><path d="" fill="#ffffff"/></g><g fill-rule="evenodd" stroke="none" stroke-linecap="round" stroke-linejoin="round"><g stroke-width="0.1"><path d="" fill="#000000"/><path d="" fill="#ffffff"/></g><path d="" fill="#000000" stroke-width="0.129"/><g stroke-width="0.1"><path d="" fill="#000000"/><path d="" fill="#ffffff"/></g><path d="" fill="#000000" stroke-width="0.129"/><g stroke-width="0.1"><path d="" fill="#000000"/><path d="" fill="#ffffff"/></g><g stroke-width="0.1"><path d="" fill="#000000"/><path d="" fill="#ffffff"/></g></g><path d="" fill="#000000" fill-rule="evenodd" stroke="none" stroke-width="0.129" stroke-linecap="round" stroke-linejoin="round"/><path d="" fill="#000000" fill-rule="evenodd" stroke="none" stroke-width="0.129" stroke-linecap="round" stroke-linejoin="round"/><path d="M193.38456,125.71933c0,0 4.75839,-5.12941 6.10536,-8.45329c2.88904,-7.12918 2.85124,-13.03672 2.85124,-13.03672c0,0 -1.85997,0.61665 -2.84266,0.69861c-1.61013,0.13429 -2.80363,-0.26204 -2.80363,-0.26204l6.42399,-6.92498c0,0 0.2475,-17.60523 8.9764,-29.16254c6.74693,-8.93313 20.64648,-12.51508 30.3551,-12.44472c8.42215,0.06104 22.55613,3.08573 28.68941,10.58184c10.08388,12.32455 6.38707,19.81995 10.11,32.42062c3.72078,12.59341 5.77495,16.18431 5.77495,16.18431c0,0 -1.64899,-0.1627 -2.4478,-0.70191c-3.35821,-2.26684 -4.77049,-4.144 -4.77049,-4.144c0,0 2.51404,9.65365 0.49901,21.29599c-1.43966,8.31802 -7.42166,16.10527 -7.42166,16.10527l-1.17358,-2.98711c0,0 -0.27736,1.51046 -1.52332,3.13635c-1.38133,1.80253 -3.94985,3.49671 -3.94985,3.49671l0.00318,-3.58884c0,0 -4.58502,5.92133 -10.91754,9.01637c-6.10567,2.98416 -11.80358,2.51788 -14.49123,2.46803c-14.12802,-0.26204 -24.08852,-10.83115 -24.08852,-10.83115l-1.5995,1.70352c0,0 -3.09691,-2.20769 -5.16904,-7.29265c-3.07463,-7.54506 -3.82841,-13.97384 -3.82841,-13.97384c0,0 -3.51398,2.22964 -6.51964,2.91866c-3.62077,0.83002 -6.65099,0.20519 -6.65099,0.20519c0,0 3.61051,-2.54967 5.08456,-3.95508c1.38725,-1.32265 3.51514,-4.24416 3.51514,-4.24416c0,0 -3.21775,1.31904 -4.68875,1.66038c-2.24208,0.52027 -3.5017,0.11114 -3.5017,0.11114z" fill="#000000" fill-rule="nonzero" stroke="none" stroke-width="NaN" stroke-linecap="butt" stroke-linejoin="miter"/><g fill-rule="nonzero" stroke-linejoin="miter"><path d="M210.47877,106.44864c0.96521,-0.18364 5.78639,4.94033 6.72949,9.89722c0.94309,4.95689 -0.15061,10.72809 -0.15061,10.72809c0,0 -6.46652,-3.53164 -7.66724,-8.4325c-3.07712,-12.5596 0.12316,-12.00917 1.08836,-12.19281z" fill="#000000" stroke="none" stroke-width="0" stroke-linecap="butt"/><path d="M210.20637,107.50111c1.31694,-0.1432 3.38354,5.86128 4.11895,9.72657c0.73541,3.86529 0.71005,7.6557 0.71005,7.6557c0,0 -4.13639,-3.64493 -5.07269,-7.46653c-2.39948,-9.79373 -0.51797,-9.83292 0.24369,-9.91574z" fill="#ffffff" stroke="none" stroke-width="0" stroke-linecap="butt"/><path d="M214.77999,122.17314c0,0 -3.02608,-5.45514 -3.46106,-7.54108c-0.69361,-3.32613 1.47037,-3.38348 1.47037,-3.38348" fill="none" stroke="#000000" stroke-width="0.5" stroke-linecap="round"/></g><g data-paper-data="{&quot;index&quot;:null}" fill-rule="nonzero" stroke-linejoin="miter"><path d="M274.23607,118.51573c-1.20072,4.90086 -7.66724,8.4325 -7.66724,8.4325c0,0 -1.0937,-5.77121 -0.15061,-10.7281c0.9431,-4.95689 5.76428,-10.08085 6.72949,-9.89722c0.96521,0.18363 4.16548,-0.36679 1.08836,12.19281z" fill="#000000" stroke="none" stroke-width="0" stroke-linecap="butt"/><path d="M273.6638,117.29113c-0.93629,3.8216 -5.0727,7.46653 -5.0727,7.46653c0,0 -0.02536,-3.79041 0.71005,-7.6557c0.73541,-3.86529 2.80201,-9.86976 4.11895,-9.72656c0.76166,0.08282 2.64317,0.12201 0.2437,9.91574z" fill="#ffffff" stroke="none" stroke-width="0" stroke-linecap="butt"/><path d="M270.83716,111.12287c0,0 2.16397,0.05735 1.47037,3.38348c-0.43498,2.08594 -3.46106,7.54108 -3.46106,7.54108" fill="none" stroke="#000000" stroke-width="0.5" stroke-linecap="round"/></g><path d="M217.45335,143.50304c-1.12791,-6.71582 -0.20637,-6.94188 -1.0642,-13.44379c-0.47362,-3.58977 -2.15797,-7.18909 -2.73202,-11.13223c-1.20896,-8.30433 -1.27196,-25.65977 -0.47554,-29.40025c4.41933,-20.75585 15.3863,-24.96608 29.85603,-25.48425c20.77576,-0.74399 24.79696,12.48506 27.42961,23.79025c1.84023,7.90235 1.22737,18.92724 -0.34916,28.57116c-0.96559,5.90663 -2.47529,10.80823 -3.46814,15.58687c-1.22544,5.89815 -0.7524,7.76045 -1.86263,12.66938c-1.15349,5.10023 -6.83176,10.81045 -11.83191,15.83737c-4.57165,4.59612 -7.90818,8.33063 -12.38271,8.22359c-5.04445,-0.12068 -8.96195,-6.22631 -14.50155,-12.44391c-4.38889,-4.92605 -8.03319,-9.29321 -8.61781,-12.77419z" fill="#000000" fill-rule="nonzero" stroke="none" stroke-width="0" stroke-linecap="butt" stroke-linejoin="miter"/><path d="M217.25877,124.68154c-0.94553,-5.09249 -3.54204,-4.25562 -2.79146,-22.70284c0.35027,-8.60857 1.58748,-16.65181 3.61898,-20.76639c6.59974,-13.36702 19.1364,-15.03633 24.02784,-15.03633c4.16055,0 17.20519,1.95486 23.80596,13.20532c1.38921,2.3678 2.77649,5.92394 3.26517,9.93109c0.50548,4.1449 0.08725,8.75725 0.02672,12.11153c-0.10696,5.92699 0.23361,11.79227 -1.04001,17.97375c-0.62848,3.05035 -1.86346,6.18514 -2.54274,8.95491c-1.44491,5.89168 -1.386,9.63665 -2.01514,12.75206c-1.44877,7.17412 -1.89749,7.23551 -4.27323,10.21882c-2.5746,3.23301 -6.22007,6.15229 -9.11253,8.91074c-2.62204,2.50056 -5.47801,6.21315 -8.77908,6.21315c-4.10432,0 -6.9048,-3.78999 -10.07829,-7.4154c-4.79276,-5.47527 -11.46201,-7.91572 -13.04194,-17.80658c-0.63652,-3.98482 0.06119,-10.45004 -1.07025,-16.54383z" fill="#ffffff" fill-rule="nonzero" stroke="none" stroke-width="0" stroke-linecap="butt" stroke-linejoin="miter"/><path d="M261.44543,116.01391c0,3.39365 -3.44113,7.3524 -4.14047,12.6132c-0.97024,7.29867 -2.28867,12.24566 -2.28867,12.24566c0,0 -1.73394,-2.27795 -2.28517,-13.9053c-0.24031,-5.06884 -4.14397,-7.73955 -4.14397,-10.95356c0,-2.4818 3.36985,-4.49569 3.85619,-7.847c1.07982,-7.44094 1.83413,-13.53806 1.83413,-13.53806c0,0 1.92182,3.89581 2.25945,8.97231c0.61676,9.27353 4.90852,8.97314 4.90852,12.41275z" fill="#000000" fill-rule="nonzero" stroke="none" stroke-width="0" stroke-linecap="butt" stroke-linejoin="miter"/><g fill-rule="nonzero" stroke="none" stroke-width="0" stroke-linecap="butt" stroke-linejoin="miter"><path d="M228.24271,105.59133c5.64136,0 10.21459,4.47197 10.21459,9.98843c0,5.51646 -4.7706,9.74171 -10.41197,9.74171c-5.64137,0 -10.31875,-4.22525 -10.31875,-9.74171c0,-5.51645 4.87476,-9.98843 10.51613,-9.98843z" fill="#000000"/><path d="M228.24271,105.84571c4.97522,0 8.78866,3.85659 8.78866,8.8032c0,4.94661 -4.01083,9.08774 -8.98605,9.08774c-4.97523,0 -8.81106,-3.98769 -8.81106,-8.9343c0,-4.94662 4.03322,-8.95664 9.00844,-8.95664z" fill="#ffffff"/></g><g fill-rule="nonzero" stroke="none" stroke-width="0" stroke-linecap="butt" stroke-linejoin="miter"><path d="M254.80263,105.61595c5.64136,0 10.21459,4.47198 10.21459,9.98844c0,5.51645 -4.72127,9.64301 -10.36263,9.64301c-3.16285,0 -6.23667,-1.06026 -8.11031,-3.26759c-1.46826,-1.72975 -1.95625,-3.95178 -1.95625,-6.37542c0,-5.51646 4.57322,-9.98844 10.21459,-9.98844z" fill="#000000"/><path d="M254.80263,105.87034c4.97523,0 8.70691,4.08541 8.70691,9.03202c0,4.94661 -3.87973,8.68387 -8.85495,8.68387c-4.97523,0 -8.8604,-3.81265 -8.8604,-8.75926c0,-4.94661 4.03322,-8.95663 9.00844,-8.95663z" fill="#ffffff"/></g><g fill-rule="nonzero" stroke="none" stroke-linecap="butt" stroke-linejoin="miter"><path d="M249.40687,142.68968c2.14614,0.63336 4.57,2.14674 7.10189,3.18958c3.1668,1.30434 5.91835,2.72636 5.91835,2.98404c0,0.09852 0.6422,0.57742 0.34258,1.11686c-1.789,3.22099 -9.63005,12.83494 -20.94009,13.0257c-12.59325,-0.3248 -20.68677,-10.85655 -23.27914,-15.25835c-0.66575,-1.13043 -0.11257,-1.97072 -0.18768,-1.99564c-0.32963,-0.10935 2.17574,-0.56882 4.39722,-1.19556c1.32363,-0.37344 6.02869,-2.52762 9.16564,-2.62169c0,0 6.11008,0.84857 11.13979,1.05021c0,0 4.30069,-0.8974 6.34144,-0.29515z" fill="#000000" stroke-width="NaN"/><path d="M222.92494,145.91181c0,0 4.45428,-1.58314 9.14685,-1.84617c3.5353,-0.19816 8.14505,1.24124 10.14351,1.24124c1.78589,0 3.62586,-1.29154 6.32678,-0.57417c4.23256,1.12417 8.12418,3.53158 8.12418,3.53158c0,0 -3.47556,-0.50449 -6.7587,-0.10932c-2.77486,0.33399 -5.25973,0.85453 -6.95291,0.86581c-2.06827,0.01378 -6.82484,-0.83276 -11.18375,-1.76195c-4.64917,-0.99105 -8.84595,-1.34702 -8.84595,-1.34702z" fill="#ffffff" stroke-width="0"/><path d="M233.93282,149.67147c5.82065,1.20577 8.52116,2.22429 8.52116,2.22429c0,0 2.73973,-0.85807 10.10428,-1.81233c3.83362,-0.49674 8.34249,0.13003 8.34249,0.13003c0,0 -1.67172,2.4939 -5.81691,5.31831c-3.13971,2.13931 -7.86424,4.77611 -13.40623,4.89818c-13.03253,0.28708 -21.37398,-13.37554 -21.37398,-13.37554c0,0 7.27229,1.30021 13.62919,2.61706z" fill="#ffffff" stroke-width="0"/></g><path d="M213.28839,108.92256l0.13102,-1.63769l7.19167,-1.18423l0.32653,-1.46623c0,0 3.68245,-1.72538 7.2562,-2.03587c3.72054,-0.32324 9.00496,-0.09575 9.00496,-0.09575l0.32754,4.71657c0,0 -4.80797,-1.2906 -8.17678,-1.07798c-6.17314,0.38961 -6.13035,1.25866 -10.09703,1.94554c-3.96668,0.68688 -5.96411,0.83565 -5.96411,0.83565z" fill="#000000" fill-rule="nonzero" stroke="none" stroke-width="0" stroke-linecap="butt" stroke-linejoin="miter"/><path d="M261.75242,99.48069l0.19551,1.20419l7.3882,2.16685l0.13101,1.6377c0,0 -4.90053,-1.5555 -10.46884,-1.84093c-0.46873,-1.26641 -1.03876,-2.44144 -1.78847,-3.79792c2.73156,0.15172 4.5426,0.63011 4.5426,0.63011z" data-paper-data="{&quot;index&quot;:null}" fill="#000000" fill-rule="nonzero" stroke="none" stroke-width="0" stroke-linecap="butt" stroke-linejoin="miter"/><path d="" data-paper-data="{&quot;index&quot;:null}" fill="#000000" fill-rule="nonzero" stroke="none" stroke-width="0" stroke-linecap="butt" stroke-linejoin="miter"/><path d="" data-paper-data="{&quot;index&quot;:null}" fill="#000000" fill-rule="nonzero" stroke="none" stroke-width="0" stroke-linecap="butt" stroke-linejoin="miter"/><path d="M245.49125,105.11236l-0.26203,-4.42239c0,0 3.98638,-1.3082 7.72967,-1.74081c-0.16072,1.05897 -0.29711,2.07631 -0.29711,3.16453l-0.1161,0.91386c-4.14008,0.71519 -7.05444,2.08481 -7.05444,2.08481z" data-paper-data="{&quot;index&quot;:null}" fill="#000000" fill-rule="nonzero" stroke="none" stroke-width="0" stroke-linecap="butt" stroke-linejoin="miter"/><path d="M227.7191,110.63144c2.71342,0 4.91309,2.23007 4.91309,4.98099c0,2.75092 -2.19966,4.98098 -4.91309,4.98098c-2.71342,0 -4.91309,-2.23006 -4.91309,-4.98098c0,-2.75092 2.19966,-4.98099 4.91309,-4.98099z" fill="#000000" fill-rule="nonzero" stroke="none" stroke-width="0" stroke-linecap="butt" stroke-linejoin="miter"/><path d="M254.87165,110.85055c2.71342,0 4.91309,2.23006 4.91309,4.98098c0,2.75092 -2.19966,4.98098 -4.91309,4.98098c-2.71342,0 -4.91309,-2.23006 -4.91309,-4.98098c0,-2.75091 2.19966,-4.98098 4.91309,-4.98098z" fill="#000000" fill-rule="nonzero" stroke="none" stroke-width="0" stroke-linecap="butt" stroke-linejoin="miter"/><g fill-rule="nonzero" stroke="none" stroke-width="0" stroke-linecap="butt" stroke-linejoin="miter"><path d="M238.90961,136.80041c0,0 -0.06312,-8.68679 -0.28083,-12.38791c-0.17487,-2.97289 -0.92532,-8.11666 -0.92532,-8.11666c0,0 -0.33218,-1.57308 0.02454,-1.56279c1.13657,0.03279 7.81544,1.78895 7.81544,1.78895l-0.37692,20.27841c0,0 0.82184,1.93768 0.72844,3.69896c-0.06976,1.31553 -0.97469,4.70292 -1.02626,5.67536c-0.11348,2.13998 -0.40577,3.89334 -0.40577,3.89334l-4.14036,-0.01448c0,0 -0.12488,-2.01528 -0.87252,-4.2695c-0.71961,-2.16969 -2.11593,-4.55553 -2.18508,-5.58924c-0.19994,-2.9885 1.64464,-3.39445 1.64464,-3.39445z" fill="#000000"/><path d="M241.27165,149.07835c0,0 -0.2909,-3.80356 -0.49735,-8.24071c-0.20504,-4.40659 -0.32473,-9.70108 -0.5883,-13.30096c-0.42508,-5.80554 -1.77895,-15.81414 -1.77895,-15.81414l6.10614,1.88461l-0.75385,35.43068z" fill="#ffffff"/><path d="M238.85405,137.97843c0.34401,0 0.62288,4.77542 0.62288,4.77542c0,0 -1.24576,-1.59275 -1.24576,-2.7251c0,-1.13236 0.27887,-2.05032 0.62288,-2.05032z" fill="#ffffff"/></g><path d="M210.60204,100.16511v-21.15411c0,0 21.21081,-18.67174 31.8391,-18.67174c9.85589,0 29.78844,18.67174 29.78844,18.67174l0.9522,14.8825c0,0 -4.02246,-9.83788 -7.66885,-7.46317c-9.67233,6.2991 -26.0271,10.16832 -26.0271,10.16832c0,0 2.88671,-3.50484 4.29889,-5.2734c0.74057,-0.92746 1.4281,-2.38433 1.4281,-2.38433c0,0 -9.19557,5.48816 -17.51331,7.89872c-11.3727,3.29591 -17.09747,3.32547 -17.09747,3.32547z" fill="#000000" fill-rule="nonzero" stroke="none" stroke-width="0" stroke-linecap="butt" stroke-linejoin="miter"/><g fill-rule="nonzero" stroke="none" stroke-width="0" stroke-linecap="butt" stroke-linejoin="miter"><path d="M217.54636,116.1721c0,0 -0.16627,-2.22288 0.81062,-4.59656c1.16899,-2.84044 3.93233,-5.91812 9.99819,-5.95021c4.4123,-0.02334 6.77688,1.48178 8.31843,3.36171c2.53146,3.08714 2.42486,7.54013 2.42486,7.54013z" fill="#000000"/><path d="M219.1186,114.59992c0,0 0.38648,-8.1425 9.36763,-8.12298c3.32151,0.00722 5.24312,1.47836 6.59481,2.79979c2.45356,2.39865 2.57629,5.32319 2.57629,5.32319z" fill="#ffffff"/></g><path d="M244.50734,116.19351c0,0 -0.53134,-3.2454 0.9459,-6.12374c1.32927,-2.59004 4.34124,-4.84529 9.8629,-4.81608c11.13492,0.0589 11.0941,11.29489 11.0941,11.29489z" data-paper-data="{&quot;index&quot;:null}" fill="#000000" fill-rule="nonzero" stroke="none" stroke-width="0" stroke-linecap="butt" stroke-linejoin="miter"/></g></g></svg>