<svg version="1.1" xmlns="http://www.w3.org/2000/svg" xmlns:xlink="http://www.w3.org/1999/xlink" width="94.04938" height="247.7348" viewBox="0,0,94.04938,247.7348"><g transform="translate(-192.92324,-56.13261)"><g data-paper-data="{&quot;isPaintingLayer&quot;:true}" stroke-miterlimit="10" stroke-dasharray="" stroke-dashoffset="0" style="mix-blend-mode: normal"><g fill-rule="nonzero" stroke-linecap="butt" stroke-linejoin="miter"><path d="" fill="#000000" stroke="#060000" stroke-width="3.5"/><path d="" fill="#ffffff" stroke="#000000" stroke-width="0"/><path d="" fill="#060000" stroke="none" stroke-width="1.5"/><path d="" fill="#060000" stroke="#000000" stroke-width="0"/><path d="" fill="#060000" stroke="none" stroke-width="1.5"/><path d="" fill="#060000" stroke="#000000" stroke-width="0"/><path d="" data-paper-data="{&quot;index&quot;:null}" fill="#000000" stroke="none" stroke-width="1.5"/></g><path d="" fill="#000000" fill-rule="evenodd" stroke="none" stroke-width="0.129" stroke-linecap="round" stroke-linejoin="round"/><g fill-rule="evenodd" stroke="none" stroke-width="0.1" stroke-linecap="round" stroke-linejoin="round"><path d="" fill="#000000"/><path d="" fill="#ffffff"/></g><g fill-rule="evenodd" stroke="none" stroke-width="0.1" stroke-linecap="round" stroke-linejoin="miter"><path d="" fill="#000000"/><path d="" fill="#ffffff"/><path d="" fill="#ffffff"/></g><path d="" fill="#000000" fill-rule="evenodd" stroke="none" stroke-width="0.129" stroke-linecap="round" stroke-linejoin="round"/><g fill-rule="evenodd" stroke="none" stroke-width="0.1" stroke-linecap="round" stroke-linejoin="miter"><path d="" fill="#ffffff"/><path d="" fill="#000000"/><path d="" fill="#000000"/></g><g fill-rule="evenodd" stroke="none" stroke-width="0.1" stroke-linecap="round" stroke-linejoin="round"><path d="" fill="#000000"/><path d="" fill="#ffffff"/></g><g fill-rule="evenodd" stroke="none" stroke-width="0.1" stroke-linecap="round" stroke-linejoin="round"><path d="" fill="#000000"/><path d="" fill="#ffffff"/></g><g fill-rule="evenodd" stroke="none" stroke-linecap="round" stroke-linejoin="round"><g stroke-width="0.1"><path d="" fill="#000000"/><path d="" fill="#ffffff"/></g><path d="" fill="#000000" stroke-width="0.129"/><g stroke-width="0.1"><path d="" fill="#000000"/><path d="" fill="#ffffff"/></g><path d="" fill="#000000" stroke-width="0.129"/><g stroke-width="0.1"><path d="" fill="#000000"/><path d="" fill="#ffffff"/></g><g stroke-width="0.1"><path d="" fill="#000000"/><path d="" fill="#ffffff"/></g></g><path d="" fill="#000000" fill-rule="evenodd" stroke="none" stroke-width="0.129" stroke-linecap="round" stroke-linejoin="round"/><path d="" fill="#000000" fill-rule="evenodd" stroke="none" stroke-width="0.129" stroke-linecap="round" stroke-linejoin="round"/><g fill="none" fill-rule="nonzero" stroke="none" stroke-width="1" stroke-linecap="butt" stroke-linejoin="miter" font-family="sans-serif" font-weight="normal" font-size="12" text-anchor="start"><g/><g data-paper-data="{&quot;index&quot;:null}"/></g><g fill="#000000" fill-rule="nonzero" stroke="none" stroke-linecap="butt" stroke-linejoin="miter"><path d="M200.58119,185.96088c0,-21.10292 18.15751,-38.21022 40.55593,-38.21022c22.39843,0 40.82079,17.1073 40.82079,38.21022c0,2.70002 0.0039,117.77204 0.0039,117.77204l-11.39983,-0.12964l-0.14337,-113.82486c0,0 0.46851,-2.08621 -1.77595,-2.22047c-2.48625,-0.14872 -2.11767,1.68282 -2.11767,1.68282l0.10343,114.38802l-50.32146,0.07847l0.10485,-114.20488c0,0 -0.19035,-2.13951 -1.8053,-2.16297c-2.01199,-0.02922 -1.98832,2.04221 -1.98832,2.04221l-0.29988,114.25674l-11.38239,0.22905c0,0 -0.35473,-116.42094 -0.35473,-117.90653z" stroke-width="0"/><g><path d="M230.02074,204.89615c-5.66213,0 -7.34973,-0.4705 -7.34973,-0.4705l-0.08286,-1.2733c0,0 5.25623,0.13066 7.69744,0.13066c4.20542,0 7.61458,-1.35635 7.61458,-0.87378c0,0.48257 -1.95246,2.48691 -7.87944,2.48691z" stroke-width="0"/><path d="M225.51817,199.65349c0,-0.55682 0.44467,-1.00821 0.99321,-1.00821c0.54854,0 0.99321,0.45139 0.99321,1.00821c0,0.55682 -0.44467,1.00821 -0.99321,1.00821c-0.54854,0 -0.99321,-0.45139 -0.99321,-1.00821z" stroke-width="0.5"/></g><g data-paper-data="{&quot;index&quot;:null}"><path d="M244.83594,202.40925c0,-0.48257 3.40916,0.87378 7.61458,0.87378c2.44121,0 7.69744,-0.13066 7.69744,-0.13066l-0.08286,1.2733c0,0 -1.6876,0.4705 -7.34973,0.4705c-5.92698,0 -7.87944,-2.00433 -7.87944,-2.48691z" stroke-width="0"/><path d="M256.2247,200.66167c-0.54853,0 -0.99321,-0.45139 -0.99321,-1.00821c0,-0.55682 0.44467,-1.00821 0.99321,-1.00821c0.54853,0 0.99321,0.45139 0.99321,1.00821c0,0.55682 -0.44467,1.00821 -0.99321,1.00821z" stroke-width="0.5"/></g><path d="M240.38319,253.12202c0,-0.55681 0.44467,-1.00821 0.99321,-1.00821c0.54854,0 0.99321,0.45139 0.99321,1.00821c0,0.55681 -0.44467,1.00821 -0.99321,1.00821c-0.54854,0 -0.99321,-0.45139 -0.99321,-1.00821z" stroke-width="0.5"/></g><path d="M193.33247,125.71931c0,0 4.75839,-5.12941 6.10536,-8.45329c2.88904,-7.12918 2.85124,-13.03672 2.85124,-13.03672c0,0 -1.85997,0.61665 -2.84266,0.69861c-1.61013,0.13429 -2.80363,-0.26204 -2.80363,-0.26204l6.42399,-6.92498c0,0 0.2475,-17.60523 8.9764,-29.16254c6.74693,-8.93313 20.64648,-12.51508 30.3551,-12.44472c8.42215,0.06104 22.55613,3.08573 28.68941,10.58184c10.08388,12.32455 6.38707,19.81995 10.11,32.42062c3.72078,12.59341 5.77495,16.18431 5.77495,16.18431c0,0 -1.64899,-0.1627 -2.4478,-0.70191c-3.35821,-2.26684 -4.77049,-4.144 -4.77049,-4.144c0,0 2.51404,9.65365 0.49901,21.29599c-1.43966,8.31802 -7.42166,16.10527 -7.42166,16.10527l-1.17358,-2.98711c0,0 -0.27736,1.51046 -1.52332,3.13635c-1.38133,1.80253 -3.94985,3.49671 -3.94985,3.49671l0.00318,-3.58884c0,0 -4.58502,5.92133 -10.91754,9.01637c-6.10567,2.98416 -11.80358,2.51788 -14.49123,2.46803c-14.12802,-0.26204 -24.08852,-10.83115 -24.08852,-10.83115l-1.5995,1.70352c0,0 -3.09691,-2.20769 -5.16904,-7.29265c-3.07463,-7.54506 -3.82841,-13.97384 -3.82841,-13.97384c0,0 -3.51398,2.22964 -6.51964,2.91866c-3.62077,0.83002 -6.65099,0.20519 -6.65099,0.20519c0,0 3.61051,-2.54967 5.08456,-3.95508c1.38725,-1.32265 3.51514,-4.24416 3.51514,-4.24416c0,0 -3.21775,1.31904 -4.68875,1.66038c-2.24208,0.52027 -3.5017,0.11114 -3.5017,0.11114z" fill="#000000" fill-rule="nonzero" stroke="none" stroke-width="NaN" stroke-linecap="butt" stroke-linejoin="miter"/><path d="M214.31371,232.59017v-36.07143c0,0 3.69826,0.2212 3.31912,2.50646c-1.16021,6.99313 -17.40741,3.10465 -17.40741,3.10465c0,0 -0.24057,-8.51135 -0.31967,-22.01258c-0.0336,-5.7352 5.20622,-16.06338 12.32528,-22.03668c7.22581,-6.06286 16.33269,-7.72851 16.33269,-7.72851c0,0 9.5,51.54959 9.5,55.44299c0,6.61712 -0.47619,48.69986 -0.47619,48.69986z" fill="#5a4b4a" fill-rule="nonzero" stroke="none" stroke-width="0" stroke-linecap="butt" stroke-linejoin="miter"/><g fill-rule="nonzero" stroke-linejoin="miter"><path d="M210.47876,106.4486c0.96521,-0.18364 5.78639,4.94033 6.72949,9.89722c0.94309,4.95689 -0.15061,10.72809 -0.15061,10.72809c0,0 -6.46652,-3.53164 -7.66724,-8.4325c-3.07712,-12.5596 0.12316,-12.00917 1.08836,-12.19281z" fill="#000000" stroke="none" stroke-width="0" stroke-linecap="butt"/><path d="M210.20637,107.50107c1.31694,-0.1432 3.38354,5.86128 4.11895,9.72657c0.73541,3.86529 0.71005,7.6557 0.71005,7.6557c0,0 -4.13639,-3.64493 -5.07269,-7.46653c-2.39948,-9.79373 -0.51797,-9.83292 0.24369,-9.91574z" fill="#ffffff" stroke="none" stroke-width="0" stroke-linecap="butt"/><path d="M214.77998,122.17311c0,0 -3.02608,-5.45514 -3.46106,-7.54108c-0.69361,-3.32613 1.47037,-3.38348 1.47037,-3.38348" fill="none" stroke="#000000" stroke-width="0.5" stroke-linecap="round"/></g><g data-paper-data="{&quot;index&quot;:null}" fill-rule="nonzero" stroke="none" stroke-width="0" stroke-linecap="butt" stroke-linejoin="miter"><path d="M244.91045,255.03084c0,0 -0.47619,-42.08274 -0.47619,-48.69986c0,-3.89341 9.5,-55.44299 9.5,-55.44299c0,0 9.10688,1.66565 16.33269,7.72851c7.11906,5.9733 12.35888,16.30148 12.32527,22.03668c-0.07911,13.50124 -0.31967,22.01259 -0.31967,22.01259c0,0 -16.24719,3.88849 -17.4074,-3.10465c-0.37914,-2.28526 3.31911,-2.50646 3.31911,-2.50646v36.07143z" fill="#5a4b4a"/><path d="M265.70751,208.8148c-5.16372,-4.77347 -10.17633,-8.85408 -16.79924,-11.66049c-0.00003,-0.03114 9.65276,-39.40474 9.65276,-39.40474c0,0 11.81652,1.83117 17.79728,13.15754c4.61635,8.74246 3.7542,27.43966 3.7542,28.57321c0,1.21423 -13.36451,0.69432 -13.36451,0.69432z" fill="#6c5a58"/><path d="M246.85828,207.95787c6.65373,2.90232 13.30264,6.91733 18.22064,11.84082l-1.06273,12.49498l-16.97684,15.57486c0,0 -0.15086,-30.09425 -0.18107,-39.91067z" fill="#6c5a58"/><path d="M266.40815,199.00582c-2.96882,-4.98313 -7.51218,-8.91906 -12.5662,-12.00843l7.28941,-27.57725c0,0 9.89978,4.42413 14.5541,15.35253c3.20705,7.53019 1.7202,22.48859 1.7202,23.62212c0,1.02593 -7.36713,0.17329 -10.99751,0.61103z" fill="#74615f"/><path d="M253.31197,189.00239c4.43859,2.77597 8.43161,6.24948 11.12009,10.58076c-2.70947,1.477 -0.50385,4.35127 -0.50385,4.35127c0,0 -3.33118,-3.2351 -5.37765,-4.35834c-4.83634,-2.65453 -7.08278,-3.59674 -7.08278,-3.59674z" fill="#74615f"/><path d="M244.38575,257.15896v-10.41299l25.10345,-16.1024v10.41299z" fill="#481310"/><path d="M253.72412,249.18238c-0.12613,-2.10954 -0.27168,-4.21842 -0.43017,-6.3293l13.85211,-8.58032c0,0 0.02645,2.22237 0.04172,3.13056c0.01857,1.1045 0.06171,3.02352 0.06171,3.02352c0,0 -8.17872,5.40915 -13.52537,8.75554z" fill="#571c18"/><path d="M251.77301,243.79518c0.15528,2.11325 0.29664,4.22481 0.41751,6.33741c-1.61103,0.98578 -2.74868,1.63347 -2.95677,1.63347c-0.87067,0 -0.86942,-5.85946 -0.86942,-5.85946z" fill="#571c18"/></g><g data-paper-data="{&quot;index&quot;:null}" fill-rule="nonzero" stroke-linejoin="miter"><path d="M274.23607,118.5157c-1.20072,4.90086 -7.66724,8.4325 -7.66724,8.4325c0,0 -1.0937,-5.77121 -0.15061,-10.7281c0.9431,-4.95689 5.76428,-10.08085 6.72949,-9.89722c0.96521,0.18363 4.16548,-0.36679 1.08836,12.19281z" fill="#000000" stroke="none" stroke-width="0" stroke-linecap="butt"/><path d="M273.6638,117.29109c-0.93629,3.8216 -5.0727,7.46653 -5.0727,7.46653c0,0 -0.02536,-3.79041 0.71005,-7.6557c0.73541,-3.86529 2.80201,-9.86976 4.11895,-9.72656c0.76166,0.08282 2.64317,0.12201 0.2437,9.91574z" fill="#ffffff" stroke="none" stroke-width="0" stroke-linecap="butt"/><path d="M270.83716,111.12284c0,0 2.16397,0.05735 1.47037,3.38348c-0.43498,2.08594 -3.46106,7.54108 -3.46106,7.54108" fill="none" stroke="#000000" stroke-width="0.5" stroke-linecap="round"/></g><path d="M217.45334,143.50304c-1.12791,-6.71582 -0.20637,-6.94188 -1.0642,-13.44379c-0.47362,-3.58977 -2.15797,-7.18909 -2.73202,-11.13223c-1.20896,-8.30433 -1.27196,-25.65977 -0.47554,-29.40025c4.41933,-20.75585 15.3863,-24.96608 29.85603,-25.48425c20.77576,-0.74399 24.79696,12.48506 27.42961,23.79025c1.84023,7.90235 1.22737,18.92724 -0.34916,28.57116c-0.96559,5.90663 -2.47529,10.80823 -3.46814,15.58687c-1.22544,5.89815 -0.7524,7.76045 -1.86263,12.66938c-1.15349,5.10023 -6.83176,10.81045 -11.83191,15.83737c-4.57165,4.59612 -7.90818,8.33063 -12.38271,8.22359c-5.04445,-0.12068 -8.96195,-6.22631 -14.50155,-12.44391c-4.38889,-4.92605 -8.03319,-9.29321 -8.61781,-12.77419z" fill="#000000" fill-rule="nonzero" stroke="none" stroke-width="0" stroke-linecap="butt" stroke-linejoin="miter"/><path d="M217.25876,124.6815c-0.94553,-5.09249 -3.54204,-4.25562 -2.79146,-22.70284c0.35027,-8.60857 1.58748,-16.65181 3.61898,-20.76639c6.59974,-13.36702 19.1364,-15.03633 24.02784,-15.03633c4.16055,0 17.20519,1.95486 23.80596,13.20532c1.38921,2.3678 2.77649,5.92394 3.26517,9.93109c0.50548,4.1449 0.08725,8.75725 0.02672,12.11153c-0.10696,5.92699 0.23361,11.79227 -1.04001,17.97375c-0.62848,3.05035 -1.86346,6.18514 -2.54274,8.95491c-1.44491,5.89168 -1.386,9.63665 -2.01514,12.75206c-1.44877,7.17412 -1.89749,7.23551 -4.27323,10.21882c-2.5746,3.23301 -6.22007,6.15229 -9.11253,8.91074c-2.62204,2.50056 -5.47801,6.21315 -8.77908,6.21315c-4.10432,0 -6.9048,-3.78999 -10.07829,-7.4154c-4.79276,-5.47527 -11.46201,-7.91572 -13.04194,-17.80658c-0.63652,-3.98482 0.06119,-10.45004 -1.07025,-16.54383z" fill="#ffffff" fill-rule="nonzero" stroke="none" stroke-width="0" stroke-linecap="butt" stroke-linejoin="miter"/><g fill-rule="nonzero" stroke="none" stroke-width="0" stroke-linecap="butt" stroke-linejoin="miter"><path d="M228.2427,105.59131c5.64136,0 10.21459,4.47197 10.21459,9.98843c0,5.51646 -4.7706,9.74171 -10.41197,9.74171c-5.64137,0 -10.31875,-4.22525 -10.31875,-9.74171c0,-5.51645 4.87476,-9.98843 10.51613,-9.98843z" fill="#000000"/><path d="M228.2427,105.84567c4.97522,0 8.78866,3.85659 8.78866,8.8032c0,4.94661 -4.01083,9.08774 -8.98605,9.08774c-4.97523,0 -8.81106,-3.98769 -8.81106,-8.9343c0,-4.94662 4.03322,-8.95664 9.00844,-8.95664z" fill="#ffffff"/></g><g fill-rule="nonzero" stroke="none" stroke-width="0" stroke-linecap="butt" stroke-linejoin="miter"><path d="M254.80263,105.61592c5.64136,0 10.21459,4.47198 10.21459,9.98844c0,5.51645 -4.72127,9.64301 -10.36263,9.64301c-3.16285,0 -6.23667,-1.06026 -8.11031,-3.26759c-1.46826,-1.72975 -1.95625,-3.95178 -1.95625,-6.37542c0,-5.51646 4.57322,-9.98844 10.21459,-9.98844z" fill="#000000"/><path d="M254.80263,105.8703c4.97523,0 8.70691,4.08541 8.70691,9.03202c0,4.94661 -3.87973,8.68387 -8.85495,8.68387c-4.97523,0 -8.8604,-3.81265 -8.8604,-8.75926c0,-4.94661 4.03322,-8.95663 9.00844,-8.95663z" fill="#ffffff"/></g><g fill-rule="nonzero" stroke="none" stroke-linecap="butt" stroke-linejoin="miter"><path d="M249.40685,142.68967c2.14614,0.63336 4.57,2.14674 7.10189,3.18958c3.1668,1.30434 5.91835,2.72636 5.91835,2.98404c0,0.09852 0.6422,0.57742 0.34258,1.11686c-1.789,3.22099 -9.63005,12.83494 -20.94009,13.0257c-12.59325,-0.3248 -20.68677,-10.85655 -23.27914,-15.25835c-0.66575,-1.13043 -0.11257,-1.97072 -0.18768,-1.99564c-0.32963,-0.10935 2.17574,-0.56882 4.39722,-1.19556c1.32363,-0.37344 6.02869,-2.52762 9.16564,-2.62169c0,0 6.11008,0.84857 11.13979,1.05021c0,0 4.30069,-0.8974 6.34144,-0.29515z" fill="#000000" stroke-width="NaN"/><path d="M222.92494,145.9118c0,0 4.45428,-1.58314 9.14685,-1.84617c3.5353,-0.19816 8.14505,1.24124 10.14351,1.24124c1.78589,0 3.62586,-1.29154 6.32678,-0.57417c4.23256,1.12417 8.12418,3.53158 8.12418,3.53158c0,0 -3.47556,-0.50449 -6.7587,-0.10932c-2.77486,0.33399 -5.25973,0.85453 -6.95291,0.86581c-2.06827,0.01378 -6.82484,-0.83276 -11.18375,-1.76195c-4.64917,-0.99105 -8.84595,-1.34702 -8.84595,-1.34702z" fill="#ffffff" stroke-width="0"/><path d="M233.93281,149.67147c5.82065,1.20577 8.52116,2.22429 8.52116,2.22429c0,0 2.73973,-0.85807 10.10428,-1.81233c3.83362,-0.49674 8.34249,0.13003 8.34249,0.13003c0,0 -1.67172,2.4939 -5.81691,5.31831c-3.13971,2.13931 -7.86424,4.77611 -13.40623,4.89818c-13.03253,0.28708 -21.37398,-13.37554 -21.37398,-13.37554c0,0 7.27229,1.30021 13.62919,2.61706z" fill="#ffffff" stroke-width="0"/></g><path d="M213.28838,108.92253l0.13102,-1.63769l7.19167,-1.18423l0.32653,-1.46623c0,0 3.68245,-1.72538 7.2562,-2.03587c3.72054,-0.32324 9.00496,-0.09575 9.00496,-0.09575l0.32754,4.71657c0,0 -4.80797,-1.2906 -8.17678,-1.07798c-6.17314,0.38961 -6.13035,1.25866 -10.09703,1.94554c-3.96668,0.68688 -5.96411,0.83565 -5.96411,0.83565z" fill="#000000" fill-rule="nonzero" stroke="none" stroke-width="0" stroke-linecap="butt" stroke-linejoin="miter"/><path d="M257.42141,102.60401c-6.5361,-0.02665 -11.93017,2.50832 -11.93017,2.50832l-0.26203,-4.42239c0,0 5.28442,-1.73418 9.39801,-1.86949c4.11358,-0.13531 7.12519,0.66021 7.12519,0.66021l0.19551,1.20419l7.3882,2.16685l0.13101,1.6377c0,0 -5.86035,-1.86016 -12.04572,-1.88538z" data-paper-data="{&quot;index&quot;:null}" fill="#000000" fill-rule="nonzero" stroke="none" stroke-width="0" stroke-linecap="butt" stroke-linejoin="miter"/><path d="M227.71909,110.6314c2.71342,0 4.91309,2.23007 4.91309,4.98099c0,2.75092 -2.19966,4.98098 -4.91309,4.98098c-2.71342,0 -4.91309,-2.23006 -4.91309,-4.98098c0,-2.75092 2.19966,-4.98099 4.91309,-4.98099z" fill="#000000" fill-rule="nonzero" stroke="none" stroke-width="0" stroke-linecap="butt" stroke-linejoin="miter"/><path d="M254.87164,110.85052c2.71342,0 4.91309,2.23006 4.91309,4.98098c0,2.75092 -2.19966,4.98098 -4.91309,4.98098c-2.71342,0 -4.91309,-2.23006 -4.91309,-4.98098c0,-2.75091 2.19966,-4.98098 4.91309,-4.98098z" fill="#000000" fill-rule="nonzero" stroke="none" stroke-width="0" stroke-linecap="butt" stroke-linejoin="miter"/><g fill-rule="nonzero" stroke="none" stroke-width="0" stroke-linecap="butt" stroke-linejoin="miter"><path d="M238.9096,136.80041c0,0 -0.06312,-8.68679 -0.28083,-12.38791c-0.17487,-2.97289 -0.92532,-8.11666 -0.92532,-8.11666c0,0 -0.33218,-1.57308 0.02454,-1.56279c1.13657,0.03279 7.81544,1.78895 7.81544,1.78895l-0.37692,20.27841c0,0 0.82184,1.93768 0.72844,3.69896c-0.06976,1.31553 -0.97469,4.70292 -1.02626,5.67536c-0.11348,2.13998 -0.40577,3.89334 -0.40577,3.89334l-4.14036,-0.01448c0,0 -0.12488,-2.01528 -0.87252,-4.2695c-0.71961,-2.16969 -2.11593,-4.55553 -2.18508,-5.58924c-0.19994,-2.9885 1.64464,-3.39445 1.64464,-3.39445z" fill="#000000"/><path d="M241.27164,149.07833c0,0 -0.2909,-3.80356 -0.49735,-8.24071c-0.20504,-4.40659 -0.32473,-9.70108 -0.5883,-13.30096c-0.42508,-5.80554 -1.77895,-15.81414 -1.77895,-15.81414l6.10614,1.88461l-0.75385,35.43068z" fill="#ffffff"/><path d="M238.85404,137.97842c0.34401,0 0.62288,4.77542 0.62288,4.77542c0,0 -1.24576,-1.59275 -1.24576,-2.7251c0,-1.13236 0.27887,-2.05032 0.62288,-2.05032z" fill="#ffffff"/></g><path d="M217.86694,144.88581l-1.02041,-15.55784c0,0 2.75538,-2.4998 15.41454,-3.12906c2.14091,-0.10642 3.91627,-1.69165 6.26281,-2.85254c0.32623,-0.16139 0.66351,-0.31459 1.01435,-0.45447c0.99857,-0.39813 2.10698,-0.68839 3.38327,-0.75284c4.31463,0.07682 7.39597,3.89393 10.78196,3.94707c9.2752,0.14557 14.14517,2.61722 14.14517,2.61722l-2.55102,14.43352c0,0 -3.64966,-1.40703 -10.39565,-1.63678c-3.82066,-0.13012 -4.63599,-5.01434 -12.87005,-5.10567c-6.76355,-0.07502 -9.23938,3.0975 -14.67417,3.59516c-7.43544,0.68086 -9.4908,4.89622 -9.4908,4.89622z" fill-opacity="0.16935" fill="#000000" fill-rule="nonzero" stroke="none" stroke-width="0" stroke-linecap="butt" stroke-linejoin="miter"/><path d="M210.60203,100.16507v-21.15411c0,0 21.21081,-18.67174 31.8391,-18.67174c9.85589,0 29.78844,18.67174 29.78844,18.67174l0.9522,14.8825c0,0 -4.02246,-9.83788 -7.66885,-7.46317c-9.67233,6.2991 -26.0271,10.16832 -26.0271,10.16832c0,0 2.88671,-3.50484 4.29889,-5.2734c0.74057,-0.92746 1.4281,-2.38433 1.4281,-2.38433c0,0 -9.19557,5.48816 -17.51331,7.89872c-11.3727,3.29591 -17.09747,3.32547 -17.09747,3.32547z" fill="#000000" fill-rule="nonzero" stroke="none" stroke-width="0" stroke-linecap="butt" stroke-linejoin="miter"/><path d="M217.54636,116.17208c0,0 -0.16627,-2.22288 0.81062,-4.59656c1.16899,-2.84044 3.93233,-5.91812 9.99819,-5.95021c4.4123,-0.02334 6.77688,1.48178 8.31843,3.36171c2.53146,3.08714 2.42486,7.54013 2.42486,7.54013z" fill="#000000" fill-rule="nonzero" stroke="none" stroke-width="0" stroke-linecap="butt" stroke-linejoin="miter"/><path d="M244.50733,116.19348c0,0 -0.53134,-3.2454 0.9459,-6.12374c1.32927,-2.59004 4.34124,-4.84529 9.8629,-4.81608c11.13492,0.0589 11.0941,11.29489 11.0941,11.29489z" data-paper-data="{&quot;index&quot;:null}" fill="#000000" fill-rule="nonzero" stroke="none" stroke-width="0" stroke-linecap="butt" stroke-linejoin="miter"/><g fill-rule="nonzero" stroke="none" stroke-width="0" stroke-linecap="butt" stroke-linejoin="miter"><path d="M218.51457,148.5552c0.34896,-4.37455 -0.82809,-8.36296 -0.82809,-8.36296l14.2314,-7.56945c0,0 -2.06782,11.10012 -6.04279,12.28522c-3.63514,1.08379 -1.74546,12.32183 -1.74546,12.32183c0,0 -6.00511,-3.78505 -5.61506,-8.67465z" fill="#481310"/><path d="M226.91412,143.27014c0,0.33667 -1.10638,0.51851 -2.09672,0.96297c-0.21006,0.09428 -1.20385,0.4919 -1.74692,1.62927c-1.27571,0.77705 -2.47537,1.65448 -3.64165,2.62866c-0.02327,-2.32103 -0.06017,-6.08875 -0.06017,-6.63881c0,-0.39581 1.88301,-1.66402 3.86917,-2.0917c2.04487,-0.44033 4.19461,-0.03448 4.19461,-0.03448c0,0 -0.51832,2.74077 -0.51832,3.5441z" fill="#571c18"/><path d="M222.11012,153.59317l-2.28414,-2.8063c0.84666,-0.75573 1.70455,-1.45554 2.5947,-2.09782c-0.32152,2.40716 -0.31056,4.90412 -0.31056,4.90412z" fill="#571c18"/></g><g data-paper-data="{&quot;index&quot;:null}" fill-rule="nonzero" stroke="none" stroke-width="0" stroke-linecap="butt" stroke-linejoin="miter"><path d="M257.64895,157.27864c0,0 1.88968,-11.23804 -1.74546,-12.32183c-3.97498,-1.1851 -6.0428,-12.28522 -6.0428,-12.28522l14.23141,7.56945c0,0 -1.17705,3.98841 -0.82809,8.36296c0.39005,4.8896 -5.61505,8.67465 -5.61505,8.67465z" fill="#481310"/><path d="M254.34613,139.77482c0,0 2.14973,-0.40584 4.19461,0.03448c1.98616,0.42768 3.86917,1.69589 3.86917,2.0917c0,0.55006 -0.0369,4.31778 -0.06017,6.63881c-1.16628,-0.97418 -2.36593,-1.8516 -3.64165,-2.62866c-0.54307,-1.13737 -1.53685,-1.535 -1.74692,-1.62927c-0.99034,-0.44447 -2.09672,-0.62631 -2.09672,-0.96297c0,-0.80333 -0.51832,-3.5441 -0.51832,-3.5441z" fill="#571c18"/><path d="M259.3579,148.73783c0.89016,0.64228 1.74804,1.34209 2.5947,2.09782l-2.28414,2.8063c0,0 0.01096,-2.49696 -0.31056,-4.90412z" fill="#571c18"/></g><path d="M217.24194,142.44533l-1.02041,-12.70801c0,0 2.75538,-2.04189 15.41454,-2.55589c3.28574,-0.13341 5.71047,-3.11201 10.66043,-3.31618c4.31463,0.06275 7.39597,3.18066 10.78196,3.22406c9.2752,0.1189 14.14517,2.1378 14.14517,2.1378l-2.55102,11.78964c0,0 -2.10421,-1.52057 -8.8502,-1.70824c-3.82066,-0.10629 -4.7269,-4.46712 -12.96096,-4.54172c-6.76355,-0.06128 -10.69392,3.27268 -16.12871,3.67918c-7.43544,0.55614 -9.4908,3.99935 -9.4908,3.99935z" fill="#6d4321" fill-rule="nonzero" stroke="none" stroke-width="0" stroke-linecap="butt" stroke-linejoin="miter"/><path d="M231.67552,134.55377c-1.00621,0.06411 -0.89303,2.4159 -2.82667,2.43814c-7.72144,0.08883 -10.65527,2.60669 -10.65527,2.60669c0,0 -0.66842,-6.26467 -0.66842,-8.72407c0,-1.3546 7.40964,-1.99191 13.69523,-2.66063c6.3897,-0.67979 9.72328,-3.17373 10.88622,-3.17373c2.59077,0 3.72993,1.60985 6.98406,2.5911c-0.26579,1.92348 -0.54819,3.87256 -0.89653,5.81012c-2.03594,0.15257 -4.06311,-0.91167 -6.86769,-0.62348c-3.16528,0.32525 -6.14403,1.51242 -9.65094,1.73585z" fill="#8d6e47" fill-rule="nonzero" stroke="none" stroke-width="0" stroke-linecap="butt" stroke-linejoin="miter"/><path d="M250.22988,133.28519c0.30454,-1.73417 0.56244,-3.47484 0.80625,-5.19913c2.59469,0.49543 4.9984,0.86504 7.09324,1.15871c-0.40929,1.11909 -0.7685,2.26953 -1.08946,3.43825c-2.01047,0.20503 -4.2981,0.40456 -6.81002,0.60216z" fill="#8d6e47" fill-rule="nonzero" stroke="none" stroke-width="0" stroke-linecap="butt" stroke-linejoin="miter"/><path d="M247.18971,132.17975c0,0 -3.23764,-0.45174 -6.92203,-0.15907c-2.14246,0.17019 -4.29808,1.07468 -6.41672,1.20362c-0.93058,0.05663 -2.56242,-0.06352 -3.28262,0.36867c-1.50457,0.90288 -0.72295,2.2211 -2.03422,2.60921c-1.04802,0.31019 -3.61844,-0.04802 -5.01999,0.12453c-2.2563,0.27778 -4.36292,1.48606 -4.36292,1.48606c0,0 -0.44357,-5.58836 -0.44357,-6.89886c0,-0.89706 10.31596,-0.85216 17.21043,-2.7712c3.17751,-0.88444 5.63376,-2.45067 6.09149,-2.45067c2.2517,0 6.14602,2.34019 6.14602,2.34019z" fill="#a79262" fill-rule="nonzero" stroke="none" stroke-width="0" stroke-linecap="butt" stroke-linejoin="miter"/><path d="M215.74997,199.63873c0,0 -13.36451,0.51991 -13.36451,-0.69432c0,-1.13354 -0.86215,-19.83075 3.7542,-28.5732c5.98075,-11.32637 17.79728,-13.15754 17.79728,-13.15754c0,0 9.65279,39.37361 9.65276,39.40474c-6.62291,2.80641 -11.63552,6.88702 -16.79924,11.66049z" fill="#6c5a58" fill-rule="nonzero" stroke="none" stroke-width="0" stroke-linecap="butt" stroke-linejoin="miter"/><path d="M235.45861,247.33263l-16.97684,-15.57486l-1.06273,-12.49498c4.918,-4.9235 11.56692,-8.9385 18.22064,-11.84082c-0.03021,9.81642 -0.18107,39.91067 -0.18107,39.91067z" fill="#6c5a58" fill-rule="nonzero" stroke="none" stroke-width="0" stroke-linecap="butt" stroke-linejoin="miter"/><path d="M205.0923,197.85889c0,-1.13353 -1.48685,-16.09193 1.7202,-23.62212c4.65432,-10.92841 14.55411,-15.35253 14.55411,-15.35253l7.28941,27.57725c-5.05402,3.08937 -9.59739,7.02531 -12.56621,12.00843c-3.63038,-0.43774 -10.99751,0.4149 -10.99751,-0.61103z" fill="#74615f" fill-rule="nonzero" stroke="none" stroke-width="0" stroke-linecap="butt" stroke-linejoin="miter"/><path d="M231.03019,195.44343c0,0 -2.24644,0.94222 -7.08278,3.59674c-2.04647,1.12324 -5.37765,4.35834 -5.37765,4.35834c0,0 2.20562,-2.87426 -0.50386,-4.35127c2.68848,-4.33128 6.6815,-7.80479 11.12009,-10.58076z" fill="#74615f" fill-rule="nonzero" stroke="none" stroke-width="0" stroke-linecap="butt" stroke-linejoin="miter"/><path d="M213.00876,240.52066v-10.41299l25.10345,16.1024v10.41299z" fill="#481310" fill-rule="nonzero" stroke="none" stroke-width="0" stroke-linecap="butt" stroke-linejoin="miter"/><path d="M215.24847,239.89093c0,0 0.04315,-1.91901 0.06171,-3.02352c0.01526,-0.90819 0.04172,-3.13056 0.04172,-3.13056l13.85211,8.58032c-0.15849,2.11088 -0.30405,4.21976 -0.43017,6.3293c-5.34664,-3.34638 -13.52537,-8.75554 -13.52537,-8.75554z" fill="#571c18" fill-rule="nonzero" stroke="none" stroke-width="0" stroke-linecap="butt" stroke-linejoin="miter"/><path d="M234.13364,245.37069c0,0 0.00125,5.85947 -0.86942,5.85947c-0.20809,0 -1.34574,-0.64768 -2.95677,-1.63347c0.12087,-2.1126 0.26223,-4.22416 0.41751,-6.33741z" fill="#571c18" fill-rule="nonzero" stroke="none" stroke-width="0" stroke-linecap="butt" stroke-linejoin="miter"/></g></g></svg>