<svg version="1.1" xmlns="http://www.w3.org/2000/svg" xmlns:xlink="http://www.w3.org/1999/xlink" width="512.71707" height="490.49148" viewBox="0,0,512.71707,490.49148"><g transform="translate(16.14423,99.56958)"><g data-paper-data="{&quot;isPaintingLayer&quot;:true}" fill-rule="nonzero" stroke="none" stroke-width="0" stroke-linecap="butt" stroke-linejoin="miter" stroke-miterlimit="10" stroke-dasharray="" stroke-dashoffset="0" style="mix-blend-mode: normal"><path d="" fill="#222222"/><path d="" fill="#ffffff"/><path d="" data-paper-data="{&quot;index&quot;:null}" fill="#222222"/><path d="" data-paper-data="{&quot;index&quot;:null}" fill="#ffffff"/><g><path d="M-6.88897,383.17191l-4.76698,-144.19768c2.56505,1.19281 4.82402,3.77616 7.32474,5.15984c2.4772,1.37066 6.41734,2.31155 9.07324,2.99326c2.9757,0.7638 7.36086,2.2777 10.47137,1.1762c3.7948,-1.34383 9.25083,-1.18404 10.93495,-5.59828c0.463,-1.21355 0.71933,-2.49567 0.81979,-3.81923c0.2406,0.05289 0.48229,0.09826 0.72528,0.13444c3.62883,0.54039 7.03229,0.75145 10.71905,1.71286c3.37651,0.8805 6.15958,2.34884 9.62174,2.32808l1.666,0.61047c1.07162,0.42651 2.2186,0.63564 3.40542,0.58657c4.0792,-0.16866 7.4875,-3.34035 8.89701,-7.74328c1.85541,0.08042 3.78613,-0.0109 5.71916,-0.04722c1.04084,0.53923 2.06917,1.02047 3.02474,1.46851c1.69105,0.79286 7.28373,2.71541 9.21792,1.49394l3.99727,-0.16528c1.66383,-0.06879 3.21605,-0.63719 4.56655,-1.58497c1.23007,0.75203 2.43508,1.61356 3.7535,2.0199c2.54962,0.7858 5.22441,0.66076 7.82084,1.14492c4.26757,0.79577 8.52717,1.64423 12.78305,2.51627c1.44761,0.66825 2.89578,1.33393 4.40046,1.73746c1.0735,0.2879 2.1965,-0.19991 3.28911,-0.07241c4.16406,0.48588 8.13406,4.01945 12.53739,4.50546c2.06754,0.2282 4.14735,-0.09952 6.22065,-0.16435c0.99962,-0.03127 2.17221,0.56694 2.99795,-0.12396l2.99795,-0.12396c2.59196,-0.10717 4.91303,-1.42679 6.62258,-3.50431c21.2465,3.13549 42.65645,4.52885 64.00758,2.90228l0.82646,-1.13076c0.17738,0.00423 0.35581,0.00271 0.53514,-0.0047l0.18209,0.59573l2.74141,-1.26216c3.35378,-1.43397 5.86385,-5.0175 6.50753,-9.38604c4.42865,0.82614 8.21949,1.34736 9.16614,1.56276c5.59278,1.27261 11.05818,3.43304 16.68975,4.39234c4.50958,0.76819 9.09409,0.37765 13.63272,0.7729c13.17987,1.1478 26.4768,3.66211 39.70868,3.3658c2.44031,-0.05465 34.08107,-1.43112 35.19256,-1.44638c7.67377,-0.10536 15.35472,0.54471 23.02521,0.28714c10.9566,-0.36791 21.89891,-1.38031 32.86188,-1.36268c7.11978,0.01145 14.24514,0.64932 21.35935,0.36289l5.9959,-0.24791c5.51908,-0.2282 9.81001,-5.95358 9.58408,-12.788c-0.13037,-3.94363 -1.73619,-7.39481 -4.13166,-9.56495c19.05835,-0.24559 38.15097,0.32886 57.19055,-0.12503l4.62887,140.0201z" fill="#000000"/><path d="M-1.97756,390.9219l-14.16667,-152.05833l5.4633,-37.98613l41.20337,35.48613c0,0 -1.86082,27.84198 -2.73925,46.58907c-2.7819,59.37027 10.23925,107.96927 10.23925,107.96927z" fill="#1f0c05"/><path d="M22.1702,273.08563c-0.18142,3.40911 -17.38591,-14.24222 -17.38591,-17.22165c0,-2.97943 -1.95286,-28.52984 1.46107,-28.52984c1.26696,0 3.60462,1.59716 6.15868,3.75831c2.67169,9.98977 6.56497,19.88616 10.66168,29.5208c-0.33225,4.29136 -0.69436,8.69247 -0.89551,12.47239z" fill="#26180c"/><path d="M23.09526,241.91029c0.94891,1.25777 0.80691,6.68304 0.37179,13.21936c-2.84104,-6.8662 -5.49974,-13.85336 -7.58835,-20.89688c3.21628,3.0688 6.17542,6.29752 7.21656,7.67753z" fill="#26180c"/><path d="M18.41909,280.44372c2.78688,3.34596 -1.17712,37.59049 2.99774,62.00226c0.73405,4.29224 -18.67714,5.44983 -17.59049,1.23304c2.94117,-11.41338 -0.05439,-79.33307 2.88461,-76.11991c3.76632,4.11764 9.06109,9.70652 11.70815,12.88461z" fill="#26180c"/><g><path d="M442.40617,385.9219c0,0 13.02115,-48.59899 10.23925,-107.96926c-0.87843,-18.74709 -2.73925,-46.58907 -2.73925,-46.58907l41.20337,-35.48613l5.4633,37.98613l-14.16667,152.05834z" data-paper-data="{&quot;index&quot;:null}" fill="#1f0c05"/><path d="M457.36291,255.61323c4.0967,-9.63463 7.98999,-19.53102 10.66168,-29.52079c2.55406,-2.16115 4.89172,-3.75831 6.15867,-3.75831c3.41393,0 1.46107,25.55041 1.46107,28.52984c0,2.97943 -17.20449,20.63075 -17.38591,17.22165c-0.20115,-3.77992 -0.56326,-8.18103 -0.89551,-12.47239z" data-paper-data="{&quot;index&quot;:null}" fill="#26180c"/><path d="M464.54992,229.23276c-2.08861,7.04352 -4.74731,14.03069 -7.58835,20.89688c-0.43512,-6.53632 -0.57712,-11.96159 0.37179,-13.21936c1.04114,-1.38001 4.00029,-4.60872 7.21656,-7.67753z" data-paper-data="{&quot;index&quot;:null}" fill="#26180c"/><path d="M473.71764,262.55912c2.93901,-3.21316 -0.05656,64.70653 2.88461,76.11991c1.08665,4.21679 -18.32454,3.0592 -17.59049,-1.23304c4.17485,-24.41177 0.21085,-58.6563 2.99773,-62.00226c2.64706,-3.17809 7.94183,-8.76697 11.70815,-12.88461z" data-paper-data="{&quot;index&quot;:null}" fill="#26180c"/></g></g><g><path d="M494.49761,-66.97795l-16.78985,165.10809c-19.035,-0.61699 -28.37275,0.04608 -47.4283,-0.36279c1.72001,-1.53159 13.55091,-1.12602 14.53605,-12.88813c0.39747,-4.74556 -8.98327,-13.4993 -9.12016,-22.02608c0.28448,-6.83223 -3.95724,-12.59416 -9.47417,-12.86964l-5.99355,-0.29928c-7.11149,-0.34738 -14.24206,0.22942 -21.36167,0.17987c-10.96272,-0.0763 -21.89594,-1.18241 -32.84899,-1.64418c-7.668,-0.32328 -15.35424,0.26096 -23.02683,0.08986c-1.11131,-0.02477 -32.73912,-1.67228 -35.17888,-1.74784c-13.22886,-0.40966 -26.54685,1.99063 -39.73606,3.02548c-4.54185,0.35635 -9.12285,-0.07346 -13.63884,0.65606c-5.63959,0.91101 -11.12329,3.02455 -16.72678,4.2492c-0.94845,0.20728 -4.74363,0.696 -9.17918,1.48417c-0.60622,-4.37389 -3.08551,-7.9788 -6.42688,-9.44145l-2.73049,-1.2856l-0.18718,0.59414c-0.17926,-0.00895 -0.35766,-0.01199 -0.53507,-0.00928l-0.81674,-1.1378c-21.33641,-1.80944 -42.75751,-0.59957 -64.03009,2.35377c-1.69169,-2.0921 -4.00136,-3.43154 -6.59231,-3.56092l-2.99678,-0.14964c-0.81979,-0.69794 -1.99747,-0.10981 -2.99679,-0.14964c-2.07267,-0.08259 -4.14959,-0.42811 -6.219,-0.21764c-4.40733,0.44827 -8.40746,3.94769 -12.57554,4.39787c-1.09365,0.11814 -2.21244,-0.37928 -3.28837,-0.10059c-1.50808,0.39063 -2.9619,1.04387 -4.41518,1.69969c-4.26319,0.83555 -8.5299,1.64747 -12.80414,2.40666c-2.60049,0.46189 -5.27411,0.31396 -7.83037,1.07787c-1.32184,0.39504 -2.5342,1.24621 -3.77067,1.98768c-1.34234,-0.95932 -2.88962,-1.541 -4.5528,-1.62404l-3.99571,-0.19952c-1.92365,-1.23801 -7.5326,0.63657 -9.23039,1.41491c-0.95937,0.43984 -1.99178,0.91224 -3.0372,1.44253c-1.93265,-0.05288 -3.86251,-0.16074 -5.71855,-0.09622c-1.37174,-4.41484 -4.75275,-7.61562 -8.83035,-7.81923c-1.18635,-0.05924 -2.33508,0.14006 -3.41031,0.55738l-1.67117,0.59618c-3.46185,-0.05043 -6.2574,1.39402 -9.64133,2.24556c-3.69486,0.92978 -7.10001,1.11168 -10.73334,1.62096c-0.24329,0.0341 -0.48535,0.07739 -0.7264,0.12822c-0.08911,-1.32438 -0.33444,-2.60863 -0.78704,-3.82611c-1.64625,-4.42851 -7.10344,-4.31547 -10.88658,-5.69176c-3.10096,-1.12812 -7.49893,0.34816 -10.48107,1.08644c-2.66164,0.65892 -6.60969,1.56603 -9.09854,2.91542c-2.51249,1.36221 -4.7935,3.9261 -7.36867,5.09689l6.00224,-144.15154z" data-paper-data="{&quot;index&quot;:null}" fill="#000000"/><path d="M41.12371,-99.22688c0,0 -13.43705,48.48566 -11.16392,107.87758c0.71777,18.75393 2.33999,46.61083 2.33999,46.61083l-41.50588,35.13181l-5.13764,-38.03154l15.46893,-151.93137z" data-paper-data="{&quot;index&quot;:null}" fill="#1f0c05"/><path d="M24.26249,18.46925c0.16877,3.7815 0.49314,8.18555 0.78861,12.47961c-4.1791,9.59919 -8.15703,19.46186 -10.9142,29.42838c-2.57249,2.13918 -4.92374,3.71626 -6.19065,3.7054c-3.4138,-0.02925 -1.2421,-25.56199 -1.21658,-28.54131c0.02552,-2.97932 17.38061,-20.4826 17.53282,-17.07206z" data-paper-data="{&quot;index&quot;:null}" fill="#26180c"/><path d="M24.9204,49.65138c-1.05293,1.37104 -4.03963,4.57429 -7.28207,7.61543c2.14888,-7.02536 4.86734,-13.98949 7.76711,-20.8311c0.37909,6.53981 0.47462,11.96609 -0.48503,13.21568z" data-paper-data="{&quot;index&quot;:null}" fill="#26180c"/><path d="M20.57458,11.07929c-2.67419,3.1553 -8.01665,8.6986 -11.8181,12.78382c-2.96641,3.18785 0.61094,-64.70367 -2.23233,-76.14183c-1.05048,-4.22594 18.35008,-2.90209 17.57929,1.38371c-4.38386,24.37511 -0.71341,58.65235 -3.52885,61.97431z" data-paper-data="{&quot;index&quot;:null}" fill="#26180c"/><path d="M486.15877,-90.50372l2.35287,152.17415l-5.78856,37.93793l-40.89782,-35.83784c0,0 2.09928,-27.82501 3.13831,-46.56388c3.29046,-59.34425 -9.31384,-108.05302 -9.31384,-108.05302z" data-paper-data="{&quot;index&quot;:null}" fill="#1f0c05"/><path d="M450.49181,27.12137c0.21062,-3.40742 17.26326,14.39065 17.23773,17.36997c-0.02552,2.97932 1.70835,28.54554 -1.70546,28.51629c-1.26691,-0.01086 -3.5908,-1.62799 -6.12624,-3.81094c-2.586,-10.01229 -6.39436,-19.94167 -10.40836,-29.61104c0.36901,-4.28835 0.76881,-8.6862 1.00234,-12.46426z" data-paper-data="{&quot;index&quot;:null}" fill="#26180c"/><path d="M456.4502,66.02671c-3.18986,-3.09626 -6.12123,-6.35019 -7.15051,-7.73908c-0.93809,-1.26586 -0.74962,-6.6897 -0.25852,-13.22205c2.78211,6.89028 5.38085,13.89997 7.40903,20.96113z" data-paper-data="{&quot;index&quot;:null}" fill="#26180c"/><path d="M454.30578,19.79567c-2.75811,-3.36972 1.49913,-37.57901 -2.46641,-62.02566c-0.69725,-4.29837 18.72315,-5.28962 17.60041,-1.0823c-3.03886,11.38776 -0.62531,79.33063 -3.53668,76.09241c-3.7309,-4.14975 -8.9776,-9.7838 -11.59733,-12.98444z" data-paper-data="{&quot;index&quot;:null}" fill="#26180c"/></g></g></g></svg>