<svg version="1.1" xmlns="http://www.w3.org/2000/svg" xmlns:xlink="http://www.w3.org/1999/xlink" width="40.75" height="40.75" viewBox="0,0,40.75,40.75"><g transform="translate(-219.625,-159.625)"><g data-paper-data="{&quot;isPaintingLayer&quot;:true}" fill-rule="nonzero" stroke-linejoin="miter" stroke-miterlimit="10" stroke-dasharray="" stroke-dashoffset="0" style="mix-blend-mode: normal"><path d="M219.625,180c0,-11.2528 9.1222,-20.375 20.375,-20.375c11.2528,0 20.375,9.1222 20.375,20.375c0,11.2528 -9.1222,20.375 -20.375,20.375c-11.2528,0 -20.375,-9.1222 -20.375,-20.375z" fill="#000000" stroke="#727272" stroke-width="0" stroke-linecap="butt"/><path d="M232.78916,175.7002c0,0 1.29445,-3.46811 6.15162,-4.01073c5.59101,-0.62459 8.12434,4.084 8.12434,4.084" fill="none" stroke="#ffffff" stroke-width="2" stroke-linecap="round"/><path d="M249.9999,174.75763c0,0 0.39799,1.28925 -0.29175,3.32099c-0.58995,1.73774 -1.50328,3.15803 -1.50328,3.15803c0,0 -0.43373,-1.15826 -1.72662,-2.45978c-1.63606,-1.64701 -2.70129,-2.2826 -2.70129,-2.2826z" fill="#ffffff" stroke="none" stroke-width="0" stroke-linecap="butt"/><path d="M247.21091,184.29979c0,0 -1.29445,3.46812 -6.15162,4.01073c-5.59101,0.62459 -8.12434,-4.084 -8.12434,-4.084" fill="none" stroke="#ffffff" stroke-width="2" stroke-linecap="round"/><path d="M230.00015,185.24234c0,0 -0.39799,-1.28924 0.29175,-3.32099c0.58995,-1.73774 1.50328,-3.15803 1.50328,-3.15803c0,0 0.43373,1.15826 1.72662,2.45978c1.63606,1.64701 2.70129,2.2826 2.70129,2.2826z" fill="#ffffff" stroke="none" stroke-width="0" stroke-linecap="butt"/></g></g></svg>