<svg version="1.1" xmlns="http://www.w3.org/2000/svg" xmlns:xlink="http://www.w3.org/1999/xlink" width="34.17311" height="34.17311" viewBox="0,0,34.17311,34.17311"><g transform="translate(-222.91345,-162.91345)"><g data-paper-data="{&quot;isPaintingLayer&quot;:true}" stroke-miterlimit="10" stroke-dasharray="" stroke-dashoffset="0" style="mix-blend-mode: normal"><path d="M229.98312,162.91346h20.03379c3.9166,0 7.06966,3.15307 7.06966,7.06966v20.03379c0,3.91659 -3.15306,7.06966 -7.06966,7.06966h-20.03379c-3.91659,0 -7.06966,-3.15307 -7.06966,-7.06966v-20.03379c0,-3.91659 3.15307,-7.06966 7.06966,-7.06966z" fill="#000000" fill-rule="evenodd" stroke="none" stroke-width="4.43922" stroke-linecap="round" stroke-linejoin="round"/><g fill="#000000" fill-rule="nonzero" stroke-width="0" stroke-linecap="butt" stroke-linejoin="miter"><path d="M239.00513,178.63663l2.39964,-11.06567c0,0 2.57064,-1.37465 5.8517,-0.52617c3.84152,0.99341 4.71065,2.55093 4.71065,2.55093c0,0 -1.12371,2.73924 -2.3556,7.18804c-0.45239,1.63375 -1.89524,4.32654 -1.89524,4.32654c0,0 -1.37325,-0.10474 -4.20624,-0.75994c-1.51582,-0.35057 -4.50491,-1.71373 -4.50491,-1.71373z" stroke="none"/><path d="M229.17621,179.63825c0,0 2.74248,-0.5943 4.06845,-0.34835c2.43175,0.45107 4.5745,-2.13538 4.5745,-2.13538l10.75361,2.94362c0,0 -2.95079,6.91262 -6.69405,10.36859c-3.41038,3.14864 -5.72109,4.49657 -5.72109,4.49657c0,0 -4.27491,-3.85668 -6.26623,-8.61605c-0.94001,-2.24667 -0.71517,-6.70899 -0.71517,-6.70899z" stroke="none"/><path d="M245.78706,170.76763c2.06641,0.44811 3.38633,2.44943 2.94814,4.47008c-0.43819,2.02066 -2.52126,3.1894 -4.58766,2.74129c-2.06641,-0.44811 -3.44409,-2.36733 -3.0059,-4.38799c0.43819,-2.02065 2.57901,-3.2715 4.64542,-2.82339z" stroke-opacity="0.65323" stroke="#000000"/></g><g fill-rule="nonzero" stroke-width="0" stroke-linecap="butt" stroke-linejoin="miter"><path d="M238.44525,177.77088l2.39964,-11.06567c0,0 2.57064,-1.37465 5.8517,-0.52617c3.84152,0.99341 4.71065,2.55093 4.71065,2.55093c0,0 -1.12371,2.73925 -2.3556,7.18805c-0.45239,1.63375 -1.89524,4.32653 -1.89524,4.32653c0,0 -1.37325,-0.10474 -4.20624,-0.75994c-1.51582,-0.35057 -4.50491,-1.71373 -4.50491,-1.71373z" fill="#59220f" stroke="none"/><path d="M228.61633,178.77249c0,0 2.74248,-0.5943 4.06845,-0.34834c2.43175,0.45107 4.57449,-2.13539 4.57449,-2.13539l10.75361,2.94362c0,0 -2.95079,6.91262 -6.69405,10.36859c-3.41038,3.14864 -5.72109,4.49657 -5.72109,4.49657c0,0 -4.27492,-3.85667 -6.26624,-8.61604c-0.94001,-2.24667 -0.71517,-6.709 -0.71517,-6.709z" fill="#000000" stroke="none"/><path d="M245.22718,169.90187c2.06641,0.44811 3.38634,2.44943 2.94815,4.47009c-0.43819,2.02066 -2.52126,3.1894 -4.58766,2.74129c-2.06641,-0.44811 -3.44409,-2.36733 -3.0059,-4.38799c0.43819,-2.02065 2.57901,-3.2715 4.64542,-2.82339z" fill="#000000" stroke-opacity="0.65323" stroke="#000000"/></g></g></g></svg>