<svg version="1.1" xmlns="http://www.w3.org/2000/svg" xmlns:xlink="http://www.w3.org/1999/xlink" width="720" height="540" viewBox="0,0,720,540"><defs><clipPath id="clip-1"><rect x="-240" y="-180" transform="scale(0.5,0.5)" width="1440" height="1080" fill="none" fill-rule="nonzero" stroke="none" stroke-width="0.5" stroke-linecap="butt" stroke-linejoin="miter"/></clipPath></defs><g transform="translate(120,90)"><g clip-path="url(#clip-1)" data-paper-data="{&quot;isPaintingLayer&quot;:true}" stroke-miterlimit="10" stroke-dasharray="" stroke-dashoffset="0" style="mix-blend-mode: normal"><path d="M267.96064,149.61527c2.34298,-8.5988 27.36939,-8.60767 41.22929,-4.83115c13.85991,3.77652 19.06158,12.02188 16.71859,20.62068c-2.34298,8.5988 -12.60995,13.28952 -26.46986,9.513c-13.85991,-3.77652 -33.82101,-16.70372 -31.47803,-25.30252z" fill="#000000" fill-rule="nonzero" stroke="none" stroke-width="0" stroke-linecap="butt" stroke-linejoin="miter"/><g fill-rule="nonzero" stroke-linecap="butt" stroke-linejoin="miter"><path d="" fill="#000000" stroke="#060000" stroke-width="3.5"/><path d="" fill="#ffffff" stroke="#000000" stroke-width="0"/><path d="" fill="#060000" stroke="none" stroke-width="1.5"/><path d="" fill="#060000" stroke="#000000" stroke-width="0"/><path d="" fill="#060000" stroke="none" stroke-width="1.5"/><path d="" fill="#060000" stroke="#000000" stroke-width="0"/><path d="" data-paper-data="{&quot;index&quot;:null}" fill="#000000" stroke="none" stroke-width="1.5"/></g><path d="" fill="#000000" fill-rule="evenodd" stroke="none" stroke-width="0.129" stroke-linecap="round" stroke-linejoin="round"/><g fill-rule="evenodd" stroke="none" stroke-width="0.1" stroke-linecap="round" stroke-linejoin="round"><path d="" fill="#000000"/><path d="" fill="#ffffff"/></g><g fill-rule="evenodd" stroke="none" stroke-width="0.1" stroke-linecap="round" stroke-linejoin="miter"><path d="" fill="#000000"/><path d="" fill="#ffffff"/><path d="" fill="#ffffff"/></g><path d="" fill="#000000" fill-rule="evenodd" stroke="none" stroke-width="0.129" stroke-linecap="round" stroke-linejoin="round"/><g fill-rule="evenodd" stroke="none" stroke-width="0.1" stroke-linecap="round" stroke-linejoin="miter"><path d="" fill="#ffffff"/><path d="" fill="#000000"/><path d="" fill="#000000"/></g><g fill-rule="evenodd" stroke="none" stroke-width="0.1" stroke-linecap="round" stroke-linejoin="round"><path d="" fill="#000000"/><path d="" fill="#ffffff"/></g><g fill-rule="evenodd" stroke="none" stroke-width="0.1" stroke-linecap="round" stroke-linejoin="round"><path d="" fill="#000000"/><path d="" fill="#ffffff"/></g><g fill-rule="evenodd" stroke="none" stroke-linecap="round" stroke-linejoin="round"><g stroke-width="0.1"><path d="" fill="#000000"/><path d="" fill="#ffffff"/></g><path d="" fill="#000000" stroke-width="0.129"/><g stroke-width="0.1"><path d="" fill="#000000"/><path d="" fill="#ffffff"/></g><path d="" fill="#000000" stroke-width="0.129"/><g stroke-width="0.1"><path d="" fill="#000000"/><path d="" fill="#ffffff"/></g><g stroke-width="0.1"><path d="" fill="#000000"/><path d="" fill="#ffffff"/></g></g><path d="" fill="#000000" fill-rule="evenodd" stroke="none" stroke-width="0.129" stroke-linecap="round" stroke-linejoin="round"/><path d="" fill="#000000" fill-rule="evenodd" stroke="none" stroke-width="0.129" stroke-linecap="round" stroke-linejoin="round"/><path d="M183.33337,305.4167v-250.83333h113.33333v250.83333z" fill="#481310" fill-rule="nonzero" stroke="none" stroke-width="0" stroke-linecap="butt" stroke-linejoin="miter"/><path d="M260.35375,294.81812l0.23284,-227.69784l27.7771,0.45215l0.50957,225.72115z" fill="#000000" fill-rule="nonzero" stroke="none" stroke-width="0" stroke-linecap="butt" stroke-linejoin="miter"/><path d="M192.31452,292.9167v-225.83333h95.37098v225.83333z" fill="none" fill-rule="nonzero" stroke-opacity="0.52419" stroke="#000000" stroke-width="8.5" stroke-linecap="butt" stroke-linejoin="miter"/><path d="M192.31452,292.9167v-225.83333h95.37098v225.83333z" fill="none" fill-rule="nonzero" stroke-opacity="0.52419" stroke="#000000" stroke-width="2.5" stroke-linecap="butt" stroke-linejoin="miter"/><path d="M183.33337,54.58337h113.33333v73.66434c-10.05316,-0.1328 -13.03889,-30.42281 -22.46275,-33.27482c-3.99941,-1.21037 -21.49264,-18.70862 -25.54709,-19.72196c-17.11161,-3.69797 -25.47332,3.02114 -42.58456,-0.67858c-6.8647,-1.48408 -15.83748,28.37442 -22.73892,27.03732z" fill-opacity="0.20968" fill="#000000" fill-rule="nonzero" stroke="none" stroke-width="0" stroke-linecap="butt" stroke-linejoin="miter"/><path d="M239.55839,137.54417c-17.1056,3.37436 -34.47221,5.95618 -51.77131,8.11857c-1.48799,0.186 -2.97227,0.36081 -4.45371,0.5248v-42.03176c6.72479,1.30542 13.43785,2.66357 20.12726,4.11009c17.09826,3.69691 34.19657,7.39357 51.29569,11.08652c3.9963,0.99935 8.09721,1.81693 12.0398,3.0081c7.21652,2.18031 14.46299,5.62993 21.95496,7.34709c-16.54343,2.10121 -32.80529,4.60392 -49.19269,7.83659z" fill-opacity="0.20968" fill="#000000" fill-rule="nonzero" stroke="none" stroke-width="0" stroke-linecap="butt" stroke-linejoin="miter"/><path d="M183.33337,305.4167v-87.29171c6.09583,2.67876 11.79156,50.46668 18.25601,51.79289c6.97632,1.43122 28.45134,5.32274 35.40809,6.84765c16.53233,3.62387 20.98033,-6.62417 37.61533,-3.50511c7.77825,1.45842 14.29161,-32.0074 22.0539,-30.46676v62.62305z" fill-opacity="0.20968" fill="#000000" fill-rule="nonzero" stroke="none" stroke-width="0" stroke-linecap="butt" stroke-linejoin="miter"/><path d="M208.72344,208.51228c16.93659,-4.3697 33.22083,-10.45693 50.00086,-15.27335c12.65121,-3.63131 25.15554,-7.07532 37.9424,-9.78945v56.79555c-7.60877,-1.50987 -15.21882,-3.01223 -22.84318,-4.4418c-16.61007,-3.11439 -33.11653,-6.6113 -49.6241,-10.22974c-6.96771,-1.52731 -13.87027,-3.33779 -20.85762,-4.77128c-6.38209,-1.30931 -13.36939,-2.36423 -19.34677,-5.11121c8.22546,-2.44959 16.4875,-4.78442 24.72841,-7.17873z" fill-opacity="0.20968" fill="#000000" fill-rule="nonzero" stroke="none" stroke-width="0" stroke-linecap="butt" stroke-linejoin="miter"/><path d="M260.10805,192.45732c0,0 3.06398,-6.48821 5.66756,-6.61268c7.27933,-0.34802 12.98629,-0.5027 12.98629,-0.5027" fill="none" fill-rule="nonzero" stroke-opacity="0.33609" stroke="#000000" stroke-width="5.5" stroke-linecap="round" stroke-linejoin="miter"/><g fill-rule="nonzero" stroke-linecap="butt" stroke-linejoin="miter"><path d="M202.57396,109.87137v-25.37816h50.8346v26.09244z" fill="none" stroke-opacity="0.46774" stroke="#000000" stroke-width="1.5"/><path d="M202.57396,110.34756v-28.2353h50.8346v28.2353c0,0 -2.32316,0 -5.00575,0c-0.85562,0 -1.74779,0 -2.61282,0c-8.51961,0 -43.21602,0 -43.21602,0z" fill="#000000" stroke="none" stroke-width="0"/><path d="M201.04982,96.22992l1.52414,-14.11765h50.8346l1.52414,14.11765z" fill="#8d6e47" stroke="none" stroke-width="0"/></g><g data-paper-data="{&quot;index&quot;:null}" fill-rule="nonzero" stroke-linecap="butt" stroke-linejoin="miter"><path d="M202.57396,149.03804v-25.37815h50.8346v26.09244z" fill="none" stroke-opacity="0.46774" stroke="#000000" stroke-width="1.5"/><path d="M202.57396,149.51423v-28.2353h50.8346v28.2353c0,0 -2.32316,0 -5.00575,0c-0.85562,0 -1.74779,0 -2.61282,0c-8.51961,0 -43.21602,0 -43.21602,0z" fill="#000000" stroke="none" stroke-width="0"/><path d="M201.04982,135.39658l1.52414,-14.11765h50.8346l1.52414,14.11765z" fill="#8d6e47" stroke="none" stroke-width="0"/></g><g fill-rule="nonzero" stroke="none" stroke-width="0" stroke-linecap="butt" stroke-linejoin="miter"><g data-paper-data="{&quot;index&quot;:null}"><path d="M275.55566,289.6851c0,0 3.46754,4.21492 -0.71036,8.35985c-3.68275,3.65369 -9.34368,-0.84262 -9.34368,-0.84262l-84.33959,-112.80146l10.05405,-7.51722z" fill="#221c1b"/><path d="M208.21448,187.10036c0,0 -8.29145,-1.59645 -14.92391,-0.55957c-4.11941,0.64401 -11.13629,2.97207 -11.13629,2.97207l-2.11299,-9.50168c0,0 2.99847,-7.34355 6.54441,-10.75389c5.35643,-5.15161 7.20607,-18.06327 7.20607,-18.06327c0,0 8.46027,9.51893 12.50028,19.17111c2.22212,5.30897 1.92243,16.73522 1.92243,16.73522z" fill="#59220f"/><path d="M208.21448,187.10036c0,0 -4.1506,-0.79916 -8.92757,-0.8994c-0.1147,-2.06713 -0.20488,-4.13292 -0.22515,-6.19652c-1.0162,-6.87 -0.1756,-18.77554 -6.45108,-23.20259c0.83257,-3.17498 1.18108,-5.60783 1.18108,-5.60783c0,0 8.46027,9.51893 12.50028,19.17112c2.22212,5.30897 1.92243,16.73521 1.92243,16.73521z" fill="#773128"/><path d="M191.46004,185.71508c-3.16292,0.62758 -6.72082,0.87042 -7.81954,0.63583c-2.04528,-0.43669 -2.82317,-5.45307 -2.3277,-7.77367c0.27353,-1.28113 3.39398,-2.99718 6.25734,-7.85367c2.34631,-0.35511 4.70708,-0.65125 7.07538,-0.89356c-0.86381,5.34624 -1.82269,10.66872 -3.18547,15.88508z" fill="#6d4321"/><path d="M193.36976,159.68891c0.72603,0.15501 1.70541,2.35597 2.5757,5.43656c-0.12946,0.83031 -0.25885,1.66066 -0.38936,2.49077c-2.04551,0.20079 -4.08603,0.44062 -6.11728,0.72254c1.74176,-3.95268 3.19922,-8.8061 3.93094,-8.64987z" fill="#6d4321"/><path d="M197.43468,183.63406c-0.20018,0.67203 -1.26398,1.25181 -2.71626,1.72391c1.09876,-4.44546 1.92883,-8.96011 2.67631,-13.49541c0.67944,4.37456 0.88766,8.92559 0.03995,11.7715z" fill="#6d4321"/></g><path d="M197.33484,191.14977c0,1.74429 60.49055,79.31206 58.63725,79.31206c-1.8533,0 -67.59675,-80.10163 -65.74345,-80.10163c1.8533,0 7.1062,-0.95471 7.1062,0.78958z" fill="#4a3e3d"/></g><path d="M251.81888,183.00769c1.27123,3.81015 -0.83523,7.94551 -4.7049,9.2366c-3.86968,1.2911 -8.03721,-0.75099 -9.30844,-4.56114c-1.27123,-3.81015 0.83523,-7.94551 4.7049,-9.23661c3.86968,-1.2911 8.03721,0.751 9.30844,4.56115z" fill="#000000" fill-rule="nonzero" stroke="none" stroke-width="0" stroke-linecap="butt" stroke-linejoin="miter"/><path d="M244.45739,185.51548c0,0 0.853,-7.12441 3.28336,-8.0665c6.79499,-2.63398 12.15963,-4.58692 12.15963,-4.58692" fill="none" fill-rule="nonzero" stroke="#6d4321" stroke-width="8" stroke-linecap="round" stroke-linejoin="miter"/><g fill-rule="nonzero" stroke="none" stroke-width="0" stroke-linecap="butt" stroke-linejoin="miter"><path d="M211.69579,172.97983c0,0 -2.513,-0.94153 -3.64794,-1.58282c-6.44878,-3.64381 -10.17996,-10.76534 -9.46628,-18.0823c0.12303,-1.26139 0.77424,-3.78478 0.77424,-3.78478c0,0 1.0619,6.82897 4.56988,13.52268c1.8844,3.59571 7.7701,9.92722 7.7701,9.92722z" fill="#000000"/><path d="M211.6958,172.97983l-4.19679,14.33376c0,0 -0.22348,-9.12266 -2.42946,-14.20218c-0.91987,-2.1181 -4.58,-4.10668 -5.04222,-4.75639c-0.72584,-1.02026 -0.52531,-5.22735 -1.26926,-7.34139c-1.64814,-4.68338 -5.26601,-9.93892 -5.26601,-9.93892c0,0 5.04975,2.64778 5.08952,2.24001c0.12303,-1.26139 0.77423,-3.78479 0.77423,-3.78479c0,0 2.13786,3.0888 5.65608,7.33836c1.03744,1.2531 0.2469,2.32882 1.04576,3.85315c0.63404,1.20983 3.09915,3.19471 3.36987,5.05939c0.53385,3.67727 2.26828,7.19902 2.26828,7.19902z" fill-opacity="0.37903" fill="#000000"/></g><g data-paper-data="{&quot;index&quot;:null}" fill-rule="nonzero" stroke="none" stroke-width="0" stroke-linecap="butt" stroke-linejoin="miter"><path d="M239.94062,200.90118c7.5572,-0.02402 14.09166,-2.27417 14.09166,-2.27417c0,0 -1.9272,1.75426 -2.98514,2.45213c-6.13678,4.04811 -14.17649,4.07456 -20.41016,0.07386c-1.09708,-0.70409 -3.10322,-2.48654 -3.10322,-2.48654c0,0 8.34731,2.24762 12.40686,2.23472z" fill="#000000"/><path d="M234.95883,197.31025c1.77527,-0.63143 4.68163,0.62142 6.04753,0.61708c1.72097,-0.00547 2.30299,-1.20687 3.89554,-0.87471c5.40072,1.12645 9.13038,1.57439 9.13038,1.57439c0,0 -1.92721,1.75426 -2.98514,2.45213c-3.80569,2.51041 -7.40718,1.57402 -11.79196,0.98982c-2.6858,-0.35783 -6.25031,0.60373 -8.61821,-0.91597c-1.09708,-0.7041 -3.10322,-2.48654 -3.10322,-2.48654c0,0 3.92412,-0.11098 7.42506,-1.35621z" fill-opacity="0.37903" fill="#000000"/></g><g data-paper-data="{&quot;index&quot;:null}" fill-rule="nonzero" stroke="none" stroke-width="0" stroke-linecap="butt" stroke-linejoin="miter"><path d="M269.72794,88.76819c-2.79998,-3.13806 -6.14939,-5.0284 -6.14939,-5.0284c0,0 1.442,0.15487 2.12317,0.33778c3.95128,1.06096 6.93041,4.39906 7.56581,8.47184c0.11183,0.71679 0.11022,2.21021 0.11022,2.21021c0,0 -2.14573,-4.30574 -3.64981,-5.99143z" fill="#000000"/><path d="M270.07183,92.1684c-0.91834,-0.50614 -1.46961,-2.17893 -1.97568,-2.7461c-0.63763,-0.71462 -1.35277,-0.51344 -1.8024,-1.29923c-1.52477,-2.66481 -2.71518,-4.38327 -2.71518,-4.38327c0,0 1.44199,0.15488 2.12317,0.33778c2.45036,0.65795 3.39004,2.50337 4.76556,4.54493c0.84254,1.25051 2.5589,2.37984 2.80026,3.92691c0.11183,0.71679 0.11022,2.21022 0.11022,2.21022c0,0 -1.49493,-1.59309 -3.30595,-2.59123z" fill-opacity="0.37903" fill="#000000"/></g><g data-paper-data="{&quot;index&quot;:null}" fill-rule="nonzero" stroke="none" stroke-width="0" stroke-linecap="butt" stroke-linejoin="miter"><path d="M272.81982,130.53448c1.10051,-2.95566 1.1812,-5.83875 1.1812,-5.83875c0,0 0.40224,1.01049 0.51948,1.52625c0.68006,2.99179 -0.49036,6.1363 -2.96871,7.98385c-0.43617,0.32516 -1.42709,0.84705 -1.42709,0.84705c0,0 2.10395,-2.93068 2.69512,-4.5184z" fill="#000000"/><path d="M270.68541,131.95318c0.01407,-0.78623 0.93033,-1.73756 1.12923,-2.27178c0.25062,-0.67308 -0.13322,-1.07688 0.23043,-1.65021c1.23322,-1.94429 1.95596,-3.33546 1.95596,-3.33546c0,0 0.40224,1.01048 0.51948,1.52625c0.42174,1.85534 -0.47299,3.1247 -1.34517,4.75177c-0.53423,0.99662 -0.68212,2.53028 -1.62354,3.23208c-0.43617,0.32516 -1.4271,0.84705 -1.4271,0.84705c0,0 0.53297,-1.54921 0.5607,-3.0997z" fill-opacity="0.37903" fill="#000000"/></g><path d="" fill-opacity="0.37091" fill="#000000" fill-rule="nonzero" stroke="none" stroke-width="0" stroke-linecap="butt" stroke-linejoin="miter"/><path d="" fill="#ffffff" fill-rule="nonzero" stroke="none" stroke-width="0" stroke-linecap="butt" stroke-linejoin="miter"/><path d="" fill="#ffffff" fill-rule="nonzero" stroke="none" stroke-width="0" stroke-linecap="butt" stroke-linejoin="miter"/><path d="" fill="#ffffff" fill-rule="nonzero" stroke="none" stroke-width="0" stroke-linecap="butt" stroke-linejoin="miter"/><g fill-rule="nonzero" stroke="none" stroke-width="0" stroke-linecap="butt" stroke-linejoin="miter"><path d="M267.59191,384.24953c0,0 8.06794,-3.74967 10.07102,-4.60593c1.14628,-0.49 3.87574,-0.9936 5.51184,-0.7438c3.95558,0.60395 6.64404,2.65688 6.64404,2.65688c0,0 5.39476,-2.62233 8.81628,-1.80941c3.42152,0.81292 10.9821,6.84077 10.9821,6.84077c0,0 -1.17079,14.97826 -19.93409,14.55958c-21.46003,-0.47886 -22.09117,-16.89808 -22.09117,-16.89808z" fill="#000000"/><path d="M281.3859,380.96776c4.03109,-0.02175 4.78808,1.38851 8.69025,2.13568c1.61369,0.30897 5.74169,-2.19704 7.34738,-1.85816c1.85079,0.39062 7.91643,4.00539 7.91643,4.00539c0,0 -4.99133,0.25716 -9.36114,0.06715c-2.54447,-0.11063 -4.14208,-0.66492 -6.35202,-0.7437c-2.14548,-0.07648 -5.12805,-0.07672 -7.97344,-0.15906c-5.11887,-0.14809 -9.97173,-0.36421 -9.97173,-0.36421c0,0 7.10517,-3.0691 9.70429,-3.08312z" fill="#ffffff"/><path d="M278.53173,386.19609c2.79511,0.83049 7.34115,5.98863 11.13912,6.01884c6.49739,0.05166 6.39083,-4.79949 11.71737,-4.92229c3.24533,-0.14331 6.38844,-0.17603 6.38844,-0.17603c0,0 -1.49006,12.72166 -18.60467,12.15782c-19.44342,-1.28206 -19.46843,-13.57181 -19.46843,-13.57181c0,0 7.00248,-0.04896 8.82817,0.49348z" fill="#ffffff"/></g><g fill-rule="nonzero" stroke="none" stroke-width="0" stroke-linecap="butt" stroke-linejoin="miter"><path d="M289.04652,376.60388c-24.31572,-0.6068 -21.26194,-20.03405 -21.26194,-20.03405c0,0 2.56937,-0.77227 6.62109,-2.17056c2.68852,-0.92784 6.60846,-2.71006 8.76999,-2.6317c2.21803,0.08041 7.87488,2.12393 7.87488,2.12393c0,0 4.44269,-2.15008 7.37244,-1.54859c3.60754,0.74065 12.144,5.77795 12.144,5.77795c0,0 1.6934,19.06233 -21.52045,18.48303z" fill="#000000"/><path d="M289.24044,374.72973c-20.42602,0.04237 -19.00003,-16.22112 -19.00003,-16.22112c0,0 2.54668,-0.24383 6.32592,0.46719c4.48671,0.84412 5.05301,8.01477 12.67433,8.25231c8.80954,0.27458 8.6326,-6.5971 12.92122,-7.13648c3.41425,-0.42941 6.27248,-0.09663 6.27248,-0.09663c0,0 0.33189,14.69422 -19.19391,14.73472z" fill="#ffffff"/><path d="M272.76081,356.5052c0,0 2.22082,-0.59721 4.56969,-1.41126c2.03285,-0.70453 4.11294,-1.63637 5.52278,-1.69679c2.99217,-0.12824 7.93817,2.52642 7.93817,2.52642c0,0 5.00901,-2.0152 7.44048,-1.67664c2.6544,0.3696 7.682,3.42154 7.682,3.42154c0,0 -4.04463,0.45598 -8.59546,0.43627c-1.89723,-0.00822 -3.82672,-0.60366 -5.7443,-0.70366c-3.09648,-0.16147 -6.05802,0.13785 -8.02519,0.06882c-4.27957,-0.15016 -10.78817,-0.9647 -10.78817,-0.9647z" fill="#ffffff"/></g><g fill-rule="nonzero" stroke="none" stroke-width="0" stroke-linecap="butt" stroke-linejoin="miter"><path d="M259.20484,383.19538c0,0 3.3752,15.02 -19.51412,14.25422c-11.60311,-0.38819 -16.61339,-3.64566 -19.0842,-6.98153c-3.29142,-4.44377 -3.19213,-8.74899 -3.19213,-8.74899c0,0 3.19249,-1.2125 6.81393,-2.50197c2.62411,-0.93435 5.3996,-1.98086 7.7043,-2.29047c1.98712,-0.26694 7.42969,1.89603 9.46516,2.2649c1.5038,0.27252 3.07429,-1.96809 6.48529,-1.63456c2.01064,0.1966 4.18078,1.2533 6.07794,2.28316c2.95249,1.60273 5.24383,3.35524 5.24383,3.35524z" fill="#000000"/><path d="M240.80018,380.98863c0,0 3.55679,-2.03317 6.70605,-1.60853c4.94965,0.6674 8.03361,3.37354 8.03361,3.37354c0,0 -5.9083,0.3072 -9.93789,0.15811c-1.76868,-0.06544 -1.65485,-0.5106 -4.58001,-0.68106c-5.46426,-0.261 -6.26196,0.31829 -9.53396,0.20234c-4.81988,-0.1708 -9.16627,-0.90844 -9.16627,-0.90844c0,0 1.58204,-0.29885 3.20034,-0.89527c2.06604,-0.76143 4.43601,-1.86513 6.28822,-1.9123c3.67232,-0.09353 8.98991,2.27162 8.98991,2.27162z" fill="#ffffff"/><path d="M258.00175,384.37102c0,0 -0.34067,5.27432 -4.26656,7.56992c-6.12643,3.58234 -9.74758,3.06083 -12.78815,2.96127c-2.55669,-0.08371 -9.19848,0.46372 -15.63279,-3.43646c-5.58322,-3.3843 -5.42198,-8.35272 -5.42198,-8.35272c0,0 1.03687,0.10861 3.01761,0.16355c2.16742,0.06012 5.0927,0.10072 7.83923,0.95607c3.79114,1.18068 3.34666,4.20149 9.96086,4.58732c5.5479,0.32363 5.44601,-3.07576 8.6434,-4.05152c2.02093,-0.61674 8.64837,-0.39743 8.64837,-0.39743z" fill="#ffffff"/></g><g fill-rule="nonzero" stroke="none" stroke-width="0" stroke-linecap="butt" stroke-linejoin="miter"><path d="M239.41122,420.65379c-20.93115,-0.9924 -21.9654,-15.05078 -21.9654,-15.05078c0,0 3.19249,-1.2125 6.81393,-2.50197c2.62411,-0.93435 5.01093,-1.52771 7.31563,-1.83731c1.98712,-0.26694 7.81836,1.44287 9.85382,1.81174c1.5038,0.27252 3.38523,-1.74151 6.79623,-1.40798c2.01064,0.1966 3.48118,1.2533 5.37834,2.28316c2.95249,1.60273 6.40983,3.35524 6.40983,3.35524c0,0 -0.27046,3.9302 -4.01513,7.67657c-2.84416,2.84546 -8.0154,6.0671 -16.58726,5.67133z" fill="#000000"/><path d="M240.75389,404.87256c0,0 3.55679,-2.03317 6.70605,-1.60853c4.94965,0.6674 8.03361,3.37354 8.03361,3.37354c0,0 -9.63545,0.40163 -14.82825,0.2095c-5.81036,-0.21498 -18.38988,-1.43855 -18.38988,-1.43855c0,0 1.58204,-0.29885 3.20034,-0.89527c2.06604,-0.76143 4.43601,-1.86513 6.28822,-1.9123c3.67232,-0.09353 8.98991,2.27162 8.98991,2.27162z" fill="#ffffff"/><path d="M257.95547,408.25495c0,0 -0.80708,4.14143 -4.73296,6.43703c-6.12643,3.58234 -9.59211,3.13635 -12.63268,3.0368c-2.55669,-0.08371 -8.18795,0.6903 -14.62225,-3.20989c-5.58322,-3.3843 -6.12158,-7.52194 -6.12158,-7.52194c0,0 1.03687,0.10861 3.01761,0.16355c2.16742,0.06012 7.19151,-0.05034 9.93804,0.80501c3.79114,1.18068 5.5232,2.76649 7.93979,2.92575c2.43855,0.32363 4.59094,-1.33866 7.78833,-2.31442c2.02093,-0.61674 9.42571,-0.3219 9.42571,-0.3219z" fill="#ffffff"/></g><g fill-rule="nonzero" stroke="none" stroke-width="0" stroke-linecap="butt" stroke-linejoin="miter"><path d="M263.47688,357.48398c0,0 2.54681,17.69685 -20.64001,16.87242c-11.75392,-0.41792 -16.93835,-4.90617 -19.44128,-8.49754c-3.3342,-4.78412 -3.01556,-9.74618 -3.01556,-9.74618c0,0 3.56108,-1.0873 7.22959,-2.47554c2.65822,-1.00591 5.14269,-2.35064 7.47734,-2.68397c2.01295,-0.28739 7.52626,2.04125 9.58818,2.43837c1.52334,0.29339 3.11425,-2.11883 6.56958,-1.75975c2.03677,0.21166 4.23512,1.34929 6.15694,2.45803c2.99086,1.72549 6.07521,3.39416 6.07521,3.39416z" fill="#000000"/><path d="M250.863,353.59454c5.01398,0.71852 8.13803,3.63193 8.13803,3.63193c0,0 -5.98509,0.33073 -10.06706,0.17022c-1.79167,-0.07045 -1.67636,-0.54971 -4.63954,-0.73322c-5.53528,-0.28099 -6.34335,0.34267 -9.65788,0.21784c-4.88253,-0.18388 -9.28541,-0.97802 -9.28541,-0.97802c0,0 1.6026,-0.32174 3.24194,-0.96384c2.09289,-0.81975 4.49367,-2.00798 6.36995,-2.05876c3.72005,-0.10069 9.86998,2.55464 9.86998,2.55464c0,0 2.83979,-2.29794 6.02999,-1.84077z" fill="#ffffff"/><path d="M261.49493,358.96773c0,0 -1.10832,7.31377 -5.08524,9.78519c-6.20606,3.85672 -9.11105,3.4043 -12.19114,3.29711c-2.58992,-0.09012 -9.09997,0.39021 -15.61791,-3.80869c-5.65579,-3.64351 -5.71052,-10.62795 -5.71052,-10.62795c0,0 1.05035,0.11693 3.05683,0.17608c2.19559,0.06473 3.19632,-0.21866 5.97854,0.7022c3.84042,1.27111 5.13467,5.61361 11.83484,6.02899c5.62001,0.34842 6.93421,-4.07456 10.17316,-5.12506c2.0472,-0.66398 7.56143,-0.42787 7.56143,-0.42787z" fill="#ffffff"/></g><g fill-rule="nonzero" stroke="none" stroke-width="0" stroke-linecap="butt" stroke-linejoin="miter"><path d="M171.21695,352.32962c0,0 9.02261,-2.10259 11.02569,-2.87341c1.14628,-0.4411 3.9553,-0.33757 5.59138,-0.11268c3.95558,0.54369 7.51915,1.43707 7.51915,1.43707c0,0 4.40965,-1.28844 7.7025,-0.27641c0.5645,0.17349 12.17544,4.80569 12.17544,4.80569c0,0 -0.02844,0.84781 -2.23052,3.11597c-3.70035,3.81138 -11.04091,5.40977 -19.05602,5.61515c-3.73342,0.09566 -9.82326,-1.3164 -14.40825,-4.13917c-4.98368,-3.06823 -8.31937,-7.57221 -8.31937,-7.57221z" fill="#000000"/><path d="M181.36577,351.69517c1.78476,-0.56986 4.16199,-0.35522 5.71361,-0.25136c1.36842,0.09161 4.15163,0.45441 8.05381,1.127c1.61369,0.27814 4.54837,-1.10269 6.15404,-0.79762c1.85079,0.35163 3.29419,0.44614 4.68334,0.98136c2.57006,0.9902 2.91485,1.35146 2.91485,1.35146c0,0 -3.76819,-0.56422 -7.35982,-0.1317c-2.42759,0.29235 -4.22111,1.31173 -6.28484,1.17359c-2.50232,-0.16751 -4.50205,-1.09617 -8.16293,-1.82488c-4.99635,-0.99452 -10.25966,-0.69487 -10.25966,-0.69487c0,0 1.54337,0.02624 4.54758,-0.93298z" fill="#ffffff"/><path d="M186.9301,354.87752c2.79511,0.74761 8.19556,2.55422 8.19556,2.55422c0,0 6.07261,-1.77477 8.85337,-1.88531c3.24533,-0.12901 9.65023,0.31887 9.65023,0.31887c0,0 -8.57051,6.28105 -20.03668,5.37569c-12.60163,-0.99501 -18.51376,-6.80771 -18.51376,-6.80771c0,0 10.02559,-0.04408 11.85128,0.44425z" fill="#ffffff"/></g><path d="M201.04982,96.22992l2.22222,-14.11765h20.61621c-3.29773,3.86719 -5.43748,8.75193 -5.88269,14.11765z" fill="#6d4321" fill-rule="nonzero" stroke="none" stroke-width="0" stroke-linecap="butt" stroke-linejoin="miter"/><path d="" fill="#6d4321" fill-rule="nonzero" stroke="none" stroke-width="0" stroke-linecap="butt" stroke-linejoin="miter"/><path d="M201.04982,135.39658l2.22222,-14.11765h14.99909c-0.23155,1.3671 -0.35212,2.77196 -0.35212,4.20497c0,3.52176 0.72821,6.87344 2.04226,9.91268z" fill="#6d4321" fill-rule="nonzero" stroke="none" stroke-width="0" stroke-linecap="butt" stroke-linejoin="miter"/><path d="" fill="#6d4321" fill-rule="nonzero" stroke="none" stroke-width="0" stroke-linecap="butt" stroke-linejoin="miter"/><path d="M324.78604,166.33702c2.67746,8.5006 -18.37187,22.03748 -32.07348,26.35312c-13.70162,4.31564 -22.53514,0.19106 -25.2126,-8.30953c-2.67746,-8.5006 3.42408,-17.99716 17.12569,-22.3128c13.70162,-4.31564 37.48294,-4.23137 40.16039,4.26922z" fill="#000000" fill-rule="nonzero" stroke="none" stroke-width="0" stroke-linecap="butt" stroke-linejoin="miter"/><g fill-rule="nonzero" stroke="none" stroke-linecap="butt" stroke-linejoin="miter"><g fill="#000000" stroke-width="NaN"><path d="M279.38119,121.73985c1.08418,0.37399 2.29018,1.20497 3.56239,1.79755c1.59123,0.74117 2.96713,1.53297 2.96116,1.6649c-0.00228,0.05045 0.31545,0.31052 0.14955,0.57978c-2.41597,3.92126 -1.33192,8.25553 -5.34811,10.51016c-1.43548,0.80586 -4.84334,2.5517 -7.012,2.29548c-2.09017,-0.24696 -6.83021,-4.11006 -7.17264,-4.11977c-1.17961,-0.74476 -1.83089,-8.53912 -3.05629,-10.85292c-0.31469,-0.59421 -0.012,-1.01164 -0.04989,-1.02614c-0.16624,-0.06363 1.12718,-0.24086 2.27911,-0.51032c0.68636,-0.16056 3.14529,-1.15458 4.75362,-1.13011c0,0 3.10878,0.57596 5.67938,0.79567c0,0 2.22278,-0.35989 3.25373,-0.00428z" stroke-width="NaN"/></g><path d="M281.20134,125.9874c0,0 -1.4472,-0.83257 -6.95265,-1.62782c-4.16679,-0.60188 -6.45536,-0.11037 -6.45536,-0.11037c0,0 -0.46154,-1.3072 1.13841,-1.44374c2.52479,-0.21544 7.89894,0.77872 10.92489,1.43516c2.99508,0.64975 1.34473,1.74677 1.34473,1.74677z" fill="#481310" stroke-width="0"/><path d="M273.45067,135.90119c-2.39734,-0.43073 -3.7466,-1.37025 -5.01409,-2.11425c-1.38794,-0.81469 -0.96214,-2.78145 -0.96214,-2.78145c0,0 2.34639,2.20163 6.52857,3.06438c1.92594,0.3973 3.34176,-0.20415 4.3325,-0.34701c1.85185,-0.26701 2.28861,-0.48096 2.28861,-0.48096c0,0 -0.55742,1.44829 -1.95734,2.03491c-1.63487,0.68508 -4.27594,0.79328 -5.2161,0.62436z" data-paper-data="{&quot;index&quot;:null}" fill="#330d0b" stroke-width="0"/></g></g></g></svg>