<svg version="1.1" xmlns="http://www.w3.org/2000/svg" xmlns:xlink="http://www.w3.org/1999/xlink" width="34.17316" height="34.17315" viewBox="0,0,34.17316,34.17315"><g transform="translate(-222.91347,-162.91346)"><g data-paper-data="{&quot;isPaintingLayer&quot;:true}" stroke-miterlimit="10" stroke-dasharray="" stroke-dashoffset="0" style="mix-blend-mode: normal"><path d="M229.98318,162.9135h20.03379c3.9166,0 7.06966,3.15307 7.06966,7.06966v20.03379c0,3.91659 -3.15306,7.06966 -7.06966,7.06966h-20.03379c-3.91659,0 -7.06966,-3.15307 -7.06966,-7.06966v-20.03379c0,-3.91659 3.15307,-7.06966 7.06966,-7.06966z" fill-opacity="0.29839" fill="#545454" fill-rule="evenodd" stroke="none" stroke-width="4.43922" stroke-linecap="round" stroke-linejoin="round"/><path d="M229.98313,162.91346h20.03379c3.9166,0 7.06966,3.15307 7.06966,7.06966v20.03379c0,3.91659 -3.15306,7.06966 -7.06966,7.06966h-20.03379c-3.91659,0 -7.06966,-3.15307 -7.06966,-7.06966v-20.03379c0,-3.91659 3.15307,-7.06966 7.06966,-7.06966z" fill="#59220f" fill-rule="evenodd" stroke="none" stroke-width="4.43922" stroke-linecap="round" stroke-linejoin="round"/><g fill="#000000" fill-rule="nonzero" stroke="#000000" stroke-linejoin="miter"><path d="M237.3712,182.22504l11.43467,-13.14485" stroke-width="3.5" stroke-linecap="round"/><path d="M226.31572,194.19857l10.83974,-15.57221l2.52436,4.08201c0,0 -1.754,1.87894 -3.51419,4.37771c-2.55699,3.62992 -4.52044,5.93864 -4.52044,5.93864z" stroke-width="0" stroke-linecap="butt"/><path d="M246.69322,171.54042l3.72859,-4.4095" stroke-width="6" stroke-linecap="round"/></g><g fill-rule="nonzero" stroke-linejoin="miter"><path d="M237.3712,181.5603l11.43467,-13.14485" fill="none" stroke="#000000" stroke-width="3.5" stroke-linecap="round"/><path d="M226.31572,193.53383l10.83974,-15.57221l2.52436,4.08201c0,0 -1.754,1.87894 -3.51419,4.37771c-2.55699,3.62992 -4.52044,5.93864 -4.52044,5.93864z" fill="#6d4321" stroke="none" stroke-width="0" stroke-linecap="butt"/><path d="M246.69321,170.87568l3.72859,-4.4095" fill="none" stroke="#6d4321" stroke-width="6" stroke-linecap="round"/></g></g></g></svg>