<svg version="1.1" xmlns="http://www.w3.org/2000/svg" xmlns:xlink="http://www.w3.org/1999/xlink" width="803.96772" height="714.71471" viewBox="0,0,803.96772,714.71471"><g transform="translate(161.98386,177.35734)"><g data-paper-data="{&quot;isPaintingLayer&quot;:true}" stroke-miterlimit="10" stroke-dasharray="" stroke-dashoffset="0" style="mix-blend-mode: normal"><path d="M66.75865,38.98825h346.4827c7.37013,0 13.30345,5.93334 13.30345,13.30345v63.5836c-11.83866,-1.63292 -23.67733,-3.26584 -35.516,-4.89876c-41.01211,-5.64219 -82.65516,-6.63856 -123.96926,-9.04054c-71.20145,-4.13962 -142.4029,-8.27924 -213.60434,-12.41886v-37.22543c0,-7.37011 5.93334,-13.30345 13.30345,-13.30345z" fill="#ffffff" fill-rule="nonzero" stroke="none" stroke-width="4.43922" stroke-linecap="butt" stroke-linejoin="miter"/><path d="M-161.98386,537.35737v-714.71471h803.96772v714.71471z" fill-opacity="0.34089" fill="#000000" fill-rule="nonzero" stroke="#808080" stroke-width="0" stroke-linecap="butt" stroke-linejoin="miter"/><path d="M66.75865,38.98825h346.4827c7.37013,0 13.30345,5.93334 13.30345,13.30345v255.41664c0,7.37011 -5.93332,13.30345 -13.30345,13.30345h-346.4827c-7.37011,0 -13.30345,-5.93334 -13.30345,-13.30345v-255.41664c0,-7.37011 5.93334,-13.30345 13.30345,-13.30345z" fill="#222222" fill-rule="evenodd" stroke="none" stroke-width="4.43922" stroke-linecap="round" stroke-linejoin="round"/><path d="" fill="#ffffff" fill-rule="nonzero" stroke="#000000" stroke-width="0.27531" stroke-linecap="butt" stroke-linejoin="miter"/><path d="M282.03165,225.76709v-128.07654h124.01124v128.07654z" fill="#000000" fill-rule="nonzero" stroke="#000000" stroke-width="0" stroke-linecap="butt" stroke-linejoin="miter"/><path d="" fill="#ffffff" fill-rule="nonzero" stroke="#000000" stroke-width="0.27531" stroke-linecap="butt" stroke-linejoin="miter"/><path d="M282.03165,225.76709v-128.07654h124.01124v128.07654z" fill="none" fill-rule="nonzero" stroke="#000000" stroke-width="7" stroke-linecap="butt" stroke-linejoin="miter"/><path d="M66.75865,38.98825h346.4827c7.37013,0 13.30345,5.93334 13.30345,13.30345v34.22481c-18.588,0 -37.17601,0 -55.76401,0c-20.52052,0 -41.04104,0 -61.56156,0c-10.62897,0 -21.478,1.15672 -31.8112,-1.42658c-3.12649,-0.03241 -9.62347,0.70453 -13.13352,0.0542c-3.03309,-0.56196 -6.02493,-1.58691 -9.10933,-1.63063c-24.01148,-0.34036 -48.05745,0 -72.07207,0c-7.00701,0 -14.01401,0 -21.02102,0c-2.23894,0 -4.58707,0.97441 -6.71148,0.26751c-1.06191,-0.35335 -1.90841,-1.26831 -3.003,-1.5015c-4.39708,-0.93677 -9.79734,-0.26751 -14.30954,-0.26751c-1.30753,0 -5.64604,0.62203 -6.71148,0.26751c-1.06191,-0.35335 -1.90841,-1.26831 -3.003,-1.5015c-4.39708,-0.93677 -9.79734,-0.26751 -14.30954,-0.26751c-14.49685,0 -29.05219,-0.39537 -43.54354,0c-2.26825,0.06188 -4.56899,-0.13537 -6.80203,0.26751c-1.10137,0.19871 -1.9411,1.14815 -3.003,1.5015c-1.06544,0.35452 -5.40395,-0.26751 -6.71148,-0.26751c0,0 -0.18658,0 -0.50877,0.02549v-29.74579c0,-7.37011 5.93334,-13.30345 13.30345,-13.30345z" fill="#ffffff" fill-rule="nonzero" stroke="none" stroke-width="4.43922" stroke-linecap="butt" stroke-linejoin="miter"/><path d="" fill="#ffffff" fill-rule="nonzero" stroke="none" stroke-width="4.43922" stroke-linecap="butt" stroke-linejoin="miter"/><text transform="translate(70.65108,71.68429) scale(0.74021,0.7038)" font-size="40" xml:space="preserve" fill="#000000" fill-rule="nonzero" stroke="#000000" stroke-width="2" stroke-linecap="butt" stroke-linejoin="miter" stroke-miterlimit="10" stroke-dasharray="" stroke-dashoffset="0" font-family="Malgun Gothic" font-weight="normal" text-anchor="start" style="mix-blend-mode: normal"><tspan x="0" dy="0">CREDITS</tspan></text><text transform="translate(68.32562,106.2018) scale(0.5,0.5)" font-size="40" xml:space="preserve" fill="#000000" fill-rule="nonzero" stroke="none" stroke-width="1" stroke-linecap="butt" stroke-linejoin="miter" stroke-miterlimit="10" stroke-dasharray="" stroke-dashoffset="0" font-family="Sans Serif" font-weight="normal" text-anchor="start" style="mix-blend-mode: normal"><tspan x="0" dy="0">name:</tspan><tspan x="0" dy="46.15px">lore lore lore lore</tspan></text></g></g></svg>