<svg version="1.1" xmlns="http://www.w3.org/2000/svg" xmlns:xlink="http://www.w3.org/1999/xlink" width="803.96772" height="714.71471" viewBox="0,0,803.96772,714.71471"><g transform="translate(161.98386,177.35735)"><g data-paper-data="{&quot;isPaintingLayer&quot;:true}" stroke-miterlimit="10" stroke-dasharray="" stroke-dashoffset="0" style="mix-blend-mode: normal"><path d="M-161.98386,537.35736v-714.71471h803.96772v714.71471z" fill-opacity="0.34089" fill="#000000" fill-rule="nonzero" stroke="#808080" stroke-width="0" stroke-linecap="butt" stroke-linejoin="miter"/><path d="M79.25865,57.75701h321.4827c7.37013,0 13.30345,5.93334 13.30345,13.30345v217.8791c0,7.37011 -5.93332,13.30345 -13.30345,13.30345h-321.4827c-7.37011,0 -13.30345,-5.93334 -13.30345,-13.30345v-217.8791c0,-7.37011 5.93334,-13.30345 13.30345,-13.30345z" fill="#222222" fill-rule="evenodd" stroke="none" stroke-width="4.43922" stroke-linecap="round" stroke-linejoin="round"/><path d="" fill="#ffffff" fill-rule="nonzero" stroke="#000000" stroke-width="0.27531" stroke-linecap="butt" stroke-linejoin="miter"/><path d="M399.70046,201.59125l-319.40092,0.00002" fill="#000000" fill-rule="evenodd" stroke="#808080" stroke-width="2" stroke-linecap="round" stroke-linejoin="round"/><g fill="#ffffff" fill-rule="evenodd" stroke="none" stroke-width="8.97707" stroke-linecap="round" stroke-linejoin="round"><path d="M91.87782,77.41196c-0.13767,-0.13767 -0.39335,-0.3245 -0.76703,-0.5605c-0.35401,-0.23601 -0.79652,-0.46217 -1.32752,-0.67852c-0.51134,-0.21634 -1.07185,-0.40317 -1.68152,-0.5605c-0.60968,-0.177 -1.2292,-0.2655 -1.85853,-0.2655c-1.10135,0 -1.9372,0.2065 -2.50754,0.61951c-0.55067,0.41301 -0.82601,0.99317 -0.82601,1.74052c0,0.57035 0.177,1.0227 0.531,1.35703c0.35401,0.33433 0.88502,0.6195 1.59303,0.85551c0.70801,0.23601 1.59302,0.49167 2.65504,0.76701c1.37669,0.33433 2.56655,0.74734 3.56956,1.23903c1.02269,0.47201 1.79953,1.10135 2.33053,1.88802c0.55067,0.76701 0.82601,1.7897 0.82601,3.06805c0,1.12102 -0.20649,2.08469 -0.6195,2.89105c-0.41301,0.78667 -0.98334,1.42586 -1.71103,1.91755c-0.72768,0.49167 -1.5537,0.85551 -2.47805,1.09152c-0.92435,0.21634 -1.90771,0.3245 -2.95005,0.3245c-1.04235,0 -2.0847,-0.10816 -3.12705,-0.3245c-1.04235,-0.21634 -2.04536,-0.52117 -3.00904,-0.91451c-0.96368,-0.41301 -1.84869,-0.90468 -2.65504,-1.47503l1.79952,-3.51056c0.177,0.177 0.49167,0.41301 0.94401,0.70802c0.45234,0.27533 1.00301,0.56049 1.65203,0.85551c0.64902,0.27533 1.35702,0.51135 2.12404,0.70802c0.76701,0.19667 1.54386,0.295 2.33053,0.295c1.10135,0 1.9372,-0.18684 2.50754,-0.5605c0.57035,-0.37367 0.85552,-0.90468 0.85552,-1.59303c0,-0.62934 -0.22618,-1.12102 -0.67852,-1.47501c-0.45234,-0.35401 -1.08168,-0.65884 -1.88802,-0.91451c-0.80636,-0.27533 -1.76019,-0.57035 -2.86155,-0.88502c-1.31769,-0.37367 -2.41904,-0.78669 -3.30406,-1.23903c-0.88501,-0.47201 -1.54386,-1.06201 -1.97654,-1.77002c-0.43267,-0.70801 -0.64902,-1.59304 -0.64902,-2.65505c0,-1.43569 0.33433,-2.63538 1.00301,-3.59905c0.68834,-0.98335 1.61269,-1.72087 2.77306,-2.21254c1.16035,-0.51134 2.44854,-0.76701 3.86456,-0.76701c0.98335,0 1.90771,0.10816 2.77306,0.3245c0.88501,0.21634 1.71103,0.50151 2.47804,0.85552c0.76701,0.35401 1.45535,0.73751 2.06503,1.15052z"/><path d="M112.02668,89.30067v3.56956h-14.54374v-20.94536h14.27824v3.56956h-10.20717v5.04459h8.82066v3.30406h-8.82066v5.45759z"/><path d="M130.8775,75.49443h-6.69662v17.3758h-4.04156v-17.3758h-6.69662v-3.56956h17.4348z"/><path d="M149.1383,75.49443h-6.69662v17.3758h-4.04158v-17.3758h-6.69661v-3.56956h17.4348z"/><path d="M151.73431,92.87022v-20.94536h4.07107v20.94536z"/><path d="M164.2425,79.41798v13.45223h-4.07107v-20.94536h3.24506l10.8267,13.80623v-13.77673h4.07107v20.91586h-3.39257z"/><path d="M191.38298,93.01771c-1.35701,0 -2.64521,-0.27533 -3.86455,-0.82602c-1.19968,-0.55067 -2.26172,-1.30786 -3.18605,-2.27153c-0.90466,-0.98335 -1.61268,-2.12405 -2.12404,-3.42206c-0.51133,-1.29802 -0.76701,-2.70421 -0.76701,-4.21857c0,-1.43569 0.25568,-2.78287 0.76701,-4.04156c0.51135,-1.27836 1.22918,-2.39938 2.15353,-3.36306c0.92434,-0.96368 2.00605,-1.72086 3.24508,-2.27153c1.23903,-0.55069 2.58619,-0.82602 4.04155,-0.82602c1.9667,0 3.64822,0.42284 5.04459,1.26852c1.41602,0.82602 2.47805,1.92737 3.18605,3.30406l-3.03856,2.24204c-0.53099,-1.04235 -1.27834,-1.83886 -2.24203,-2.38955c-0.94402,-0.55067 -1.97654,-0.82601 -3.09755,-0.82601c-0.88501,0 -1.69135,0.18683 -2.41904,0.56049c-0.72768,0.37367 -1.35703,0.88502 -1.88802,1.53404c-0.53101,0.64902 -0.94402,1.39635 -1.23903,2.24203c-0.27534,0.84568 -0.41301,1.74053 -0.41301,2.68454c0,1.00301 0.1476,1.92737 0.44251,2.77306c0.31466,0.84568 0.74733,1.5832 1.29801,2.21254c0.57035,0.62934 1.22918,1.13085 1.97654,1.50453c0.74734,0.35401 1.57336,0.531 2.47805,0.531c1.06201,0 2.07486,-0.27532 3.03856,-0.82601c0.98333,-0.55069 1.60099,-1.35703 2.44669,-2.41905v4.01206c-1.75038,1.88802 -3.4989,2.83206 -5.83926,2.83206zM197.22409,85.0821h-4.21858v-2.97955h7.58164v10.76768h-3.36306z"/><path d="M216.54691,77.41196c-0.13772,-0.13767 -0.39338,-0.3245 -0.767,-0.5605c-0.35401,-0.23601 -0.79652,-0.46217 -1.32753,-0.67852c-0.51133,-0.21634 -1.07185,-0.40317 -1.68154,-0.5605c-0.60968,-0.177 -1.22917,-0.2655 -1.85852,-0.2655c-1.10135,0 -1.9372,0.2065 -2.50754,0.61951c-0.55069,0.41301 -0.82602,0.99317 -0.82602,1.74052c0,0.57035 0.17701,1.0227 0.53101,1.35703c0.35401,0.33433 0.88501,0.6195 1.59302,0.85551c0.70802,0.23601 1.59304,0.49167 2.65505,0.76701c1.3767,0.33433 2.56655,0.74734 3.56956,1.23903c1.02269,0.47201 1.79953,1.10135 2.33052,1.88802c0.55069,0.76701 0.82602,1.7897 0.82602,3.06805c0,1.12102 -0.2065,2.08469 -0.6195,2.89105c-0.41302,0.78667 -0.98337,1.42586 -1.71105,1.91755c-0.72767,0.49167 -1.55368,0.85551 -2.47803,1.09152c-0.92435,0.21634 -1.90771,0.3245 -2.95005,0.3245c-1.04235,0 -2.08469,-0.10816 -3.12704,-0.3245c-1.04236,-0.21634 -2.04539,-0.52117 -3.00907,-0.91451c-0.96368,-0.41301 -1.84869,-0.90468 -2.65504,-1.47503l1.79953,-3.51056c0.177,0.177 0.49167,0.41301 0.94402,0.70802c0.45235,0.27533 1.00301,0.56049 1.65203,0.85551c0.64902,0.27533 1.35701,0.51135 2.12402,0.70802c0.76701,0.19667 1.54385,0.295 2.33052,0.295c1.10135,0 1.93721,-0.18684 2.50755,-0.5605c0.57035,-0.37367 0.85551,-0.90468 0.85551,-1.59303c0,-0.62934 -0.22617,-1.12102 -0.67852,-1.47501c-0.45233,-0.35401 -1.08167,-0.65884 -1.88801,-0.91451c-0.80636,-0.27533 -1.7602,-0.57035 -2.86155,-0.88502c-1.31768,-0.37367 -2.41905,-0.78669 -3.30407,-1.23903c-0.88501,-0.47201 -1.54384,-1.06201 -1.97653,-1.77002c-0.43268,-0.70801 -0.64903,-1.59304 -0.64903,-2.65505c0,-1.43569 0.33435,-2.63538 1.00304,-3.59905c0.68834,-0.98335 1.61268,-1.72087 2.77302,-2.21254c1.16035,-0.51134 2.44855,-0.76701 3.86457,-0.76701c0.98334,0 1.9077,0.10816 2.77303,0.3245c0.88502,0.21634 1.71103,0.50151 2.47804,0.85552c0.76701,0.35401 1.45535,0.73751 2.06504,1.15052z"/></g><g fill="#ffffff" fill-rule="evenodd" stroke="none" stroke-width="2.43813" stroke-linecap="round" stroke-linejoin="round"><path d="M79.71806,182.69213v-20.73021h7.53294c2.25793,0 4.14603,0.46716 5.66431,1.40148c1.51827,0.91486 2.65697,2.16061 3.41611,3.73727c0.75913,1.5572 1.13871,3.28959 1.13871,5.19715c0,2.10222 -0.4185,3.93193 -1.25549,5.48912c-0.83699,1.5572 -2.02435,2.76403 -3.56209,3.62049c-1.51827,0.85646 -3.31878,1.28469 -5.40153,1.28469zM93.41167,172.29784c0,-1.34308 -0.24332,-2.52072 -0.72994,-3.5329c-0.48662,-1.03165 -1.18736,-1.82971 -2.10222,-2.39419c-0.91486,-0.58395 -2.02435,-0.87593 -3.32851,-0.87593h-3.5037v13.66442h3.5037c1.32363,0 2.44285,-0.29197 3.35771,-0.87592c0.91486,-0.60342 1.60586,-1.42094 2.07301,-2.45259c0.48662,-1.0511 0.72994,-2.22874 0.72994,-3.5329z"/><path d="M99.01755,178.16653c0,-0.99271 0.2725,-1.8589 0.81752,-2.59858c0.56449,-0.75913 1.34308,-1.34308 2.3358,-1.75185c0.99271,-0.40877 2.13142,-0.61314 3.41611,-0.61314c0.64234,0 1.29443,0.04867 1.95624,0.14599c0.66181,0.09732 1.23602,0.25305 1.72265,0.46715v-0.81752c0,-0.97326 -0.29197,-1.72265 -0.87592,-2.2482c-0.56449,-0.52555 -1.41122,-0.78834 -2.54019,-0.78834c-0.83699,0 -1.63506,0.14598 -2.39419,0.43795c-0.75913,0.29197 -1.5572,0.72021 -2.39419,1.2847l-1.25549,-2.56937c1.01218,-0.66181 2.04381,-1.15816 3.09492,-1.48906c1.07057,-0.3309 2.1898,-0.49636 3.35771,-0.49636c2.18009,0 3.87353,0.54502 5.08036,1.63506c1.22629,1.09004 1.83945,2.64724 1.83945,4.67159v4.87597c0,0.40877 0.06813,0.70075 0.20438,0.87593c0.15571,0.17518 0.39903,0.28224 0.72993,0.32116v3.18253c-0.35037,0.05841 -0.67153,0.10706 -0.9635,0.14599c-0.27252,0.03893 -0.50609,0.05839 -0.70075,0.05839c-0.7786,0 -1.37228,-0.17518 -1.78104,-0.52555c-0.38931,-0.35037 -0.63261,-0.7786 -0.72994,-1.2847l-0.0876,-0.78834c-0.66181,0.85646 -1.48908,1.51827 -2.48179,1.98543c-0.99271,0.46715 -2.00488,0.70075 -3.03654,0.70075c-1.01218,0 -1.92703,-0.20439 -2.74456,-0.61314c-0.79805,-0.42823 -1.43067,-1.00244 -1.89782,-1.72265c-0.44769,-0.73967 -0.67154,-1.56692 -0.67154,-2.48178zM108.53593,178.95485c0.21411,-0.23358 0.38931,-0.46716 0.52556,-0.70075c0.13625,-0.23358 0.20437,-0.44768 0.20437,-0.64234v-1.54746c-0.46715,-0.19465 -0.97324,-0.34064 -1.51826,-0.43797c-0.54502,-0.11679 -1.06084,-0.17518 -1.54746,-0.17518c-1.01218,0 -1.84917,0.22386 -2.51098,0.67154c-0.64234,0.42824 -0.96351,1.00244 -0.96351,1.72265c0,0.38931 0.10705,0.75914 0.32116,1.10951c0.21411,0.35037 0.52556,0.63261 0.93433,0.84673c0.40877,0.21411 0.89538,0.32116 1.45987,0.32116c0.58395,0 1.15817,-0.10705 1.72266,-0.32116c0.56449,-0.23358 1.02191,-0.51583 1.37228,-0.84673z"/><path d="M125.93761,170.77956c-1.18736,0 -2.2482,0.23358 -3.18253,0.70074c-0.93432,0.44769 -1.60586,1.09978 -2.01463,1.95624v9.25559h-3.91247v-15.29947h3.59128v3.27011c0.54502,-1.05111 1.23603,-1.87837 2.07302,-2.48179c0.83699,-0.60342 1.72265,-0.93432 2.65696,-0.99271c0.21411,0 0.37957,0 0.49636,0c0.11679,0 0.21411,0.00973 0.29197,0.02919z"/><path d="M138.58008,182.69213l-4.46722,-6.59863l-2.07301,2.04382v4.55481h-3.91247v-21.31415h3.91247v12.90528l6.16067,-6.86141h4.14604l-5.69351,6.48184l6.10227,8.78844z"/><path d="M175.19373,182.69213h-3.91247v-8.58406c0,-1.20683 -0.21411,-2.09247 -0.64234,-2.65696c-0.40877,-0.58395 -0.98297,-0.87593 -1.72265,-0.87593c-0.75913,0 -1.48908,0.3017 -2.18982,0.90512c-0.68128,0.58395 -1.16789,1.35282 -1.45987,2.30661v8.90522h-3.91247v-8.58406c0,-1.2263 -0.21411,-2.12168 -0.64234,-2.68617c-0.40877,-0.56449 -0.98298,-0.84673 -1.72266,-0.84673c-0.75913,0 -1.48906,0.29198 -2.1898,0.87593c-0.68128,0.58395 -1.1679,1.35281 -1.45988,2.3066v8.93443h-3.91246v-15.29947h3.5329v2.83215c0.58395,-0.99271 1.36254,-1.75185 2.3358,-2.2774c0.97326,-0.54502 2.09248,-0.81752 3.35771,-0.81752c1.26523,0 2.2482,0.31143 2.94893,0.93432c0.72021,0.62289 1.17762,1.39175 1.37228,2.30661c0.62289,-1.05111 1.41122,-1.84917 2.365,-2.39419c0.97326,-0.56449 2.06328,-0.84673 3.27011,-0.84673c0.95379,0 1.72266,0.17518 2.30661,0.52555c0.60342,0.3309 1.07057,0.78834 1.40147,1.37228c0.33091,0.56449 0.55476,1.20683 0.67154,1.92703c0.13625,0.72021 0.20438,1.45014 0.20438,2.1898z"/><path d="M185.67561,182.98412c-1.24576,0 -2.365,-0.20439 -3.35771,-0.61314c-0.99271,-0.42824 -1.83943,-1.01217 -2.54017,-1.75184c-0.68128,-0.73967 -1.20683,-1.5864 -1.57667,-2.54019c-0.36984,-0.95379 -0.55476,-1.95624 -0.55476,-3.00734c0,-1.07057 0.18492,-2.08275 0.55476,-3.03654c0.36984,-0.95379 0.89539,-1.80051 1.57667,-2.54019c0.70074,-0.73967 1.54746,-1.31388 2.54017,-1.72265c0.99271,-0.42824 2.11195,-0.64234 3.35771,-0.64234c1.24576,0 2.35525,0.21411 3.32851,0.64234c0.99271,0.40877 1.83945,0.98297 2.54019,1.72265c0.70074,0.73967 1.2263,1.5864 1.57667,2.54019c0.36984,0.95379 0.55476,1.96596 0.55476,3.03654c0,1.0511 -0.18492,2.05356 -0.55476,3.00734c-0.35037,0.95379 -0.87593,1.80051 -1.57667,2.54019c-0.68128,0.73967 -1.51827,1.3236 -2.51098,1.75184c-0.99271,0.40877 -2.11195,0.61314 -3.35771,0.61314zM181.67555,175.0716c0,0.89539 0.17518,1.69345 0.52555,2.39419c0.35037,0.68128 0.82726,1.21656 1.43068,1.60587c0.60342,0.38931 1.2847,0.58395 2.04382,0.58395c0.73967,0 1.41122,-0.19464 2.01464,-0.58395c0.60342,-0.40877 1.08031,-0.95379 1.43068,-1.63506c0.36984,-0.70074 0.55475,-1.4988 0.55475,-2.39419c0,-0.87592 -0.18491,-1.66427 -0.55475,-2.365c-0.35037,-0.70074 -0.82726,-1.24575 -1.43068,-1.63505c-0.60342,-0.38931 -1.27496,-0.58396 -2.01464,-0.58396c-0.75913,0 -1.44041,0.20439 -2.04382,0.61314c-0.60342,0.38931 -1.08031,0.93433 -1.43068,1.63506c-0.35037,0.68128 -0.52555,1.46961 -0.52555,2.36498z"/><path d="M195.36919,175.04239c0,-1.47934 0.29198,-2.81269 0.87593,-4.00005c0.58395,-1.20683 1.39174,-2.16063 2.42338,-2.86136c1.03165,-0.70074 2.20927,-1.0511 3.5329,-1.0511c1.12897,0 2.14116,0.28224 3.03655,0.84673c0.91486,0.54502 1.62532,1.24576 2.13141,2.10222v-8.70084h3.91247v16.93453c0,0.40877 0.06813,0.70075 0.20438,0.87593c0.13625,0.17518 0.36983,0.28224 0.70074,0.32116v3.18253c-0.68128,0.13625 -1.23602,0.20438 -1.66425,0.20438c-0.70074,0 -1.2847,-0.17518 -1.75185,-0.52555c-0.44769,-0.35037 -0.70074,-0.80779 -0.75913,-1.37228l-0.0584,-0.96351c-0.56449,0.95379 -1.33334,1.68372 -2.3066,2.1898c-0.95379,0.50609 -1.95624,0.75914 -3.00734,0.75914c-1.05111,0 -2.02435,-0.20439 -2.91974,-0.61314c-0.87592,-0.40877 -1.6448,-0.97326 -2.30661,-1.69345c-0.64234,-0.72021 -1.14842,-1.5572 -1.51826,-2.51098c-0.35037,-0.97326 -0.52556,-2.01464 -0.52556,-3.12413zM207.36935,177.08621v-3.64968c-0.19465,-0.56449 -0.50608,-1.07058 -0.93432,-1.51827c-0.42824,-0.44769 -0.90513,-0.79806 -1.43069,-1.05111c-0.52555,-0.2725 -1.0511,-0.40877 -1.57666,-0.40877c-0.60342,0 -1.14843,0.12652 -1.63506,0.37957c-0.48662,0.25305 -0.91486,0.59368 -1.2847,1.02191c-0.35037,0.42824 -0.62287,0.92458 -0.81752,1.48906c-0.17518,0.56449 -0.26277,1.15816 -0.26277,1.78104c0,0.62287 0.09732,1.21656 0.29197,1.78105c0.21411,0.54502 0.51582,1.02191 0.90512,1.43068c0.38931,0.40877 0.83699,0.72994 1.34307,0.96351c0.52555,0.23358 1.09004,0.35037 1.69345,0.35037c0.36984,0 0.73966,-0.0584 1.1095,-0.17518c0.38931,-0.13625 0.74941,-0.31143 1.08031,-0.52555c0.35037,-0.23358 0.65207,-0.50609 0.90512,-0.81753c0.2725,-0.3309 0.47689,-0.68127 0.61314,-1.0511z"/><path d="M222.23088,182.98412c-1.2263,0 -2.3358,-0.20439 -3.32851,-0.61314c-0.99271,-0.42824 -1.83945,-1.00244 -2.54019,-1.72265c-0.70074,-0.73967 -1.24576,-1.57666 -1.63506,-2.51098c-0.36984,-0.95379 -0.55476,-1.95624 -0.55476,-3.00734c0,-1.45988 0.32117,-2.79322 0.96351,-4.00005c0.66181,-1.20683 1.59614,-2.17035 2.80297,-2.89056c1.22629,-0.73967 2.66671,-1.1095 4.32122,-1.1095c1.67398,0 3.10466,0.36983 4.29202,1.1095c1.18736,0.72021 2.09248,1.68372 2.71537,2.89056c0.64234,1.18736 0.96351,2.47206 0.96351,3.85407c0,0.23358 -0.00974,0.47689 -0.0292,0.72994c-0.01946,0.23358 -0.03893,0.42823 -0.05839,0.58395h-11.82498c0.07787,0.7786 0.3017,1.45988 0.67154,2.04382c0.38931,0.58395 0.87593,1.03163 1.45988,1.34307c0.60342,0.29197 1.24576,0.43797 1.92703,0.43797c0.7786,0 1.50852,-0.18492 2.1898,-0.55476c0.70074,-0.38931 1.17762,-0.89539 1.43068,-1.51826l3.35771,0.93432c-0.36984,0.7786 -0.90512,1.46961 -1.60586,2.07301c-0.68128,0.60342 -1.48908,1.08032 -2.42339,1.43069c-0.93432,0.3309 -1.96596,0.49635 -3.09492,0.49635zM218.23082,173.81612h8.0001c-0.07787,-0.7786 -0.3017,-1.45014 -0.67154,-2.01463c-0.35037,-0.58395 -0.81752,-1.03165 -1.40147,-1.34308c-0.58395,-0.33091 -1.23602,-0.49635 -1.95623,-0.49635c-0.70074,0 -1.34308,0.16544 -1.92703,0.49635c-0.56449,0.31144 -1.03165,0.75914 -1.40148,1.34308c-0.35037,0.56449 -0.56448,1.23602 -0.64234,2.01463z"/></g></g></g></svg>