<svg version="1.1" xmlns="http://www.w3.org/2000/svg" xmlns:xlink="http://www.w3.org/1999/xlink" width="34.17311" height="34.17311" viewBox="0,0,34.17311,34.17311"><g transform="translate(-222.91345,-162.91345)"><g data-paper-data="{&quot;isPaintingLayer&quot;:true}" stroke="none" stroke-miterlimit="10" stroke-dasharray="" stroke-dashoffset="0" style="mix-blend-mode: normal"><path d="M229.98312,162.91346h20.03379c3.9166,0 7.06966,3.15307 7.06966,7.06966v20.03379c0,3.91659 -3.15306,7.06966 -7.06966,7.06966h-20.03379c-3.91659,0 -7.06966,-3.15307 -7.06966,-7.06966v-20.03379c0,-3.91659 3.15307,-7.06966 7.06966,-7.06966z" fill="#59220f" fill-rule="evenodd" stroke-width="4.43922" stroke-linecap="round" stroke-linejoin="round"/><g fill="#000000" fill-rule="nonzero" stroke-width="0" stroke-linecap="butt" stroke-linejoin="miter"><path d="M229.29305,192.95143c-1.39084,-1.39646 -3.32833,-3.34178 -4.23202,-4.24912c-0.93724,-0.94103 -1.06518,-3.13381 -0.031,-3.84213c1.65645,-1.13452 6.68958,-4.58178 9.30417,-6.37255c0.9764,-0.66875 2.53943,0.68657 3.17338,1.9169c0.69692,1.35254 2.29857,4.46089 3.19221,6.19518c0.37996,0.73739 -0.0391,1.65754 -0.66887,2.06222c-1.15117,0.7397 -5.06206,3.25275 -7.38253,4.74381c-1.04689,0.6727 -2.44582,0.4589 -3.35534,-0.45431z"/><path d="M234.3342,178.48763c0.9764,-0.66875 2.53943,0.68657 3.17338,1.9169c0.69692,1.35254 2.29857,4.46089 3.19221,6.19518c0.37996,0.73739 -0.0391,1.65754 -0.66887,2.06222c-0.66469,0.42711 -2.24946,1.44545 -3.91689,2.51689c0.6071,-2.36306 0.05588,-5.30837 -1.70262,-7.87585c-0.816,-1.1914 -1.80182,-2.1698 -2.86621,-2.90511c1.04066,-0.71276 2.01956,-1.38322 2.789,-1.91022z"/><path d="M230.50618,192.03703c-1.06043,-1.06471 -2.53763,-2.54788 -3.22663,-3.23967c-0.71458,-0.71747 -0.81213,-2.38932 -0.02364,-2.92937c1.26293,-0.865 5.10036,-3.4933 7.09381,-4.85864c0.74445,-0.50988 1.93614,0.52347 2.4195,1.46151c0.53135,1.03122 1.75251,3.40113 2.43384,4.7234c0.28969,0.56222 -0.0298,1.26377 -0.50996,1.57231c-0.87769,0.56397 -3.85948,2.48001 -5.62868,3.61684c-0.79817,0.51289 -1.86477,0.34988 -2.55822,-0.34638z"/><path d="M230.10512,191.45146c-1.06043,-1.06471 -2.53763,-2.54788 -3.22663,-3.23967c-0.71458,-0.71747 -0.81213,-2.38932 -0.02364,-2.92937c1.26293,-0.865 5.10036,-3.49329 7.09381,-4.85863c0.74445,-0.50988 1.93614,0.52346 2.4195,1.4615c0.53135,1.03122 1.75251,3.40113 2.43384,4.7234c0.28969,0.56222 -0.0298,1.26378 -0.50996,1.57231c-0.87769,0.56397 -3.85948,2.48 -5.62868,3.61683c-0.79817,0.51289 -1.86477,0.34988 -2.55822,-0.34638z"/><g><path d="M254.38166,178.55036c-0.4997,0.36427 -1.07618,0.78453 -1.68236,1.22643c0.04254,-0.21389 0.06178,-0.44 0.05524,-0.67809c-0.04093,-1.49092 -0.57045,-7.86994 -2.67702,-8.51056c-1.64247,-0.49949 -2.22994,-0.11739 -2.33794,0.67478c-0.01008,0.00613 -0.02003,0.01256 -0.02984,0.01929c-0.00632,0.00433 -0.01255,0.00876 -0.01868,0.01327c-0.67633,-0.05752 -1.34976,0.01431 -1.9251,0.21105c-0.20869,-0.13608 -0.41885,-0.26531 -0.6288,-0.38795c1.69124,-1.15834 3.242,-2.22048 4.02952,-2.75987c1.03418,-0.70832 3.03254,0.20339 3.57128,1.41735c0.51946,1.1705 1.63315,3.68005 2.43264,5.48153c0.52282,1.17808 0.21663,2.55973 -0.78892,3.29277z" data-paper-data="{&quot;index&quot;:null}"/><path d="M247.29059,183.7197c-0.60491,0.44098 -1.61432,0.49919 -2.16457,-0.12157c-1.29415,-1.45997 -3.61366,-4.07665 -4.62294,-5.21525c-0.91808,-1.03571 -1.61698,-2.98289 -0.64058,-3.65164c0.98565,-0.67508 2.315,-1.58557 3.67759,-2.51883c-0.00611,0.12252 -0.00365,0.24761 0.01028,0.37618c0.02504,0.2311 0.14319,0.57624 0.32579,0.9878c-0.06761,0.27277 -0.11592,0.56654 -0.14479,0.87326c-0.41842,-0.09146 -0.83252,-0.03431 -1.16849,0.1958c-0.43073,0.29502 -0.6428,0.81252 -0.62783,1.3889c-0.02137,0.12243 -0.04034,0.25119 -0.05746,0.38584l0.00869,0.01392c0.09652,4.46174 4.08899,6.29844 7.20714,5.97132c-0.78861,0.57489 -1.43913,1.04912 -1.80284,1.31427z" data-paper-data="{&quot;index&quot;:null}"/><path d="M247.2906,183.7197c-0.60491,0.44098 -1.61432,0.49919 -2.16457,-0.12157c-1.29415,-1.45997 -3.61366,-4.07665 -4.62294,-5.21525c-0.91808,-1.03571 -1.61699,-2.9829 -0.64058,-3.65165c0.76944,-0.527 1.74834,-1.19746 2.789,-1.91021c0.1274,0.53256 0.30049,1.06773 0.51964,1.59823c-0.21804,0.02647 -0.4248,0.10055 -0.60827,0.2262c-0.43073,0.29502 -0.64279,0.81252 -0.62783,1.3889c-0.02137,0.12243 -0.04034,0.25119 -0.05747,0.38584l0.00869,0.01393c0.09651,4.46175 4.089,6.29844 7.20716,5.97131c-0.78862,0.57489 -1.43914,1.04912 -1.80285,1.31426z" data-paper-data="{&quot;index&quot;:null}"/><path d="M253.27808,178.56882c-0.16602,0.12104 -0.34317,0.25017 -0.52847,0.38525c-0.06763,-1.69251 -0.61118,-7.56549 -2.58163,-8.33454c0.7423,0.08033 1.57035,0.61384 1.85688,1.25949c0.39605,0.89243 1.24517,2.80579 1.85472,4.1793c0.39861,0.89819 0.16516,1.95162 -0.6015,2.51051z" data-paper-data="{&quot;index&quot;:null}"/><path d="M247.87161,182.51009c-0.4612,0.33622 -1.2308,0.3806 -1.65033,-0.09268c-0.11732,-0.13236 -0.24571,-0.2772 -0.38215,-0.43112c0.69539,0.2584 1.42579,0.40507 2.14074,0.44488c-0.03906,0.02848 -0.07522,0.05482 -0.10826,0.07891z" data-paper-data="{&quot;index&quot;:null}"/><path d="M241.88629,176.43412c0.00397,0.18407 0.01459,0.36366 0.0315,0.53883c-0.09106,-0.36314 -0.10002,-0.71188 0.01657,-0.98087c0.00009,0.01406 0.00033,0.02815 0.0007,0.04228c-0.02137,0.12243 -0.04034,0.25119 -0.05747,0.38584z" data-paper-data="{&quot;index&quot;:null}"/><path d="M252.87702,177.98325c-0.05837,0.04255 -0.11812,0.0861 -0.1791,0.13056c-0.18238,-2.31743 -0.83492,-6.9827 -2.62038,-7.52567c-0.60093,-0.18275 -1.06064,-0.24749 -1.40731,-0.21731c0.08419,-0.05766 0.16134,-0.1105 0.23073,-0.15802c0.78849,-0.54005 2.31211,0.15507 2.72286,1.08064c0.39605,0.89243 1.24516,2.80579 1.85472,4.1793c0.39861,0.89819 0.16517,1.95162 -0.6015,2.51051z" data-paper-data="{&quot;index&quot;:null}"/><path d="M241.80713,175.07144c0.567,-0.38835 1.2832,-0.87888 2.0469,-1.40194c-0.05612,0.24612 -0.09704,0.50804 -0.12265,0.78017c-0.41843,-0.09146 -0.83253,-0.03431 -1.1685,0.1958c-0.43073,0.29502 -0.6428,0.81252 -0.62783,1.3889c-0.02137,0.12243 -0.04034,0.25119 -0.05746,0.38584l0.00869,0.01392c0.00753,0.3484 0.03883,0.6808 0.0916,0.9974c-0.51982,-0.81434 -0.79648,-1.93152 -0.17076,-2.36008z" data-paper-data="{&quot;index&quot;:null}"/><path d="M247.70974,171.2822c-0.00632,0.00433 -0.01255,0.00876 -0.01868,0.01327c-0.11503,-0.00978 -0.22997,-0.01582 -0.34437,-0.01814c0.16275,-0.11147 0.31904,-0.21852 0.46743,-0.32015c-0.03518,0.09312 -0.0595,0.19545 -0.07454,0.30573c-0.01008,0.00613 -0.02003,0.01256 -0.02984,0.01929z" data-paper-data="{&quot;index&quot;:null}"/></g></g><g fill-rule="nonzero" stroke-width="0" stroke-linecap="butt" stroke-linejoin="miter"><path d="M229.42947,191.99648c-1.39084,-1.39646 -3.32833,-3.34178 -4.23201,-4.24912c-0.93724,-0.94103 -1.06518,-3.13381 -0.031,-3.84213c1.65645,-1.13452 6.68958,-4.58178 9.30417,-6.37255c0.9764,-0.66875 2.53943,0.68657 3.17338,1.9169c0.69692,1.35254 2.29857,4.46089 3.19221,6.19518c0.37996,0.73739 -0.0391,1.65754 -0.66887,2.06222c-1.15117,0.7397 -5.06206,3.25275 -7.38253,4.74381c-1.04689,0.6727 -2.44582,0.4589 -3.35534,-0.45431z" fill="#6d4321"/><path d="M234.47062,177.53269c0.9764,-0.66875 2.53943,0.68657 3.17338,1.9169c0.69692,1.35254 2.29857,4.46089 3.19221,6.19518c0.37996,0.73739 -0.0391,1.65754 -0.66887,2.06222c-0.66469,0.42711 -2.24946,1.44545 -3.91689,2.51689c0.6071,-2.36306 0.05588,-5.30837 -1.70262,-7.87585c-0.816,-1.1914 -1.80182,-2.1698 -2.86621,-2.90511c1.04066,-0.71276 2.01956,-1.38322 2.789,-1.91022z" fill="#000000"/><path d="M230.6426,191.08208c-1.06043,-1.06471 -2.53763,-2.54788 -3.22663,-3.23967c-0.71458,-0.71747 -0.81213,-2.38932 -0.02364,-2.92937c1.26293,-0.865 5.10036,-3.4933 7.09381,-4.85864c0.74445,-0.50988 1.93614,0.52347 2.4195,1.46151c0.53135,1.03122 1.75251,3.40113 2.43384,4.7234c0.28969,0.56222 -0.0298,1.26377 -0.50996,1.57231c-0.87769,0.56397 -3.85948,2.48001 -5.62868,3.61684c-0.79817,0.51289 -1.86477,0.34988 -2.55822,-0.34638z" fill="#000000"/><path d="M230.24154,190.49652c-1.06043,-1.06471 -2.53763,-2.54788 -3.22663,-3.23967c-0.71458,-0.71747 -0.81213,-2.38932 -0.02364,-2.92937c1.26293,-0.865 5.10036,-3.49329 7.09381,-4.85863c0.74445,-0.50988 1.93614,0.52346 2.4195,1.4615c0.53135,1.03122 1.75251,3.40113 2.43384,4.7234c0.28969,0.56222 -0.0298,1.26378 -0.50996,1.57231c-0.87769,0.56397 -3.85948,2.48 -5.62868,3.61683c-0.79817,0.51289 -1.86477,0.34988 -2.55822,-0.34638z" fill="#6d4321"/><g><path d="M254.51808,177.59541c-0.4997,0.36427 -1.07618,0.78453 -1.68236,1.22643c0.04254,-0.21389 0.06178,-0.44 0.05524,-0.67809c-0.04093,-1.49092 -0.57044,-7.86994 -2.67701,-8.51056c-1.64247,-0.49949 -2.22994,-0.1174 -2.33795,0.67477c-0.01008,0.00613 -0.02003,0.01257 -0.02984,0.01929c-0.00632,0.00433 -0.01254,0.00876 -0.01868,0.01327c-0.67633,-0.05752 -1.34977,0.01431 -1.9251,0.21104c-0.20869,-0.13608 -0.41885,-0.26531 -0.6288,-0.38795c1.69124,-1.15834 3.242,-2.22048 4.02952,-2.75987c1.03418,-0.70832 3.03254,0.20339 3.57128,1.41735c0.51946,1.1705 1.63315,3.68004 2.43264,5.48153c0.52282,1.17808 0.21663,2.55973 -0.78892,3.29277z" data-paper-data="{&quot;index&quot;:null}" fill="#6d4321"/><path d="M247.42701,182.76476c-0.60491,0.44098 -1.61432,0.49919 -2.16457,-0.12157c-1.29415,-1.45997 -3.61366,-4.07665 -4.62294,-5.21525c-0.91808,-1.03571 -1.61698,-2.98289 -0.64058,-3.65164c0.98565,-0.67508 2.315,-1.58558 3.67759,-2.51883c-0.00611,0.12252 -0.00365,0.24762 0.01028,0.37619c0.02504,0.2311 0.14319,0.57624 0.32579,0.9878c-0.06761,0.27277 -0.11592,0.56654 -0.14479,0.87326c-0.41842,-0.09146 -0.83252,-0.03431 -1.16849,0.1958c-0.43073,0.29502 -0.64279,0.81251 -0.62783,1.3889c-0.02137,0.12243 -0.04034,0.25119 -0.05747,0.38584l0.0087,0.01392c0.09652,4.46174 4.08899,6.29844 7.20714,5.97132c-0.78861,0.57489 -1.43913,1.04912 -1.80284,1.31427z" data-paper-data="{&quot;index&quot;:null}" fill="#6d4321"/><path d="M247.42702,182.76475c-0.60491,0.44098 -1.61432,0.4992 -2.16458,-0.12156c-1.29415,-1.45997 -3.61365,-4.07665 -4.62293,-5.21525c-0.91808,-1.03571 -1.61699,-2.9829 -0.64059,-3.65165c0.76944,-0.527 1.74834,-1.19746 2.789,-1.91022c0.1274,0.53256 0.30049,1.06773 0.51964,1.59824c-0.21804,0.02647 -0.4248,0.10055 -0.60826,0.2262c-0.43073,0.29502 -0.64279,0.81251 -0.62783,1.3889c-0.02137,0.12243 -0.04034,0.25119 -0.05747,0.38584l0.00869,0.01393c0.09651,4.46175 4.089,6.29845 7.20716,5.97132c-0.78862,0.57489 -1.43914,1.04912 -1.80285,1.31426z" data-paper-data="{&quot;index&quot;:null}" fill="#000000"/><path d="M253.4145,177.61387c-0.16602,0.12104 -0.34317,0.25017 -0.52847,0.38525c-0.06763,-1.69251 -0.61118,-7.56549 -2.58163,-8.33454c0.7423,0.08033 1.57035,0.61384 1.85688,1.25949c0.39605,0.89243 1.24517,2.80578 1.85472,4.1793c0.39861,0.89819 0.16516,1.95162 -0.6015,2.51051z" data-paper-data="{&quot;index&quot;:null}" fill="#000000"/><path d="M248.00803,181.55515c-0.4612,0.33622 -1.2308,0.3806 -1.65033,-0.09268c-0.11732,-0.13236 -0.24571,-0.2772 -0.38215,-0.43112c0.69539,0.2584 1.42579,0.40507 2.14075,0.44488c-0.03906,0.02848 -0.07522,0.05482 -0.10826,0.07891z" data-paper-data="{&quot;index&quot;:null}" fill="#000000"/><path d="M242.02271,175.47918c0.00397,0.18407 0.01459,0.36367 0.0315,0.53883c-0.09106,-0.36314 -0.10002,-0.71188 0.01657,-0.98087c0.00009,0.01406 0.00032,0.02815 0.00069,0.04228c-0.02137,0.12243 -0.04034,0.25119 -0.05746,0.38584z" data-paper-data="{&quot;index&quot;:null}" fill="#59220f"/><path d="M253.01344,177.02831c-0.05837,0.04255 -0.11812,0.0861 -0.1791,0.13056c-0.18238,-2.31743 -0.83492,-6.9827 -2.62038,-7.52567c-0.60093,-0.18275 -1.06064,-0.24749 -1.40731,-0.21731c0.08419,-0.05766 0.16134,-0.11051 0.23072,-0.15803c0.78849,-0.54005 2.31211,0.15507 2.72286,1.08064c0.39605,0.89243 1.24516,2.80578 1.85472,4.1793c0.39861,0.89819 0.16517,1.95162 -0.6015,2.51051z" data-paper-data="{&quot;index&quot;:null}" fill="#6d4321"/><path d="M241.94355,174.11649c0.567,-0.38835 1.2832,-0.87888 2.04689,-1.40194c-0.05612,0.24612 -0.09704,0.50804 -0.12264,0.78017c-0.41843,-0.09146 -0.83253,-0.03431 -1.1685,0.1958c-0.43073,0.29502 -0.64279,0.81251 -0.62783,1.3889c-0.02137,0.12243 -0.04034,0.25119 -0.05747,0.38584l0.0087,0.01392c0.00753,0.3484 0.03883,0.68079 0.0916,0.99739c-0.51982,-0.81434 -0.79648,-1.93151 -0.17076,-2.36008z" data-paper-data="{&quot;index&quot;:null}" fill="#000000"/><path d="M247.84616,170.32726c-0.00632,0.00433 -0.01254,0.00876 -0.01868,0.01327c-0.11503,-0.00978 -0.22997,-0.01582 -0.34437,-0.01814c0.16275,-0.11147 0.31904,-0.21851 0.46743,-0.32015c-0.03518,0.09312 -0.05951,0.19545 -0.07454,0.30573c-0.01008,0.00613 -0.02003,0.01257 -0.02984,0.01929z" data-paper-data="{&quot;index&quot;:null}" fill="#000000"/></g></g></g></g></svg>