<svg version="1.1" xmlns="http://www.w3.org/2000/svg" xmlns:xlink="http://www.w3.org/1999/xlink" width="94.04938" height="249.05816" viewBox="0,0,94.04938,249.05816"><g transform="translate(-193.17157,-56.3288)"><g data-paper-data="{&quot;isPaintingLayer&quot;:true}" fill-rule="nonzero" stroke-linejoin="miter" stroke-miterlimit="10" stroke-dasharray="" stroke-dashoffset="0" style="mix-blend-mode: normal"><g stroke="none" stroke-linecap="butt"><path d="M254.83472,234.06855c0,0 -10.69611,1.59027 -15.9769,2.8871c-6.65632,1.63461 -13.59049,4.37385 -13.59049,4.37385l-0.19703,-3.38679c0,0 7.71955,-0.85931 13.4683,-2.44377c5.12456,-1.41243 16.0991,-4.81717 16.0991,-4.81717z" fill="#000000" stroke-width="0"/><path d="M255.07291,225.11515c0,0 -10.92549,-1.12103 -16.35835,-1.15761c-6.84798,-0.04611 -14.06044,0.95279 -14.06044,0.95279l0.05784,-3.47147c0,0 7.86323,1.10041 13.79061,0.96576c5.2838,-0.12005 16.62817,-0.76093 16.62817,-0.76093z" fill="#000000" stroke-width="0"/><path d="M261.12077,230.57067c0,0 -15.65164,-0.48637 -23.40025,0.15939c-9.76693,0.81396 -19.98448,3.45626 -19.98448,3.45626l-0.14682,-5.9233c0,0 11.28409,0.85037 19.72648,-0.15167c7.52573,-0.89324 23.65824,-3.46398 23.65824,-3.46398z" fill="#000000" stroke-width="0"/><path d="M257.53432,241.96422c0,0 -11.49484,0.04173 -17.19044,0.51639c-7.17917,0.59831 -14.69947,2.14129 -14.69947,2.14129l-0.07513,-3.03066c0,0 8.28447,0.22583 14.49169,-0.44418c5.53325,-0.59726 17.39822,-2.2135 17.39822,-2.2135z" fill="#000000" stroke-width="0"/><path d="M237.54167,254.74447c0,0 -0.6334,-17.84056 -1.40985,-26.66973c-0.97871,-11.12895 -2.93756,-22.76517 -2.93756,-22.76517l3.08435,-0.18792c0,0 0.19574,12.86392 1.19754,22.48261c0.89303,8.5743 3.14987,26.95229 3.14987,26.95229z" fill="#000000" stroke-width="0"/><path d="M244.59036,252.31363c0,0 1.40472,-13.81672 1.74308,-20.70365c0.42649,-8.6808 0.15142,-17.85653 0.15142,-17.85653l2.39702,0.18242c0,0 -1.214,9.93485 -1.46246,17.45415c-0.22147,6.70287 -0.43205,21.10603 -0.43205,21.10603z" fill="#000000" stroke-width="0"/><path d="M239.93582,272.28288c0,0 1.85735,-29.74311 1.85735,-44.50972c0,-18.61294 -1.85735,-38.16906 -1.85735,-38.16906h6.15619c0,0 -1.85735,21.41981 -1.5478,37.52265c0.27594,14.35441 1.5478,45.15614 1.5478,45.15614z" fill="#000000" stroke-width="0"/><path d="M232.22343,259.24456c0,0 0.72586,-16.69908 0.72586,-24.9897c0,-10.45012 -0.72586,-21.42978 -0.72586,-21.42978h2.40589c0,0 -0.72586,12.02602 -0.60489,21.06685c0.10784,8.05919 0.60489,25.35263 0.60489,25.35263z" fill="#000000" stroke-width="0"/><g><path d="M200.58126,185.96091c0,-21.10292 18.15751,-38.21022 40.55593,-38.21022c22.39843,0 40.82079,17.1073 40.82079,38.21022c0,2.70002 0.0039,117.77204 0.0039,117.77204l-11.39983,-0.12964l-0.14337,-113.82486c0,0 0.46851,-2.08621 -1.77595,-2.22047c-2.48625,-0.14872 -2.11767,1.68282 -2.11767,1.68282l0.10343,114.38802l-50.32146,0.07847l0.10485,-114.20488c0,0 -0.19035,-2.13951 -1.8053,-2.16297c-2.01199,-0.02922 -1.98832,2.04221 -1.98832,2.04221l-0.29988,114.25674l-11.38239,0.22905c0,0 -0.35473,-116.42094 -0.35473,-117.90653zM230.94275,222.84481c-1.57895,1.85279 -2.65581,1.52755 -3.0026,3.59884c-0.42048,2.51148 -0.49039,2.52716 -0.59747,5.06445c-0.05604,1.32781 0.35563,5.9041 0.35255,7.35093c0.01801,1.72252 1.082,3.43576 1.3838,5.10978c0.11444,0.63475 1.91653,3.31906 2.30127,3.83674c0.40236,0.54138 2.03383,1.97942 2.63317,2.28891c1.82731,0.94358 6.16427,1.0746 8.28377,1.23436c1.39017,0.10478 1.74086,-3.12079 3.13693,-3.22636c1.89549,-0.14333 3.53107,2.03098 4.55359,-0.13256c0.33966,-0.71869 1.22331,-3.4148 1.00735,-4.2041c-0.44599,-1.63001 -0.06298,-1.42996 0.3451,-3.04346c0.25743,-1.54454 -1.69975,-3.02481 -1.04673,-4.43143c0.49626,-1.06895 1.75787,-3.00285 1.77098,-4.18131c0.02465,-2.21516 -0.2787,-5.21369 -1.65104,-6.39015c-1.22541,-1.0505 -3.54356,-2.82658 -4.21128,-4.10216c-1.17846,-2.25129 -2.19351,-8.11265 -4.4726,-8.11936c0,0 -4.37297,0.95816 -7.07309,3.08367c-1.54881,1.21921 -2.0118,3.89333 -2.14506,4.26762c-1.49622,-0.03374 -0.64516,0.91194 -1.56866,1.9956z" fill="#000000" stroke-width="0"/><path d="M263.87528,302.96891l-45.42645,-0.26162l0.09332,-105.14769c6.87686,-0.9259 13.83164,-1.56259 20.69309,-2.02792c8.37835,-0.55856 16.78046,-1.11312 25.18506,-1.36052zM233.63447,213.09321c-2.20093,0.92956 -3.22705,3.14567 -4.21965,5.13763c-1.25135,3.79395 -3.82479,7.14984 -4.97939,10.90539c-0.49639,1.6146 -1.52487,2.79503 -1.38153,4.67298c0.38231,5.00888 3.45218,9.702 5.07425,14.38225c3.14223,4.01068 7.21738,5.80267 12.29373,5.80267c0.4465,0 3.1558,0.03413 3.45237,-0.12337c0.64684,-0.3435 1.06227,-1.02888 1.45219,-1.64885c0.27456,-0.43654 0.86758,-2.06737 0.86758,-2.06737c0,0 0.94294,0.88191 1.73783,0.92444c2.98946,0.15994 4.27744,-2.57448 5.65325,-4.85699c1.72089,-3.05672 0.28403,-5.54776 -0.28583,-8.68034c-0.42718,-2.34823 1.63178,-4.3663 1.80545,-6.67042c0.37378,-4.95897 -3.9284,-9.43167 -5.7329,-13.62676c-1.47313,-2.43494 -2.75295,-5.78406 -5.87642,-6.66534c-1.93034,-0.54464 -2.45606,-0.06876 -3.12618,0.80695c-0.18815,0.12599 -0.30895,0.29678 -0.3865,0.46416c-1.91265,0.90831 -4.28081,0.36979 -6.34825,1.24298z" fill="#ffffff" stroke-width="0"/><path d="M280.07865,302.05951l-7.50523,0.21307l0.18952,-108.23512c2.43796,-0.00317 4.87554,0.02795 7.31222,0.10076c0.00076,24.81605 0.00349,107.9213 0.00349,107.9213z" fill="#ffffff" stroke-width="0"/><path d="M210.65017,302.64193l-7.39669,-0.11875c0,0 -0.24509,-72.09651 -0.34519,-102.25271c2.30594,-0.40904 4.58267,-0.95343 6.95202,-1.36998c0.08803,-0.01548 0.17608,-0.0309 0.26416,-0.04626z" fill="#ffffff" stroke-width="0"/><path d="M233.85134,215.86172c-0.17754,0.16726 -0.35112,0.34065 -0.51988,0.5194c0.16013,-0.18932 0.33256,-0.36438 0.51988,-0.5194z" fill="#ffffff" stroke-width="0"/><g fill="#000000"><path d="M230.0208,204.89618c-5.66213,0 -7.34973,-0.4705 -7.34973,-0.4705l-0.08286,-1.2733c0,0 5.25623,0.13066 7.69744,0.13066c4.20542,0 7.61458,-1.35635 7.61458,-0.87378c0,0.48257 -1.95246,2.48691 -7.87944,2.48691z" stroke-width="0"/><path d="M225.51823,199.65351c0,-0.55682 0.44467,-1.00821 0.99321,-1.00821c0.54854,0 0.99321,0.45139 0.99321,1.00821c0,0.55682 -0.44467,1.00821 -0.99321,1.00821c-0.54854,0 -0.99321,-0.45139 -0.99321,-1.00821z" stroke-width="0.5"/></g><g data-paper-data="{&quot;index&quot;:null}" fill="#000000"><path d="M244.83601,202.40927c0,-0.48257 3.40916,0.87378 7.61458,0.87378c2.44121,0 7.69744,-0.13066 7.69744,-0.13066l-0.08286,1.2733c0,0 -1.6876,0.4705 -7.34973,0.4705c-5.92698,0 -7.87944,-2.00433 -7.87944,-2.48691z" stroke-width="0"/><path d="M256.2247,200.66171c-0.54853,0 -0.99321,-0.45139 -0.99321,-1.00821c0,-0.55682 0.44467,-1.00821 0.99321,-1.00821c0.54853,0 0.99321,0.45139 0.99321,1.00821c0,0.55682 -0.44467,1.00821 -0.99321,1.00821z" stroke-width="0.5"/></g></g><path d="M200.30922,305.09695c0,0 0.14221,-32.61333 0.39816,-59.64614c0.16048,-16.94958 -0.01837,-47.74006 -0.01837,-47.74006h11.86744c0,0 3.87018,7.46349 4.08294,16.60381c0.43594,18.72855 -1.61427,89.45311 -1.61427,89.45311z" fill="#773128" stroke-width="0"/><path d="M214.0073,305.38695c0,0 0,-78.24893 0,-93.00829c0,-4.61073 -9.52256,-14.81625 -9.52256,-14.81625l27.21677,-2.08714c0,0 -1.4349,2.75365 -1.4349,7.11993c0,15.25182 0.52178,102.79176 0.52178,102.79176z" fill="#59220f" stroke-width="0"/><g stroke-width="0"><path d="M199.23348,207.1768c0,0 -0.55649,-16.77214 0.98701,-17.64594c2.10378,-1.19099 6.72314,-2.86976 9.17226,-3.06279c11.43694,-0.90141 23.12718,-2.35668 23.12718,-2.35668v12.1894c0,0 -12.57231,1.90753 -22.22565,2.02894c-4.77124,0.06 -11.0608,8.84706 -11.0608,8.84706z" fill="#481310"/><path d="M207.86019,196.72476c-3.62997,1.24901 -4.49746,4.33606 -5.9683,4.29681c-1.88669,-0.1141 -0.43394,-8.04238 -0.5179,-9.03316c-0.09943,-1.17329 3.4872,-3.40428 7.15195,-3.64003c7.64342,-0.4917 11.89093,-0.67915 14.73092,-0.91768c-0.18474,2.44162 -0.49332,4.86545 -0.88864,7.27603c-3.0106,0.13926 -9.77162,0.38833 -14.50803,2.01803z" fill="#571c18"/><path d="M230.80423,190.42529c0.22425,2.64613 -2.01934,3.61648 -5.89198,4.07662c0.38037,-2.38476 0.67625,-4.78318 0.85313,-7.20023c3.14171,-0.01327 4.83655,0.73644 5.03885,3.12361z" fill="#571c18"/></g><path d="M218.27088,211.16875c-2.13958,0 -6.18199,-7.10083 -6.18199,-9.14936c0,-2.04853 12.28508,-1.89581 14.42466,-1.89581c0.8873,0 0.84972,4.87677 -1.7418,8.03916c-1.77662,2.16799 -6.23893,3.006 -6.50086,3.006z" fill="#6d4321" stroke-width="0"/><path d="M215.5508,216.85618c0,-1.86644 1.18091,-3.37949 2.63765,-3.37949c0.67417,0 3.73101,0.16547 6.58855,-1.00279c2.16809,-0.88639 4.36136,-3.31005 4.50466,-2.71494c0.04226,0.17548 -0.43684,16.89701 -0.87013,31.75516c-4.27022,1.97967 -8.03968,4.76239 -10.64386,9.52304c-0.59282,1.08372 -1.20259,2.03069 -1.68003,3.01316c-0.43408,-15.32514 -0.53685,-36.02595 -0.53685,-37.19414z" fill="#6d4321" stroke-width="0"/><path d="M228.05529,253.68062c-3.46203,0.91356 -6.90198,1.96838 -10.3415,3.23249c0.25201,-2.50516 2.51372,-5.28006 4.00414,-7.21608c1.87435,-2.43474 4.13438,-4.16512 6.61516,-5.49594c-0.09939,3.40064 -0.19439,6.63862 -0.27779,9.47953z" fill="#6d4321" stroke-width="0"/><path d="M227.74994,264.16908c0,1.86644 -9.02331,6.28093 -10.48004,6.28093c-0.41689,0 -0.73595,-4.23638 -0.97905,-10.32817c0.20199,-0.07351 0.40351,-0.14901 0.60439,-0.22702c3.68928,-1.43263 7.37453,-2.60598 11.08352,-3.6077c-0.13775,4.69192 -0.22881,7.79931 -0.22881,7.88196z" fill="#6d4321" stroke-width="0"/><path d="M210.52233,288.68724c-1.69191,0 -7.57493,-78.56957 -7.57493,-79.09729c0,-2.1851 2.1416,-6.40528 3.42277,-6.63511c0.29515,-0.05295 5.25174,9.81301 5.2166,11.48703c-0.23261,11.0824 0.65163,74.24537 -1.06444,74.24537z" fill="#894939" stroke-width="0"/><g data-paper-data="{&quot;index&quot;:null}" stroke-width="0"><path d="M269.15446,302.40341c0,0 -2.05021,-70.72455 -1.61427,-89.4531c0.21276,-9.14032 4.08294,-16.60381 4.08294,-16.60381h11.86744c0,0 -0.17885,30.79048 -0.01837,47.74006c0.25595,27.03281 0.39816,59.64614 0.39816,59.64614z" fill="#773128"/><path d="M253.39122,304.02269c0,0 0.52178,-87.53993 0.52178,-102.79175c0,-4.36629 -1.43491,-7.11994 -1.43491,-7.11994l27.21677,2.08714c0,0 -9.52257,10.20553 -9.52257,14.81626c0,14.75937 0,93.00829 0,93.00829z" fill="#59220f"/><g><path d="M273.88527,196.96548c-9.65334,-0.12141 -22.22565,-2.02894 -22.22565,-2.02894v-12.1894c0,0 11.69025,1.45527 23.12718,2.35668c2.44912,0.19303 7.06848,1.8718 9.17226,3.06279c1.5435,0.8738 0.98701,17.64594 0.98701,17.64594c0,0 -6.28956,-8.78706 -11.06081,-8.84707z" fill="#481310"/><path d="M261.81136,193.34247c-0.39532,-2.41057 -0.7039,-4.83441 -0.88864,-7.27603c2.83999,0.23853 7.0875,0.42597 14.73092,0.91768c3.66475,0.23576 7.25138,2.46674 7.15195,3.64004c-0.08396,0.99078 1.36878,8.91906 -0.51791,9.03316c-1.47084,0.03925 -2.33832,-3.04781 -5.96829,-4.29682c-4.7364,-1.62971 -11.49742,-1.87877 -14.50803,-2.01803z" fill="#571c18"/><path d="M258.41418,185.93742c0.17687,2.41705 0.47276,4.81547 0.85313,7.20023c-3.87264,-0.46014 -6.11623,-1.43048 -5.89198,-4.07662c0.2023,-2.38717 1.89714,-3.13689 5.03885,-3.12362z" fill="#571c18"/></g><path d="M259.40783,206.79849c-2.59152,-3.1624 -2.6291,-8.03916 -1.7418,-8.03916c2.13958,0 14.42466,-0.15272 14.42466,1.89581c0,2.04853 -4.04241,9.14936 -6.18199,9.14936c-0.26193,0 -4.72423,-0.83802 -6.50086,-3.00601z" fill="#6d4321"/><path d="M268.09191,252.68606c-0.47744,-0.98246 -1.08721,-1.92943 -1.68003,-3.01315c-2.60417,-4.76065 -6.37363,-7.54337 -10.64386,-9.52304c-0.43329,-14.85816 -0.91238,-31.57969 -0.87013,-31.75517c0.1433,-0.5951 2.33657,1.82855 4.50466,2.71495c2.85754,1.16826 5.91437,1.00279 6.58855,1.00279c1.45673,0 2.63765,1.51305 2.63765,3.37949c0,1.16819 -0.10278,21.86899 -0.53685,37.19413z" fill="#6d4321"/><path d="M255.8465,242.83684c2.48078,1.33082 4.74081,3.06119 6.61516,5.49594c1.49042,1.93603 3.75213,4.71093 4.00414,7.21608c-3.43953,-1.26412 -6.87947,-2.31894 -10.3415,-3.23249c-0.08341,-2.84091 -0.17841,-6.07888 -0.27779,-9.47953z" fill="#6d4321"/><path d="M256.20084,254.92287c3.709,1.00171 7.39424,2.17506 11.08352,3.6077c0.20088,0.07801 0.4024,0.1535 0.60439,0.22702c-0.24309,6.09179 -0.56217,10.32817 -0.97905,10.32817c-1.45673,0 -10.48004,-4.41449 -10.48004,-6.28093c0,-0.08265 -0.09106,-3.19003 -0.22881,-7.88195z" fill="#6d4321"/><path d="M272.59281,213.07761c-0.03514,-1.67402 4.92144,-11.53999 5.2166,-11.48703c1.28117,0.22983 3.42277,4.45001 3.42277,6.63512c0,0.52773 -5.88302,79.09729 -7.57493,79.09729c-1.71607,0 -0.83184,-63.16297 -1.06444,-74.24537z" fill="#894939"/></g></g><path d="M193.58079,125.9155c0,0 4.75839,-5.12941 6.10536,-8.45329c2.88904,-7.12918 2.85124,-13.03672 2.85124,-13.03672c0,0 -1.85997,0.61665 -2.84266,0.69861c-1.61013,0.13429 -2.80363,-0.26204 -2.80363,-0.26204l6.42399,-6.92498c0,0 0.2475,-17.60523 8.9764,-29.16254c6.74693,-8.93313 20.64648,-12.51508 30.3551,-12.44472c8.42215,0.06104 22.55613,3.08573 28.68941,10.58184c10.08388,12.32455 6.38707,19.81995 10.11,32.42062c3.72078,12.59341 5.77495,16.18431 5.77495,16.18431c0,0 -1.64899,-0.1627 -2.4478,-0.70191c-3.35821,-2.26684 -4.77049,-4.144 -4.77049,-4.144c0,0 2.51404,9.65365 0.49901,21.29599c-1.43966,8.31802 -7.42166,16.10527 -7.42166,16.10527l-1.17358,-2.98711c0,0 -0.27736,1.51046 -1.52332,3.13635c-1.38133,1.80253 -3.94985,3.49671 -3.94985,3.49671l0.00318,-3.58884c0,0 -4.58502,5.92133 -10.91754,9.01637c-6.10567,2.98416 -11.80358,2.51788 -14.49123,2.46803c-14.12802,-0.26204 -24.08852,-10.83115 -24.08852,-10.83115l-1.5995,1.70352c0,0 -3.09691,-2.20769 -5.16904,-7.29265c-3.07463,-7.54506 -3.82841,-13.97384 -3.82841,-13.97384c0,0 -3.51398,2.22964 -6.51964,2.91866c-3.62077,0.83002 -6.65099,0.20519 -6.65099,0.20519c0,0 3.61051,-2.54967 5.08456,-3.95508c1.38725,-1.32265 3.51514,-4.24416 3.51514,-4.24416c0,0 -3.21775,1.31904 -4.68875,1.66038c-2.24208,0.52027 -3.5017,0.11114 -3.5017,0.11114z" fill="#000000" stroke="none" stroke-width="NaN" stroke-linecap="butt"/><g data-paper-data="{&quot;index&quot;:null}"><path d="M274.43226,118.7119c-1.20072,4.90086 -7.66724,8.4325 -7.66724,8.4325c0,0 -1.0937,-5.77121 -0.15061,-10.7281c0.9431,-4.95689 5.76428,-10.08085 6.72949,-9.89722c0.96521,0.18363 4.16548,-0.36679 1.08836,12.19281z" fill="#000000" stroke="none" stroke-width="0" stroke-linecap="butt"/><path d="M271.03335,111.31904c0,0 2.16397,0.05735 1.47037,3.38348c-0.43498,2.08594 -3.46106,7.54108 -3.46106,7.54108" fill="none" stroke="#000000" stroke-width="0.5" stroke-linecap="round"/></g><path d="M217.64957,143.69921c-1.12791,-6.71582 -0.20637,-6.94188 -1.0642,-13.44379c-0.47362,-3.58977 -2.15797,-7.18909 -2.73202,-11.13223c-1.20896,-8.30433 -1.27196,-25.65977 -0.47554,-29.40025c4.41933,-20.75585 15.3863,-24.96608 29.85603,-25.48425c20.77576,-0.74399 24.79696,12.48506 27.42961,23.79025c1.84023,7.90235 1.22737,18.92724 -0.34916,28.57116c-0.29681,1.81562 -0.64503,3.53628 -1.01385,5.18759c-0.83103,3.72079 -19.88431,-2.55107 -20.57197,0.75868c-8.94969,5.90045 17.3016,14.69332 17.12099,16.57789c-0.16584,1.73049 -0.3345,3.38223 -0.86595,5.73209c-1.15349,5.10023 -6.83176,10.81045 -11.83191,15.83737c-4.57165,4.59612 -7.90818,8.33063 -12.38271,8.22359c-5.04445,-0.12068 -8.96195,-6.22631 -14.50155,-12.44391c-4.38889,-4.92605 -8.03319,-9.29321 -8.61781,-12.77419z" fill="#000000" stroke="none" stroke-width="0" stroke-linecap="butt"/><path d="M217.45499,124.8777c-0.94553,-5.09249 -3.54204,-4.25562 -2.79146,-22.70284c0.35027,-8.60857 1.58748,-16.65181 3.61898,-20.76639c6.59974,-13.36702 19.1364,-15.03633 24.02784,-15.03633c4.16055,0 17.20519,1.95486 23.80596,13.20532c1.38921,2.3678 2.77649,5.92394 3.26517,9.93109c0.50548,4.1449 0.08725,8.75725 0.02672,12.11153c-0.10696,5.92699 0.23361,11.79227 -1.04001,17.97375c-0.62848,3.05035 -22.99489,-1.78899 -23.67417,0.98078c-1.0462,16.4574 19.74543,17.61078 19.11629,20.72619c-1.44877,7.17412 -1.89749,7.23551 -4.27323,10.21882c-2.5746,3.23301 -6.22007,6.15229 -9.11253,8.91074c-2.62204,2.50056 -5.47801,6.21315 -8.77908,6.21315c-4.10432,0 -6.9048,-3.78999 -10.07829,-7.4154c-4.79276,-5.47527 -11.46201,-7.91572 -13.04194,-17.80658c-0.31096,-1.94672 20.89278,-8.38181 20.69399,-23.64839c-0.03815,-2.92962 -21.18555,10.22132 -21.76424,7.10456z" fill="#ffffff" stroke="none" stroke-width="0" stroke-linecap="butt"/><path d="M217.45499,124.8777c-0.94553,-5.09249 -3.54204,-4.25562 -2.79146,-22.70284c0.35027,-8.60857 1.58748,-16.65181 3.61898,-20.76639c6.38349,-12.92901 18.32119,-14.91437 23.52285,-15.0306c0.06486,0.76255 0.13074,1.52499 0.19921,2.28715c0.16506,1.83746 0.4057,3.67139 0.45962,5.51547c0.0994,3.39934 -6.11937,5.80727 -6.22475,9.20643c-0.23175,7.4751 -0.80512,15.38352 -1.04657,22.8905c-0.11025,3.4279 1.48657,6.7721 0.32186,9.95312c-1.12547,3.07385 -1.51147,6.00477 -4.22051,8.1231c-4.01218,3.13732 -8.93836,2.74601 -13.21086,5.14933c-0.02304,0.01297 -0.04593,0.02608 -0.06867,0.03936c-0.10323,-1.54772 -0.27256,-3.11814 -0.5597,-4.66463z" fill="#000000" stroke="none" stroke-width="0" stroke-linecap="butt"/><path d="" fill="#000000" stroke="none" stroke-width="0" stroke-linecap="butt"/><path d="M221.02026,147.8828c0.60483,0.11422 1.2289,0.17397 1.86693,0.17397c0.1139,0 0.22735,-0.0019 0.34033,-0.00568c0.32839,-0.01098 0.65277,-0.0378 0.9724,-0.07971c0.01698,0.02694 0.0175,0.06573 -0.00251,0.11963c-0.35253,0.94914 -0.89573,1.81157 -1.52972,2.63071c-0.76532,-0.88492 -1.47501,-1.84795 -2.09857,-2.93499c0.14911,0.03539 0.29952,0.06745 0.45114,0.09608z" fill="#000000" stroke="none" stroke-width="0" stroke-linecap="butt"/><path d="M217.45499,124.8777c-0.94553,-5.09249 -3.54204,-4.25562 -2.79146,-22.70284c0.10517,-2.58478 0.2903,-5.1186 0.55289,-7.51041c5.92945,-1.53776 11.74715,-3.36926 17.71144,-4.82536c0.11309,1.57702 0.32858,3.11059 0.35045,4.16042c0.06918,3.32036 -0.06918,6.64289 0,9.96326c0.08068,3.87268 3.27322,11.91675 0.07867,15.25284c-3.83274,4.00257 -10.21564,5.15438 -15.67558,7.04793c-0.06595,-0.46324 -0.14097,-0.9256 -0.22642,-1.38583z" fill="#481310" stroke="none" stroke-width="0" stroke-linecap="butt"/><path d="M217.45499,124.8777c-0.94553,-5.09249 -3.54204,-4.25562 -2.79146,-22.70284c0.10517,-2.58478 0.2903,-5.1186 0.55289,-7.51041c5.92945,-1.53776 11.74715,-3.36926 17.71144,-4.82536c0.11309,1.57702 0.32858,3.11059 0.35045,4.16042c0.06918,3.32036 -14.14247,-3.46429 -14.20123,12.26616c0.08068,3.87268 4.06426,18.10432 -1.39568,19.99787c-0.06595,-0.46324 -0.14097,-0.9256 -0.22642,-1.38583z" fill="#571c18" stroke="none" stroke-width="0" stroke-linecap="butt"/><path d="M221.65563,146.14882c0.66527,-0.01755 -0.47731,0.8835 -1.1427,1.53921c-0.17398,-0.30797 -0.34107,-0.62586 -0.50058,-0.95471c0.56902,-0.14757 1.11836,-0.34399 1.64328,-0.58451z" fill="#481310" stroke="none" stroke-width="0" stroke-linecap="butt"/><path d="M228.43894,105.7875c5.64136,0 10.21459,4.47197 10.21459,9.98843c0,5.51646 -4.7706,9.74171 -10.41197,9.74171c-5.64137,0 -10.31875,-4.22525 -10.31875,-9.74171c0,-5.51645 4.87476,-9.98843 10.51613,-9.98843z" fill="#000000" stroke="none" stroke-width="0" stroke-linecap="butt"/><g stroke="none" stroke-width="0" stroke-linecap="butt"><path d="M254.99887,105.81212c5.64136,0 10.21459,4.47198 10.21459,9.98844c0,5.51645 -4.72127,9.64301 -10.36263,9.64301c-3.16285,0 -6.23667,-1.06026 -8.11031,-3.26759c-1.46826,-1.72975 -1.95625,-3.95178 -1.95625,-6.37542c0,-5.51646 4.57322,-9.98844 10.21459,-9.98844z" fill="#000000"/><path d="M254.99887,106.0665c4.97523,0 8.70691,4.08541 8.70691,9.03202c0,4.94661 -3.87973,8.68387 -8.85495,8.68387c-4.97523,0 -8.8604,-3.81265 -8.8604,-8.75926c0,-4.94661 4.03322,-8.95663 9.00844,-8.95663z" fill="#ffffff"/></g><path d="M213.48461,109.11873l0.13102,-1.63769l7.19167,-1.18423l0.32653,-1.46623c0,0 3.68245,-1.72538 7.2562,-2.03587c1.63636,-0.14217 6.94784,-0.92478 6.94784,-0.92478l-0.10265,6.94912c0,0 -5.05489,-2.52156 -5.68947,-2.48151c-6.17314,0.38961 -6.13035,1.25866 -10.09703,1.94554c-3.96668,0.68688 -5.96411,0.83565 -5.96411,0.83565z" fill="#000000" stroke="none" stroke-width="0" stroke-linecap="butt"/><path d="M257.6176,102.80021c-6.5361,-0.02665 -11.93017,2.50832 -11.93017,2.50832l-0.26203,-4.42239c0,0 5.28442,-1.73418 9.39801,-1.86949c4.11358,-0.13531 7.12519,0.66021 7.12519,0.66021l0.19551,1.20419l7.3882,2.16685l0.13101,1.6377c0,0 -5.86035,-1.86016 -12.04572,-1.88538z" data-paper-data="{&quot;index&quot;:null}" fill="#000000" stroke="none" stroke-width="0" stroke-linecap="butt"/><path d="M227.91533,110.8276c2.71342,0 4.91309,2.23007 4.91309,4.98099c0,2.75092 -2.19966,4.98098 -4.91309,4.98098c-2.71342,0 -4.91309,-2.23006 -4.91309,-4.98098c0,-2.75092 2.19966,-4.98099 4.91309,-4.98099z" fill="#59220f" stroke="none" stroke-width="0" stroke-linecap="butt"/><g stroke="none" stroke-width="0" stroke-linecap="butt"><path d="M251.65814,142.64434c2.43322,0.87546 10.2794,7.05419 10.47387,7.89462c0.00356,0.0154 -3.60646,9.29004 -12.96854,11.59487c-7.23925,1.78221 -13.43818,0.88109 -18.20144,-1.88108c-7.19709,-4.17354 -11.66964,-12.24393 -11.66964,-12.24393c0,0 6.63104,-6.09973 11.50157,-6.82046c2.11766,-0.52185 6.53509,1.14523 10.9357,1.53594c3.93385,0.34927 7.86693,-0.63473 9.92847,-0.07996z" fill="#000000"/><path d="M248.41732,148.38648c-5.08181,-0.86959 -5.36943,-0.42272 -12.97645,-0.61247c-2.67684,-0.06677 -12.7276,-0.53931 -12.7276,-0.53931c0,0 1.56041,-0.94352 3.53292,-1.97386c1.67153,-0.87312 3.55022,-1.86134 5.95024,-1.84127c3.4543,0.02889 6.59444,0.57359 8.43826,0.81706c2.77328,0.3662 6.96176,-0.35181 10.32712,0.28899c1.21452,0.23126 7.99213,5.22008 7.99213,5.22008c0,0 -4.68919,-0.35861 -10.53662,-1.35921z" fill="#ffffff"/><path d="M257.7094,154.8709c-0.88438,0.90954 -7.93807,7.40406 -20.01681,5.16963c-2.61289,-0.44849 -5.50121,-2.08763 -7.33278,-3.09571c-6.08308,-3.34805 -7.45763,-7.86977 -7.45763,-7.86977c0,0 4.41497,0.84888 9.07396,1.85962c3.52251,0.76418 7.07661,1.72777 9.58111,1.87906c3.27078,0.19758 8.06576,-0.66675 11.93025,-1.08341c3.8982,-0.42029 6.85182,-0.39382 6.85182,-0.39382c0,0 -0.5358,1.38068 -2.62992,3.5344z" fill="#ffffff"/><path d="M250.49934,150.18134c-0.49275,0.07125 -5.13779,0.46811 -10.00222,0.1746c-4.08889,-0.24672 -7.33034,-1.18717 -7.67372,-1.18749c-0.40138,-0.00236 3.85077,-0.13443 8.91682,0.13737c5.0568,0.27131 8.15582,0.75921 8.75912,0.87552z" fill="#ffffff"/></g><path d="M255.06788,111.04672c2.71342,0 4.91309,2.23006 4.91309,4.98098c0,2.75092 -2.19966,4.98098 -4.91309,4.98098c-2.71342,0 -4.91309,-2.23006 -4.91309,-4.98098c0,-2.75091 2.19966,-4.98098 4.91309,-4.98098z" fill="#000000" stroke="none" stroke-width="0" stroke-linecap="butt"/><g stroke="none" stroke-width="0" stroke-linecap="butt"><path d="M239.10584,136.99658c0,0 -0.06312,-8.68679 -0.28083,-12.38791c-0.17487,-2.97289 -0.92532,-8.11666 -0.92532,-8.11666c0,0 -0.33218,-1.57308 0.02454,-1.56279c1.13657,0.03279 7.81544,1.78895 7.81544,1.78895l-0.37692,20.27841c0,0 0.82184,1.93768 0.72844,3.69896c-0.06976,1.31553 -0.97469,4.70292 -1.02626,5.67536c-0.11348,2.13998 -0.40577,3.89334 -0.40577,3.89334l-4.14036,-0.01448c0,0 -0.12488,-2.01528 -0.87252,-4.2695c-0.71961,-2.16969 -2.11593,-4.55553 -2.18508,-5.58924c-0.19994,-2.9885 1.64464,-3.39445 1.64464,-3.39445z" fill="#000000"/><path d="M241.46787,149.27452c0,0 -0.2909,-3.80356 -0.49735,-8.24071c-0.20504,-4.40659 -0.32473,-9.70108 -0.5883,-13.30096c-0.42508,-5.80554 -1.77895,-15.81414 -1.77895,-15.81414l6.10614,1.88461l-0.75385,35.43068z" fill="#ffffff"/><path d="M239.05027,138.1746c0.34401,0 0.62288,4.77542 0.62288,4.77542c0,0 -1.24576,-1.59275 -1.24576,-2.7251c0,-1.13236 0.27887,-2.05032 0.62288,-2.05032z" fill="#ffffff"/></g><path d="M210.79827,100.36127v-21.15411c0,0 21.21081,-18.67174 31.8391,-18.67174c9.85589,0 29.78844,18.67174 29.78844,18.67174l0.9522,14.8825c0,0 -4.02246,-9.83788 -7.66885,-7.46317c-9.67233,6.2991 -26.0271,10.16832 -26.0271,10.16832c0,0 2.88671,-3.50484 4.29889,-5.2734c0.74057,-0.92746 1.4281,-2.38433 1.4281,-2.38433c0,0 -9.19557,5.48816 -17.51331,7.89872c-11.3727,3.29591 -17.09747,3.32547 -17.09747,3.32547z" fill="#000000" stroke="none" stroke-width="0" stroke-linecap="butt"/><path d="M217.7426,116.36827c0,0 -0.16627,-2.22288 0.81062,-4.59656c1.16899,-2.84044 3.93233,-5.91812 9.99819,-5.95021c4.4123,-0.02334 6.77688,1.48178 8.31843,3.36171c2.53146,3.08714 2.42486,7.54013 2.42486,7.54013z" fill="#000000" stroke="none" stroke-width="0" stroke-linecap="butt"/><path d="M244.70356,116.38968c0,0 -0.53134,-3.2454 0.9459,-6.12374c1.32927,-2.59004 4.34124,-4.84529 9.8629,-4.81608c11.13492,0.0589 11.0941,11.29489 11.0941,11.29489c0,0 -2.44429,-4.47135 -11.67828,-4.50346c-6.65206,-0.02313 -10.22462,4.14839 -10.22462,4.14839z" data-paper-data="{&quot;index&quot;:null}" fill="#000000" stroke="none" stroke-width="0" stroke-linecap="butt"/><path d="M273.71947,107.66963l0.16087,-26.86518" fill="none" stroke="#59220f" stroke-width="3.5" stroke-linecap="round"/><path d="M219.31482,114.79608c0,0 0.35558,-7.49149 8.31049,-8.0857c0.33844,-0.02528 -1.02751,3.77747 0.32418,5.09891c2.45356,2.39865 9.90407,2.9868 9.90407,2.9868z" fill="#481310" stroke="none" stroke-width="0" stroke-linecap="butt"/><path d="M269.34146,126.00345c0,0 0.08022,-4.67276 0.81982,-11.47943c0.50912,-4.68559 0.3938,-8.64751 0.3938,-8.64751l7.08116,-2.15195l-3.32292,29.06823z" fill="#8d6e47" stroke="none" stroke-width="0" stroke-linecap="butt"/><path d="M271.65754,107.53061c0.39439,-0.48297 1.12455,-0.67402 1.85774,-0.69844c0.33955,-0.01131 -0.59085,2.05884 0.19737,3.17543c0.49198,0.69693 -1.09996,0.76786 -1.09996,0.76786c0,0 2.94545,-3.57322 3.03826,-3.47759c0.09839,0.10139 -1.73556,5.58854 -1.43965,8.82569c0.16627,1.81893 -0.82983,0.65304 -0.82983,0.65304c0,0 2.23554,-4.56718 1.98702,-2.50195c-0.23578,1.95938 -0.53319,4.11101 -0.82993,6.1512c-1.369,0.00662 -2.73874,-0.01045 -4.11089,-0.05734c0.25101,-4.68053 0.7382,-12.23579 1.22987,-12.8379z" fill="#a79262" stroke="none" stroke-width="0" stroke-linecap="butt"/><path d="M273.40736,128.2575c0,1.04994 -2.99943,-3.94282 -2.99943,-4.99277c0,-0.06395 0.01714,-0.49232 0.04878,-1.17261c1.29029,0.04439 2.57851,0.06293 3.86598,0.06054c-0.49893,3.31129 -0.91533,5.88883 -0.91533,6.10483z" fill="#a79262" stroke="none" stroke-width="0" stroke-linecap="butt"/><path d="M273.81841,85.80461l0.17806,-8.90278" fill="none" stroke="#6d4321" stroke-width="6" stroke-linecap="round"/><path d="M276.15898,77.21857c0,1.13858 -2.68004,7.36449 -3.87855,7.36449c-0.41924,0 -0.46162,-6.22591 -0.46162,-7.36449c0,-1.13858 0.97158,-2.06158 2.17009,-2.06158c1.19851,0 2.17009,0.923 2.17009,2.06158z" fill="#8d6e47" stroke="none" stroke-width="0" stroke-linecap="butt"/></g></g></svg>