<svg version="1.1" xmlns="http://www.w3.org/2000/svg" xmlns:xlink="http://www.w3.org/1999/xlink" width="40.75" height="40.75" viewBox="0,0,40.75,40.75"><g transform="translate(-219.625,-159.625)"><g data-paper-data="{&quot;isPaintingLayer&quot;:true}" stroke-miterlimit="10" stroke-dasharray="" stroke-dashoffset="0" style="mix-blend-mode: normal"><path d="M219.625,180c0,-11.2528 9.1222,-20.375 20.375,-20.375c11.2528,0 20.375,9.1222 20.375,20.375c0,11.2528 -9.1222,20.375 -20.375,20.375c-11.2528,0 -20.375,-9.1222 -20.375,-20.375z" fill="#000000" fill-rule="nonzero" stroke="#727272" stroke-width="0" stroke-linecap="butt" stroke-linejoin="miter"/><path d="M228.03969,176.52522h23.92062c1.85508,0 3.34852,1.49344 3.34852,3.34852v0.25253c0,1.85505 -1.49341,3.34852 -3.34852,3.34852h-23.92062c-1.85505,0 -3.34852,-1.49344 -3.34852,-3.34852v-0.25253c0,-1.85505 1.49344,-3.34852 3.34852,-3.34852z" fill="#ffffff" fill-rule="evenodd" stroke="none" stroke-width="4.43922" stroke-linecap="round" stroke-linejoin="round"/><path d="M247.53166,166.67144l0.21882,0.12605c1.60748,0.92592 2.15616,2.96549 1.23025,4.57294l-11.93943,20.7279c-0.92594,1.60751 -2.96549,2.15616 -4.57294,1.23025l-0.21883,-0.12605c-1.60748,-0.92592 -2.15617,-2.96545 -1.23025,-4.57293l11.93944,-20.72791c0.92592,-1.60748 2.96549,-2.15616 4.57294,-1.23025z" data-paper-data="{&quot;index&quot;:null}" fill="#ffffff" fill-rule="evenodd" stroke="none" stroke-width="4.43922" stroke-linecap="round" stroke-linejoin="round"/><path d="M237.04129,167.90169l11.93943,20.7279c0.92592,1.60748 0.37723,3.64701 -1.23025,4.57293l-0.21882,0.12604c-1.60745,0.9259 -3.64699,0.37726 -4.57293,-1.23025l-11.93943,-20.7279c-0.9259,-1.60745 -0.37723,-3.64701 1.23025,-4.57293l0.21882,-0.12604c1.60745,-0.9259 3.64701,-0.37723 4.57293,1.23025z" fill="#ffffff" fill-rule="evenodd" stroke="none" stroke-width="4.43922" stroke-linecap="round" stroke-linejoin="round"/><path d="M229.07143,180.00001c0,-6.03568 4.89289,-10.92857 10.92857,-10.92857c6.03568,0 10.92857,4.89289 10.92857,10.92857c0,6.03568 -4.89289,10.92857 -10.92857,10.92857c-6.03568,0 -10.92857,-4.89289 -10.92857,-10.92857z" fill="#ffffff" fill-rule="nonzero" stroke="none" stroke-width="0" stroke-linecap="butt" stroke-linejoin="miter"/><path d="M232.61344,180c0,-4.07948 3.30707,-7.38655 7.38655,-7.38655c4.07948,0 7.38655,3.30707 7.38655,7.38655c0,4.07948 -3.30707,7.38655 -7.38655,7.38655c-4.07948,0 -7.38655,-3.30707 -7.38655,-7.38655z" fill="#000000" fill-rule="nonzero" stroke="none" stroke-width="0" stroke-linecap="butt" stroke-linejoin="miter"/><path d="M236.52521,180.00001c0,-1.91907 1.55572,-3.47479 3.47479,-3.47479c1.91907,0 3.47479,1.55572 3.47479,3.47479c0,1.91907 -1.55572,3.47479 -3.47479,3.47479c-1.91907,0 -3.47479,-1.55572 -3.47479,-3.47479z" fill="#ffffff" fill-rule="nonzero" stroke="none" stroke-width="0" stroke-linecap="butt" stroke-linejoin="miter"/></g></g></svg>