<svg version="1.1" xmlns="http://www.w3.org/2000/svg" xmlns:xlink="http://www.w3.org/1999/xlink" width="106.38198" height="134.25976" viewBox="0,0,106.38198,134.25976"><g transform="translate(-186.80901,-112.87012)"><g data-paper-data="{&quot;isPaintingLayer&quot;:true}" fill-rule="nonzero" stroke-linejoin="miter" stroke-miterlimit="10" stroke-dasharray="" stroke-dashoffset="0" style="mix-blend-mode: normal"><g><g><path d="M291.22751,178.41309c0.27735,2.08881 -0.41137,3.71385 -0.56911,5.48895c-0.26855,3.02221 -0.23377,5.64059 -0.23377,5.64059c0,0 -1.40766,0.24625 -2.57684,0.04366c-0.24424,1.12065 -0.54589,2.62988 -0.60674,3.50114c-0.13362,1.9132 0.19647,5.62326 0.19647,5.62326l-2.13488,-1.0564c0,0 -1.36655,2.63083 -1.59326,4.22587c-0.23841,1.67742 0.19615,5.60397 0.19615,5.60397l-2.27506,-0.84652c0,0 0.82286,5.38668 -1.4505,10.77056c-2.58161,6.1139 -6.86523,8.31935 -6.86523,8.31935l-2.31115,-2.3185c0,0 -3.75082,3.78166 -10.05019,7.22825c0.14561,-9.81184 -10.57491,-57.68421 -6.56471,-70.98111c7.18298,-23.81711 30.94934,-12.59149 30.94934,-12.59149l2.55588,16.45083l2.22854,3.37416l-1.04408,0.26054c0,0 0.57266,1.38773 0.85268,1.82382c0.82061,1.27799 3.25994,2.79098 3.25994,2.79098c0,0 -1.73696,1.00996 -3.48885,1.18892c0.55882,1.34057 1.23954,3.30637 1.52538,5.45914z" data-paper-data="{&quot;index&quot;:null}" fill="#000000" stroke="none" stroke-width="NaN" stroke-linecap="butt"/><path d="M191.14193,171.15858c0,0 1.47256,1.43577 0.72307,1.67218c-2.08954,0.65911 -5.05599,-1.06575 -5.05599,-1.06575c0,0 2.43933,-1.51299 3.25994,-2.79098c0.28001,-0.43608 0.85268,-1.82382 0.85268,-1.82382l-1.04409,-0.26054l2.22854,-3.37416c0,0 0.1212,-8.19127 2.89759,-17.65729c0.01242,-0.04229 0.86476,1.31862 0.00757,1.01973c-1.52309,-0.53106 -2.06986,-3.51413 -2.06986,-3.51413c0,0 1.24514,-0.04033 2.23039,-0.62445c0.83741,-0.49646 1.4105,-2.42361 1.4105,-2.42361c0,0 -0.3748,-1.75097 0.71176,-5.05833c0.39407,-1.19954 1.36531,-1.80878 2.18027,-3.00652c0.84536,-1.24243 1.52792,-3.05176 1.52792,-3.05176c0,0 1.64828,1.9245 0.87605,3.99748c-0.27766,0.74535 -1.01077,0.62534 -1.01077,0.62534c0,0 1.07082,-3.32317 4.08802,-6.59114c1.52194,-1.64845 4.05999,-2.26377 5.69156,-3.19183c1.96807,-1.11946 5.51341,-3.66518 5.51341,-3.66518l0.51084,2.65627c0,0 0.83986,-3.62013 7.36429,-6.43472c3.63818,-1.56949 6.55719,0.10494 6.55719,0.10494l-2.66867,-2.90614c0,0 3.45269,0.53442 6.88259,0.73387c2.45836,0.14296 2.96975,-1.94471 8.48138,-1.62446c5.49481,0.31927 8.06312,2.143 11.24994,3.24393c3.59084,1.24051 9.45612,2.35225 9.45612,2.35225c0,0 -1.2704,2.24411 -3.22771,1.96023c-0.46456,-0.06738 0.01096,-0.7791 0.01096,-0.7791c0,0 2.35061,0.02427 3.48019,0.26305c2.01705,0.42639 3.50083,1.21384 3.50083,1.21384l-2.33544,1.29394c0,0 3.64484,-0.70157 5.9438,0.15411c2.87629,1.07056 4.57652,3.79268 5.06767,4.36305c1.14268,1.32697 1.61639,5.29857 3.60653,8.51829c1.47931,2.39331 4.73779,4.41008 4.73779,4.41008c0,0 -2.11943,0.77422 -1.23541,2.56226c1.01276,2.0484 3.52957,2.45096 3.52957,2.45096c0,0 -0.77069,3.8655 -1.75702,3.66769c-0.6133,-0.123 0.45873,-1.93981 0.54726,-1.33792c0.80285,5.45796 -15.50293,75.39927 -15.50293,75.39927c0,0 -5.68423,6.97507 -13.53493,10.6209c-7.56946,3.51521 -14.63339,2.96596 -17.96538,2.90723c-17.51509,-0.30867 -29.86354,-12.75863 -29.86354,-12.75863l-2.31115,2.3185c0,0 -4.28362,-2.20544 -6.86523,-8.31935c-2.27336,-5.38388 -1.4505,-10.77056 -1.4505,-10.77056l-2.27506,0.84652c0,0 0.43456,-3.92654 0.19615,-5.60397c-0.2267,-1.59504 -1.59326,-4.22587 -1.59326,-4.22587l-2.13488,1.0564c0,0 0.33009,-3.71006 0.19647,-5.62326c-0.10544,-1.50963 -0.93383,-4.93476 -0.93383,-4.93476c0,0 1.86912,0.43642 1.69151,0.71367c-0.78677,1.22816 -4.2794,2.4434 -4.2794,2.4434c0,0 0.37292,-4.38548 0.10438,-7.40769c-0.15773,-1.7751 -0.84646,-3.40015 -0.56911,-5.48895c0.5232,-3.9405 2.36945,-7.2545 2.36945,-7.2545z" fill="#000000" stroke="none" stroke-width="NaN" stroke-linecap="butt"/><g><path d="M278.26597,187.98736c-1.4144,5.773 -9.03168,9.93313 -9.03168,9.93313c0,0 -1.28833,-6.79824 -0.17741,-12.63724c1.11093,-5.839 6.79008,-11.87481 7.92705,-11.6585c1.13698,0.21631 4.90676,-0.43206 1.28204,14.36261z" fill="#000000" stroke="none" stroke-width="0" stroke-linecap="butt"/><path d="M277.59188,186.54483c-1.10291,4.50168 -5.97542,8.79525 -5.97542,8.79525c0,0 -0.02987,-4.46494 0.83641,-9.01809c0.86628,-4.55315 3.30065,-11.62616 4.85195,-11.45747c0.8972,0.09756 3.11354,0.14372 0.28707,11.68032z" fill="#ffffff" stroke="none" stroke-width="0" stroke-linecap="butt"/><path d="M274.2622,179.2789c0,0 2.54906,0.06756 1.73203,3.9856c-0.51239,2.45715 -4.07698,8.88307 -4.07698,8.88307" fill="none" stroke="#000000" stroke-width="0.5" stroke-linecap="round"/><g><path d="M203.16258,173.77284c1.13698,-0.21632 6.81612,5.8195 7.92705,11.6585c1.11092,5.839 -0.17741,12.63723 -0.17741,12.63723c0,0 -7.61728,-4.16012 -9.03168,-9.93313c-3.62472,-14.79467 0.14508,-14.14629 1.28204,-14.36261z" fill="#000000" stroke="none" stroke-width="0" stroke-linecap="butt"/><path d="M202.84173,175.01261c1.5513,-0.16868 3.98567,6.90434 4.85195,11.45748c0.86628,4.55315 0.83641,9.01809 0.83641,9.01809c0,0 -4.87249,-4.29357 -5.97541,-8.79525c-2.82649,-11.5366 -0.61015,-11.58276 0.28706,-11.68032z" fill="#ffffff" stroke="none" stroke-width="0" stroke-linecap="butt"/><path d="M208.22924,192.29563c0,0 -3.56459,-6.42592 -4.07698,-8.88307c-0.81704,-3.91804 1.73203,-3.9856 1.73203,-3.9856" fill="none" stroke="#000000" stroke-width="0.5" stroke-linecap="round"/></g></g></g><g stroke="none" stroke-width="0" stroke-linecap="butt"><path d="M211.37835,217.42138c-1.32863,-7.91095 -0.2431,-8.17724 -1.25358,-15.83621c-0.5579,-4.2286 -2.542,-8.46844 -3.2182,-13.11329c-1.4241,-9.78215 -1.49831,-30.22611 -0.56017,-34.63224c5.20578,-24.44951 18.1244,-29.40898 35.16913,-30.01936c24.47296,-0.87639 29.20976,14.70687 32.31091,28.0239c2.16771,9.30863 1.44579,22.29548 -0.4113,33.65561c-1.13742,6.95776 -2.91579,12.73163 -4.08532,18.36067c-1.44352,6.94777 -0.8863,9.14148 -2.1941,14.92399c-1.35876,6.00785 -8.04752,12.73425 -13.93749,18.65575c-5.38521,5.41403 -9.3155,9.81313 -14.5863,9.68704c-5.94215,-0.14216 -10.55679,-7.33433 -17.08221,-14.6584c-5.16993,-5.80268 -9.46276,-10.947 -10.15141,-15.04745z" fill="#000000"/><g><g><path d="M211.14913,195.25041c-1.11379,-5.99874 -4.17237,-5.01294 -3.28822,-26.74298c0.4126,-10.14053 1.86998,-19.61512 4.263,-24.46192c7.77421,-15.74578 22.54186,-17.71216 28.30377,-17.71216c4.90095,0 20.26698,2.30274 28.04241,15.5553c1.63643,2.78917 3.27059,6.97815 3.84623,11.6984c0.59543,4.88252 0.10278,10.31567 0.03148,14.26687c-0.12599,6.98174 0.27518,13.89079 -1.22509,21.17231c-0.74032,3.59318 -2.19508,7.28583 -2.99524,10.5485c-1.70204,6.94015 -1.63265,11.35156 -2.37375,15.02138c-1.70659,8.45081 -2.23516,8.52312 -5.03368,12.03733c-3.03277,3.80835 -7.32698,7.24714 -10.73417,10.49647c-3.08865,2.94555 -6.45286,7.31883 -10.34138,7.31883c-4.83471,0 -8.13356,-4.46445 -11.8718,-8.73502c-5.64567,-6.44963 -13.50176,-9.32438 -15.36285,-20.97539c-0.74979,-4.69395 0.07208,-12.3097 -1.26071,-19.48793z" fill="#ffffff"/><path d="M268.12747,199.57472c-0.68715,2.80188 -1.36517,7.28675 -1.36517,7.28675c0,0 -6.57194,3.12662 -13.02577,1.19686c-6.36685,-1.90374 -9.70189,-7.36434 -9.70189,-7.36434l-7.35921,0.15037c0,0 -3.59794,3.70767 -6.96955,4.96109c-3.37162,1.25342 -5.69785,1.4517 -5.69785,1.4517c0,0 -1.60354,1.95224 -3.11587,2.82286c-1.51233,0.87062 -3.45503,0.95986 -3.45503,0.95986c0,0 0.66577,0.89975 0.77927,1.75635c0.1459,1.1013 -0.08745,2.49005 -0.08745,2.49005c0,0 -1.97357,-1.4845 -4.04385,-1.57119c-1.57462,-0.06593 -1.67464,1.0271 -1.67526,1.02327c-0.74979,-4.69395 -0.05414,-12.3097 -1.38693,-19.48793c0,0 57.90472,1.06165 57.10456,4.32432z" fill="#4a3e3d"/><path d="M205.10547,200.68384c0,0 -8.72348,-16.88488 -8.72348,-23.86158c0,-7.99524 5.46145,-21.23892 5.46145,-21.23892l72.605,-15.42053c0,0 6.32053,25.82719 6.90986,36.97208c0.43164,8.16271 -9.52231,23.89847 -9.52231,23.89847c0,0 -7.89581,4.41065 -15.94396,3.21999c-7.08283,-1.04784 -11.67024,-6.72298 -11.67024,-6.72298l-7.6943,0.00794c0,0 -6.67835,7.32819 -16.30974,8.09859c-3.38695,0.27092 -6.37036,-0.36855 -8.77222,-1.26967c-0.2065,-0.07746 0.46282,2.25084 0.46282,2.25084c0,0 1.59269,1.23356 4.83999,1.26289c2.71149,0.02449 5.99557,-0.9986 5.99557,-0.9986c0,0 -5.29806,4.19134 -10.11113,4.682c-3.42277,0.34893 -2.21928,-0.57907 -2.21928,-0.57907z" fill="#000000"/><path d="M211.78104,213.80713c-1.36866,1.77969 0,-3.28733 0,-3.28733c0,0 2.7068,-0.30825 4.10915,0.49309c1.40235,0.80134 1.64366,2.79422 1.64366,2.79422c0,0 -2.81732,-3.8171 -5.75281,0z" fill="#000000"/></g><path d="M203.30779,166.3711v-24.91864c0,0 24.98543,-21.99451 37.5051,-21.99451c11.60982,0 35.08951,21.99451 35.08951,21.99451l1.12165,17.53095c0,0 -4.73829,-11.5886 -9.03358,-8.7913c-11.39359,7.42007 -30.65881,11.97785 -30.65881,11.97785c0,0 3.40042,-4.12855 5.06391,-6.21184c0.87236,-1.09251 1.68224,-2.80864 1.68224,-2.80864c0,0 -10.83199,6.46482 -20.62993,9.30436c-13.39656,3.88244 -20.14009,3.91726 -20.14009,3.91726z" fill="#000000"/></g></g><g stroke="none" stroke-linecap="butt"><g stroke-width="0"><path d="M191.45365,158.80502c0.15178,-1.7736 0.91753,-2.98876 0.91753,-2.98876c0,0 -0.67438,-2.33709 -0.31841,-5.12856c0.35176,-2.75845 1.63367,-4.70662 1.63367,-4.70662c0,0 16.79949,-5.21211 48.20187,-4.85641c31.40239,0.3557 44.64236,5.85478 44.64236,5.85478c0,0 1.01092,1.33231 1.06982,3.71211c0.04459,1.8016 -0.54185,3.52809 -0.54185,3.52809c0,0 1.12884,0.9392 1.37471,3.10772c0.28773,2.53764 -0.43937,4.70225 -0.43937,4.70225c0,0 -16.69418,-5.42328 -45.82392,-6.29114c-24.27209,-0.72314 -50.04579,7.09356 -50.04579,7.09356c0,0 -0.86444,-1.76227 -0.67062,-4.02702z" fill="#773128"/><path d="M193.70775,156.42421c0.14472,-1.24364 0.8749,-2.0957 0.8749,-2.0957c0,0 -0.64305,-1.63876 -0.30363,-3.59613c0.33542,-1.93422 1.55775,-3.30027 1.55775,-3.30027c0,0 2.05436,-0.4687 6.06688,-1.05895c-0.93085,1.65335 -1.45864,3.54233 -1.45864,5.54846c0,2.12389 0.59158,4.1165 1.62672,5.83719c-4.79243,0.83522 -7.72451,1.48915 -7.72451,1.48915c0,0 -0.82428,-1.2357 -0.63945,-2.82374z" fill="#894939"/><g fill="#894939"><path d="M284.36679,148.13215c0,0 0.96395,0.9342 1.02011,2.60292c0.04251,1.26328 -0.51668,2.47389 -0.51668,2.47389c0,0 1.07638,0.65856 1.31083,2.17913c0.27436,1.77939 -0.41895,3.29721 -0.41895,3.29721c0,0 -2.61603,-0.62494 -7.57754,-1.40868c1.14669,-1.7853 1.8074,-3.88322 1.8074,-6.12777c0,-1.47083 -0.2837,-2.87869 -0.80195,-4.17688c3.52523,0.65577 5.17677,1.16019 5.17677,1.16019z"/><path d="M241.79884,144.0268c1.54835,0.0129 3.05038,0.03544 4.50676,0.06659c-0.86738,1.60871 -1.35676,3.43184 -1.35676,5.36358c0,1.75989 0.40618,3.42966 1.13434,4.92926c-1.30949,-0.04461 -2.64821,-0.0823 -4.01566,-0.11227c-2.13512,-0.04678 -4.28243,-0.04259 -6.4215,0.00355c0.6301,-1.41191 0.97861,-2.96475 0.97861,-4.59494c0,-2.04616 -0.54906,-3.97047 -1.51483,-5.64716c2.14594,-0.02385 4.37595,-0.02788 6.68904,-0.00861z"/></g></g><g stroke-width="0.5"><g><g><path d="M204.10844,149.33321c0,-7.39063 6.55691,-13.38194 14.64528,-13.38194c8.08837,0 14.64527,5.9913 14.64527,13.38194c0,7.39063 -6.5569,13.38194 -14.64527,13.38194c-8.08837,0 -14.64527,-5.9913 -14.64527,-13.38194z" fill="#59220f"/><g><path d="M203.11352,150.5696c0,-6.94638 6.17529,-12.57753 13.79289,-12.57753c7.6176,0 13.79288,5.63115 13.79288,12.57753c0,6.94638 -6.17528,12.57753 -13.79288,12.57753c-7.6176,0 -13.79289,-5.63115 -13.79289,-12.57753z" fill="#6d4321"/><path d="M204.53146,150.5696c0,-4.95604 3.50367,-9.16587 8.37556,-10.68221c-0.45204,1.27772 -0.69788,2.65186 -0.69788,4.08302c0,6.80029 5.55051,12.31301 12.39741,12.31301c1.11846,0 2.20232,-0.1471 3.23307,-0.42289c-2.07951,3.56576 -6.19542,5.9936 -10.9332,5.9936c-6.8345,0 -12.37495,-5.05226 -12.37495,-11.28455z" fill="#8d6e47"/></g></g><path d="M205.90317,150.5696c0,-5.54146 4.71815,-10.03369 10.5383,-10.03369c5.82015,0 10.53829,4.49223 10.53829,10.03369c0,5.54146 -4.71815,10.0337 -10.53829,10.0337c-5.82015,0 -10.5383,-4.49223 -10.5383,-10.0337z" fill="#000000"/></g><g data-paper-data="{&quot;index&quot;:null}"><g><path d="M277.73779,149.33321c0,7.39063 -6.55691,13.38194 -14.64528,13.38194c-8.08837,0 -14.64527,-5.9913 -14.64527,-13.38194c0,-7.39063 6.5569,-13.38194 14.64527,-13.38194c8.08837,0 14.6453,5.9913 14.6453,13.38194z" fill="#59220f"/><g><path d="M264.93982,163.14714c-7.6176,0 -13.79288,-5.63115 -13.79288,-12.57753c0,-6.94638 6.17528,-12.57753 13.79288,-12.57753c7.6176,0 13.79289,5.63115 13.79289,12.57753c0,6.94638 -6.17529,12.57753 -13.79289,12.57753z" fill="#6d4321"/><path d="M277.31477,150.56959c0,6.23229 -5.54045,11.28455 -12.37495,11.28455c-4.73777,0 -8.85368,-2.42784 -10.9332,-5.9936c1.03075,0.27578 2.11461,0.42289 3.23307,0.42289c6.8469,0 12.39741,-5.51272 12.39741,-12.31301c0,-1.43116 -0.24585,-2.80531 -0.69789,-4.08302c4.87188,1.51634 8.37556,5.72617 8.37556,10.68221z" fill="#8d6e47"/></g></g><path d="M265.40476,160.6033c-5.82012,0 -10.53829,-4.49223 -10.53829,-10.0337c0,-5.54145 4.71814,-10.03369 10.53829,-10.03369c5.82015,0 10.5383,4.49222 10.5383,10.03369c0,5.54146 -4.71817,10.0337 -10.5383,10.0337z" fill="#000000"/></g></g></g></g></g></g></svg>