<svg version="1.1" xmlns="http://www.w3.org/2000/svg" xmlns:xlink="http://www.w3.org/1999/xlink" width="34.17311" height="34.17311" viewBox="0,0,34.17311,34.17311"><g transform="translate(-222.91345,-162.91345)"><g data-paper-data="{&quot;isPaintingLayer&quot;:true}" stroke="none" stroke-miterlimit="10" stroke-dasharray="" stroke-dashoffset="0" style="mix-blend-mode: normal"><path d="M229.98312,162.91346h20.03379c3.9166,0 7.06966,3.15307 7.06966,7.06966v20.03379c0,3.91659 -3.15306,7.06966 -7.06966,7.06966h-20.03379c-3.91659,0 -7.06966,-3.15307 -7.06966,-7.06966v-20.03379c0,-3.91659 3.15307,-7.06966 7.06966,-7.06966z" fill="#59220f" fill-rule="evenodd" stroke-width="4.43922" stroke-linecap="round" stroke-linejoin="round"/><g fill-rule="nonzero" stroke-width="0" stroke-linecap="butt" stroke-linejoin="miter"><path d="M225.4305,188.47937l15.48761,-23.51963l10.62681,6.99772l-15.48761,23.51963z" fill="#000000"/><path d="M227.07955,187.43605l13.53161,-20.54923l9.2847,6.11395l-13.53161,20.54923z" fill="#000000"/><path d="M235.6739,194.59838l15.48761,-23.51963l3.40801,-0.18706l-15.48761,23.51963z" fill="#000000"/><path d="M225.71815,188.04255l15.48761,-23.51963l10.62681,6.99772l-15.48761,23.51963z" fill="#6d4321"/><path d="M227.3672,186.99923l13.53161,-20.54923l9.2847,6.11395l-13.53161,20.54923z" fill="#000000"/></g></g></g></svg>