<svg version="1.1" xmlns="http://www.w3.org/2000/svg" xmlns:xlink="http://www.w3.org/1999/xlink" width="96.50075" height="254.91626" viewBox="0,0,96.50075,254.91626"><g transform="translate(-193.18106,-48.9512)"><g data-paper-data="{&quot;isPaintingLayer&quot;:true}" fill-rule="nonzero" stroke-linejoin="miter" stroke-miterlimit="10" stroke-dasharray="" stroke-dashoffset="0" style="mix-blend-mode: normal"><g stroke="none" stroke-linecap="butt"><g><g><g><path d="M200.5813,185.96094c0,-21.10292 18.15751,-38.21022 40.55593,-38.21022c22.39843,0 40.82079,17.1073 40.82079,38.21022c0,2.70002 0.0039,117.77204 0.0039,117.77204l-11.39983,-0.12964l-0.14337,-113.82486c0,0 0.46851,-2.08621 -1.77595,-2.22047c-2.48625,-0.14872 -2.11767,1.68282 -2.11767,1.68282l0.10343,114.38802l-50.32146,0.07847l0.10485,-114.20488c0,0 -0.19035,-2.13951 -1.8053,-2.16297c-2.01199,-0.02922 -1.98832,2.04221 -1.98832,2.04221l-0.29988,114.25674l-11.38239,0.22905c0,0 -0.35473,-116.42094 -0.35473,-117.90653z" fill="#000000" stroke-width="0"/><path d="M202.86649,187.26739c0,-20.02201 17.22746,-36.58913 38.47861,-36.58913c21.25115,0 38.72991,16.56711 38.72991,36.58913c0,2.56173 0.00369,114.79215 0.00369,114.79215l-7.50523,0.21307l0.19503,-111.38321c0,0 0.08238,-5.30397 -4.03353,-5.43136c-4.01424,-0.25313 -4.29562,4.92124 -4.29562,4.92124l-0.56401,112.58967l-45.42645,-0.26162l0.09948,-112.07984c0,0 0.71386,-5.00198 -3.49923,-5.04073c-4.92978,-0.04534 -4.96689,4.92616 -4.96689,4.92616l0.56795,112.12904l-7.39669,-0.11875c0,0 -0.38702,-113.84632 -0.38702,-115.25581z" fill="#ffffff" stroke-width="0"/><g fill="#000000"><path d="M230.02086,204.89621c-5.66213,0 -7.34973,-0.4705 -7.34973,-0.4705l-0.08286,-1.2733c0,0 5.25623,0.13066 7.69744,0.13066c4.20542,0 7.61458,-1.35635 7.61458,-0.87378c0,0.48257 -1.95246,2.48691 -7.87944,2.48691z" stroke-width="0"/><path d="M225.51828,199.65354c0,-0.55682 0.44467,-1.00821 0.99321,-1.00821c0.54854,0 0.99321,0.45139 0.99321,1.00821c0,0.55682 -0.44467,1.00821 -0.99321,1.00821c-0.54854,0 -0.99321,-0.45139 -0.99321,-1.00821z" stroke-width="0.5"/></g><g data-paper-data="{&quot;index&quot;:null}" fill="#000000"><path d="M244.83605,202.4093c0,-0.48257 3.40916,0.87378 7.61458,0.87378c2.44121,0 7.69744,-0.13066 7.69744,-0.13066l-0.08286,1.2733c0,0 -1.6876,0.4705 -7.34973,0.4705c-5.92698,0 -7.87944,-2.00433 -7.87944,-2.48691z" stroke-width="0"/><path d="M256.2247,200.66174c-0.54853,0 -0.99321,-0.45139 -0.99321,-1.00821c0,-0.55682 0.44467,-1.00821 0.99321,-1.00821c0.54853,0 0.99321,0.45139 0.99321,1.00821c0,0.55682 -0.44467,1.00821 -0.99321,1.00821z" stroke-width="0.5"/></g><path d="M240.38331,253.12208c0,-0.55681 0.44467,-1.00821 0.99321,-1.00821c0.54854,0 0.99321,0.45139 0.99321,1.00821c0,0.55681 -0.44467,1.00821 -0.99321,1.00821c-0.54854,0 -0.99321,-0.45139 -0.99321,-1.00821z" fill="#000000" stroke-width="0.5"/></g><path d="M217.72942,303.21657v-19.57113h47.5382v19.57113z" fill="#000000" stroke-width="0"/></g><path d="M201.72665,264.48506v-10.01325l9.82618,4.77961v10.01325c0,0 -1.73623,1.13332 -5.56843,-0.53347c-4.22046,-1.83566 -4.25775,-4.24614 -4.25775,-4.24614z" fill="#000000" stroke-width="0"/><path d="M277.05377,268.73121c-3.8322,1.66679 -5.56843,0.53347 -5.56843,0.53347v-10.01325l9.82618,-4.77961v10.01325c0,0 -0.03729,2.41048 -4.25774,4.24614z" data-paper-data="{&quot;index&quot;:null}" fill="#000000" stroke-width="0"/></g><g fill="#6d4321" stroke-width="0"><path d="M232.50272,289.86511c-15.14679,-4.87944 -17.34111,-139.49914 -17.34111,-139.49914c0,0 35.1282,-5.33877 47.11499,-1.0244c12.30932,4.43045 20.21684,24.00901 20.21684,24.00901c0,0 -8.6149,16.56554 -12.81282,36.77822c-2.13185,10.2647 -1.35632,22.64883 -1.35632,31.86737c0,21.4851 2.76987,44.36802 2.76987,44.36802c0,0 -20.94155,9.18673 -38.59144,3.50093z" data-paper-data="{&quot;index&quot;:null}"/><path d="M212.0935,286.36417c0,0 2.76987,-22.88291 2.76987,-44.36802c0,-9.21854 0.77553,-21.60266 -1.35632,-31.86737c-4.19792,-20.21268 -12.81282,-36.77822 -12.81282,-36.77822c0,0 7.90752,-19.57855 20.21684,-24.009c11.98679,-4.31437 47.11499,1.0244 47.11499,1.0244c0,0 -2.19432,134.61971 -17.34111,139.49915c-17.6499,5.6858 -38.59144,-3.50093 -38.59144,-3.50093z"/></g><g stroke-width="0"><g><g data-paper-data="{&quot;index&quot;:null}"><path d="M279.62854,261.38464c-5.55305,4.39724 -13.40076,6.56629 -13.40076,6.56629l0.68309,-94.45784l14.23462,1.74035c0,0 3.29019,1.39363 4.679,5.46671c1.61578,4.73873 -0.19643,11.72265 -0.19643,11.72265c0,0 -0.66403,15.79174 0.44786,28.23691c1.3159,14.72867 3.6059,23.84509 3.6059,23.84509l-1.77229,-1.14223c0,0 0.068,2.45026 0.33615,3.76846c0.26815,1.3182 1.09526,3.26826 1.09526,3.26826c0,0 -4.30432,6.70291 -9.7124,10.98535z" fill="#571c18"/><g><g><path d="M284.09148,195.35897c-0.0742,0.02753 -0.03574,3.09386 -3.43788,3.97361c-2.91543,0.75388 -3.51595,-1.83563 -3.5599,-1.82341c2.70396,-9.50485 5.4671,-17.61561 5.4671,-17.61561c0,0 1.21144,1.77582 1.72066,3.50806c1.29898,4.41887 -0.15792,10.93138 -0.15792,10.93138c0,0 -0.01324,0.36523 -0.03206,1.02597z" fill="#773128"/><g><path d="M285.74719,232.22503c-0.16541,0.08447 -2.41744,-1.41111 -8.04071,1.18867c-4.32319,1.99872 -5.98961,5.32632 -6.13458,5.38621c-0.09509,-7.22621 0.02814,-14.59921 0.65738,-19.82181c0.53913,-4.4747 1.84893,-10.25646 3.36158,-15.99397c0.30317,-0.07104 1.05309,2.35154 4.76964,1.62226c3.067,-0.60181 3.53911,-3.93575 3.62779,-3.96601c-0.06198,5.35258 -0.02839,13.22377 0.49537,20.02357c0.35533,4.61318 0.81273,8.47127 1.26355,11.56108z" fill="#773128"/><path d="M272.53623,261.73555c0,0 -0.58647,-7.36893 -0.85798,-17.63047c0.19042,-0.07313 2.03481,-4.74168 6.91944,-6.98946c4.1586,-1.91368 7.89963,0.34633 8.01493,0.28584c0.51358,2.6825 0.89152,4.03847 0.89152,4.03847l-2.28534,-0.40833c0,0 0.02569,3.89458 0.25407,5.49417c0.2164,1.51565 1.08219,3.86511 1.08219,3.86511c0,0 -2.57351,4.32756 -6.61205,7.44878c-3.97906,3.07526 -7.40677,3.89589 -7.40677,3.89589z" fill="#773128"/><path d="M271.71826,222.17262c-1.6939,7.93756 2.13483,-20.68712 2.13483,-20.68712c0,0 4.75072,-2.14749 3.85742,0c-3.61115,8.68124 0,12.67435 0,12.67435c0,0 -4.18015,-0.47868 -5.99225,8.01277z" fill="#571c18"/></g></g><path d="M284.56964,217.33275c-0.46558,-5.24241 0.60183,0.11727 1.21197,8.03489c0.33077,4.29237 -6.69206,-3.3889 -6.69206,-3.3889c0,0 6.24819,4.00263 5.4801,-4.64598z" data-paper-data="{&quot;index&quot;:null}" fill="#571c18"/></g></g><g><path d="M193.84671,250.39932c0,0 0.82711,-1.95006 1.09526,-3.26826c0.26815,-1.3182 0.33615,-3.76846 0.33615,-3.76846l-1.77229,1.14223c0,0 2.29,-9.11642 3.6059,-23.84509c1.11189,-12.44517 0.44786,-28.23691 0.44786,-28.23691c0,0 -1.81221,-6.98391 -0.19643,-11.72264c1.38881,-4.07308 4.679,-5.46671 4.679,-5.46671l14.23462,-1.74035l0.68309,94.45784c0,0 -7.84771,-2.16906 -13.40076,-6.56629c-5.40808,-4.28244 -9.7124,-10.98535 -9.7124,-10.98535z" fill="#571c18"/><g><g><path d="M199.06404,194.333c0,0 -1.4569,-6.51251 -0.15792,-10.93138c0.50922,-1.73224 1.72066,-3.50806 1.72066,-3.50806c0,0 2.76314,8.11076 5.4671,17.61561c-0.04395,-0.01223 -0.64447,2.57729 -3.5599,1.82341c-3.40214,-0.87975 -3.36369,-3.94608 -3.43788,-3.97361c-0.01882,-0.66074 -0.03206,-1.02597 -0.03206,-1.02597z" fill="#773128"/><g><path d="M198.70401,220.66395c0.52375,-6.7998 0.55735,-14.67099 0.49537,-20.02357c0.08867,0.03026 0.56079,3.3642 3.62779,3.96601c3.71655,0.72927 4.46648,-1.69331 4.76964,-1.62226c1.51265,5.73752 2.82244,11.51927 3.36157,15.99397c0.62924,5.2226 0.75247,12.5956 0.65738,19.82181c-0.14497,-0.05989 -1.81139,-3.3875 -6.13458,-5.38621c-5.62328,-2.59978 -7.8753,-1.10419 -8.04072,-1.18866c0.45082,-3.08981 0.90822,-6.9479 1.26355,-11.56108z" fill="#773128"/><path d="M196.63254,250.39088c0,0 0.86579,-2.34946 1.08218,-3.86511c0.22838,-1.59958 0.25407,-5.49416 0.25407,-5.49416l-2.28535,0.40833c0,0 0.37794,-1.35597 0.89152,-4.03847c0.11529,0.06048 3.85632,-2.19953 8.01492,-0.28585c4.88463,2.24779 6.72901,6.91634 6.91944,6.98947c-0.27151,10.26154 -0.1474,18.16201 -0.1474,18.16201c0,0 -3.01541,-0.38508 -7.82998,-3.98242c-6.11293,-4.56745 -6.89941,-7.89381 -6.89941,-7.89381z" fill="#773128"/><path d="M205.47711,214.15985c0,0 3.61114,-3.99311 0,-12.67435c-0.89329,-2.14749 3.85742,0 3.85742,0c0,0 3.82873,28.62468 2.13483,20.68712c-1.81211,-8.49146 -5.99225,-8.01277 -5.99225,-8.01277z" fill="#571c18"/></g></g><path d="M204.09804,221.97873c0,0 -7.02283,7.68127 -6.69206,3.3889c0.61013,-7.91762 1.67755,-13.2773 1.21196,-8.03489c-0.76809,8.64862 5.4801,4.64598 5.4801,4.64598z" data-paper-data="{&quot;index&quot;:null}" fill="#571c18"/></g></g></g><g fill="#6d4321"><path d="M232.50272,289.86511c-15.14679,-4.87944 -17.34111,-139.49914 -17.34111,-139.49914c0,0 35.1282,-5.33877 47.11499,-1.0244c12.30932,4.43045 20.21684,24.00901 20.21684,24.00901c0,0 -8.6149,16.56554 -12.81282,36.77822c-2.13185,10.2647 -1.35632,22.64883 -1.35632,31.86737c0,21.4851 2.76987,44.36802 2.76987,44.36802c0,0 -20.94155,9.18673 -38.59144,3.50093z" data-paper-data="{&quot;index&quot;:null}"/><path d="M212.0935,286.36417c0,0 2.76987,-22.88291 2.76987,-44.36802c0,-9.21854 0.77553,-21.60266 -1.35632,-31.86737c-4.19792,-20.21268 -12.81282,-36.77822 -12.81282,-36.77822c0,0 7.90752,-19.57855 20.21684,-24.009c11.98679,-4.31437 47.11499,1.0244 47.11499,1.0244c0,0 -2.19432,134.61971 -17.34111,139.49915c-17.6499,5.6858 -38.59144,-3.50093 -38.59144,-3.50093z"/></g><g><g><g fill="#59220f"><path d="M218.04933,216.82762c16.87591,0.03755 33.75182,0.0751 50.62773,0.11265c-0.52184,5.38805 -0.52808,11.01705 -0.46006,16.25367c-16.29109,0 -32.58218,0 -48.87326,0c-0.48301,-5.39305 -0.91265,-10.89346 -1.29441,-16.36632z" data-paper-data="{&quot;index&quot;:null}"/><path d="M214.49887,216.81972c16.8774,0.03755 33.75479,0.07511 50.63218,0.11266c-0.37993,5.43828 -0.80717,10.90293 -1.2871,16.26156c-16.29109,0 -32.58217,0 -48.87326,0c0.06853,-5.27569 0.06169,-10.94963 -0.47182,-16.37422z"/></g><g fill="#6d4321"><path d="M218.04933,219.05595c16.87591,0.02732 33.67,0.05464 50.54591,0.08196c-0.52184,3.92013 -0.44626,8.01558 -0.37824,11.82554c-16.29109,0 -32.58218,0 -48.87326,0c-0.48301,-3.92377 -0.91265,-7.92566 -1.29441,-11.9075z" data-paper-data="{&quot;index&quot;:null}"/><path d="M214.66252,219.0502c16.8774,0.02732 33.59115,0.05464 50.46854,0.08196c-0.37993,3.95668 -0.80717,7.93255 -1.2871,11.83128c-16.29109,0 -32.58217,0 -48.87326,0c0.06853,-3.83838 0.22534,-7.96653 -0.30818,-11.91324z"/></g><g fill="#481310"><path d="M218.04933,220.79121c16.87591,0.01935 33.75182,0.0387 50.62773,0.05806c-0.2286,1.21653 -0.35826,2.45689 -0.42607,3.69365c-9.0975,-0.01022 -18.195,-0.02044 -27.2925,-0.03066c-7.46049,-0.00839 -14.92097,-0.01677 -22.38145,-0.02515c-0.18533,-1.23082 -0.36108,-2.4647 -0.52771,-3.69589z" data-paper-data="{&quot;index&quot;:null}"/><path d="M268.21691,229.22651c-16.29109,0 -32.58218,0 -48.87326,0c-0.18643,-1.07281 -0.36489,-2.15386 -0.53573,-3.23916c7.38293,0.0083 14.76587,0.01659 22.1488,0.02489c9.07992,0.01021 18.15983,0.0204 27.23975,0.03061c-0.02087,1.07874 -0.0057,2.14614 0.02045,3.18366z" data-paper-data="{&quot;index&quot;:null}"/><path d="M214.49887,220.78714c16.8774,0.01935 33.75479,0.03871 50.63218,0.05806c-0.16679,1.23051 -0.3427,2.46364 -0.52819,3.69361c-7.88146,-0.00886 -15.76292,-0.01771 -23.64438,-0.02657c-8.67504,-0.00975 -17.35007,-0.0195 -26.0251,-0.02925c-0.06988,-1.23795 -0.20231,-2.47908 -0.43451,-3.69586z"/><path d="M263.84389,229.22651c-16.29109,0 -32.58217,0 -48.87326,0c0.02663,-1.05668 0.04188,-2.14436 0.01926,-3.24345c8.65562,0.00973 17.31122,0.01945 25.96684,0.02918c7.80494,0.00877 15.60989,0.01754 23.41483,0.02631c-0.16839,1.06809 -0.34418,2.13202 -0.52767,3.18796z"/></g></g><g><path d="M238.45748,291.70993v-100.1075h6.15409v100.10751c0,0 -1.05113,0.0651 -1.5671,0.03111c-0.50348,-0.03316 -1.49215,-0.23262 -1.49215,-0.23262c0,0 -0.87462,0.25845 -1.35433,0.28968c-0.54383,0.03541 -1.7405,-0.08818 -1.7405,-0.08818z" fill="#481310"/><g><path d="M241.59441,147.91992c17.92631,0.41525 16.48582,10.99281 16.48582,24.55311c0,13.5603 -16.48582,26.56771 -16.48582,26.56771c0,0 -16.48582,-13.0074 -16.48582,-26.56771c0,-13.56031 -1.68421,-24.974 16.48582,-24.55311z" fill="#ffffff"/><g><path d="M206.64445,160.23622c0,0 5.9425,-8.97338 12.1047,-12.25988c6.1622,-3.28651 5.01347,25.41323 7.28715,29.61172c3.31127,6.11447 15.21517,21.44528 15.21517,21.44528c0,0 -9.88164,-5.67771 -16.99491,-10.82254c-3.91807,-2.83383 -7.18668,-2.49654 -10.82406,-6.57206c-7.10995,-7.96637 -8.62354,-17.97918 -8.62354,-17.97918z" fill="#481310"/><path d="M206.64445,160.23622c0,0 5.9425,-8.97338 12.1047,-12.25988c6.1622,-3.28651 11.17357,-0.15519 11.17357,-0.15519c0,0 -4.05775,9.7519 -0.74945,27.16936c0.76226,4.01309 4.61276,7.50195 6.88644,11.70045c3.31127,6.11447 5.19176,12.34239 5.19176,12.34239c0,0 -6.92427,-6.1706 -14.03754,-11.31544c-3.91807,-2.83383 -7.50814,-3.39661 -11.14552,-7.47213c-8.58067,-9.61425 -9.42397,-20.00955 -9.42397,-20.00955z" fill="#571c18"/><path d="M226.025,176.27889c0.51853,2.91969 4.16064,4.53746 5.70731,7.59204c2.2525,4.44853 1.9975,6.83173 1.9975,6.83173c0,0 -2.97148,-3.56885 -7.8103,-7.31194c-2.66527,-2.06173 -6.33478,-2.36889 -8.80911,-5.334c-3.85534,-4.62004 -5.8607,-10.51425 -6.77797,-13.98392c0.06985,0.04182 3.76112,4.2025 7.4313,5.26178c3.62793,1.04708 7.23525,-1.00694 7.3038,-0.99303c0.17174,2.52169 0.4717,5.20206 0.95747,7.93735z" fill="#773128"/><path d="M224.93249,165.77301c-0.0735,-0.01369 -3.74126,1.83908 -7.33881,0.64722c-3.84144,-1.27266 -7.62755,-5.59618 -7.67951,-5.64399c0.35501,-0.54377 1.08808,-1.63009 2.06011,-2.87787c0.67109,4.02409 4.16925,7.09147 8.38384,7.09147c1.66173,0 3.2121,-0.47685 4.52171,-1.30118c0.00901,0.67577 0.02605,1.37146 0.05265,2.08435z" fill="#773128"/></g><g data-paper-data="{&quot;index&quot;:null}"><path d="M278.28346,163.65956c0,0 -1.51359,10.0128 -8.62354,17.97918c-3.63738,4.07552 -6.90599,3.73823 -10.82406,6.57206c-7.11327,5.14484 -16.99491,10.82254 -16.99491,10.82254c0,0 11.9039,-15.33081 15.21517,-21.44528c2.27369,-4.1985 1.12496,-32.89823 7.28715,-29.61172c6.1622,3.28651 12.1047,12.25988 12.1047,12.25988z" fill="#481310"/><path d="M267.02405,180.24581c-3.63738,4.07552 -7.22745,4.6383 -11.14552,7.47213c-7.11327,5.14484 -14.03754,11.31544 -14.03754,11.31544c0,0 1.88049,-6.22792 5.19176,-12.34239c2.27369,-4.1985 6.12418,-7.68735 6.88644,-11.70045c3.3083,-17.41746 -0.74945,-27.16936 -0.74945,-27.16936c0,0 5.01137,-3.13132 11.17357,0.15519c6.1622,3.28651 12.1047,12.25988 12.1047,12.25988c0,0 -0.8433,10.39531 -9.42397,20.00955z" fill="#571c18"/><path d="M258.02495,168.34155c0.06855,-0.01391 3.67587,2.04011 7.3038,0.99303c3.67017,-1.05928 7.36144,-5.21995 7.43129,-5.26178c-0.91727,3.46967 -2.92263,9.36389 -6.77797,13.98393c-2.47433,2.96511 -6.14384,3.27227 -8.80911,5.334c-4.83882,3.74309 -7.8103,7.31194 -7.8103,7.31194c0,0 -0.255,-2.3832 1.9975,-6.83173c1.54667,-3.05458 5.18878,-4.67235 5.70731,-7.59204c0.48577,-2.73529 0.78573,-5.41565 0.95747,-7.93735z" fill="#773128"/><path d="M258.21263,163.68866c1.30962,0.82432 2.85998,1.30118 4.52171,1.30118c4.21458,0 7.71274,-3.06737 8.38383,-7.09146c0.97204,1.24778 1.70511,2.3341 2.06011,2.87787c-0.05196,0.04781 -3.83806,4.37133 -7.67951,5.64399c-3.59754,1.19186 -7.2653,-0.66091 -7.3388,-0.64722c0.02661,-0.71289 0.04365,-1.40858 0.05265,-2.08435z" fill="#773128"/></g></g><path d="M242.20102,282.85955c-0.23922,-0.02571 -0.67536,-0.23845 -0.67536,-0.23845c0,0 -0.49301,0.16419 -0.74408,0.19148c-0.25729,0.02798 -0.78146,-0.02561 -0.78146,-0.02561v-54.37362c1.01987,0.44463 2.04207,0.88213 3.06883,1.3057v53.06792c0,0 -0.59674,0.10174 -0.86793,0.07259z" fill="#571c18"/><path d="M240.00011,221.48673c1.01919,0.4173 2.04157,0.8237 3.06883,1.21334v2.55662c-1.02535,-0.41413 -2.04804,-0.83546 -3.06883,-1.26168z" fill="#571c18"/><path d="M240.00011,203.50712c0.40051,0.21003 0.8516,0.32806 1.32871,0.32806c0.64873,0 1.24937,-0.21823 1.74012,-0.5892v14.95496c-1.02558,-0.367 -2.04863,-0.74106 -3.06883,-1.12254z" fill="#571c18"/></g><g><path d="M217.08855,210.72622c-1.10864,-5.73589 -2.77653,-11.40761 -4.56354,-16.52849c0.08178,0.05635 5.18888,0.00964 10.77471,2.0574c6.02211,2.20772 12.55768,6.52047 12.71647,6.54656c0.01477,2.8657 0.0352,6.8187 0.05428,10.46804c-6.18649,-0.01386 -12.37297,-0.02772 -18.55945,-0.04157c-0.12371,-0.84638 -0.26387,-1.68138 -0.42247,-2.50194z" fill="#8d6e47"/><path d="M203.6594,173.52719l0.92748,-2.79166c0,0 0.86586,5.08647 8.72285,12.69655c2.16709,2.09899 7.06123,4.0966 10.99214,6.68193c6.27552,4.12735 11.69325,8.591 11.69325,8.591c0,0 0.00503,0.98273 0.01311,2.55286c-0.15517,-0.02591 -6.67256,-5.5613 -12.92849,-8.01262c-5.78726,-2.26767 -11.35078,-1.46336 -11.44679,-1.53448c-3.88039,-10.53527 -7.97354,-18.18358 -7.97354,-18.18358z" fill="#8d6e47"/><path d="M217.13621,213.84367c0,0 -2.36621,-4.87275 -2.00011,-8.11322c0.3661,-3.24047 3.38747,-4.1669 3.38747,-4.1669c0,0 -4.84325,5.64335 7.40823,11.99066c5.41353,2.80467 -8.79559,0.28946 -8.79559,0.28946z" fill="#6d4321"/><g><path d="M265.53668,213.22816c-6.18649,0.01386 -12.37297,0.02772 -18.55946,0.04157c0.01908,-3.64934 0.03951,-7.60234 0.05428,-10.46804c0.15879,-0.02609 6.69436,-4.33884 12.71647,-6.54656c5.58583,-2.04777 10.69293,-2.00105 10.77471,-2.0574c-1.78701,5.12088 -3.4549,10.7926 -4.56354,16.52849c-0.1586,0.82056 -0.29876,1.65556 -0.42246,2.50194z" data-paper-data="{&quot;index&quot;:null}" fill="#8d6e47"/><path d="M271.41481,191.71077c-0.09602,0.07112 -5.65953,-0.73319 -11.4468,1.53448c-6.25593,2.45131 -12.77333,7.9867 -12.92849,8.01262c0.00808,-1.57013 0.01311,-2.55286 0.01311,-2.55286c0,0 5.41774,-4.46365 11.69326,-8.591c3.93091,-2.58533 8.82504,-4.58294 10.99213,-6.68193c7.85699,-7.61008 8.72285,-12.69655 8.72285,-12.69655l0.92748,2.79166c0,0 -4.09314,7.64831 -7.97353,18.18358z" data-paper-data="{&quot;index&quot;:null}" fill="#8d6e47"/><path d="M257.11591,213.55421c12.25147,-6.34731 7.40823,-11.99066 7.40823,-11.99066c0,0 3.02138,0.92643 3.38747,4.1669c0.36609,3.24047 -2.00011,8.11322 -2.00011,8.11322c0,0 -14.20912,2.51521 -8.79559,-0.28946z" data-paper-data="{&quot;index&quot;:null}" fill="#6d4321"/></g></g><g><g fill="#8d6e47"><path d="M216.24158,282.35262c0,0 1.84002,-17.57511 2.30895,-36.45298c0.00651,0.00146 3.39004,3.44672 7.13486,4.10662c4.35312,0.76709 9.16518,-1.23426 9.27075,-1.22011c-0.02166,11.53659 -0.04615,28.36026 -0.02943,38.78946c-10.24345,-0.94139 -18.68513,-5.22298 -18.68513,-5.22298z"/><path d="M218.65824,237.59642c0,-0.45889 0.00456,-1.39934 0.00456,-1.39934l16.31986,-0.00216l-0.01743,7.94287c0,0 -4.94352,2.28359 -9.10872,1.19642c-4.68878,-1.22384 -7.21471,-4.58381 -7.21471,-4.58381c0,0 0.01644,-2.10502 0.01644,-3.15397z"/></g><g fill="#6d4321"><path d="M226.54791,256.27441c0,0 -8.03063,-4.86836 -8.99521,2.99077c-0.50773,4.13682 0.57945,-10.66386 0.57945,-10.66386z"/><path d="M226.59124,252.32185c0,0 8.03063,4.86836 8.99521,-2.99077c0.50772,-4.13681 -0.57945,10.66386 -0.57945,10.66386z" data-paper-data="{&quot;index&quot;:null}"/></g></g><g data-paper-data="{&quot;index&quot;:null}"><g fill="#8d6e47"><path d="M248.261,287.57561c0.01673,-10.4292 -0.00777,-27.25288 -0.02943,-38.78946c0.10557,-0.01415 4.91763,1.9872 9.27075,1.22011c3.74482,-0.6599 7.12835,-4.10515 7.13486,-4.10662c0.46893,18.87788 2.30895,36.45298 2.30895,36.45298c0,0 -8.44168,4.2816 -18.68513,5.22298z"/><path d="M264.5458,240.75039c0,0 -2.52593,3.35997 -7.21471,4.58381c-4.1652,1.08718 -9.10872,-1.19642 -9.10872,-1.19642l-0.01743,-7.94287l16.31986,0.00216c0,0 0.00456,0.94046 0.00456,1.39934c0,1.04895 0.01644,3.15397 0.01644,3.15397z"/></g><g fill="#6d4321"><path d="M265.05548,248.60132c0,0 1.08718,14.80067 0.57945,10.66386c-0.96458,-7.85913 -8.99521,-2.99077 -8.99521,-2.99077z"/><path d="M248.18071,259.99494c0,0 -1.08718,-14.80067 -0.57946,-10.66386c0.96458,7.85913 8.99521,2.99077 8.99521,2.99077z" data-paper-data="{&quot;index&quot;:null}"/></g></g></g></g></g><path d="" fill="#000000" stroke="none" stroke-width="NaN" stroke-linecap="butt"/><path d="" fill="#ffffff" stroke="none" stroke-width="0" stroke-linecap="butt"/><g stroke="none" stroke-width="0" stroke-linecap="butt"><path d="" fill="#000000"/><path d="" fill="#ffffff"/></g><g stroke="none" stroke-width="0" stroke-linecap="butt"><path d="" fill="#000000"/><path d="" fill="#ffffff"/></g><path d="" fill="#000000" stroke="none" stroke-width="0" stroke-linecap="butt"/><path d="" fill="#000000" stroke="none" stroke-width="0" stroke-linecap="butt"/><g stroke="none" stroke-width="0" stroke-linecap="butt"><path d="" fill="#000000"/><path d="" fill="#ffffff"/></g><g stroke="none" stroke-width="0" stroke-linecap="butt"><path d="" data-paper-data="{&quot;index&quot;:null}" fill="#000000"/><path d="" data-paper-data="{&quot;index&quot;:null}" fill="#ffffff"/></g><path d="" fill-opacity="0.00806" fill="#000000" stroke="#000000" stroke-width="0" stroke-linecap="butt"/><g fill="#000000" stroke="none" stroke-linecap="butt"><path d="" stroke-width="0"/><path d="" stroke-width="0"/><g><path d="" stroke-width="0"/><path d="" stroke-width="0.5"/></g><g data-paper-data="{&quot;index&quot;:null}"><path d="" stroke-width="0"/><path d="" stroke-width="0.5"/></g><path d="" stroke-width="0.5"/></g><path d="" fill="#000000" stroke="none" stroke-width="NaN" stroke-linecap="butt"/><g data-paper-data="{&quot;index&quot;:null}" stroke="none" stroke-width="0" stroke-linecap="butt"><path d="" fill="#53305f"/><path d="" fill="#3d496d"/><path d="" fill="#566580"/><path d="" fill="#566580"/><path d="" fill="#654779"/><path d="" fill="#654779"/></g><path d="" fill="#53305f" stroke="none" stroke-width="0" stroke-linecap="butt"/><path d="" fill="#3d496d" stroke="none" stroke-width="0" stroke-linecap="butt"/><path d="" fill="#000000" stroke="none" stroke-width="NaN" stroke-linecap="butt"/><g><path d="" fill="#000000" stroke="none" stroke-width="0" stroke-linecap="butt"/><path d="" fill="#ffffff" stroke="none" stroke-width="0" stroke-linecap="butt"/><path d="" fill="none" stroke="#000000" stroke-width="0.5" stroke-linecap="round"/></g><g data-paper-data="{&quot;index&quot;:null}"><path d="" fill="#000000" stroke="none" stroke-width="0" stroke-linecap="butt"/><path d="" fill="none" stroke="#000000" stroke-width="0.5" stroke-linecap="round"/></g><path d="" fill="#000000" stroke="none" stroke-width="0" stroke-linecap="butt"/><path d="" fill="#000000" stroke="none" stroke-width="0" stroke-linecap="butt"/><path d="" data-paper-data="{&quot;index&quot;:null}" fill="#000000" stroke="none" stroke-width="0" stroke-linecap="butt"/><g stroke="none" stroke-width="0" stroke-linecap="butt"><path d="" fill="#566580"/><path d="" fill="#3d496d"/><path d="" fill="#3d496d"/><path d="" fill="#2c2f5d"/><path d="" fill="#2c2f5d"/></g><g data-paper-data="{&quot;index&quot;:null}" stroke="none" stroke-width="0" stroke-linecap="butt"><path d="" fill="#566580"/><path d="" fill="#3d496d"/><path d="" fill="#3d496d"/><path d="" fill="#2c2f5d"/><path d="" fill="#2c2f5d"/></g><path d="" fill-opacity="0.19355" fill="#000000" stroke="none" stroke-width="0" stroke-linecap="butt"/><path d="" fill="#ffffff" stroke="none" stroke-width="0" stroke-linecap="butt"/><path d="" fill-opacity="0.19355" fill="#000000" stroke="none" stroke-width="0" stroke-linecap="butt"/><path d="" fill-opacity="0.19355" fill="#000000" stroke="none" stroke-width="0" stroke-linecap="butt"/><path d="" fill-opacity="0.19355" fill="#000000" stroke="none" stroke-width="0" stroke-linecap="butt"/><g stroke="none" stroke-width="0" stroke-linecap="butt"><path d="" fill="#000000"/><path d="" fill="#ffffff"/></g><g stroke="none" stroke-width="0" stroke-linecap="butt"><path d="" fill="#000000"/><path d="" fill="#ffffff"/></g><path d="" fill="#000000" stroke="none" stroke-width="0" stroke-linecap="butt"/><g stroke="none" stroke-linecap="butt"><path d="" fill="#000000" stroke-width="NaN"/><path d="" fill="#ffffff" stroke-width="0"/><path d="" fill="#ffffff" stroke-width="0"/></g><path d="" fill="#000000" stroke="none" stroke-width="0" stroke-linecap="butt"/><path d="" fill="#000000" stroke="none" stroke-width="0" stroke-linecap="butt"/><g stroke="none" stroke-width="0" stroke-linecap="butt"><path d="" fill="#000000"/><path d="" fill="#ffffff"/><path d="" fill="#ffffff"/></g><path d="" fill="#000000" stroke="none" stroke-width="0" stroke-linecap="butt"/><g stroke="none" stroke-width="0" stroke-linecap="butt"><path d="" data-paper-data="{&quot;index&quot;:null}" fill="#000000"/><path d="" data-paper-data="{&quot;index&quot;:null}" fill="#000000"/><path d="" data-paper-data="{&quot;index&quot;:null}" fill="#ffffff"/></g><path d="" data-paper-data="{&quot;index&quot;:null}" fill="#000000" stroke="none" stroke-width="0" stroke-linecap="butt"/><path d="" data-paper-data="{&quot;index&quot;:null}" fill-opacity="0.35484" fill="#000000" stroke="none" stroke-width="0" stroke-linecap="butt"/><path d="" fill="#566580" stroke="none" stroke-width="0" stroke-linecap="butt"/><path d="" fill="#566580" stroke="none" stroke-width="0" stroke-linecap="butt"/><path d="" fill="#654779" stroke="none" stroke-width="0" stroke-linecap="butt"/><path d="" fill="#654779" stroke="none" stroke-width="0" stroke-linecap="butt"/><path d="" fill="#ffffff" stroke="none" stroke-width="0" stroke-linecap="butt"/><path d="" fill="#ffffff" stroke="none" stroke-width="0" stroke-linecap="butt"/><g stroke="none" stroke-linecap="butt"><g fill="#000000"><path d="M283.7525,106.45231c0.46951,1.54483 0.34682,3.63851 0.61611,5.2552c0.45591,2.73708 1.13123,4.70843 1.13123,4.70843c0,0 -1.71468,0.30145 -3.12688,-0.62404l1.36527,9.18533c0,0 -1.33349,-1.06537 -2.18215,-1.94015c-0.03933,0.50984 -0.04576,1.01698 0.01573,1.42745c0.49478,3.30327 2.29895,5.45172 2.29895,5.45172c0,0 -2.39521,0.51237 -4.21028,-0.5364c-0.0313,1.04703 -0.09321,4.43661 -1.51646,6.85421c-1.5005,2.54882 -6.14897,5.4862 -6.14897,5.4862c0,0 -19.25185,-16.61338 -20.74429,-34.8548c-1.49244,-18.24142 10.67066,-34.97455 14.96491,-35.7838c9.98017,-1.88076 19.10349,25.02012 19.10349,25.02012c0,0 -2.47801,0.15804 -4.12155,-1.10621c0.36899,1.21429 1.07417,3.37765 1.68462,4.34059c0.7629,1.20343 3.01272,2.60266 3.01272,2.60266c0,0 -1.75761,0.65311 -3.40682,0.6918c0.33102,0.90582 0.76018,2.16266 1.26439,3.82167z" data-paper-data="{&quot;index&quot;:null}" stroke-width="NaN"/><path d="M197.3383,100.74847c0,0 1.40114,1.45949 0.73287,1.69094c-1.83378,0.63513 -4.89011,-0.50058 -4.89011,-0.50058c0,0 2.24981,-1.39922 3.01271,-2.60266c0.87305,-1.37718 1.93987,-5.20967 1.93987,-5.20967c0,0 1.22987,-2.11403 1.09335,-1.36861c-0.66851,3.65014 -5.47015,3.3439 -5.47015,3.3439c0,0 1.1668,-2.14031 1.28116,-6.37264c0.0574,-2.12394 -1.55889,-5.78999 -0.88785,-7.93505c1.60905,-5.14351 4.93401,-8.1859 4.93401,-8.1859c0,0 -1.01466,-3.47449 1.72588,-9.28395c1.13583,-2.40776 3.11642,-2.82859 4.55006,-4.0434c2.57862,-2.18504 4.50589,-4.03752 4.50589,-4.03752c0,0 0.6655,3.10039 -0.18532,4.44978c-0.38696,0.61372 -1.26071,-0.11882 -1.26071,-0.11882c0,0 6.01175,-6.17902 10.51189,-7.90673c1.84211,-0.70723 7.8471,-0.84916 13.19863,-1.6258c4.18017,-0.60665 8.15666,-1.95091 8.15666,-1.95091l-1.93024,2.57194c0,0 11.8151,-4.38038 18.8712,-2.00626c2.97983,1.0026 5.04059,4.10055 7.81464,6.75566c3.79476,3.63204 7.87794,6.88004 7.87794,6.88004c0,0 -3.37854,3.92158 -6.66561,1.61205c-0.72109,-0.50665 1.44173,-2.44183 1.44173,-2.44183c0,0 9.78676,4.01114 12.10855,18.81974c1.19604,7.62843 -1.52007,7.30742 -2.31223,16.16238c-0.94252,10.53585 -0.1413,29.78863 -0.42284,31.41198c-1.4723,8.48924 -7.58993,16.43678 -7.58993,16.43678l-1.2002,-3.0486c0,0 -0.28365,1.54155 -1.55786,3.20091c-1.41265,1.83963 -4.0394,3.56869 -4.0394,3.56869l0.00326,-3.66271c0,0 -4.68898,6.04321 -11.16508,9.20196c-6.24411,3.04559 -12.0712,2.56971 -14.81979,2.51883c-14.44835,-0.26743 -24.63469,-11.0541 -24.63469,-11.0541l-1.63576,1.73859c0,0 -6.822,-4.14439 -8.94111,-9.33402c-3.14434,-7.70037 -1.79444,-12.46591 -1.79444,-12.46591c0,0 1.48754,1.46346 0.95811,2.26388c-1.65768,2.50623 -5.44813,1.69539 -5.44813,1.69539c0,0 1.80416,-2.14845 2.29894,-5.45172c0.20647,-1.37841 -0.35278,-3.8469 -0.35278,-3.8469c0,0 1.29829,0.81329 1.03318,1.55514c-0.26511,0.74184 -2.84681,2.80445 -2.84681,2.80445l1.49271,-10.04277c0,0 0.6497,0.25089 0.16089,0.64704c-1.45486,1.17908 -3.41521,0.83444 -3.41521,0.83444c0,0 0.67531,-1.97134 1.13122,-4.70843c0.26928,-1.61668 0.14659,-3.71037 0.6161,-5.2552c1.2311,-4.0507 2.01483,-5.70384 2.01483,-5.70384z" stroke-width="NaN"/></g><path d="M215.37019,141.00303c-1.12791,-6.71582 -0.20637,-6.94188 -1.0642,-13.44379c-0.47362,-3.58977 -2.15797,-7.18909 -2.73202,-11.13223c-1.20896,-8.30433 -1.27196,-25.65977 -0.47554,-29.40025c4.41933,-20.75585 15.3863,-24.96608 29.85603,-25.48425c20.77576,-0.74399 24.79696,12.48506 27.42961,23.79025c1.84023,7.90235 1.22737,18.92724 -0.34916,28.57116c-0.96559,5.90663 -2.47529,10.80823 -3.46814,15.58687c-1.22544,5.89815 -0.7524,7.76045 -1.86263,12.66938c-1.15349,5.10023 -6.83176,10.81045 -11.83191,15.83737c-4.57165,4.59612 -7.90818,8.33063 -12.38271,8.22359c-5.04445,-0.12068 -8.96195,-6.22631 -14.50155,-12.44391c-4.38889,-4.92605 -8.03319,-9.29321 -8.61781,-12.77419z" fill="#000000" stroke-width="0"/><path d="M252.0134,130.9817c3.34803,3.89608 9.76211,6.41174 9.51751,7.62297c-1.44877,7.17412 -1.89749,7.23551 -4.27323,10.21882c-2.5746,3.23301 -6.22007,6.15229 -9.11253,8.91074c-2.62204,2.50056 -5.47801,6.21315 -8.77908,6.21315c-4.10432,0 -6.9048,-3.78999 -10.07829,-7.4154c-4.79276,-5.47527 -11.46201,-7.91572 -13.04194,-17.80658c-0.23493,-1.47073 7.38476,-4.55408 12.11786,-9.75391c1.58159,-1.73755 2.89633,-3.6711 3.95916,-5.51709c4.93327,0.16339 9.86566,0.35259 14.79823,0.53689c1.31801,2.25918 2.96744,4.75044 4.89231,6.99041z" fill="#ffffff" stroke-width="0"/><g fill="#000000" stroke-width="0"><path d="M226.15954,103.09135c5.64136,0 10.21459,4.47197 10.21459,9.98843c0,5.51646 -4.7706,9.74171 -10.41197,9.74171c-5.64137,0 -10.31875,-4.22525 -10.31875,-9.74171c0,-5.51645 4.87476,-9.98843 10.51613,-9.98843z"/><path d="M226.15954,103.34572c4.97522,0 8.78866,3.85659 8.78866,8.8032c0,4.94661 -4.01083,9.08774 -8.98605,9.08774c-4.97523,0 -8.81106,-3.98769 -8.81106,-8.9343c0,-4.94662 4.03322,-8.95664 9.00844,-8.95664z"/></g><path d="M255.3381,100.10406c-6.5361,-0.02665 -11.93017,2.50832 -11.93017,2.50832l-0.26203,-4.42239c0,0 5.28442,-1.73418 9.39801,-1.86949c4.11358,-0.13531 7.12519,0.66021 7.12519,0.66021l0.19551,1.20419l7.3882,2.16685l0.13101,1.6377c0,0 -5.86035,-1.86016 -12.04572,-1.88538z" data-paper-data="{&quot;index&quot;:null}" fill="#000000" stroke-width="0"/><g stroke-width="0"><path d="M236.82644,134.3004c0,0 -0.06312,-8.68679 -0.28083,-12.38791c-0.17487,-2.97289 -0.92532,-8.11666 -0.92532,-8.11666c0,0 -0.33218,-1.57308 0.02454,-1.56279c1.13657,0.03279 7.81544,1.78895 7.81544,1.78895l-0.37692,20.27841c0,0 0.82184,1.93768 0.72844,3.69896c-0.06976,1.31553 -0.97469,4.70292 -1.02626,5.67536c-0.11348,2.13998 -0.40577,3.89334 -0.40577,3.89334l-4.14036,-0.01448c0,0 -0.12488,-2.01528 -0.87252,-4.2695c-0.71961,-2.16969 -2.11593,-4.55553 -2.18508,-5.58924c-0.19994,-2.9885 1.64464,-3.39445 1.64464,-3.39445z" fill="#000000"/><path d="M239.18849,146.57834c0,0 -0.2909,-3.80356 -0.49735,-8.24071c-0.20504,-4.40659 -0.32473,-9.70108 -0.5883,-13.30096c-0.10844,-1.4811 -0.27734,-3.23575 -0.46878,-5.02799c1.5353,0.01281 3.07064,0.02195 4.606,0.02737l-0.56387,26.50177z" fill="#ffffff"/><path d="M236.77089,135.47841c0.34401,0 0.62288,4.77542 0.62288,4.77542c0,0 -1.24576,-1.59275 -1.24576,-2.7251c0,-1.13236 0.27887,-2.05032 0.62288,-2.05032z" fill="#ffffff"/></g><g stroke-width="0"><g><path d="M223.13594,107.19395c2.71342,0 4.91309,2.23007 4.91309,4.98099c0,2.75092 -2.19966,4.98098 -4.91309,4.98098c-2.71342,0 -4.91309,-2.23006 -4.91309,-4.98098c0,-2.75092 2.19966,-4.98099 4.91309,-4.98099z" fill="#773128"/><path d="M223.13594,108.41617c2.04761,0 3.70753,1.68286 3.70753,3.75877c0,2.07591 -1.65992,3.75876 -3.70753,3.75876c-2.04761,0 -3.70753,-1.68286 -3.70753,-3.75876c0,-2.07591 1.65991,-3.75877 3.70753,-3.75877z" fill="#000000"/></g><g><path d="M223.13594,109.44688c1.48612,0 2.69087,1.2214 2.69087,2.72806c0,1.50666 -1.20474,2.72805 -2.69087,2.72805c-1.48612,0 -2.69087,-1.22139 -2.69087,-2.72805c0,-1.50666 1.20474,-2.72806 2.69087,-2.72806z" fill="#773128"/><path d="M223.13594,110.11629c1.12146,0 2.03059,0.92169 2.03059,2.05866c0,1.13696 -0.90913,2.05864 -2.03059,2.05864c-1.12146,0 -2.03059,-0.92168 -2.03059,-2.05864c0,-1.13696 0.90912,-2.05866 2.03059,-2.05866z" fill="#000000"/></g><g><path d="M223.13594,110.6691c0.82031,0 1.48531,0.67419 1.48531,1.50584c0,0.83164 -0.66499,1.50583 -1.48531,1.50583c-0.82031,0 -1.4853,-0.67419 -1.4853,-1.50583c0,-0.83164 0.66499,-1.50584 1.4853,-1.50584z" fill="#773128"/><path d="M223.13594,111.0386c0.61902,0 1.12085,0.50876 1.12085,1.13634c0,0.62758 -0.50182,1.13633 -1.12085,1.13633c-0.61902,0 -1.12085,-0.50875 -1.12085,-1.13633c0,-0.62758 0.50182,-1.13634 1.12085,-1.13634z" fill="#000000"/></g></g><path d="M214.67374,113.14581c0,0 -0.16627,-2.22288 0.81062,-4.59656c1.16899,-2.84044 3.93233,-6.92936 9.99819,-6.96145c4.4123,-0.02334 6.77688,2.49302 8.31843,4.37295c2.53146,3.08714 2.42486,7.54013 2.42486,7.54013c0,0 -3.81262,-3.11651 -12.52214,-3.4927c-3.18342,-0.1375 -9.02997,3.13763 -9.02997,3.13763z" fill="#000000" stroke-width="0"/><g><g><g stroke-width="0"><g fill="#773128"><path d="M260.85422,154.33559c-1.89929,2.7796 -3.67463,3.10901 -8.13069,5.60568c-3.83416,2.14822 -7.76052,6.98211 -14.58345,7.07415c-6.82294,0.09204 -12.7884,-40.22699 -12.7884,-40.22699c0,0 33.71631,-1.97428 39.19823,-0.21563c5.48192,1.75865 -2.06558,14.60655 -2.06558,14.60655c0,0 3.21501,6.06542 -1.63012,13.15624z" data-paper-data="{&quot;index&quot;:null}"/><path d="M215.49698,141.17935c0,0 -7.5475,-12.8479 -2.06557,-14.60655c5.48192,-1.75865 43.14552,-0.10896 43.14552,-0.10896c0,0 -8.24221,39.74998 -16.73569,40.55158c-5.08641,0.48004 -10.19018,-4.14005 -14.70459,-7.40366c-3.29742,-2.3838 -6.51804,-3.09334 -8.00956,-5.27616c-4.84513,-7.09082 -1.63012,-13.15624 -1.63012,-13.15624z"/></g><g fill="#894939"><path d="M216.69182,129.10278c4.78263,-1.53431 37.64179,-0.09506 37.64179,-0.09506c0,0 -9.97343,2.11553 -13.28609,11.84523c-2.57321,7.55784 1.92479,23.22776 -1.31476,23.5335c-3.35017,0.31618 -6.70896,-1.90368 -9.84862,-4.23577c0.00008,-0.00007 2.46871,-0.59614 4.10144,-6.81051c1.5168,-5.7731 1.1761,-13.28037 -6.59079,-19.35636c-7.14624,-5.59046 -12.50894,-3.21439 -12.50894,-3.21439c0,0 0.39755,-1.21481 1.80597,-1.66664z"/></g><g data-paper-data="{&quot;index&quot;:null}" fill="#894939"><path d="M263.22118,130.76942c0,0 -5.36269,-2.37607 -12.50893,3.21439c-7.76689,6.07599 -8.10759,13.58326 -6.59079,19.35636c1.63273,6.21437 4.10136,6.81044 4.10144,6.81051c-3.13967,2.33209 -6.49846,4.55195 -9.84862,4.23577c-4.01061,-0.37851 -0.52222,-13.31986 -3.29904,-22.72062c-2.35366,-7.96816 -11.30182,-12.65811 -11.30182,-12.65811c0,0 32.85915,-1.43926 37.64179,0.09506c1.40843,0.45183 1.80597,1.66664 1.80597,1.66664z"/></g></g><g><g><path d="M269.23424,148.50769c-2.38552,7.44493 -9.48407,12.26593 -15.85506,10.76799c-6.37099,-1.49794 -9.60185,-8.74758 -7.21633,-16.19251c2.38552,-7.44493 9.48407,-12.26593 15.85506,-10.76799c6.37099,1.49794 9.60186,8.74758 7.21634,16.19251z" fill="#59220f" stroke-width="0"/><g><path d="M270.22127,149.46417c-1.96149,7.35449 -8.23016,12.33495 -14.00146,11.12414c-5.77131,-1.2108 -8.85978,-8.15435 -6.89829,-15.50885c1.96149,-7.35449 8.23016,-12.33495 14.00146,-11.12414c5.7713,1.2108 8.85978,8.15435 6.89829,15.50885z" fill="#6d4321" stroke-width="0"/><g fill="#8d6e47" stroke-width="0"><path d="M250.85194,142.3561c0.11402,-0.01113 0.71049,3.4638 9.63322,2.56009c8.26225,-0.83682 8.34695,-5.73172 8.41109,-5.75209c1.4376,2.75377 1.82967,6.41722 0.82223,10.19456c-1.86709,7.00054 -7.83406,11.74131 -13.32761,10.58877c-5.49355,-1.15253 -8.43338,-7.76191 -6.56629,-14.76245c0.26451,-0.99176 0.6113,-1.93816 1.02737,-2.82887z"/><path d="M267.74615,137.42236c-0.01864,0.00548 0.55647,4.05397 -6.70728,4.98246c-8.62049,1.10192 -8.69157,-2.52371 -8.76196,-2.51794c2.73964,-3.90617 6.92951,-6.11849 10.87515,-5.2907c1.84947,0.38801 3.40948,1.3945 4.59409,2.82618z"/></g><g><path d="M251.85882,144.09472c2.81413,0.29844 5.64166,0.58505 8.33676,0.8106c2.73019,0.22849 5.68493,0.3122 8.4197,0.5536c0.00374,1.15067 -0.14823,2.35288 -0.47261,3.56911c-0.1796,0.67342 -0.6683,1.94114 -0.6683,1.94114l-16.54457,-1.69641c0,0 0.1285,-2.47454 0.4706,-3.7572c0.12994,-0.4872 0.28347,-0.96138 0.45842,-1.42083z" fill="#000000" stroke-width="0"/><path d="M251.42955,152.4768c3.91609,0.4364 13.13257,1.40522 14.26846,1.52575c-2.302,2.96368 -5.62883,4.59611 -8.77155,3.93678c-2.67261,-0.56071 -4.62702,-2.65606 -5.49692,-5.46253z" fill="#000000" stroke-width="0"/><path d="M268.21409,142.41242c-3.39809,-0.32527 -9.20885,-1.32065 -14.30978,-1.94714c2.2996,-2.91566 5.5964,-4.51467 8.71222,-3.86098c2.78121,0.58349 4.78467,2.82889 5.59756,5.80812z" fill="#000000" stroke-width="0"/><g fill="none" stroke-width="1" font-family="sans-serif" font-weight="normal" font-size="12" text-anchor="start"/></g></g></g><g data-paper-data="{&quot;index&quot;:null}"><path d="M215.9634,132.31517c6.37099,-1.49794 13.46953,3.32306 15.85505,10.76799c2.38552,7.44493 -0.84534,14.69457 -7.21633,16.19251c-6.37099,1.49794 -13.46954,-3.32305 -15.85506,-10.76799c-2.38552,-7.44493 0.84535,-14.69457 7.21634,-16.19251z" fill="#59220f" stroke-width="0"/><g><path d="M214.65829,133.95531c5.77131,-1.2108 12.03997,3.76965 14.00146,11.12414c1.96149,7.35449 -1.12698,14.29805 -6.89829,15.50885c-5.77131,1.2108 -12.03997,-3.76965 -14.00146,-11.12414c-1.96149,-7.35449 1.12698,-14.29805 6.89829,-15.50885z" fill="#6d4321" stroke-width="0"/><g fill="#8d6e47" stroke-width="0"><path d="M228.15683,145.18498c1.86709,7.00054 -1.07274,13.60992 -6.56629,14.76245c-5.49355,1.15253 -11.46053,-3.58823 -13.32762,-10.58877c-1.00744,-3.77733 -0.61537,-7.44078 0.82223,-10.19456c0.06414,0.02038 0.14883,4.91528 8.41109,5.75209c8.92273,0.90371 9.51921,-2.57122 9.63323,-2.56009c0.41607,0.89072 0.76286,1.83712 1.02737,2.82887z"/><path d="M214.82922,134.59616c3.94565,-0.82779 8.13551,1.38453 10.87516,5.2907c-0.07038,-0.00577 -0.14147,3.61986 -8.76196,2.51794c-7.26374,-0.92849 -6.68864,-4.97698 -6.70729,-4.98246c1.18461,-1.43168 2.74462,-2.43817 4.59409,-2.82618z"/></g><g><path d="M226.58104,145.51557c0.3421,1.28267 0.4706,3.7572 0.4706,3.7572l-16.54457,1.69641c0,0 -0.4887,-1.26772 -0.66831,-1.94114c-0.32438,-1.21624 -0.47635,-2.41844 -0.4726,-3.56911c2.73477,-0.2414 5.68951,-0.32511 8.4197,-0.5536c2.6951,-0.22555 5.52262,-0.51216 8.33675,-0.8106c0.17495,0.45945 0.32848,0.93364 0.45842,1.42083z" fill="#000000" stroke-width="0"/><path d="M221.05499,157.93928c-3.14272,0.65933 -6.46955,-0.97309 -8.77155,-3.93678c1.13589,-0.12053 10.35236,-1.08935 14.26846,-1.52575c-0.8699,2.80647 -2.82431,4.90182 -5.49692,5.46253z" fill="#000000" stroke-width="0"/><path d="M215.36481,136.60431c3.11583,-0.65369 6.41262,0.94532 8.71222,3.86098c-5.10093,0.62649 -10.91169,1.62187 -14.30978,1.94714c0.81289,-2.97923 2.81635,-5.22463 5.59756,-5.80812z" fill="#000000" stroke-width="0"/><g fill="none" stroke-width="1" font-family="sans-serif" font-weight="normal" font-size="12" text-anchor="start"/></g></g></g></g></g><g stroke-width="0"><g><g fill="#6d4321"><path d="M211.55912,131.69752c-1.38895,-1.80497 -4.75556,-8.79747 -5.93557,-16.51382c0.96603,-0.03123 5.50081,3.30819 11.34365,4.14753c2.35395,0.33815 -3.48174,-2.74647 -3.48174,-2.74647c0,0 6.58119,1.97834 9.87903,2.3805c3.11175,0.37947 9.38219,-0.03164 9.38219,-0.03164l-2.48081,-2.60361c0,0 2.67698,-2.29172 3.5258,-6.63152c1.19695,-6.11969 0.70151,-14.98256 0.83497,-15.67391c0.74884,0.02769 1.51708,0.05754 2.3052,0.08922c32.2634,1.29676 29.07538,29.59082 29.07538,29.59082v4.26316c0,0 -24.42061,-2.33371 -40.08623,-1.33205c-10.86488,0.69469 -14.24653,5.21167 -14.36187,5.06179z"/><path d="M252.18906,126.63573c-15.66562,-1.00165 -40.08623,1.33205 -40.08623,1.33205v-4.06827c3.38859,-0.52707 6.71708,-0.73045 9.77881,-2.53117c4.36471,-2.56706 11.27615,1.3795 13.71741,-2.90902c1.83544,-3.22429 -0.75432,-14.42872 -0.32018,-18.223c0.21469,-1.87629 0.06534,-3.70187 0.18937,-5.56584c1.76783,-0.28436 3.66789,-0.4746 5.70997,-0.55667c24.72379,-0.99371 29.86258,-0.188 31.51357,12.46742c1.36465,10.46052 -4.24005,22.64616 -6.14085,25.1163c-0.11534,0.14989 -3.49698,-4.36709 -14.36187,-5.06179z" data-paper-data="{&quot;index&quot;:null}"/></g><g fill="#8d6e47"><path d=""/><path d=""/><path d=""/><path d=""/><path d="" data-paper-data="{&quot;index&quot;:null}"/><path d="" data-paper-data="{&quot;index&quot;:null}"/><path d="" data-paper-data="{&quot;index&quot;:null}"/><path d="" data-paper-data="{&quot;index&quot;:null}"/><path d="" data-paper-data="{&quot;index&quot;:null}"/></g></g><g fill="#000000"><path d="M213.02341,129.04888c-1.31554,-1.4925 -4.50422,-4.61051 -5.62186,-10.99106c0.91497,-0.02583 7.37573,3.08774 13.19209,2.34953c2.0399,-0.2589 -1.92972,-1.55101 -1.92972,-1.55101c0,0 3.78534,0.77187 6.90888,1.10441c2.94727,0.31378 9.6783,-0.17016 9.6783,-0.17016l-3.28569,-3.44889c0,0 2.24748,-1.679 3.05144,-5.26752c1.13369,-5.06029 0.8973,-13.03255 0.8973,-13.03255c0,0 3.16366,-0.09641 3.91013,-0.07022c30.55813,1.07227 24.76939,24.46826 24.76939,24.46826v3.52515c0,0 -23.12988,-1.9297 -37.96749,-1.10146c-10.29063,0.57443 -13.49354,4.30946 -13.60278,4.18552z"/><path d="M251.50589,124.8634c-14.83761,-0.82825 -37.96749,1.10146 -37.96749,1.10146v-3.364c3.20949,-0.43582 21.02211,-0.2323 23.33434,-3.77842c1.73843,-2.66612 1.75555,-18.54169 1.87302,-20.08299c1.6744,-0.23514 0.39711,-0.70013 2.33125,-0.76799c23.41702,-0.82169 28.28421,-0.15546 29.84794,10.30914c1.29252,8.64966 -4.01594,18.7258 -5.81628,20.76833c-0.10924,0.12394 -3.31216,-3.61109 -13.60278,-4.18552z" data-paper-data="{&quot;index&quot;:null}"/></g></g></g></g></g></g></svg>