<svg version="1.1" xmlns="http://www.w3.org/2000/svg" xmlns:xlink="http://www.w3.org/1999/xlink" width="770.20676" height="604.25841" viewBox="0,0,770.20676,604.25841"><defs><linearGradient x1="240" y1="75.84981" x2="240" y2="284.15019" gradientUnits="userSpaceOnUse" id="color-1"><stop offset="0" stop-color="#59220f" stop-opacity="0"/><stop offset="1" stop-color="#59220f"/></linearGradient><radialGradient cx="478.4985" cy="274.98955" r="100.17509" gradientUnits="userSpaceOnUse" id="color-2"><stop offset="0" stop-color="#4a5157"/><stop offset="1" stop-color="#4a5157" stop-opacity="0"/></radialGradient><radialGradient cx="-6.006" cy="183.003" r="100.17508" gradientUnits="userSpaceOnUse" id="color-3"><stop offset="0" stop-color="#4a5157"/><stop offset="1" stop-color="#4a5157" stop-opacity="0"/></radialGradient><radialGradient cx="67.1" cy="91.235" r="83" gradientUnits="userSpaceOnUse" id="color-4"><stop offset="0" stop-color="#d84800"/><stop offset="1" stop-color="#d84800" stop-opacity="0"/></radialGradient></defs><g transform="translate(149.39768,221.20056)"><g data-paper-data="{&quot;isPaintingLayer&quot;:true}" fill-rule="nonzero" stroke="none" stroke-linecap="butt" stroke-linejoin="miter" stroke-miterlimit="10" stroke-dasharray="" stroke-dashoffset="0" style="mix-blend-mode: normal"><path d="M620.80908,-221.20056v505.35075h-770.20676v-505.35074z" data-paper-data="{&quot;index&quot;:null}" fill="#4a5157" stroke-width="NaN"/><path d="M492,75.84981v208.30038h-504v-208.30038z" data-paper-data="{&quot;index&quot;:null}" fill="url(#color-1)" stroke-width="NaN"/><path d="M478.4985,162.41675c55.32518,0 100.17509,68.6442 100.17509,112.5728c0,43.9286 -38.84391,108.0683 -94.16908,108.0683c-55.32518,0 -106.1811,-64.1397 -106.1811,-108.0683c0,-43.9286 44.84992,-112.5728 100.17509,-112.5728z" fill="url(#color-2)" stroke-width="0"/><path d="M-6.00601,103.46324c55.32516,0 121.1961,31.10666 121.1961,75.03526c0,43.9286 -61.36643,108.0683 -116.6916,108.0683c-55.32517,0 -104.67958,-59.63519 -104.67958,-103.56379c0,-43.9286 44.84991,-79.53976 100.17508,-79.53976z" fill="url(#color-3)" stroke-width="0"/><path d="M119.10001,75.84981c0,37.00308 -30.22078,67 -67.5,67c-37.27922,0 -67.5,-29.99692 -67.5,-67c0,-37.00308 30.22078,-67 67.5,-67c37.27922,0 67.5,29.99692 67.5,67z" fill="#d84800" stroke-width="0"/><path d="M150.1,91.235c0,45.50008 -37.16037,82.38519 -83,82.38519c-45.83963,0 -83,-36.8851 -83,-82.38519c0,-45.50008 37.16037,-82.38519 83,-82.38519c45.83963,0 83,36.8851 83,82.38519z" fill="url(#color-4)" stroke-width="0"/></g></g></svg>