<svg version="1.1" xmlns="http://www.w3.org/2000/svg" xmlns:xlink="http://www.w3.org/1999/xlink" width="34.17311" height="34.17311" viewBox="0,0,34.17311,34.17311"><g transform="translate(-222.91345,-162.91345)"><g data-paper-data="{&quot;isPaintingLayer&quot;:true}" stroke="none" stroke-miterlimit="10" stroke-dasharray="" stroke-dashoffset="0" style="mix-blend-mode: normal"><path d="M229.98312,162.91346h20.03379c3.9166,0 7.06966,3.15307 7.06966,7.06966v20.03379c0,3.91659 -3.15306,7.06966 -7.06966,7.06966h-20.03379c-3.91659,0 -7.06966,-3.15307 -7.06966,-7.06966v-20.03379c0,-3.91659 3.15307,-7.06966 7.06966,-7.06966z" fill="#59220f" fill-rule="evenodd" stroke-width="4.43922" stroke-linecap="round" stroke-linejoin="round"/><g fill-rule="nonzero" stroke-linecap="butt" stroke-linejoin="miter"><g><g fill="#000000" stroke-width="0"><g><path d="M242.01236,191.99971c-1.0637,0.5702 -1.6829,0.38147 -3.51315,0.43897c-1.57481,0.04947 -3.62295,0.93801 -5.80855,-0.16071c-2.18561,-1.09873 2.58252,-14.91052 2.58252,-14.91052c0,0 11.05161,4.94613 12.50467,6.41186c1.45306,1.46573 -3.0719,4.30488 -3.0719,4.30488c0,0 0.01994,2.46094 -2.6936,3.91552z" data-paper-data="{&quot;index&quot;:null}"/><path d="M229.7592,180.316c0,0 -0.27679,-5.33473 1.75777,-4.98786c2.03456,0.34687 13.74268,7.09838 13.74268,7.09838c0,0 -9.19353,11.28189 -12.02785,10.1327c-1.69736,-0.68821 -2.55706,-3.00165 -3.45354,-4.78615c-0.65482,-1.30344 -1.56199,-2.06159 -1.67558,-3.00254c-0.36895,-3.05662 1.65652,-4.45452 1.65652,-4.45452z"/></g><g><path d="M232.13584,176.67196c1.77502,0.30262 11.98963,6.19289 11.98963,6.19289c0,0 -3.52232,-0.9759 -6.18464,1.57147c-2.06805,1.97875 -3.22785,7.70701 -4.30891,7.26869c-1.11796,-0.45329 -1.8194,-1.71472 -2.43258,-2.97563c0.00003,-0.00001 0.88386,0.21851 2.43062,-1.48836c1.43694,-1.58567 2.5697,-4.03008 1.10355,-7.24692c-1.34899,-2.95979 -3.4477,-3.09054 -3.4477,-3.09054c0,0 0.3273,-0.32071 0.85002,-0.23158z"/></g><g data-paper-data="{&quot;index&quot;:null}"><path d="M246.66138,184.89459c0,0 -1.31306,-1.64241 -4.51054,-1.04554c-3.47518,0.64872 -4.82469,2.98047 -5.29663,5.06767c-0.50802,2.24674 0.17872,2.84447 0.17873,2.8445c-1.38429,0.22278 -2.81973,0.37363 -3.83315,-0.28082c-1.2132,-0.78346 2.03599,-4.32341 2.70686,-7.77288c0.56864,-2.9238 -1.50243,-5.89504 -1.50243,-5.89504c0,0 10.6905,4.97461 11.9582,6.25337c0.37332,0.37658 0.29895,0.82873 0.29895,0.82873z"/></g></g><g><g><path d="M245.64156,191.53127c-1.98967,1.97386 -5.04477,2.33386 -6.82374,0.80408c-1.77898,-1.52978 -1.60817,-4.37005 0.3815,-6.34391c1.98967,-1.97386 5.04477,-2.33385 6.82374,-0.80407c1.77898,1.52978 1.60817,4.37004 -0.3815,6.3439z" fill="#000000" stroke-width="0"/><g><path d="M245.79741,191.99871c-1.83983,2.0152 -4.65731,2.56312 -6.29299,1.22382c-1.63569,-1.3393 -1.47019,-4.05866 0.36964,-6.07386c1.83983,-2.0152 4.6573,-2.56312 6.29299,-1.22382c1.63568,1.3393 1.47019,4.05866 -0.36964,6.07386z" fill="#000000" stroke-width="0"/><g fill="#000000" stroke-width="0"><path d="M240.81113,186.53539c0.03811,0.01531 -0.34664,1.2193 2.6411,2.40698c2.76658,1.09976 3.60277,-0.44331 3.62654,-0.43919c0.00204,1.11365 -0.4789,2.34382 -1.42386,3.37885c-1.75129,1.91821 -4.43317,2.43976 -5.99013,1.16491c-1.55696,-1.27484 -1.39944,-3.86333 0.35186,-5.78153c0.24811,-0.27175 0.51488,-0.51547 0.79449,-0.73002z"/><path d="M247.00088,187.75899c-0.00683,-0.00134 -0.49321,1.38157 -2.95732,0.47604c-2.92437,-1.07466 -2.34757,-2.23973 -2.37092,-2.24953c1.51727,-0.78963 3.21583,-0.80069 4.33409,0.11495c0.52417,0.42919 0.85402,1.00727 0.99415,1.65854z"/></g><g><path d="M240.84398,187.25491c0.84584,0.56018 1.6979,1.11882 2.51793,1.63613c0.8307,0.52405 1.75677,1.03917 2.5868,1.56808c-0.18904,0.36665 -0.43614,0.72395 -0.7404,1.05721c-0.16846,0.18453 -0.53351,0.50699 -0.53351,0.50699l-4.9824,-3.27487c0,0 0.44998,-0.76591 0.77086,-1.11737c0.12188,-0.1335 0.24911,-0.25895 0.38072,-0.37618z" fill="#000000" stroke-width="0"/><path d="M239.32166,189.85029c1.17356,0.78625 3.94518,2.61815 4.28658,2.84428c-1.22224,0.56217 -2.55039,0.53144 -3.44109,-0.19787c-0.75746,-0.62021 -1.03276,-1.60985 -0.84549,-2.64641z" fill="#000000" stroke-width="0"/><path d="M246.32475,189.4237c-1.02716,-0.66526 -2.71102,-1.94256 -4.23005,-2.98516c1.21354,-0.54729 2.52661,-0.5109 3.40969,0.21216c0.78824,0.64542 1.05433,1.69091 0.82037,2.773z" fill="#000000" stroke-width="0"/><g fill="none" stroke-width="1" font-family="sans-serif" font-weight="normal" font-size="12" text-anchor="start"/></g></g></g><g data-paper-data="{&quot;index&quot;:null}"><path d="M231.37304,177.5734c2.27427,0.57679 3.73529,3.28393 3.2633,6.04656c-0.47199,2.76263 -2.69828,4.53461 -4.97255,3.95782c-2.27427,-0.57679 -3.7353,-3.28392 -3.26331,-6.04655c0.47199,-2.76263 2.69829,-4.53461 4.97256,-3.95783z" fill="#000000" stroke-width="0"/><g><path d="M230.68673,177.87936c2.03604,0.56898 3.20672,3.18964 2.61479,5.8534c-0.59193,2.66376 -2.72232,4.36192 -4.75836,3.79293c-2.03604,-0.56898 -3.20672,-3.18964 -2.61479,-5.8534c0.59193,-2.66376 2.72232,-4.36191 4.75836,-3.79293z" fill="#000000" stroke-width="0"/><g fill="#000000" stroke-width="0"><path d="M233.12409,183.68319c-0.56344,2.53556 -2.59131,4.15199 -4.52936,3.61039c-1.93805,-0.5416 -3.05239,-3.03614 -2.48895,-5.5717c0.30402,-1.36813 1.0344,-2.46866 1.94697,-3.10697c0.01703,0.01709 -0.76527,1.58817 1.72462,3.22031c2.68893,1.76263 3.45317,0.75585 3.48759,0.77824c-0.0149,0.35213 -0.06105,0.71051 -0.14087,1.06972z"/><path d="M230.63515,178.11148c1.39198,0.38899 2.35902,1.78542 2.58472,3.48092c-0.02143,-0.01347 -0.64345,1.12809 -3.20347,-0.64761c-2.15711,-1.49624 -1.30486,-2.68899 -1.30988,-2.69382c0.61352,-0.25958 1.27616,-0.32182 1.92863,-0.13949z"/></g><g><path d="M232.56817,183.52783c-0.10324,0.46457 -0.47146,1.27298 -0.47146,1.27298l-5.54332,-2.1956c0,0 0.05413,-0.48406 0.10833,-0.72797c0.09789,-0.44052 0.2483,-0.84806 0.43973,-1.21347c0.90984,0.37534 1.86359,0.8372 2.76985,1.21588c0.89461,0.37382 1.84143,0.75011 2.78595,1.12042c-0.02031,0.17507 -0.04986,0.3513 -0.08907,0.52776z" fill="#000000" stroke-width="0"/><path d="M228.75638,186.56624c-1.10871,-0.30983 -1.8971,-1.37912 -2.1394,-2.70245c0.38126,0.14945 3.4732,1.36498 4.79107,1.87359c-0.74069,0.74893 -1.70881,1.09234 -2.65167,0.82886z" fill="#000000" stroke-width="0"/><path d="M230.47353,178.83882c1.09922,0.30719 1.88358,1.36087 2.13306,2.66853c-1.72619,-0.64402 -3.73917,-1.28806 -4.87388,-1.74638c0.75113,-0.81331 1.75965,-1.19635 2.74083,-0.92216z" fill="#000000" stroke-width="0"/><g fill="none" stroke-width="1" font-family="sans-serif" font-weight="normal" font-size="12" text-anchor="start"/></g></g></g></g></g><g fill="#000000" stroke-width="0"><g><g><path d="M230.07414,176.64878c-0.14342,-0.80379 -0.05831,-3.58471 0.84204,-6.23437c0.31246,0.14978 1.20289,1.96176 2.92274,3.19473c0.69289,0.49674 -0.65348,-1.44928 -0.65348,-1.44928c0,0 1.76642,1.71735 2.74898,2.39049c0.92711,0.63516 2.98972,1.54104 2.98972,1.54104l-0.35871,-1.23835c0,0 1.23043,-0.28643 2.21792,-1.52659c1.39249,-1.7488 2.70014,-4.65 2.85689,-4.84786c0.23363,0.13261 0.47307,0.26911 0.71854,0.40949c10.04866,5.74645 4.35683,14.21979 4.35683,14.21979l-0.70481,1.35612c0,0 -7.38242,-4.7797 -12.53128,-7.05098c-3.57099,-1.57525 -5.39347,-0.69747 -5.40538,-0.76422z"/><path d="M243.83544,181.75577c-4.81767,-2.90855 -12.97172,-6.20353 -12.97172,-6.20353l0.67259,-1.29413c1.16505,0.39255 2.25747,0.87814 3.52912,0.81151c1.81282,-0.09499 3.3589,2.30306 4.84447,1.34247c1.11692,-0.72221 2.14548,-4.71451 2.91087,-5.8497c0.37849,-0.56136 0.6328,-1.16677 0.98041,-1.73919c0.60936,0.20181 1.24523,0.45543 1.90839,0.76693c8.02897,3.77136 9.53042,4.87723 7.96334,9.17589c-1.29529,3.55312 -5.09274,6.5028 -6.10577,6.97431c-0.06147,0.02861 -0.39041,-1.96732 -3.7317,-3.98454z" data-paper-data="{&quot;index&quot;:null}"/></g><g><path d=""/><path d=""/><path d=""/><path d=""/><path d="" data-paper-data="{&quot;index&quot;:null}"/><path d="" data-paper-data="{&quot;index&quot;:null}"/><path d="" data-paper-data="{&quot;index&quot;:null}"/><path d="" data-paper-data="{&quot;index&quot;:null}"/><path d="" data-paper-data="{&quot;index&quot;:null}"/></g></g><g><path d="M230.97782,176.04833c-0.17173,-0.69226 -0.67057,-2.21127 0.02877,-4.42571c0.29532,0.14305 1.83576,2.20161 3.808,2.92837c0.6917,0.25489 -0.35743,-0.81241 -0.35743,-0.81241c0,0 1.07652,0.87135 2.01514,1.49353c0.88566,0.58707 3.10682,1.54594 3.10682,1.54594l-0.475,-1.64031c0,0 0.99251,-0.16253 1.84153,-1.17113c1.19722,-1.42226 2.44004,-3.99733 2.44004,-3.99733c0,0 1.0223,0.49236 1.25543,0.6241c9.54332,5.39311 3.83397,11.8784 3.83397,11.8784l-0.5828,1.12135c0,0 -7.03862,-4.43779 -11.89542,-6.62735c-3.36844,-1.51857 -5.00478,-0.85997 -5.01904,-0.91746z"/><path d="M243.91113,181.07904c-4.58294,-2.7165 -12.25962,-5.9266 -12.25962,-5.9266l0.55615,-1.0701c1.093,0.39198 6.72558,3.40159 8.04736,2.65583c0.99377,-0.56069 3.62385,-5.60791 3.91603,-6.07878c0.57151,0.20202 0.24207,-0.15706 0.86855,0.14111c7.58484,3.61004 9.02296,4.62664 7.79032,8.21397c-1.01886,2.96516 -4.37332,5.29278 -5.28369,5.64487c-0.05524,0.02137 -0.4566,-1.69628 -3.6351,-3.58031z" data-paper-data="{&quot;index&quot;:null}"/></g></g></g><g fill-rule="nonzero" stroke-linecap="butt" stroke-linejoin="miter"><g><g fill="#6d4321" stroke-width="0"><g><path d="M242.01236,190.78274c-1.06371,0.5702 -1.6829,0.38147 -3.51315,0.43897c-1.57481,0.04947 -3.62295,0.93801 -5.80856,-0.16071c-2.18561,-1.09873 2.58252,-14.91052 2.58252,-14.91052c0,0 11.05162,4.94613 12.50468,6.41186c1.45306,1.46573 -3.07189,4.30488 -3.07189,4.30488c0,0 0.01993,2.46094 -2.6936,3.91552z" data-paper-data="{&quot;index&quot;:null}"/><path d="M229.7592,179.09903c0,0 -0.27679,-5.33473 1.75777,-4.98786c2.03456,0.34687 13.74268,7.09838 13.74268,7.09838c0,0 -9.19353,11.28189 -12.02785,10.1327c-1.69736,-0.68821 -2.55706,-3.00165 -3.45355,-4.78616c-0.65481,-1.30344 -1.56199,-2.06159 -1.67557,-3.00254c-0.36895,-3.05662 1.65651,-4.45452 1.65651,-4.45452z"/></g><g><path d="M232.13584,175.45499c1.77502,0.30262 11.98964,6.19289 11.98964,6.19289c0,0 -3.52232,-0.9759 -6.18464,1.57146c-2.06804,1.97875 -3.22785,7.70701 -4.30891,7.26869c-1.11797,-0.45329 -1.81941,-1.71472 -2.43258,-2.97563c0.00004,-0.00001 0.88386,0.21851 2.43062,-1.48836c1.43694,-1.58567 2.5697,-4.03007 1.10355,-7.24692c-1.34899,-2.95979 -3.4477,-3.09054 -3.4477,-3.09054c0,0 0.3273,-0.32071 0.85002,-0.23159z"/></g><g data-paper-data="{&quot;index&quot;:null}"><path d="M246.66137,183.67762c0,0 -1.31306,-1.64242 -4.51053,-1.04554c-3.47518,0.64872 -4.82469,2.98047 -5.29663,5.06767c-0.50802,2.24673 0.17871,2.84447 0.17873,2.84451c-1.38429,0.22278 -2.81972,0.37362 -3.83314,-0.28082c-1.2132,-0.78346 2.03599,-4.32341 2.70686,-7.77288c0.56863,-2.9238 -1.50243,-5.89504 -1.50243,-5.89504c0,0 10.6905,4.97461 11.9582,6.25337c0.37333,0.37658 0.29894,0.82873 0.29894,0.82873z"/></g></g><g><g><path d="M245.64156,190.31431c-1.98967,1.97386 -5.04477,2.33386 -6.82374,0.80408c-1.77898,-1.52978 -1.60817,-4.37005 0.3815,-6.34391c1.98967,-1.97386 5.04477,-2.33386 6.82374,-0.80408c1.77898,1.52978 1.60817,4.37005 -0.3815,6.34391z" fill="#000000" stroke-width="0"/><g><path d="M245.7974,190.78174c-1.83984,2.01519 -4.65731,2.56312 -6.29299,1.22382c-1.63569,-1.3393 -1.47019,-4.05866 0.36964,-6.07385c1.83984,-2.01519 4.65731,-2.56312 6.29299,-1.22382c1.63569,1.3393 1.47019,4.05866 -0.36964,6.07385z" fill="#000000" stroke-width="0"/><g fill="#000000" stroke-width="0"><path d="M240.81113,185.31842c0.03811,0.01531 -0.34664,1.2193 2.6411,2.40698c2.76658,1.09976 3.60278,-0.44331 3.62655,-0.43919c0.00204,1.11365 -0.47891,2.34382 -1.42386,3.37884c-1.75129,1.91821 -4.43316,2.43976 -5.99013,1.16492c-1.55697,-1.27484 -1.39943,-3.86333 0.35186,-5.78153c0.2481,-0.27175 0.51488,-0.51547 0.79449,-0.73002z"/><path d="M247.00088,186.54202c-0.00684,-0.00134 -0.49321,1.38157 -2.95732,0.47605c-2.92437,-1.07466 -2.34757,-2.23973 -2.37092,-2.24953c1.51727,-0.78963 3.21583,-0.80068 4.33409,0.11495c0.52417,0.42919 0.85402,1.00727 0.99415,1.65853z"/></g><g><path d="M240.84398,186.03794c0.84584,0.56018 1.6979,1.11881 2.51793,1.63613c0.8307,0.52405 1.75677,1.03917 2.5868,1.56809c-0.18904,0.36665 -0.43614,0.72395 -0.7404,1.05721c-0.16846,0.18452 -0.53351,0.50699 -0.53351,0.50699l-4.9824,-3.27486c0,0 0.44998,-0.76591 0.77086,-1.11737c0.12188,-0.1335 0.24911,-0.25895 0.38072,-0.37618z" fill="#000000" stroke-width="0"/><path d="M239.32166,188.63332c1.17357,0.78625 3.94518,2.61815 4.28658,2.84428c-1.22224,0.56217 -2.55039,0.53144 -3.44109,-0.19786c-0.75746,-0.62021 -1.03275,-1.60986 -0.84549,-2.64642z" fill="#000000" stroke-width="0"/><path d="M246.32475,188.20673c-1.02716,-0.66526 -2.71101,-1.94256 -4.23006,-2.98515c1.21354,-0.5473 2.52661,-0.5109 3.40969,0.21216c0.78824,0.64541 1.05433,1.6909 0.82037,2.77299z" fill="#000000" stroke-width="0"/><g fill="none" stroke-width="1" font-family="sans-serif" font-weight="normal" font-size="12" text-anchor="start"/></g></g></g><g data-paper-data="{&quot;index&quot;:null}"><path d="M231.37304,176.35643c2.27427,0.57679 3.7353,3.28392 3.2633,6.04655c-0.472,2.76263 -2.69829,4.53461 -4.97256,3.95783c-2.27427,-0.57679 -3.7353,-3.28392 -3.2633,-6.04656c0.472,-2.76263 2.69829,-4.53461 4.97256,-3.95782z" fill="#000000" stroke-width="0"/><g><path d="M230.68672,176.66239c2.03604,0.56898 3.20672,3.18964 2.61479,5.8534c-0.59193,2.66376 -2.72232,4.36192 -4.75836,3.79293c-2.03604,-0.56898 -3.20672,-3.18964 -2.61479,-5.8534c0.59193,-2.66376 2.72232,-4.36192 4.75836,-3.79293z" fill="#000000" stroke-width="0"/><g fill="#000000" stroke-width="0"><path d="M233.12409,182.46622c-0.56344,2.53556 -2.5913,4.15199 -4.52935,3.61039c-1.93805,-0.5416 -3.05239,-3.03614 -2.48895,-5.5717c0.30402,-1.36813 1.0344,-2.46866 1.94697,-3.10697c0.01703,0.01709 -0.76528,1.58816 1.72462,3.22031c2.68893,1.76262 3.45316,0.75585 3.48759,0.77825c-0.01491,0.35213 -0.06105,0.71051 -0.14087,1.06972z"/><path d="M230.63515,176.89451c1.39197,0.38899 2.35902,1.78543 2.58472,3.48092c-0.02143,-0.01347 -0.64346,1.1281 -3.20347,-0.64761c-2.15711,-1.49623 -1.30485,-2.68899 -1.30988,-2.69381c0.61352,-0.25957 1.27616,-0.32183 1.92863,-0.13949z"/></g><g><path d="M232.56817,182.31086c-0.10323,0.46458 -0.47146,1.27297 -0.47146,1.27297l-5.54332,-2.1956c0,0 0.05413,-0.48406 0.10833,-0.72797c0.09789,-0.44052 0.2483,-0.84806 0.43973,-1.21347c0.90984,0.37534 1.86359,0.8372 2.76985,1.21589c0.89461,0.37382 1.84143,0.75011 2.78595,1.12042c-0.02031,0.17508 -0.04986,0.3513 -0.08907,0.52776z" fill="#000000" stroke-width="0"/><path d="M228.75637,185.34927c-1.10871,-0.30984 -1.8971,-1.37912 -2.1394,-2.70245c0.38126,0.14945 3.4732,1.36498 4.79107,1.87359c-0.7407,0.74893 -1.70881,1.09235 -2.65167,0.82886z" fill="#000000" stroke-width="0"/><path d="M230.47352,177.62185c1.09922,0.30718 1.88358,1.36088 2.13306,2.66853c-1.72619,-0.64402 -3.73916,-1.28806 -4.87388,-1.74638c0.75112,-0.81331 1.75965,-1.19635 2.74082,-0.92216z" fill="#000000" stroke-width="0"/><g fill="none" stroke-width="1" font-family="sans-serif" font-weight="normal" font-size="12" text-anchor="start"/></g></g></g></g></g><g stroke-width="0"><g><g fill="#6d4321"><path d="M230.07414,175.43182c-0.14342,-0.80379 -0.05831,-3.5847 0.84203,-6.23437c0.31246,0.14977 1.20289,1.96176 2.92274,3.19473c0.69289,0.49673 -0.65349,-1.44928 -0.65349,-1.44928c0,0 1.76642,1.71735 2.74898,2.39049c0.92712,0.63516 2.98972,1.54105 2.98972,1.54105l-0.35871,-1.23835c0,0 1.23043,-0.28643 2.21792,-1.5266c1.39249,-1.7488 2.70014,-4.65 2.8569,-4.84786c0.23363,0.13261 0.47307,0.26911 0.71854,0.40949c10.04866,5.74645 4.35682,14.21978 4.35682,14.21978l-0.70481,1.35612c0,0 -7.38242,-4.7797 -12.53128,-7.05099c-3.57099,-1.57526 -5.39347,-0.69747 -5.40538,-0.76421z"/><path d="M243.83544,180.5388c-4.81766,-2.90855 -12.97172,-6.20353 -12.97172,-6.20353l0.67259,-1.29412c1.16505,0.39256 2.25748,0.87814 3.52912,0.81151c1.81282,-0.09499 3.3589,2.30305 4.84447,1.34247c1.11691,-0.72221 2.14548,-4.71451 2.91087,-5.8497c0.37849,-0.56136 0.6328,-1.16677 0.98041,-1.7392c0.60936,0.20181 1.24523,0.45542 1.90838,0.76692c8.02897,3.77136 9.53042,4.87723 7.96334,9.17589c-1.29529,3.55312 -5.09275,6.5028 -6.10577,6.9743c-0.06147,0.02861 -0.39041,-1.96732 -3.7317,-3.98454z" data-paper-data="{&quot;index&quot;:null}"/></g><g fill="#8d6e47"><path d=""/><path d=""/><path d=""/><path d=""/><path d="" data-paper-data="{&quot;index&quot;:null}"/><path d="" data-paper-data="{&quot;index&quot;:null}"/><path d="" data-paper-data="{&quot;index&quot;:null}"/><path d="" data-paper-data="{&quot;index&quot;:null}"/><path d="" data-paper-data="{&quot;index&quot;:null}"/></g></g><g fill="#000000"><path d="M230.97782,174.83136c-0.17173,-0.69226 -0.67057,-2.21127 0.02877,-4.42571c0.29532,0.14305 1.83575,2.20161 3.80799,2.92837c0.6917,0.25489 -0.35743,-0.81241 -0.35743,-0.81241c0,0 1.07651,0.87134 2.01514,1.49353c0.88566,0.58707 3.10682,1.54594 3.10682,1.54594l-0.475,-1.64031c0,0 0.99251,-0.16253 1.84152,-1.17113c1.19722,-1.42226 2.44004,-3.99733 2.44004,-3.99733c0,0 1.0223,0.49236 1.25543,0.62411c9.54332,5.39312 3.83397,11.8784 3.83397,11.8784l-0.5828,1.12136c0,0 -7.03863,-4.43779 -11.89543,-6.62736c-3.36844,-1.51857 -5.00478,-0.85997 -5.01904,-0.91746z"/><path d="M243.91113,179.86207c-4.58294,-2.7165 -12.25962,-5.9266 -12.25962,-5.9266l0.55615,-1.07009c1.093,0.39197 6.72558,3.40159 8.04736,2.65583c0.99377,-0.56069 3.62385,-5.60791 3.91603,-6.07878c0.5715,0.20202 0.24207,-0.15706 0.86854,0.14112c7.58484,3.61004 9.02296,4.62664 7.79032,8.21397c-1.01885,2.96516 -4.37332,5.29277 -5.2837,5.64487c-0.05524,0.02137 -0.4566,-1.69628 -3.6351,-3.5803z" data-paper-data="{&quot;index&quot;:null}"/></g></g></g></g></g></svg>