<svg version="1.1" xmlns="http://www.w3.org/2000/svg" xmlns:xlink="http://www.w3.org/1999/xlink" width="92.15744" height="371.18071" viewBox="0,0,92.15744,371.18071"><g transform="translate(-194.13677,-56.13357)"><g data-paper-data="{&quot;isPaintingLayer&quot;:true}" fill-rule="nonzero" stroke-linejoin="miter" stroke-miterlimit="10" stroke-dasharray="" stroke-dashoffset="0" style="mix-blend-mode: normal"><g stroke="none" stroke-linecap="butt"><g fill="#000000"><path d="M200.58124,185.9609c0,-21.10292 18.15751,-38.21022 40.55593,-38.21022c22.39843,0 40.82079,17.1073 40.82079,38.21022c0,2.70002 0.0039,117.77204 0.0039,117.77204l-11.39983,-0.12964l-0.14337,-113.82486c0,0 0.46851,-2.08621 -1.77595,-2.22047c-2.48625,-0.14872 -2.11767,1.68282 -2.11767,1.68282l0.10343,114.38802l-50.32146,0.07847l0.10485,-114.20488c0,0 -0.19035,-2.13951 -1.8053,-2.16297c-2.01199,-0.02922 -1.98832,2.04221 -1.98832,2.04221l-0.29988,114.25674l-11.38239,0.22905c0,0 -0.35473,-116.42094 -0.35473,-117.90653z" stroke-width="0"/><path d="M202.86643,187.26735c0,-20.02201 17.22746,-36.58913 38.47861,-36.58913c21.25115,0 38.72991,16.56711 38.72991,36.58913c0,2.56173 0.00369,114.79215 0.00369,114.79215l-7.50523,0.21307l0.19503,-111.38321c0,0 0.08238,-5.30397 -4.03353,-5.43136c-4.01424,-0.25313 -4.29562,4.92124 -4.29562,4.92124l-0.56401,112.58967l-45.42645,-0.26162l0.09948,-112.07984c0,0 0.71386,-5.00198 -3.49923,-5.04073c-4.92978,-0.04534 -4.96689,4.92616 -4.96689,4.92616l0.56795,112.12904l-7.39669,-0.11875c0,0 -0.38702,-113.84632 -0.38702,-115.25581z" stroke-width="0"/><g><path d="M230.02078,204.89617c-5.66213,0 -7.34973,-0.4705 -7.34973,-0.4705l-0.08286,-1.2733c0,0 5.25623,0.13066 7.69744,0.13066c4.20542,0 7.61458,-1.35635 7.61458,-0.87378c0,0.48257 -1.95246,2.48691 -7.87944,2.48691z" stroke-width="0"/><path d="M225.51823,199.6535c0,-0.55682 0.44467,-1.00821 0.99321,-1.00821c0.54854,0 0.99321,0.45139 0.99321,1.00821c0,0.55682 -0.44467,1.00821 -0.99321,1.00821c-0.54854,0 -0.99321,-0.45139 -0.99321,-1.00821z" stroke-width="0.5"/></g><g data-paper-data="{&quot;index&quot;:null}"><path d="M244.83599,202.40926c0,-0.48257 3.40916,0.87378 7.61458,0.87378c2.44121,0 7.69744,-0.13066 7.69744,-0.13066l-0.08286,1.2733c0,0 -1.6876,0.4705 -7.34973,0.4705c-5.92698,0 -7.87944,-2.00433 -7.87944,-2.48691z" stroke-width="0"/><path d="M256.2247,200.6617c-0.54853,0 -0.99321,-0.45139 -0.99321,-1.00821c0,-0.55682 0.44467,-1.00821 0.99321,-1.00821c0.54853,0 0.99321,0.45139 0.99321,1.00821c0,0.55682 -0.44467,1.00821 -0.99321,1.00821z" stroke-width="0.5"/></g><path d="M240.38322,253.12204c0,-0.55681 0.44467,-1.00821 0.99321,-1.00821c0.54854,0 0.99321,0.45139 0.99321,1.00821c0,0.55681 -0.44467,1.00821 -0.99321,1.00821c-0.54854,0 -0.99321,-0.45139 -0.99321,-1.00821z" stroke-width="0.5"/></g><path d="M201.82272,298.73478c0,0 -3.97935,-16.38525 -5.42292,-36.9538c-0.67786,-9.65849 2.48551,-12.56607 2.48551,-17.95579c0,-7.32891 -1.66387,-5.06757 -1.26376,-18.37395c0.10318,-3.43134 2.25999,-7.54263 2.58711,-12.16017c0.33549,-4.73561 -1.15986,-10.0037 -1.15986,-15.61687c0,-7.46795 -0.94175,-16.37749 -0.94175,-16.37749l20.76738,1.14329v116.29478z" fill="#481310" stroke-width="0"/><path d="M214.86681,322.37359c0,0 2.40603,-92.61434 -0.72376,-115.44857c-1.42315,-10.38294 -14.59285,-23.93261 -14.59285,-23.93261c0,0 40.13348,7.22743 40.20432,9.63127c0.15759,5.34768 0.88153,25.13248 1.77966,49.33448c1.79868,48.46921 1.92364,76.33102 1.92364,76.33102z" fill="#59220f" stroke-width="0"/><path d="M196.57473,182.33328c0,0 1.05909,-7.58871 2.73072,-10.80835c3.01256,-5.80233 7.9631,-10.57928 7.9631,-10.57928c0,0 4.2609,2.83543 6.63016,8.50314c1.97137,4.71589 1.83578,11.77055 1.83578,11.77055c0,0 7.23095,0.27532 10.07759,1.4c7.52103,2.97151 14.42906,10.38114 14.42906,10.38114z" fill="#8d6e47" stroke-width="0"/><path d="M237.71748,221.14984c0,4.44526 -9.75492,12.80385 -15.12277,12.80385c-3.06825,0 -4.75229,-8.40697 -4.75433,-16.34465c-0.00641,-24.93304 -13.04757,-27.34902 -7.67972,-27.34902c1.5191,0 6.36129,0.76307 11.11372,1.71363c5.28849,1.05778 11.14263,1.04654 14.36577,3.20542c4.11517,2.75637 2.07734,24.18343 2.07734,25.97077z" fill="#6d4321" stroke-width="0"/><path d="M235.58534,297.14479c0,2.8675 -12.06838,-3.27919 -14.48311,-3.27919c-2.41474,0 -1.6396,-49.87291 -1.6396,-52.7404c0,-0.59223 5.14049,0.5298 9.96914,-2.24955c0.31667,-0.18227 0.63199,-0.38132 0.94443,-0.59874c3.19307,-2.22188 6.25062,-5.07644 6.84873,-5.07644c2.41474,0 -1.6396,61.07682 -1.6396,63.94431z" fill="#6d4321" stroke-width="0"/><path d="M213.2158,179.65353c-0.07175,2.07654 -4.26419,2.5081 -12.33149,1.04504c-2.38517,-0.43257 5.93625,-16.51165 6.47925,-16.30264c1.28698,0.49538 6.06124,9.20866 5.85223,15.2576z" fill="#a79262" stroke-width="0"/><path d="M234.94408,190.56095c0,0 -9.47994,-2.20115 -14.79558,-4.21571c-3.64792,-1.38251 -4.12135,-3.465 -4.12135,-3.465c0,0 4.13995,0.24871 6.38343,0.24871c2.24348,0 12.53351,7.43201 12.53351,7.43201z" fill="#a79262" stroke-width="0"/><path d="M216.29547,185.36419c0,0.73721 -11.2408,-2.07298 -11.2408,-2.8102c0,-0.29375 2.3221,0.01236 3.93246,-0.02022c2.4311,-0.04917 4.49815,-0.33106 4.49815,-0.33106c0,0 2.8102,2.42426 2.8102,3.16147z" fill="#a79262" stroke-width="0"/><path d="M212.1649,229.1448c0,2.44314 -0.25498,25.1798 -0.25498,25.1798c0,0 -10.24317,-3.95455 -10.92512,-9.2004c-0.79665,-6.12816 -1.5642,-13.60925 -1.5642,-15.9794c0,-2.1624 2.83995,-8.44545 3.25751,-16.92634c0.4319,-8.77212 -3.55297,-22.3203 -1.51965,-22.3203c1.72399,0 5.7782,6.38889 8.18535,13.68116c3.17673,9.6236 2.82109,23.06282 2.82109,25.56548z" fill="#571c18" stroke-width="0"/><g stroke-width="0"><path d="M263.72435,298.73478v-116.29478l20.76738,-1.14329c0,0 -0.94175,8.90954 -0.94175,16.37749c0,5.61317 -1.49535,10.88125 -1.15986,15.61687c0.32712,4.61754 2.48393,8.72883 2.58711,12.16017c0.40011,13.30639 -1.26376,11.04504 -1.26376,18.37395c0,5.38971 3.16338,8.2973 2.48551,17.95579c-1.44357,20.56855 -5.42293,36.9538 -5.42293,36.9538z" data-paper-data="{&quot;index&quot;:null}" fill="#481310"/><path d="M239.14094,318.28916c0,0 0.12497,-27.86181 1.92364,-76.33102c0.89813,-24.202 1.62207,-43.9868 1.77966,-49.33447c0.07084,-2.40383 40.20432,-9.63127 40.20432,-9.63127c0,0 -13.16971,13.54968 -14.59285,23.93261c-3.12979,22.83424 -0.72376,115.44858 -0.72376,115.44858z" data-paper-data="{&quot;index&quot;:null}" fill="#59220f"/><path d="M242.35763,193.00049c0,0 6.90803,-7.40963 14.42906,-10.38114c2.84665,-1.12469 10.0776,-1.4 10.0776,-1.4c0,0 -0.13559,-7.05465 1.83578,-11.77055c2.36926,-5.66771 6.63016,-8.50314 6.63016,-8.50314c0,0 4.95054,4.77695 7.9631,10.57928c1.67163,3.21964 2.73072,10.80835 2.73072,10.80835z" data-paper-data="{&quot;index&quot;:null}" fill="#8d6e47"/><path d="M246.95862,195.17907c3.22314,-2.15888 9.07728,-2.14764 14.36577,-3.20542c4.75244,-0.95057 9.59462,-1.71363 11.11373,-1.71363c5.36786,0 -7.67331,2.41598 -7.67972,27.34902c-0.00204,7.93768 -1.68608,16.34465 -4.75433,16.34465c-5.36786,0 -15.12278,-8.3586 -15.12278,-12.80385c0,-1.78734 -2.03784,-23.21439 2.07734,-25.97076z" data-paper-data="{&quot;index&quot;:null}" fill="#6d4321"/><path d="M245.37383,233.20047c0.59811,0 3.65566,2.85455 6.84873,5.07644c0.31244,0.21741 0.62777,0.41647 0.94443,0.59874c4.82865,2.77935 9.96915,1.65732 9.96915,2.24955c0,2.86749 0.77514,52.7404 -1.6396,52.7404c-2.41474,0 -14.48312,6.14669 -14.48312,3.27919c0,-2.8675 -4.05434,-63.94431 -1.6396,-63.94431z" data-paper-data="{&quot;index&quot;:null}" fill="#6d4321"/><path d="M275.23519,164.39593c0.543,-0.20901 8.86442,15.87007 6.47926,16.30264c-8.0673,1.46306 -12.25974,1.0315 -12.33149,-1.04504c-0.20901,-6.04893 4.56525,-14.76222 5.85223,-15.2576z" data-paper-data="{&quot;index&quot;:null}" fill="#a79262"/><path d="M260.1882,183.12894c2.24348,0 6.38343,-0.24871 6.38343,-0.24871c0,0 -0.47343,2.08249 -4.12135,3.465c-5.31565,2.01455 -14.79559,4.21571 -14.79559,4.21571c0,0 10.29003,-7.43201 12.53351,-7.43201z" data-paper-data="{&quot;index&quot;:null}" fill="#a79262"/><path d="M269.11349,182.20271c0,0 2.06705,0.28188 4.49815,0.33106c1.61036,0.03258 3.93246,-0.27353 3.93246,0.02022c0,0.73721 -11.24081,3.54741 -11.24081,2.8102c0,-0.73721 2.8102,-3.16147 2.8102,-3.16147z" data-paper-data="{&quot;index&quot;:null}" fill="#a79262"/><path d="M273.25497,203.57932c2.40716,-7.29227 6.46136,-13.68116 8.18535,-13.68116c2.03332,0 -1.95155,13.54818 -1.51965,22.3203c0.41756,8.4809 3.25751,14.76395 3.25751,16.92634c0,2.37015 -0.76755,9.85124 -1.5642,15.9794c-0.68195,5.24585 -10.92512,9.2004 -10.92512,9.2004c0,0 -0.25498,-22.73666 -0.25498,-25.1798c0,-2.50267 -0.35564,-15.94188 2.82109,-25.56548z" data-paper-data="{&quot;index&quot;:null}" fill="#571c18"/></g></g><g stroke="none" stroke-width="0" stroke-linecap="butt"><path d="M200.83559,330.13712c2.75009,-3.97354 6.82858,-8.95654 8.59249,-8.97304c1.53932,-0.24076 8.92198,4.63275 8.92198,4.63275c0,0 4.62881,-5.12874 7.67067,-4.33989c1.71576,0.04447 5.08387,6.0245 7.56181,9.68455c1.37044,2.02424 2.75777,2.65638 2.75777,2.65638c0,0 -0.82854,12.05748 -4.44572,17.20728c-3.87207,5.51271 -10.65094,4.24729 -13.92897,4.26932c-3.44102,0.02313 -10.05684,1.15087 -14.39571,-4.48133c-3.76252,-4.88406 -5.90306,-18.31852 -5.90306,-18.31852c0,0 1.48287,0.0984 3.16875,-2.33748z" fill="#000000"/><path d="M218.36207,327.94109c0,0 4.55833,-4.74239 7.61925,-4.25873c2.87743,0.65535 6.9359,9.08436 6.9359,9.08436c0,0 -1.92434,0.26842 -4.19994,-0.5425c-3.39899,-1.21124 -6.09165,-3.57253 -9.29221,-3.66188c-1.4842,-0.04144 -3.60567,-0.30551 -5.87579,0.08137c-2.57149,0.43825 -5.22957,2.29775 -7.47237,2.94426c-2.66958,0.76954 -4.70734,0.29799 -4.70734,0.29799c0,0 1.4275,-1.24419 2.90399,-2.94123c1.93577,-2.22493 3.6596,-4.97439 5.13942,-5.31793c3.00056,-0.69659 8.94908,4.31431 8.94908,4.31431z" fill="#ffffff"/><path d="M233.73493,334.502c0,0 0.29825,10.24203 -3.43516,15.0242c-3.37912,4.32837 -10.73886,3.24254 -12.23139,3.23642c-1.23229,-0.00504 -8.65961,1.05894 -12.87984,-3.62415c-4.25729,-4.72422 -5.30236,-15.19586 -5.30236,-15.19586c0,0 2.32181,-0.39543 4.28229,1.6603c3.15023,3.3033 2.97044,9.41714 14.32045,9.3723c9.15502,-0.03617 9.05334,-6.06016 11.17273,-8.7335c1.9124,-2.41223 4.07327,-1.73972 4.07327,-1.73972z" fill="#ffffff"/><path d="M216.7062,332.68763c-2.88824,-0.08751 -8.21938,-0.68144 -8.21938,-0.68144c0,0 3.11129,-1.90025 10.8228,-1.70759c2.80256,0.07001 6.36103,2.22832 6.36103,2.22832c0,0 -6.1256,0.24674 -8.96445,0.16071z" fill="#ffffff"/><path d="M209.4241,340.23361c0,0 5.51699,0.73861 8.22616,0.79244c2.5189,0.05004 7.49966,-0.48 7.49966,-0.48c0,0 -0.53042,2.68199 -7.49949,2.55462c-5.87405,-0.10736 -8.22633,-2.86705 -8.22633,-2.86705z" fill="#ffffff"/></g><g stroke="none" stroke-width="0" stroke-linecap="butt"><path d="M227.08996,394.74417c1.13593,0.02766 5.47365,4.79787 8.27571,7.66687c1.43028,1.46445 2.46045,2.04849 2.46045,2.04849c0,0 -1.01758,3.95678 -1.41842,6.81522c-0.50719,3.61687 -1.94419,9.24714 -3.96461,11.94859c-3.87207,5.17725 -23.04851,5.6111 -27.38738,0.32161c-2.43088,-2.96348 -3.92526,-8.28066 -5.12085,-12.1892c-0.65493,-2.14107 -2.69901,-7.38987 -2.69901,-7.38987c0,0 1.86843,-0.88984 3.75714,-2.51761c3.20078,-2.75857 6.39318,-6.9608 10.64989,-6.87501l6.77045,2.03618c0,0 7.51521,-2.14813 8.6766,-1.86528z" fill="#000000"/><path d="M227.05053,396.73003c0.66675,0.14261 2.85612,2.50648 4.6682,4.50035c1.60558,1.76666 2.89257,3.19806 2.89257,3.19806c0,0 -2.60093,0.18615 -5.46266,-0.51929c-3.27585,-0.80752 -4.10621,-2.64866 -6.89729,-2.70667c-12.30892,-0.25581 -9.30997,1.55773 -12.98029,2.03122c-5.31094,0.68514 -8.08201,0.26342 -8.08201,0.26342c0,0 8.08996,-6.4395 8.87656,-6.611c3.00056,-0.6542 8.5325,2.17718 8.5325,2.17718c0,0 5.39148,-2.7875 8.45241,-2.33328z" fill="#ffffff"/><path d="M230.9524,421.52196c-3.37912,4.06498 -10.32227,2.83693 -11.8148,2.8312c-1.23229,-0.00473 -8.45132,1.30692 -12.67155,-3.09119c-2.61404,-2.72422 -4.22531,-7.6917 -4.91892,-10.95981c-0.43603,-2.05444 -1.32074,-5.08181 -1.32074,-5.08181c0,0 2.73839,0.14934 4.69886,2.07999c3.15023,3.10228 3.17872,10.30212 14.52874,10.26c9.15502,-0.03397 9.26164,-7.04528 11.38103,-9.55593c1.9124,-2.26545 4.59399,-2.15457 4.59399,-2.15457c0,0 -1.91193,12.60804 -4.37246,15.56798z" fill="#ffffff"/><path d="M212.26376,404.23492c0,0 0.50768,-1.57632 8.21919,-1.39539c2.80256,0.06576 5.63202,1.98857 5.63202,1.98857c0,0 -4.85552,0.02711 -7.08049,-0.06817c-2.38145,-0.10198 -6.77072,-0.52501 -6.77072,-0.52501z" fill="#ffffff"/><path d="M211.01402,413.21142c0,0 5.51698,0.69367 8.22615,0.74422c2.5189,0.04699 6.8748,-0.65909 6.8748,-0.65909c0,0 0.09446,2.72708 -6.87462,2.60747c-5.87405,-0.10083 -8.22633,-2.69259 -8.22633,-2.69259z" fill="#ffffff"/></g><g stroke="none" stroke-width="0" stroke-linecap="butt"><path d="M252.71217,323.01162c2.42638,-0.22983 8.66223,2.13696 8.66223,2.13696c0,0 4.64141,-2.27569 6.6973,-2.12758c3.35597,0.24177 13.13365,8.7515 13.13365,8.7515c0,0 -0.97598,10.01423 -2.70409,16.66096c-0.84477,3.24918 -1.98758,4.88895 -3.05505,5.71791c-3.11901,2.42211 -7.16963,4.26013 -13.86968,4.27899c-7.07988,0.01993 -11.88183,-1.78325 -15.46836,-3.99915c-4.08451,-2.52358 -6.53781,-23.94637 -6.53781,-23.94637c0,0 10.69616,-7.24153 13.1418,-7.47321z" fill="#000000"/><path d="M267.96933,325.22948c3.92175,0.26419 10.66316,6.43445 10.66316,6.43445c0,0 -3.47674,-0.08878 -7.86225,-0.89063c-3.12602,-0.57156 -4.88516,-1.86151 -9.34791,-1.99037c-4.37889,-0.12643 -7.51488,1.30726 -11.37426,1.75933c-4.03594,0.47275 -7.33165,0.00045 -7.33165,0.00045c0,0 8.06324,-5.51225 11.88216,-5.63933c2.0485,-0.06817 6.60057,1.66745 6.60057,1.66745c0,0 4.95391,-1.4637 6.77017,-1.34135z" fill="#ffffff"/><path d="M279.26553,333.36453c0,0 -0.70343,2.02488 -1.21818,5.60215c-0.55287,3.84211 -0.99551,9.359 -3.35542,12.58328c-3.69245,5.0449 -11.88786,4.61393 -13.4173,4.56859c-2.90546,-0.00528 -10.63839,0.42503 -14.39975,-4.70397c-2.50163,-3.41123 -3.41085,-9.38409 -4.15652,-13.41835c-0.7003,-3.78874 -1.31139,-5.75179 -1.31139,-5.75179c0,0 2.52746,-0.26691 5.06035,3.13996c0.92393,1.24274 1.5353,3.34695 2.44572,5.36002c1.00161,2.21472 2.31612,4.33504 3.67048,5.44466c2.75645,2.25834 6.46642,2.49495 8.46656,2.55413c1.75677,0.05197 5.1956,-0.06567 7.44748,-1.78681c1.21972,-0.93225 2.60337,-3.09394 3.6068,-5.48755c0.89164,-2.12695 1.41764,-4.48469 2.25438,-5.60219c2.71198,-3.62195 4.90679,-2.50214 4.90679,-2.50214z" fill="#ffffff"/><path d="M270.29388,342.04037c0,0 -2.18342,5.17516 -9.56124,4.94696c-4.90803,-0.15181 -6.41835,-2.11481 -8.04118,-3.5893c-1.12813,-1.02501 -1.831,-1.58424 -1.831,-1.58424c0,0 1.00926,-0.40389 2.24768,0.05458c2.32413,0.86039 3.67102,2.77257 7.77996,2.85318c5.6154,0.11016 5.15019,-1.87096 7.50325,-2.68279c1.34568,-0.46428 1.90253,0.00162 1.90253,0.00162z" fill="#ffffff"/><path d="M252.72606,331.88211c0,0 2.7537,-0.26332 5.35819,-0.57197c1.77301,-0.21011 3.31002,-0.52228 4.5133,-0.47032c2.85453,0.12326 7.61859,1.79755 7.61859,1.79755c0,0 -7.65438,0.18304 -10.64852,0.05375c-2.82619,-0.12204 -6.84156,-0.80901 -6.84156,-0.80901z" fill="#ffffff"/></g><g stroke="none" stroke-width="0" stroke-linecap="butt"><path d="M262.8788,393.40263c0,0 4.43587,-2.17584 6.49176,-2.02773c3.35597,0.24177 12.92812,7.9527 12.92812,7.9527c0,0 -2.18693,11.77579 -6.5992,16.42681c-1.22719,1.29359 -7.01849,3.04234 -12.97449,3.1162c-6.24254,0.07741 -12.55311,-1.27732 -13.62969,-2.38986c-5.75509,-5.94737 -8.22606,-18.74037 -8.22606,-18.74037c0,0 11.23493,-6.36337 13.1418,-6.17516c3.01413,0.29751 8.86777,1.83741 8.86777,1.83741z" fill="#000000"/><path d="M279.93135,398.91949c0,0 -3.47674,0.51032 -7.86225,-0.29153c-3.12602,-0.57156 -4.67962,-1.86151 -9.14237,-1.99037c-4.37889,-0.12643 -6.69274,1.00771 -10.55212,1.45978c-4.03594,0.47275 -8.35933,-0.2991 -8.35933,-0.2991c0,0 7.13832,-4.2142 10.95725,-4.34128c2.0485,-0.06817 7.83379,1.967 7.83379,1.967c0,0 5.28285,-2.65101 7.7938,-1.91744c1.66155,0.48542 3.85512,2.16227 5.85014,3.45104c1.79053,1.15668 3.48109,1.9619 3.48109,1.9619z" fill="#ffffff"/><path d="M280.56439,400.62009c0,0 -4.06353,10.26821 -6.42344,13.49249c-0.91771,2.0494 -9.83249,2.81663 -11.36193,2.77129c-2.90546,-0.00528 -10.94669,0.12548 -14.70805,-5.00351c-2.50163,-3.41123 -5.36515,-12.38035 -5.36515,-12.38035c0,0 5.19944,-0.46662 7.73233,2.94026c0.92393,1.24274 2.81962,7.90774 12.32185,7.36782c7.82011,0.35152 7.53904,-4.37016 9.9173,-6.28645c2.71198,-3.62195 7.88708,-2.90154 7.88708,-2.90154z" fill="#ffffff"/><path d="M262.03148,408.35175c-3.73394,-0.1716 -7.3218,-2.5908 -7.3218,-2.5908c0,0 3.26555,0.44411 7.3745,0.52471c5.6154,0.11016 7.04211,-0.18493 7.04211,-0.18493c0,0 -2.3446,2.46931 -7.0948,2.25102z" fill="#ffffff"/><path d="M254.94983,399.63691c0,0 1.93156,-0.76257 4.53604,-1.07122c1.77301,-0.21011 3.31002,-0.52228 4.5133,-0.47032c2.85453,0.12326 5.76876,1.8974 5.76876,1.8974c0,0 -5.80455,0.08319 -8.79869,-0.0461c-2.82619,-0.12204 -6.01941,-0.30976 -6.01941,-0.30976z" fill="#ffffff"/></g><g><path d="M194.13679,127.34095c0,0 3.76013,-18.36393 5.1071,-21.68781c2.88904,-7.12918 3.17382,-1.42382 3.17382,-1.42382c0,0 0.90279,4.35914 -0.07989,4.4411c-4.04256,-0.00084 -7.3135,-3.05858 -7.3135,-3.05858l8.1711,-7.87093c0,0 1.00249,2.03215 0.31122,1.82767c-1.74596,-0.51645 -4.14445,-2.76525 -4.14445,-2.76525c0,0 5.37925,-11.85473 6.93682,-16.57526c0.1091,-0.33065 2.86405,2.94293 1.94497,2.93464c-1.05171,-0.00948 -5.79881,-1.43143 -5.79881,-1.43143c0,0 7.52589,-10.23906 9.72663,-13.15291c0.69788,-0.92401 1.3887,4.51422 0.53727,4.51578c-1.27893,0.00234 -4.54206,-5.08323 -4.54206,-5.08323c0,0 2.62207,-1.56095 6.47443,-2.60683c4.1576,-1.12875 9.43929,-3.23113 14.38927,-5.14876c0.31234,-0.121 0.21966,3.3234 -0.20439,3.04568c-0.6569,-0.43023 -1.88322,-4.60003 -1.88322,-4.60003c0,0 13.3341,-2.58364 15.5838,-2.56733c8.42215,0.06104 22.55613,3.08573 28.68941,10.58184c1.55613,1.90191 4.94285,6.88023 6.76224,12.23741c1.82148,5.36335 5.5665,8.51233 5.5665,8.51233c0,0 -8.93075,4.01943 -9.89846,3.38979c-1.30004,-0.84588 5.28394,-6.22266 5.4997,-4.29982c0.42906,3.82378 0.77964,7.84118 2.18002,12.58092c3.72078,12.59341 4.04026,17.10268 4.04026,17.10268c0,0 -7.77144,1.77608 -9.28453,-1.51824c-3.35821,-2.26684 3.80094,-4.24604 3.80094,-4.24604c0,0 2.51404,9.65365 0.49901,21.29599c-1.43966,8.31802 -0.99309,18.14609 -0.99309,18.14609c0,0 -11.12976,-0.50533 -12.42522,-3.57409c-0.64164,-1.51994 4.82306,-1.45384 4.82306,-1.45384c0,0 -0.27736,1.51046 -1.52332,3.13635c-1.38133,1.80253 -3.94985,3.49671 -3.94985,3.49671l0.00318,-3.58884c0,0 -4.58502,5.92133 -10.91754,9.01637c-6.10567,2.98416 -11.80358,2.51788 -14.49123,2.46803c-14.12802,-0.26204 -24.08852,-10.83115 -24.08852,-10.83115l-4.47828,6.40049c0,0 -0.21813,-6.90466 -2.29026,-11.98962c-3.07463,-7.54506 -3.82841,-13.97384 -3.82841,-13.97384c0,0 8.15269,2.07813 5.14703,2.76714c-0.13592,8.86032 -8.62069,10.05367 -8.62069,10.05367c0,0 -5.4804,-16.94361 -4.00635,-18.34902c1.38725,-1.32265 2.90908,0.45281 2.90908,0.45281c0,0 1.91738,1.72445 0.44638,2.06579c-3.32316,0.79054 -7.96119,1.32739 -7.96119,1.32739z" fill="#000000" stroke="none" stroke-width="NaN" stroke-linecap="butt"/><g><path d="M210.4788,106.44863c0.96521,-0.18364 5.78639,4.94033 6.72949,9.89722c0.94309,4.95689 -0.15061,10.72809 -0.15061,10.72809c0,0 -6.46652,-3.53164 -7.66724,-8.4325c-3.07712,-12.5596 0.12316,-12.00917 1.08836,-12.19281z" fill="#000000" stroke="none" stroke-width="0" stroke-linecap="butt"/><path d="M210.20642,107.5011c1.31694,-0.1432 3.38354,5.86128 4.11895,9.72657c0.73541,3.86529 0.71005,7.6557 0.71005,7.6557c0,0 -4.13639,-3.64493 -5.07269,-7.46653c-2.39948,-9.79373 -0.51797,-9.83292 0.24369,-9.91574z" fill="#ffffff" stroke="none" stroke-width="0" stroke-linecap="butt"/><path d="M214.78002,122.17314c0,0 -3.02608,-5.45514 -3.46106,-7.54108c-0.69361,-3.32613 1.47037,-3.38348 1.47037,-3.38348" fill="none" stroke="#000000" stroke-width="0.5" stroke-linecap="round"/></g><g data-paper-data="{&quot;index&quot;:null}"><path d="M274.23609,118.51573c-1.20072,4.90086 -7.66724,8.4325 -7.66724,8.4325c0,0 -1.0937,-5.77121 -0.15061,-10.7281c0.9431,-4.95689 5.76428,-10.08085 6.72949,-9.89722c0.96521,0.18363 4.16548,-0.36679 1.08836,12.19281z" fill="#000000" stroke="none" stroke-width="0" stroke-linecap="butt"/><path d="M270.83718,111.12287c0,0 2.16397,0.05735 1.47037,3.38348c-0.43498,2.08594 -3.46106,7.54108 -3.46106,7.54108" fill="none" stroke="#000000" stroke-width="0.5" stroke-linecap="round"/></g><path d="M217.4534,143.50305c-1.12791,-6.71582 -0.20637,-6.94188 -1.0642,-13.44379c-0.47362,-3.58977 -2.15797,-7.18909 -2.73202,-11.13223c-1.20896,-8.30433 -1.27196,-25.65977 -0.47554,-29.40025c4.41933,-20.75585 15.3863,-24.96608 29.85603,-25.48425c20.77576,-0.74399 24.79696,12.48506 27.42961,23.79025c1.84023,7.90235 1.22737,18.92724 -0.34916,28.57116c-0.96559,5.90663 -2.47529,10.80823 -3.46814,15.58687c-1.22544,5.89815 -0.7524,7.76045 -1.86263,12.66938c-1.15349,5.10023 -6.83176,10.81045 -11.83191,15.83737c-4.57165,4.59612 -7.90818,8.33063 -12.38271,8.22359c-5.04445,-0.12068 -8.96195,-6.22631 -14.50155,-12.44391c-4.38889,-4.92605 -8.03319,-9.29321 -8.61781,-12.77419z" fill="#000000" stroke="none" stroke-width="0" stroke-linecap="butt"/><path d="M217.2588,124.68153c-0.94553,-5.09249 -3.54204,-4.25562 -2.79146,-22.70284c0.35027,-8.60857 1.58748,-16.65181 3.61898,-20.76639c6.59974,-13.36702 19.1364,-15.03633 24.02784,-15.03633c4.16055,0 17.20519,1.95486 23.80596,13.20532c0.60389,1.02929 1.20742,2.28313 1.73693,3.70097c-4.2989,0.6968 -8.59619,1.48672 -12.8914,1.94772c-2.99763,0.32173 -6.53507,-0.31413 -9.79614,-0.0254c-0.49796,0.03166 -0.98602,0.09976 -1.46153,0.20168c-0.31168,0.06043 -0.61947,0.13265 -0.92258,0.21845c-0.10136,-1.59938 -1.20882,-3.1874 -2.7389,-4.5479c-1.47711,-1.75288 -3.54566,-2.99101 -5.89805,-3.4068c-1.08963,-0.36327 -2.08992,-0.54384 -2.85902,-0.48916c-5.04157,0.35845 -6.98424,2.97694 -7.97958,6.15423c-0.58657,1.27236 -0.91375,2.68893 -0.91375,4.18191c0,2.83607 1.18062,5.3964 3.07719,7.2163c0.55294,0.53059 1.16673,0.99824 1.82986,1.39144c1.87196,1.60454 3.76461,1.88857 5.558,1.38164c1.3364,-0.06118 7.87717,6.29596 7.87717,6.29596c0.50998,0.89246 1.82002,18.21934 4.18567,18.38298c2.74973,0.1902 6.62079,-16.86355 7.55032,-16.87193c5.566,-0.05014 11.27266,-0.77083 16.91554,-1.67114c-0.02826,5.2455 0.11106,10.47625 -1.01786,15.95544c-0.62848,3.05035 -1.86346,6.18514 -2.54274,8.95491c-0.33122,1.35056 -24.30321,-3.6773 -24.50279,-2.53407c-0.67106,3.84399 22.97257,12.88487 22.48765,15.28613c-1.44877,7.17412 -1.89749,7.23551 -4.27323,10.21882c-2.5746,3.23301 -6.22007,6.15229 -9.11253,8.91074c-2.62204,2.50056 -5.47801,6.21315 -8.77908,6.21315c-4.10432,0 -6.9048,-3.78999 -10.07829,-7.4154c-4.79276,-5.47527 -11.46201,-7.91572 -13.04194,-17.80658c-0.63652,-3.98482 0.06119,-10.45004 -1.07025,-16.54383z" fill="#ffffff" stroke="none" stroke-width="0" stroke-linecap="butt"/><path d="M228.02137,111.40322c4.97522,0 11.52366,3.85659 11.52366,8.8032c0,4.94661 -6.62437,7.14283 -11.59674,6.97433c-7.33728,-0.24864 -10.4272,-5.10656 -10.4272,-10.05317c0,-4.94662 5.52504,-5.72436 10.50026,-5.72436z" fill="#bebebe" stroke="none" stroke-width="0" stroke-linecap="butt"/><g stroke="none" stroke-width="0" stroke-linecap="butt"><path d="M232.90841,142.71527c2.42638,-0.22983 8.66223,2.13696 8.66223,2.13696c0,0 4.64141,-2.27569 6.6973,-2.12758c3.35597,0.24177 13.13365,8.7515 13.13365,8.7515c0,0 -0.32674,13.04865 -6.1306,19.84253c-3.09787,3.6263 -11.57763,3.11432 -13.90929,3.12089c-3.1505,0.00887 -11.47301,0.69941 -15.63396,-4.63272c-5.18965,-6.65036 -5.96114,-19.61836 -5.96114,-19.61836c0,0 10.69616,-7.24153 13.1418,-7.47321z" fill="#000000"/><path d="M258.82871,151.36758c0,0 -3.47674,-0.08878 -7.86225,-0.89063c-3.12602,-0.57156 -4.88516,-2.26091 -9.34791,-2.38977c-4.37889,-0.12643 -7.51488,1.70666 -11.37426,2.15873c-4.03594,0.47275 -7.33165,0.00045 -7.33165,0.00045c0,0 8.06324,-5.51225 11.88216,-5.63933c2.0485,-0.06817 7.42272,1.967 7.42272,1.967c0,0 4.4607,-2.55116 6.97166,-1.81759c3.15279,0.92108 9.63953,6.61114 9.63953,6.61114z" fill="#ffffff"/><path d="M259.46175,153.06819c0,0 -0.70343,1.32593 -1.21818,4.9032c-0.55287,3.84211 -0.68721,6.96261 -3.04712,10.18688c-3.69245,5.0449 -11.78509,4.11468 -13.31453,4.06934c-2.90546,-0.00528 -11.35777,0.52488 -15.11912,-4.60411c-2.50163,-3.41123 -2.79424,-6.48844 -3.53991,-10.5227c-0.7003,-3.78874 -1.6197,-5.15269 -1.6197,-5.15269c0,0 2.93854,-0.86602 5.47143,2.54086c0.92393,1.24274 5.08053,11.20279 14.58276,10.66287c9.77271,0.05197 11.34147,-8.6637 12.17821,-9.7812c2.71198,-3.62195 5.62617,-2.30244 5.62617,-2.30244z" fill="#ffffff"/><path d="M250.79843,158.34913c0,0 -2.18342,5.17516 -9.56124,4.94696c-4.90803,-0.15181 -6.41835,-2.11481 -8.04118,-3.5893c-1.12813,-1.02501 -1.831,-1.58424 -1.831,-1.58424c0,0 1.00926,-0.40389 2.24768,0.05458c2.32413,0.86039 3.67102,2.77257 7.77996,2.85318c5.6154,0.11016 5.15019,-1.87096 7.50325,-2.68279c1.34568,-0.46428 1.90253,0.00162 1.90253,0.00162z" fill="#ffffff"/><path d="M232.9223,151.58576c0,0 2.7537,-0.26332 5.35819,-0.57197c1.77301,-0.21011 3.31002,-0.52228 4.5133,-0.47032c2.85453,0.12326 7.61859,1.79755 7.61859,1.79755c0,0 -7.65438,0.18304 -10.64852,0.05375c-2.82619,-0.12204 -6.84156,-0.80901 -6.84156,-0.80901z" fill="#ffffff"/></g><g stroke="none" stroke-width="0" stroke-linecap="butt"><path d="M228.24273,105.59133c5.64136,0 10.21459,4.47197 10.21459,9.98843c0,5.51646 -4.7706,9.74171 -10.41197,9.74171c-5.64137,0 -10.31875,-4.22525 -10.31875,-9.74171c0,-5.51645 4.87476,-9.98843 10.51613,-9.98843z" fill="#000000"/><path d="M228.24273,105.8457c4.97522,0 8.78866,3.85659 8.78866,8.8032c0,4.94661 -4.01083,9.08774 -8.98605,9.08774c-4.97523,0 -8.81106,-3.98769 -8.81106,-8.9343c0,-4.94662 4.03322,-8.95664 9.00844,-8.95664z" fill="#ffffff"/></g><g stroke="none" stroke-width="0" stroke-linecap="butt"><path d="M254.80268,105.61595c5.64136,0 10.21459,4.47198 10.21459,9.98844c0,5.51645 -4.72127,9.64301 -10.36263,9.64301c-3.16285,0 -6.23667,-1.06026 -8.11031,-3.26759c-1.46826,-1.72975 -1.95625,-3.95178 -1.95625,-6.37542c0,-5.51646 4.57322,-9.98844 10.21459,-9.98844z" fill="#000000"/><path d="M254.80268,105.87033c4.97523,0 8.70691,4.08541 8.70691,9.03202c0,4.94661 -3.87973,8.68387 -8.85495,8.68387c-4.97523,0 -8.8604,-3.81265 -8.8604,-8.75926c0,-4.94661 4.03322,-8.95663 9.00844,-8.95663z" fill="#ffffff"/></g><path d="M213.28842,108.92256l0.13102,-1.63769l7.19167,-1.18423l0.32653,-1.46623c0,0 3.68245,-1.72538 7.2562,-2.03587c3.72054,-0.32324 9.00496,-0.09575 9.00496,-0.09575l0.32754,4.71657c0,0 -4.80797,-1.2906 -8.17678,-1.07798c-6.17314,0.38961 -6.13035,1.25866 -10.09703,1.94554c-3.96668,0.68688 -5.96411,0.83565 -5.96411,0.83565z" fill="#000000" stroke="none" stroke-width="0" stroke-linecap="butt"/><path d="M257.42143,102.60404c-6.5361,-0.02665 -11.93017,2.50832 -11.93017,2.50832l-0.26203,-4.42239c0,0 5.28442,-1.73418 9.39801,-1.86949c4.11358,-0.13531 7.12519,0.66021 7.12519,0.66021l0.19551,1.20419l7.3882,2.16685l0.13101,1.6377c0,0 -5.86035,-1.86016 -12.04572,-1.88538z" data-paper-data="{&quot;index&quot;:null}" fill="#000000" stroke="none" stroke-width="0" stroke-linecap="butt"/><path d="M227.71913,109.66211c2.71342,0 4.91309,2.23007 4.91309,4.98099c0,2.75092 -2.19966,4.98098 -4.91309,4.98098c-2.71342,0 -4.91309,-2.23006 -4.91309,-4.98098c0,-2.75092 2.19966,-4.98099 4.91309,-4.98099z" fill="#000000" stroke="none" stroke-width="0" stroke-linecap="butt"/><path d="M254.87167,110.85055c2.71342,0 4.91309,2.23006 4.91309,4.98098c0,2.75092 -2.19966,4.98098 -4.91309,4.98098c-2.71342,0 -4.91309,-2.23006 -4.91309,-4.98098c0,-2.75091 2.19966,-4.98098 4.91309,-4.98098z" fill="#000000" stroke="none" stroke-width="0" stroke-linecap="butt"/><g stroke="none" stroke-width="0" stroke-linecap="butt"><path d="M238.90963,136.80042c0,0 -0.06312,-8.68679 -0.28083,-12.38791c-0.17487,-2.97289 -0.92532,-8.11666 -0.92532,-8.11666c0,0 -0.33218,-1.57308 0.02454,-1.56279c1.13657,0.03279 7.81544,1.78895 7.81544,1.78895l-0.37692,20.27841c0,0 0.82184,1.93768 0.72844,3.69896c-0.06976,1.31553 -0.97469,4.70292 -1.02626,5.67536c-0.11348,2.13998 -0.40577,3.89334 -0.40577,3.89334l-4.14036,-0.01448c0,0 -0.12488,-2.01528 -0.87252,-4.2695c-0.71961,-2.16969 -2.11593,-4.55553 -2.18508,-5.58924c-0.19994,-2.9885 1.64464,-3.39445 1.64464,-3.39445z" fill="#000000"/><path d="M241.27168,149.07836c0,0 -0.2909,-3.80356 -0.49735,-8.24071c-0.20504,-4.40659 -0.32473,-9.70108 -0.5883,-13.30096c-0.42508,-5.80554 -1.77895,-15.81414 -1.77895,-15.81414c0,0 4.49362,2.51317 3.88116,6.24979c-0.3299,2.01273 0.18632,6.75397 0.14576,8.6601c-0.00908,0.42677 1.77237,1.39642 1.7641,1.78486c-0.13417,6.30607 -0.43874,20.62054 -0.43874,20.62054z" fill="#ffffff"/><path d="M238.8541,137.97843c0.34401,0 0.62288,4.77542 0.62288,4.77542c0,0 -1.24576,-1.59275 -1.24576,-2.7251c0,-1.13236 0.27887,-2.05032 0.62288,-2.05032z" fill="#ffffff"/></g><path d="M210.60206,100.1651v-21.15411c0,0 21.21081,-18.67174 31.8391,-18.67174c9.85589,0 29.78844,18.67174 29.78844,18.67174l0.9522,14.8825c0,0 -4.02246,-9.83788 -7.66885,-7.46317c-9.67233,6.2991 -26.0271,10.16832 -26.0271,10.16832c0,0 2.88671,-3.50484 4.29889,-5.2734c0.74057,-0.92746 1.4281,-2.38433 1.4281,-2.38433c0,0 -9.19557,5.48816 -17.51331,7.89872c-11.3727,3.29591 -17.09747,3.32547 -17.09747,3.32547z" fill="#000000" stroke="none" stroke-width="0" stroke-linecap="butt"/><path d="M261.34274,96.24214c0,0 0.13687,-19.06064 0.10092,-25.11081c-0.03462,-5.82592 6.56688,-7.26736 6.56688,-7.26736c0,0 1.53782,0.00378 2.5947,0.6001c1.56564,0.88338 1.24356,3.51053 1.24356,3.51053c0,0 -5.37206,-0.16152 -5.66154,5.67615c0.43274,8.82407 -0.21237,22.34962 -0.21237,22.34962z" fill="#8d6e47" stroke="none" stroke-width="0" stroke-linecap="butt"/><path d="M217.54641,116.1721c0,0 -0.16627,-2.22288 0.81062,-4.59656c1.16899,-2.84044 3.93233,-5.91812 9.99819,-5.95021c4.4123,-0.02334 6.77688,1.48178 8.31843,3.36171c2.53146,3.08714 2.42486,7.54013 2.42486,7.54013c0,0 -2.37917,-4.09008 -11.12031,-4.09331c-6.60312,-0.00244 -10.43179,3.73824 -10.43179,3.73824z" fill="#000000" stroke="none" stroke-width="0" stroke-linecap="butt"/><g stroke="none" stroke-width="0" stroke-linecap="butt"><path d="M244.50738,116.19351c0,0 -0.53134,-3.2454 0.9459,-6.12374c1.32927,-2.59004 4.34124,-4.84529 9.8629,-4.81608c11.13492,0.0589 11.0941,11.29489 11.0941,11.29489z" data-paper-data="{&quot;index&quot;:null}" fill="#000000"/><path d="M245.68654,114.35928c0,0 0.21519,-7.7079 9.56586,-7.72822c8.98115,-0.01952 9.56245,7.99026 9.56245,7.99026z" data-paper-data="{&quot;index&quot;:null}" fill="#ffffff"/></g><path d="M256.13597,98.34275v-4.50413c0,0 2.46629,-1.55906 6.56852,-1.50137c5.7762,0.08122 6.47468,1.50137 6.47468,1.50137v4.50413z" fill="#773128" stroke="none" stroke-width="0" stroke-linecap="butt"/><path d="M256.13597,98.34275c0,0 2.27141,-3.52975 6.37364,-3.47207c5.7762,0.08122 6.66956,-1.03206 6.66956,-1.03206v4.50413z" fill="#481310" stroke="none" stroke-width="0" stroke-linecap="butt"/><path d="M244.02922,126.48934v-27.02054c0,0 9.11566,-2.07121 13.88312,-2.47595c8.98784,-0.76304 13.41456,0.25888 13.41456,0.25888c0,0 -0.70091,15.35321 -0.70516,21.2435c-0.00539,7.46823 -4.27613,11.1885 -4.27613,11.1885z" fill="#59220f" stroke="none" stroke-width="0" stroke-linecap="butt"/><g fill="#481310" stroke="none" stroke-width="0" stroke-linecap="butt"><path d="M256.16812,106.95487c5.64136,0 10.21459,4.47197 10.21459,9.98843c0,5.51646 -4.7706,9.74171 -10.41197,9.74171c-5.64137,0 -10.31875,-4.22525 -10.31875,-9.74171c0,-5.51645 4.87476,-9.98843 10.51613,-9.98843z"/><path d="M256.16812,107.20924c4.97522,0 8.78866,3.85659 8.78866,8.8032c0,4.94661 -4.01083,9.08774 -8.98605,9.08774c-4.97523,0 -8.81106,-3.98769 -8.81106,-8.9343c0,-4.94662 4.03322,-8.95664 9.00844,-8.95664z"/></g><g fill="#000000" stroke="none" stroke-width="0" stroke-linecap="butt"><path d="M256.06944,105.59132c5.64136,0 10.21459,4.47197 10.21459,9.98843c0,5.51646 -4.7706,9.74171 -10.41197,9.74171c-5.64137,0 -10.31875,-4.22525 -10.31875,-9.74171c0,-5.51645 4.87476,-9.98843 10.51613,-9.98843z"/><path d="M256.06944,105.84569c4.97522,0 8.78866,3.85659 8.78866,8.8032c0,4.94661 -4.01083,9.08774 -8.98605,9.08774c-4.97523,0 -8.81106,-3.98769 -8.81106,-8.9343c0,-4.94662 4.03322,-8.95664 9.00844,-8.95664z"/></g><path d="M261.16042,98.91753c-0.08346,1.91815 -0.35121,3.93367 -0.58452,5.95579c-4.3348,-1.2618 -7.54139,-1.73606 -10.09819,-0.77867c-3.0812,1.15375 -4.81836,3.94175 -5.54591,5.4022c0.40141,-1.00907 0.4797,-5.23605 0.4797,-6.98548c0,-2.75092 11.61734,-3.26485 15.74892,-3.59383z" fill="#6d4321" stroke="none" stroke-width="0" stroke-linecap="butt"/><path d="M268.95749,100.45873c0,0.76657 0.64475,7.45559 -2.3982,6.43854c-0.87133,-0.29122 -1.70587,-0.56633 -2.50594,-0.82222c0.27191,-2.32897 0.63958,-4.66856 0.71796,-6.81722c2.41515,-0.04475 4.18619,0.23423 4.18619,1.2009z" fill="#6d4321" stroke="none" stroke-width="0" stroke-linecap="butt"/><path d="M246.03546,109.96985c-0.22979,0.57766 -0.41046,0.92747 -0.41046,0.92747c0,0 0.13047,-0.36543 0.41046,-0.92747z" fill="#8d6e47" stroke="none" stroke-width="0" stroke-linecap="butt"/><path d="M264.92591,128.41692c-1.31167,0 -0.76521,-2.55471 -0.13808,-3.68319c1.47057,-2.6462 2.88,-7.2022 3.79953,-7.2022c0.93334,0 0.63511,4.42301 -0.82926,7.60246c-0.59359,1.28879 -2.45386,3.28294 -2.83219,3.28294z" fill="#6d4321" stroke="none" stroke-width="0" stroke-linecap="butt"/><path d="M244.86936,117.73587c0.63637,0.14205 0.90797,3.5128 1.51691,5.5713c0.25968,0.87785 0.24322,2.73028 -0.66454,2.52765c-0.26182,-0.05845 -1.4983,-8.24313 -0.85238,-8.09895z" data-paper-data="{&quot;index&quot;:null}" fill="#6d4321" stroke="none" stroke-width="0" stroke-linecap="butt"/><path d="M226.88199,121.62085c1.2137,-0.08291 3.02366,0.22788 3.99191,0.07776c5.31335,-0.82375 6.36674,-2.87451 6.36674,-2.87451c0,0 -1.68056,2.26098 -2.33021,3.05322c-0.70353,0.85796 -1.61736,1.62015 -2.91671,2.12151c-1.02136,0.3941 -2.28093,0.62705 -3.8638,0.61868c-4.9444,-0.02616 -7.19685,-2.53483 -8.14971,-4.85013c-0.79628,-1.93483 -1.73574,-4.01549 -1.73574,-4.01549c0,0 3.25519,5.87093 8.63752,5.86894z" fill="#000000" stroke="none" stroke-width="0" stroke-linecap="butt"/><path d="M270.17107,66.37548c0,0.34907 -1.65104,0.94669 -2.90591,2.16264c-1.57932,1.53033 -2.3838,6.35331 -2.85343,6.35331c-0.84278,0 -0.90182,-7.14725 0.82138,-8.5837c1.05685,-0.88098 2.8947,-0.96598 3.21508,-0.96598c0.84278,0 1.72288,0.24532 1.72288,1.03372z" fill="#a79262" stroke="none" stroke-width="0" stroke-linecap="butt"/><path d="M262.25372,72.93462c0,-1.5768 0.32029,-2.1659 0.83683,-2.1659c0.14447,0 -0.13168,2.31129 0.17071,4.58109c0.24391,1.8308 1.07062,3.6002 1.20309,4.37379c0.24114,1.4082 0.4252,3.10437 0.56369,4.76769c-0.94792,0.1484 -1.89659,0.29737 -2.84336,0.45139c-0.01452,-5.14459 0.06905,-11.1315 0.06905,-12.00806z" fill="#a79262" stroke="none" stroke-width="0" stroke-linecap="butt"/><path d="M265.40413,90.55722c0,1.5768 -2.38774,1.08295 -2.90428,1.08295c-0.18088,0 -0.26526,-2.22119 -0.29855,-5.17565c0.99982,-0.16364 2.00263,-0.32019 3.00493,-0.47522c0.14586,2.37648 0.1979,4.28766 0.1979,4.56792z" fill="#a79262" stroke="none" stroke-width="0" stroke-linecap="butt"/><g fill="#6d4321" stroke="none" stroke-width="0" stroke-linecap="butt"><path d="M258.01016,108.12872l2.82596,7.69597l-7.65646,2.93128l-2.82597,-7.69596z"/><path d="M253.82099,108.61599l6.53449,3.07663l-2.98666,6.57609l-6.53447,-3.07662z"/></g></g></g></g></svg>