<svg version="1.1" xmlns="http://www.w3.org/2000/svg" xmlns:xlink="http://www.w3.org/1999/xlink" width="229.51664" height="391.25452" viewBox="0,0,229.51664,391.25452"><g transform="translate(-84.64336,-55.5326)"><g data-paper-data="{&quot;isPaintingLayer&quot;:true}" stroke-miterlimit="10" stroke-dasharray="" stroke-dashoffset="0" style="mix-blend-mode: normal"><g fill-rule="nonzero" stroke="none" stroke-linecap="butt" stroke-linejoin="miter"><g fill="#000000"><path d="M200.58119,185.9609c0,-21.10292 18.15751,-38.21022 40.55593,-38.21022c22.39843,0 40.82079,17.1073 40.82079,38.21022c0,2.70002 0.0039,117.77204 0.0039,117.77204l-11.39983,-0.12964l-0.14337,-113.82486c0,0 0.46851,-2.08621 -1.77595,-2.22047c-2.48625,-0.14872 -2.11767,1.68282 -2.11767,1.68282l0.10343,114.38802l-50.32146,0.07847l0.10485,-114.20488c0,0 -0.19035,-2.13951 -1.8053,-2.16297c-2.01199,-0.02922 -1.98832,2.04221 -1.98832,2.04221l-0.29988,114.25674l-11.38239,0.22905c0,0 -0.35473,-116.42094 -0.35473,-117.90653z" stroke-width="0"/><path d="M202.86638,187.26735c0,-20.02201 17.22746,-36.58913 38.47861,-36.58913c21.25115,0 38.72991,16.56711 38.72991,36.58913c0,2.56173 0.00369,114.79215 0.00369,114.79215l-7.50523,0.21307l0.19503,-111.38321c0,0 0.08238,-5.30397 -4.03353,-5.43136c-4.01424,-0.25313 -4.29562,4.92124 -4.29562,4.92124l-0.56401,112.58967l-45.42645,-0.26162l0.09948,-112.07984c0,0 0.71386,-5.00198 -3.49923,-5.04073c-4.92978,-0.04534 -4.96689,4.92616 -4.96689,4.92616l0.56795,112.12904l-7.39669,-0.11875c0,0 -0.38702,-113.84632 -0.38702,-115.25581z" stroke-width="0"/><g><path d="M230.02074,204.89617c-5.66213,0 -7.34973,-0.4705 -7.34973,-0.4705l-0.08286,-1.2733c0,0 5.25623,0.13066 7.69744,0.13066c4.20542,0 7.61458,-1.35635 7.61458,-0.87378c0,0.48257 -1.95246,2.48691 -7.87944,2.48691z" stroke-width="0"/><path d="M225.51818,199.6535c0,-0.55682 0.44467,-1.00821 0.99321,-1.00821c0.54854,0 0.99321,0.45139 0.99321,1.00821c0,0.55682 -0.44467,1.00821 -0.99321,1.00821c-0.54854,0 -0.99321,-0.45139 -0.99321,-1.00821z" stroke-width="0.5"/></g><g data-paper-data="{&quot;index&quot;:null}"><path d="M244.83594,202.40926c0,-0.48257 3.40916,0.87378 7.61458,0.87378c2.44121,0 7.69744,-0.13066 7.69744,-0.13066l-0.08286,1.2733c0,0 -1.6876,0.4705 -7.34973,0.4705c-5.92698,0 -7.87944,-2.00433 -7.87944,-2.48691z" stroke-width="0"/><path d="M256.2247,200.6617c-0.54853,0 -0.99321,-0.45139 -0.99321,-1.00821c0,-0.55682 0.44467,-1.00821 0.99321,-1.00821c0.54853,0 0.99321,0.45139 0.99321,1.00821c0,0.55682 -0.44467,1.00821 -0.99321,1.00821z" stroke-width="0.5"/></g><path d="M240.38319,253.12204c0,-0.55681 0.44467,-1.00821 0.99321,-1.00821c0.54854,0 0.99321,0.45139 0.99321,1.00821c0,0.55681 -0.44467,1.00821 -0.99321,1.00821c-0.54854,0 -0.99321,-0.45139 -0.99321,-1.00821z" stroke-width="0.5"/></g><path d="M200.50954,306.13818c0,0 -2.58225,-30.59567 -2.57231,-59.19299c0.00248,-7.12456 2.55676,-12.89471 2.56281,-17.40116c0.01008,-7.50924 -1.09994,-14.99385 -0.89058,-19.35273c0.27963,-5.82183 0.90009,-11.81016 0.90009,-11.81016h19.57556v107.75704z" fill="#3f3534" stroke-width="0"/><path d="M230.13705,207.91274c0,0 -7.87488,-17.26771 -10.10394,-23.2572c-2.95529,-7.94086 -4.55358,-28.07051 -4.55358,-28.07051l4.0639,-1.96703l1.62192,0.71786c0,0 0.85386,8.96721 2.74012,14.67954c2.86433,8.67433 3.17034,16.37196 9.45407,20.90677c5.63778,4.06865 -0.32532,17.16567 -0.32532,17.16567z" fill="#000000" stroke-width="0"/><path d="M199.19638,198.34702c0,0 0.26096,-8.258 0.43844,-11.30746c0.48478,-8.32955 3.46986,-15.3193 6.50091,-20.39152c1.33629,-2.23616 3.33602,-5.59536 5.70052,-7.87584c3.697,-3.56562 7.78566,-5.66106 7.78566,-5.66106c0,0 0.61477,16.54591 0.73333,23.37899c0.18597,10.71755 12.17011,14.39247 12.17011,14.39247c0,0 -1.13081,36.61018 -1.03737,56.46447c0.10303,21.89215 1.62956,69.37314 1.62956,69.37314l-17.817,-7.90483c0,0 -0.10476,-99.92849 0.35974,-113.81521c0.17391,-5.19927 7.45261,3.30555 3.71057,5.08826c-4.49663,2.14219 -20.17446,-1.7414 -20.17446,-1.7414z" fill="#481310" stroke-width="0"/><path d="M230.86885,198.76529c0,0 -8.60667,-10.13269 -10.83573,-16.12219c-2.95529,-7.94086 -4.55358,-28.07051 -4.55358,-28.07051l4.0639,-1.96703l1.62192,0.71786c0,0 0.85386,8.96721 2.74012,14.67954c2.86433,8.67433 3.17034,16.37196 9.45407,20.90678c5.63778,4.06865 -0.14237,15.15323 -0.14237,15.15323z" fill="#59220f" stroke-width="0"/><path d="M228.52555,199.57402c0,3.48857 -27.66631,-5.10083 -27.66631,-8.5894c0,-1.62569 0.47927,-8.5357 3.03483,-15.32279c2.92845,-7.77741 8.09086,-15.43129 10.01197,-15.43129c1.12219,0 0.93757,2.77387 0.98465,6.53051c0.04826,3.85152 1.90831,13.959 5.05103,20.41966c3.61898,7.43973 8.58383,11.10859 8.58383,12.39332z" fill="#571c18" stroke-width="0"/><path d="M228.57057,243.59576c-2.77743,0 -10.66089,9.54185 -10.66089,9.54185c0,0 1.25395,-16.5088 0.90555,-30.93144c-0.1011,-4.18526 0.71615,-8.21026 0.58923,-11.62954c-0.21913,-5.90335 -1.37195,-10.0012 -1.37195,-10.0012c0,0 3.58961,1.15756 6.33949,1.4c1.89354,0.16694 4.06755,-0.81715 5.08694,-0.01098c0.67866,0.53671 0.12844,8.72339 -0.0022,17.69652c-0.1651,11.33944 -0.09699,23.93479 -0.88618,23.93479z" fill="#571c18" stroke-width="0"/><path d="M227.69491,300.34828c-2.04511,0 -8.92084,-40.56168 -8.92084,-43.28849c0,-1.21213 1.98355,-2.93307 3.78714,-5.19553c2.25376,-2.82715 5.33781,-5.31534 6.47382,-5.31534c0.89304,0 0.16211,9.93242 -0.01268,21.49031c-0.22549,14.91026 -0.17536,32.30905 -1.32743,32.30905z" fill="#571c18" stroke-width="0"/><path d="M214.74744,202.91654c0,0 -1.33096,7.31256 -1.6682,14.51436c-0.29588,6.31863 0.68137,14.75974 0.07141,14.87014c-1.58996,0.28779 -12.57842,5.53954 -12.57842,5.53954c0,0 1.05228,-3.77798 1.33634,-7.41752c0.48373,-6.19772 -0.51621,-15.4429 -0.51621,-16.31111c0,-3.19582 -0.17764,-12.28312 2.66308,-12.28312c1.30015,0 3.41362,1.1728 5.57983,1.41993c2.56679,0.29283 5.11216,-0.33222 5.11216,-0.33222z" fill="#534544" stroke-width="0"/><path d="M213.41495,234.25654l-0.74698,45.16759c0,0 -9.17841,-0.45935 -9.7066,-0.45935c-1.79398,0 -2.30333,-10.90387 -3.01205,-31.47885c-0.06176,-1.79291 1.12213,-7.26435 1.12213,-7.26435c0,0 3.99193,3.33146 6.13417,2.29622c0.7246,-0.35017 -2.7752,3.25243 -2.913,1.52123c-0.21364,-2.68384 9.12233,-9.78248 9.12233,-9.78248z" fill="#534544" stroke-width="0"/><g data-paper-data="{&quot;index&quot;:null}" stroke-width="0"><path d="M263.50085,306.13818v-107.75704h19.57556c0,0 0.62046,5.98833 0.90009,11.81016c0.20936,4.35888 -0.90066,11.84349 -0.89058,19.35273c0.00605,4.50645 2.56034,10.27659 2.56281,17.40116c0.00994,28.59732 -2.57232,59.19299 -2.57232,59.19299z" fill="#3f3534"/><path d="M250.55174,208.08784c0,0 -5.9631,-13.09702 -0.32532,-17.16567c6.28373,-4.53482 6.58974,-12.23245 9.45407,-20.90677c1.88626,-5.71233 2.74012,-14.67954 2.74012,-14.67954l1.62192,-0.71786l4.0639,1.96703c0,0 -1.59829,20.12965 -4.55358,28.07051c-2.22906,5.9895 -10.10394,23.2572 -10.10394,23.2572z" fill="#000000"/><path d="M264.21511,200.08842c-3.74204,-1.7827 3.53665,-10.28753 3.71057,-5.08826c0.4645,13.88672 0.35974,113.81521 0.35974,113.81521l-17.817,7.90483c0,0 1.52653,-47.48099 1.62956,-69.37314c0.09343,-19.85429 -1.03737,-56.46447 -1.03737,-56.46447c0,0 11.98414,-3.67493 12.1701,-14.39247c0.11856,-6.83308 0.73333,-23.37898 0.73333,-23.37898c0,0 4.08866,2.09545 7.78566,5.66106c2.36451,2.28048 4.36424,5.63968 5.70052,7.87584c3.03105,5.07222 6.01614,12.06196 6.50091,20.39152c0.17747,3.04945 0.43844,11.30746 0.43844,11.30746c0,0 -15.67783,3.88359 -20.17446,1.7414z" fill="#481310"/><path d="M250.36879,204.06296c0,0 -5.78015,-11.08458 -0.14237,-15.15323c6.28373,-4.53482 6.58974,-12.23245 9.45407,-20.90678c1.88626,-5.71233 2.74012,-14.67954 2.74012,-14.67954l1.62192,-0.71786l4.0639,1.96703c0,0 -1.59829,20.12965 -4.55358,28.07051c-2.22906,5.9895 -10.83573,16.12219 -10.83573,16.12219z" fill="#59220f"/><path d="M263.64424,187.18071c3.14272,-6.46066 5.00276,-16.56814 5.05102,-20.41966c0.04708,-3.75664 -0.13754,-6.53051 0.98465,-6.53051c1.92111,0 7.08353,7.65387 10.01197,15.43129c2.55556,6.78709 3.03483,13.6971 3.03483,15.32279c0,3.48857 -27.66631,12.07798 -27.66631,8.5894c0,-1.28473 4.96486,-4.95359 8.58383,-12.39332z" fill="#571c18"/><path d="M254.12921,219.66097c-0.13064,-8.97313 -0.68086,-17.15981 -0.0022,-17.69652c1.0194,-0.80617 3.1934,0.17792 5.08694,0.01098c2.74988,-0.24244 6.33949,-1.4 6.33949,-1.4c0,0 -1.15282,4.09786 -1.37195,10.0012c-0.12692,3.41929 0.69033,7.44428 0.58923,11.62954c-0.34839,14.42264 0.90555,30.93144 0.90555,30.93144c0,0 -7.88346,-9.54185 -10.66089,-9.54185c-0.78919,0 -0.72108,-12.59536 -0.88618,-23.93479z" fill="#571c18"/><path d="M254.56361,268.03924c-0.17479,-11.55789 -0.90572,-21.49031 -0.01268,-21.49031c1.13601,0 4.22006,2.48819 6.47382,5.31534c1.80359,2.26245 3.78714,3.98339 3.78714,5.19553c0,2.72681 -6.87574,43.28849 -8.92084,43.28849c-1.15207,0 -1.10194,-17.39878 -1.32743,-32.30905z" fill="#571c18"/><path d="M273.95067,203.24877c2.1662,-0.24713 4.27968,-1.41993 5.57983,-1.41993c2.84072,0 2.66308,9.0873 2.66308,12.28312c0,0.8682 -0.99994,10.11339 -0.51621,16.31111c0.28406,3.63954 1.33634,7.41752 1.33634,7.41752c0,0 -10.98846,-5.25175 -12.57842,-5.53954c-0.60996,-0.1104 0.36729,-8.55151 0.07141,-14.87014c-0.33723,-7.20181 -1.6682,-14.51436 -1.6682,-14.51436c0,0 2.54537,0.62506 5.11216,0.33222z" fill="#534544"/><path d="M279.29334,244.03902c-0.13781,1.7312 -3.63761,-1.8714 -2.913,-1.52123c2.14224,1.03525 6.13416,-2.29622 6.13416,-2.29622c0,0 1.1839,5.47143 1.12214,7.26435c-0.70872,20.57498 -1.21807,31.47885 -3.01205,31.47885c-0.52819,0 -9.7066,0.45935 -9.7066,0.45935l-0.74698,-45.16758c0,0 9.33596,7.09864 9.12233,9.78248z" fill="#534544"/></g></g><path d="M285.72992,97.8707c0,0 -3.47036,-0.99741 -3.37189,-0.84543c1.07373,1.65733 1.60399,4.82394 1.85557,7.99128c0.36467,4.59101 0.14383,9.18356 0.14383,9.18356c0,0 -2.5454,-2.1666 -2.58816,-1.85882c-1.23302,8.87566 1.40684,17.31755 1.40684,17.31755c0,0 -3.41569,-2.00545 -3.35791,-1.75259c1.12563,2.92476 0.37807,5.46269 0.37807,5.46269c0,0 -1.0224,-1.74669 -0.98285,-1.35145c0.76224,7.61762 -3.77459,12.1958 -3.77459,12.1958c0,0 -1.3548,-1.36459 -1.28019,-1.81632c-2.77994,3.92543 -3.96071,7.91765 -3.96071,7.91765c0,0 -0.53223,0.19313 -2.9745,-2.32852c-0.27049,-0.27927 -9.9605,10.56911 -24.08852,10.83115c-2.68765,0.04985 -8.38556,0.51613 -14.49123,-2.46803c-6.33252,-3.09504 -10.91754,-9.01637 -10.91754,-9.01637c0,0 -4.89653,-46.9558 -4.88573,-47.34806c0.3509,-12.74952 -9.78679,-21.92479 -0.01383,-33.86933c6.13328,-7.49611 20.26726,-10.5208 28.68941,-10.58184c9.70862,-0.07036 23.60817,3.51159 30.3551,12.44472c0.87154,2.39736 5.96055,2.75632 5.96055,2.75632c0,0 -2.36892,2.56498 -2.75146,2.42593c0.20008,0.76064 4.13402,6.14959 4.13402,6.14959c0,0 -1.53445,0.00275 -1.43121,0.27974c1.9499,5.23149 7.13827,10.56408 7.13827,10.56408c0,0 -2.62724,2.76751 -3.93091,2.70116c0.63673,0.5617 4.73958,5.01552 4.73958,5.01552z" data-paper-data="{&quot;index&quot;:null}" fill="#000000" fill-rule="nonzero" stroke="none" stroke-width="NaN" stroke-linecap="butt" stroke-linejoin="miter"/><g fill-rule="nonzero" stroke-linecap="butt" stroke-linejoin="miter"><path d="" fill="#000000" stroke="#060000" stroke-width="3.5"/><path d="" fill="#ffffff" stroke="#000000" stroke-width="0"/><path d="" fill="#060000" stroke="none" stroke-width="1.5"/><path d="" fill="#060000" stroke="#000000" stroke-width="0"/><path d="" fill="#060000" stroke="none" stroke-width="1.5"/><path d="" fill="#060000" stroke="#000000" stroke-width="0"/><path d="" data-paper-data="{&quot;index&quot;:null}" fill="#000000" stroke="none" stroke-width="1.5"/></g><path d="" fill="#000000" fill-rule="evenodd" stroke="none" stroke-width="0.129" stroke-linecap="round" stroke-linejoin="round"/><g fill-rule="evenodd" stroke="none" stroke-width="0.1" stroke-linecap="round" stroke-linejoin="round"><path d="" fill="#000000"/><path d="" fill="#ffffff"/></g><g fill-rule="evenodd" stroke="none" stroke-width="0.1" stroke-linecap="round" stroke-linejoin="miter"><path d="" fill="#000000"/><path d="" fill="#ffffff"/><path d="" fill="#ffffff"/></g><path d="" fill="#000000" fill-rule="evenodd" stroke="none" stroke-width="0.129" stroke-linecap="round" stroke-linejoin="round"/><g fill-rule="evenodd" stroke="none" stroke-width="0.1" stroke-linecap="round" stroke-linejoin="miter"><path d="" fill="#ffffff"/><path d="" fill="#000000"/><path d="" fill="#000000"/></g><g fill-rule="evenodd" stroke="none" stroke-width="0.1" stroke-linecap="round" stroke-linejoin="round"><path d="" fill="#000000"/><path d="" fill="#ffffff"/></g><g fill-rule="evenodd" stroke="none" stroke-width="0.1" stroke-linecap="round" stroke-linejoin="round"><path d="" fill="#000000"/><path d="" fill="#ffffff"/></g><g fill-rule="evenodd" stroke="none" stroke-linecap="round" stroke-linejoin="round"><g stroke-width="0.1"><path d="" fill="#000000"/><path d="" fill="#ffffff"/></g><path d="" fill="#000000" stroke-width="0.129"/><g stroke-width="0.1"><path d="" fill="#000000"/><path d="" fill="#ffffff"/></g><path d="" fill="#000000" stroke-width="0.129"/><g stroke-width="0.1"><path d="" fill="#000000"/><path d="" fill="#ffffff"/></g><g stroke-width="0.1"><path d="" fill="#000000"/><path d="" fill="#ffffff"/></g></g><path d="" fill="#000000" fill-rule="evenodd" stroke="none" stroke-width="0.129" stroke-linecap="round" stroke-linejoin="round"/><path d="" fill="#000000" fill-rule="evenodd" stroke="none" stroke-width="0.129" stroke-linecap="round" stroke-linejoin="round"/><path d="M201.90304,93.45518c-1.30368,0.06635 -3.93091,-2.70116 -3.93091,-2.70116c0,0 5.18837,-5.3326 7.13827,-10.56409c0.10324,-0.27699 -1.4312,-0.27974 -1.4312,-0.27974c0,0 3.93393,-5.38895 4.13401,-6.14959c-0.38254,0.13905 -2.75146,-2.42593 -2.75146,-2.42593c0,0 4.37472,-0.2161 5.24626,-2.61347c-0.0665,0.04574 -2.34167,-0.57417 -2.34167,-0.57417c0,0 5.35202,-2.59734 4.89459,-2.78979c-0.58682,-0.24689 -1.52011,-0.89645 -1.52011,-0.89645c0,0 11.93814,-5.39794 15.82834,-8.06363c4.72422,-1.39034 10.12297,-0.29313 14.20824,-0.26353c8.42215,0.06104 22.55613,3.08573 28.68941,10.58184c9.77296,11.94454 -0.36473,21.11981 -0.01383,33.86933c0.0108,0.39226 -4.88573,47.34806 -4.88573,47.34806c0,0 -4.58502,5.92133 -10.91754,9.01637c-6.10567,2.98416 -11.80358,2.51788 -14.49123,2.46803c-14.12802,-0.26204 -23.81804,-11.11042 -24.08852,-10.83115c-2.44227,2.52165 -2.9745,2.32852 -2.9745,2.32852c0,0 -1.18077,-3.99222 -3.96071,-7.91765c0.07461,0.45173 -1.28019,1.81632 -1.28019,1.81632c0,0 -4.53683,-4.57818 -3.77459,-12.1958c0.03955,-0.39524 -0.98285,1.35145 -0.98285,1.35145c0,0 -0.74756,-2.53794 0.37806,-5.46269c0.05778,-0.25286 -3.35791,1.75259 -3.35791,1.75259c0,0 2.63986,-8.44188 1.40684,-17.31755c-0.04276,-0.30778 -2.58816,1.85882 -2.58816,1.85882c0,0 -0.63067,-13.11524 1.9994,-17.17484c0.09846,-0.15198 -3.37189,0.84542 -3.37189,0.84542c0,0 4.10285,-4.45382 4.73958,-5.01552z" fill="#000000" fill-rule="nonzero" stroke="none" stroke-width="NaN" stroke-linecap="butt" stroke-linejoin="miter"/><g fill-rule="nonzero" stroke-linejoin="miter"><path d="M210.47875,106.44862c0.96521,-0.18364 5.78639,4.94033 6.72949,9.89722c0.94309,4.95689 -0.15061,10.72809 -0.15061,10.72809c0,0 -6.46652,-3.53164 -7.66724,-8.4325c-3.07712,-12.5596 0.12316,-12.00917 1.08836,-12.19281z" fill="#000000" stroke="none" stroke-width="0" stroke-linecap="butt"/><path d="M210.20637,107.50109c1.31694,-0.1432 3.38354,5.86128 4.11895,9.72657c0.73541,3.86529 0.71005,7.6557 0.71005,7.6557c0,0 -4.13639,-3.64493 -5.07269,-7.46653c-2.39948,-9.79373 -0.51797,-9.83292 0.24369,-9.91574z" fill="#ffffff" stroke="none" stroke-width="0" stroke-linecap="butt"/><path d="M214.77997,122.17313c0,0 -3.02608,-5.45514 -3.46106,-7.54108c-0.69361,-3.32613 1.47037,-3.38348 1.47037,-3.38348" fill="none" stroke="#000000" stroke-width="0.5" stroke-linecap="round"/></g><g data-paper-data="{&quot;index&quot;:null}" fill-rule="nonzero" stroke-linejoin="miter"><path d="M274.23607,118.51572c-1.20072,4.90086 -7.66724,8.4325 -7.66724,8.4325c0,0 -1.0937,-5.77121 -0.15061,-10.7281c0.9431,-4.95689 5.76428,-10.08085 6.72949,-9.89722c0.96521,0.18363 4.16548,-0.36679 1.08836,12.19281z" fill="#000000" stroke="none" stroke-width="0" stroke-linecap="butt"/><path d="M273.6638,117.29111c-0.93629,3.8216 -5.0727,7.46653 -5.0727,7.46653c0,0 -0.02536,-3.79041 0.71005,-7.6557c0.73541,-3.86529 2.80201,-9.86976 4.11895,-9.72656c0.76166,0.08282 2.64317,0.12201 0.2437,9.91574z" fill="#ffffff" stroke="none" stroke-width="0" stroke-linecap="butt"/><path d="M270.83716,111.12286c0,0 2.16397,0.05735 1.47037,3.38348c-0.43498,2.08594 -3.46106,7.54108 -3.46106,7.54108" fill="none" stroke="#000000" stroke-width="0.5" stroke-linecap="round"/></g><path d="M217.45335,143.50304c-1.12791,-6.71582 -0.20637,-6.94188 -1.0642,-13.44379c-0.47362,-3.58977 -2.15797,-7.18909 -2.73202,-11.13223c-1.20896,-8.30433 -1.27196,-25.65977 -0.47554,-29.40025c4.41933,-20.75585 15.3863,-24.96608 29.85603,-25.48425c20.77576,-0.74399 24.79696,12.48506 27.42961,23.79025c1.84023,7.90235 1.22737,18.92724 -0.34916,28.57116c-0.96559,5.90663 -2.47529,10.80823 -3.46814,15.58687c-1.22544,5.89815 -0.7524,7.76045 -1.86263,12.66938c-1.15349,5.10023 -6.83176,10.81045 -11.83191,15.83737c-4.57165,4.59612 -7.90818,8.33063 -12.38271,8.22359c-5.04445,-0.12068 -8.96195,-6.22631 -14.50155,-12.44391c-4.38889,-4.92605 -8.03319,-9.29321 -8.61781,-12.77419z" fill="#000000" fill-rule="nonzero" stroke="none" stroke-width="0" stroke-linecap="butt" stroke-linejoin="miter"/><path d="M217.5026,124.73782c-0.94553,-5.09249 -3.54204,-4.25562 -2.79146,-22.70284c0.35027,-8.60857 1.58748,-16.65181 3.61898,-20.76639c6.59974,-13.36702 19.1364,-15.03633 24.02784,-15.03633c4.16055,0 17.20519,1.95486 23.80596,13.20532c1.38921,2.3678 2.77649,5.92394 3.26517,9.93109c0.50548,4.1449 0.08725,8.75725 0.02672,12.11153c-0.10696,5.92699 0.23361,11.79227 -1.04001,17.97375c-0.62848,3.05035 -1.86346,6.18514 -2.54274,8.95491c-1.44491,5.89168 -1.386,9.63665 -2.01514,12.75206c-1.44877,7.17412 -1.89749,7.23551 -4.27323,10.21882c-2.5746,3.23301 -6.22007,6.15229 -9.11253,8.91074c-2.62204,2.50056 -5.47801,6.21315 -8.77908,6.21315c-4.10432,0 -6.9048,-3.78999 -10.07829,-7.4154c-4.79276,-5.47527 -11.46201,-7.91572 -13.04194,-17.80658c-0.12685,-0.7941 -0.43969,-3.00467 0.07085,-4.82983c0.00686,-0.02452 -1.00856,-0.36111 -1.00856,-0.36111l1.61688,-1.8262c0,0 -1.01453,0.56565 -1.02288,0.49708c-0.03041,-0.24973 -0.00483,-1.08863 -0.0084,-1.34429c-0.03872,-2.77065 -0.17744,-5.76738 -0.71813,-8.67948z" fill="#ffffff" fill-rule="nonzero" stroke="none" stroke-width="0" stroke-linecap="butt" stroke-linejoin="miter"/><path d="M250.98368,115.59648c-2.63663,-8.56603 -1.73815,-18.60138 -1.73815,-18.60138c0,0 3.11941,10.22468 5.31575,17.36028c2.19635,7.1356 6.78361,21.94876 6.78361,21.94876c0,0 -7.72458,-12.14163 -10.36121,-20.70766z" fill="#a1634f" fill-rule="nonzero" stroke="none" stroke-width="0" stroke-linecap="butt" stroke-linejoin="miter"/><g fill-rule="nonzero" stroke="none" stroke-width="0" stroke-linecap="butt" stroke-linejoin="miter"><path d="M228.2427,105.59132c5.64136,0 10.21459,4.47197 10.21459,9.98843c0,5.51646 -4.7706,9.74171 -10.41197,9.74171c-5.64137,0 -10.31875,-4.22525 -10.31875,-9.74171c0,-5.51645 4.87476,-9.98843 10.51613,-9.98843z" fill="#000000"/><path d="M228.2427,105.84569c4.97522,0 8.78866,3.85659 8.78866,8.8032c0,4.94661 -4.01083,9.08774 -8.98605,9.08774c-4.97523,0 -8.81106,-3.98769 -8.81106,-8.9343c0,-4.94662 4.03322,-8.95664 9.00844,-8.95664z" fill="#ffffff"/></g><g fill-rule="nonzero" stroke="none" stroke-width="0" stroke-linecap="butt" stroke-linejoin="miter"><path d="M254.80264,105.61594c5.64136,0 10.21459,4.47198 10.21459,9.98844c0,5.51645 -4.72127,9.64301 -10.36263,9.64301c-3.16285,0 -6.23667,-1.06026 -8.11031,-3.26759c-1.46826,-1.72975 -1.95625,-3.95178 -1.95625,-6.37542c0,-5.51646 4.57322,-9.98844 10.21459,-9.98844z" fill="#000000"/><path d="M254.80264,105.87032c4.97523,0 8.70691,4.08541 8.70691,9.03202c0,4.94661 -3.87973,8.68387 -8.85495,8.68387c-4.97523,0 -8.8604,-3.81265 -8.8604,-8.75926c0,-4.94661 4.03322,-8.95663 9.00844,-8.95663z" fill="#ffffff"/></g><g fill-rule="nonzero" stroke="none" stroke-linecap="butt" stroke-linejoin="miter"><path d="M249.40684,142.68965c2.14614,0.63336 4.57,2.14674 7.10189,3.18958c3.1668,1.30434 5.91835,2.72636 5.91835,2.98404c0,0.09852 0.6422,0.57742 0.34258,1.11686c-1.789,3.22099 -9.63005,12.83494 -20.94009,13.0257c-12.59325,-0.3248 -20.68677,-10.85655 -23.27914,-15.25835c-0.66575,-1.13043 -0.11257,-1.97072 -0.18768,-1.99564c-0.32963,-0.10935 2.17574,-0.56882 4.39722,-1.19556c1.32363,-0.37344 6.02869,-2.52762 9.16564,-2.62169c0,0 6.11008,0.84857 11.13979,1.05021c0,0 4.30069,-0.8974 6.34144,-0.29515z" fill="#000000" stroke-width="NaN"/><path d="M222.92494,145.9118c0,0 4.45428,-1.58314 9.14685,-1.84617c3.5353,-0.19816 8.14505,1.24124 10.14351,1.24124c1.78589,0 3.62586,-1.29154 6.32678,-0.57417c4.23256,1.12417 8.12418,3.53158 8.12418,3.53158c0,0 -3.47556,-0.50449 -6.7587,-0.10932c-2.77486,0.33399 -5.25973,0.85453 -6.95291,0.86581c-2.06827,0.01378 -6.82484,-0.83276 -11.18375,-1.76195c-4.64917,-0.99105 -8.84595,-1.34702 -8.84595,-1.34702z" fill="#ffffff" stroke-width="0"/><path d="M233.9328,149.67147c5.82065,1.20577 8.52116,2.22429 8.52116,2.22429c0,0 2.73973,-0.85807 10.10428,-1.81233c3.83362,-0.49674 8.34249,0.13003 8.34249,0.13003c0,0 -1.67172,2.4939 -5.81691,5.31831c-3.13971,2.13931 -7.86424,4.77611 -13.40623,4.89818c-13.03253,0.28708 -21.37398,-13.37554 -21.37398,-13.37554c0,0 7.27229,1.30021 13.62919,2.61706z" fill="#ffffff" stroke-width="0"/></g><path d="M213.28837,108.92255l0.13102,-1.63769l7.19167,-1.18423l0.32653,-1.46623c0,0 3.68245,-1.72538 7.2562,-2.03587c3.72054,-0.32324 9.00496,-0.09575 9.00496,-0.09575l0.32754,4.71657c0,0 -4.80797,-1.2906 -8.17678,-1.07798c-6.17314,0.38961 -6.13035,1.25866 -10.09703,1.94554c-3.96668,0.68688 -5.96411,0.83565 -5.96411,0.83565z" fill="#000000" fill-rule="nonzero" stroke="none" stroke-width="0" stroke-linecap="butt" stroke-linejoin="miter"/><path d="M227.71909,110.63142c2.71342,0 4.91309,2.23007 4.91309,4.98099c0,2.75092 -2.19966,4.98098 -4.91309,4.98098c-2.71342,0 -4.91309,-2.23006 -4.91309,-4.98098c0,-2.75092 2.19966,-4.98099 4.91309,-4.98099z" fill="#000000" fill-rule="nonzero" stroke="none" stroke-width="0" stroke-linecap="butt" stroke-linejoin="miter"/><path d="M254.87164,110.85054c2.71342,0 4.91309,2.23006 4.91309,4.98098c0,2.75092 -2.19966,4.98098 -4.91309,4.98098c-2.71342,0 -4.91309,-2.23006 -4.91309,-4.98098c0,-2.75091 2.19966,-4.98098 4.91309,-4.98098z" fill="#5a4b49" fill-rule="nonzero" stroke="none" stroke-width="0" stroke-linecap="butt" stroke-linejoin="miter"/><g fill-rule="nonzero" stroke="none" stroke-width="0" stroke-linecap="butt" stroke-linejoin="miter"><path d="M238.9096,136.80041c0,0 -0.06312,-8.68679 -0.28083,-12.38791c-0.17487,-2.97289 -0.92532,-8.11666 -0.92532,-8.11666c0,0 -0.33218,-1.57308 0.02454,-1.56279c1.13657,0.03279 7.81544,1.78895 7.81544,1.78895l-0.37692,20.27841c0,0 0.82184,1.93768 0.72844,3.69896c-0.06976,1.31553 -0.97469,4.70292 -1.02626,5.67536c-0.11348,2.13998 -0.40577,3.89334 -0.40577,3.89334l-4.14036,-0.01448c0,0 -0.12488,-2.01528 -0.87252,-4.2695c-0.71961,-2.16969 -2.11593,-4.55553 -2.18508,-5.58924c-0.19994,-2.9885 1.64464,-3.39445 1.64464,-3.39445z" fill="#000000"/><path d="M241.27164,149.07835c0,0 -0.2909,-3.80356 -0.49735,-8.24071c-0.20504,-4.40659 -0.32473,-9.70108 -0.5883,-13.30096c-0.42508,-5.80554 -1.77895,-15.81414 -1.77895,-15.81414l6.10614,1.88461l-0.75385,35.43068z" fill="#ffffff"/><path d="M238.85405,137.97842c0.34401,0 0.62288,4.77542 0.62288,4.77542c0,0 -1.24576,-1.59275 -1.24576,-2.7251c0,-1.13236 0.27887,-2.05032 0.62288,-2.05032z" fill="#ffffff"/></g><path d="M209.80203,93.16509c-1.19021,-6.54486 0.8,-14.15411 0.8,-14.15411c0,0 21.21081,-18.67174 31.8391,-18.67174c9.85589,0 29.78844,18.67174 29.78844,18.67174c0,0 0.12146,1.89829 0.21429,3.34922c0.17226,2.69247 0.73791,11.53328 0.73791,11.53328c0,0 -4.02246,-9.83788 -7.66885,-7.46317c-0.91208,0.41019 -5.96214,13.44176 -5.96214,13.44176c0,0 -2.5593,-3.9754 -3.38975,-8.05034c-0.0443,-0.21738 0.55501,-0.32061 0.01978,-0.0433c-8.23646,4.26743 -16.695,13.4202 -16.695,13.4202c0,0 0.67559,-4.10641 2.49889,-9.4734c1.8233,-5.36699 3.2281,-7.38433 3.2281,-7.38433c0,0 -5.11185,6.78739 -10.53439,11.14369c-7.89904,6.34584 -21.57892,10.35503 -21.57892,10.35503c0,0 1.77607,-3.76069 0.12334,-7.69312c-1.33508,-3.17664 -2.88897,-6.05688 -3.42081,-8.9814z" fill="#000000" fill-rule="nonzero" stroke="none" stroke-width="0" stroke-linecap="butt" stroke-linejoin="miter"/><g fill="#000000" fill-rule="nonzero" stroke="none" stroke-width="0" stroke-linecap="butt" stroke-linejoin="miter"><path d="M217.54636,116.17209c0,0 -0.16627,-2.22288 0.81062,-4.59656c1.16899,-2.84044 3.93233,-5.91812 9.99819,-5.95021c4.4123,-0.02334 6.77688,1.48178 8.31843,3.36171c2.53146,3.08714 2.42486,7.54013 2.42486,7.54013z"/><path d="M219.11858,114.5999c0,0 0.38648,-8.1425 9.36763,-8.12298c3.32151,0.00722 5.24312,1.47836 6.59481,2.79979c2.45356,2.39865 2.57629,5.32319 2.57629,5.32319z"/></g><g fill="#000000" fill-rule="nonzero" stroke="none" stroke-width="0" stroke-linecap="butt" stroke-linejoin="miter"><path d="M244.50734,116.1935c0,0 -0.53134,-3.2454 0.9459,-6.12374c1.32927,-2.59004 4.34124,-4.84529 9.8629,-4.81608c11.13492,0.0589 11.0941,11.29489 11.0941,11.29489z" data-paper-data="{&quot;index&quot;:null}"/><path d="M245.68649,114.35927c0,0 0.21519,-7.7079 9.56586,-7.72822c8.98115,-0.01952 9.56245,7.99026 9.56245,7.99026z" data-paper-data="{&quot;index&quot;:null}"/></g><g fill="#000000" fill-rule="nonzero" stroke="none" stroke-width="0" stroke-linecap="butt" stroke-linejoin="miter"><path d="M257.42141,102.60403c-0.17219,-0.0007 -0.34359,0.00037 -0.51412,0.00313c-0.36901,-1.21855 -0.66554,-2.51923 -0.83859,-3.79798c3.35683,0.05685 5.68371,0.6715 5.68371,0.6715l0.19551,1.20419l7.3882,2.16685l0.13101,1.6377c0,0 -5.86035,-1.86016 -12.04572,-1.88538z" data-paper-data="{&quot;index&quot;:null}"/><path d="M251.80165,103.16536c-0.06493,-1.37652 -0.06559,-2.77452 0.05397,-4.06589c0.57414,-0.08929 1.1523,-0.16306 1.7193,-0.2135c0.1647,1.30289 0.43895,2.61872 0.78929,3.88387c-0.89911,0.09907 -1.75794,0.23647 -2.56256,0.39552z" data-paper-data="{&quot;index&quot;:null}"/><path d="M245.49125,105.11235l-0.26203,-4.42239c0,0 1.80519,-0.59241 4.12672,-1.11175c-0.08433,1.36099 -0.06969,2.78128 0.00085,4.16977c-2.37014,0.6616 -3.86554,1.36437 -3.86554,1.36437z" data-paper-data="{&quot;index&quot;:null}"/></g><path d="M267.61919,114.80528c0.56251,-2.87129 1.8257,-11.84721 1.8257,-11.84721l1.49207,2.80158c0,0 -0.83561,10.37959 -2.01019,12.23935c-1.54635,4.93649 -4.61838,5.74398 -4.61838,5.74398c0,0 2.35606,-4.06428 3.3108,-8.9377z" fill="#000000" fill-rule="nonzero" stroke="none" stroke-width="0" stroke-linecap="butt" stroke-linejoin="miter"/><path d="M263.10838,130.8168c0,0 0.87349,-1.25667 2.44688,-6.50846c0.63812,-2.12996 1.55312,-6.65027 1.55312,-6.65027c0,0 1.27496,-0.41773 1.47256,0.34361c0.14701,0.56643 -0.39319,3.81512 -0.39319,3.81512c0,0 -0.63908,2.68966 -1.4081,4.36233c-1.5423,3.35463 -3.67127,4.63767 -3.67127,4.63767z" fill="#000000" fill-rule="nonzero" stroke="none" stroke-width="0" stroke-linecap="butt" stroke-linejoin="miter"/><path d="M218.11173,138.20651l0.14236,-1.88343c0,0 0.5656,0.25286 0.83859,0.38934c0.19561,0.0978 1.47937,0.79733 1.47937,0.79733c0,0 -1.40414,-0.57105 -1.80739,-0.64621c-0.40325,-0.07516 -0.65293,1.34296 -0.65293,1.34296z" fill="#000000" fill-rule="nonzero" stroke="none" stroke-width="0" stroke-linecap="butt" stroke-linejoin="miter"/><g fill-rule="nonzero" stroke="none" stroke-width="0" stroke-linecap="butt" stroke-linejoin="miter"><path d="M174.78919,382.45803c0,0 2.02541,-1.45324 3.85233,-2.93676c2.23924,-1.81833 4.551,-4.00525 7.03421,-3.9113c1.32999,0.05033 4.95108,0.88275 6.40654,1.22851c0.38455,0.09135 0.61793,0.14873 0.61793,0.14873c0,0 5.32099,-1.98369 7.7126,-1.05914c2.40558,0.92994 3.74952,2.92987 5.25194,4.54685c1.58048,1.70099 3.25768,2.9979 3.25768,2.9979c0,0 -0.86835,9.48396 -4.21487,13.76942c-2.27209,2.9096 -11.19121,2.55916 -11.19121,2.55916c0,0 -8.8732,0.69039 -12.09977,-2.57997c-4.54482,-4.60651 -6.62738,-14.7634 -6.62738,-14.7634z" fill="#000000"/><path d="M189.38037,389.19918c0,0 2.14362,0.44707 3.2702,0.44707c1.16798,0 3.61793,-0.44707 3.61793,-0.44707c0,0 -1.29982,1.61244 -3.27849,1.64752c-2.02758,0.03595 -3.60966,-1.64752 -3.60966,-1.64752z" fill="#ffffff"/><path d="M192.89896,397.99149c0,0 -6.59012,0.84567 -9.8082,-2.19717c-3.6433,-3.44488 -6.33589,-11.90201 -6.33589,-11.90201c0,0 3.86357,0.12484 7.78176,2.28843c2.12744,1.17476 3.27356,3.89569 5.02294,5.2493c1.07409,0.8311 2.97908,0.67735 3.69602,0.71997c0.94218,0.05601 2.67447,-0.30062 3.79698,-1.29776c1.42741,-1.26799 2.26723,-3.30611 3.58813,-3.9515c3.88376,-1.89759 6.89555,-1.17878 6.89555,-1.17878c0,0 -1.15553,6.3025 -6.0428,10.44191c-2.15069,1.82159 -8.5945,1.8276 -8.5945,1.8276z" fill="#ffffff"/><path d="M192.46845,379.15674c0,0 5.28305,-2.25674 6.78996,-1.70156c1.39918,0.51549 3.43599,2.5947 5.12976,4.21886c1.47611,1.41544 2.71758,2.43354 2.71758,2.43354c0,0 -3.94037,0.52212 -8.50549,0.02696c-1.80165,-0.19543 -2.01941,-2.19759 -5.72773,-1.96427c-3.56025,0.224 -3.54254,0.61261 -5.25383,1.05081c-1.33784,0.34258 -3.34204,0.10721 -4.19993,0.04794c-2.85037,-0.19693 -6.23338,-0.88349 -6.23338,-0.88349c0,0 1.92153,-0.89144 3.94545,-2.19918c1.69596,-1.09582 3.43174,-2.61216 4.47894,-2.90181c2.69705,-0.74598 6.85868,1.87216 6.85868,1.87216z" fill="#ffffff"/></g><g fill-rule="nonzero" stroke="none" stroke-width="0" stroke-linecap="butt" stroke-linejoin="miter"><path d="M205.73675,379.7715c0,0 7.93667,-7.05535 10.78244,-6.97784c1.86675,0.05084 7.42265,1.74866 7.42265,1.74866c0,0 5.13297,-2.70747 7.71774,-1.55947c3.02987,1.34569 7.57823,7.79244 7.57823,7.79244c0,0 -1.15684,9.14927 -4.88674,12.93928c-2.59412,2.63592 -17.00651,2.97049 -21.07462,0.36295c-3.66913,-2.35179 -7.53972,-14.30601 -7.53972,-14.30601z" fill="#000000"/><path d="M220.79086,385.8939c0,0 1.99552,0.20344 2.96627,0.18547c0.90702,-0.0168 2.67998,-0.29003 2.67998,-0.29003c0,0 -0.85823,1.01396 -2.71856,1.0456c-1.86048,0.03164 -2.92769,-0.94104 -2.92769,-0.94104z" fill="#ffffff"/><path d="M208.13907,380.97957c0,0 6.08468,-0.47274 8.49402,2.86428c2.70517,3.74674 4.64229,4.45324 6.56817,4.53699c1.14847,0.04993 3.5216,-0.06948 4.98404,-1.26801c1.3064,-1.07067 2.11423,-3.08801 3.28848,-3.68592c3.45385,-1.75864 6.04671,-1.19263 6.04671,-1.19263c0,0 -2.01515,7.7325 -4.6034,10.04221c-2.16021,1.92773 -8.36207,1.98222 -8.36207,1.98222c0,0 -6.87029,0.96852 -10.80327,-2.49264c-2.82444,-2.48561 -5.61268,-10.78649 -5.61268,-10.78649z" fill="#ffffff"/><path d="M208.66188,379.51573c0,0 5.32262,-4.44736 7.08708,-4.92965c2.88765,-0.78928 7.76046,1.3746 7.76046,1.3746c0,0 4.8349,-2.01259 6.89183,-1.15156c2.38921,1.00014 7.43291,6.06589 7.43291,6.06589c0,0 -2.99788,1.19908 -7.20547,-0.03616c-2.56725,-0.57472 -1.48568,-2.8537 -6.58182,-2.75708c-4.1564,0.0788 -5.275,2.05607 -6.3853,2.00433c-4.41052,0.63098 -8.99971,-0.57038 -8.99971,-0.57038z" fill="#ffffff"/></g><g fill-rule="nonzero" stroke="none" stroke-width="0" stroke-linecap="butt" stroke-linejoin="miter"><path d="M141.0738,381.23921c0,0 7.25157,-7.82445 11.18225,-7.7876c1.89304,0.01775 8.4446,2.07116 8.4446,2.07116c0,0 4.84369,-2.77532 6.91053,-2.0296c5.95442,2.14839 9.87165,8.54498 9.87165,8.54498c0,0 -0.19201,8.90477 -4.6279,15.12413c-3.37462,4.73141 -12.14992,3.36572 -12.14992,3.36572c0,0 -9.78231,1.42343 -13.99606,-3.30541c-3.12361,-3.50545 -5.63513,-15.98338 -5.63513,-15.98338z" fill="#000000"/><path d="M154.76999,388.08731c0,0 3.59566,1.14135 5.36433,1.14135c1.73064,0 5.13607,-1.14135 5.13607,-1.14135c0,0 -1.85174,2.73924 -5.36433,2.85338c-2.36999,0.07701 -5.13608,-2.85338 -5.13608,-2.85338z" fill="#ffffff"/><path d="M142.44344,382.03815c0,0 4.18859,0.68386 7.49578,3.13179c2.45939,1.8204 3.59384,4.54076 5.60167,6.14819c1.03893,0.83175 3.06387,1.28194 4.04035,1.33159c1.13317,0.05762 3.61158,-0.36941 5.46936,-2.0283c1.79888,-1.60629 2.97311,-4.4317 4.35104,-5.23502c4.47559,-2.60922 6.71161,-1.63622 6.71161,-1.63622c0,0 -2.33969,9.86334 -7.12313,13.62993c-2.50788,1.97476 -9.76884,1.43588 -9.76884,1.43588c0,0 -7.31023,0.56507 -9.9868,-1.99737c-3.06507,-2.93437 -6.79102,-14.78046 -6.79102,-14.78046z" fill="#ffffff"/><path d="M160.36257,377.35862c0,0 4.96027,-2.80317 7.53291,-1.71203c3.86181,1.63792 7.8753,6.61983 7.8753,6.61983c0,0 -3.73334,0.57343 -7.61483,-0.09475c-2.53525,-0.43642 -4.61019,-2.18787 -7.56077,-2.25755c-2.7911,-0.06591 -4.59728,1.05867 -6.87378,1.57299c-1.5125,0.34172 -3.80638,0.15904 -4.6515,0.10471c-2.51291,-0.16154 -5.25689,-1.37983 -5.25689,-1.37983c0,0 5.57933,-4.07994 8.6244,-4.69719c2.45965,-0.49858 7.92516,1.84382 7.92516,1.84382z" fill="#ffffff"/></g><g fill-rule="nonzero" stroke="none" stroke-width="0" stroke-linecap="butt" stroke-linejoin="miter"><path d="M106.12533,368.82608c-7.50714,-0.17143 -12.22701,-3.64987 -15.85048,-6.96347c-4.44662,-4.06633 -5.57652,-9.01841 -5.57652,-9.01841c0,0 5.92452,-8.32075 11.4543,-8.0617c2.78369,0.13041 12.6716,4.43923 12.6716,4.43923c0,0 0.7805,-0.158 2.74869,-0.46339c1.50689,-0.23382 3.63685,-1.01246 4.96234,-0.53603c3.46472,1.24537 11.65354,7.87483 11.65354,7.87483c0,0 -1.33486,3.42449 -4.0682,6.67535c-2.88709,3.43372 -8.3437,6.27397 -17.99525,6.05356z" fill="#000000"/><path d="M87.3855,353.26849c0,0 3.7652,-6.80646 9.17964,-6.4455c2.46369,0.16425 12.02454,3.43046 12.02454,3.43046c0,0 1.85381,0.18094 4.25295,0.03359c1.30249,-0.08 3.21456,-0.33119 4.05028,-0.04301c2.84639,0.98149 7.61859,5.49954 7.61859,5.49954c0,0 -6.89706,-0.48745 -10.21128,-1.12706c-3.63484,-0.7015 -6.78925,-2.60174 -11.36123,-2.84274c-2.19609,-0.11576 -5.87099,0.64885 -9.09738,1.03382c-3.49054,0.41649 -6.45612,0.46093 -6.45612,0.46093z" fill="#ffffff"/><path d="M87.59762,355.17787c0,0 2.98629,0.48156 6.43657,1.33955c4.02235,1.00025 8.80226,2.41053 12.1709,2.60212c3.46032,0.19683 8.3771,-0.86414 12.65981,-1.37735c3.85264,-0.46166 7.27308,-0.37214 7.27308,-0.37214c0,0 -3.79946,10.5956 -19.44696,8.98097c-15.27395,-1.57609 -19.09337,-11.17316 -19.09337,-11.17316z" fill="#ffffff"/><path d="M96.29574,354.6828c0,0 3.4776,-0.58265 7.49593,-0.77788c4.01831,-0.19522 9.97099,2.6165 9.97099,2.6165c0,0 -6.18323,-0.08514 -9.16231,-0.39872c-2.83621,-0.29855 -8.3046,-1.4399 -8.3046,-1.4399z" fill="#ffffff"/></g><g fill-rule="nonzero" stroke="none" stroke-width="0" stroke-linecap="butt" stroke-linejoin="miter"><path d="M84.64336,377.14968c0,0 6.81111,-7.00979 11.8139,-6.62675c2.2473,0.17207 9.68142,2.47527 9.68142,2.47527c0,0 6.57082,-1.54251 9.48334,-0.5105c3.80372,1.34779 11.09277,7.9058 11.09277,7.9058c0,0 -6.48444,13.16692 -21.33061,12.68041c-14.3743,-0.47105 -20.74082,-15.92423 -20.74082,-15.92423z" fill="#000000"/><path d="M87.17729,376.94597c0,0 4.99309,-4.0017 8.7863,-4.18143c3.9294,-0.18619 10.37419,2.01132 10.37419,2.01132c0,0 5.46005,-1.50575 7.93805,-0.84171c2.86458,0.76763 8.25839,5.18193 8.25839,5.18193c0,0 -2.22195,0.00257 -4.69651,-0.32061c-3.20992,-0.41923 -7.13396,-1.20595 -10.16903,-1.39223c-2.93595,-0.1802 -7.45472,-0.1331 -11.59997,-0.20094c-4.70992,-0.07708 -8.89143,-0.25632 -8.89143,-0.25632z" fill="#ffffff"/><path d="M86.85968,378.42798c0,0 3.94252,0.97854 8.59298,2.00613c4.08172,0.90192 8.7088,1.85378 11.69423,2.04968c2.78651,0.18285 6.33367,-0.53159 9.6556,-0.94902c3.77144,-0.47391 7.16081,-0.67203 7.16081,-0.67203c0,0 -5.04133,10.02067 -18.84292,9.15681c-13.35916,-0.83616 -18.26069,-11.59157 -18.26069,-11.59157z" fill="#ffffff"/><path d="M114.11842,379.69829c0,0 -3.37846,0.62522 -6.9867,0.42344c-3.60823,-0.20178 -9.10388,-1.32324 -9.10388,-1.32324z" fill="#ffffff"/></g><g fill-rule="nonzero" stroke-width="0" stroke-linecap="butt" stroke-linejoin="miter"><path d="M135.14771,418.74836c0,0 2.71078,-1.66293 5.51924,-3.81209c2.78675,-2.13256 5.66305,-4.75185 7.77232,-4.66633c1.87374,0.07597 7.81415,2.14333 7.81415,2.14333c0,0 6.12625,-3.26522 8.53511,-2.25753c2.09169,0.875 5.04011,4.12687 7.49332,6.70519c1.89517,1.99182 3.62454,3.54001 3.62454,3.54001c0,0 -0.5841,1.31339 -1.16917,3.38309c-1.03015,3.64414 -1.98827,6.18463 -5.34942,9.70917c-3.17481,3.32913 -9.24413,2.92881 -13.32446,2.76336c-3.91269,-0.15864 -9.43864,0.54783 -12.71127,-2.8431c-3.5553,-3.68382 -5.40396,-6.41353 -6.63549,-10.33705c-0.77946,-2.48325 -1.56888,-4.32803 -1.56888,-4.32803z" fill="#000000" stroke="none"/><path d="M139.11633,418.64507c0,0 1.15661,-0.64856 2.3574,-1.63772c2.0487,-1.68764 4.62638,-4.47927 6.47705,-4.99333c2.60178,-0.7227 8.32711,2.91278 8.32711,2.91278c0,0 5.59321,-3.37063 8.17948,-2.63334c1.31618,0.37522 2.76735,2.038 4.17177,3.59761c1.61191,1.79005 3.30867,3.47698 3.30867,3.47698c0,0 -2.13679,0.43757 -4.38277,-0.15553c-3.30043,-0.87155 -5.74023,-2.93423 -10.73059,-2.95877c-5.98066,-0.0294 -7.0244,1.63493 -10.5795,2.17617c-4.04335,0.61557 -7.12861,0.21513 -7.12861,0.21513z" fill="#ffffff" stroke="none"/><path d="M155.53492,423.33667c2.3302,0.04877 7.57468,-0.80685 7.57468,-0.80685c0,0 -0.68156,2.43988 -7.37732,2.66374c-4.33257,0.14485 -6.89504,-2.46226 -6.89504,-2.46226c0,0 4.11912,0.5514 6.69767,0.60538z" fill="#ffffff" stroke="#000000"/><path d="M163.89335,419.67792c0,0 -4.67346,0.1329 -7.0769,0.04589c-2.35056,-0.08509 -7.18864,-0.56232 -7.18864,-0.56232c0,0 3.65211,-1.279 7.61544,-1.13613c3.75415,0.13533 6.65009,1.65256 6.65009,1.65256z" fill="#ffffff" stroke="#000000"/><path d="M137.53219,420.80039c0,0 2.20126,0.03899 5.14261,0.09763c3.73892,0.07455 2.72124,5.49275 12.89009,5.99179c10.12303,0.49679 9.94132,-5.53112 12.16163,-5.48641c2.96735,0.05975 6.28446,0.13146 6.28446,0.13146c0,0 -2.81513,8.80482 -7.83437,11.0987c-2.15068,0.9829 -6.15195,1.09098 -9.87947,1.14779c-3.88239,0.05917 -7.43466,0.17056 -10.85319,-1.8428c-4.94164,-2.91041 -7.91176,-11.13816 -7.91176,-11.13816z" fill="#ffffff" stroke="none"/></g><g fill-rule="nonzero" stroke-width="0" stroke-linecap="butt" stroke-linejoin="miter"><path d="M175.78015,419.5057c0,0 2.80812,-1.78893 5.71742,-4.10094c2.88681,-2.29415 5.86639,-5.1119 8.0514,-5.0199c1.94102,0.08173 8.09473,2.30573 8.09473,2.30573c0,0 6.34623,-3.51263 8.84158,-2.42859c2.1668,0.9413 5.22109,4.43957 7.76238,7.21325c1.96322,2.14274 3.75469,3.80824 3.75469,3.80824c0,0 -0.60507,1.41291 -1.21115,3.63943c-1.06714,3.92026 -2.05966,9.79611 -5.5415,13.58771c-3.28881,3.58138 -9.57606,3.17306 -13.8029,2.99508c-4.05318,-0.17066 -9.77756,0.58934 -13.1677,-3.05853c-3.68296,-3.96295 -5.598,-10.06469 -6.87375,-14.2855c-0.80745,-2.67141 -1.62521,-4.65597 -1.62521,-4.65597z" fill="#000000" stroke="none"/><path d="M179.89124,419.39462c0,0 1.19814,-0.6977 2.44205,-1.76181c2.12226,-1.81552 4.7925,-4.81867 6.70962,-5.37168c2.6952,-0.77746 8.62611,3.13349 8.62611,3.13349c0,0 5.79405,-3.62603 8.47318,-2.83287c1.36344,0.40365 2.86672,2.19242 4.32157,3.87021c1.66979,1.92568 3.42747,3.74044 3.42747,3.74044c0,0 -2.21352,0.47073 -4.54014,-0.16731c-3.41894,-0.93759 -5.94635,-3.15656 -11.1159,-3.18296c-6.19541,-0.03163 -7.27663,1.75881 -10.95938,2.34106c-4.18854,0.66221 -7.38458,0.23143 -7.38458,0.23143z" fill="#ffffff" stroke="none"/><path d="M178.44678,421.06128c0,0 2.58503,-0.38218 4.79299,1.52004c3.71744,3.20267 4.83066,9.41538 14.64697,9.55707c9.50119,0.30123 9.12828,-5.89657 12.51491,-9.01501c2.1524,-1.98194 5.15623,-1.50655 5.15623,-1.50655c0,0 -0.65052,2.48341 -1.54191,5.8112c-0.79244,2.95838 -1.65874,6.63069 -4.20284,9.10864c-2.63655,2.568 -9.01882,2.9064 -12.25525,2.85795c-3.69679,-0.05534 -9.19365,0.24891 -12.26095,-2.96301c-2.74203,-2.87131 -4.06659,-7.07122 -5.11873,-10.35547c-0.91395,-2.85289 -1.73143,-5.01485 -1.73143,-5.01485z" fill="#ffffff" stroke="#000000"/><path d="M189.66902,427.28346c0,0 5.6582,0.79209 8.32934,0.85016c2.41387,0.05247 7.00399,-0.51682 7.00399,-0.51682c0,0 -1.64731,2.8211 -7.22222,2.77778c-4.5752,-0.03555 -8.11111,-3.11111 -8.11111,-3.11111z" fill="#ffffff" stroke="#000000"/><path d="M205.55789,420.5057c0,0 -4.84127,0.14297 -7.33101,0.04937c-2.43496,-0.09154 -7.44676,-0.60493 -7.44676,-0.60493c0,0 3.78325,-1.37591 7.88889,-1.22222c3.88895,0.14558 6.88888,1.77778 6.88888,1.77778z" fill="#ffffff" stroke="#000000"/></g><g fill-rule="nonzero" stroke-width="0" stroke-linecap="butt" stroke-linejoin="miter"><path d="M219.90533,422.23118c0,0 2.80812,-1.78893 5.71742,-4.10094c2.88681,-2.29415 5.86639,-5.1119 8.0514,-5.0199c1.94102,0.08173 8.09473,2.30573 8.09473,2.30573c0,0 6.34623,-3.51263 8.84158,-2.42859c2.1668,0.9413 5.22109,4.43957 7.76238,7.21325c1.96322,2.14274 3.75469,3.80824 3.75469,3.80824c0,0 -0.60507,1.41291 -1.21115,3.63943c-1.06714,3.92026 -1.61522,12.24055 -5.09706,16.03215c-3.28881,3.58138 -10.0205,3.17306 -14.24734,2.99508c-4.05318,-0.17066 -10.25879,0.56713 -14.03576,-3.32242c-4.45264,-4.58537 -4.91744,-11.87025 -6.19319,-16.09106c-0.80745,-2.67141 -1.43771,-5.03097 -1.43771,-5.03097z" fill="#000000" stroke="none"/><path d="M224.01646,422.12007c0,0 1.19814,-0.6977 2.44205,-1.76181c2.12226,-1.81552 4.7925,-4.81867 6.70962,-5.37168c2.6952,-0.77746 8.62611,3.13349 8.62611,3.13349c0,0 5.79405,-3.62603 8.47318,-2.83287c1.36344,0.40365 2.86672,2.19242 4.32157,3.87021c1.66979,1.92568 3.42747,3.74044 3.42747,3.74044c0,0 -2.21352,0.47073 -4.54014,-0.16731c-3.41894,-0.93759 -5.94635,-3.15656 -11.1159,-3.18296c-6.19541,-0.03163 -7.27663,1.75881 -10.95938,2.34106c-4.18854,0.66221 -7.38458,0.23143 -7.38458,0.23143z" fill="#ffffff" stroke="none"/><path d="M222.57196,423.78671c0,0 2.15447,0.28449 4.36243,2.18671c3.71744,3.20267 3.63808,11.09698 15.07753,11.33485c11.00466,0.22882 9.43384,-7.58407 12.82047,-10.70251c2.1524,-1.98194 4.78817,-1.88849 4.78817,-1.88849c0,0 -0.58802,4.55285 -1.47941,7.88064c-0.79244,2.95838 -1.59624,6.75569 -4.14034,9.23364c-2.63655,2.568 -9.08132,2.7814 -12.31775,2.73295c-3.69679,-0.05534 -9.30476,0.24891 -12.37206,-2.96301c-2.74203,-2.87131 -4.33048,-8.7865 -5.38262,-12.07075c-0.91395,-2.85289 -1.35643,-5.74402 -1.35643,-5.74402z" fill="#ffffff" stroke="#000000"/><path d="M233.7942,432.45336c0,0 5.6582,0.79209 8.32934,0.85016c2.41387,0.05247 7.00399,-0.51682 7.00399,-0.51682c0,0 -1.64731,2.8211 -7.22222,2.77778c-4.5752,-0.03555 -8.11111,-3.11111 -8.11111,-3.11111z" fill="#ffffff" stroke="#000000"/><path d="M249.68309,423.23118c0,0 -4.84127,0.14297 -7.33101,0.04937c-2.43496,-0.09154 -7.44676,-0.60493 -7.44676,-0.60493c0,0 3.78325,-1.37591 7.88889,-1.22222c3.88895,0.14558 6.88888,1.77778 6.88888,1.77778z" fill="#ffffff" stroke="#000000"/></g><g fill-rule="nonzero" stroke="none" stroke-width="0" stroke-linecap="butt" stroke-linejoin="miter"><path d="M270.19333,423.99945c0,0 2.7702,-0.68949 5.3727,-1.82336c2.52543,-1.10029 4.8527,-2.6483 6.93796,-2.49957c2.30071,0.16411 11.29742,2.20396 11.29742,2.20396c0,0 7.95342,-1.48302 8.81533,-1.25725c2.99249,0.78383 11.54326,6.51221 11.54326,6.51221c0,0 -1.85461,3.40595 -6.30374,5.57663c-4.36442,2.12933 -11.27991,3.02741 -15.8364,2.70242c-4.29835,-0.30659 -8.87531,-0.1949 -14.4412,-3.83882c-6.3321,-4.14556 -7.38533,-7.5762 -7.38533,-7.5762z" fill="#000000"/><path d="M273.51751,425.81833c0,0 7.54743,-0.27868 10.86748,0.27469c3.1062,0.51772 8.454,2.9457 8.454,2.9457c0,0 5.72018,-1.8382 8.64845,-2.12375c3.31522,-0.32327 10.2265,0.28321 10.2265,0.28321c0,0 -0.90454,0.77874 -2.29716,1.96203c-2.2486,1.91061 -6.67636,4.51067 -18.40043,3.93365c-3.60091,-0.17723 -7.33476,-0.72756 -10.42393,-2.22873c-4.10733,-1.99596 -7.07494,-5.04678 -7.07494,-5.04678z" fill="#ffffff"/><path d="M274.89735,424.25032c0,0 1.40764,-0.77748 3.22792,-1.49377c1.54747,-0.60894 3.39317,-1.17366 4.92575,-1.17887c2.65432,-0.00903 10.59959,2.67264 10.59959,2.67264c0,0 6.35269,-1.90688 8.46481,-1.72804c1.32231,0.11196 2.43786,0.7625 3.72425,1.42753c1.48516,0.76779 3.05188,1.55491 3.05188,1.55491c0,0 -4.91836,-0.57322 -7.4191,-0.41822c-2.5574,0.15851 -7.75912,1.67261 -7.75912,1.67261c0,0 -6.57468,-2.02144 -9.76843,-2.39405c-3.07364,-0.35859 -9.04755,-0.11476 -9.04755,-0.11476z" fill="#ffffff"/></g><g fill-rule="nonzero" stroke="none" stroke-width="0" stroke-linecap="butt" stroke-linejoin="miter"><path d="M216.99576,355.27598c-0.88391,2.47063 -2.40409,7.10488 -5.43348,9.52356c-1.77642,1.4183 -5.55033,3.41226 -12.01447,3.36452c-11.90912,0.09231 -14.93278,-7.14215 -16.10242,-9.48317c-1.1461,-2.2939 -3.31997,-7.89253 -3.31997,-7.89253c0,0 0.42666,-0.28374 1.80248,-1.14072c4.03549,-2.51364 8.53658,-7.17785 12.0794,-6.84808c3.16616,0.29471 6.29495,2.13275 6.29495,2.13275c0,0 3.63506,-2.53505 7.0412,-1.41106c3.21321,1.20833 4.30953,2.7433 6.51817,5.28632c2.18243,2.51284 4.40875,4.13321 4.40875,4.13321c0,0 -0.68001,0.6732 -1.27461,2.33521z" fill="#000000"/><path d="M206.31416,352.24363c-1.12691,-0.30805 -2.7148,-2.84597 -5.00607,-3.0154c-2.6435,-0.19547 -5.15854,1.9113 -6.13463,1.88138c-6.22226,-0.19074 -11.3507,-0.42801 -11.3507,-0.42801c0,0 1.12133,-0.58348 2.24644,-1.37591c2.17757,-1.53368 5.28012,-3.85005 6.67861,-4.23386c2.98751,-0.81991 7.94371,2.91325 7.94371,2.91325c0,0 3.50623,-2.78399 6.28279,-2.79447c0.99081,0.04521 2.94876,1.39001 4.56042,3.54999c1.39498,1.86957 3.27904,3.35724 3.27904,3.35724c0,0 -3.49216,0.44201 -8.49963,0.14579z" fill="#ffffff"/><path d="M215.92266,354.239c0,0 -0.88021,0.61498 -1.36142,1.94831c-0.70071,1.94151 -1.74265,4.70402 -3.98485,6.5619c-2.82409,2.34002 -7.96588,2.9454 -10.23586,2.83733c-2.08783,-0.09939 -7.29964,-0.14946 -10.19984,-2.35244c-2.84843,-2.16366 -4.53008,-5.27162 -5.59492,-7.68542c-0.75585,-1.71338 -1.79377,-3.20024 -1.79377,-3.20024c0,0 6.70694,0.06307 11.515,1.51058c1.79369,0.65768 1.91472,2.44263 2.9502,3.74009c0.66366,0.83157 1.45863,1.46288 4.1136,1.46884c2.94122,0.18455 3.48514,-3.88526 5.75661,-4.56481c4.37258,-1.30813 8.83525,-0.26414 8.83525,-0.26414z" fill="#ffffff"/></g><g fill-rule="nonzero" stroke="none" stroke-width="0" stroke-linecap="butt" stroke-linejoin="miter"><path d="M172.75148,364.5512c-1.77642,1.4183 -6.04788,3.49505 -12.51202,3.4473c-11.90912,0.09231 -15.18155,-7.47329 -16.35118,-9.8143c-1.1461,-2.2939 -3.07121,-8.72039 -3.07121,-8.72039c0,0 0.42666,-0.28374 1.80248,-1.14072c1.52468,-0.94969 3.36458,-1.95802 4.94539,-3.13637c2.60325,-1.94048 4.92972,-3.91689 7.13401,-3.71171c3.16616,0.29471 6.37788,2.46388 6.37788,2.46388c0,0 3.96675,-2.94898 7.37289,-1.82499c3.21321,1.20833 4.14369,2.82609 6.35232,5.3691c2.18243,2.51284 4.32583,3.88485 4.32583,3.88485c0,0 -0.84586,0.92157 -1.44046,2.58357c0,0 -1.90654,8.18109 -4.93594,10.59977z" fill="#000000"/><path d="M167.08873,350.91907c-1.12691,-0.30805 -2.7148,-2.84597 -5.00607,-3.0154c-2.6435,-0.19547 -5.15854,1.9113 -6.13463,1.88138c-6.22226,-0.19074 -11.3507,-0.42801 -11.3507,-0.42801c0,0 1.12133,-0.58348 2.24644,-1.37591c2.17757,-1.53368 5.28012,-3.85006 6.67862,-4.23386c2.98751,-0.81991 7.44617,3.24439 7.44617,3.24439c0,0 4.00377,-3.11513 6.78033,-3.12561c0.99081,0.04521 2.94876,1.39001 4.56043,3.54999c1.39498,1.86957 3.27904,3.35723 3.27904,3.35723c0,0 -3.49216,0.44201 -8.49963,0.14579z" fill="#ffffff"/><path d="M175.99921,354.94553c-0.70071,1.94151 -2.07434,5.86302 -4.31655,7.72089c-2.82409,2.34002 -8.46342,3.02819 -10.7334,2.92012c-2.08783,-0.09939 -7.46549,-0.64617 -10.36569,-2.84916c-2.84843,-2.16366 -4.44716,-6.01668 -5.512,-8.43049c-0.75585,-1.71338 -1.8767,-3.20023 -1.8767,-3.20023c0,0 5.04847,-0.26808 9.85654,1.17943c1.79369,0.65768 2.9098,3.1877 3.94527,4.48516c0.66366,0.83157 2.37079,2.04238 5.02576,2.04834c2.94122,0.18455 3.81684,-4.38197 6.08831,-5.06152c4.37258,-1.30813 8.75232,-0.84363 8.75232,-0.84363c0,0 -0.38266,0.69777 -0.86387,2.03109z" fill="#ffffff"/></g><g fill-rule="nonzero" stroke="none" stroke-width="0" stroke-linecap="butt" stroke-linejoin="miter"><path d="M255.79248,357.79946c-0.79955,2.47064 -1.84707,5.69753 -4.58733,8.11621c-1.60687,1.4183 -7.92255,3.66062 -13.76973,3.61287c-8.97224,-0.07326 -11.1567,-3.47839 -12.50042,-5.13211c-1.92568,-2.36993 -3.71985,-5.23867 -4.77785,-7.57968c-1.03671,-2.2939 -1.93714,-4.58112 -1.93714,-4.58112c0,0 1.58634,-0.41336 3.36393,-1.63742c3.65032,-2.51364 7.94306,-6.34999 11.14774,-6.02022c2.86397,0.29471 6.21919,2.29832 6.21919,2.29832c0,0 4.13696,-3.11455 7.21801,-1.99057c2.97586,1.08561 4.20193,3.4134 6.25998,5.4414c2.60587,2.56781 4.68243,4.06092 4.68243,4.06092c0,0 -0.78096,1.74942 -1.3188,3.41142z" fill="#000000"/><path d="M244.4719,353.52532c-0.70716,-0.04624 -2.87146,-2.50547 -4.8912,-2.68335c-3.16807,-0.27903 -3.76374,1.94113 -5.55331,1.88048c-5.62838,-0.19075 -11.60616,-0.75915 -11.60616,-0.75915c0,0 1.50329,-0.74362 3.23922,-1.96265c1.72698,-1.21276 3.76457,-2.73386 5.6832,-3.31598c2.70238,-0.81991 7.80934,3.07883 7.80934,3.07883c0,0 4.64047,-2.94957 6.07401,-2.87726c1.67199,0.08433 2.59866,1.48945 4.08281,2.91382c2.10285,2.01815 4.40643,3.91062 4.40643,3.91062c0,0 -4.7148,0.11087 -9.24433,-0.18536z" fill="#ffffff"/><path d="M245.11896,355.94291c5.6889,-0.87317 9.41072,-0.33943 9.41072,-0.33943c0,0 -3.08683,9.76628 -9.3832,10.81825c-6.23788,1.04221 -11.37454,0.96738 -14.88641,-0.99407c-6.71957,-3.75301 -9.09161,-11.71475 -9.09161,-11.71475c0,0 7.14481,0.22864 11.49397,1.67615c2.66237,1.07921 2.34569,4.61417 6.91879,4.71222c2.58888,0.0555 4.58773,-4.01256 5.53774,-4.15837z" fill="#ffffff"/></g></g></g></svg>