<svg version="1.1" xmlns="http://www.w3.org/2000/svg" xmlns:xlink="http://www.w3.org/1999/xlink" width="34.17311" height="34.17311" viewBox="0,0,34.17311,34.17311"><g transform="translate(-222.91345,-162.91345)"><g data-paper-data="{&quot;isPaintingLayer&quot;:true}" stroke="none" stroke-miterlimit="10" stroke-dasharray="" stroke-dashoffset="0" style="mix-blend-mode: normal"><path d="M229.98312,162.91346h20.03379c3.9166,0 7.06966,3.15307 7.06966,7.06966v20.03379c0,3.91659 -3.15306,7.06966 -7.06966,7.06966h-20.03379c-3.91659,0 -7.06966,-3.15307 -7.06966,-7.06966v-20.03379c0,-3.91659 3.15307,-7.06966 7.06966,-7.06966z" fill="#59220f" fill-rule="evenodd" stroke-width="4.43922" stroke-linecap="round" stroke-linejoin="round"/><g fill-rule="nonzero" stroke-width="0" stroke-linecap="butt" stroke-linejoin="miter"><path d="M228.60756,194.83126c0,0 -1.06831,-0.72107 -1.36569,-3.62024c-0.31809,-3.10108 0.712,-4.63715 0.712,-4.63715c0,0 5.38834,-9.26365 10.33632,-10.73928c6.38596,-1.90448 12.96811,-10.63145 12.96811,-10.63145c0,0 2.08107,-0.29501 2.25408,0.84275c0.3338,2.99413 0.32778,10.16992 0.32778,10.16992c0,0 -6.42185,4.23216 -11.94716,5.68593c-4.22451,1.11152 -13.28543,12.92953 -13.28543,12.92953z" fill="#000000"/><path d="M227.44046,184.27477c0,0 -0.3547,-1.57235 -0.62451,-2.73879c-0.17765,-0.76802 -0.46696,-1.67531 -0.54859,-3.12571c-0.06202,-1.10184 -0.10752,-2.94128 -0.10752,-2.94128c0,0 5.62329,-2.58576 21.33989,2.80627c6.84539,2.34851 5.56379,4.36518 5.56379,4.36518c0,0 -0.78819,2.16355 -0.80714,3.38812c-0.01642,1.06109 -0.31325,1.75875 -0.55427,2.65461c-0.16794,0.62424 -0.44978,2.27001 -0.44978,2.27001c0,0 -1.75617,-1.5353 -8.51109,-3.53999c-11.12974,-3.30301 -15.30078,-3.13842 -15.30078,-3.13842z" fill="#6d4321"/></g></g></g></svg>