<svg version="1.1" xmlns="http://www.w3.org/2000/svg" xmlns:xlink="http://www.w3.org/1999/xlink" width="34.17311" height="34.17311" viewBox="0,0,34.17311,34.17311"><g transform="translate(-222.91346,-162.91346)"><g data-paper-data="{&quot;isPaintingLayer&quot;:true}" stroke="none" stroke-miterlimit="10" stroke-dasharray="" stroke-dashoffset="0" style="mix-blend-mode: normal"><path d="M229.98313,162.91347h20.03379c3.9166,0 7.06966,3.15307 7.06966,7.06966v20.03379c0,3.91659 -3.15306,7.06966 -7.06966,7.06966h-20.03379c-3.91659,0 -7.06966,-3.15307 -7.06966,-7.06966v-20.03379c0,-3.91659 3.15307,-7.06966 7.06966,-7.06966z" fill="#59220f" fill-rule="evenodd" stroke-width="4.43922" stroke-linecap="round" stroke-linejoin="round"/><path d="M236.43513,182.06245c-4.20722,-6.31368 -5.33806,-14.67295 -5.33806,-14.67295c0,0 4.43653,7.54291 7.94119,12.80228c3.50467,5.25937 10.80271,15.42044 10.80271,15.42044c0,0 -9.19861,-7.23609 -13.40584,-13.54978z" fill="#000000" fill-rule="nonzero" stroke-width="0" stroke-linecap="butt" stroke-linejoin="miter"/><path d="M236.24753,180.18638c-4.20722,-6.31368 -5.90088,-14.67295 -5.90088,-14.67295c0,0 4.99935,7.54291 8.50401,12.80228c3.50467,5.25937 10.80271,16.17086 10.80271,16.17086c0,0 -9.19861,-7.98651 -13.40583,-14.3002z" fill="#6d4321" fill-rule="nonzero" stroke-width="0" stroke-linecap="butt" stroke-linejoin="miter"/></g></g></svg>