<svg version="1.1" xmlns="http://www.w3.org/2000/svg" xmlns:xlink="http://www.w3.org/1999/xlink" width="99.34027" height="257.19061" viewBox="0,0,99.34027,257.19061"><g transform="translate(-190.34155,-46.67686)"><g data-paper-data="{&quot;isPaintingLayer&quot;:true}" fill-rule="nonzero" stroke-linejoin="miter" stroke-miterlimit="10" stroke-dasharray="" stroke-dashoffset="0" style="mix-blend-mode: normal"><g stroke="none" stroke-linecap="butt"><g><g><g><path d="M200.5813,185.96094c0,-21.10292 18.15751,-38.21022 40.55593,-38.21022c22.39843,0 40.82079,17.1073 40.82079,38.21022c0,2.70002 0.0039,117.77204 0.0039,117.77204l-11.39983,-0.12964l-0.14337,-113.82486c0,0 0.46851,-2.08621 -1.77595,-2.22047c-2.48625,-0.14872 -2.11767,1.68282 -2.11767,1.68282l0.10343,114.38802l-50.32146,0.07847l0.10485,-114.20488c0,0 -0.19035,-2.13951 -1.8053,-2.16297c-2.01199,-0.02922 -1.98832,2.04221 -1.98832,2.04221l-0.29988,114.25674l-11.38239,0.22905c0,0 -0.35473,-116.42094 -0.35473,-117.90653z" fill="#000000" stroke-width="0"/><path d="M202.86649,187.26739c0,-20.02201 17.22746,-36.58913 38.47861,-36.58913c21.25115,0 38.72991,16.56711 38.72991,36.58913c0,2.56173 0.00369,114.79215 0.00369,114.79215l-7.50523,0.21307l0.19503,-111.38321c0,0 0.08238,-5.30397 -4.03353,-5.43136c-4.01424,-0.25313 -4.29562,4.92124 -4.29562,4.92124l-0.56401,112.58967l-45.42645,-0.26162l0.09948,-112.07984c0,0 0.71386,-5.00198 -3.49923,-5.04073c-4.92978,-0.04534 -4.96689,4.92616 -4.96689,4.92616l0.56795,112.12904l-7.39669,-0.11875c0,0 -0.38702,-113.84632 -0.38702,-115.25581z" fill="#ffffff" stroke-width="0"/><g fill="#000000"><path d="M230.02086,204.89621c-5.66213,0 -7.34973,-0.4705 -7.34973,-0.4705l-0.08286,-1.2733c0,0 5.25623,0.13066 7.69744,0.13066c4.20542,0 7.61458,-1.35635 7.61458,-0.87378c0,0.48257 -1.95246,2.48691 -7.87944,2.48691z" stroke-width="0"/><path d="M225.51828,199.65354c0,-0.55682 0.44467,-1.00821 0.99321,-1.00821c0.54854,0 0.99321,0.45139 0.99321,1.00821c0,0.55682 -0.44467,1.00821 -0.99321,1.00821c-0.54854,0 -0.99321,-0.45139 -0.99321,-1.00821z" stroke-width="0.5"/></g><g data-paper-data="{&quot;index&quot;:null}" fill="#000000"><path d="M244.83605,202.4093c0,-0.48257 3.40916,0.87378 7.61458,0.87378c2.44121,0 7.69744,-0.13066 7.69744,-0.13066l-0.08286,1.2733c0,0 -1.6876,0.4705 -7.34973,0.4705c-5.92698,0 -7.87944,-2.00433 -7.87944,-2.48691z" stroke-width="0"/><path d="M256.2247,200.66174c-0.54853,0 -0.99321,-0.45139 -0.99321,-1.00821c0,-0.55682 0.44467,-1.00821 0.99321,-1.00821c0.54853,0 0.99321,0.45139 0.99321,1.00821c0,0.55682 -0.44467,1.00821 -0.99321,1.00821z" stroke-width="0.5"/></g><path d="M240.38331,253.12208c0,-0.55681 0.44467,-1.00821 0.99321,-1.00821c0.54854,0 0.99321,0.45139 0.99321,1.00821c0,0.55681 -0.44467,1.00821 -0.99321,1.00821c-0.54854,0 -0.99321,-0.45139 -0.99321,-1.00821z" fill="#000000" stroke-width="0.5"/></g><path d="M217.72942,303.21657v-19.57113h47.5382v19.57113z" fill="#000000" stroke-width="0"/></g><path d="M201.72665,264.48506v-10.01325l9.82618,4.77961v10.01325c0,0 -1.73623,1.13332 -5.56843,-0.53347c-4.22046,-1.83566 -4.25775,-4.24614 -4.25775,-4.24614z" fill="#000000" stroke-width="0"/><path d="M277.05377,268.73121c-3.8322,1.66679 -5.56843,0.53347 -5.56843,0.53347v-10.01325l9.82618,-4.77961v10.01325c0,0 -0.03729,2.41048 -4.25774,4.24614z" data-paper-data="{&quot;index&quot;:null}" fill="#000000" stroke-width="0"/></g><g fill="#6d4321" stroke-width="0"><path d="M232.50272,289.86511c-15.14679,-4.87944 -17.34111,-139.49914 -17.34111,-139.49914c0,0 35.1282,-5.33877 47.11499,-1.0244c12.30932,4.43045 20.21684,24.00901 20.21684,24.00901c0,0 -8.6149,16.56554 -12.81282,36.77822c-2.13185,10.2647 -1.35632,22.64883 -1.35632,31.86737c0,21.4851 2.76987,44.36802 2.76987,44.36802c0,0 -20.94155,9.18673 -38.59144,3.50093z" data-paper-data="{&quot;index&quot;:null}"/><path d="M212.0935,286.36417c0,0 2.76987,-22.88291 2.76987,-44.36802c0,-9.21854 0.77553,-21.60266 -1.35632,-31.86737c-4.19792,-20.21268 -12.81282,-36.77822 -12.81282,-36.77822c0,0 7.90752,-19.57855 20.21684,-24.009c11.98679,-4.31437 47.11499,1.0244 47.11499,1.0244c0,0 -2.19432,134.61971 -17.34111,139.49915c-17.6499,5.6858 -38.59144,-3.50093 -38.59144,-3.50093z"/></g><g stroke-width="0"><g><g data-paper-data="{&quot;index&quot;:null}"><path d="M279.62854,261.38464c-5.55305,4.39724 -13.40076,6.56629 -13.40076,6.56629l0.68309,-94.45784l14.23462,1.74035c0,0 3.29019,1.39363 4.679,5.46671c1.61578,4.73873 -0.19643,11.72265 -0.19643,11.72265c0,0 -0.66403,15.79174 0.44786,28.23691c1.3159,14.72867 3.6059,23.84509 3.6059,23.84509l-1.77229,-1.14223c0,0 0.068,2.45026 0.33615,3.76846c0.26815,1.3182 1.09526,3.26826 1.09526,3.26826c0,0 -4.30432,6.70291 -9.7124,10.98535z" fill="#571c18"/><g><g><path d="M284.09148,195.35897c-0.0742,0.02753 -0.03574,3.09386 -3.43788,3.97361c-2.91543,0.75388 -3.51595,-1.83563 -3.5599,-1.82341c2.70396,-9.50485 5.4671,-17.61561 5.4671,-17.61561c0,0 1.21144,1.77582 1.72066,3.50806c1.29898,4.41887 -0.15792,10.93138 -0.15792,10.93138c0,0 -0.01324,0.36523 -0.03206,1.02597z" fill="#773128"/><g><path d="M285.74719,232.22503c-0.16541,0.08447 -2.41744,-1.41111 -8.04071,1.18867c-4.32319,1.99872 -5.98961,5.32632 -6.13458,5.38621c-0.09509,-7.22621 0.02814,-14.59921 0.65738,-19.82181c0.53913,-4.4747 1.84893,-10.25646 3.36158,-15.99397c0.30317,-0.07104 1.05309,2.35154 4.76964,1.62226c3.067,-0.60181 3.53911,-3.93575 3.62779,-3.96601c-0.06198,5.35258 -0.02839,13.22377 0.49537,20.02357c0.35533,4.61318 0.81273,8.47127 1.26355,11.56108z" fill="#773128"/><path d="M272.53623,261.73555c0,0 -0.58647,-7.36893 -0.85798,-17.63047c0.19042,-0.07313 2.03481,-4.74168 6.91944,-6.98946c4.1586,-1.91368 7.89963,0.34633 8.01493,0.28584c0.51358,2.6825 0.89152,4.03847 0.89152,4.03847l-2.28534,-0.40833c0,0 0.02569,3.89458 0.25407,5.49417c0.2164,1.51565 1.08219,3.86511 1.08219,3.86511c0,0 -2.57351,4.32756 -6.61205,7.44878c-3.97906,3.07526 -7.40677,3.89589 -7.40677,3.89589z" fill="#773128"/><path d="M271.71826,222.17262c-1.6939,7.93756 2.13483,-20.68712 2.13483,-20.68712c0,0 4.75072,-2.14749 3.85742,0c-3.61115,8.68124 0,12.67435 0,12.67435c0,0 -4.18015,-0.47868 -5.99225,8.01277z" fill="#571c18"/></g></g><path d="M284.56964,217.33275c-0.46558,-5.24241 0.60183,0.11727 1.21197,8.03489c0.33077,4.29237 -6.69206,-3.3889 -6.69206,-3.3889c0,0 6.24819,4.00263 5.4801,-4.64598z" data-paper-data="{&quot;index&quot;:null}" fill="#571c18"/></g></g><g><path d="M193.84671,250.39932c0,0 0.82711,-1.95006 1.09526,-3.26826c0.26815,-1.3182 0.33615,-3.76846 0.33615,-3.76846l-1.77229,1.14223c0,0 2.29,-9.11642 3.6059,-23.84509c1.11189,-12.44517 0.44786,-28.23691 0.44786,-28.23691c0,0 -1.81221,-6.98391 -0.19643,-11.72264c1.38881,-4.07308 4.679,-5.46671 4.679,-5.46671l14.23462,-1.74035l0.68309,94.45784c0,0 -7.84771,-2.16906 -13.40076,-6.56629c-5.40808,-4.28244 -9.7124,-10.98535 -9.7124,-10.98535z" fill="#571c18"/><g><g><path d="M199.06404,194.333c0,0 -1.4569,-6.51251 -0.15792,-10.93138c0.50922,-1.73224 1.72066,-3.50806 1.72066,-3.50806c0,0 2.76314,8.11076 5.4671,17.61561c-0.04395,-0.01223 -0.64447,2.57729 -3.5599,1.82341c-3.40214,-0.87975 -3.36369,-3.94608 -3.43788,-3.97361c-0.01882,-0.66074 -0.03206,-1.02597 -0.03206,-1.02597z" fill="#773128"/><g><path d="M198.70401,220.66395c0.52375,-6.7998 0.55735,-14.67099 0.49537,-20.02357c0.08867,0.03026 0.56079,3.3642 3.62779,3.96601c3.71655,0.72927 4.46648,-1.69331 4.76964,-1.62226c1.51265,5.73752 2.82244,11.51927 3.36157,15.99397c0.62924,5.2226 0.75247,12.5956 0.65738,19.82181c-0.14497,-0.05989 -1.81139,-3.3875 -6.13458,-5.38621c-5.62328,-2.59978 -7.8753,-1.10419 -8.04072,-1.18866c0.45082,-3.08981 0.90822,-6.9479 1.26355,-11.56108z" fill="#773128"/><path d="M196.63254,250.39088c0,0 0.86579,-2.34946 1.08218,-3.86511c0.22838,-1.59958 0.25407,-5.49416 0.25407,-5.49416l-2.28535,0.40833c0,0 0.37794,-1.35597 0.89152,-4.03847c0.11529,0.06048 3.85632,-2.19953 8.01492,-0.28585c4.88463,2.24779 6.72901,6.91634 6.91944,6.98947c-0.27151,10.26154 -0.1474,18.16201 -0.1474,18.16201c0,0 -3.01541,-0.38508 -7.82998,-3.98242c-6.11293,-4.56745 -6.89941,-7.89381 -6.89941,-7.89381z" fill="#773128"/><path d="M205.47711,214.15985c0,0 3.61114,-3.99311 0,-12.67435c-0.89329,-2.14749 3.85742,0 3.85742,0c0,0 3.82873,28.62468 2.13483,20.68712c-1.81211,-8.49146 -5.99225,-8.01277 -5.99225,-8.01277z" fill="#571c18"/></g></g><path d="M204.09804,221.97873c0,0 -7.02283,7.68127 -6.69206,3.3889c0.61013,-7.91762 1.67755,-13.2773 1.21196,-8.03489c-0.76809,8.64862 5.4801,4.64598 5.4801,4.64598z" data-paper-data="{&quot;index&quot;:null}" fill="#571c18"/></g></g></g><g fill="#6d4321"><path d="M232.50272,289.86511c-15.14679,-4.87944 -17.34111,-139.49914 -17.34111,-139.49914c0,0 35.1282,-5.33877 47.11499,-1.0244c12.30932,4.43045 20.21684,24.00901 20.21684,24.00901c0,0 -8.6149,16.56554 -12.81282,36.77822c-2.13185,10.2647 -1.35632,22.64883 -1.35632,31.86737c0,21.4851 2.76987,44.36802 2.76987,44.36802c0,0 -20.94155,9.18673 -38.59144,3.50093z" data-paper-data="{&quot;index&quot;:null}"/><path d="M212.0935,286.36417c0,0 2.76987,-22.88291 2.76987,-44.36802c0,-9.21854 0.77553,-21.60266 -1.35632,-31.86737c-4.19792,-20.21268 -12.81282,-36.77822 -12.81282,-36.77822c0,0 7.90752,-19.57855 20.21684,-24.009c11.98679,-4.31437 47.11499,1.0244 47.11499,1.0244c0,0 -2.19432,134.61971 -17.34111,139.49915c-17.6499,5.6858 -38.59144,-3.50093 -38.59144,-3.50093z"/></g><g><g><g fill="#59220f"><path d="M218.04933,216.82762c16.87591,0.03755 33.75182,0.0751 50.62773,0.11265c-0.52184,5.38805 -0.52808,11.01705 -0.46006,16.25367c-16.29109,0 -32.58218,0 -48.87326,0c-0.48301,-5.39305 -0.91265,-10.89346 -1.29441,-16.36632z" data-paper-data="{&quot;index&quot;:null}"/><path d="M214.49887,216.81972c16.8774,0.03755 33.75479,0.07511 50.63218,0.11266c-0.37993,5.43828 -0.80717,10.90293 -1.2871,16.26156c-16.29109,0 -32.58217,0 -48.87326,0c0.06853,-5.27569 0.06169,-10.94963 -0.47182,-16.37422z"/></g><g fill="#6d4321"><path d="M218.04933,219.05595c16.87591,0.02732 33.67,0.05464 50.54591,0.08196c-0.52184,3.92013 -0.44626,8.01558 -0.37824,11.82554c-16.29109,0 -32.58218,0 -48.87326,0c-0.48301,-3.92377 -0.91265,-7.92566 -1.29441,-11.9075z" data-paper-data="{&quot;index&quot;:null}"/><path d="M214.66252,219.0502c16.8774,0.02732 33.59115,0.05464 50.46854,0.08196c-0.37993,3.95668 -0.80717,7.93255 -1.2871,11.83128c-16.29109,0 -32.58217,0 -48.87326,0c0.06853,-3.83838 0.22534,-7.96653 -0.30818,-11.91324z"/></g><g fill="#481310"><path d="M218.04933,220.79121c16.87591,0.01935 33.75182,0.0387 50.62773,0.05806c-0.2286,1.21653 -0.35826,2.45689 -0.42607,3.69365c-9.0975,-0.01022 -18.195,-0.02044 -27.2925,-0.03066c-7.46049,-0.00839 -14.92097,-0.01677 -22.38145,-0.02515c-0.18533,-1.23082 -0.36108,-2.4647 -0.52771,-3.69589z" data-paper-data="{&quot;index&quot;:null}"/><path d="M268.21691,229.22651c-16.29109,0 -32.58218,0 -48.87326,0c-0.18643,-1.07281 -0.36489,-2.15386 -0.53573,-3.23916c7.38293,0.0083 14.76587,0.01659 22.1488,0.02489c9.07992,0.01021 18.15983,0.0204 27.23975,0.03061c-0.02087,1.07874 -0.0057,2.14614 0.02045,3.18366z" data-paper-data="{&quot;index&quot;:null}"/><path d="M214.49887,220.78714c16.8774,0.01935 33.75479,0.03871 50.63218,0.05806c-0.16679,1.23051 -0.3427,2.46364 -0.52819,3.69361c-7.88146,-0.00886 -15.76292,-0.01771 -23.64438,-0.02657c-8.67504,-0.00975 -17.35007,-0.0195 -26.0251,-0.02925c-0.06988,-1.23795 -0.20231,-2.47908 -0.43451,-3.69586z"/><path d="M263.84389,229.22651c-16.29109,0 -32.58217,0 -48.87326,0c0.02663,-1.05668 0.04188,-2.14436 0.01926,-3.24345c8.65562,0.00973 17.31122,0.01945 25.96684,0.02918c7.80494,0.00877 15.60989,0.01754 23.41483,0.02631c-0.16839,1.06809 -0.34418,2.13202 -0.52767,3.18796z"/></g></g><g><path d="M238.45748,291.70993v-100.1075h6.15409v100.10751c0,0 -1.05113,0.0651 -1.5671,0.03111c-0.50348,-0.03316 -1.49215,-0.23262 -1.49215,-0.23262c0,0 -0.87462,0.25845 -1.35433,0.28968c-0.54383,0.03541 -1.7405,-0.08818 -1.7405,-0.08818z" fill="#481310"/><g><path d="M241.59441,147.91992c17.92631,0.41525 16.48582,10.99281 16.48582,24.55311c0,13.5603 -16.48582,26.56771 -16.48582,26.56771c0,0 -16.48582,-13.0074 -16.48582,-26.56771c0,-13.56031 -1.68421,-24.974 16.48582,-24.55311z" fill="#ffffff"/><g><path d="M206.64445,160.23622c0,0 5.9425,-8.97338 12.1047,-12.25988c6.1622,-3.28651 5.01347,25.41323 7.28715,29.61172c3.31127,6.11447 15.21517,21.44528 15.21517,21.44528c0,0 -9.88164,-5.67771 -16.99491,-10.82254c-3.91807,-2.83383 -7.18668,-2.49654 -10.82406,-6.57206c-7.10995,-7.96637 -8.62354,-17.97918 -8.62354,-17.97918z" fill="#481310"/><path d="M206.64445,160.23622c0,0 5.9425,-8.97338 12.1047,-12.25988c6.1622,-3.28651 11.17357,-0.15519 11.17357,-0.15519c0,0 -4.05775,9.7519 -0.74945,27.16936c0.76226,4.01309 4.61276,7.50195 6.88644,11.70045c3.31127,6.11447 5.19176,12.34239 5.19176,12.34239c0,0 -6.92427,-6.1706 -14.03754,-11.31544c-3.91807,-2.83383 -7.50814,-3.39661 -11.14552,-7.47213c-8.58067,-9.61425 -9.42397,-20.00955 -9.42397,-20.00955z" fill="#571c18"/><path d="M226.025,176.27889c0.51853,2.91969 4.16064,4.53746 5.70731,7.59204c2.2525,4.44853 1.9975,6.83173 1.9975,6.83173c0,0 -2.97148,-3.56885 -7.8103,-7.31194c-2.66527,-2.06173 -6.33478,-2.36889 -8.80911,-5.334c-3.85534,-4.62004 -5.8607,-10.51425 -6.77797,-13.98392c0.06985,0.04182 3.76112,4.2025 7.4313,5.26178c3.62793,1.04708 7.23525,-1.00694 7.3038,-0.99303c0.17174,2.52169 0.4717,5.20206 0.95747,7.93735z" fill="#773128"/><path d="M224.93249,165.77301c-0.0735,-0.01369 -3.74126,1.83908 -7.33881,0.64722c-3.84144,-1.27266 -7.62755,-5.59618 -7.67951,-5.64399c0.35501,-0.54377 1.08808,-1.63009 2.06011,-2.87787c0.67109,4.02409 4.16925,7.09147 8.38384,7.09147c1.66173,0 3.2121,-0.47685 4.52171,-1.30118c0.00901,0.67577 0.02605,1.37146 0.05265,2.08435z" fill="#773128"/></g><g data-paper-data="{&quot;index&quot;:null}"><path d="M278.28346,163.65956c0,0 -1.51359,10.0128 -8.62354,17.97918c-3.63738,4.07552 -6.90599,3.73823 -10.82406,6.57206c-7.11327,5.14484 -16.99491,10.82254 -16.99491,10.82254c0,0 11.9039,-15.33081 15.21517,-21.44528c2.27369,-4.1985 1.12496,-32.89823 7.28715,-29.61172c6.1622,3.28651 12.1047,12.25988 12.1047,12.25988z" fill="#481310"/><path d="M267.02405,180.24581c-3.63738,4.07552 -7.22745,4.6383 -11.14552,7.47213c-7.11327,5.14484 -14.03754,11.31544 -14.03754,11.31544c0,0 1.88049,-6.22792 5.19176,-12.34239c2.27369,-4.1985 6.12418,-7.68735 6.88644,-11.70045c3.3083,-17.41746 -0.74945,-27.16936 -0.74945,-27.16936c0,0 5.01137,-3.13132 11.17357,0.15519c6.1622,3.28651 12.1047,12.25988 12.1047,12.25988c0,0 -0.8433,10.39531 -9.42397,20.00955z" fill="#571c18"/><path d="M258.02495,168.34155c0.06855,-0.01391 3.67587,2.04011 7.3038,0.99303c3.67017,-1.05928 7.36144,-5.21995 7.43129,-5.26178c-0.91727,3.46967 -2.92263,9.36389 -6.77797,13.98393c-2.47433,2.96511 -6.14384,3.27227 -8.80911,5.334c-4.83882,3.74309 -7.8103,7.31194 -7.8103,7.31194c0,0 -0.255,-2.3832 1.9975,-6.83173c1.54667,-3.05458 5.18878,-4.67235 5.70731,-7.59204c0.48577,-2.73529 0.78573,-5.41565 0.95747,-7.93735z" fill="#773128"/><path d="M258.21263,163.68866c1.30962,0.82432 2.85998,1.30118 4.52171,1.30118c4.21458,0 7.71274,-3.06737 8.38383,-7.09146c0.97204,1.24778 1.70511,2.3341 2.06011,2.87787c-0.05196,0.04781 -3.83806,4.37133 -7.67951,5.64399c-3.59754,1.19186 -7.2653,-0.66091 -7.3388,-0.64722c0.02661,-0.71289 0.04365,-1.40858 0.05265,-2.08435z" fill="#773128"/></g></g><path d="M242.20102,282.85955c-0.23922,-0.02571 -0.67536,-0.23845 -0.67536,-0.23845c0,0 -0.49301,0.16419 -0.74408,0.19148c-0.25729,0.02798 -0.78146,-0.02561 -0.78146,-0.02561v-54.37362c1.01987,0.44463 2.04207,0.88213 3.06883,1.3057v53.06792c0,0 -0.59674,0.10174 -0.86793,0.07259z" fill="#571c18"/><path d="M240.00011,221.48673c1.01919,0.4173 2.04157,0.8237 3.06883,1.21334v2.55662c-1.02535,-0.41413 -2.04804,-0.83546 -3.06883,-1.26168z" fill="#571c18"/><path d="M240.00011,203.50712c0.40051,0.21003 0.8516,0.32806 1.32871,0.32806c0.64873,0 1.24937,-0.21823 1.74012,-0.5892v14.95496c-1.02558,-0.367 -2.04863,-0.74106 -3.06883,-1.12254z" fill="#571c18"/></g><g><path d="M217.08855,210.72622c-1.10864,-5.73589 -2.77653,-11.40761 -4.56354,-16.52849c0.08178,0.05635 5.18888,0.00964 10.77471,2.0574c6.02211,2.20772 12.55768,6.52047 12.71647,6.54656c0.01477,2.8657 0.0352,6.8187 0.05428,10.46804c-6.18649,-0.01386 -12.37297,-0.02772 -18.55945,-0.04157c-0.12371,-0.84638 -0.26387,-1.68138 -0.42247,-2.50194z" fill="#8d6e47"/><path d="M203.6594,173.52719l0.92748,-2.79166c0,0 0.86586,5.08647 8.72285,12.69655c2.16709,2.09899 7.06123,4.0966 10.99214,6.68193c6.27552,4.12735 11.69325,8.591 11.69325,8.591c0,0 0.00503,0.98273 0.01311,2.55286c-0.15517,-0.02591 -6.67256,-5.5613 -12.92849,-8.01262c-5.78726,-2.26767 -11.35078,-1.46336 -11.44679,-1.53448c-3.88039,-10.53527 -7.97354,-18.18358 -7.97354,-18.18358z" fill="#8d6e47"/><path d="M217.13621,213.84367c0,0 -2.36621,-4.87275 -2.00011,-8.11322c0.3661,-3.24047 3.38747,-4.1669 3.38747,-4.1669c0,0 -4.84325,5.64335 7.40823,11.99066c5.41353,2.80467 -8.79559,0.28946 -8.79559,0.28946z" fill="#6d4321"/><g><path d="M265.53668,213.22816c-6.18649,0.01386 -12.37297,0.02772 -18.55946,0.04157c0.01908,-3.64934 0.03951,-7.60234 0.05428,-10.46804c0.15879,-0.02609 6.69436,-4.33884 12.71647,-6.54656c5.58583,-2.04777 10.69293,-2.00105 10.77471,-2.0574c-1.78701,5.12088 -3.4549,10.7926 -4.56354,16.52849c-0.1586,0.82056 -0.29876,1.65556 -0.42246,2.50194z" data-paper-data="{&quot;index&quot;:null}" fill="#8d6e47"/><path d="M271.41481,191.71077c-0.09602,0.07112 -5.65953,-0.73319 -11.4468,1.53448c-6.25593,2.45131 -12.77333,7.9867 -12.92849,8.01262c0.00808,-1.57013 0.01311,-2.55286 0.01311,-2.55286c0,0 5.41774,-4.46365 11.69326,-8.591c3.93091,-2.58533 8.82504,-4.58294 10.99213,-6.68193c7.85699,-7.61008 8.72285,-12.69655 8.72285,-12.69655l0.92748,2.79166c0,0 -4.09314,7.64831 -7.97353,18.18358z" data-paper-data="{&quot;index&quot;:null}" fill="#8d6e47"/><path d="M257.11591,213.55421c12.25147,-6.34731 7.40823,-11.99066 7.40823,-11.99066c0,0 3.02138,0.92643 3.38747,4.1669c0.36609,3.24047 -2.00011,8.11322 -2.00011,8.11322c0,0 -14.20912,2.51521 -8.79559,-0.28946z" data-paper-data="{&quot;index&quot;:null}" fill="#6d4321"/></g></g><g><g fill="#8d6e47"><path d="M216.24158,282.35262c0,0 1.84002,-17.57511 2.30895,-36.45298c0.00651,0.00146 3.39004,3.44672 7.13486,4.10662c4.35312,0.76709 9.16518,-1.23426 9.27075,-1.22011c-0.02166,11.53659 -0.04615,28.36026 -0.02943,38.78946c-10.24345,-0.94139 -18.68513,-5.22298 -18.68513,-5.22298z"/><path d="M218.65824,237.59642c0,-0.45889 0.00456,-1.39934 0.00456,-1.39934l16.31986,-0.00216l-0.01743,7.94287c0,0 -4.94352,2.28359 -9.10872,1.19642c-4.68878,-1.22384 -7.21471,-4.58381 -7.21471,-4.58381c0,0 0.01644,-2.10502 0.01644,-3.15397z"/></g><g fill="#6d4321"><path d="M226.54791,256.27441c0,0 -8.03063,-4.86836 -8.99521,2.99077c-0.50773,4.13682 0.57945,-10.66386 0.57945,-10.66386z"/><path d="M226.59124,252.32185c0,0 8.03063,4.86836 8.99521,-2.99077c0.50772,-4.13681 -0.57945,10.66386 -0.57945,10.66386z" data-paper-data="{&quot;index&quot;:null}"/></g></g><g data-paper-data="{&quot;index&quot;:null}"><g fill="#8d6e47"><path d="M248.261,287.57561c0.01673,-10.4292 -0.00777,-27.25288 -0.02943,-38.78946c0.10557,-0.01415 4.91763,1.9872 9.27075,1.22011c3.74482,-0.6599 7.12835,-4.10515 7.13486,-4.10662c0.46893,18.87788 2.30895,36.45298 2.30895,36.45298c0,0 -8.44168,4.2816 -18.68513,5.22298z"/><path d="M264.5458,240.75039c0,0 -2.52593,3.35997 -7.21471,4.58381c-4.1652,1.08718 -9.10872,-1.19642 -9.10872,-1.19642l-0.01743,-7.94287l16.31986,0.00216c0,0 0.00456,0.94046 0.00456,1.39934c0,1.04895 0.01644,3.15397 0.01644,3.15397z"/></g><g fill="#6d4321"><path d="M265.05548,248.60132c0,0 1.08718,14.80067 0.57945,10.66386c-0.96458,-7.85913 -8.99521,-2.99077 -8.99521,-2.99077z"/><path d="M248.18071,259.99494c0,0 -1.08718,-14.80067 -0.57946,-10.66386c0.96458,7.85913 8.99521,2.99077 8.99521,2.99077z" data-paper-data="{&quot;index&quot;:null}"/></g></g></g></g></g><path d="" fill="#000000" stroke="none" stroke-width="NaN" stroke-linecap="butt"/><path d="" fill="#ffffff" stroke="none" stroke-width="0" stroke-linecap="butt"/><g stroke="none" stroke-width="0" stroke-linecap="butt"><path d="" fill="#000000"/><path d="" fill="#ffffff"/></g><g stroke="none" stroke-width="0" stroke-linecap="butt"><path d="" fill="#000000"/><path d="" fill="#ffffff"/></g><path d="" fill="#000000" stroke="none" stroke-width="0" stroke-linecap="butt"/><path d="" fill="#000000" stroke="none" stroke-width="0" stroke-linecap="butt"/><g stroke="none" stroke-width="0" stroke-linecap="butt"><path d="" fill="#000000"/><path d="" fill="#ffffff"/></g><g stroke="none" stroke-width="0" stroke-linecap="butt"><path d="" data-paper-data="{&quot;index&quot;:null}" fill="#000000"/><path d="" data-paper-data="{&quot;index&quot;:null}" fill="#ffffff"/></g><path d="" fill-opacity="0.00806" fill="#000000" stroke="#000000" stroke-width="0" stroke-linecap="butt"/><g fill="#000000" stroke="none" stroke-linecap="butt"><path d="" stroke-width="0"/><path d="" stroke-width="0"/><g><path d="" stroke-width="0"/><path d="" stroke-width="0.5"/></g><g data-paper-data="{&quot;index&quot;:null}"><path d="" stroke-width="0"/><path d="" stroke-width="0.5"/></g><path d="" stroke-width="0.5"/></g><path d="" fill="#000000" stroke="none" stroke-width="NaN" stroke-linecap="butt"/><g data-paper-data="{&quot;index&quot;:null}" stroke="none" stroke-width="0" stroke-linecap="butt"><path d="" fill="#53305f"/><path d="" fill="#3d496d"/><path d="" fill="#566580"/><path d="" fill="#566580"/><path d="" fill="#654779"/><path d="" fill="#654779"/></g><path d="" fill="#53305f" stroke="none" stroke-width="0" stroke-linecap="butt"/><path d="" fill="#3d496d" stroke="none" stroke-width="0" stroke-linecap="butt"/><path d="" fill="#000000" stroke="none" stroke-width="NaN" stroke-linecap="butt"/><g><path d="" fill="#000000" stroke="none" stroke-width="0" stroke-linecap="butt"/><path d="" fill="#ffffff" stroke="none" stroke-width="0" stroke-linecap="butt"/><path d="" fill="none" stroke="#000000" stroke-width="0.5" stroke-linecap="round"/></g><g data-paper-data="{&quot;index&quot;:null}"><path d="" fill="#000000" stroke="none" stroke-width="0" stroke-linecap="butt"/><path d="" fill="none" stroke="#000000" stroke-width="0.5" stroke-linecap="round"/></g><path d="" fill="#000000" stroke="none" stroke-width="0" stroke-linecap="butt"/><path d="" fill="#000000" stroke="none" stroke-width="0" stroke-linecap="butt"/><path d="" data-paper-data="{&quot;index&quot;:null}" fill="#000000" stroke="none" stroke-width="0" stroke-linecap="butt"/><g stroke="none" stroke-width="0" stroke-linecap="butt"><path d="" fill="#566580"/><path d="" fill="#3d496d"/><path d="" fill="#3d496d"/><path d="" fill="#2c2f5d"/><path d="" fill="#2c2f5d"/></g><g data-paper-data="{&quot;index&quot;:null}" stroke="none" stroke-width="0" stroke-linecap="butt"><path d="" fill="#566580"/><path d="" fill="#3d496d"/><path d="" fill="#3d496d"/><path d="" fill="#2c2f5d"/><path d="" fill="#2c2f5d"/></g><path d="" fill-opacity="0.19355" fill="#000000" stroke="none" stroke-width="0" stroke-linecap="butt"/><path d="" fill="#ffffff" stroke="none" stroke-width="0" stroke-linecap="butt"/><path d="" fill-opacity="0.19355" fill="#000000" stroke="none" stroke-width="0" stroke-linecap="butt"/><path d="" fill-opacity="0.19355" fill="#000000" stroke="none" stroke-width="0" stroke-linecap="butt"/><path d="" fill-opacity="0.19355" fill="#000000" stroke="none" stroke-width="0" stroke-linecap="butt"/><g stroke="none" stroke-width="0" stroke-linecap="butt"><path d="" fill="#000000"/><path d="" fill="#ffffff"/></g><g stroke="none" stroke-width="0" stroke-linecap="butt"><path d="" fill="#000000"/><path d="" fill="#ffffff"/></g><path d="" fill="#000000" stroke="none" stroke-width="0" stroke-linecap="butt"/><g stroke="none" stroke-linecap="butt"><path d="" fill="#000000" stroke-width="NaN"/><path d="" fill="#ffffff" stroke-width="0"/><path d="" fill="#ffffff" stroke-width="0"/></g><path d="" fill="#000000" stroke="none" stroke-width="0" stroke-linecap="butt"/><path d="" fill="#000000" stroke="none" stroke-width="0" stroke-linecap="butt"/><g stroke="none" stroke-width="0" stroke-linecap="butt"><path d="" fill="#000000"/><path d="" fill="#ffffff"/><path d="" fill="#ffffff"/></g><path d="" fill="#000000" stroke="none" stroke-width="0" stroke-linecap="butt"/><g stroke="none" stroke-width="0" stroke-linecap="butt"><path d="" data-paper-data="{&quot;index&quot;:null}" fill="#000000"/><path d="" data-paper-data="{&quot;index&quot;:null}" fill="#000000"/><path d="" data-paper-data="{&quot;index&quot;:null}" fill="#ffffff"/></g><path d="" data-paper-data="{&quot;index&quot;:null}" fill="#000000" stroke="none" stroke-width="0" stroke-linecap="butt"/><path d="" data-paper-data="{&quot;index&quot;:null}" fill-opacity="0.35484" fill="#000000" stroke="none" stroke-width="0" stroke-linecap="butt"/><path d="" fill="#566580" stroke="none" stroke-width="0" stroke-linecap="butt"/><path d="" fill="#566580" stroke="none" stroke-width="0" stroke-linecap="butt"/><path d="" fill="#654779" stroke="none" stroke-width="0" stroke-linecap="butt"/><path d="" fill="#654779" stroke="none" stroke-width="0" stroke-linecap="butt"/><path d="" fill="#ffffff" stroke="none" stroke-width="0" stroke-linecap="butt"/><path d="" fill="#ffffff" stroke="none" stroke-width="0" stroke-linecap="butt"/><g stroke="none" stroke-linecap="butt"><g fill="#000000"><path d="M280.86159,105.8455c0.40298,1.5635 0.19082,3.65002 0.3907,5.27675c0.33838,2.75408 0.92874,4.75252 0.92874,4.75252c0,0 -1.72601,0.22781 -3.09732,-0.75726l0.97102,9.23533c0,0 -1.28669,-1.12145 -2.09714,-2.03174c-0.06111,0.50769 -0.08923,1.01409 -0.04536,1.42682c0.35299,3.32141 2.06359,5.54509 2.06359,5.54509c0,0 -2.41494,0.40942 -4.18347,-0.71605c-0.07607,1.04473 -0.28295,4.42856 -1.80834,6.78305c-1.60818,2.48229 -6.37807,5.21809 -6.37807,5.21809c0,0 -18.5234,-17.42188 -19.23399,-35.71045c-0.71059,-18.28857 12.15731,-34.48597 16.48226,-35.11074c10.0515,-1.45202 18.01548,25.81457 18.01548,25.81457c0,0 -2.4825,0.05187 -4.07045,-1.28154c0.3167,1.22897 0.92867,3.42052 1.49736,4.40869c0.71071,1.23497 2.8986,2.72918 2.8986,2.72918c0,0 -1.78394,0.57731 -3.4333,0.5454c0.29196,0.91915 0.66695,2.1932 1.09972,3.87227z" data-paper-data="{&quot;index&quot;:null}" stroke-width="NaN"/><path d="M194.77057,96.44956c0,0 1.33741,1.5181 0.65985,1.72075c-1.85928,0.55609 -4.86421,-0.70935 -4.86421,-0.70935c0,0 2.30762,-1.30168 3.12131,-2.47137c0.93117,-1.33856 2.161,-5.1219 2.161,-5.1219c0,0 1.31919,-2.05947 1.15091,-1.32058c-0.82407,3.61819 -5.60821,3.10679 -5.60821,3.10679c0,0 1.25731,-2.08843 1.55265,-6.31199c0.14822,-2.11954 -1.30973,-5.85139 -0.54753,-7.96577c1.82765,-5.06995 5.27973,-7.9673 5.27973,-7.9673c0,0 -0.86507,-3.51472 2.12152,-9.2016c1.23781,-2.35696 3.23459,-2.69266 4.71889,-3.84502c2.66975,-2.07271 4.67451,-3.84103 4.67451,-3.84103c0,0 0.53224,3.12603 -0.37554,4.43778c-0.41286,0.5966 -1.25447,-0.17265 -1.25447,-0.17265c0,0 6.27062,-5.91614 10.84056,-7.44973c1.87068,-0.62777 7.87625,-0.51264 13.25611,-1.05959c4.2023,-0.42724 8.23266,-1.60013 8.23266,-1.60013l-2.03852,2.487c0,0 11.9917,-3.87085 18.93976,-1.197c2.9342,1.12918 4.86053,4.31246 7.51844,7.08383c3.63588,3.79108 7.57636,7.21081 7.57636,7.21081c0,0 -3.54324,3.77343 -6.72848,1.32538c-0.69875,-0.53704 1.54489,-2.37791 1.54489,-2.37791c0,0 9.60618,4.4262 11.29224,19.32058c0.86855,7.67262 -1.83133,7.23569 -3.00164,16.04865c-1.39245,10.48588 -1.41571,29.75531 -1.76645,31.36512c-1.83417,8.41847 -8.28625,16.09698 -8.28625,16.09698l-1.06866,-3.09716c0,0 -0.34935,1.528 -1.69339,3.13132c-1.49007,1.7775 -4.18839,3.39259 -4.18839,3.39259l0.15997,-3.65922c0,0 -4.94325,5.83705 -11.54857,8.71582c-6.3687,2.77564 -12.17009,2.05088 -14.91399,1.88244c-14.42368,-0.88537 -24.13917,-12.098 -24.13917,-12.098l-1.70865,1.66701c0,0 -6.63843,-4.43248 -8.53356,-9.70803c-2.81199,-7.82785 -1.25943,-12.53127 -1.25943,-12.53127c0,0 1.42356,1.52577 0.86037,2.3028c-1.76339,2.43301 -5.51568,1.46073 -5.51568,1.46073c0,0 1.89443,-2.06929 2.53009,-5.34836c0.26526,-1.36831 -0.18786,-3.85847 -0.18786,-3.85847c0,0 1.2623,0.86809 0.9657,1.59792c-0.29661,0.72982 -2.96419,2.68008 -2.96419,2.68008l1.92103,-9.96971c0,0 0.63837,0.27846 0.13306,0.65333c-1.50398,1.11575 -3.44778,0.68755 -3.44778,0.68755c0,0 0.75904,-1.94064 1.33164,-4.65572c0.3382,-1.60368 0.30521,-3.7007 0.84039,-5.22403c1.40329,-3.99432 2.25703,-5.61241 2.25703,-5.61241z" stroke-width="NaN"/></g><path d="M211.06361,137.43877c-0.83953,-6.75793 0.09084,-6.94435 -0.48802,-13.47701c-0.31959,-3.60675 -1.8484,-7.27484 -2.25321,-11.23893c-0.85254,-8.34845 -0.17291,-25.69069 0.78282,-29.39367c5.30335,-20.54776 16.44041,-24.2849 30.91906,-24.18349c20.78857,0.14561 24.24006,13.53459 26.3866,24.94207c1.50043,7.97385 0.41642,18.96242 -1.57129,28.53006c-1.21743,5.85991 -2.93547,10.69242 -4.13187,15.42421c-1.47668,5.84032 -1.08375,7.72115 -2.403,12.57808c-1.37065,5.04621 -7.28804,10.50825 -12.49869,15.31663c-4.76411,4.39631 -8.25737,7.98464 -12.72323,7.68625c-5.03467,-0.3364 -8.68734,-6.60406 -13.95584,-13.05298c-4.1741,-5.10932 -7.62821,-9.62841 -8.06336,-13.13121z" fill="#000000" stroke-width="0"/><path d="M248.10204,128.99444c3.17827,4.03576 9.47884,6.82355 9.18264,8.02321c-1.7544,7.10556 -2.20533,7.1477 -4.70654,10.02663c-2.71057,3.11989 -6.47761,5.88052 -9.48544,8.51269c-2.72663,2.38608 -5.73883,5.97308 -9.03688,5.83184c-4.10056,-0.17561 -6.73632,-4.08195 -9.75178,-7.83982c-4.55411,-5.67532 -11.11283,-8.39889 -12.26812,-18.34829c-0.17179,-1.47943 7.57285,-4.23394 12.5241,-9.2265c1.65448,-1.66829 3.05075,-3.54382 4.19159,-5.34264c4.92176,0.37432 9.84154,0.77438 14.76171,1.16956c1.22014,2.3135 2.76147,4.87306 4.58874,7.19333z" fill="#ffffff" stroke-width="0"/><g fill="#000000" stroke-width="0"><path d="M223.46517,100.02344c5.63619,0.24137 10.0139,4.90492 9.77787,10.41633c-0.23603,5.51141 -5.18304,9.52867 -10.81925,9.2873c-5.6362,-0.24137 -10.12852,-4.66288 -9.89249,-10.17429c0.23603,-5.5114 5.29766,-9.77071 10.93387,-9.52934z"/><path d="M223.45429,100.27758c4.97066,0.21287 8.6156,4.22909 8.40396,9.17117c-0.21165,4.94208 -4.39599,8.90781 -9.36665,8.69494c-4.97067,-0.21287 -8.63237,-4.36103 -8.42073,-9.30311c0.21165,-4.94209 4.41275,-8.77587 9.38341,-8.563z"/></g><path d="M252.74483,98.28732c-6.52897,-0.30628 -12.02657,1.99558 -12.02657,1.99558l-0.07257,-4.42955c0,0 5.35378,-1.50649 9.46939,-1.46567c4.1156,0.04082 7.09042,0.96446 7.09042,0.96446l0.14381,1.21145l7.28872,2.48098l0.06082,1.64181c0,0 -5.77539,-2.1092 -11.95402,-2.39904z" data-paper-data="{&quot;index&quot;:null}" fill="#000000" stroke-width="0"/><g stroke-width="0"><path d="M232.78699,131.66031c0,0 0.30861,-8.68154 0.24946,-12.38858c-0.04751,-2.97765 -0.57719,-8.14882 -0.57719,-8.14882c0,0 -0.26457,-1.58585 0.09138,-1.56031c1.13413,0.08139 7.73174,2.1217 7.73174,2.1217l-1.24421,20.24371c0,0 0.73818,1.97107 0.56951,3.72674c-0.12598,1.31134 -1.17502,4.65691 -1.26815,5.62625c-0.20494,2.13316 -0.57198,3.87241 -0.57198,3.87241l-4.13595,-0.19162c0,0 -0.03854,-2.01878 -0.68905,-4.30292c-0.62612,-2.19849 -1.91908,-4.64189 -1.94394,-5.67761c-0.07189,-2.99432 1.78837,-3.32097 1.78837,-3.32097z" fill="#000000"/><path d="M234.62155,144.02807c0,0 -0.12789,-3.81252 -0.14431,-8.25444c-0.01631,-4.41133 0.09064,-9.70609 -0.01866,-13.31395c-0.04497,-1.48438 -0.13864,-3.24465 -0.25322,-5.04344c1.53335,0.07849 3.06689,0.15331 4.60061,0.22442l-1.69726,26.45338z" fill="#ffffff"/><path d="M232.68109,132.83486c0.34369,0.01472 0.41799,4.7977 0.41799,4.7977c0,0 -1.17647,-1.64459 -1.12802,-2.77591c0.04845,-1.13132 0.36634,-2.03651 0.71003,-2.02179z" fill="#ffffff"/></g><g stroke-width="0"><g><path d="M220.26881,103.99291c2.71094,0.1161 4.81317,2.43824 4.69547,5.18664c-0.1177,2.7484 -2.41076,4.8823 -5.12171,4.76621c-2.71094,-0.1161 -4.81318,-2.43823 -4.69547,-5.18663c0.1177,-2.7484 2.41076,-4.88231 5.12171,-4.76622z" fill="#773128"/><path d="M220.21651,105.21402c2.04573,0.08761 3.63213,1.83995 3.54331,3.91396c-0.08882,2.07401 -1.81922,3.6843 -3.86496,3.59669c-2.04573,-0.08761 -3.63213,-1.83995 -3.54331,-3.91395c0.08882,-2.07401 1.81921,-3.68431 3.86496,-3.5967z" fill="#000000"/></g><g><path d="M220.17241,106.24378c1.48476,0.06359 2.63615,1.33541 2.57168,2.84069c-0.06446,1.50528 -1.32036,2.67401 -2.80513,2.61042c-1.48476,-0.06359 -2.63615,-1.3354 -2.57168,-2.84068c0.06446,-1.50528 1.32036,-2.67402 2.80513,-2.61043z" fill="#773128"/><path d="M220.14377,106.91258c1.12043,0.04798 1.98929,1.00773 1.94065,2.14366c-0.04865,1.13592 -0.99638,2.01786 -2.11681,1.96987c-1.12043,-0.04798 -1.9893,-1.00772 -1.94065,-2.14364c0.04865,-1.13592 0.99637,-2.01788 2.11681,-1.96989z" fill="#000000"/></g><g><path d="M220.12012,107.46488c0.81956,0.0351 1.4551,0.73712 1.41952,1.56801c-0.03558,0.83088 -0.72881,1.476 -1.54838,1.4409c-0.81956,-0.0351 -1.45509,-0.73712 -1.41951,-1.568c0.03558,-0.83088 0.72881,-1.47601 1.54837,-1.44091z" fill="#773128"/><path d="M220.10431,107.83404c0.61845,0.02649 1.09806,0.55625 1.0712,1.18326c-0.02685,0.62701 -0.54998,1.11382 -1.16844,1.08733c-0.61845,-0.02649 -1.09806,-0.55624 -1.0712,-1.18325c0.02685,-0.62701 0.54998,-1.11383 1.16844,-1.08734z" fill="#000000"/></g></g><path d="M211.5597,109.57726c0,0 -0.07101,-2.22796 1.00655,-4.55767c1.28945,-2.78782 4.22521,-6.75477 10.28689,-6.52729c4.40926,0.16547 6.66401,2.78069 8.12371,4.72486c2.39706,3.19262 2.10003,7.63698 2.10003,7.63698c0,0 -3.67579,-3.27678 -12.36123,-4.02528c-3.17462,-0.27358 -9.15595,2.7484 -9.15595,2.7484z" fill="#000000" stroke-width="0"/><g><g><g stroke-width="0"><g fill="#773128"><path d="M255.93554,152.7052c-2.01648,2.69579 -3.80429,2.94894 -8.36309,5.25267c-3.92256,1.9822 -8.05215,6.64367 -14.87277,6.4437c-6.82063,-0.19997 -11.05553,-40.73732 -11.05553,-40.73732c0,0 33.76991,-0.52988 39.17156,1.46171c5.40165,1.99159 -2.68865,14.5048 -2.68865,14.5048c0,0 2.95255,6.19742 -2.19153,13.07445z" data-paper-data="{&quot;index&quot;:null}"/><path d="M211.18274,137.62035c0,0 -6.99088,-13.15906 -1.43872,-14.68155c5.55215,-1.52249 43.11067,1.73717 43.11067,1.73717c0,0 -9.93541,39.36093 -18.45541,39.79839c-5.10229,0.26197 -10.00371,-4.57226 -14.37435,-8.02603c-3.19241,-2.5227 -6.37972,-3.36939 -7.77648,-5.61403c-4.5373,-7.29163 -1.06572,-13.21394 -1.06572,-13.21394z"/></g><g fill="#894939"><path d="M212.8932,125.60596c4.8439,-1.32827 37.61139,1.51557 37.61139,1.51557c0,0 -10.05481,1.68687 -13.78073,11.26592c-2.89422,7.44082 0.9292,23.28884 -2.32046,23.4557c-3.36063,0.17255 -6.62137,-2.18899 -9.65837,-4.65328c0.00008,-0.00007 2.49196,-0.48997 4.38908,-6.62879c1.76242,-5.70292 1.74324,-13.21789 -5.75657,-19.62063c-6.9005,-5.8911 -12.35995,-3.74666 -12.35995,-3.74666c0,0 0.44916,-1.19669 1.87563,-1.58784z"/></g><g data-paper-data="{&quot;index&quot;:null}" fill="#894939"><path d="M259.30864,129.26189c0,0 -5.25612,-2.60334 -12.63501,2.67624c-8.01975,5.73811 -8.68134,13.22393 -7.41294,19.05664c1.36535,6.27854 3.80621,6.97968 3.80629,6.97976c-3.23658,2.19562 -6.68727,4.26974 -10.02083,3.81051c-3.99074,-0.54976 0.04816,-13.33001 -2.32389,-22.84097c-2.01058,-8.06157 -10.74988,-13.13008 -10.74988,-13.13008c0,0 32.89064,-0.03203 37.60325,1.70552c1.38781,0.51168 1.73301,1.74238 1.73301,1.74238z"/></g></g><g><g><path d="M264.55724,147.24119c-2.70188,7.33605 -10.0002,11.84891 -16.30126,10.07975c-6.30106,-1.76916 -9.21878,-9.1504 -6.51691,-16.48644c2.70188,-7.33605 10.0002,-11.84891 16.30126,-10.07975c6.30106,1.76916 9.21879,9.1504 6.51692,16.48644z" fill="#59220f" stroke-width="0"/><g><path d="M265.50244,148.23903c-2.27436,7.26383 -8.75039,11.97152 -14.4646,10.51488c-5.71422,-1.45662 -8.50277,-8.52596 -6.22841,-15.7898c2.27436,-7.26383 8.75039,-11.97152 14.4646,-10.51488c5.71421,1.45662 8.50277,8.52596 6.22841,15.7898z" fill="#6d4321" stroke-width="0"/><g fill="#8d6e47" stroke-width="0"><path d="M246.45498,140.30873c0.11439,-0.00624 0.56164,3.49103 9.51486,2.96991c8.29049,-0.48254 8.58454,-5.36934 8.6495,-5.38694c1.31846,2.81276 1.55343,6.48963 0.38529,10.2204c-2.16491,6.91424 -8.32925,11.39537 -13.76846,10.00884c-5.43921,-1.38652 -8.09356,-8.11563 -5.92865,-15.02988c0.3067,-0.97953 0.69367,-1.91023 1.14747,-2.78232z"/><path d="M263.54481,136.10234c-0.01886,0.00468 0.38251,4.07407 -6.91432,4.69092c-8.65974,0.73207 -8.57563,-2.89328 -8.6462,-2.89052c2.90426,-3.78537 7.18495,-5.8164 11.09156,-4.82055c1.83117,0.46679 3.34669,1.5391 4.46896,3.02016z"/></g><g><path d="M247.38654,142.08883c2.79878,0.41857 5.61146,0.8259 8.29444,1.16656c2.71791,0.3451 5.66637,0.55515 8.3883,0.91334c-0.0455,1.14978 -0.24876,2.34438 -0.62489,3.54562c-0.20825,0.66512 -0.75074,1.91077 -0.75074,1.91077l-16.45684,-2.40273c0,0 0.23426,-2.46678 0.63093,-3.73362c0.15067,-0.48119 0.32434,-0.94837 0.51879,-1.39991z" fill="#000000" stroke-width="0"/><path d="M246.59903,150.44487c3.89383,0.60355 13.06042,1.96583 14.19011,2.13485c-2.4267,2.86247 -5.82033,4.35107 -8.93196,3.55787c-2.64617,-0.67455 -4.50914,-2.8516 -5.25817,-5.69272z" fill="#000000" stroke-width="0"/><path d="M263.79882,141.10785c-3.38106,-0.47036 -9.14391,-1.71345 -14.21337,-2.55762c2.42224,-2.8146 5.78444,-4.27109 8.86944,-3.48468c2.7537,0.70195 4.65925,3.03102 5.34393,6.0423z" fill="#000000" stroke-width="0"/><g fill="none" stroke-width="1" font-family="sans-serif" font-weight="normal" font-size="12" text-anchor="start"/></g></g></g><g data-paper-data="{&quot;index&quot;:null}"><path d="M212.028,128.78424c6.42925,-1.22398 13.31501,3.89633 15.37981,11.43651c2.0648,7.54018 -1.47329,14.64494 -7.90254,15.86892c-6.42925,1.22398 -13.31502,-3.89632 -15.37982,-11.43651c-2.0648,-7.54018 1.4733,-14.64494 7.90255,-15.86892z" fill="#59220f" stroke-width="0"/><g><path d="M210.65391,130.36704c5.81783,-0.96276 11.86766,4.28134 13.51268,11.71302c1.64502,7.43168 -1.73771,14.23674 -7.55554,15.1995c-5.81783,0.96276 -11.86766,-4.28134 -13.51268,-11.71302c-1.64502,-7.43168 1.73771,-14.23674 7.55554,-15.1995z" fill="#6d4321" stroke-width="0"/><g fill="#8d6e47" stroke-width="0"><path d="M223.65961,142.16398c1.56585,7.07401 -1.65407,13.55156 -7.19191,14.46799c-5.53783,0.91643 -11.29651,-4.0753 -12.86236,-11.14931c-0.8449,-3.81698 -0.29644,-7.4603 1.25766,-10.15004c0.06321,0.02311 -0.06161,4.91715 8.15728,6.1067c8.87589,1.28465 9.62051,-2.16158 9.73394,-2.14558c0.37758,0.90771 0.68356,1.86808 0.90539,2.87024z"/><path d="M210.79726,131.01462c3.97745,-0.65821 8.06882,1.73135 10.63883,5.75116c-0.07007,-0.00878 -0.29622,3.61049 -8.86167,2.14074c-7.21736,-1.23843 -6.46957,-5.2586 -6.48797,-5.26488c1.24478,-1.37968 2.84643,-2.31851 4.7108,-2.62703z"/></g><g><path d="M222.07112,142.42684c0.28691,1.29613 0.30941,3.77389 0.30941,3.77389l-16.602,0.98698c0,0 -0.43401,-1.28747 -0.58464,-1.96796c-0.27204,-1.22901 -0.37244,-2.43661 -0.31946,-3.58606c2.74259,-0.12417 5.69821,-0.08138 8.43568,-0.19285c2.70228,-0.11003 5.53948,-0.2754 8.3638,-0.45316c0.15513,0.46651 0.28823,0.94684 0.39721,1.43914z" fill="#000000" stroke-width="0"/><path d="M216.01857,154.60274c-3.16805,0.52426 -6.42199,-1.24901 -8.59508,-4.30848c1.14001,-0.07182 10.38949,-0.64541 14.32067,-0.91386c-0.98918,2.76668 -3.03145,4.77649 -5.72561,5.22234z" fill="#000000" stroke-width="0"/><path d="M211.24644,133.04385c3.14095,-0.51978 6.3663,1.21883 8.53905,4.23021c-5.12306,0.40767 -10.97109,1.15352 -14.37999,1.3331c0.93962,-2.94172 3.03731,-5.09934 5.84094,-5.5633z" fill="#000000" stroke-width="0"/><g fill="none" stroke-width="1" font-family="sans-serif" font-weight="normal" font-size="12" text-anchor="start"/></g></g></g></g></g><g stroke-width="0"><g><g fill="#6d4321"><path d="M207.65418,127.97872c-1.31045,-1.86274 -4.3748,-8.99289 -5.22357,-16.75266c0.96648,0.01013 5.35423,3.54052 11.15581,4.62908c2.33733,0.43856 -3.36104,-2.89293 -3.36104,-2.89293c0,0 6.49052,2.25811 9.76813,2.80101c3.09266,0.51226 9.37495,0.36982 9.37495,0.36982l-2.36714,-2.70737c0,0 2.77258,-2.17508 3.80631,-6.47459c1.45769,-6.06287 1.34191,-14.93882 1.50483,-15.62383c0.74697,0.0597 1.51323,0.1224 2.29927,0.18777c32.17837,2.676 27.78268,30.80775 27.78268,30.80775l-0.1824,4.25926c0,0 -24.2984,-3.37644 -39.99253,-3.04596c-10.88465,0.22919 -14.45647,4.59734 -14.56529,4.44267z"/><path d="M248.46348,124.65996c-15.60842,-1.671 -40.10651,-0.3843 -40.10651,-0.3843l0.17407,-4.06454c3.40804,-0.3816 6.74218,-0.44238 9.87815,-2.11045c4.47055,-2.37796 11.2068,1.8607 13.82931,-2.31944c1.97171,-3.14281 -0.13628,-14.44778 0.4598,-18.22001c0.29477,-1.86539 0.22367,-3.69568 0.42734,-5.55264c1.77838,-0.20846 3.68484,-0.31723 5.72856,-0.31185c24.74367,0.06504 29.84328,1.08988 30.95128,13.80435c0.91584,10.50933 -5.20511,22.44401 -7.20986,24.83056c-0.12165,0.14482 -3.30693,-4.51271 -14.13214,-5.67164z" data-paper-data="{&quot;index&quot;:null}"/></g><g fill="#8d6e47"><path d=""/><path d=""/><path d=""/><path d=""/><path d="" data-paper-data="{&quot;index&quot;:null}"/><path d="" data-paper-data="{&quot;index&quot;:null}"/><path d="" data-paper-data="{&quot;index&quot;:null}"/><path d="" data-paper-data="{&quot;index&quot;:null}"/><path d="" data-paper-data="{&quot;index&quot;:null}"/></g></g><g fill="#000000"><path d="M209.23045,125.39516c-1.25048,-1.54742 -4.30283,-4.79901 -5.14645,-11.22153c0.91524,0.01334 7.23686,3.40049 13.07948,2.91182c2.04911,-0.17138 -1.86159,-1.63215 -1.86159,-1.63215c0,0 3.74885,0.93312 6.8553,1.399c2.93115,0.43959 9.67672,0.24409 9.67672,0.24409l-3.13512,-3.58631c0,0 2.31726,-1.5813 3.27402,-5.13214c1.34916,-5.00715 1.45409,-12.98222 1.45409,-12.98222c0,0 3.16489,0.03904 3.90955,0.09714c30.48427,2.37875 23.69981,25.50564 23.69981,25.50564l-0.15083,3.52192c0,0 -23.02613,-2.91757 -37.88559,-2.72493c-10.30578,0.13361 -13.66557,3.72818 -13.76941,3.59968z"/><path d="M247.85677,122.86002c-14.78858,-1.46234 -37.97985,-0.52403 -37.97985,-0.52403l0.14393,-3.36092c3.2252,-0.2981 21.0128,0.66737 23.47464,-2.77657c1.85091,-2.5893 2.54727,-18.4496 2.73058,-19.98446c1.68293,-0.16328 0.4267,-0.6825 2.36197,-0.66754c23.43073,0.18099 28.26496,1.05485 29.37952,11.57678c0.92125,8.69704 -4.81347,18.53683 -6.69955,20.50046c-0.11444,0.11915 -3.15462,-3.7495 -13.41124,-4.7637z" data-paper-data="{&quot;index&quot;:null}"/></g></g></g></g></g></g></svg>