<svg version="1.1" xmlns="http://www.w3.org/2000/svg" xmlns:xlink="http://www.w3.org/1999/xlink" width="34.17311" height="34.17311" viewBox="0,0,34.17311,34.17311"><g transform="translate(-222.91345,-162.91345)"><g data-paper-data="{&quot;isPaintingLayer&quot;:true}" stroke="none" stroke-miterlimit="10" stroke-dasharray="" stroke-dashoffset="0" style="mix-blend-mode: normal"><path d="M229.98312,162.91346h20.03379c3.9166,0 7.06966,3.15307 7.06966,7.06966v20.03379c0,3.91659 -3.15306,7.06966 -7.06966,7.06966h-20.03379c-3.91659,0 -7.06966,-3.15307 -7.06966,-7.06966v-20.03379c0,-3.91659 3.15307,-7.06966 7.06966,-7.06966z" fill="#59220f" fill-rule="evenodd" stroke-width="4.43922" stroke-linecap="round" stroke-linejoin="round"/><g fill-rule="nonzero" stroke-width="0" stroke-linecap="butt" stroke-linejoin="miter"><g fill="#000000"><path d="M245.09131,190.10655c-5.67238,4.32643 -12.61432,3.4526 -15.50522,-1.95176c-2.89091,-5.40436 -0.63607,-13.29273 5.03631,-17.61916c5.67238,-4.32643 12.61432,-3.4526 15.50522,1.95176c2.89091,5.40436 0.63607,13.29272 -5.03631,17.61916z"/><path d="M246.07324,187.65641c0,0 -9.5008,5.43851 -14.69198,0.1512c-3.82571,-3.89656 1.72798,-14.44965 1.72798,-14.44965c0,0 9.60289,-5.42098 14.55343,-0.64161c4.80845,4.64219 -1.58943,14.94006 -1.58943,14.94006z"/><g data-paper-data="{&quot;index&quot;:null}"><path d="M239.8054,188.41856c-0.06326,-0.53976 0.33068,-1.46791 0.87127,-1.53126c0.54059,-0.06336 1.08416,0.78414 1.14742,1.3239c0.06326,0.53976 -0.40501,0.83364 -0.9456,0.89699c-0.54059,0.06336 -1.00984,-0.14988 -1.07309,-0.68964z"/><path d="M238.07924,188.44101c0.01105,-0.59274 0.57343,-1.53799 1.16707,-1.52692c0.59364,0.01107 1.05648,1.00711 1.04542,1.59984c-0.01105,0.59274 -0.56044,0.84146 -1.15408,0.8304c-0.59364,-0.01107 -1.06947,-0.31059 -1.05841,-0.90332z"/><path d="M235.77128,187.90002c0.22639,-0.7129 1.32375,-1.90518 2.03773,-1.67845c0.71399,0.22673 0.83829,1.84888 0.61191,2.56178c-0.22639,0.7129 -0.98022,0.81628 -1.6942,0.58954c-0.71399,-0.22673 -1.18182,-0.75998 -0.95544,-1.47287z"/><path d="M233.79228,187.03459c0.39022,-0.63813 1.62019,-1.17479 2.2593,-0.78398c0.63911,0.39082 0.49264,1.63688 0.10242,2.275c-0.39022,0.63813 -1.14691,0.55834 -1.78601,0.16753c-0.63911,-0.39081 -0.96592,-1.02043 -0.5757,-1.65856z"/><path d="M232.18092,186.1806c0.44239,-0.60313 1.71307,-1.03468 2.31712,-0.59162c0.60405,0.44306 0.35352,1.67245 -0.08887,2.27557c-0.44239,0.60313 -1.18972,0.46012 -1.79377,0.01705c-0.60405,-0.44306 -0.87687,-1.09789 -0.43448,-1.70102z"/><path d="M231.18988,184.8824c0.4714,-0.58074 1.7617,-0.94953 2.34332,-0.47742c0.58163,0.47212 0.27119,1.68775 -0.20021,2.26848c-0.4714,0.58074 -1.21082,0.4013 -1.79245,-0.07081c-0.58163,-0.47212 -0.82206,-1.13952 -0.35066,-1.72025z"/><path d="M230.71004,183.18747c0.53908,-0.51852 1.86488,-0.72623 2.38419,-0.18632c0.51931,0.53991 0.06208,1.70826 -0.477,2.22678c-0.53908,0.51852 -1.25092,0.24972 -1.77023,-0.29018c-0.51931,-0.53991 -0.67604,-1.23176 -0.13696,-1.75028z"/><path d="M231.83376,181.02302c0.74689,-0.04031 2.25016,0.56457 2.29053,1.3126c0.04037,0.74803 -1.43302,1.43789 -2.17991,1.47821c-0.74689,0.04031 -1.11015,-0.62827 -1.15052,-1.37631c-0.04037,-0.74803 0.29301,-1.37419 1.0399,-1.4145z"/><path d="M232.65167,179.63427c0.5848,0.09734 1.43796,0.79152 1.34046,1.37721c-0.0975,0.58569 -1.15036,0.89837 -1.73515,0.80103c-0.5848,-0.09734 -0.75078,-0.67712 -0.65329,-1.26281c0.0975,-0.58569 0.46319,-1.01276 1.04798,-0.91541z"/></g><g><path d="M237.10487,173.52874c0.1176,0.60144 -0.2454,1.6789 -0.84775,1.79668c-0.60235,0.11778 -1.28649,-0.78829 -1.40409,-1.38972c-0.1176,-0.60144 0.38359,-0.97217 0.98594,-1.08995c0.60235,-0.11778 1.1483,0.08155 1.26591,0.68299z"/><path d="M239.04376,173.35487c0.03861,0.66739 -0.51229,1.77861 -1.1807,1.81728c-0.66842,0.03867 -1.27457,-1.04136 -1.31318,-1.70875c-0.03861,-0.66739 0.55767,-0.99436 1.22608,-1.03303c0.66842,-0.03867 1.22919,0.25711 1.2678,0.9245z"/><path d="M241.69585,173.49216c-0.19315,0.82103 -1.32429,2.25606 -2.14657,2.0626c-0.82228,-0.19344 -1.10174,-2.00659 -0.90859,-2.82762c0.19315,-0.82103 1.03181,-1.00218 1.85411,-0.80874c0.82228,0.19344 1.39421,0.75272 1.20106,1.57376z"/><path d="M244.14553,173.49028c-0.23553,0.8099 -1.41479,1.75818 -2.22593,1.52229c-0.81114,-0.23588 -1.0209,-1.63504 -0.78538,-2.44493c0.23553,-0.8099 1.08247,-0.94724 1.8936,-0.71136c0.81114,0.23588 1.35323,0.8241 1.11771,1.634z"/><path d="M246.49749,174.49781c-0.48795,0.68796 -1.9129,1.19735 -2.60192,0.70865c-0.68902,-0.4887 -0.42862,-1.87932 0.05934,-2.56728c0.48795,-0.68796 1.33313,-0.54015 2.02215,-0.05145c0.68902,0.4887 1.00839,1.22212 0.52043,1.91008z"/><path d="M247.44065,176.58227c-0.60533,0.58734 -2.09931,0.82809 -2.68756,0.22183c-0.58825,-0.60626 -0.07841,-1.92598 0.52692,-2.51333c0.60533,-0.58734 1.40933,-0.28774 1.99758,0.31851c0.58825,0.60626 0.76838,1.38564 0.16305,1.97298z"/><path d="M247.62955,179.24679c-0.81858,0.20328 -2.231,-0.33988 -2.43459,-1.15972c-0.2036,-0.81984 0.90073,-1.70419 1.71931,-1.90747c0.81858,-0.20328 1.36288,0.45998 1.56648,1.27982c0.2036,0.81984 -0.03262,1.58409 -0.8512,1.78737z"/><path d="M247.14536,181.19627c-0.83629,0.10964 -2.88764,-0.51077 -2.99744,-1.34834c-0.1098,-0.83757 1.79646,-1.67032 2.63275,-1.77997c0.83629,-0.10964 1.30229,0.61079 1.41209,1.44836c0.1098,0.83757 -0.21111,1.5703 -1.0474,1.67994z"/><path d="M246.27418,182.9541c-0.66589,-0.0591 -1.68492,-0.76611 -1.62573,-1.43302c0.05919,-0.66691 1.21605,-1.10914 1.88194,-1.05004c0.66589,0.0591 0.90244,0.69667 0.84325,1.36359c-0.05919,0.66691 -0.43357,1.17858 -1.09946,1.11948z"/></g></g><g><path d="M245.37761,189.46437c-5.67238,4.32643 -12.61432,3.45261 -15.50522,-1.95175c-2.89091,-5.40436 -0.63608,-13.29273 5.03631,-17.61916c5.67238,-4.32643 12.61431,-3.4526 15.50522,1.95176c2.89091,5.40436 0.63608,13.29272 -5.0363,17.61915z" fill="#6d4321"/><path d="M246.35954,187.01423c0,0 -9.5008,5.43851 -14.69199,0.15119c-3.82571,-3.89656 1.72799,-14.44965 1.72799,-14.44965c0,0 9.60289,-5.42097 14.55342,-0.6416c4.80845,4.64219 -1.58942,14.94006 -1.58942,14.94006z" fill="#000000"/><g data-paper-data="{&quot;index&quot;:null}" fill="#6d4321"><path d="M240.0917,187.77637c-0.06326,-0.53976 0.33068,-1.4679 0.87127,-1.53125c0.54059,-0.06336 1.08416,0.78414 1.14742,1.3239c0.06326,0.53976 -0.40501,0.83363 -0.9456,0.89699c-0.54059,0.06336 -1.00984,-0.14988 -1.07309,-0.68964z"/><path d="M238.36554,187.79883c0.01105,-0.59274 0.57343,-1.53799 1.16707,-1.52692c0.59364,0.01107 1.05648,1.0071 1.04542,1.59984c-0.01105,0.59274 -0.56044,0.84147 -1.15408,0.8304c-0.59364,-0.01107 -1.06947,-0.31059 -1.05841,-0.90332z"/><path d="M236.05758,187.25784c0.22639,-0.7129 1.32375,-1.90517 2.03773,-1.67844c0.71399,0.22673 0.83829,1.84887 0.6119,2.56177c-0.22639,0.7129 -0.98021,0.81628 -1.6942,0.58954c-0.71399,-0.22673 -1.18182,-0.75998 -0.95543,-1.47287z"/><path d="M234.07858,186.39241c0.39022,-0.63813 1.6202,-1.1748 2.2593,-0.78399c0.63911,0.39082 0.49263,1.63688 0.10241,2.275c-0.39022,0.63813 -1.14691,0.55834 -1.78601,0.16753c-0.63911,-0.39081 -0.96592,-1.02042 -0.5757,-1.65855z"/><path d="M232.46722,185.53841c0.44239,-0.60313 1.71307,-1.03467 2.31712,-0.59161c0.60405,0.44306 0.35352,1.67245 -0.08887,2.27557c-0.44239,0.60313 -1.18972,0.46012 -1.79377,0.01705c-0.60405,-0.44306 -0.87687,-1.09789 -0.43448,-1.70102z"/><path d="M231.47618,184.24022c0.4714,-0.58074 1.7617,-0.94953 2.34332,-0.47742c0.58163,0.47212 0.27119,1.68775 -0.20021,2.26848c-0.4714,0.58074 -1.21083,0.4013 -1.79246,-0.07082c-0.58163,-0.47212 -0.82205,-1.13951 -0.35065,-1.72025z"/><path d="M230.99634,182.54529c0.53908,-0.51852 1.86488,-0.72623 2.38419,-0.18632c0.51931,0.53991 0.06207,1.70826 -0.47701,2.22678c-0.53908,0.51852 -1.25091,0.24972 -1.77022,-0.29018c-0.51931,-0.53991 -0.67604,-1.23176 -0.13696,-1.75028z"/><path d="M232.12006,180.38084c0.74689,-0.04031 2.25016,0.56456 2.29053,1.31259c0.04037,0.74803 -1.43302,1.43789 -2.17991,1.47821c-0.74689,0.04031 -1.11015,-0.62826 -1.15052,-1.3763c-0.04037,-0.74803 0.29301,-1.37419 1.0399,-1.4145z"/><path d="M232.93797,178.99209c0.5848,0.09734 1.43796,0.79152 1.34046,1.37721c-0.0975,0.58569 -1.15037,0.89837 -1.73516,0.80103c-0.5848,-0.09734 -0.75078,-0.67713 -0.65328,-1.26282c0.0975,-0.58569 0.46318,-1.01276 1.04797,-0.91541z"/></g><g fill="#6d4321"><path d="M237.39117,172.88656c0.1176,0.60144 -0.2454,1.67891 -0.84775,1.79669c-0.60235,0.11778 -1.28649,-0.78829 -1.40409,-1.38973c-0.1176,-0.60144 0.38359,-0.97216 0.98594,-1.08995c0.60235,-0.11778 1.14831,0.08155 1.26591,0.68299z"/><path d="M239.33006,172.71269c0.03861,0.66739 -0.51229,1.77861 -1.1807,1.81728c-0.66842,0.03867 -1.27457,-1.04136 -1.31319,-1.70875c-0.03861,-0.66739 0.55767,-0.99437 1.22608,-1.03304c0.66842,-0.03867 1.22919,0.25712 1.26781,0.92451z"/><path d="M241.98215,172.84998c-0.19315,0.82103 -1.32429,2.25606 -2.14658,2.06261c-0.82228,-0.19344 -1.10174,-2.00659 -0.90859,-2.82763c0.19315,-0.82103 1.03181,-1.00218 1.85411,-0.80873c0.82228,0.19344 1.39421,0.75272 1.20106,1.57375z"/><path d="M244.43183,172.8481c-0.23553,0.8099 -1.4148,1.75818 -2.22593,1.52229c-0.81114,-0.23588 -1.02089,-1.63504 -0.78537,-2.44493c0.23553,-0.8099 1.08246,-0.94724 1.8936,-0.71136c0.81114,0.23588 1.35324,0.82411 1.11771,1.63401z"/><path d="M246.78379,173.85563c-0.48795,0.68796 -1.9129,1.19735 -2.60192,0.70865c-0.68902,-0.4887 -0.42862,-1.87932 0.05934,-2.56729c0.48795,-0.68796 1.33313,-0.54015 2.02215,-0.05144c0.68902,0.4887 1.00839,1.22211 0.52043,1.91008z"/><path d="M247.72695,175.94009c-0.60533,0.58734 -2.09931,0.82809 -2.68756,0.22183c-0.58825,-0.60626 -0.07841,-1.92598 0.52692,-2.51333c0.60533,-0.58734 1.40933,-0.28774 1.99758,0.31851c0.58825,0.60626 0.76839,1.38564 0.16306,1.97298z"/><path d="M247.91585,178.60461c-0.81858,0.20328 -2.23099,-0.33988 -2.43459,-1.15972c-0.2036,-0.81984 0.90073,-1.70419 1.71931,-1.90747c0.81858,-0.20328 1.36288,0.45998 1.56647,1.27982c0.2036,0.81984 -0.03262,1.58409 -0.8512,1.78737z"/><path d="M247.43166,180.55408c-0.83629,0.10964 -2.88763,-0.51076 -2.99743,-1.34833c-0.1098,-0.83757 1.79646,-1.67032 2.63275,-1.77997c0.83629,-0.10964 1.30229,0.61079 1.41209,1.44836c0.1098,0.83757 -0.21111,1.57029 -1.0474,1.67994z"/><path d="M246.56048,182.31192c-0.66589,-0.0591 -1.68492,-0.76612 -1.62573,-1.43303c0.05919,-0.66691 1.21605,-1.10914 1.88194,-1.05004c0.66589,0.0591 0.90244,0.69668 0.84325,1.36359c-0.05919,0.66691 -0.43357,1.17858 -1.09946,1.11948z"/></g></g></g></g></g></svg>