<svg version="1.1" xmlns="http://www.w3.org/2000/svg" xmlns:xlink="http://www.w3.org/1999/xlink" width="34.17311" height="34.17311" viewBox="0,0,34.17311,34.17311"><g transform="translate(-222.91345,-162.91345)"><g data-paper-data="{&quot;isPaintingLayer&quot;:true}" stroke="none" stroke-miterlimit="10" stroke-dasharray="" stroke-dashoffset="0" style="mix-blend-mode: normal"><path d="M229.98312,162.91346h20.03379c3.9166,0 7.06966,3.15307 7.06966,7.06966v20.03379c0,3.91659 -3.15306,7.06966 -7.06966,7.06966h-20.03379c-3.91659,0 -7.06966,-3.15307 -7.06966,-7.06966v-20.03379c0,-3.91659 3.15307,-7.06966 7.06966,-7.06966z" fill="#000000" fill-rule="evenodd" stroke-width="4.43922" stroke-linecap="round" stroke-linejoin="round"/><g fill-rule="nonzero" stroke-width="0" stroke-linecap="butt" stroke-linejoin="miter"><g><path d="M228.23126,182.0872c2.78791,-2.99202 7.41976,-3.20752 10.34553,-0.48134c2.92577,2.72618 2.80913,7.34446 0.02122,10.33648c-2.78791,2.99202 -7.34038,3.38469 -10.26615,0.6585c-2.92577,-2.72618 -2.88851,-7.52162 -0.1006,-10.51364z" fill="#000000"/><path d="M228.36617,182.21291c2.45871,-2.63871 6.3887,-2.75536 9.01224,-0.31079c2.62354,2.44457 2.83777,6.6183 0.37906,9.25702c-2.45872,2.63872 -6.46931,2.70246 -9.09285,0.25789c-2.62355,-2.44457 -2.75716,-6.56539 -0.29845,-9.2041z" fill="#59220f"/></g><g><path d="M241.36998,168.01275c2.78791,-2.99202 7.41977,-3.20751 10.34554,-0.48133c2.92577,2.72618 2.78117,7.26951 -0.00674,10.26153c-1.56305,1.67748 -3.64444,2.78378 -5.74108,2.68667c-1.64301,-0.07611 -3.06267,-0.91539 -4.3481,-2.11313c-2.92577,-2.72618 -3.03754,-7.3617 -0.24962,-10.35372z" fill="#000000"/><path d="M241.5049,168.13846c2.45872,-2.63872 6.46966,-2.59893 9.0932,-0.15436c2.62354,2.44457 2.68835,6.34919 0.22964,8.9879c-2.45872,2.63872 -6.40085,2.81512 -9.02438,0.37055c-2.62354,-2.44457 -2.75716,-6.56538 -0.29845,-9.2041z" fill="#59220f"/></g><path d="M231.96777,185.71822c0.72135,-0.77417 1.9424,-0.80889 2.72726,-0.07757c0.78486,0.73132 0.83634,1.95176 0.11498,2.72593c-0.72135,0.77417 -1.94239,0.8089 -2.72725,0.07758c-0.78486,-0.73132 -0.83635,-1.95177 -0.115,-2.72594z" fill="#000000"/><path d="M245.15483,171.53941c0.72135,-0.77417 1.9424,-0.8089 2.72726,-0.07757c0.78486,0.73132 0.83634,1.95177 0.11499,2.72593c-0.72135,0.77417 -1.94239,0.8089 -2.72725,0.07757c-0.78486,-0.73132 -0.83636,-1.95176 -0.115,-2.72593z" fill="#000000"/></g></g></g></svg>