<svg version="1.1" xmlns="http://www.w3.org/2000/svg" xmlns:xlink="http://www.w3.org/1999/xlink" width="34.17311" height="34.17311" viewBox="0,0,34.17311,34.17311"><g transform="translate(-222.91346,-162.91346)"><g data-paper-data="{&quot;isPaintingLayer&quot;:true}" stroke-miterlimit="10" stroke-dasharray="" stroke-dashoffset="0" style="mix-blend-mode: normal"><path d="M229.98313,162.91347h20.03379c3.9166,0 7.06966,3.15307 7.06966,7.06966v20.03379c0,3.91659 -3.15306,7.06966 -7.06966,7.06966h-20.03379c-3.91659,0 -7.06966,-3.15307 -7.06966,-7.06966v-20.03379c0,-3.91659 3.15307,-7.06966 7.06966,-7.06966z" fill="#000000" fill-rule="evenodd" stroke="none" stroke-width="4.43922" stroke-linecap="round" stroke-linejoin="round"/><path d="M245.0258,177.22914c-0.23559,2.68346 -0.12014,3.4518 -2.16921,4.89777c-2.38109,1.68026 -9.38846,7.68147 -9.38846,7.68147c0,0 2.6322,-8.39839 2.97516,-10.68781c0.42623,-2.84536 1.47078,-3.13632 3.73332,-4.49713c1.48296,-0.89193 6.1092,-4.58603 6.1092,-4.58603c0,0 -1.01942,4.45156 -1.26001,7.19173z" fill="#59220f" fill-rule="nonzero" stroke="#000000" stroke-width="1.5" stroke-linecap="butt" stroke-linejoin="miter"/></g></g></svg>