<svg version="1.1" xmlns="http://www.w3.org/2000/svg" xmlns:xlink="http://www.w3.org/1999/xlink" width="34.17311" height="34.17311" viewBox="0,0,34.17311,34.17311"><g transform="translate(-222.91346,-162.91346)"><g data-paper-data="{&quot;isPaintingLayer&quot;:true}" fill="#59220f" stroke="none" stroke-miterlimit="10" stroke-dasharray="" stroke-dashoffset="0" style="mix-blend-mode: normal"><path d="M235.2221,195.93956c0,0 1.02249,-8.15644 0.90183,-12.63023c-0.18037,-6.6877 -0.90183,-16.23887 -0.90183,-16.23887h3.42694c0,0 -0.27141,8.16227 -0.72146,12.63024c-0.72146,7.16253 0.72146,16.23887 0.72146,16.23887z" fill-rule="nonzero" stroke-width="0" stroke-linecap="butt" stroke-linejoin="miter"/><path d="M244.96951,194.42396c0,0 -0.56964,-8.15431 -1.23759,-12.57842c-0.99851,-6.61343 -2.66654,-16.02548 -2.66654,-16.02548l1.78774,-0.24401c0,0 0.96224,8.10661 1.33169,12.56558c0.59226,7.1481 2.57244,16.03832 2.57244,16.03832z" fill-rule="nonzero" stroke-width="0" stroke-linecap="butt" stroke-linejoin="miter"/><path d="M229.98313,162.91347h20.03379c3.9166,0 7.06966,3.15307 7.06966,7.06966v20.03379c0,3.91659 -3.15306,7.06966 -7.06966,7.06966h-20.03379c-3.91659,0 -7.06966,-3.15307 -7.06966,-7.06966v-20.03379c0,-3.91659 3.15307,-7.06966 7.06966,-7.06966zM239.96982,192.82262c2.26548,0 6.24488,-1.12941 8.40986,-3.27813c3.11288,-3.08949 4.05007,-7.89238 4.05007,-11.14975c0,-2.41438 -1.67123,-5.58937 -3.59855,-7.29092c-2.48139,-2.19072 -5.62993,-2.58608 -8.7384,-2.58608c-3.43302,0 -7.97156,-0.14851 -10.63551,3.2065c-1.62167,2.04235 -2.31641,7.1636 -2.31641,9.25343c0,2.59264 0.38009,6.59137 2.65991,8.79957c2.57666,2.49571 7.23882,3.04539 10.16903,3.04539z" fill-rule="evenodd" stroke-width="4.43922" stroke-linecap="round" stroke-linejoin="round"/><path d="M231.70843,195.93956c0,0 0.53835,-8.15644 0.47482,-12.63023c-0.09496,-6.68771 -0.47482,-16.23887 -0.47482,-16.23887h1.80432c0,0 -0.1429,8.16227 -0.37986,12.63023c-0.37986,7.16253 0.37986,16.23887 0.37986,16.23887z" fill-rule="nonzero" stroke-width="0" stroke-linecap="butt" stroke-linejoin="miter"/><path d="M246.66927,194.17757c0,0 0.07825,-8.17381 -0.23708,-12.63693c-0.47137,-6.67175 -1.38841,-16.18638 -1.38841,-16.18638l1.80146,-0.10159c0,0 0.3169,8.15737 0.3319,12.63159c0.02404,7.17255 1.29359,16.19172 1.29359,16.19172z" fill-rule="nonzero" stroke-width="0" stroke-linecap="butt" stroke-linejoin="miter"/></g></g></svg>