<svg version="1.1" xmlns="http://www.w3.org/2000/svg" xmlns:xlink="http://www.w3.org/1999/xlink" width="34.17311" height="34.17311" viewBox="0,0,34.17311,34.17311"><g transform="translate(-222.91345,-162.91345)"><g data-paper-data="{&quot;isPaintingLayer&quot;:true}" stroke="none" stroke-miterlimit="10" stroke-dasharray="" stroke-dashoffset="0" style="mix-blend-mode: normal"><path d="M229.98312,162.91346h20.03379c3.9166,0 7.06966,3.15307 7.06966,7.06966v20.03379c0,3.91659 -3.15306,7.06966 -7.06966,7.06966h-20.03379c-3.91659,0 -7.06966,-3.15307 -7.06966,-7.06966v-20.03379c0,-3.91659 3.15307,-7.06966 7.06966,-7.06966z" fill="#000000" fill-rule="evenodd" stroke-width="4.43922" stroke-linecap="round" stroke-linejoin="round"/><g fill-rule="nonzero" stroke-linecap="butt" stroke-linejoin="miter"><g fill="none" stroke-width="1" font-family="sans-serif" font-weight="normal" font-size="12" text-anchor="start"><g><g><g><g><g/><g data-paper-data="{&quot;index&quot;:null}"/></g></g></g><g/></g><g/><g data-paper-data="{&quot;index&quot;:null}"/></g><g fill="#000000" stroke-width="0"><path d="M241.4031,179.56023c0,0 3.5459,1.10286 6.15961,-0.42903c2.56889,-1.50562 3.87932,-6.1091 4.84638,-5.2561c1.42684,1.25853 1.02452,1.89629 1.69017,3.05578c0.55923,0.97412 1.77719,2.3516 1.35926,3.4593c-0.44607,1.18228 -2.78618,3.28078 -5.19767,4.07363c-2.53717,0.83417 -5.13988,0.33236 -5.13988,0.33236z"/><g><path d="M224.45585,171.50763c0,0 0.11948,-0.50546 0.9189,-1.18521c0.53615,-0.45588 1.27576,-0.62311 1.27576,-0.62311c0,0 0.37602,-0.47598 1.3476,-1.16971c0.74544,-0.53226 1.4514,-0.59076 1.4514,-0.59076c0,0 1.16011,2.83182 4.29857,5.25265c4.45328,3.435 11.75098,7.26517 15.56258,11.53294c3.59042,4.02012 3.5033,6.43395 3.5033,6.43395c0,0 -0.03703,0.72502 -0.36557,1.07865c-0.49644,0.53435 -0.9238,0.57981 -0.9238,0.57981c0,0 -0.03882,0.69067 -0.52095,1.19886c-0.564,0.59448 -0.99178,0.67198 -0.99178,0.67198c0,0 -0.57007,-3.29579 -4.31372,-6.94336c-4.98292,-4.85503 -10.64466,-6.73618 -14.54476,-9.48803c-4.37135,-3.08435 -6.69752,-6.74866 -6.69752,-6.74866z"/><path d="M226.14584,172.1238c0,0 0.02466,-0.40017 0.57345,-0.89365c0.36805,-0.33096 0.94136,-0.41438 0.94136,-0.41438c0,0 0.02856,-0.04338 0.09468,-0.1207c-0.00205,0.74016 0.27563,1.48148 0.83473,2.05177c1.06125,1.08248 2.7586,1.16343 3.91473,0.23117c0.41324,0.38225 0.87337,0.77257 1.38147,1.15685c3.22993,2.4428 7.93198,5.21003 11.57909,8.09938c0.00157,0.01094 1.58625,2.16659 0.88207,3.43572c-0.58795,1.05965 -2.24689,-0.22849 -2.25213,-0.22269c-4.22083,-3.40068 -8.4211,-5.16867 -11.58424,-7.40033c-3.96692,-2.79874 -6.36522,-5.92314 -6.36522,-5.92314z"/><path d="M248.08744,184.54508c3.46942,3.50044 3.74195,5.4453 3.74195,5.4453c0,0 0.07309,0.58341 -0.1419,0.84624c-0.32486,0.39715 -0.66339,0.40401 -0.66339,0.40401c0,0 0.06677,0.55552 -0.25025,0.93252c-0.37086,0.44102 -0.70517,0.47374 -0.70517,0.47374c0,0 -0.92834,-2.70369 -4.46854,-5.91372c-0.01947,-0.01765 -0.03894,-0.03527 -0.05842,-0.05285c0.01014,-0.01279 1.01325,0.81958 1.6781,-0.17752c0.69968,-1.04934 -0.14205,-2.89231 -0.13696,-2.91064c0.35294,0.31666 0.68886,0.63438 1.00457,0.95291z"/><path d="M226.89456,173.02338c4.97146,4.26422 10.70166,5.62563 10.70166,5.62563c0,0 -2.60835,1.09594 -5.42066,-0.39936c-1.93393,-1.02826 -7.65969,-7.26657 -5.281,-5.22627z"/><path d="M238.58504,180.11715c0,0 2.98621,0.23434 2.13293,-1.6556c-0.09916,-0.21964 3.57304,2.54254 3.2731,2.56125c-3.15399,0.1968 -5.40601,-0.90566 -5.40601,-0.90566z"/></g></g></g><g fill-rule="nonzero" stroke-linecap="butt" stroke-linejoin="miter"><g fill="none" stroke-width="1" font-family="sans-serif" font-weight="normal" font-size="12" text-anchor="start"><g><g><g><g><g/><g data-paper-data="{&quot;index&quot;:null}"/></g></g></g><g/></g><g/><g data-paper-data="{&quot;index&quot;:null}"/></g><g fill="#59220f" stroke-width="0"><path d="M241.4031,178.24698c0,0 3.5459,1.10286 6.15961,-0.42903c2.56889,-1.50562 3.87932,-6.1091 4.84638,-5.25611c1.42684,1.25853 1.02452,1.89629 1.69017,3.05578c0.55923,0.97412 1.77719,2.35161 1.35926,3.4593c-0.44607,1.18228 -2.78618,3.28078 -5.19767,4.07363c-2.53717,0.83417 -5.13988,0.33237 -5.13988,0.33237z"/><g><path d="M224.45585,170.19438c0,0 0.11948,-0.50546 0.9189,-1.18521c0.53615,-0.45588 1.27576,-0.62311 1.27576,-0.62311c0,0 0.37602,-0.47598 1.3476,-1.16971c0.74544,-0.53226 1.4514,-0.59077 1.4514,-0.59077c0,0 1.16011,2.83182 4.29857,5.25265c4.45328,3.435 11.75098,7.26517 15.56258,11.53294c3.59042,4.02012 3.5033,6.43395 3.5033,6.43395c0,0 -0.03703,0.72502 -0.36557,1.07865c-0.49644,0.53435 -0.9238,0.57981 -0.9238,0.57981c0,0 -0.03882,0.69067 -0.52095,1.19886c-0.564,0.59448 -0.99178,0.67198 -0.99178,0.67198c0,0 -0.57007,-3.29579 -4.31372,-6.94336c-4.98292,-4.85503 -10.64466,-6.73618 -14.54476,-9.48803c-4.37135,-3.08435 -6.69752,-6.74866 -6.69752,-6.74866z"/><path d="M226.14584,170.81055c0,0 0.02466,-0.40018 0.57345,-0.89365c0.36805,-0.33096 0.94136,-0.41438 0.94136,-0.41438c0,0 0.02856,-0.04337 0.09468,-0.12069c-0.00205,0.74016 0.27563,1.48147 0.83473,2.05176c1.06125,1.08248 2.7586,1.16343 3.91473,0.23118c0.41324,0.38225 0.87337,0.77257 1.38147,1.15685c3.22993,2.4428 7.93198,5.21002 11.57909,8.09937c0.00157,0.01094 1.58625,2.16659 0.88207,3.43572c-0.58795,1.05965 -2.24689,-0.22849 -2.25213,-0.22269c-4.22083,-3.40068 -8.4211,-5.16866 -11.58424,-7.40032c-3.96692,-2.79874 -6.36522,-5.92314 -6.36522,-5.92314z"/><path d="M248.08744,183.23183c3.46942,3.50044 3.74195,5.4453 3.74195,5.4453c0,0 0.07309,0.58341 -0.1419,0.84624c-0.32486,0.39715 -0.66339,0.404 -0.66339,0.404c0,0 0.06677,0.55552 -0.25025,0.93252c-0.37086,0.44102 -0.70517,0.47374 -0.70517,0.47374c0,0 -0.92834,-2.70369 -4.46854,-5.91372c-0.01947,-0.01765 -0.03894,-0.03527 -0.05842,-0.05284c0.01014,-0.01279 1.01325,0.81957 1.6781,-0.17752c0.69968,-1.04934 -0.14205,-2.89231 -0.13696,-2.91064c0.35294,0.31666 0.68886,0.63439 1.00457,0.95292z"/><path d="M226.89456,171.71013c4.97146,4.26422 10.70166,5.62563 10.70166,5.62563c0,0 -2.60835,1.09594 -5.42066,-0.39935c-1.93393,-1.02826 -7.65969,-7.26658 -5.281,-5.22628z"/><path d="M238.58504,178.8039c0,0 2.98621,0.23434 2.13293,-1.6556c-0.09916,-0.21964 3.57304,2.54254 3.2731,2.56126c-3.15399,0.1968 -5.40601,-0.90566 -5.40601,-0.90566z"/></g></g></g></g></g></svg>