<svg version="1.1" xmlns="http://www.w3.org/2000/svg" xmlns:xlink="http://www.w3.org/1999/xlink" width="96.22747" height="83.66436" viewBox="0,0,96.22747,83.66436"><g transform="translate(-194.28868,-140.43146)"><g data-paper-data="{&quot;isPaintingLayer&quot;:true}" fill-rule="nonzero" stroke="none" stroke-linecap="butt" stroke-linejoin="miter" stroke-miterlimit="10" stroke-dasharray="" stroke-dashoffset="0" style="mix-blend-mode: normal"><path d="M207.93248,224.09583v-66.84937h67.80435v66.84937z" fill="#ffffff" stroke-width="0"/><path d="M226.3949,196.36911c0,0 -0.38534,-5.52565 -0.62451,-7.62797c-0.17748,-1.56016 -0.68147,-3.85182 -0.68147,-3.85182c0,0 -1.95557,0.75223 -2.61867,1.35763c-0.76497,0.69841 -1.70939,2.5938 -1.70939,2.5938c0,0 -0.3296,-1.81034 -0.37514,-2.59264c-0.03489,-0.59929 0.12525,-1.70015 0.12525,-1.70015c0,0 -0.75548,3.30155 -1.09501,5.09416c-0.36261,1.91445 -1.01596,6.05105 -1.01596,6.05105c0,0 -0.98645,-2.17015 -1.34017,-3.11866c-0.2645,-0.70923 -0.5934,-2.06617 -0.5934,-2.06617c0,0 -1.0411,4.72566 -1.52948,7.34533c-0.56332,3.02169 -1.05782,9.64812 -1.05782,9.64812c0,0 -0.76175,-1.41105 -1.03533,-2.12058c-0.27566,-0.71489 -0.61244,-2.15281 -0.61244,-2.15281l-2.21643,10.01575c0,0 -0.96185,-3.10846 -1.26283,-4.58101c-0.28026,-1.37115 -0.48532,-3.97181 -0.48532,-3.97181l-0.35268,15.2548c0,0 -2.99706,-5.73748 -3.59961,-9.37759c-0.39184,-2.36722 -0.79778,-7.39757 -0.79778,-7.39757c0,0 -0.54197,0.5211 -0.85859,0.89127c-0.39193,0.45824 -1.31566,1.65075 -1.31566,1.65075c0,0 -1.26341,-5.36077 -1.68285,-7.96225c-0.3629,-2.25075 -0.68881,-6.7473 -0.68881,-6.7473c0,0 -0.74856,1.42805 -1.00991,2.24188c-0.256,0.79717 -0.54248,2.59213 -0.54248,2.59213c0,0 -2.85828,-12.25739 -2.64424,-23.49207c0.17078,-8.96393 4.54125,-13.35207 4.54125,-13.35207c0,0 -1.08042,-0.28745 -1.555,-0.31792c-0.46009,-0.02952 -1.25036,0.13786 -1.25036,0.13786c0,0 2.1229,-3.85161 3.23707,-5.41721c1.04405,-1.46707 4.23076,-3.58745 4.23076,-3.58745l-4.82769,-0.99786c0,0 3.93219,-1.83493 6.13913,-2.33891c2.09834,-0.47919 6.79315,-0.61438 6.79315,-0.61438l-4.33437,-1.43553c0,0 9.97594,-3.9165 22.45674,-3.98763c23.88723,-0.13613 29.17104,4.71579 29.17104,4.71579c0,0 5.52019,-0.5557 8.74756,0.26704c3.10781,0.79225 6.10643,2.92837 6.10643,2.92837c0,0 -0.99687,0.2644 -1.39704,0.53568c-0.34915,0.2367 -0.87187,1.0025 -0.87187,1.0025c0,0 5.93885,0.00113 8.68218,0.67361c4.12255,1.01056 7.14303,5.35735 7.14303,5.35735c0,0 -1.52114,0.69193 -2.11358,1.03508c-0.58601,0.33943 -1.42201,1.01274 -1.42201,1.01274c0,0 2.71791,1.21578 3.84046,2.32702c2.14144,2.11988 2.4251,4.92844 2.4251,4.92844c0,0 -0.96848,-0.43327 -1.42686,-0.61762c-0.3716,-0.14945 -1.11812,-0.40592 -1.11812,-0.40592c0,0 0.54406,6.88165 0.35243,9.59876c-0.23869,3.38435 -1.67464,9.14869 -1.67464,9.14869c0,0 -0.95786,-1.26928 -1.41135,-1.66536c-0.36726,-0.32077 -1.10588,-0.53317 -1.10588,-0.53317c0,0 0.13591,4.13259 -0.48528,7.33067c-0.64014,3.29567 -2.05595,6.46045 -2.05595,6.46045c0,0 -0.3433,-1.77043 -0.6436,-2.56418c-0.2603,-0.68803 -1.0554,-1.92664 -1.0554,-1.92664c0,0 -0.49436,4.33314 -1.06256,6.02042c-1.32797,3.94348 -2.89634,7.09954 -2.89634,7.09954c0,0 -0.11432,-13.43975 -0.54926,-15.69598c-0.3238,-1.67971 -1.93563,-1.13149 -1.93563,-1.13149c0,0 -0.87877,-2.2044 -1.15684,-3.31428c-0.28065,-1.12022 -0.51938,-3.3763 -0.51938,-3.3763c0,0 -0.32002,1.39557 -0.64071,2.02656c-0.40883,0.80442 -1.61269,2.40723 -1.61269,2.40723c0,0 -1.20761,-3.01508 -2.13248,-4.18431c-0.6998,-0.8847 -2.93227,-2.2186 -2.93227,-2.2186c0,0 -1.02733,3.43228 -1.96898,4.87504c-1.53241,3.02334 -5.2139,5.88077 -5.2139,5.88077c0,0 -2.73404,-4.88054 -5.56848,-7.60723c-1.69838,-1.63382 -7.49795,-3.22154 -7.49795,-3.22154c0,0 -1.37711,1.20108 -2.25552,3.12434c-1.3554,2.96761 -1.63265,5.72764 -1.63265,5.72764c0,0 -1.91624,-1.8875 -3.17952,-4.19881c-0.8039,-1.47085 -1.70843,-4.79538 -1.70843,-4.79538c0,0 -0.73367,4.34956 -1.33664,6.4393c-0.71882,2.49126 -2.69013,7.51652 -2.69013,7.51652c0,0 -0.88046,-1.22138 -1.23894,-1.67285c-0.2749,-0.3462 -0.72855,-0.80498 -0.72855,-0.80498c0,0 -0.51967,2.14044 -0.95598,3.20726c-0.55003,1.34485 -2.08277,4.22264 -2.08277,4.22264z" fill="#000000" stroke-width="0"/><path d="M261.0849,175.03245c0,0 -0.70936,-1.40297 -1.03075,-1.9718c-0.24516,-0.4339 -0.73156,-1.14729 -0.73156,-1.14729c0,0 -0.31575,2.40923 -0.56494,3.65368c-0.2603,1.29995 -0.96498,3.9868 -0.96498,3.9868c0,0 -0.62358,-3.49176 -1.0278,-4.82592c-0.3247,-1.0717 -1.21161,-2.56551 -1.21161,-2.56551c0,0 -0.16863,1.48857 -0.25958,2.29148c-0.10076,0.88949 -0.3186,2.81237 -0.3186,2.81237c0,0 -0.24806,-2.351 -0.28392,-3.57027c-0.03039,-1.03332 0.16578,-2.69691 0.16578,-2.69691c0,0 -0.41994,0.32451 -0.59047,0.53112c-0.17354,0.21027 -0.44191,0.71972 -0.44191,0.71972c0,0 0.09917,-2.34941 0.63193,-3.58157c0.56809,-1.31386 2.67743,-4.07225 2.67743,-4.07225c0,0 0.00046,1.11656 0.08645,1.69102c0.08934,0.59686 0.43991,1.82551 0.43991,1.82551c0,0 0.08141,-2.12314 0.70567,-4.3583c0.77787,-2.78512 2.16834,-5.83628 2.61861,-6.24083c2.62685,-2.36011 6.02759,0.17393 6.02759,0.17393c0,0 -1.0614,0.26812 -1.48958,0.43632c-0.40405,0.15872 -1.01132,0.54606 -1.01132,0.54606c0,0 0.47508,0.63839 0.68048,0.92939c0.21891,0.31016 0.67834,1.04444 0.67834,1.04444c0,0 -1.18838,-0.45441 -1.78785,-0.43142c-0.60661,0.02327 -1.83064,0.23689 -1.83064,0.23689c0,0 0.70956,0.62978 1.01227,1.0995c0.44595,0.692 1.57107,2.4005 1.57107,2.4005l-1.91667,-0.33334c0,0 -0.10089,3.63962 -0.38493,5.40838c-0.32224,2.00669 -1.44841,6.00829 -1.44841,6.00829z" fill-opacity="0.24672" fill="#ffffff" stroke-width="0"/><g><g stroke-width="0"><path d="M194.31639,176.34308c0.14842,-1.7736 0.89723,-2.98876 0.89723,-2.98876c0,0 -0.65946,-2.33709 -0.31137,-5.12856c0.34398,-2.75845 1.59753,-4.70662 1.59753,-4.70662c0,0 16.42785,-5.21211 47.13554,-4.85641c30.7077,0.3557 43.65477,5.85478 43.65477,5.85478c0,0 0.98856,1.33231 1.04615,3.71211c0.0436,1.8016 -0.52986,3.52809 -0.52986,3.52809c0,0 1.10387,0.9392 1.3443,3.10772c0.28136,2.53764 -0.42965,4.70225 -0.42965,4.70225c0,0 -16.32487,-5.42328 -44.8102,-6.29114c-23.73514,-0.72314 -48.93867,7.09356 -48.93867,7.09356c0,0 -0.84532,-1.76227 -0.65578,-4.02702z" fill="#773128"/><path d="M196.52062,173.96227c0.14152,-1.24364 0.85555,-2.0957 0.85555,-2.0957c0,0 -0.62882,-1.63876 -0.29691,-3.59613c0.328,-1.93422 1.52329,-3.30027 1.52329,-3.30027c0,0 2.00891,-0.4687 5.93267,-1.05895c-0.91026,1.65335 -1.42637,3.54233 -1.42637,5.54846c0,2.12389 0.57849,4.1165 1.59073,5.83719c-4.68641,0.83522 -7.55363,1.48915 -7.55363,1.48915c0,0 -0.80605,-1.2357 -0.6253,-2.82374z" fill="#894939"/><g fill="#894939"><path d="M285.17409,165.67021c0,0 0.94263,0.9342 0.99754,2.60292c0.04157,1.26328 -0.50525,2.47389 -0.50525,2.47389c0,0 1.05257,0.65856 1.28183,2.17913c0.26829,1.77939 -0.40968,3.29721 -0.40968,3.29721c0,0 -2.55816,-0.62494 -7.40991,-1.40868c1.12132,-1.7853 1.76742,-3.88322 1.76742,-6.12777c0,-1.47083 -0.27742,-2.87869 -0.78421,-4.17688c3.44724,0.65577 5.06225,1.16019 5.06225,1.16019z"/><path d="M243.54783,161.56486c1.5141,0.0129 2.9829,0.03544 4.40706,0.06659c-0.84819,1.60871 -1.32675,3.43184 -1.32675,5.36358c0,1.75989 0.39719,3.42966 1.10925,4.92926c-1.28052,-0.04461 -2.58963,-0.0823 -3.92682,-0.11227c-2.08789,-0.04678 -4.18769,-0.04259 -6.27944,0.00355c0.61616,-1.41191 0.95696,-2.96475 0.95696,-4.59494c0,-2.04616 -0.53691,-3.97047 -1.48132,-5.64716c2.09847,-0.02385 4.27914,-0.02788 6.54106,-0.00861z"/></g></g><g stroke-width="0.5"><g><g><path d="M206.69123,166.87127c0,-7.39063 6.41186,-13.38194 14.32129,-13.38194c7.90944,0 14.32129,5.9913 14.32129,13.38194c0,7.39063 -6.41185,13.38194 -14.32129,13.38194c-7.90944,0 -14.32129,-5.9913 -14.32129,-13.38194z" fill="#59220f"/><g><path d="M205.71832,168.10766c0,-6.94638 6.03868,-12.57753 13.48776,-12.57753c7.44908,0 13.48775,5.63115 13.48775,12.57753c0,6.94638 -6.03867,12.57753 -13.48775,12.57753c-7.44908,0 -13.48776,-5.63115 -13.48776,-12.57753z" fill="#6d4321"/><path d="M207.10489,168.10766c0,-4.95604 3.42616,-9.16587 8.19027,-10.68221c-0.44204,1.27772 -0.68244,2.65186 -0.68244,4.08302c0,6.80029 5.42772,12.31301 12.12315,12.31301c1.09372,0 2.1536,-0.1471 3.16155,-0.42289c-2.03351,3.56576 -6.05836,5.9936 -10.69133,5.9936c-6.68331,0 -12.10119,-5.05226 -12.10119,-11.28455z" fill="#8d6e47"/></g></g><path d="M208.44625,168.10766c0,-5.54146 4.61377,-10.03369 10.30517,-10.03369c5.6914,0 10.30516,4.49223 10.30516,10.03369c0,5.54146 -4.61377,10.0337 -10.30516,10.0337c-5.6914,0 -10.30517,-4.49223 -10.30517,-10.0337z" fill="#000000"/></g><g data-paper-data="{&quot;index&quot;:null}"><g><path d="M278.69174,166.87127c0,7.39063 -6.41186,13.38194 -14.32129,13.38194c-7.90944,0 -14.32129,-5.9913 -14.32129,-13.38194c0,-7.39063 6.41185,-13.38194 14.32129,-13.38194c7.90944,0 14.32131,5.9913 14.32131,13.38194z" fill="#59220f"/><g><path d="M266.17689,180.6852c-7.44908,0 -13.48775,-5.63115 -13.48775,-12.57753c0,-6.94638 6.03867,-12.57753 13.48775,-12.57753c7.44908,0 13.48776,5.63115 13.48776,12.57753c0,6.94638 -6.03868,12.57753 -13.48776,12.57753z" fill="#6d4321"/><path d="M278.27808,168.10765c0,6.23229 -5.41788,11.28455 -12.10119,11.28455c-4.63296,0 -8.65782,-2.42784 -10.69133,-5.9936c1.00795,0.27578 2.06783,0.42289 3.16155,0.42289c6.69543,0 12.12315,-5.51272 12.12315,-12.31301c0,-1.43116 -0.24041,-2.80531 -0.68245,-4.08302c4.7641,1.51634 8.19027,5.72617 8.19027,10.68221z" fill="#8d6e47"/></g></g><path d="M266.63154,178.14136c-5.69137,0 -10.30516,-4.49223 -10.30516,-10.0337c0,-5.54145 4.61376,-10.03369 10.30516,-10.03369c5.6914,0 10.30517,4.49222 10.30517,10.03369c0,5.54146 -4.61379,10.0337 -10.30517,10.0337z" fill="#000000"/></g></g></g></g></g></svg>