<svg version="1.1" xmlns="http://www.w3.org/2000/svg" xmlns:xlink="http://www.w3.org/1999/xlink" width="34.17311" height="34.17311" viewBox="0,0,34.17311,34.17311"><g transform="translate(-222.91345,-162.91345)"><g data-paper-data="{&quot;isPaintingLayer&quot;:true}" stroke="none" stroke-miterlimit="10" stroke-dasharray="" stroke-dashoffset="0" style="mix-blend-mode: normal"><path d="M229.98312,162.91346h20.03379c3.9166,0 7.06966,3.15307 7.06966,7.06966v20.03379c0,3.91659 -3.15306,7.06966 -7.06966,7.06966h-20.03379c-3.91659,0 -7.06966,-3.15307 -7.06966,-7.06966v-20.03379c0,-3.91659 3.15307,-7.06966 7.06966,-7.06966z" fill="#59220f" fill-rule="evenodd" stroke-width="4.43922" stroke-linecap="round" stroke-linejoin="round"/><g fill-rule="nonzero" stroke-width="0" stroke-linecap="butt" stroke-linejoin="miter"><path d="M242.40176,191.8044c-0.99522,0.75289 -2.68881,1.58073 -4.52601,2.19883c-2.14614,0.72203 -4.47045,1.24041 -6.31521,0.04992c-1.70028,-1.09725 -2.04522,-3.35194 -2.53317,-5.54838c-0.65588,-2.9523 -1.05291,-5.91085 -0.43319,-6.87116c0.66561,-1.03143 2.97977,-1.23071 5.42749,-0.78898c1.52671,0.27552 2.97578,0.67463 4.50681,1.66265c0.78606,0.50727 4.50295,0.6322 6.75964,1.27501c2.15821,0.61476 2.87702,1.75923 2.87702,1.75923c0,0 -5.40938,5.99507 -5.76337,6.26286z" fill="#6d4321"/><path d="M234.99409,168.48521c0,0 0.53389,-0.8273 0.86482,-1.34011c0.21932,-0.33986 0.88978,-1.32924 1.59512,-1.70019c0.72861,-0.38319 1.49494,-0.14029 1.87086,0.0062c0.6621,0.25799 5.08609,2.57581 9.38152,8.53263c4.16087,5.77022 2.7941,8.59418 2.7941,8.59418c0,0 -1.57095,1.10414 -2.29861,1.95233c-0.54829,0.6391 -1.66125,1.6564 -1.66125,1.6564c0,0 -0.54053,-4.07079 -4.33212,-9.21954c-4.11103,-5.58253 -8.21444,-8.48189 -8.21444,-8.48189z" fill="#000000"/></g></g></g></svg>