<svg version="1.1" xmlns="http://www.w3.org/2000/svg" xmlns:xlink="http://www.w3.org/1999/xlink" width="94.04938" height="346.31347" viewBox="0,0,94.04938,346.31347"><g transform="translate(-192.97531,-66.05717)"><g data-paper-data="{&quot;isPaintingLayer&quot;:true}" fill-rule="nonzero" stroke-linejoin="miter" stroke-miterlimit="10" stroke-dasharray="" stroke-dashoffset="0" style="mix-blend-mode: normal"><g fill="#000000" stroke="none" stroke-linecap="butt"><path d="M200.58117,186.1596c0,-21.10292 18.15751,-38.21022 40.55593,-38.21022c22.39843,0 40.82079,17.1073 40.82079,38.21022c0,2.70002 0.0039,117.77204 0.0039,117.77204l-11.39983,-0.12964l-0.14337,-113.82486c0,0 0.46851,-2.08621 -1.77595,-2.22047c-2.48625,-0.14872 -2.11767,1.68282 -2.11767,1.68282l0.10343,114.38802l-50.32146,0.07847l0.10485,-114.20488c0,0 -0.19035,-2.13951 -1.8053,-2.16297c-2.01199,-0.02922 -1.98832,2.04221 -1.98832,2.04221l-0.29988,114.25674l-11.38239,0.22905c0,0 -0.35473,-116.42094 -0.35473,-117.90653z" stroke-width="0"/><path d="M202.86636,187.26733c0,-20.02201 17.22746,-36.58913 38.47861,-36.58913c21.25115,0 38.72991,16.56711 38.72991,36.58913c0,2.56173 0.00369,114.79215 0.00369,114.79215l-7.50523,0.21307l0.19503,-111.38321c0,0 0.08238,-5.30397 -4.03353,-5.43136c-4.01424,-0.25313 -4.29562,4.92124 -4.29562,4.92124l-0.56401,112.58967l-45.42645,-0.26162l0.09948,-112.07984c0,0 0.71386,-5.00198 -3.49923,-5.04073c-4.92978,-0.04534 -4.96689,4.92616 -4.96689,4.92616l0.56795,112.12904l-7.39669,-0.11875c0,0 -0.38702,-113.84632 -0.38702,-115.25581z" stroke-width="0"/><g><path d="M230.02071,204.89614c-5.66213,0 -7.34973,-0.4705 -7.34973,-0.4705l-0.08286,-1.2733c0,0 5.25623,0.13066 7.69744,0.13066c4.20542,0 7.61458,-1.35635 7.61458,-0.87378c0,0.48257 -1.95246,2.48691 -7.87944,2.48691z" stroke-width="0"/><path d="M225.51815,199.65348c0,-0.55682 0.44467,-1.00821 0.99321,-1.00821c0.54854,0 0.99321,0.45139 0.99321,1.00821c0,0.55682 -0.44467,1.00821 -0.99321,1.00821c-0.54854,0 -0.99321,-0.45139 -0.99321,-1.00821z" stroke-width="0.5"/></g><g data-paper-data="{&quot;index&quot;:null}"><path d="M244.83592,202.40924c0,-0.48257 3.40916,0.87378 7.61458,0.87378c2.44121,0 7.69744,-0.13066 7.69744,-0.13066l-0.08286,1.2733c0,0 -1.6876,0.4705 -7.34973,0.4705c-5.92698,0 -7.87944,-2.00433 -7.87944,-2.48691z" stroke-width="0"/><path d="M256.2247,200.66167c-0.54853,0 -0.99321,-0.45139 -0.99321,-1.00821c0,-0.55682 0.44467,-1.00821 0.99321,-1.00821c0.54853,0 0.99321,0.45139 0.99321,1.00821c0,0.55682 -0.44467,1.00821 -0.99321,1.00821z" stroke-width="0.5"/></g><path d="M240.38316,253.12202c0,-0.55681 0.44467,-1.00821 0.99321,-1.00821c0.54854,0 0.99321,0.45139 0.99321,1.00821c0,0.55681 -0.44467,1.00821 -0.99321,1.00821c-0.54854,0 -0.99321,-0.45139 -0.99321,-1.00821z" stroke-width="0.5"/></g><g data-paper-data="{&quot;index&quot;:null}"><path d="M261.37771,309.73291v-102.61797h23.47775v102.61797z" fill="#6d4321" stroke="none" stroke-width="0" stroke-linecap="butt"/><path d="M261.37771,309.73291v-102.61797h23.47775c0,0 0,4.27409 0,8.73739c0,1.31204 -12.64635,5.95676 -12.65823,8.20441c-0.46882,88.68542 12.65823,85.67617 12.65823,85.67617z" fill="#59220f" stroke="none" stroke-width="0" stroke-linecap="butt"/><path d="M265.42769,208.86883c-4.79963,-1.91074 4.20747,-7.06413 4.03176,-2.94294c-1.37808,32.3212 -1.63322,105.80251 -1.63322,105.80251l-24.37331,2.42704c0,0 6.35349,-90.19679 6.57109,-135.21654c0.06824,-14.11959 5.94973,-30.13767 5.94973,-30.13767c0,0 27.10175,9.59157 28.4957,30.92623c0.30586,4.68135 1.56503,28.10232 1.56503,28.10232c0,0 -17.73343,2.18293 -20.60676,1.03905z" fill="#773128" stroke="none" stroke-width="0" stroke-linecap="butt"/><path d="M245.21333,316.43138c0,0 5.27253,-86.92172 7.40118,-138.64506c0.37623,-9.14182 5.75842,-25.68553 5.75842,-25.68553" fill="none" stroke-opacity="0.22581" stroke="#000000" stroke-width="3.5" stroke-linecap="round"/><path d="M243.82213,315.04018c0,0 5.27253,-86.92173 7.40118,-138.64506c0.37623,-9.14182 2.77728,-18.72952 2.77728,-18.72952" fill="none" stroke="#8d6e47" stroke-width="3.5" stroke-linecap="round"/><path d="M278.0106,171.54828c2.68266,3.53502 3.93304,24.55507 3.93304,28.87494c0,2.79927 -6.88169,4.00424 -14.31996,4.50569c-0.16612,-0.26647 -0.33236,-0.53224 -0.49859,-0.79732c-2.84721,-4.54038 -5.89578,-9.18905 -9.87041,-12.8367c0.9627,-12.68293 3.59697,-29.80374 3.59697,-32.47445c0,-4.31986 13.38444,7.75406 17.15895,12.72784z" fill="#894939" stroke="none" stroke-width="0" stroke-linecap="butt"/><path d="M257.03978,194.42306c3.00825,3.12888 5.44454,6.87069 7.73691,10.51886c-2.83235,0.13626 -5.19679,0.1734 -6.37943,0.1734c-1.44907,0 -1.69009,-4.49178 -1.35748,-10.69226z" fill="#894939" stroke="none" stroke-width="0" stroke-linecap="butt"/><path d="M277.12441,175.11827c2.38628,8.8732 3.38876,23.38454 3.38876,24.6444c0,1.1986 -1.30475,1.93688 -3.0149,2.39039c-1.34879,-6.76272 -6.60056,-10.79327 -11.49641,-15.35662c-1.93256,-1.80131 -3.76321,-3.76438 -5.8256,-5.41912c0,0 -0.09818,-0.07854 -0.25716,-0.15467c0.98093,-8.24977 3.36876,-18.93041 3.36876,-19.76132c0,-1.61941 11.78228,6.01827 13.83655,13.65694z" fill="#a1634f" stroke="none" stroke-width="0" stroke-linecap="butt"/><path d="M259.62477,184.17633c1.62044,1.42047 3.11476,3.00749 4.69124,4.46616c4.4148,4.08488 9.5417,7.81409 10.73539,13.96256c-1.81112,0.22452 -3.62667,0.2599 -4.65882,0.2599c-0.87121,0 -3.91998,-6.76712 -10.10809,-12.20511c-0.79771,-0.70102 -0.9103,-3.2095 -0.65972,-6.48352z" fill="#a1634f" stroke="none" stroke-width="0" stroke-linecap="butt"/><path d="M252.8381,260.98824c0.74243,-0.88654 1.46496,-1.79368 2.16662,-2.72154c4.48303,-6.42911 9.12422,-13.54176 11.52661,-21.10037c-0.7429,12.90901 -1.74591,30.31083 -2.10567,51.8073c-0.46503,27.78677 -15.13574,21.47913 -15.15986,18.91825c-0.06929,-7.35476 1.89522,-27.58281 3.57231,-46.90364z" fill="#894939" stroke="none" stroke-width="0" stroke-linecap="butt"/><path d="M254.7299,236.22111c3.30295,-2.42631 6.48885,-4.99984 9.44792,-7.83302c0.45379,-0.43448 0.92,-0.89641 1.3856,-1.38195c-0.31423,2.88783 -0.34287,5.78959 -1.17167,8.60893c-2.19225,7.45731 -6.7554,14.48824 -11.16363,20.82887c0.55276,-6.52505 1.05058,-12.81728 1.4008,-18.32658c0.04072,-0.64045 0.07412,-1.27298 0.10098,-1.89625z" fill="#894939" stroke="none" stroke-width="0" stroke-linecap="butt"/><path d="M256.25323,211.92134c1.12977,-1.60867 8.34297,-1.49264 9.61672,-1.49264c1.35408,0 1.67276,3.51028 1.48231,10.29886c-1.26171,2.22033 -3.29676,4.32096 -4.9034,5.85479c-2.41366,2.30428 -4.97854,4.43202 -7.63383,6.44809c0.08132,-7.64885 -0.7218,-13.33372 -0.7218,-14.13522c0,-2.11218 -0.02358,-3.86472 2.16,-6.97387z" fill="#894939" stroke="none" stroke-width="0" stroke-linecap="butt"/><path d="M264.72808,212.15226c1.87949,0 1.77345,3.38073 1.77345,5.89554c0,0.9503 -1.04467,2.60862 -2.4459,4.30416c-2.43831,-1.07447 -4.93874,-2.02818 -7.503,-2.84605c0.13,-1.7287 0.26681,-3.2582 0.26681,-4.04639c0,-2.51481 6.02916,-3.30725 7.90865,-3.30725z" fill="#a1634f" stroke="none" stroke-width="0" stroke-linecap="butt"/><path d="M256.38574,222.07856c2.01294,0.66018 3.98208,1.40744 5.90961,2.23329c-1.97862,2.03893 -4.09673,3.7238 -4.98916,3.7238c-1.00706,0 -1.07467,-2.88857 -0.92045,-5.95709z" fill="#a1634f" stroke="none" stroke-width="0" stroke-linecap="butt"/><path d="M263.24221,232.09164c1.86041,0.29862 -1.41958,7.77853 -4.43866,13.37572c-1.21071,-0.44833 -2.42667,-0.86857 -3.64788,-1.26424c0.46015,-3.09505 0.99272,-6.11046 0.99272,-6.64732c0,-1.16476 5.94379,-5.64875 7.09382,-5.46416z" fill="#a1634f" stroke="none" stroke-width="0" stroke-linecap="butt"/><path d="M254.80624,246.71551c0.92442,0.30455 1.8457,0.62386 2.76384,0.95956c-1.32289,2.27944 -2.42588,3.87662 -2.76375,3.87662c-0.48081,0 -0.33597,-2.18647 -0.00008,-4.83619z" fill="#a1634f" stroke="none" stroke-width="0" stroke-linecap="butt"/><path d="M276.61668,274.27942c-2.18356,-22.7038 -2.55182,-50.10171 -1.15923,-50.10171c2.2784,0 7.72577,-4.8544 7.72577,-2.70027c0,0.95646 -0.95628,15.56201 -0.93578,33.11142c0.02567,21.97507 0.35038,39.95671 -0.91638,39.95671c-0.88582,0 -3.32542,-5.82433 -4.71438,-20.26615z" fill-opacity="0.50806" fill="#8d6e47" stroke="none" stroke-width="0" stroke-linecap="butt"/></g><path d="M199.61145,309.73291v-102.61797h23.47775v102.61797z" fill="#6d4321" stroke="none" stroke-width="0" stroke-linecap="butt"/><path d="M199.61145,309.73291c0,0 13.12706,3.00925 12.65823,-85.67617c-0.01188,-2.24765 -12.65823,-6.89237 -12.65823,-8.20441c0,-4.46329 0,-8.73739 0,-8.73739h23.47775v102.61797z" fill="#59220f" stroke="none" stroke-width="0" stroke-linecap="butt"/><path d="M198.43246,207.82979c0,0 1.25916,-23.42097 1.56503,-28.10232c1.39395,-21.33466 28.49569,-30.92623 28.49569,-30.92623c0,0 5.88148,16.01808 5.94973,30.13767c0.21759,45.01975 6.57109,135.21655 6.57109,135.21655l-24.37331,-2.42704c0,0 -0.25514,-73.48131 -1.63322,-105.80251c-0.17571,-4.12119 8.83139,1.0322 4.03176,2.94294c-2.87333,1.14388 -20.60676,-1.03905 -20.60676,-1.03905z" fill="#773128" stroke="none" stroke-width="0" stroke-linecap="butt"/><path d="M226.09397,152.10079c0,0 5.38219,16.54371 5.75842,25.68553c2.12866,51.72333 7.40118,138.64506 7.40118,138.64506" fill="none" stroke-opacity="0.22581" stroke="#000000" stroke-width="3.5" stroke-linecap="round"/><path d="M230.46632,157.6656c0,0 2.40105,9.58771 2.77728,18.72952c2.12866,51.72333 7.40118,138.64506 7.40118,138.64506" fill="none" stroke="#8d6e47" stroke-width="3.5" stroke-linecap="round"/><path d="M223.61526,158.82044c0,2.6707 2.63427,19.79152 3.59697,32.47445c-3.97463,3.64765 -7.0232,8.29633 -9.87041,12.8367c-0.16623,0.26508 -0.33247,0.53086 -0.49859,0.79732c-7.43828,-0.50145 -14.31996,-1.70642 -14.31996,-4.50569c0,-4.31986 1.25038,-25.33992 3.93304,-28.87494c3.77451,-4.97378 17.15895,-17.04771 17.15895,-12.72784z" fill="#894939" stroke="none" stroke-width="0" stroke-linecap="butt"/><path d="M226.06965,205.11532c-1.18264,0 -3.54709,-0.03715 -6.37943,-0.1734c2.29237,-3.64817 4.72866,-7.38998 7.73691,-10.51886c0.33261,6.20048 0.0916,10.69226 -1.35748,10.69226z" fill="#894939" stroke="none" stroke-width="0" stroke-linecap="butt"/><path d="M221.17905,161.46133c0,0.83091 2.38783,11.51154 3.36876,19.76132c-0.15898,0.07612 -0.25716,0.15467 -0.25716,0.15467c-2.0624,1.65474 -3.89304,3.61781 -5.8256,5.41912c-4.89586,4.56334 -10.14762,8.5939 -11.49641,15.35662c-1.71015,-0.45351 -3.0149,-1.19179 -3.0149,-2.39039c0,-1.25986 1.00248,-15.7712 3.38876,-24.6444c2.05427,-7.63867 13.83655,-15.27634 13.83655,-13.65694z" fill="#a1634f" stroke="none" stroke-width="0" stroke-linecap="butt"/><path d="M224.18241,190.65985c-6.18811,5.43798 -9.23688,12.20511 -10.10809,12.20511c-1.03215,0 -2.8477,-0.03538 -4.65882,-0.2599c1.19369,-6.14847 6.32059,-9.87769 10.73539,-13.96256c1.57648,-1.45867 3.0708,-3.04569 4.69124,-4.46616c0.25058,3.27402 0.13799,5.7825 -0.65973,6.48352z" fill="#a1634f" stroke="none" stroke-width="0" stroke-linecap="butt"/><path d="M235.20111,307.89189c-0.02412,2.56087 -14.69483,8.86852 -15.15986,-18.91825c-0.35976,-21.49646 -1.36277,-38.89829 -2.10567,-51.8073c2.40239,7.55861 7.04358,14.67126 11.52661,21.10037c0.70166,0.92786 1.42419,1.835 2.16662,2.72154c1.67709,19.32083 3.64159,39.54889 3.57231,46.90364z" fill="#894939" stroke="none" stroke-width="0" stroke-linecap="butt"/><path d="M229.83799,238.11737c0.35022,5.50931 0.84804,11.80154 1.4008,18.32658c-4.40822,-6.34063 -8.97138,-13.37156 -11.16363,-20.82887c-0.8288,-2.81933 -0.85744,-5.7211 -1.17167,-8.60893c0.4656,0.48554 0.93181,0.94746 1.3856,1.38195c2.95907,2.83318 6.14497,5.4067 9.44792,7.83302c0.02686,0.62328 0.06027,1.25581 0.10098,1.89625z" fill="#894939" stroke="none" stroke-width="0" stroke-linecap="butt"/><path d="M230.37368,218.89521c0,0.8015 -0.80313,6.48637 -0.7218,14.13522c-2.65529,-2.01607 -5.22017,-4.1438 -7.63383,-6.44809c-1.60664,-1.53383 -3.64168,-3.63446 -4.9034,-5.85479c-0.19045,-6.78858 0.12823,-10.29886 1.48231,-10.29886c1.27375,0 8.48695,-0.11603 9.61673,1.49264c2.18358,3.10915 2.16,4.86169 2.16,6.97387z" fill="#894939" stroke="none" stroke-width="0" stroke-linecap="butt"/><path d="M227.64747,215.45952c0,0.78819 0.13681,2.31769 0.26681,4.04639c-2.56426,0.81787 -5.0647,1.77159 -7.50301,2.84605c-1.40124,-1.69554 -2.4459,-3.35386 -2.4459,-4.30416c0,-2.51481 -0.10604,-5.89554 1.77345,-5.89554c1.87949,0 7.90865,0.79244 7.90865,3.30725z" fill="#a1634f" stroke="none" stroke-width="0" stroke-linecap="butt"/><path d="M227.16072,228.03566c-0.89243,0 -3.01054,-1.68487 -4.98916,-3.7238c1.92753,-0.82585 3.89667,-1.57312 5.90961,-2.23329c0.15422,3.06852 0.08661,5.95709 -0.92045,5.95709z" fill="#a1634f" stroke="none" stroke-width="0" stroke-linecap="butt"/><path d="M228.31851,237.55579c0,0.53687 0.53257,3.55228 0.99272,6.64732c-1.2212,0.39567 -2.43716,0.81591 -3.64787,1.26424c-3.01907,-5.59719 -6.29907,-13.0771 -4.43866,-13.37572c1.15003,-0.1846 7.09382,4.2994 7.09382,5.46416z" fill="#a1634f" stroke="none" stroke-width="0" stroke-linecap="butt"/><path d="M229.66058,251.5517c-0.33787,0 -1.44086,-1.59718 -2.76375,-3.87662c0.91814,-0.3357 1.83942,-0.65501 2.76384,-0.95956c0.33588,2.64972 0.48073,4.83619 -0.00008,4.83619z" fill="#a1634f" stroke="none" stroke-width="0" stroke-linecap="butt"/><path d="M203.13586,294.54558c-1.26676,0 -0.94205,-17.98164 -0.91638,-39.9567c0.0205,-17.54942 -0.93578,-32.15497 -0.93578,-33.11142c0,-2.15412 5.44737,2.70027 7.72577,2.70027c1.39258,0 1.02433,27.3979 -1.15923,50.10171c-1.38896,14.44182 -3.82856,20.26615 -4.71438,20.26615z" fill-opacity="0.50806" fill="#8d6e47" stroke="none" stroke-width="0" stroke-linecap="butt"/><g stroke="none" stroke-width="0" stroke-linecap="butt"><path d="M242.95821,383.57132c2.43322,0.87546 10.2794,6.74227 10.47387,7.5827c0.00356,0.0154 -3.60646,9.41481 -12.96854,11.71964c-7.23925,1.78222 -13.1863,0.38202 -17.94956,-2.38016c-7.19709,-4.17354 -10.72504,-11.68248 -10.72504,-11.68248c0,0 4.427,-8.15842 10.87184,-8.94154c4.69954,-0.20992 6.78698,3.39108 11.1876,3.78179c3.93385,0.34927 7.04828,-0.63473 9.10983,-0.07996z" fill="#000000"/><path d="M240.97687,389.75017c-5.08181,-0.86959 -4.99159,-2.60619 -12.59861,-2.79594c-1.46282,-0.03648 -5.64011,0.69298 -9.19027,1.11197c-2.18895,0.25834 -4.60787,0.09549 -4.60787,0.09549c0,0 1.28598,-2.26487 3.38801,-3.92833c1.87805,-1.48621 4.71078,-2.14214 5.84327,-2.13267c3.4543,0.02889 7.47605,2.63229 9.31987,2.87576c2.77328,0.3662 6.45799,-0.28943 9.82334,0.35137c1.21452,0.23126 7.3624,5.46962 7.3624,5.46962c0,0 -3.49271,-0.04668 -9.34014,-1.04728z" fill="#ffffff"/><path d="M250.14298,394.98688c-0.88438,0.90954 -7.6232,7.77837 -19.70194,5.54395c-2.61289,-0.44849 -6.06797,-1.71333 -7.89954,-2.72141c-6.08308,-3.34805 -7.96141,-7.49546 -7.96141,-7.49546c0,0 3.02958,0.10027 7.68857,1.111c3.52251,0.76418 6.88768,2.10208 11.72217,2.25337c3.27078,0.19758 6.11362,-0.60437 9.9781,-1.02103c3.8982,-0.42029 7.85939,-0.14428 7.85939,-0.14428c0,0 0.40879,0.32014 -1.68533,2.47386z" fill="#ffffff"/><path d="M240.09916,391.48264c-0.49275,0.07125 -3.56348,0.09381 -8.42791,-0.19971c-4.08889,-0.24672 -8.46384,-1.81102 -8.80722,-1.81133c-0.40138,-0.00236 4.16564,-0.57113 9.23168,-0.29933c5.0568,0.27131 7.40015,2.19406 8.00345,2.31037z" fill="#ffffff"/></g><g stroke="none" stroke-width="0" stroke-linecap="butt"><path d="M254.72418,334.67206c0.00356,0.0154 -5.18077,9.97627 -14.54285,12.2811c-7.23925,1.78222 -13.18629,0.38202 -17.94955,-2.38016c-7.19709,-4.17354 -11.35477,-12.61825 -11.35477,-12.61825c0,0 2.72674,-8.2832 10.93481,-9.19108c8.19227,-0.31731 7.72392,3.52442 12.83068,3.67615c3.81009,0.1132 6.282,-3.54182 9.64582,-2.08259c6.09308,2.64318 10.35541,9.96714 10.43587,10.31483z" fill="#000000"/><path d="M213.66817,331.11824c0,0 3.31288,-7.25577 10.17586,-6.37291c3.4543,0.02889 7.53903,3.31852 9.38285,3.56199c2.77328,0.3662 5.19853,-2.97197 10.95684,-1.89447c4.74097,1.04226 8.30698,7.71546 8.30698,7.71546c0,0 -2.32142,0.46945 -5.22606,-0.38163c-3.74886,-1.09843 -6.4329,-3.60743 -10.31014,-3.90804c-3.03519,-0.23533 -9.15507,0.12893 -14.33075,0.64796c-2.32753,0.23341 -4.41388,0.64742 -6.03002,0.79324c-1.7897,0.16147 -2.92557,-0.1616 -2.92557,-0.1616z" fill="#ffffff"/><path d="M229.52914,344.6727c-1.19186,-0.20458 -6.0872,-1.73206 -9.20999,-4.21512c-3.72321,-2.96049 -5.64339,-6.93752 -5.64339,-6.93752c0,0 3.09256,0.47457 7.75154,1.48531c3.52251,0.76418 6.88769,2.0397 11.72217,2.19098c3.27078,0.19758 5.67281,-0.0429 9.5373,-0.45956c3.8982,-0.42029 8.11128,-0.8929 8.11128,-0.8929c0,0 -1.35444,2.50361 -3.44857,4.65733c0,0 -6.74159,6.40589 -18.82033,4.17147z" fill="#ffffff"/><path d="M245.10663,334.4392c-0.49275,0.07125 -8.41236,0.21858 -13.27679,-0.07494c-4.08889,-0.24672 -10.91977,-1.74864 -11.26315,-1.74895c-0.40138,-0.00236 9.64424,-0.69589 14.71029,-0.42409c5.0568,0.27131 9.22635,2.13168 9.82965,2.24799z" fill="#ffffff"/></g><g stroke="none" stroke-width="0" stroke-linecap="butt"><path d="M243.08915,351.00092c2.8397,1.05122 6.54963,4.46527 8.34577,6.42588c0.30312,0.33087 3.08796,4.43179 3.08796,4.43179c0,0 -4.6318,7.20051 -9.03726,9.87734c-4.76766,2.89691 -10.94095,3.08451 -14.30031,2.71279c-8.04786,-0.8905 -11.88642,-4.23019 -14.95764,-7.28491c-4.78864,-4.76292 -4.83017,-9.57422 -4.83017,-9.57422c0,0 1.55136,-4.08595 4.78448,-6.21945c1.91315,-1.26246 5.02603,-2.02548 8.28433,-1.85168c3.25107,0.34762 10.62877,3.63507 10.62877,3.63507c0,0 5.78196,-2.97151 7.99407,-2.15262z" fill="#000000"/><path d="M212.94408,358.39696c0,0 1.1232,-2.72279 3.29125,-4.71393c1.0146,-0.93182 3.19249,-1.84956 3.88739,-1.98651c4.32407,-0.85218 12.99345,1.86111 15.11029,2.89285c0.08772,0.04275 5.3756,-2.14853 8.25281,-1.3794c3.93033,1.05063 8.59566,7.88513 8.59566,7.88513c0,0 -2.87105,-0.00209 -6.57474,-1.06023c-3.70814,-1.05941 -8.2509,-3.17499 -11.5825,-3.40467c-3.3325,-0.22975 -8.9151,0.63798 -13.48411,1.16118c-4.17021,0.47753 -7.49605,0.60558 -7.49605,0.60558z" fill="#ffffff"/><path d="M214.0776,360.42447c0,0 5.79773,1.12278 11.47958,2.27187c2.9952,0.60575 5.82179,1.4891 8.04664,1.63115c3.03872,0.19401 7.41156,-0.51316 11.1625,-0.94869c3.62742,-0.42119 6.68546,-0.56812 6.68546,-0.56812c0,0 -2.67015,5.57709 -9.40573,7.96491c-7.01412,2.48656 -15.64347,0.55908 -17.40114,-0.23129c-7.24898,-3.25962 -10.56731,-10.11984 -10.56731,-10.11984z" fill="#ffffff"/><path d="M244.47097,361.43734c-0.39535,0.02316 -6.96664,0.213 -12.87765,-0.24257c-6.33559,-0.48829 -12.02509,-1.6252 -12.02324,-1.62668c0,0 7.9493,-1.08561 14.21746,-0.61498c2.2447,0.16854 3.50723,0.09754 5.2477,0.49491c0.75405,0.17216 1.46725,0.50553 2.11375,0.72203c1.96891,0.65936 3.31934,1.26726 3.32197,1.26728z" fill="#ffffff"/></g><g stroke="none" stroke-width="0" stroke-linecap="butt"><path d="M248.11651,390.44074c2.6538,-2.09259 6.64263,-5.4426 9.1687,-5.99791c3.28821,-0.72285 10.65244,3.64077 10.65244,3.64077c0,0 2.73902,-1.63397 5.17427,-2.52791c1.44771,-0.53143 2.16904,-0.74504 3.84174,-0.35271c5.52499,1.29588 9.69835,9.10468 9.69835,9.10468c0,0 1.74728,18.38348 -20.27694,18.05872c-12.56182,-0.18523 -15.73974,-4.79073 -18.08775,-10.1954c-2.09653,-4.82579 -2.80256,-9.77808 -2.80256,-9.77808c0,0 1.26755,-0.87646 2.63175,-1.95217z" fill="#000000"/><path d="M248.26985,392.47995c0,0 5.98334,-5.92226 10.17713,-5.8315c3.12924,0.06772 9.49135,2.68478 9.49135,2.68478c0,0 5.01946,-3.30759 9.74197,-1.71677c4.62064,1.5565 6.53475,6.08197 6.53475,6.08197c0,0 -1.75285,0.09373 -4.51819,-0.31277c-3.70241,-0.54424 -5.18332,-1.64025 -12.37901,-1.75436c-3.5013,-0.05552 -9.61046,0.61408 -13.88238,0.88891c-3.16635,0.2037 -5.16561,-0.04026 -5.16561,-0.04026z" fill="#ffffff"/><path d="M253.17955,395.7274c1.62911,0.97357 2.32951,2.80459 5.39597,4.66852c2.45791,1.49401 5.25307,1.78241 8.23082,1.89142c2.39934,0.08784 6.8224,-0.54869 9.48899,-1.98616c2.15922,-1.16396 2.62734,-3.06287 4.19413,-3.87199c3.19008,-1.64742 4.2478,-0.90304 4.2478,-0.90304c0,0 -0.08759,4.80134 -2.97241,8.80526c-2.34762,3.25833 -6.40073,5.87098 -14.959,5.89214c-8.97785,0.0222 -12.3974,-2.61284 -14.87031,-5.99489c-3.22062,-4.40464 -3.92678,-9.83395 -3.92678,-9.83395c0,0 2.48236,-0.27392 5.17079,1.3327z" fill="#ffffff"/><path d="M255.40665,394.91691c0,0 1.03291,-0.34116 3.4142,0.46341c2.36691,0.79971 3.465,2.78822 7.98844,2.81092c5.44137,0.0273 5.66926,-1.29529 8.03462,-1.92664c2.35219,-0.62784 3.27871,-0.56438 3.27871,-0.56438c0,0 -0.93214,2.36963 -4.84707,3.43413c-3.66361,0.99617 -10.27463,0.7088 -11.69525,0.24374c-3.66414,-1.19951 -6.17366,-4.46118 -6.17366,-4.46118z" fill="#ffffff"/></g><path d="M193.38453,137.35432c0,0 4.75839,-5.12941 6.10536,-8.45329c2.88904,-7.12918 2.85124,-13.03672 2.85124,-13.03672l0.7777,-6.48841c0,0 0.2475,-17.60523 8.9764,-29.16254c6.74693,-8.93313 20.64648,-12.51508 30.3551,-12.44472c8.42215,0.06104 22.55613,3.08573 28.68941,10.58184c10.08388,12.32455 6.38707,19.81995 10.11,32.42062c3.72078,12.59341 5.77495,16.18431 5.77495,16.18431c0,0 -1.64899,-0.1627 -2.4478,-0.70191c-3.35821,-2.26684 -4.77049,-4.144 -4.77049,-4.144c0,0 2.51404,9.65365 0.49901,21.29599c-1.43966,8.31802 -7.42166,16.10527 -7.42166,16.10527l-1.17358,-2.98711c0,0 -0.27736,1.51046 -1.52332,3.13635c-1.38133,1.80253 -3.94985,3.49671 -3.94985,3.49671l0.00318,-3.58884c0,0 -4.58502,5.92133 -10.91754,9.01637c-6.10567,2.98416 -11.80358,2.51788 -14.49123,2.46803c-14.12802,-0.26204 -24.08852,-10.83115 -24.08852,-10.83115l-1.5995,1.70352c0,0 -3.09691,-2.20769 -5.16904,-7.29265c-3.07463,-7.54506 -3.82841,-13.97384 -3.82841,-13.97384c0,0 -3.51398,2.22964 -6.51964,2.91866c-3.62077,0.83002 -6.65099,0.20519 -6.65099,0.20519c0,0 3.61051,-2.54967 5.08456,-3.95508c1.38725,-1.32265 3.51514,-4.24416 3.51514,-4.24416c0,0 -3.21775,1.31904 -4.68875,1.66038c-2.24208,0.52027 -3.5017,0.11114 -3.5017,0.11114z" fill="#000000" stroke="none" stroke-width="NaN" stroke-linecap="butt"/><g><path d="M210.47873,118.08363c0.96521,-0.18364 5.78639,4.94033 6.72949,9.89722c0.94309,4.95689 -0.15061,10.72809 -0.15061,10.72809c0,0 -6.46652,-3.53164 -7.66724,-8.4325c-3.07712,-12.5596 0.12316,-12.00917 1.08836,-12.19281z" fill="#000000" stroke="none" stroke-width="0" stroke-linecap="butt"/><path d="M210.20635,119.1361c1.31694,-0.1432 3.38354,5.86128 4.11895,9.72657c0.73541,3.86529 0.71005,7.6557 0.71005,7.6557c0,0 -4.13639,-3.64493 -5.07269,-7.46653c-2.39948,-9.79373 -0.51797,-9.83292 0.24369,-9.91574z" fill="#ffffff" stroke="none" stroke-width="0" stroke-linecap="butt"/><path d="M214.77995,133.80813c0,0 -3.02608,-5.45514 -3.46106,-7.54108c-0.69361,-3.32613 1.47037,-3.38348 1.47037,-3.38348" fill="none" stroke="#000000" stroke-width="0.5" stroke-linecap="round"/></g><g data-paper-data="{&quot;index&quot;:null}"><path d="M274.23604,130.15072c-1.20072,4.90086 -7.66724,8.4325 -7.66724,8.4325c0,0 -1.0937,-5.77121 -0.15061,-10.7281c0.9431,-4.95689 5.76428,-10.08085 6.72949,-9.89722c0.96521,0.18363 4.16548,-0.36679 1.08836,12.19281z" fill="#000000" stroke="none" stroke-width="0" stroke-linecap="butt"/><path d="M273.66378,128.92612c-0.93629,3.8216 -5.0727,7.46653 -5.0727,7.46653c0,0 -0.02536,-3.79041 0.71005,-7.6557c0.73541,-3.86529 2.80201,-9.86976 4.11895,-9.72656c0.76166,0.08282 2.64317,0.12201 0.2437,9.91574z" fill="#ffffff" stroke="none" stroke-width="0" stroke-linecap="butt"/><path d="M270.83713,122.75787c0,0 2.16397,0.05735 1.47037,3.38348c-0.43498,2.08594 -3.46106,7.54108 -3.46106,7.54108" fill="none" stroke="#000000" stroke-width="0.5" stroke-linecap="round"/></g><path d="M217.45332,155.13807c-1.12791,-6.71582 -0.20637,-6.94188 -1.0642,-13.44379c-0.47362,-3.58977 -2.15797,-7.18909 -2.73202,-11.13223c-1.20896,-8.30433 -1.27196,-25.65977 -0.47554,-29.40025c4.41933,-20.75585 15.3863,-24.96608 29.85603,-25.48425c20.77576,-0.74399 24.79696,12.48506 27.42961,23.79025c1.84023,7.90235 1.22737,18.92724 -0.34916,28.57116c-0.96559,5.90663 -2.47529,10.80823 -3.46814,15.58687c-1.22544,5.89815 -0.7524,7.76045 -1.86263,12.66938c-1.15349,5.10023 -6.83176,10.81045 -11.83191,15.83737c-4.57165,4.59612 -7.90818,8.33063 -12.38271,8.22359c-5.04445,-0.12068 -8.96195,-6.22631 -14.50155,-12.44391c-4.38889,-4.92605 -8.03319,-9.29321 -8.61781,-12.77419z" fill="#000000" stroke="none" stroke-width="0" stroke-linecap="butt"/><path d="M217.25873,136.31652c-0.94553,-5.09249 -3.54204,-4.25562 -2.79146,-22.70284c0.35027,-8.60857 1.58748,-16.65181 3.61898,-20.76639c6.59974,-13.36702 19.1364,-15.03633 24.02784,-15.03633c4.16055,0 17.20519,1.95486 23.80596,13.20532c1.38921,2.3678 2.77649,5.92394 3.26517,9.93109c0.50548,4.1449 0.08725,8.75725 0.02672,12.11153c-0.10696,5.92699 0.23361,11.79227 -1.04001,17.97375c-0.62848,3.05035 -1.86346,6.18514 -2.54274,8.95491c-0.73442,2.99462 -13.07194,12.048 -13.07194,12.048c0,0 5.96454,1.12511 9.15079,1.20617c2.19607,0.05587 -8.55264,1.15624 -8.55264,1.15624c0,0 9.12119,3.92862 8.86395,4.56981c-0.63255,1.57663 -1.35774,2.33209 -2.67853,3.99065c-2.5746,3.23301 -6.22007,6.15229 -9.11253,8.91074c-2.62204,2.50056 -5.47801,6.21315 -8.77908,6.21315c-4.10432,0 -6.9048,-3.78999 -10.07829,-7.4154c-4.79276,-5.47527 -11.46201,-7.91572 -13.04194,-17.80658c-0.63652,-3.98482 0.06119,-10.45004 -1.07025,-16.54383z" fill="#ffffff" stroke="none" stroke-width="0" stroke-linecap="butt"/><g stroke="none" stroke-width="0" stroke-linecap="butt"><path d="M228.24267,117.22632c5.64136,0 10.21459,4.47197 10.21459,9.98843c0,5.51646 -4.7706,9.74171 -10.41197,9.74171c-5.64137,0 -10.31875,-4.22525 -10.31875,-9.74171c0,-5.51645 4.87476,-9.98843 10.51613,-9.98843z" fill="#000000"/><path d="M228.24267,117.4807c4.97522,0 8.78866,3.85659 8.78866,8.8032c0,4.94661 -4.01083,9.08774 -8.98605,9.08774c-4.97523,0 -8.81106,-3.98769 -8.81106,-8.9343c0,-4.94662 4.03322,-8.95664 9.00844,-8.95664z" fill="#ffffff"/></g><g stroke="none" stroke-width="0" stroke-linecap="butt"><path d="M254.80261,117.25094c5.64136,0 10.21459,4.47198 10.21459,9.98844c0,5.51645 -4.72127,9.64301 -10.36263,9.64301c-3.16285,0 -6.23667,-1.06026 -8.11031,-3.26759c-1.46826,-1.72975 -1.95625,-3.95178 -1.95625,-6.37542c0,-5.51646 4.57322,-9.98844 10.21459,-9.98844z" fill="#000000"/><path d="M254.80261,117.50532c4.97523,0 8.70691,4.08541 8.70691,9.03202c0,4.94661 -3.87973,8.68387 -8.85495,8.68387c-4.97523,0 -8.8604,-3.81265 -8.8604,-8.75926c0,-4.94661 4.03322,-8.95663 9.00844,-8.95663z" fill="#ffffff"/></g><g stroke="none" stroke-width="0" stroke-linecap="butt"><path d="M220.51562,160.98508c0,0 7.11351,-6.6883 11.32556,-7.88098c3.20664,-0.90799 9.75423,3.37906 9.75423,3.37906c0,0 6.65483,-2.60983 9.37984,-2.54055c5.26956,0.13397 10.62059,8.08688 10.62059,8.08688c0,0 0.20001,6.1307 -0.26142,11.74246c-0.52324,6.36355 -2.22045,12.43303 -11.91025,14.9306c-2.31564,0.59686 -5.89348,0.39297 -9.05498,0.35236c-5.01421,-0.06441 -8.50973,-0.56033 -11.44863,-2.29819c-4.00301,-2.3671 -5.85233,-7.57088 -6.78176,-11.29446c-0.69482,-2.78366 -1.62319,-14.47717 -1.62319,-14.47717z" fill="#000000"/><path d="M224.16348,163.38105c1.83526,1.54015 3.79122,9.87366 7.5645,12.76766c5.18773,3.97885 12.49344,2.47959 15.67682,2.55061c4.47467,0.09984 5.701,-6.10137 8.0876,-10.21318c1.82582,-3.14568 3.75352,-4.45486 3.75352,-4.45486c0,0 0.04482,4.99274 -0.357,9.38297c-0.39451,4.31027 -1.19755,7.98953 -5.24584,11.16346c-2.18264,1.71124 -9.37782,2.35798 -16.07692,2.12847c-8.88119,-0.30427 -11.14975,-5.34353 -11.76243,-6.96796c-2.56235,-6.79368 -3.43379,-16.92541 -3.43379,-16.92541c0,0 0.91661,-0.16767 1.79354,0.56825z" fill="#ffffff"/><path d="M222.08224,161.42024c0,0 7.05974,-6.39693 11.13521,-6.34209c3.85763,0.05191 9.144,3.45572 9.144,3.45572c0,0 5.15632,-3.92496 9.80721,-2.77589c5.49749,1.35824 7.59947,7.05481 7.59947,7.05481z" fill="#ffffff"/><path d="M227.73948,164.98865c0,0 1.16734,-1.11247 3.05879,1.17778c0.31326,0.37932 1.13395,2.09217 2.31183,4.07866c0.72091,1.2158 1.36867,2.52334 3.05853,3.38581c1.42592,0.72776 3.59639,0.732 5.93939,0.87354c4.50537,0.27217 6.02283,-0.9147 7.18348,-2.71705c1.33873,-2.0789 2.84305,-5.81899 3.28033,-6.24632c1.22742,-1.1995 2.93163,-0.37835 2.93163,-0.37835c0,0 -0.72987,1.05513 -1.62796,2.79834c-1.73779,3.37303 -4.5831,8.60577 -7.33739,8.73357c-7.04586,0.32693 -10.46965,0.01621 -12.67413,-1.65622c-3.90306,-2.96104 -6.12447,-10.04975 -6.12447,-10.04975z" fill="#ffffff"/></g><path d="M213.28835,120.55755l0.13102,-1.63769l7.19167,-1.18423l0.32653,-1.46623c0,0 3.68245,-1.72538 7.2562,-2.03587c3.72054,-0.32324 9.00496,-0.09575 9.00496,-0.09575l0.32754,4.71657c0,0 -4.80797,-1.2906 -8.17678,-1.07798c-6.17314,0.38961 -6.13035,1.25866 -10.09703,1.94554c-3.96668,0.68688 -5.96411,0.83565 -5.96411,0.83565z" fill="#000000" stroke="none" stroke-width="0" stroke-linecap="butt"/><path d="M257.42139,114.23903c-6.5361,-0.02665 -11.93017,2.50832 -11.93017,2.50832l-0.26203,-4.42239c0,0 5.28442,-1.73418 9.39801,-1.86949c4.11358,-0.13531 7.12519,0.66021 7.12519,0.66021l0.19551,1.20419l7.3882,2.16685l0.13101,1.6377c0,0 -5.86035,-1.86016 -12.04572,-1.88538z" data-paper-data="{&quot;index&quot;:null}" fill="#000000" stroke="none" stroke-width="0" stroke-linecap="butt"/><path d="M227.71906,122.26642c2.71342,0 4.91309,2.23007 4.91309,4.98099c0,2.75092 -2.19966,4.98098 -4.91309,4.98098c-2.71342,0 -4.91309,-2.23006 -4.91309,-4.98098c0,-2.75092 2.19966,-4.98099 4.91309,-4.98099z" fill="#000000" stroke="none" stroke-width="0" stroke-linecap="butt"/><path d="M254.87161,122.48554c2.71342,0 4.91309,2.23006 4.91309,4.98098c0,2.75092 -2.19966,4.98098 -4.91309,4.98098c-2.71342,0 -4.91309,-2.23006 -4.91309,-4.98098c0,-2.75091 2.19966,-4.98098 4.91309,-4.98098z" fill="#000000" stroke="none" stroke-width="0" stroke-linecap="butt"/><g stroke="none" stroke-width="0" stroke-linecap="butt"><path d="M238.90957,148.43544c0,0 -0.06312,-8.68679 -0.28083,-12.38791c-0.17487,-2.97289 -0.92532,-8.11666 -0.92532,-8.11666c0,0 -0.33218,-1.57308 0.02454,-1.56279c1.13657,0.03279 7.81544,1.78895 7.81544,1.78895l-0.37692,20.27841c0,0 0.82184,1.93768 0.72844,3.69896c-0.06976,1.31553 -0.97469,4.70292 -1.02626,5.67536c-0.11348,2.13998 -0.40577,3.89334 -0.40577,3.89334l-4.14036,-0.01448c0,0 -0.12488,-2.01528 -0.87252,-4.2695c-0.71961,-2.16969 -2.11593,-4.55553 -2.18508,-5.58924c-0.19994,-2.9885 1.64464,-3.39445 1.64464,-3.39445z" fill="#000000"/><path d="M241.27161,160.71335c0,0 -0.2909,-3.80356 -0.49735,-8.24071c-0.20504,-4.40659 -0.32473,-9.70108 -0.5883,-13.30096c-0.42508,-5.80554 -1.77895,-15.81414 -1.77895,-15.81414l6.10614,1.88461l-0.75385,35.43068z" fill="#ffffff"/><path d="M238.85402,149.61345c0.34401,0 0.62288,4.77542 0.62288,4.77542c0,0 -1.24576,-1.59275 -1.24576,-2.7251c0,-1.13236 0.27887,-2.05032 0.62288,-2.05032z" fill="#ffffff"/></g><path d="M210.602,111.80009v-21.15411c0,0 21.21081,-18.67174 31.8391,-18.67174c9.85589,0 29.78844,18.67174 29.78844,18.67174l0.9522,14.8825c0,0 -4.02246,-9.83788 -7.66885,-7.46317c-9.67233,6.2991 -26.0271,10.16832 -26.0271,10.16832c0,0 2.88671,-3.50484 4.29889,-5.2734c0.74057,-0.92746 1.4281,-2.38433 1.4281,-2.38433c0,0 -9.19557,5.48816 -17.51331,7.89872c-11.3727,3.29591 -17.09747,3.32547 -17.09747,3.32547z" fill="#000000" stroke="none" stroke-width="0" stroke-linecap="butt"/><path d="M217.54634,127.80709c0,0 -0.16627,-2.22288 0.81062,-4.59656c1.16899,-2.84044 3.93233,-5.91812 9.99819,-5.95021c4.4123,-0.02334 6.77688,1.48178 8.31843,3.36171c2.53146,3.08714 2.42486,7.54013 2.42486,7.54013c0,0 -5.19106,-3.58517 -11.10038,-3.55681c-5.21078,0.02501 -10.45172,3.20174 -10.45172,3.20174z" fill="#000000" stroke="none" stroke-width="0" stroke-linecap="butt"/><path d="M202.34605,110.86648c0,0 0.99196,-9.27799 2.1613,-15.12482c4.60874,-23.04421 22.67455,-37.09283 59.10178,-25.58443c12.22523,3.8623 15.8024,25.32765 15.8024,25.32765c0,0 -8.06158,9.15848 -14.8851,10.5204c-13.68921,2.73225 -62.18038,4.8612 -62.18038,4.8612z" fill="#403635" stroke="none" stroke-width="0" stroke-linecap="butt"/><path d="M244.50731,127.8285c0,0 -0.53134,-3.2454 0.9459,-6.12374c1.32927,-2.59004 4.34124,-4.84529 9.8629,-4.81608c11.13492,0.0589 11.0941,11.29489 11.0941,11.29489c0,0 -3.22532,-4.06835 -11.47667,-3.98951c-5.92658,0.05663 -10.42623,3.63444 -10.42623,3.63444z" data-paper-data="{&quot;index&quot;:null}" fill="#000000" stroke="none" stroke-width="0" stroke-linecap="butt"/><g stroke="none" stroke-width="0" stroke-linecap="butt"><g><path d="M206.28962,109.45029c0,0 -1.9375,-5.77215 -2.06706,-9.25291c-2.2361,-9.63701 1.18168,-14.53371 1.18168,-14.53371c0,0 12.4845,6.3305 15.78579,11.38131c5.25893,8.04591 6.51161,14.87725 6.51161,14.87725c0,0 -5.0569,2.49951 -12.0736,1.36971c-3.36881,-0.54244 -9.33841,-3.84165 -9.33841,-3.84165z" fill="#6d4321"/><path d="M210.66898,111.47379c0,0 -1.21828,-3.62945 -1.29975,-5.81809c-1.40602,-6.05961 -0.53979,-14.88514 -0.53979,-14.88514c0,0 10.5411,8.35188 12.6169,11.52776c3.30675,5.05916 2.68619,10.72979 2.68619,10.72979c0,0 -3.17969,1.57165 -7.5917,0.86124c-2.11827,-0.34108 -5.87186,-2.41557 -5.87186,-2.41557z" fill="#59220f"/></g><g fill-opacity="0.33871" fill="#000000"><path d="M206.28962,109.45029c0,0 -0.50193,-1.49537 -1.01194,-3.42284c1.91827,0.03428 3.8077,-0.12493 5.74575,-0.17187c4.96926,-0.12034 9.95486,0.20544 14.94032,0.43047c1.32947,3.40889 1.73788,5.63618 1.73788,5.63618c0,0 -5.05689,2.49951 -12.0736,1.36971c-3.36881,-0.54244 -9.33841,-3.84165 -9.33841,-3.84165z"/><path d="M210.66898,111.47379c0,0 -1.1259,-3.35429 -1.28533,-5.55813c0.54387,-0.02442 1.08987,-0.04677 1.63979,-0.06009c4.07656,-0.09872 8.16414,0.10279 12.25361,0.30262c1.20148,3.70808 0.85548,6.86992 0.85548,6.86992c0,0 -3.1797,1.57165 -7.59171,0.86124c-2.11827,-0.34108 -5.87185,-2.41557 -5.87185,-2.41557z"/></g></g><path d="M207.27742,120.52103c0,0 -1.34565,-2.01305 -1.26775,-4.29764c-0.01686,-2.65024 2.11401,-3.97034 2.11401,-3.97034c0,0 24.15278,0.15746 44.93605,-4.19808c9.96107,-0.85032 22.94385,-7.60156 22.94385,-7.60156c0,0 1.65293,0.5835 2.39678,3.28177c0.34188,2.98847 -1.49719,23.45453 -1.49719,23.45453c0,0 -5.78203,-13.40717 -20.71908,-11.28437c-6.0727,0.86303 -12.52378,2.5214 -19.11662,3.16372c-13.97142,1.3612 -27.55496,6.44743 -29.83002,6.45189c-0.22644,0.00044 0.03995,-4.99992 0.03995,-4.99992z" fill-opacity="0.45968" fill="#000000" stroke="none" stroke-width="0" stroke-linecap="butt"/><g data-paper-data="{&quot;index&quot;:null}" stroke="none" stroke-width="0" stroke-linecap="butt"><g><path d="M279.8432,98.14287c0,0 -5.18639,5.21094 -8.51017,6.78593c-6.92291,3.28046 -12.90918,2.21468 -12.90918,2.21468c0,0 -0.75865,-7.44784 2.26407,-17.35815c1.89751,-6.22119 12.91532,-16.52979 12.91532,-16.52979c0,0 5.01087,4.04019 5.59571,14.68796c0.91311,3.64184 0.64425,10.19935 0.64425,10.19935z" fill="#6d4321"/><path d="M275.91904,101.55489c0,0 -3.26112,3.27657 -5.35107,4.2669c-4.35303,2.0627 -8.1171,1.39256 -8.1171,1.39256c0,0 -2.34837,-5.68284 -0.44774,-11.9143c1.19311,-3.91179 9.59121,-15.72799 9.59121,-15.72799c0,0 3.55185,8.87449 3.9196,15.56964c0.57414,2.28993 0.40508,6.4132 0.40508,6.4132z" fill="#59220f"/></g><g fill-opacity="0.33871" fill="#000000"><path d="M279.84321,98.14285c0,0 -5.1864,5.21094 -8.51017,6.78594c-6.92291,3.28046 -12.90917,2.21468 -12.90917,2.21468c0,0 -0.24736,-2.42829 0.10314,-6.35672c5.09262,-1.73283 10.15509,-3.57 15.33485,-4.94048c2.02015,-0.53449 4.02375,-0.93813 5.999,-1.55075c0.05201,2.14852 -0.01765,3.84735 -0.01765,3.84735z"/><path d="M275.91904,101.55489c0,0 -3.26112,3.27657 -5.35107,4.2669c-4.35303,2.0627 -8.1171,1.39256 -8.1171,1.39256c0,0 -1.30941,-3.16864 -1.18139,-7.36827c4.17279,-1.43719 8.34311,-2.87554 12.59237,-3.99983c0.57321,-0.15167 1.1451,-0.29279 1.71538,-0.43115c0.49802,2.32911 0.34179,6.13979 0.34179,6.13979z"/></g></g><path d="M201.41006,118.49007c0,0 -1.53415,-2.29504 -1.44534,-4.89966c-0.01923,-3.02149 2.41014,-4.52651 2.41014,-4.52651c0,0 27.53614,0.17952 51.23075,-4.78615c11.35643,-0.96944 26.15785,-8.6664 26.15785,-8.6664c0,0 1.88448,0.66524 2.73253,3.74148c0.38977,3.4071 -1.4694,5.36355 -1.4694,5.36355c0,0 -6.8295,5.61622 -23.85895,8.03639c-23.05554,3.27658 -55.75759,5.7373 -55.75759,5.7373z" fill="#571c18" stroke="none" stroke-width="0" stroke-linecap="butt"/><path d="M203.83843,117.09565c-1.16965,0 -2.11784,-0.94818 -2.11784,-2.11783c0,-1.16965 0.34309,-4.53822 1.51274,-4.53822c0.51806,0 18.10748,-0.532 34.94727,-2.40805c0.02548,0.54318 0.05585,1.08562 0.08855,1.62765c-1.93557,0.44974 -4.04423,0.92949 -6.23354,1.42047c-12.58465,2.82229 -27.83454,6.01598 -28.19718,6.01598z" fill="#773128" stroke="none" stroke-width="0" stroke-linecap="butt"/><path d="M245.00559,107.18385c6.69093,-0.92727 3.05725,0.15369 -4.27189,1.89645c-0.02495,-0.44508 -0.04772,-0.89051 -0.06692,-1.3365c1.46271,-0.17588 2.91296,-0.36235 4.33881,-0.55995z" fill="#773128" stroke="none" stroke-width="0" stroke-linecap="butt"/><path d="M231.55974,110.06908c-8.02494,1.76175 -27.33674,5.66508 -28.0159,5.66508c-0.88346,0 -0.31888,-4.23435 0.56458,-4.23435c0.88346,0 29.8653,-1.96068 27.45132,-1.43072z" fill="#894939" stroke="none" stroke-width="0" stroke-linecap="butt"/><path d="M279.11569,102.98184c0,0.34465 -4.96288,3.48519 -12.08475,5.2873c-7.31037,1.84981 -16.89552,3.16868 -25.72299,4.28865c0.00792,-0.53482 0.01961,-1.06946 0.03632,-1.60384c7.95499,-2.26432 18.76354,-5.35813 24.47057,-7.22632c6.15065,-2.01341 11.1026,-5.10547 11.48631,-5.10547c1.00214,0 1.81454,3.52456 1.81454,4.35968z" fill="#773128" stroke="none" stroke-width="0" stroke-linecap="butt"/><path d="M231.59019,113.78602c-0.35851,0.04675 2.70597,-0.82703 7.23576,-2.1156c-0.00898,0.40079 -0.01558,0.80169 -0.02029,1.20266c-2.51872,0.31575 -4.94879,0.61734 -7.21547,0.91294z" fill="#773128" stroke="none" stroke-width="0" stroke-linecap="butt"/><path d="M277.88802,102.49799c0,0.31496 -5.30914,3.0498 -11.54545,4.74663c-4.09644,1.1146 -8.61863,2.04315 -12.40373,2.69441c-0.02339,-0.41531 -0.05137,-0.83087 -0.08482,-1.24706c2.95179,-0.73235 6.33283,-1.63337 9.53675,-2.69569c6.42105,-2.12901 12.0866,-5.45981 12.4282,-5.45981c0.78633,0 2.06906,1.17518 2.06906,1.96151z" fill="#894939" stroke="none" stroke-width="0" stroke-linecap="butt"/><path d="M245.46547,110.88653c0,-0.22452 2.43786,-0.76225 5.92773,-1.59635c0.02538,0.35134 0.04683,0.7023 0.06496,1.05312c-3.54844,0.544 -5.99269,0.76014 -5.99269,0.54323z" fill="#894939" stroke="none" stroke-width="0" stroke-linecap="butt"/><path d="M211.71771,87.32903c-3.8382,-0.93327 5.24493,-19.15478 26.64968,-19.28247c3.03122,-0.01808 0.98509,17.38811 -2.02627,28.34015c-3.22892,0.72956 -6.44368,1.54797 -9.64548,2.47567c-2.60381,-4.25596 -6.55696,-9.48577 -14.97793,-11.53335z" fill="#695755" stroke="none" stroke-width="0" stroke-linecap="butt"/><path d="M231.98301,105.07925c-1.52105,0 -2.59562,-1.66279 -3.96917,-3.99487c2.49283,-0.71103 4.99372,-1.35562 7.50323,-1.94377c-1.1654,3.55625 -2.41279,5.93863 -3.53406,5.93863z" fill="#695755" stroke="none" stroke-width="0" stroke-linecap="butt"/><path d="M228.40821,93.75528c-8.46361,-7.53193 -13.90962,-7.09285 -13.90962,-9.38064c0,-2.28779 12.26308,-14.95437 21.09113,-14.34696c2.38383,0.16402 -5.39651,25.3161 -7.18151,23.7276z" fill="#74615f" stroke="none" stroke-width="0" stroke-linecap="butt"/><path d="M255.90991,99.78076c-0.03141,2.48185 -19.43074,5.42744 -18.73715,3.52618c1.79766,-4.92774 4.91601,-18.59887 4.63244,-33.67156c-0.00192,-1.5888 9.77258,0.15195 16.98955,2.8306c1.11953,3.81688 2.56614,5.44822 3.86153,9.18827c-2.92907,4.25098 -6.67126,12.1928 -6.74636,18.1265z" fill="#695755" stroke="none" stroke-width="0" stroke-linecap="butt"/><path d="M266.35017,77.44829c0.09055,0.60916 -0.8286,1.95518 -2.15503,3.82544c-0.84811,-2.50796 -2.90678,-5.9248 -3.67538,-8.46738c2.57516,1.20561 5.64658,3.40529 5.83041,4.64194z" fill="#695755" stroke="none" stroke-width="0" stroke-linecap="butt"/><path d="M258.46812,75.78891c1.72447,1.44981 -4.30098,23.99185 -6.70666,23.99185c-2.40568,0 -10.99338,-2.24121 -10.99338,-4.49415c0,-2.25294 3.74785,-19.01371 4.21759,-23.99185c0.226,-2.39504 11.13167,2.51778 13.48245,4.49415z" fill="#74615f" stroke="none" stroke-width="0" stroke-linecap="butt"/></g></g></svg>