<svg version="1.1" xmlns="http://www.w3.org/2000/svg" xmlns:xlink="http://www.w3.org/1999/xlink" width="720" height="540" viewBox="0,0,720,540"><defs><clipPath id="clip-1"><rect x="-240" y="-180" transform="scale(0.5,0.5)" width="1440" height="1080" fill="none" stroke="none" stroke-width="0.5" stroke-linecap="butt"/></clipPath></defs><g transform="translate(120,90)"><g clip-path="url(#clip-1)" data-paper-data="{&quot;isPaintingLayer&quot;:true}" fill-rule="nonzero" stroke-linejoin="miter" stroke-miterlimit="10" stroke-dasharray="" stroke-dashoffset="0" style="mix-blend-mode: normal"><g stroke="none" stroke-linecap="butt"><g fill="#000000"><path d="M200.5813,185.96092c0,-21.10292 18.15751,-38.21022 40.55593,-38.21022c22.39843,0 40.82079,17.1073 40.82079,38.21022c0,2.70002 0.0039,117.77204 0.0039,117.77204l-11.39983,-0.12964l-0.14337,-113.82486c0,0 0.46851,-2.08621 -1.77595,-2.22047c-2.48625,-0.14872 -2.11767,1.68282 -2.11767,1.68282l0.10343,114.38802l-50.32146,0.07847l0.10485,-114.20488c0,0 -0.19035,-2.13951 -1.8053,-2.16297c-2.01199,-0.02922 -1.98832,2.04221 -1.98832,2.04221l-0.29988,114.25674l-11.38239,0.22905c0,0 -0.35473,-116.42094 -0.35473,-117.90653z" stroke-width="0"/><path d="M202.86649,187.26737c0,-20.02201 17.22746,-36.58913 38.47861,-36.58913c21.25115,0 38.72991,16.56711 38.72991,36.58913c0,2.56173 0.00369,114.79215 0.00369,114.79215l-7.50523,0.21307l0.19503,-111.38321c0,0 0.08238,-5.30397 -4.03353,-5.43136c-4.01424,-0.25313 -4.29562,4.92124 -4.29562,4.92124l-0.56401,112.58967l-45.42645,-0.26162l0.09948,-112.07984c0,0 0.71386,-5.00198 -3.49923,-5.04073c-4.92978,-0.04534 -4.96689,4.92616 -4.96689,4.92616l0.56795,112.12904l-7.39669,-0.11875c0,0 -0.38702,-113.84632 -0.38702,-115.25581z" stroke-width="0"/><g><path d="M230.02086,204.89619c-5.66213,0 -7.34973,-0.4705 -7.34973,-0.4705l-0.08286,-1.2733c0,0 5.25623,0.13066 7.69744,0.13066c4.20542,0 7.61458,-1.35635 7.61458,-0.87378c0,0.48257 -1.95246,2.48691 -7.87944,2.48691z" stroke-width="0"/><path d="M225.5183,199.65352c0,-0.55682 0.44467,-1.00821 0.99321,-1.00821c0.54854,0 0.99321,0.45139 0.99321,1.00821c0,0.55682 -0.44467,1.00821 -0.99321,1.00821c-0.54854,0 -0.99321,-0.45139 -0.99321,-1.00821z" stroke-width="0.5"/></g><g data-paper-data="{&quot;index&quot;:null}"><path d="M244.83605,202.40928c0,-0.48257 3.40916,0.87378 7.61458,0.87378c2.44121,0 7.69744,-0.13066 7.69744,-0.13066l-0.08286,1.2733c0,0 -1.6876,0.4705 -7.34973,0.4705c-5.92698,0 -7.87944,-2.00433 -7.87944,-2.48691z" stroke-width="0"/><path d="M256.2247,200.66172c-0.54853,0 -0.99321,-0.45139 -0.99321,-1.00821c0,-0.55682 0.44467,-1.00821 0.99321,-1.00821c0.54853,0 0.99321,0.45139 0.99321,1.00821c0,0.55682 -0.44467,1.00821 -0.99321,1.00821z" stroke-width="0.5"/></g><path d="M240.38333,253.12206c0,-0.55681 0.44467,-1.00821 0.99321,-1.00821c0.54854,0 0.99321,0.45139 0.99321,1.00821c0,0.55681 -0.44467,1.00821 -0.99321,1.00821c-0.54854,0 -0.99321,-0.45139 -0.99321,-1.00821z" stroke-width="0.5"/></g><g data-paper-data="{&quot;index&quot;:null}" stroke-width="0"><path d="M246.94328,305.53232c0,0 2.14309,-91.88559 2.14309,-106.01083c0,-1.42422 9.00999,0.71167 9.55897,-16.0122c0.45291,-13.79706 -5.9322,-33.05819 -5.9322,-33.05819c0,0 28.40893,1.74694 28.60171,30.91737c0.06115,9.25194 1.05325,17.32494 1.05325,23.68191c0,1.34618 -15.70773,2.01009 -15.70773,3.35334c0,18.79488 0,97.12861 0,97.12861z" fill="#59220f"/><path d="M261.12108,193.96557c2.21616,-5.72563 0.43056,-25.9553 -2.86947,-32.25713c-2.34372,-4.47563 5.10646,-3.5424 6.70513,-3.5424c2.10991,0 7.93383,3.29778 11.58933,10.53142c2.29833,4.54803 3.32714,13.5383 3.32714,15.21014c0,4.33091 0.36799,18.39871 0.36799,18.39871c0,0 -20.68342,-4.30183 -19.12012,-8.34075z" fill="#6d4321"/><path d="M264.00904,236.60127c-3.22186,-3.88436 -7.68198,-6.91756 -12.29423,-9.54472c-0.09652,-8.76702 -0.17537,-19.67266 -0.03807,-24.14231c0.04808,-1.56512 8.16874,-7.57784 11.09073,-4.69809c4.22483,4.16376 12.77467,6.01423 12.77467,6.01423c0,0 -5.65267,1.13326 -10.1371,2.92055c-0.72646,0.28953 -1.32783,18.20408 -1.396,29.45034z" fill="#6d4321"/><path d="M251.77467,232.1038c2.8847,1.76278 5.58766,3.74056 7.74107,6.03326c-0.07685,0.04925 -0.11928,0.08225 -0.11928,0.08225c-1.72942,1.35475 -3.54185,2.51734 -5.42025,3.51834c-1.24905,-1.20163 -2.09742,-2.13486 -2.09742,-2.13486c0,0 -0.0481,-3.07805 -0.10412,-7.49899z" fill="#6d4321"/><path d="M257.57921,244.84537c1.57085,-0.91054 3.09995,-1.93016 4.57998,-3.07398c0,0 0.02447,-0.01903 0.06543,-0.0555c0.69475,1.18924 1.23972,2.45324 1.6006,3.80129c-0.81595,2.55683 -3.58127,1.31815 -6.24601,-0.67181z" fill="#6d4321"/></g><path d="M214.4195,305.53233c0,0 0,-78.33373 0,-97.12861c0,-1.34325 -15.70773,-2.00716 -15.70773,-3.35334c0,-6.35697 0.9921,-14.42997 1.05325,-23.68191c0.19278,-29.17043 28.60171,-30.91737 28.60171,-30.91737c0,0 -6.38511,19.26113 -5.9322,33.05819c0.54898,16.72387 9.55897,14.58798 9.55897,16.0122c0,14.12524 2.14309,106.01083 2.14309,106.01083z" fill="#59220f" stroke-width="0"/><path d="M219.95879,193.96556c1.5633,4.03892 -19.12012,8.34075 -19.12012,8.34075c0,0 0.36799,-14.0678 0.36799,-18.39871c0,-1.67184 1.02881,-10.66211 3.32714,-15.21014c3.6555,-7.23364 9.47942,-10.53142 11.58933,-10.53142c1.59867,0 9.04885,-0.93323 6.70513,3.5424c-3.30003,6.30183 -5.08563,26.5315 -2.86947,32.25713z" fill="#6d4321" stroke-width="0"/><path d="M215.67483,207.15093c-4.48443,-1.78729 -10.1371,-2.92055 -10.1371,-2.92055c0,0 8.54984,-1.85047 12.77467,-6.01423c2.92199,-2.87975 11.04265,3.13297 11.09073,4.69809c0.1373,4.46965 0.05845,15.37529 -0.03807,24.14231c-4.61225,2.62716 -9.07237,5.66036 -12.29423,9.54472c-0.06817,-11.24626 -0.66954,-29.16081 -1.396,-29.45034z" fill="#6d4321" stroke-width="0"/><path d="M229.20108,239.60279c0,0 -0.84837,0.93323 -2.09742,2.13486c-1.8784,-1.001 -3.69083,-2.16359 -5.42025,-3.51834c0,0 -0.04243,-0.033 -0.11928,-0.08225c2.15341,-2.2927 4.85637,-4.27048 7.74107,-6.03326c-0.05602,4.42094 -0.10412,7.49899 -0.10412,7.49899z" fill="#6d4321" stroke-width="0"/><path d="M217.25464,245.51718c0.36088,-1.34805 0.90585,-2.61205 1.6006,-3.80129c0.04096,0.03647 0.06543,0.0555 0.06543,0.0555c1.48003,1.14382 3.00913,2.16344 4.57998,3.07398c-2.66474,1.98996 -5.43006,3.22864 -6.24601,0.67181z" fill="#6d4321" stroke-width="0"/><path d="M214.03835,234.30151c0,0 -1.35974,-5.18801 -1.33044,-7.92709c0.03152,-2.94719 1.51339,-9.17748 1.51339,-9.17748c0,0 22.41625,6.81035 36.82555,18.24835c12.41727,9.85674 15.57243,15.54378 15.57243,15.54378c0,0 3.21816,4.83357 2.95074,11.66676c-0.30807,7.87199 -2.96434,10.32227 -2.96434,10.32227c0,0 -14.63505,-14.42883 -28.23079,-25.5211c-13.95279,-11.38357 -24.33654,-13.15552 -24.33654,-13.15552z" fill="#773128" stroke-width="0"/><path d="M214.3139,256.85064c0,0 -2.31073,-3.48768 -2.32713,-8.07113c-0.02264,-6.32657 2.10322,-9.61808 2.10322,-9.61808c0,0 5.73754,7.97024 26.15435,5.09868c24.28666,-3.41583 26.68936,-14.05525 26.68936,-14.05525c0,0 2.68697,1.42594 2.91088,7.38916c0.2684,7.14812 -2.91088,10.07613 -2.91088,10.07613c0,0 -4.61853,8.5487 -26.2214,13.15748c-18.95613,4.04413 -26.3984,-3.97701 -26.3984,-3.97701z" fill="#481310" stroke-width="0"/><path d="M215.49451,252.63187c-2.76622,-0.24931 -1.4093,-8.60532 -1.4093,-8.60532c0,0 2.93345,1.19331 5.71088,1.19331c1.37843,0 13.46573,2.59483 24.9493,0.05679c1.16612,-0.25773 2.32613,-0.56686 3.46956,-0.9145c0.15923,1.90926 0.42673,3.71662 0.79609,5.55783c-7.68796,2.58676 -18.46806,4.06816 -33.51652,2.71189z" fill="#571c18" stroke-width="0"/><path d="M267.44354,234.99143c0,0 -1.27066,4.21384 -6.56899,8.58112c-0.69177,-1.19693 -1.4574,-2.28515 -2.50211,-3.32576c5.37378,-2.67426 9.0711,-5.25537 9.0711,-5.25537z" fill="#571c18" stroke-width="0"/><path d="M224.27393,235.6467c-5.14855,-2.2182 -8.88289,-2.71273 -8.88289,-4.19055c0,-1.30978 -0.93537,-3.79331 -0.89225,-5.79646c0.06151,-2.85718 1.29694,-5.14542 3.09841,-5.14542c1.5745,0 9.86238,3.4756 17.74777,7.78216c0.11221,2.24868 0.11805,4.50472 0.14,6.71931c0.0208,2.09914 0.03234,4.19844 0.03807,6.29783c-2.86676,-1.4159 -7.20464,-3.92435 -11.24911,-5.66688z" fill="#894939" stroke-width="0"/><path d="M250.25404,239.59987c0,1.14299 -1.13843,1.82513 -2.73898,2.23007c-0.79724,-2.20433 -1.62306,-4.37431 -2.45242,-6.45446c-0.1898,-0.47604 -0.3996,-0.94616 -0.61343,-1.41512c3.40153,2.48264 5.80482,4.76941 5.80482,5.63951z" fill="#894939" stroke-width="0"/><path d="M240.02614,242.40531c-0.00448,-2.47835 -0.01635,-4.9566 -0.04139,-7.43461c-0.00007,-0.00715 -0.00015,-0.01429 -0.00021,-0.02143c0.30981,0.70621 0.62437,1.41067 0.91036,2.12322c0.68663,1.71076 1.3712,3.48881 2.0379,5.29894c-1.03586,0.03817 -2.04124,0.03956 -2.90666,0.03389z" fill="#894939" stroke-width="0"/><g stroke-width="0"><path d="M259.78854,247.40255c0,2.73324 -2.11187,4.94897 -4.71699,4.94897c-0.21019,0 -1.24155,0.04293 -1.54694,0.66997c-0.34459,0.70752 0.01943,2.00773 -0.53283,1.98486c-0.43592,-0.01805 -0.36226,-1.03766 -0.50768,-2.06343c-0.12406,-0.87508 -0.47204,-1.75464 -0.72854,-2.02066c-0.86501,-0.89714 -1.40099,-2.14276 -1.40099,-3.51971c0,-2.73324 2.11186,-4.94896 4.71698,-4.94896c2.60512,0 4.71699,2.21572 4.71699,4.94896z" fill="#000000"/><path d="M259.78854,248.03416c0,2.73324 -2.11187,4.94896 -4.71699,4.94896c-0.21019,0 -1.24155,0.04293 -1.54694,0.66997c-0.34459,0.70752 0.01943,2.00773 -0.53283,1.98486c-0.43592,-0.01805 -0.36226,-1.03766 -0.50768,-2.06343c-0.12406,-0.87508 -0.47204,-1.75464 -0.72854,-2.02067c-0.86501,-0.89714 -1.40099,-2.14275 -1.40099,-3.5197c0,-2.73324 2.11186,-4.94896 4.71698,-4.94896c2.60512,0 4.71699,2.21573 4.71699,4.94896z" fill-opacity="0.50806" fill="#000000"/></g><path d="M198.79551,201.78045c0,0 -2.00979,-2.54436 -2.01284,-5.08287c-0.0051,-4.23966 2.24546,-6.67695 2.24546,-6.67695c0,0 9.49587,9.13944 41.47223,4.81884c11.40435,-1.54094 21.14388,-1.36415 27.28916,-4.2963c11.36984,-5.425 13.59735,-14.37944 13.59735,-14.37944c0,0 1.82748,2.9696 1.8737,8.08718c0.0679,7.51817 -1.4046,11.24293 -1.4046,11.24293c0,0 -0.6275,3.19216 -4.86397,6.04061c-6.41149,4.31084 -19.20032,9.01483 -35.6275,10.02663c-8.46534,0.52141 -23.02608,-2.92627 -32.57987,-5.911c-6.35816,-1.98637 -9.98911,-3.86962 -9.98911,-3.86962z" fill-opacity="0.31452" fill="#000000" stroke-width="0"/><path d="M198.79551,201.78045c0,0 -2.00979,-2.54436 -2.01284,-5.08287c-0.0051,-4.23966 2.24546,-6.67695 2.24546,-6.67695c0,0 9.49587,9.13944 41.47223,4.81883c11.40434,-1.54094 21.14388,-1.36414 27.28916,-4.2963c11.36984,-5.425 13.59734,-14.37944 13.59734,-14.37944c0,0 1.82748,2.9696 1.8737,8.08718c0.0679,7.51817 -1.4046,11.24293 -1.4046,11.24293c0,0 -13.39278,11.45968 -40.67442,13.14006c-14.09912,0.86842 -42.38603,-6.85344 -42.38603,-6.85344z" fill="#574847" stroke-width="0"/><path d="M256.6638,195.94889c0,1.7204 1.97189,5.67123 -1.92119,8.16698c-2.69849,1.72993 -15.89194,3.30051 -19.66858,2.61237c-4.77619,-0.87026 -4.11111,-3.73764 -4.11111,-6.65053c0,-2.91289 5.86239,-4.03562 10.71722,-4.03562c4.85482,0 14.98367,-3.0061 14.98367,-0.0932z" fill="#74615f" stroke-width="0"/><path d="M217.11163,204.12377c-3.67342,-0.11279 -18.40872,-3.4742 -18.40872,-5.24953c0,-1.08848 0.08733,-6.80538 0.08733,-6.80538c0,0 4.484,2.83381 10.66653,4.36815c4.75434,1.17991 11.35291,1.0875 12.54976,1.43071c1.79637,0.51514 -3.02702,6.3134 -4.89491,6.25604z" fill="#74615f" stroke-width="0"/><path d="M281.58182,192.33557c-0.05802,2.40013 -8.39287,7.81845 -10.18173,7.81845c-1.78885,0 -3.239,-1.94626 -3.239,-4.34709c0,-1.28462 4.13788,-4.85381 7.17852,-8.35606c2.642,-3.04309 5.85468,-8.6367 5.85468,-8.6367c0,0 0.51151,8.39307 0.38753,13.5214z" fill="#74615f" stroke-width="0"/></g><g><path d="M202.09716,129.59156c0,0 4.75839,-5.12941 6.10536,-8.45329c2.88904,-7.12918 2.85124,-13.03672 2.85124,-13.03672c0,0 -1.85997,0.61665 -2.84266,0.69861c-1.61013,0.13429 -2.80363,-0.26204 -2.80363,-0.26204l6.42399,-6.92498c0,0 0.2475,-17.60523 8.9764,-29.16254c6.74693,-8.93313 20.64648,-12.51508 30.3551,-12.44472c8.42215,0.06104 22.55613,3.08573 28.68941,10.58184c10.08388,12.32455 6.38707,19.81995 10.11,32.42062c3.72078,12.59341 5.77495,16.18431 5.77495,16.18431c0,0 -1.64899,-0.1627 -2.4478,-0.70191c-3.35821,-2.26684 -4.77049,-4.144 -4.77049,-4.144c0,0 2.51404,9.65365 0.49901,21.29599c-1.43966,8.31802 -7.42166,16.10527 -7.42166,16.10527l-1.17358,-2.98711c0,0 -0.27736,1.51046 -1.52332,3.13635c-1.38133,1.80253 -3.94985,3.49671 -3.94985,3.49671l0.00318,-3.58884c0,0 -4.58502,5.92133 -10.91754,9.01637c-6.10567,2.98416 -11.80358,2.51788 -14.49123,2.46803c-14.12802,-0.26204 -24.08852,-10.83115 -24.08852,-10.83115l-1.5995,1.70352c0,0 -3.09691,-2.20769 -5.16904,-7.29265c-3.07463,-7.54506 -3.82841,-13.97384 -3.82841,-13.97384c0,0 -3.51398,2.22964 -6.51964,2.91866c-3.62077,0.83002 -6.65099,0.20519 -6.65099,0.20519c0,0 3.61051,-2.54967 5.08456,-3.95508c1.38725,-1.32265 3.51514,-4.24416 3.51514,-4.24416c0,0 -3.21775,1.31904 -4.68875,1.66038c-2.24208,0.52027 -3.5017,0.11114 -3.5017,0.11114z" fill="#000000" stroke="none" stroke-width="NaN" stroke-linecap="butt"/><g><path d="M219.19136,110.32086c0.96521,-0.18364 5.78639,4.94033 6.72949,9.89722c0.94309,4.95689 -0.15061,10.72809 -0.15061,10.72809c0,0 -6.46652,-3.53164 -7.66724,-8.4325c-3.07712,-12.5596 0.12316,-12.00917 1.08836,-12.19281z" fill="#000000" stroke="none" stroke-width="0" stroke-linecap="butt"/><path d="M218.91897,111.37333c1.31694,-0.1432 3.38354,5.86128 4.11895,9.72657c0.73541,3.86529 0.71005,7.6557 0.71005,7.6557c0,0 -4.13639,-3.64493 -5.07269,-7.46653c-2.39948,-9.79373 -0.51797,-9.83292 0.24369,-9.91574z" fill="#ffffff" stroke="none" stroke-width="0" stroke-linecap="butt"/><path d="M223.49258,126.04537c0,0 -3.02608,-5.45514 -3.46106,-7.54108c-0.69361,-3.32613 1.47037,-3.38348 1.47037,-3.38348" fill="none" stroke="#000000" stroke-width="0.5" stroke-linecap="round"/></g><path d="M282.94858,122.38796c-1.20072,4.90086 -7.66724,8.4325 -7.66724,8.4325c0,0 -1.0937,-5.77121 -0.15061,-10.7281c0.9431,-4.95689 5.76428,-10.08085 6.72949,-9.89722c0.96521,0.18363 4.16548,-0.36679 1.08836,12.19281z" fill="#000000" stroke="none" stroke-width="0" stroke-linecap="butt"/><path d="M226.16596,147.37526c-1.12791,-6.71582 -0.20637,-6.94188 -1.0642,-13.44379c-0.47362,-3.58977 -2.15797,-7.18909 -2.73202,-11.13223c-1.20896,-8.30433 -1.27196,-25.65977 -0.47554,-29.40025c4.41933,-20.75585 15.3863,-24.96608 29.85603,-25.48425c20.77576,-0.74399 24.79696,12.48506 27.42961,23.79025c1.84023,7.90235 1.22737,18.92724 -0.34916,28.57116c-0.96559,5.90663 -2.47529,10.80823 -3.46814,15.58687c-1.22544,5.89815 -0.7524,7.76045 -1.86263,12.66938c-1.15349,5.10023 -6.83176,10.81045 -11.83191,15.83737c-4.57165,4.59612 -7.90818,8.33063 -12.38271,8.22359c-5.04445,-0.12068 -8.96195,-6.22631 -14.50155,-12.44391c-4.38889,-4.92605 -8.03319,-9.29321 -8.61781,-12.77419z" fill="#000000" stroke="none" stroke-width="0" stroke-linecap="butt"/><path d="M225.97135,128.6558c-0.94553,-5.09249 -3.54204,-4.25562 -2.79146,-22.70284c0.02333,-0.57336 0.05059,-1.14422 0.08176,-1.71158c9.85095,0.00356 18.71593,0.12629 27.90215,4.30116c8.59049,4.29524 17.7147,8.34869 25.97638,13.47052c-0.07702,0.45135 -0.16196,0.90425 -0.25563,1.35887c-0.62848,3.05035 -1.86346,6.18514 -2.54274,8.95491c-0.37506,1.52931 -13.65044,4.27232 -15.02334,11.72271c2.19129,0.52226 3.11294,6.49541 3.93614,6.82451c2.94552,1.17755 6.92936,1.74829 4.79884,4.42367c-2.5746,3.23301 -6.22007,6.15229 -9.11253,8.91074c-2.62204,2.50056 -5.47801,6.21315 -8.77908,6.21315c-4.10432,0 -6.9048,-3.78999 -10.07829,-7.4154c-4.79276,-5.47527 -11.46201,-7.91572 -13.04194,-17.80658c-0.11733,-0.73453 9.4838,-1.54967 12.70905,-6.19027c-0.81579,-0.29655 -2.36551,0.34159 -3.51867,-0.47839c-0.27748,-0.19731 -0.03403,-1.86909 0.18803,-3.09722c-3.14852,-2.10001 -4.42126,-0.50203 -5.08474,-1.12063c-0.52511,-0.4896 -0.51217,-2.05564 -0.44079,-3.07755c-2.18707,-2.07173 -4.88284,-2.36281 -4.92312,-2.57977z" fill="#ffffff" stroke="none" stroke-width="0" stroke-linecap="butt"/><g stroke="none" stroke-width="0" stroke-linecap="butt"><path d="M236.95533,109.46356c5.64136,0 10.21459,4.47197 10.21459,9.98843c0,5.51646 -4.7706,9.74171 -10.41197,9.74171c-5.64137,0 -10.31875,-4.22525 -10.31875,-9.74171c0,-5.51645 4.87476,-9.98843 10.51613,-9.98843z" fill="#000000"/><path d="M236.95533,109.71793c4.97522,0 8.78866,3.85659 8.78866,8.8032c0,4.94661 -4.01083,9.08774 -8.98605,9.08774c-4.97523,0 -8.81106,-3.98769 -8.81106,-8.9343c0,-4.94662 4.03322,-8.95664 9.00844,-8.95664z" fill="#ffffff"/></g><path d="M225.97135,128.6558c-0.07307,-0.39356 6.39636,1.11986 6.39636,1.11986c0,0 -0.59461,1.27078 0.03354,2.32938c0.87073,1.46742 7.10264,1.71212 7.10264,1.71212c0,0 -2.13029,2.67563 -1.05984,3.16519c1.46309,0.66912 4.53789,0.39108 4.53789,0.39108c0,0 -0.41359,6.33888 -1.86197,8.09459c-2.99607,3.6318 -6.85291,5.91495 -11.0592,7.52849c-1.39999,-2.02987 -2.49242,-4.4993 -3.01917,-7.79688c-0.11733,-0.73453 9.4838,-1.54967 12.70905,-6.19027c-0.81579,-0.29655 -2.36551,0.34159 -3.51867,-0.47839c-0.27748,-0.19731 -0.03403,-1.86909 0.18803,-3.09722c-3.14852,-2.10001 -4.42126,-0.50203 -5.08474,-1.12063c-0.52511,-0.4896 -0.51217,-2.05564 -0.44079,-3.07755c-2.18707,-2.07173 -4.88284,-2.36281 -4.92312,-2.57977z" fill-opacity="0.37903" fill="#000000" stroke="none" stroke-width="0" stroke-linecap="butt"/><path d="M263.51523,109.48818c5.64136,0 10.21459,4.47198 10.21459,9.98844c0,5.51645 -4.72127,9.64301 -10.36263,9.64301c-3.16285,0 -6.23667,-1.06026 -8.11031,-3.26759c-1.46826,-1.72975 -1.95625,-3.95178 -1.95625,-6.37542c0,-5.51646 4.57322,-9.98844 10.21459,-9.98844z" fill="#000000" stroke="none" stroke-width="0" stroke-linecap="butt"/><g stroke="none" stroke-linecap="butt"><path d="M258.11946,146.56187c2.14614,0.63336 4.57,2.14674 7.10189,3.18958c3.1668,1.30434 5.91835,2.72636 5.91835,2.98404c0,0.09852 0.6422,0.57742 0.34258,1.11686c-1.789,3.22099 -9.63005,12.83494 -20.94009,13.0257c-12.59325,-0.3248 -20.68677,-10.85655 -23.27914,-15.25835c-0.66575,-1.13043 -0.11257,-1.97072 -0.18768,-1.99564c-0.32963,-0.10935 2.17574,-0.56882 4.39722,-1.19556c1.32363,-0.37344 6.02869,-2.52762 9.16564,-2.62169c0,0 6.11008,0.84857 11.13979,1.05021c0,0 4.30069,-0.8974 6.34144,-0.29515z" fill="#000000" stroke-width="NaN"/><path d="M231.63754,149.78402c0,0 4.45428,-1.58314 9.14685,-1.84617c3.5353,-0.19816 8.14505,1.24124 10.14351,1.24124c1.78589,0 3.62586,-1.29154 6.32678,-0.57417c4.23256,1.12417 8.12418,3.53158 8.12418,3.53158c0,0 -3.47556,-0.50449 -6.7587,-0.10932c-2.77486,0.33399 -5.25973,0.85453 -6.95291,0.86581c-2.06827,0.01378 -6.82484,-0.83276 -11.18375,-1.76195c-4.64917,-0.99105 -8.84595,-1.34702 -8.84595,-1.34702z" fill="#ffffff" stroke-width="0"/><path d="M242.64542,153.54369c5.82065,1.20577 8.52116,2.22429 8.52116,2.22429c0,0 2.73973,-0.85807 10.10428,-1.81233c3.83362,-0.49674 8.34249,0.13003 8.34249,0.13003c0,0 -1.67172,2.4939 -5.81691,5.31831c-3.13971,2.13931 -7.86424,4.77611 -13.40623,4.89818c-13.03253,0.28708 -21.37398,-13.37554 -21.37398,-13.37554c0,0 7.27229,1.30021 13.62919,2.61706z" fill="#ffffff" stroke-width="0"/></g><path d="M222.00099,112.79479l0.13102,-1.63769l7.19167,-1.18423l0.32653,-1.46623c0,0 3.68245,-1.72538 7.2562,-2.03587c3.72054,-0.32324 9.00496,-0.09575 9.00496,-0.09575l0.32754,4.71657c0,0 -4.80797,-1.2906 -8.17678,-1.07798c-6.17314,0.38961 -6.13035,1.25866 -10.09703,1.94554c-3.96668,0.68688 -5.96411,0.83565 -5.96411,0.83565z" fill="#000000" stroke="none" stroke-width="0" stroke-linecap="butt"/><path d="M266.13392,106.47627c-6.5361,-0.02665 -11.93017,2.50832 -11.93017,2.50832l-0.26203,-4.42239c0,0 5.28442,-1.73418 9.39801,-1.86949c4.11358,-0.13531 7.12519,0.66021 7.12519,0.66021l0.19551,1.20419l7.3882,2.16685l0.13101,1.6377c0,0 -5.86035,-1.86016 -12.04572,-1.88538z" data-paper-data="{&quot;index&quot;:null}" fill="#000000" stroke="none" stroke-width="0" stroke-linecap="butt"/><path d="M239.33585,114.50366c2.71342,0 4.91309,2.23007 4.91309,4.98099c0,2.75092 -2.19966,4.98098 -4.91309,4.98098c-2.71342,0 -4.91309,-2.23006 -4.91309,-4.98098c0,-2.75092 2.19966,-4.98099 4.91309,-4.98099z" fill="#000000" stroke="none" stroke-width="0" stroke-linecap="butt"/><path d="M263.58427,114.72278c2.71342,0 4.91309,2.23006 4.91309,4.98098c0,2.75092 -2.19966,4.98098 -4.91309,4.98098c-2.71342,0 -4.91309,-2.23006 -4.91309,-4.98098c0,-2.75091 2.19966,-4.98098 4.91309,-4.98098z" fill="#000000" stroke="none" stroke-width="0" stroke-linecap="butt"/><g stroke="none" stroke-width="0" stroke-linecap="butt"><path d="M247.62223,140.67263c0,0 -0.06312,-8.68679 -0.28083,-12.38791c-0.17487,-2.97289 -0.92532,-8.11666 -0.92532,-8.11666c0,0 -0.33218,-1.57308 0.02454,-1.56279c1.13657,0.03279 7.81544,1.78895 7.81544,1.78895l-0.37692,20.27841c0,0 0.82184,1.93768 0.72844,3.69896c-0.06976,1.31553 -0.97469,4.70292 -1.02626,5.67536c-0.11348,2.13998 -0.40577,3.89334 -0.40577,3.89334l-4.14036,-0.01448c0,0 -0.12488,-2.01528 -0.87252,-4.2695c-0.71961,-2.16969 -2.11593,-4.55553 -2.18508,-5.58924c-0.19994,-2.9885 1.64464,-3.39445 1.64464,-3.39445z" fill="#000000"/><path d="M249.98425,152.95057c0,0 -0.2909,-3.80356 -0.49735,-8.24071c-0.20504,-4.40659 -0.32473,-9.70108 -0.5883,-13.30096c-0.42508,-5.80554 -1.77895,-15.81414 -1.77895,-15.81414l6.10614,1.88461l-0.75385,35.43068z" fill="#ffffff"/><path d="M247.56666,141.85064c0.34401,0 0.62288,4.77542 0.62288,4.77542c0,0 -1.24576,-1.59275 -1.24576,-2.7251c0,-1.13236 0.27887,-2.05032 0.62288,-2.05032z" fill="#ffffff"/></g><path d="M219.31466,104.03733v-21.15411c0,0 21.21081,-18.67174 31.8391,-18.67174c9.85589,0 29.78844,18.67174 29.78844,18.67174l0.9522,14.8825c0,0 -4.02246,-9.83788 -7.66885,-7.46317c-9.67233,6.2991 -26.0271,10.16832 -26.0271,10.16832c0,0 2.88671,-3.50484 4.29889,-5.2734c0.74057,-0.92746 1.4281,-2.38433 1.4281,-2.38433c0,0 -9.19557,5.48816 -17.51331,7.89872c-11.3727,3.29591 -17.09747,3.32547 -17.09747,3.32547z" fill="#000000" stroke="none" stroke-width="0" stroke-linecap="butt"/><g fill="#000000" stroke="none" stroke-width="0" stroke-linecap="butt"><path d="M226.25896,120.04433c0,0 -0.16627,-2.22288 0.81062,-4.59656c1.16899,-2.84044 3.93233,-5.91812 9.99819,-5.95021c4.4123,-0.02334 6.77688,1.48178 8.31843,3.36171c2.53146,3.08714 2.42486,7.54013 2.42486,7.54013c0,0 -3.87821,-2.31038 -10.96673,-2.75492c-5.76622,-0.36162 -10.58537,2.39985 -10.58537,2.39985z"/></g><g stroke="none" stroke-width="0" stroke-linecap="butt"><path d="M253.21993,120.06574c0,0 -0.53134,-3.2454 0.9459,-6.12374c1.32927,-2.59004 4.34124,-4.84529 9.8629,-4.81608c11.13492,0.0589 11.0941,11.29489 11.0941,11.29489z" data-paper-data="{&quot;index&quot;:null}" fill="#000000"/><path d="M254.39909,118.23151c0,0 0.21519,-7.7079 9.56586,-7.72822c8.98115,-0.01952 9.56245,7.99026 9.56245,7.99026z" data-paper-data="{&quot;index&quot;:null}" fill="#ffffff"/></g><path d="M270.92172,154.37419c-1.11194,3.04569 -3.64291,7.23887 -6.78287,11.17648c-3.66797,4.59975 -8.0118,9.00591 -13.71622,9.00591c-5.25763,0 -9.18709,-4.43619 -13.3467,-8.54374c-5.59105,-5.52106 -10.62584,-11.42044 -10.62584,-14.38993c0,-3.1894 4.77121,-6.88465 10.73708,-9.36869c3.72108,-1.54936 7.44677,-2.71955 12.18104,-2.71955c2.43067,0 10.7209,-4.96365 16.55301,-6.73959c5.57759,-1.69844 8.75915,-0.21264 8.75915,-0.21264c0,0 -3.36316,20.70844 -3.75866,21.79174z" fill="#571c18" stroke="none" stroke-width="0" stroke-linecap="butt"/><path d="M221.89797,115.03178c0,0 0,-2.55821 0,-4.14392c0,-1.05092 0.06981,-4.15536 1.08702,-5.95886c1.05077,-1.86301 3.06591,-2.41234 4.09296,-2.62216c1.80886,-0.36956 14.73212,-1.54216 32.50136,5.41055c17.21262,6.73492 18.20726,14.82534 18.20726,14.82534c0,0 -1.87396,4.62359 -2.26757,7.50038c-0.29658,2.16762 -1.29307,5.95641 -1.29307,5.95641c0,0 -6.91498,-8.12532 -22.4459,-14.02376c-16.83938,-6.39539 -29.88206,-6.94398 -29.88206,-6.94398z" fill-opacity="0.41935" fill="#000000" stroke="none" stroke-width="0" stroke-linecap="butt"/><path d="M221.89797,113.90275c0,0 0,-2.55821 0,-4.14392c0,-1.05092 0.06981,-4.15536 1.08702,-5.95886c1.05077,-1.86301 3.06591,-2.41234 4.09296,-2.62216c1.80886,-0.36956 14.73212,-1.54216 32.50136,5.41055c17.21262,6.73492 18.20726,14.82534 18.20726,14.82534c0,0 -1.87396,4.62359 -2.26757,7.50038c-0.29658,2.16763 -1.29307,5.95641 -1.29307,5.95641c0,0 -6.91498,-8.12532 -22.4459,-14.02376c-16.83938,-6.39539 -29.88206,-6.94398 -29.88206,-6.94398z" fill="#59220f" stroke="none" stroke-width="0" stroke-linecap="butt"/><path d="M229.27687,112.6019c-2.62993,0 -4.5299,-4.25132 -4.3619,-6.64524c0.4,-5.69981 15.81658,-3.1968 23.25766,-1.23757c3.31025,0.87158 6.3866,2.0797 9.01754,3.35414c-3.10729,0.87424 -6.29604,1.46268 -9.32723,2.57655c-3.10478,1.14092 -6.2119,2.39248 -9.30184,3.69477c-4.70396,-1.15054 -8.6046,-1.74266 -9.28422,-1.74266z" fill="#6d4321" stroke="none" stroke-width="0" stroke-linecap="butt"/><path d="M267.22078,113.33102c0,0.92092 -1.21162,5.77663 -7.5371,5.3723c-1.91336,-0.1223 -3.96865,-0.58712 -6.10271,-1.20424c2.88671,-2.72153 6.31314,-4.8235 8.75922,-7.98309c0,0 0.08148,-0.10592 0.15652,-0.27514c2.94233,1.80765 4.72407,3.43554 4.72407,4.09017z" fill="#6d4321" stroke="none" stroke-width="0" stroke-linecap="butt"/><path d="M242.75816,116.68234c-0.41874,-0.1301 -0.83789,-0.25633 -1.256,-0.37865c2.0501,-0.83341 4.10402,-1.63676 6.15434,-2.39449c2.96763,-1.09674 6.08918,-1.68974 9.13995,-2.53229c-2.50168,2.62608 -5.68621,4.57938 -8.22804,7.20801c-1.91078,-0.62073 -3.86153,-1.2971 -5.81025,-1.90257z" fill="#6d4321" stroke="none" stroke-width="0" stroke-linecap="butt"/><path d="M273.17082,131.18692c0,0.83251 -2.68227,-2.0613 -5.57018,-4.47787c-2.18902,-1.83174 -6.27982,-3.64109 -6.27982,-4.27213c0,-0.54167 4.46052,-0.97487 6.25109,-3.28474c1.52606,-1.96863 0.22345,-5.89329 2.20188,-5.98696c1.9723,-0.09338 5.35725,7.45503 5.93036,7.45503c1.15806,0 -0.97965,2.55682 -2.20623,5.46508c-0.70379,1.66871 -0.3271,4.56799 -0.3271,5.10159z" fill="#6d4321" stroke="none" stroke-width="0" stroke-linecap="butt"/><path d="M249.98935,170.50725c-7.21752,0.16559 -20.03727,-12.89146 -20.03727,-17.96731c0,-5.07585 9.5078,-10.68103 18.3813,-10.34983c1.24759,0.04656 6.76703,-2.00289 12.74036,-4.32871c0.34284,-0.13349 0.69066,-0.27138 1.04119,-0.41176c0.73639,7.11829 1.57655,14.22596 2.3978,21.33586c-3.36337,3.14508 -7.58786,6.64474 -7.61367,8.44112c-2.64174,1.92974 -5.17623,3.24087 -6.90968,3.28064z" fill="#773128" stroke="none" stroke-width="0" stroke-linecap="butt"/><path d="M271.79861,134.45599c-0.95942,4.45425 -3.20641,14.68615 -3.20641,19.1429c0,0.73648 -0.72846,1.76999 -1.82174,2.95262c-0.77516,-6.69024 -1.55696,-13.37955 -2.24304,-20.07866c3.19024,-1.29036 6.17908,-2.4333 7.27119,-2.01685z" fill="#773128" stroke="none" stroke-width="0" stroke-linecap="butt"/><path d="M252.62429,167.24989c-1.06993,0 -6.70522,-1.21167 -11.00453,-4.19701c-5.06073,-3.51405 -8.79867,-8.95735 -8.79867,-10.03685c0,-1.06374 2.16715,-3.96606 5.56436,-5.96677c2.9792,-1.75453 7.15667,-2.70353 8.24214,-2.62486c1.57206,0.11393 6.73597,-2.09562 12.55283,-4.27621c1.62079,4.98796 0.97182,10.14239 2.36075,15.21795c-2.14718,1.20946 -2.59556,2.96906 -5.12364,5.45995c-2.38305,2.34799 -2.91817,6.42379 -3.79324,6.42379z" fill="#894939" stroke="none" stroke-width="0" stroke-linecap="butt"/><path d="M268.74872,136.90947c0,0 -0.64092,9.26586 -1.17094,13.19618c-0.47842,-2.43576 -0.98189,-10.30376 -1.93603,-11.98502c1.87996,-0.72503 3.10697,-1.21116 3.10697,-1.21116z" fill="#894939" stroke="none" stroke-width="0" stroke-linecap="butt"/><g fill="none" stroke-width="2" stroke-linecap="butt"><path d="M220.58113,129.90902c0,-1.46387 0.68172,-2.65058 1.52267,-2.65058c0.84095,0 1.52267,1.1867 1.52267,2.65058c0,1.46387 -0.68172,2.65058 -1.52267,2.65058c-0.84095,0 -1.52267,-1.1867 -1.52267,-2.65058z" stroke="#481310"/><path d="M220.58158,129.84118c0.02067,-1.43252 0.69426,-2.58274 1.52218,-2.58274c0.84006,0 1.52123,1.18419 1.52267,2.64594" stroke="#571c18"/></g></g></g></g></svg>