<svg version="1.1" xmlns="http://www.w3.org/2000/svg" xmlns:xlink="http://www.w3.org/1999/xlink" width="34.17311" height="34.17311" viewBox="0,0,34.17311,34.17311"><g transform="translate(-222.91346,-162.91346)"><g data-paper-data="{&quot;isPaintingLayer&quot;:true}" stroke="none" stroke-miterlimit="10" stroke-dasharray="" stroke-dashoffset="0" style="mix-blend-mode: normal"><path d="M229.98313,162.91347h20.03379c3.9166,0 7.06966,3.15307 7.06966,7.06966v20.03379c0,3.91659 -3.15306,7.06966 -7.06966,7.06966h-20.03379c-3.91659,0 -7.06966,-3.15307 -7.06966,-7.06966v-20.03379c0,-3.91659 3.15307,-7.06966 7.06966,-7.06966z" fill="#59220f" fill-rule="evenodd" stroke-width="4.43922" stroke-linecap="round" stroke-linejoin="round"/><g fill-rule="nonzero" stroke-width="0" stroke-linecap="butt" stroke-linejoin="miter"><path d="M226.161,178.29096c1.26725,-2.14386 1.66017,-4.47081 1.66017,-4.47081l9.14201,-0.31623c0,0 -3.81848,5.14549 -6.14058,4.76002c-2.12357,-0.35251 -3.95831,5.84875 -3.95831,5.84875c0,0 -2.11974,-3.42547 -0.70328,-5.82174z" fill="#000000"/><path d="M243.94496,192.48416c0,0 3.76198,-5.26018 2.17815,-6.71802c-1.7319,-1.59413 -0.02234,-7.76942 -0.02234,-7.76942l5.37231,7.4037c0,0 -1.59337,1.74075 -2.50472,4.0584c-1.01865,2.59053 -5.02339,3.02535 -5.02339,3.02535z" fill="#000000"/><path d="M227.03344,174.8584l2.64405,-6.73441c0,0 1.91352,-0.35513 8.49692,2.53499c1.70875,0.75014 3.68691,-0.16498 6.26193,0.96348c2.18458,1.10638 2.97949,3.4636 4.69533,4.32887c4.70018,2.37023 6.68085,4.61241 6.68085,4.61241l-4.23658,5.37678c0,0 -0.69439,-1.29936 -4.0877,-3.07487c-1.92184,-1.00558 -1.29808,-3.455 -5.47838,-5.54338c-3.43374,-1.71543 -6.26818,-0.994 -9.14081,-2.14002c-3.93011,-1.56789 -5.8356,-0.32386 -5.8356,-0.32386z" fill="#6d4321"/></g></g></g></svg>