<svg version="1.1" xmlns="http://www.w3.org/2000/svg" xmlns:xlink="http://www.w3.org/1999/xlink" width="100.16813" height="257.49664" viewBox="0,0,100.16813,257.49664"><g transform="translate(-189.51369,-46.37083)"><g data-paper-data="{&quot;isPaintingLayer&quot;:true}" fill-rule="nonzero" stroke-linejoin="miter" stroke-miterlimit="10" stroke-dasharray="" stroke-dashoffset="0" style="mix-blend-mode: normal"><g stroke="none" stroke-linecap="butt"><g><g><g><path d="M200.5813,185.96094c0,-21.10292 18.15751,-38.21022 40.55593,-38.21022c22.39843,0 40.82079,17.1073 40.82079,38.21022c0,2.70002 0.0039,117.77204 0.0039,117.77204l-11.39983,-0.12964l-0.14337,-113.82486c0,0 0.46851,-2.08621 -1.77595,-2.22047c-2.48625,-0.14872 -2.11767,1.68282 -2.11767,1.68282l0.10343,114.38802l-50.32146,0.07847l0.10485,-114.20488c0,0 -0.19035,-2.13951 -1.8053,-2.16297c-2.01199,-0.02922 -1.98832,2.04221 -1.98832,2.04221l-0.29988,114.25674l-11.38239,0.22905c0,0 -0.35473,-116.42094 -0.35473,-117.90653z" fill="#000000" stroke-width="0"/><path d="M202.86649,187.26739c0,-20.02201 17.22746,-36.58913 38.47861,-36.58913c21.25115,0 38.72991,16.56711 38.72991,36.58913c0,2.56173 0.00369,114.79215 0.00369,114.79215l-7.50523,0.21307l0.19503,-111.38321c0,0 0.08238,-5.30397 -4.03353,-5.43136c-4.01424,-0.25313 -4.29562,4.92124 -4.29562,4.92124l-0.56401,112.58967l-45.42645,-0.26162l0.09948,-112.07984c0,0 0.71386,-5.00198 -3.49923,-5.04073c-4.92978,-0.04534 -4.96689,4.92616 -4.96689,4.92616l0.56795,112.12904l-7.39669,-0.11875c0,0 -0.38702,-113.84632 -0.38702,-115.25581z" fill="#ffffff" stroke-width="0"/><g fill="#000000"><path d="M230.02086,204.89621c-5.66213,0 -7.34973,-0.4705 -7.34973,-0.4705l-0.08286,-1.2733c0,0 5.25623,0.13066 7.69744,0.13066c4.20542,0 7.61458,-1.35635 7.61458,-0.87378c0,0.48257 -1.95246,2.48691 -7.87944,2.48691z" stroke-width="0"/><path d="M225.51828,199.65354c0,-0.55682 0.44467,-1.00821 0.99321,-1.00821c0.54854,0 0.99321,0.45139 0.99321,1.00821c0,0.55682 -0.44467,1.00821 -0.99321,1.00821c-0.54854,0 -0.99321,-0.45139 -0.99321,-1.00821z" stroke-width="0.5"/></g><g data-paper-data="{&quot;index&quot;:null}" fill="#000000"><path d="M244.83605,202.4093c0,-0.48257 3.40916,0.87378 7.61458,0.87378c2.44121,0 7.69744,-0.13066 7.69744,-0.13066l-0.08286,1.2733c0,0 -1.6876,0.4705 -7.34973,0.4705c-5.92698,0 -7.87944,-2.00433 -7.87944,-2.48691z" stroke-width="0"/><path d="M256.2247,200.66174c-0.54853,0 -0.99321,-0.45139 -0.99321,-1.00821c0,-0.55682 0.44467,-1.00821 0.99321,-1.00821c0.54853,0 0.99321,0.45139 0.99321,1.00821c0,0.55682 -0.44467,1.00821 -0.99321,1.00821z" stroke-width="0.5"/></g><path d="M240.38331,253.12208c0,-0.55681 0.44467,-1.00821 0.99321,-1.00821c0.54854,0 0.99321,0.45139 0.99321,1.00821c0,0.55681 -0.44467,1.00821 -0.99321,1.00821c-0.54854,0 -0.99321,-0.45139 -0.99321,-1.00821z" fill="#000000" stroke-width="0.5"/></g><path d="M217.72942,303.21657v-19.57113h47.5382v19.57113z" fill="#000000" stroke-width="0"/></g><path d="M201.72665,264.48506v-10.01325l9.82618,4.77961v10.01325c0,0 -1.73623,1.13332 -5.56843,-0.53347c-4.22046,-1.83566 -4.25775,-4.24614 -4.25775,-4.24614z" fill="#000000" stroke-width="0"/><path d="M277.05377,268.73121c-3.8322,1.66679 -5.56843,0.53347 -5.56843,0.53347v-10.01325l9.82618,-4.77961v10.01325c0,0 -0.03729,2.41048 -4.25774,4.24614z" data-paper-data="{&quot;index&quot;:null}" fill="#000000" stroke-width="0"/></g><g fill="#6d4321" stroke-width="0"><path d="M232.50272,289.86511c-15.14679,-4.87944 -17.34111,-139.49914 -17.34111,-139.49914c0,0 35.1282,-5.33877 47.11499,-1.0244c12.30932,4.43045 20.21684,24.00901 20.21684,24.00901c0,0 -8.6149,16.56554 -12.81282,36.77822c-2.13185,10.2647 -1.35632,22.64883 -1.35632,31.86737c0,21.4851 2.76987,44.36802 2.76987,44.36802c0,0 -20.94155,9.18673 -38.59144,3.50093z" data-paper-data="{&quot;index&quot;:null}"/><path d="M212.0935,286.36417c0,0 2.76987,-22.88291 2.76987,-44.36802c0,-9.21854 0.77553,-21.60266 -1.35632,-31.86737c-4.19792,-20.21268 -12.81282,-36.77822 -12.81282,-36.77822c0,0 7.90752,-19.57855 20.21684,-24.009c11.98679,-4.31437 47.11499,1.0244 47.11499,1.0244c0,0 -2.19432,134.61971 -17.34111,139.49915c-17.6499,5.6858 -38.59144,-3.50093 -38.59144,-3.50093z"/></g><g stroke-width="0"><g><g data-paper-data="{&quot;index&quot;:null}"><path d="M279.62854,261.38464c-5.55305,4.39724 -13.40076,6.56629 -13.40076,6.56629l0.68309,-94.45784l14.23462,1.74035c0,0 3.29019,1.39363 4.679,5.46671c1.61578,4.73873 -0.19643,11.72265 -0.19643,11.72265c0,0 -0.66403,15.79174 0.44786,28.23691c1.3159,14.72867 3.6059,23.84509 3.6059,23.84509l-1.77229,-1.14223c0,0 0.068,2.45026 0.33615,3.76846c0.26815,1.3182 1.09526,3.26826 1.09526,3.26826c0,0 -4.30432,6.70291 -9.7124,10.98535z" fill="#571c18"/><g><g><path d="M284.09148,195.35897c-0.0742,0.02753 -0.03574,3.09386 -3.43788,3.97361c-2.91543,0.75388 -3.51595,-1.83563 -3.5599,-1.82341c2.70396,-9.50485 5.4671,-17.61561 5.4671,-17.61561c0,0 1.21144,1.77582 1.72066,3.50806c1.29898,4.41887 -0.15792,10.93138 -0.15792,10.93138c0,0 -0.01324,0.36523 -0.03206,1.02597z" fill="#773128"/><g><path d="M285.74719,232.22503c-0.16541,0.08447 -2.41744,-1.41111 -8.04071,1.18867c-4.32319,1.99872 -5.98961,5.32632 -6.13458,5.38621c-0.09509,-7.22621 0.02814,-14.59921 0.65738,-19.82181c0.53913,-4.4747 1.84893,-10.25646 3.36158,-15.99397c0.30317,-0.07104 1.05309,2.35154 4.76964,1.62226c3.067,-0.60181 3.53911,-3.93575 3.62779,-3.96601c-0.06198,5.35258 -0.02839,13.22377 0.49537,20.02357c0.35533,4.61318 0.81273,8.47127 1.26355,11.56108z" fill="#773128"/><path d="M272.53623,261.73555c0,0 -0.58647,-7.36893 -0.85798,-17.63047c0.19042,-0.07313 2.03481,-4.74168 6.91944,-6.98946c4.1586,-1.91368 7.89963,0.34633 8.01493,0.28584c0.51358,2.6825 0.89152,4.03847 0.89152,4.03847l-2.28534,-0.40833c0,0 0.02569,3.89458 0.25407,5.49417c0.2164,1.51565 1.08219,3.86511 1.08219,3.86511c0,0 -2.57351,4.32756 -6.61205,7.44878c-3.97906,3.07526 -7.40677,3.89589 -7.40677,3.89589z" fill="#773128"/><path d="M271.71826,222.17262c-1.6939,7.93756 2.13483,-20.68712 2.13483,-20.68712c0,0 4.75072,-2.14749 3.85742,0c-3.61115,8.68124 0,12.67435 0,12.67435c0,0 -4.18015,-0.47868 -5.99225,8.01277z" fill="#571c18"/></g></g><path d="M284.56964,217.33275c-0.46558,-5.24241 0.60183,0.11727 1.21197,8.03489c0.33077,4.29237 -6.69206,-3.3889 -6.69206,-3.3889c0,0 6.24819,4.00263 5.4801,-4.64598z" data-paper-data="{&quot;index&quot;:null}" fill="#571c18"/></g></g><g><path d="M193.84671,250.39932c0,0 0.82711,-1.95006 1.09526,-3.26826c0.26815,-1.3182 0.33615,-3.76846 0.33615,-3.76846l-1.77229,1.14223c0,0 2.29,-9.11642 3.6059,-23.84509c1.11189,-12.44517 0.44786,-28.23691 0.44786,-28.23691c0,0 -1.81221,-6.98391 -0.19643,-11.72264c1.38881,-4.07308 4.679,-5.46671 4.679,-5.46671l14.23462,-1.74035l0.68309,94.45784c0,0 -7.84771,-2.16906 -13.40076,-6.56629c-5.40808,-4.28244 -9.7124,-10.98535 -9.7124,-10.98535z" fill="#571c18"/><g><g><path d="M199.06404,194.333c0,0 -1.4569,-6.51251 -0.15792,-10.93138c0.50922,-1.73224 1.72066,-3.50806 1.72066,-3.50806c0,0 2.76314,8.11076 5.4671,17.61561c-0.04395,-0.01223 -0.64447,2.57729 -3.5599,1.82341c-3.40214,-0.87975 -3.36369,-3.94608 -3.43788,-3.97361c-0.01882,-0.66074 -0.03206,-1.02597 -0.03206,-1.02597z" fill="#773128"/><g><path d="M198.70401,220.66395c0.52375,-6.7998 0.55735,-14.67099 0.49537,-20.02357c0.08867,0.03026 0.56079,3.3642 3.62779,3.96601c3.71655,0.72927 4.46648,-1.69331 4.76964,-1.62226c1.51265,5.73752 2.82244,11.51927 3.36157,15.99397c0.62924,5.2226 0.75247,12.5956 0.65738,19.82181c-0.14497,-0.05989 -1.81139,-3.3875 -6.13458,-5.38621c-5.62328,-2.59978 -7.8753,-1.10419 -8.04072,-1.18866c0.45082,-3.08981 0.90822,-6.9479 1.26355,-11.56108z" fill="#773128"/><path d="M196.63254,250.39088c0,0 0.86579,-2.34946 1.08218,-3.86511c0.22838,-1.59958 0.25407,-5.49416 0.25407,-5.49416l-2.28535,0.40833c0,0 0.37794,-1.35597 0.89152,-4.03847c0.11529,0.06048 3.85632,-2.19953 8.01492,-0.28585c4.88463,2.24779 6.72901,6.91634 6.91944,6.98947c-0.27151,10.26154 -0.1474,18.16201 -0.1474,18.16201c0,0 -3.01541,-0.38508 -7.82998,-3.98242c-6.11293,-4.56745 -6.89941,-7.89381 -6.89941,-7.89381z" fill="#773128"/><path d="M205.47711,214.15985c0,0 3.61114,-3.99311 0,-12.67435c-0.89329,-2.14749 3.85742,0 3.85742,0c0,0 3.82873,28.62468 2.13483,20.68712c-1.81211,-8.49146 -5.99225,-8.01277 -5.99225,-8.01277z" fill="#571c18"/></g></g><path d="M204.09804,221.97873c0,0 -7.02283,7.68127 -6.69206,3.3889c0.61013,-7.91762 1.67755,-13.2773 1.21196,-8.03489c-0.76809,8.64862 5.4801,4.64598 5.4801,4.64598z" data-paper-data="{&quot;index&quot;:null}" fill="#571c18"/></g></g></g><g fill="#6d4321"><path d="M232.50272,289.86511c-15.14679,-4.87944 -17.34111,-139.49914 -17.34111,-139.49914c0,0 35.1282,-5.33877 47.11499,-1.0244c12.30932,4.43045 20.21684,24.00901 20.21684,24.00901c0,0 -8.6149,16.56554 -12.81282,36.77822c-2.13185,10.2647 -1.35632,22.64883 -1.35632,31.86737c0,21.4851 2.76987,44.36802 2.76987,44.36802c0,0 -20.94155,9.18673 -38.59144,3.50093z" data-paper-data="{&quot;index&quot;:null}"/><path d="M212.0935,286.36417c0,0 2.76987,-22.88291 2.76987,-44.36802c0,-9.21854 0.77553,-21.60266 -1.35632,-31.86737c-4.19792,-20.21268 -12.81282,-36.77822 -12.81282,-36.77822c0,0 7.90752,-19.57855 20.21684,-24.009c11.98679,-4.31437 47.11499,1.0244 47.11499,1.0244c0,0 -2.19432,134.61971 -17.34111,139.49915c-17.6499,5.6858 -38.59144,-3.50093 -38.59144,-3.50093z"/></g><g><g><g fill="#59220f"><path d="M218.04933,216.82762c16.87591,0.03755 33.75182,0.0751 50.62773,0.11265c-0.52184,5.38805 -0.52808,11.01705 -0.46006,16.25367c-16.29109,0 -32.58218,0 -48.87326,0c-0.48301,-5.39305 -0.91265,-10.89346 -1.29441,-16.36632z" data-paper-data="{&quot;index&quot;:null}"/><path d="M214.49887,216.81972c16.8774,0.03755 33.75479,0.07511 50.63218,0.11266c-0.37993,5.43828 -0.80717,10.90293 -1.2871,16.26156c-16.29109,0 -32.58217,0 -48.87326,0c0.06853,-5.27569 0.06169,-10.94963 -0.47182,-16.37422z"/></g><g fill="#6d4321"><path d="M218.04933,219.05595c16.87591,0.02732 33.67,0.05464 50.54591,0.08196c-0.52184,3.92013 -0.44626,8.01558 -0.37824,11.82554c-16.29109,0 -32.58218,0 -48.87326,0c-0.48301,-3.92377 -0.91265,-7.92566 -1.29441,-11.9075z" data-paper-data="{&quot;index&quot;:null}"/><path d="M214.66252,219.0502c16.8774,0.02732 33.59115,0.05464 50.46854,0.08196c-0.37993,3.95668 -0.80717,7.93255 -1.2871,11.83128c-16.29109,0 -32.58217,0 -48.87326,0c0.06853,-3.83838 0.22534,-7.96653 -0.30818,-11.91324z"/></g><g fill="#481310"><path d="M218.04933,220.79121c16.87591,0.01935 33.75182,0.0387 50.62773,0.05806c-0.2286,1.21653 -0.35826,2.45689 -0.42607,3.69365c-9.0975,-0.01022 -18.195,-0.02044 -27.2925,-0.03066c-7.46049,-0.00839 -14.92097,-0.01677 -22.38145,-0.02515c-0.18533,-1.23082 -0.36108,-2.4647 -0.52771,-3.69589z" data-paper-data="{&quot;index&quot;:null}"/><path d="M268.21691,229.22651c-16.29109,0 -32.58218,0 -48.87326,0c-0.18643,-1.07281 -0.36489,-2.15386 -0.53573,-3.23916c7.38293,0.0083 14.76587,0.01659 22.1488,0.02489c9.07992,0.01021 18.15983,0.0204 27.23975,0.03061c-0.02087,1.07874 -0.0057,2.14614 0.02045,3.18366z" data-paper-data="{&quot;index&quot;:null}"/><path d="M214.49887,220.78714c16.8774,0.01935 33.75479,0.03871 50.63218,0.05806c-0.16679,1.23051 -0.3427,2.46364 -0.52819,3.69361c-7.88146,-0.00886 -15.76292,-0.01771 -23.64438,-0.02657c-8.67504,-0.00975 -17.35007,-0.0195 -26.0251,-0.02925c-0.06988,-1.23795 -0.20231,-2.47908 -0.43451,-3.69586z"/><path d="M263.84389,229.22651c-16.29109,0 -32.58217,0 -48.87326,0c0.02663,-1.05668 0.04188,-2.14436 0.01926,-3.24345c8.65562,0.00973 17.31122,0.01945 25.96684,0.02918c7.80494,0.00877 15.60989,0.01754 23.41483,0.02631c-0.16839,1.06809 -0.34418,2.13202 -0.52767,3.18796z"/></g></g><g><path d="M238.45748,291.70993v-100.1075h6.15409v100.10751c0,0 -1.05113,0.0651 -1.5671,0.03111c-0.50348,-0.03316 -1.49215,-0.23262 -1.49215,-0.23262c0,0 -0.87462,0.25845 -1.35433,0.28968c-0.54383,0.03541 -1.7405,-0.08818 -1.7405,-0.08818z" fill="#481310"/><g><path d="M241.59441,147.91992c17.92631,0.41525 16.48582,10.99281 16.48582,24.55311c0,13.5603 -16.48582,26.56771 -16.48582,26.56771c0,0 -16.48582,-13.0074 -16.48582,-26.56771c0,-13.56031 -1.68421,-24.974 16.48582,-24.55311z" fill="#ffffff"/><g><path d="M206.64445,160.23622c0,0 5.9425,-8.97338 12.1047,-12.25988c6.1622,-3.28651 5.01347,25.41323 7.28715,29.61172c3.31127,6.11447 15.21517,21.44528 15.21517,21.44528c0,0 -9.88164,-5.67771 -16.99491,-10.82254c-3.91807,-2.83383 -7.18668,-2.49654 -10.82406,-6.57206c-7.10995,-7.96637 -8.62354,-17.97918 -8.62354,-17.97918z" fill="#481310"/><path d="M206.64445,160.23622c0,0 5.9425,-8.97338 12.1047,-12.25988c6.1622,-3.28651 11.17357,-0.15519 11.17357,-0.15519c0,0 -4.05775,9.7519 -0.74945,27.16936c0.76226,4.01309 4.61276,7.50195 6.88644,11.70045c3.31127,6.11447 5.19176,12.34239 5.19176,12.34239c0,0 -6.92427,-6.1706 -14.03754,-11.31544c-3.91807,-2.83383 -7.50814,-3.39661 -11.14552,-7.47213c-8.58067,-9.61425 -9.42397,-20.00955 -9.42397,-20.00955z" fill="#571c18"/><path d="M226.025,176.27889c0.51853,2.91969 4.16064,4.53746 5.70731,7.59204c2.2525,4.44853 1.9975,6.83173 1.9975,6.83173c0,0 -2.97148,-3.56885 -7.8103,-7.31194c-2.66527,-2.06173 -6.33478,-2.36889 -8.80911,-5.334c-3.85534,-4.62004 -5.8607,-10.51425 -6.77797,-13.98392c0.06985,0.04182 3.76112,4.2025 7.4313,5.26178c3.62793,1.04708 7.23525,-1.00694 7.3038,-0.99303c0.17174,2.52169 0.4717,5.20206 0.95747,7.93735z" fill="#773128"/><path d="M224.93249,165.77301c-0.0735,-0.01369 -3.74126,1.83908 -7.33881,0.64722c-3.84144,-1.27266 -7.62755,-5.59618 -7.67951,-5.64399c0.35501,-0.54377 1.08808,-1.63009 2.06011,-2.87787c0.67109,4.02409 4.16925,7.09147 8.38384,7.09147c1.66173,0 3.2121,-0.47685 4.52171,-1.30118c0.00901,0.67577 0.02605,1.37146 0.05265,2.08435z" fill="#773128"/></g><g data-paper-data="{&quot;index&quot;:null}"><path d="M278.28346,163.65956c0,0 -1.51359,10.0128 -8.62354,17.97918c-3.63738,4.07552 -6.90599,3.73823 -10.82406,6.57206c-7.11327,5.14484 -16.99491,10.82254 -16.99491,10.82254c0,0 11.9039,-15.33081 15.21517,-21.44528c2.27369,-4.1985 1.12496,-32.89823 7.28715,-29.61172c6.1622,3.28651 12.1047,12.25988 12.1047,12.25988z" fill="#481310"/><path d="M267.02405,180.24581c-3.63738,4.07552 -7.22745,4.6383 -11.14552,7.47213c-7.11327,5.14484 -14.03754,11.31544 -14.03754,11.31544c0,0 1.88049,-6.22792 5.19176,-12.34239c2.27369,-4.1985 6.12418,-7.68735 6.88644,-11.70045c3.3083,-17.41746 -0.74945,-27.16936 -0.74945,-27.16936c0,0 5.01137,-3.13132 11.17357,0.15519c6.1622,3.28651 12.1047,12.25988 12.1047,12.25988c0,0 -0.8433,10.39531 -9.42397,20.00955z" fill="#571c18"/><path d="M258.02495,168.34155c0.06855,-0.01391 3.67587,2.04011 7.3038,0.99303c3.67017,-1.05928 7.36144,-5.21995 7.43129,-5.26178c-0.91727,3.46967 -2.92263,9.36389 -6.77797,13.98393c-2.47433,2.96511 -6.14384,3.27227 -8.80911,5.334c-4.83882,3.74309 -7.8103,7.31194 -7.8103,7.31194c0,0 -0.255,-2.3832 1.9975,-6.83173c1.54667,-3.05458 5.18878,-4.67235 5.70731,-7.59204c0.48577,-2.73529 0.78573,-5.41565 0.95747,-7.93735z" fill="#773128"/><path d="M258.21263,163.68866c1.30962,0.82432 2.85998,1.30118 4.52171,1.30118c4.21458,0 7.71274,-3.06737 8.38383,-7.09146c0.97204,1.24778 1.70511,2.3341 2.06011,2.87787c-0.05196,0.04781 -3.83806,4.37133 -7.67951,5.64399c-3.59754,1.19186 -7.2653,-0.66091 -7.3388,-0.64722c0.02661,-0.71289 0.04365,-1.40858 0.05265,-2.08435z" fill="#773128"/></g></g><path d="M242.20102,282.85955c-0.23922,-0.02571 -0.67536,-0.23845 -0.67536,-0.23845c0,0 -0.49301,0.16419 -0.74408,0.19148c-0.25729,0.02798 -0.78146,-0.02561 -0.78146,-0.02561v-54.37362c1.01987,0.44463 2.04207,0.88213 3.06883,1.3057v53.06792c0,0 -0.59674,0.10174 -0.86793,0.07259z" fill="#571c18"/><path d="M240.00011,221.48673c1.01919,0.4173 2.04157,0.8237 3.06883,1.21334v2.55662c-1.02535,-0.41413 -2.04804,-0.83546 -3.06883,-1.26168z" fill="#571c18"/><path d="M240.00011,203.50712c0.40051,0.21003 0.8516,0.32806 1.32871,0.32806c0.64873,0 1.24937,-0.21823 1.74012,-0.5892v14.95496c-1.02558,-0.367 -2.04863,-0.74106 -3.06883,-1.12254z" fill="#571c18"/></g><g><path d="M217.08855,210.72622c-1.10864,-5.73589 -2.77653,-11.40761 -4.56354,-16.52849c0.08178,0.05635 5.18888,0.00964 10.77471,2.0574c6.02211,2.20772 12.55768,6.52047 12.71647,6.54656c0.01477,2.8657 0.0352,6.8187 0.05428,10.46804c-6.18649,-0.01386 -12.37297,-0.02772 -18.55945,-0.04157c-0.12371,-0.84638 -0.26387,-1.68138 -0.42247,-2.50194z" fill="#8d6e47"/><path d="M203.6594,173.52719l0.92748,-2.79166c0,0 0.86586,5.08647 8.72285,12.69655c2.16709,2.09899 7.06123,4.0966 10.99214,6.68193c6.27552,4.12735 11.69325,8.591 11.69325,8.591c0,0 0.00503,0.98273 0.01311,2.55286c-0.15517,-0.02591 -6.67256,-5.5613 -12.92849,-8.01262c-5.78726,-2.26767 -11.35078,-1.46336 -11.44679,-1.53448c-3.88039,-10.53527 -7.97354,-18.18358 -7.97354,-18.18358z" fill="#8d6e47"/><path d="M217.13621,213.84367c0,0 -2.36621,-4.87275 -2.00011,-8.11322c0.3661,-3.24047 3.38747,-4.1669 3.38747,-4.1669c0,0 -4.84325,5.64335 7.40823,11.99066c5.41353,2.80467 -8.79559,0.28946 -8.79559,0.28946z" fill="#6d4321"/><g><path d="M265.53668,213.22816c-6.18649,0.01386 -12.37297,0.02772 -18.55946,0.04157c0.01908,-3.64934 0.03951,-7.60234 0.05428,-10.46804c0.15879,-0.02609 6.69436,-4.33884 12.71647,-6.54656c5.58583,-2.04777 10.69293,-2.00105 10.77471,-2.0574c-1.78701,5.12088 -3.4549,10.7926 -4.56354,16.52849c-0.1586,0.82056 -0.29876,1.65556 -0.42246,2.50194z" data-paper-data="{&quot;index&quot;:null}" fill="#8d6e47"/><path d="M271.41481,191.71077c-0.09602,0.07112 -5.65953,-0.73319 -11.4468,1.53448c-6.25593,2.45131 -12.77333,7.9867 -12.92849,8.01262c0.00808,-1.57013 0.01311,-2.55286 0.01311,-2.55286c0,0 5.41774,-4.46365 11.69326,-8.591c3.93091,-2.58533 8.82504,-4.58294 10.99213,-6.68193c7.85699,-7.61008 8.72285,-12.69655 8.72285,-12.69655l0.92748,2.79166c0,0 -4.09314,7.64831 -7.97353,18.18358z" data-paper-data="{&quot;index&quot;:null}" fill="#8d6e47"/><path d="M257.11591,213.55421c12.25147,-6.34731 7.40823,-11.99066 7.40823,-11.99066c0,0 3.02138,0.92643 3.38747,4.1669c0.36609,3.24047 -2.00011,8.11322 -2.00011,8.11322c0,0 -14.20912,2.51521 -8.79559,-0.28946z" data-paper-data="{&quot;index&quot;:null}" fill="#6d4321"/></g></g><g><g fill="#8d6e47"><path d="M216.24158,282.35262c0,0 1.84002,-17.57511 2.30895,-36.45298c0.00651,0.00146 3.39004,3.44672 7.13486,4.10662c4.35312,0.76709 9.16518,-1.23426 9.27075,-1.22011c-0.02166,11.53659 -0.04615,28.36026 -0.02943,38.78946c-10.24345,-0.94139 -18.68513,-5.22298 -18.68513,-5.22298z"/><path d="M218.65824,237.59642c0,-0.45889 0.00456,-1.39934 0.00456,-1.39934l16.31986,-0.00216l-0.01743,7.94287c0,0 -4.94352,2.28359 -9.10872,1.19642c-4.68878,-1.22384 -7.21471,-4.58381 -7.21471,-4.58381c0,0 0.01644,-2.10502 0.01644,-3.15397z"/></g><g fill="#6d4321"><path d="M226.54791,256.27441c0,0 -8.03063,-4.86836 -8.99521,2.99077c-0.50773,4.13682 0.57945,-10.66386 0.57945,-10.66386z"/><path d="M226.59124,252.32185c0,0 8.03063,4.86836 8.99521,-2.99077c0.50772,-4.13681 -0.57945,10.66386 -0.57945,10.66386z" data-paper-data="{&quot;index&quot;:null}"/></g></g><g data-paper-data="{&quot;index&quot;:null}"><g fill="#8d6e47"><path d="M248.261,287.57561c0.01673,-10.4292 -0.00777,-27.25288 -0.02943,-38.78946c0.10557,-0.01415 4.91763,1.9872 9.27075,1.22011c3.74482,-0.6599 7.12835,-4.10515 7.13486,-4.10662c0.46893,18.87788 2.30895,36.45298 2.30895,36.45298c0,0 -8.44168,4.2816 -18.68513,5.22298z"/><path d="M264.5458,240.75039c0,0 -2.52593,3.35997 -7.21471,4.58381c-4.1652,1.08718 -9.10872,-1.19642 -9.10872,-1.19642l-0.01743,-7.94287l16.31986,0.00216c0,0 0.00456,0.94046 0.00456,1.39934c0,1.04895 0.01644,3.15397 0.01644,3.15397z"/></g><g fill="#6d4321"><path d="M265.05548,248.60132c0,0 1.08718,14.80067 0.57945,10.66386c-0.96458,-7.85913 -8.99521,-2.99077 -8.99521,-2.99077z"/><path d="M248.18071,259.99494c0,0 -1.08718,-14.80067 -0.57946,-10.66386c0.96458,7.85913 8.99521,2.99077 8.99521,2.99077z" data-paper-data="{&quot;index&quot;:null}"/></g></g></g></g></g><path d="" fill="#000000" stroke="none" stroke-width="NaN" stroke-linecap="butt"/><path d="" fill="#ffffff" stroke="none" stroke-width="0" stroke-linecap="butt"/><g stroke="none" stroke-width="0" stroke-linecap="butt"><path d="" fill="#000000"/><path d="" fill="#ffffff"/></g><g stroke="none" stroke-width="0" stroke-linecap="butt"><path d="" fill="#000000"/><path d="" fill="#ffffff"/></g><path d="" fill="#000000" stroke="none" stroke-width="0" stroke-linecap="butt"/><path d="" fill="#000000" stroke="none" stroke-width="0" stroke-linecap="butt"/><g stroke="none" stroke-width="0" stroke-linecap="butt"><path d="" fill="#000000"/><path d="" fill="#ffffff"/></g><g stroke="none" stroke-width="0" stroke-linecap="butt"><path d="" data-paper-data="{&quot;index&quot;:null}" fill="#000000"/><path d="" data-paper-data="{&quot;index&quot;:null}" fill="#ffffff"/></g><path d="" fill-opacity="0.00806" fill="#000000" stroke="#000000" stroke-width="0" stroke-linecap="butt"/><g fill="#000000" stroke="none" stroke-linecap="butt"><path d="" stroke-width="0"/><path d="" stroke-width="0"/><g><path d="" stroke-width="0"/><path d="" stroke-width="0.5"/></g><g data-paper-data="{&quot;index&quot;:null}"><path d="" stroke-width="0"/><path d="" stroke-width="0.5"/></g><path d="" stroke-width="0.5"/></g><path d="" fill="#000000" stroke="none" stroke-width="NaN" stroke-linecap="butt"/><g data-paper-data="{&quot;index&quot;:null}" stroke="none" stroke-width="0" stroke-linecap="butt"><path d="" fill="#53305f"/><path d="" fill="#3d496d"/><path d="" fill="#566580"/><path d="" fill="#566580"/><path d="" fill="#654779"/><path d="" fill="#654779"/></g><path d="" fill="#53305f" stroke="none" stroke-width="0" stroke-linecap="butt"/><path d="" fill="#3d496d" stroke="none" stroke-width="0" stroke-linecap="butt"/><path d="" fill="#000000" stroke="none" stroke-width="NaN" stroke-linecap="butt"/><g><path d="" fill="#000000" stroke="none" stroke-width="0" stroke-linecap="butt"/><path d="" fill="#ffffff" stroke="none" stroke-width="0" stroke-linecap="butt"/><path d="" fill="none" stroke="#000000" stroke-width="0.5" stroke-linecap="round"/></g><g data-paper-data="{&quot;index&quot;:null}"><path d="" fill="#000000" stroke="none" stroke-width="0" stroke-linecap="butt"/><path d="" fill="none" stroke="#000000" stroke-width="0.5" stroke-linecap="round"/></g><path d="" fill="#000000" stroke="none" stroke-width="0" stroke-linecap="butt"/><path d="" fill="#000000" stroke="none" stroke-width="0" stroke-linecap="butt"/><path d="" data-paper-data="{&quot;index&quot;:null}" fill="#000000" stroke="none" stroke-width="0" stroke-linecap="butt"/><g stroke="none" stroke-width="0" stroke-linecap="butt"><path d="" fill="#566580"/><path d="" fill="#3d496d"/><path d="" fill="#3d496d"/><path d="" fill="#2c2f5d"/><path d="" fill="#2c2f5d"/></g><g data-paper-data="{&quot;index&quot;:null}" stroke="none" stroke-width="0" stroke-linecap="butt"><path d="" fill="#566580"/><path d="" fill="#3d496d"/><path d="" fill="#3d496d"/><path d="" fill="#2c2f5d"/><path d="" fill="#2c2f5d"/></g><path d="" fill-opacity="0.19355" fill="#000000" stroke="none" stroke-width="0" stroke-linecap="butt"/><path d="" fill="#ffffff" stroke="none" stroke-width="0" stroke-linecap="butt"/><path d="" fill-opacity="0.19355" fill="#000000" stroke="none" stroke-width="0" stroke-linecap="butt"/><path d="" fill-opacity="0.19355" fill="#000000" stroke="none" stroke-width="0" stroke-linecap="butt"/><path d="" fill-opacity="0.19355" fill="#000000" stroke="none" stroke-width="0" stroke-linecap="butt"/><g stroke="none" stroke-width="0" stroke-linecap="butt"><path d="" fill="#000000"/><path d="" fill="#ffffff"/></g><g stroke="none" stroke-width="0" stroke-linecap="butt"><path d="" fill="#000000"/><path d="" fill="#ffffff"/></g><path d="" fill="#000000" stroke="none" stroke-width="0" stroke-linecap="butt"/><g stroke="none" stroke-linecap="butt"><path d="" fill="#000000" stroke-width="NaN"/><path d="" fill="#ffffff" stroke-width="0"/><path d="" fill="#ffffff" stroke-width="0"/></g><path d="" fill="#000000" stroke="none" stroke-width="0" stroke-linecap="butt"/><path d="" fill="#000000" stroke="none" stroke-width="0" stroke-linecap="butt"/><g stroke="none" stroke-width="0" stroke-linecap="butt"><path d="" fill="#000000"/><path d="" fill="#ffffff"/><path d="" fill="#ffffff"/></g><path d="" fill="#000000" stroke="none" stroke-width="0" stroke-linecap="butt"/><g stroke="none" stroke-width="0" stroke-linecap="butt"><path d="" data-paper-data="{&quot;index&quot;:null}" fill="#000000"/><path d="" data-paper-data="{&quot;index&quot;:null}" fill="#000000"/><path d="" data-paper-data="{&quot;index&quot;:null}" fill="#ffffff"/></g><path d="" data-paper-data="{&quot;index&quot;:null}" fill="#000000" stroke="none" stroke-width="0" stroke-linecap="butt"/><path d="" data-paper-data="{&quot;index&quot;:null}" fill-opacity="0.35484" fill="#000000" stroke="none" stroke-width="0" stroke-linecap="butt"/><path d="" fill="#566580" stroke="none" stroke-width="0" stroke-linecap="butt"/><path d="" fill="#566580" stroke="none" stroke-width="0" stroke-linecap="butt"/><path d="" fill="#654779" stroke="none" stroke-width="0" stroke-linecap="butt"/><path d="" fill="#654779" stroke="none" stroke-width="0" stroke-linecap="butt"/><path d="" fill="#ffffff" stroke="none" stroke-width="0" stroke-linecap="butt"/><path d="" fill="#ffffff" stroke="none" stroke-width="0" stroke-linecap="butt"/><g stroke="none" stroke-linecap="butt"><g fill="#000000"><path d="M280.22826,107.5897c0.32115,1.58234 0.00079,3.655 0.11581,5.28993c0.19473,2.76795 0.68038,4.79438 0.68038,4.79438c0,0 -1.73552,0.13776 -3.05375,-0.91727l0.48952,9.27333c0,0 -1.22664,-1.18683 -1.98867,-2.13803c-0.08742,0.50383 -0.14184,1.00808 -0.11948,1.42253c0.17982,3.33528 1.77249,5.64488 1.77249,5.64488c0,0 -2.43296,0.2833 -4.14059,-0.9326c-0.13029,1.03936 -0.51282,4.40786 -2.15857,6.67985c-1.73507,2.39531 -6.64075,4.87941 -6.64075,4.87941c0,0 -17.59251,-18.36141 -17.35126,-36.6622c0.24126,-18.30078 13.93392,-33.80722 18.2855,-34.20628c10.1134,-0.92745 16.64892,26.71635 16.64892,26.71635c0,0 -2.48184,-0.07727 -3.99831,-1.49145c0.25237,1.24377 0.74957,3.46417 1.26611,4.48058c0.64554,1.27025 2.75278,2.8762 2.75278,2.8762c0,0 -1.81155,0.48378 -3.45701,0.36615c0.24378,0.93309 0.55202,2.22492 0.8969,3.92421z" data-paper-data="{&quot;index&quot;:null}" stroke-width="NaN"/><path d="M194.74222,93.73027c0,0 1.25667,1.58559 0.56949,1.75273c-1.88567,0.45867 -4.82075,-0.9613 -4.82075,-0.9613c0,0 2.37217,-1.17994 3.24558,-2.30574c0.99951,-1.28834 2.42438,-5.00261 2.42438,-5.00261c0,0 1.42449,-1.9881 1.21801,-1.25895c-1.01108,3.57045 -5.76216,2.811 -5.76216,2.811c0,0 1.36419,-2.02023 1.87873,-6.22272c0.25822,-2.10897 -1.00372,-5.91157 -0.13262,-7.98346c2.08878,-4.96807 5.68684,-7.68201 5.68684,-7.68201c0,0 -0.68116,-3.55495 2.59708,-9.07885c1.35868,-2.28941 3.37022,-2.52084 4.91243,-3.59446c2.7739,-1.9311 4.8679,-3.59279 4.8679,-3.59279c0,0 0.36898,3.14947 -0.60577,4.41225c-0.44333,0.57433 -1.2438,-0.23764 -1.2438,-0.23764c0,0 6.56974,-5.58211 11.21324,-6.87601c1.90079,-0.52965 7.89225,-0.10243 13.29327,-0.36893c4.21883,-0.20817 8.30472,-1.16992 8.30472,-1.16992l-2.16507,2.37764c0,0 12.17674,-3.24212 18.97638,-0.21063c2.87152,1.28021 4.62973,4.55935 7.13995,7.46516c3.43385,3.97499 7.19119,7.59498 7.19119,7.59498c0,0 -3.73464,3.5841 -6.78829,0.97375c-0.66988,-0.57264 1.66643,-2.29437 1.66643,-2.29437c0,0 9.36305,4.91968 10.27241,19.88158c0.46845,7.7074 -2.20507,7.13069 -3.83201,15.87087c-1.93576,10.39929 -2.96089,29.64145 -3.39485,31.23085c-2.2694,8.31172 -9.11198,15.64438 -9.11198,15.64438l-0.90618,-3.14853c0,0 -0.42832,1.50777 -1.85391,3.03904c-1.58047,1.69763 -4.35912,3.17023 -4.35912,3.17023l0.35001,-3.64595c0,0 -5.24006,5.57214 -11.98612,8.10358c-6.5044,2.44075 -12.26027,1.41533 -14.99169,1.10446c-14.35813,-1.63412 -23.4775,-13.33672 -23.4775,-13.33672l-1.79301,1.57592c0,0 -6.39899,-4.77164 -8.01726,-10.13859c-2.40119,-7.96347 -0.60618,-12.5798 -0.60618,-12.5798c0,0 1.34231,1.59772 0.73947,2.34442c-1.88751,2.33803 -5.58417,1.17198 -5.58417,1.17198c0,0 1.99946,-1.96799 2.80475,-5.20958c0.33604,-1.35267 0.01301,-3.86302 0.01301,-3.86302c0,0 1.21546,0.93255 0.88131,1.64597c-0.33415,0.71341 -3.09953,2.52233 -3.09953,2.52233l2.4368,-9.85634c0,0 0.62303,0.31127 0.09891,0.65937c-1.55995,1.03605 -3.47887,0.50736 -3.47887,0.50736c0,0 0.85891,-1.89855 1.57191,-4.58018c0.42113,-1.58392 0.49721,-3.67983 1.11087,-5.17327c1.60907,-3.91595 2.54579,-5.48747 2.54579,-5.48747z" stroke-width="NaN"/></g><path d="M208.88204,135.51117c-0.48703,-6.79244 0.45178,-6.93024 0.21336,-13.48416c-0.13163,-3.61849 -1.46765,-7.3611 -1.66581,-11.34088c-0.41732,-8.38149 1.16308,-25.66494 2.31005,-29.31321c6.36453,-20.24422 17.68084,-23.39725 32.13463,-22.54318c20.75288,1.22628 23.50356,14.77662 25.05408,26.28027c1.08381,8.04108 -0.57007,18.95842 -3.05255,28.40977c-1.52046,5.78868 -3.48743,10.52534 -4.92824,15.18851c-1.77834,5.75564 -1.48374,7.65436 -3.05373,12.43613c-1.63117,4.96812 -7.82455,10.1151 -13.27816,14.64605c-4.98625,4.14266 -8.66136,7.54451 -13.10565,7.01433c-5.01037,-0.59772 -8.33222,-7.04681 -13.25829,-13.76094c-3.90281,-5.31944 -7.11728,-10.01201 -7.36971,-13.5327z" fill="#000000" stroke-width="0"/><path d="M246.30942,129.00403c2.96413,4.19555 9.11123,7.30716 8.75306,8.48979c-2.12147,7.00473 -2.57398,7.02337 -5.2215,9.76835c-2.86912,2.97474 -6.7746,5.53577 -9.91522,8.00799c-2.847,2.24109 -6.04163,5.66662 -9.32787,5.35409c-4.08588,-0.38857 -6.51497,-4.42667 -9.33097,-8.33625c-4.25286,-5.90443 -10.66111,-8.96532 -11.29753,-18.96134c-0.09463,-1.48637 7.78274,-3.83448 12.98688,-8.56285c1.73899,-1.58001 3.23088,-3.3804 4.4637,-5.11748c4.89564,0.62971 9.78797,1.28503 14.68093,1.93549c1.0982,2.37381 2.50437,5.01004 4.20852,7.42219z" fill="#ffffff" stroke-width="0"/><g fill="#000000" stroke-width="0"><path d="M223.21219,98.79126c5.61602,0.53409 9.74533,5.41894 9.22306,10.91063c-0.52227,5.49168 -5.67146,9.2463 -11.28749,8.71221c-5.61603,-0.53409 -9.87238,-5.18319 -9.35011,-10.67487c0.52227,-5.49167 5.79851,-9.48205 11.41454,-8.94796z"/><path d="M223.18811,99.04448c4.95287,0.47103 8.38406,4.67133 7.91575,9.59572c-0.46832,4.92439 -4.85319,8.6672 -9.80606,8.19617c-4.95288,-0.47103 -8.39395,-4.80396 -7.92563,-9.72835c0.46832,-4.9244 4.86307,-8.53457 9.81594,-8.06354z"/></g><path d="M252.54251,98.57985c-6.50422,-0.64533 -12.11406,1.36757 -12.11406,1.36757l0.15783,-4.42733c0,0 5.42487,-1.22609 9.53279,-0.97134c4.10791,0.25475 7.03068,1.33182 7.03068,1.33182l0.08063,1.21729l7.14987,2.85659l-0.02463,1.64275c0,0 -5.65792,-2.40663 -11.81312,-3.01733z" data-paper-data="{&quot;index&quot;:null}" fill="#000000" stroke-width="0"/><g stroke-width="0"><path d="M230.87648,130.87001c0,0 0.75958,-8.65375 0.89325,-12.35885c0.10737,-2.97609 -0.15272,-8.16781 -0.15272,-8.16781c0,0 -0.18176,-1.59746 0.17239,-1.55345c1.12836,0.14025 7.61097,2.52084 7.61097,2.52084l-2.29507,20.15164c0,0 0.6347,2.00678 0.37497,3.75131c-0.19399,1.30302 -1.41556,4.58952 -1.55896,5.55271c-0.31557,2.11962 -0.77255,3.83744 -0.77255,3.83744l-4.12039,-0.4064c0,0 0.06648,-2.01805 -0.46439,-4.33293c-0.51096,-2.22807 -1.67513,-4.73539 -1.64611,-5.77101c0.08389,-2.99401 1.95862,-3.2235 1.95862,-3.2235z" fill="#000000"/><path d="M232.06552,143.31642c0,0 0.07051,-3.81402 0.28507,-8.25078c0.21307,-4.40621 0.59517,-9.68825 0.6736,-13.29691c0.03227,-1.48471 0.03025,-3.24747 0.00935,-5.04979c1.52719,0.15811 3.05477,0.31256 4.58272,0.46332l-3.07038,26.32935z" fill="#ffffff"/><path d="M230.70965,132.03747c0.34246,0.03257 0.16797,4.81294 0.16797,4.81294c0,0 -1.08937,-1.70354 -0.98217,-2.8308c0.10721,-1.12727 0.47173,-2.01471 0.8142,-1.98214z" fill="#ffffff"/></g><g stroke-width="0"><g><path d="M219.81376,102.58917c2.70123,0.25689 4.67989,2.6852 4.41945,5.42376c-0.26044,2.73856 -2.66135,4.75036 -5.36259,4.49346c-2.70123,-0.25689 -4.67989,-2.68519 -4.41945,-5.42375c0.26044,-2.73856 2.66135,-4.75037 5.36259,-4.49347z" fill="#773128"/><path d="M219.69805,103.8059c2.03841,0.19386 3.53155,2.02631 3.33502,4.09289c-0.19654,2.06659 -2.00832,3.58472 -4.04674,3.39087c-2.03841,-0.19386 -3.53155,-2.02631 -3.33502,-4.09288c0.19654,-2.06659 2.00831,-3.58474 4.04674,-3.39088z" fill="#000000"/></g><g><path d="M219.60047,104.83198c1.47944,0.1407 2.56315,1.47067 2.42051,2.97056c-0.14264,1.49989 -1.45761,2.60174 -2.93706,2.46104c-1.47944,-0.1407 -2.56315,-1.47066 -2.42051,-2.97055c0.14264,-1.49989 1.45761,-2.60175 2.93706,-2.46105z" fill="#773128"/><path d="M219.53709,105.49838c1.11642,0.10617 1.93421,1.10979 1.82657,2.24166c-0.10764,1.13185 -1.09995,1.96332 -2.21637,1.85715c-1.11642,-0.10617 -1.93421,-1.10978 -1.82657,-2.24164c0.10764,-1.13185 1.09994,-1.96334 2.21637,-1.85717z" fill="#000000"/></g><g><path d="M219.48475,106.04871c0.81663,0.07766 1.41481,0.81178 1.33607,1.6397c-0.07874,0.8279 -0.80457,1.43611 -1.6212,1.35845c-0.81663,-0.07766 -1.4148,-0.81178 -1.33606,-1.63969c0.07874,-0.8279 0.80457,-1.43612 1.62119,-1.35846z" fill="#773128"/><path d="M219.44977,106.41655c0.61624,0.05861 1.06765,0.61259 1.00823,1.23735c-0.05942,0.62476 -0.60715,1.08372 -1.2234,1.02511c-0.61624,-0.05861 -1.06765,-0.61258 -1.00823,-1.23734c0.05942,-0.62476 0.60715,-1.08373 1.2234,-1.02512z" fill="#000000"/></g></g><path d="M210.82608,107.71314c0,0 0.04493,-2.22864 1.24216,-4.49917c1.43266,-2.71701 4.5707,-6.52594 10.61235,-5.98361c4.39469,0.3945 6.51042,3.12342 7.86706,5.14085c2.22782,3.31294 1.70011,7.73583 1.70011,7.73583c0,0 -3.50044,-3.46347 -12.13522,-4.66254c-3.1561,-0.43827 -9.28646,2.26863 -9.28646,2.26863z" fill="#000000" stroke-width="0"/><g><g><g stroke-width="0"><g fill="#773128"><path d="M252.89952,153.09002c-2.15392,2.5873 -3.95247,2.74715 -8.62488,4.81073c-4.02032,1.77557 -8.38669,6.21603 -15.18769,5.6617c-6.80101,-0.55433 -8.92249,-41.25704 -8.92249,-41.25704c0,0 33.75178,1.22666 39.04258,3.49641c5.2908,2.26975 -3.43917,14.34538 -3.43917,14.34538c0,0 2.62633,6.34256 -2.86836,12.94282z" data-paper-data="{&quot;index&quot;:null}"/><path d="M208.99157,135.6987c0,0 -6.29723,-13.50475 -0.67343,-14.7365c5.6238,-1.23175 42.96204,3.97631 42.96204,3.97631c0,0 -11.96849,38.79111 -20.49971,38.78499c-5.10901,-0.00367 -9.75245,-5.0862 -13.9376,-8.76255c-3.05692,-2.68527 -6.1959,-3.69654 -7.47407,-6.01076c-4.15205,-7.51768 -0.37724,-13.25148 -0.37724,-13.25148z"/></g><g fill="#894939"><path d="M211.32438,123.7895c4.90641,-1.07463 37.48171,3.46908 37.48171,3.46908c0,0 -10.12892,1.1618 -14.34785,10.53417c-3.27719,7.28028 -0.28293,23.30566 -3.53687,23.30332c-3.36506,-0.00242 -6.4986,-2.5303 -9.40336,-5.14916c0.00009,-0.00006 2.51406,-0.35974 4.7278,-6.39162c2.05655,-5.60357 2.42813,-13.10937 -4.72863,-19.8934c-6.58487,-6.24192 -12.14843,-4.38423 -12.14843,-4.38423c0,0 0.51078,-1.17172 1.95565,-1.48817z"/></g><g data-paper-data="{&quot;index&quot;:null}" fill="#894939"><path d="M257.48696,129.85379c0,0 -5.11365,-2.87311 -12.75706,2.01568c-8.30724,5.31337 -9.35716,12.75467 -8.39374,18.64544c1.03705,6.34103 3.43816,7.16814 3.43824,7.16822c-3.34636,2.02437 -6.90022,3.91627 -10.2054,3.28433c-3.95676,-0.75651 0.74118,-13.30947 -1.13316,-22.9309c-1.58871,-8.1552 -10.05266,-13.67125 -10.05266,-13.67125c0,0 32.84782,1.67812 37.46371,3.65835c1.35933,0.58314 1.64007,1.83013 1.64007,1.83013z"/></g></g><g><g><path d="M261.79365,148.08167c-3.07965,7.18564 -10.60274,11.31294 -16.8033,9.21856c-6.20056,-2.09438 -8.73055,-9.61734 -5.6509,-16.80298c3.07965,-7.18564 10.60274,-11.31294 16.8033,-9.21856c6.20056,2.09438 8.73056,9.61734 5.65091,16.80298z" fill="#59220f" stroke-width="0"/><g><path d="M262.68569,149.1273c-2.64896,7.13575 -9.361,11.50036 -14.99174,9.74859c-5.63076,-1.75176 -8.04798,-8.95652 -5.39901,-16.09228c2.64896,-7.13575 9.361,-11.50036 14.99174,-9.74859c5.63075,1.75176 8.04798,8.95652 5.39901,16.09228z" fill="#6d4321" stroke-width="0"/><g fill="#8d6e47" stroke-width="0"><path d="M244.07631,140.21738c0.11456,-0.00029 0.37937,3.51551 9.34758,3.46061c8.30436,-0.05084 8.85211,-4.91573 8.91789,-4.92994c1.17043,2.8775 1.21391,6.56162 -0.14663,10.22661c-2.52148,6.79233 -8.91047,10.94689 -14.27023,9.27942c-5.35976,-1.66745 -7.66065,-8.52547 -5.13917,-15.3178c0.35722,-0.96226 0.79205,-1.87158 1.29058,-2.7189z"/><path d="M261.36174,136.90525c-0.01908,0.00369 0.17016,4.08844 -7.14886,4.32507c-8.68609,0.28083 -8.4136,-3.33524 -8.48422,-3.33616c3.09715,-3.62925 7.47765,-5.43496 11.3272,-4.23734c1.80443,0.56136 3.26214,1.71103 4.30589,3.24843z"/></g><g><path d="M244.91407,142.04351c2.77324,0.56353 5.56093,1.11654 8.22257,1.59624c2.69629,0.48594 5.62984,0.84902 8.32947,1.34824c-0.10522,1.14586 -0.37032,2.32828 -0.80839,3.50833c-0.24255,0.65339 -0.84907,1.86915 -0.84907,1.86915l-16.30965,-3.25514c0,0 0.3622,-2.45126 0.8242,-3.69577c0.17548,-0.47271 0.37321,-0.93022 0.59088,-1.37105z" fill="#000000" stroke-width="0"/><path d="M243.69316,150.3473c3.85718,0.80519 12.94054,2.64223 14.05992,2.86975c-2.57224,2.73243 -6.03868,4.04256 -9.10486,3.08866c-2.60752,-0.81122 -4.35478,-3.08219 -4.95507,-5.95841z" fill="#000000" stroke-width="0"/><path d="M261.35515,141.9172c-3.35203,-0.64552 -9.04245,-2.18656 -14.06116,-3.29316c2.56531,-2.68485 5.99869,-3.96456 9.03862,-3.01881c2.71348,0.84418 4.49536,3.26917 5.02254,6.31198z" fill="#000000" stroke-width="0"/><g fill="none" stroke-width="1" font-family="sans-serif" font-weight="normal" font-size="12" text-anchor="start"/></g></g></g><g data-paper-data="{&quot;index&quot;:null}"><path d="M210.2951,126.9185c6.48419,-0.88804 13.09442,4.58335 14.76438,12.22069c1.66996,7.63734 -2.23274,14.54853 -8.71693,15.43658c-6.48419,0.88804 -13.09443,-4.58334 -14.76439,-12.22069c-1.66996,-7.63734 2.23275,-14.54853 8.71694,-15.43658z" fill="#59220f" stroke-width="0"/><g><path d="M208.84058,128.42771c5.86002,-0.65897 11.629,4.89259 12.8854,12.39975c1.2564,7.50716 -2.47558,14.12713 -8.3356,14.7861c-5.86002,0.65897 -11.629,-4.89259 -12.8854,-12.39975c-1.2564,-7.50716 2.47558,-14.12713 8.3356,-14.7861z" fill="#6d4321" stroke-width="0"/><g fill="#8d6e47" stroke-width="0"><path d="M221.21532,140.88491c1.19593,7.14586 -2.35643,13.44723 -7.93442,14.07448c-5.57799,0.62725 -11.06934,-4.65713 -12.26527,-11.80299c-0.6453,-3.85574 0.09185,-7.46562 1.7837,-10.07092c0.06192,0.02636 -0.31719,4.90729 7.82873,6.52257c8.79709,1.7444 9.71988,-1.65845 9.83234,-1.63657c0.32987,0.92611 0.58551,1.90109 0.75493,2.91343z"/><path d="M208.95007,129.08186c4.0063,-0.45052 7.96789,2.14854 10.32542,6.29653c-0.06952,-0.01241 -0.48354,3.59021 -8.96099,1.6771c-7.14321,-1.61201 -6.1874,-5.58787 -6.20545,-5.59509c1.31483,-1.3131 2.96312,-2.16737 4.84102,-2.37854z"/></g><g><path d="M219.61531,141.06482c0.21913,1.3093 0.11278,3.78488 0.11278,3.78488l-16.63086,0.12244c0,0 -0.36648,-1.30829 -0.48153,-1.99569c-0.20778,-1.24149 -0.24525,-2.45268 -0.13257,-3.59782c2.74534,0.0186 5.69473,0.215 8.43429,0.24602c2.70435,0.03062 5.5463,0.01299 8.37605,-0.01768c0.13067,0.47395 0.23861,0.96055 0.32184,1.45785z" fill="#000000" stroke-width="0"/><path d="M212.93788,152.90955c-3.19103,0.35883 -6.34836,-1.58122 -8.35944,-4.74954c1.1422,-0.01245 10.40899,-0.10435 14.34882,-0.16804c-1.13169,2.71151 -3.2757,4.61241 -5.98939,4.91758z" fill="#000000" stroke-width="0"/><path d="M209.29313,131.1317c3.16372,-0.35576 6.29432,1.54818 8.30755,4.66846c-5.13733,0.14075 -11.01623,0.58153 -14.42985,0.58362c1.0913,-2.88889 3.29834,-4.93453 6.1223,-5.25209z" fill="#000000" stroke-width="0"/><g fill="none" stroke-width="1" font-family="sans-serif" font-weight="normal" font-size="12" text-anchor="start"/></g></g></g></g></g><g stroke-width="0"><g><g fill="#6d4321"><path d="M205.96908,125.88665c-1.21183,-1.92836 -3.9013,-9.20818 -4.34547,-17.00159c0.96465,0.06037 5.1629,3.81412 10.90003,5.20285c2.31136,0.55949 -3.20608,-3.06377 -3.20608,-3.06377c0,0 6.36433,2.59252 9.60928,3.3051c3.06185,0.67237 9.34304,0.85676 9.34304,0.85676l-2.22317,-2.82678c0,0 2.88192,-2.02798 4.1378,-6.26793c1.77095,-5.97888 2.11682,-14.84885 2.31514,-15.52446c0.74285,0.09846 1.50482,0.20091 2.2864,0.30706c31.99571,4.34545 26.14329,32.2106 26.14329,32.2106l-0.40361,4.24401c0,0 -24.08998,-4.63523 -39.78006,-5.12121c-10.88185,-0.33706 -14.67595,3.83948 -14.77658,3.67935z"/><path d="M246.89575,124.69421c-15.50042,-2.48028 -40.03229,-2.46907 -40.03229,-2.46907l0.38516,-4.05c3.42327,-0.20389 6.75606,-0.09123 9.97452,-1.594c4.58814,-2.1423 11.0949,2.44087 13.93121,-1.59727c2.13245,-3.03604 0.6151,-14.43533 1.40651,-18.17146c0.39136,-1.84754 0.41552,-3.67906 0.71546,-5.52291c1.78681,-0.11571 3.69635,-0.12521 5.73702,-0.01358c24.70682,1.35146 29.74624,2.64007 30.19167,15.39495c0.36818,10.54273 -6.36502,22.14302 -8.49114,24.4221c-0.12901,0.1383 -3.06782,-4.67855 -13.81814,-6.39876z" data-paper-data="{&quot;index&quot;:null}"/></g><g fill="#8d6e47"><path d=""/><path d=""/><path d=""/><path d=""/><path d="" data-paper-data="{&quot;index&quot;:null}"/><path d="" data-paper-data="{&quot;index&quot;:null}"/><path d="" data-paper-data="{&quot;index&quot;:null}"/><path d="" data-paper-data="{&quot;index&quot;:null}"/><path d="" data-paper-data="{&quot;index&quot;:null}"/></g></g><g fill="#000000"><path d="M207.67755,123.38854c-1.16833,-1.61034 -4.04749,-5.01624 -4.55604,-11.47394c0.91331,0.06091 7.05027,3.77216 12.91039,3.58793c2.05525,-0.06461 -1.77421,-1.72674 -1.77421,-1.72674c0,0 3.69526,1.12678 6.77329,1.75354c2.90432,0.5914 9.65094,0.74689 9.65094,0.74689l-2.94441,-3.74447c0,0 2.39634,-1.45868 3.53643,-4.95497c1.60768,-4.93023 2.12712,-12.88906 2.12712,-12.88906c0,0 3.15858,0.20354 3.89921,0.30028c30.31936,3.96053 22.34162,26.70338 22.34162,26.70338l-0.33374,3.50932c0,0 -22.84329,-4.11084 -37.69267,-4.69106c-10.29879,-0.40241 -13.84093,3.01261 -13.93794,2.87888z"/><path d="M246.38344,122.86516c-14.69255,-2.22927 -37.90123,-2.49804 -37.90123,-2.49804l0.31848,-3.34889c3.23633,-0.13001 20.94968,1.759 23.58725,-1.55228c1.98303,-2.48956 3.50309,-18.2922 3.76595,-19.81546c1.68914,-0.07556 0.46161,-0.65939 2.39349,-0.54383c23.38963,1.39899 28.17188,2.52303 28.73786,13.08867c0.46781,8.73318 -5.77076,18.26148 -7.75638,20.12439c-0.12048,0.11304 -2.9554,-3.90845 -13.14542,-5.45455z" data-paper-data="{&quot;index&quot;:null}"/></g></g></g></g></g></g></svg>