<svg version="1.1" xmlns="http://www.w3.org/2000/svg" xmlns:xlink="http://www.w3.org/1999/xlink" width="38.19044" height="38.19044" viewBox="0,0,38.19044,38.19044"><g transform="translate(-217.27978,-160.90478)"><g data-paper-data="{&quot;isPaintingLayer&quot;:true}" fill-rule="evenodd" stroke="none" stroke-linecap="round" stroke-linejoin="round" stroke-miterlimit="10" stroke-dasharray="" stroke-dashoffset="0" style="mix-blend-mode: normal"><path d="M255.47022,180c0,10.54601 -8.54924,19.09522 -19.09522,19.09522c-10.54601,0 -19.09522,-8.54922 -19.09522,-19.09522c0,-10.54601 8.54922,-19.09522 19.09522,-19.09522c10.54601,0 19.09522,8.54922 19.09522,19.09522" fill="#000000" stroke-width="0.07853"/><path d="M228.88019,168.05925h14.98958c0.53559,0 0.96676,0.43118 0.96676,0.96676v21.94792c0,0.53559 -0.43118,0.96676 -0.96676,0.96676h-14.98958c-0.53559,0 -0.96676,-0.43118 -0.96676,-0.96676v-21.94792c0,-0.53559 0.43118,-0.96676 0.96676,-0.96676z" fill="#ffffff" stroke-width="4.43922"/><path d="M229.79685,188.76759h13.15625c0.53559,0 0.96677,0.43118 0.96677,0.96677v0.07291c0,0.53558 -0.43117,0.96677 -0.96677,0.96677h-13.15625c-0.53558,0 -0.96677,-0.43118 -0.96677,-0.96677v-0.07291c0,-0.53558 0.43118,-0.96677 0.96677,-0.96677z" fill="#000000" stroke-width="4.43922"/><path d="M229.79685,184.76759h13.15625c0.53559,0 0.96677,0.43118 0.96677,0.96677v0.07291c0,0.53558 -0.43117,0.96677 -0.96677,0.96677h-13.15625c-0.53558,0 -0.96677,-0.43118 -0.96677,-0.96677v-0.07291c0,-0.53558 0.43118,-0.96677 0.96677,-0.96677z" fill="#000000" stroke-width="4.43922"/><path d="M229.79685,180.93425h13.15625c0.53559,0 0.96677,0.43118 0.96677,0.96677v0.07291c0,0.53558 -0.43117,0.96677 -0.96677,0.96677h-13.15625c-0.53558,0 -0.96677,-0.43118 -0.96677,-0.96677v-0.07291c0,-0.53558 0.43118,-0.96677 0.96677,-0.96677z" fill="#000000" stroke-width="4.43922"/><path d="M229.79685,177.26759h13.15625c0.53559,0 0.96677,0.43118 0.96677,0.96677v0.07291c0,0.53558 -0.43117,0.96677 -0.96677,0.96677h-13.15625c-0.53558,0 -0.96677,-0.43118 -0.96677,-0.96677v-0.07291c0,-0.53558 0.43118,-0.96677 0.96677,-0.96677z" fill="#000000" stroke-width="4.43922"/><path d="M229.79685,173.60092h13.15625c0.53559,0 0.96677,0.43118 0.96677,0.96677v0.07291c0,0.53558 -0.43117,0.96677 -0.96677,0.96677h-13.15625c-0.53558,0 -0.96677,-0.43118 -0.96677,-0.96677v-0.07291c0,-0.53558 0.43118,-0.96677 0.96677,-0.96677z" fill="#000000" stroke-width="4.43922"/><path d="M229.79685,169.93426h13.15625c0.53559,0 0.96677,0.43118 0.96677,0.96677v0.07291c0,0.53558 -0.43117,0.96677 -0.96677,0.96677h-13.15625c-0.53558,0 -0.96677,-0.43118 -0.96677,-0.96677v-0.07291c0,-0.53558 0.43118,-0.96677 0.96677,-0.96677z" fill="#000000" stroke-width="4.43922"/></g></g></svg>