<svg version="1.1" xmlns="http://www.w3.org/2000/svg" xmlns:xlink="http://www.w3.org/1999/xlink" width="34.17311" height="34.17311" viewBox="0,0,34.17311,34.17311"><g transform="translate(-222.91346,-162.91346)"><g data-paper-data="{&quot;isPaintingLayer&quot;:true}" stroke="none" stroke-miterlimit="10" stroke-dasharray="" stroke-dashoffset="0" style="mix-blend-mode: normal"><path d="M229.98313,162.91347h20.03379c3.9166,0 7.06966,3.15307 7.06966,7.06966v20.03379c0,3.91659 -3.15306,7.06966 -7.06966,7.06966h-20.03379c-3.91659,0 -7.06966,-3.15307 -7.06966,-7.06966v-20.03379c0,-3.91659 3.15307,-7.06966 7.06966,-7.06966z" fill="#000000" fill-rule="evenodd" stroke-width="4.43922" stroke-linecap="round" stroke-linejoin="round"/><g fill-rule="nonzero" stroke-width="0" stroke-linecap="butt" stroke-linejoin="miter"><path d="M244.12596,184.55251c-1.9384,1.54377 -5.76494,1.37908 -9.08795,3.37276c-4.61024,2.76597 -8.03563,4.26328 -8.03563,4.26328c0,0 0.51236,-2.02663 6.90296,-7.63075c2.78592,-2.44307 2.53562,-5.88768 4.37141,-7.34972c1.41756,-1.12897 4.1008,-0.12028 6.23625,-1.36699c4.74135,-2.7681 8.56706,-5.11082 8.56706,-5.11082c0,0 -1.35099,2.86991 -4.09702,5.37205c-5.01633,4.5708 -2.89243,6.88553 -4.85708,8.45021z" fill="#000000"/><path d="M245.36957,182.07725c-1.9384,1.54377 -5.76494,1.37908 -9.08795,3.37276c-4.61024,2.76597 -8.03563,4.26328 -8.03563,4.26328c0,0 0.51236,-2.02663 6.90296,-7.63075c2.78592,-2.44307 2.53562,-5.88768 4.37141,-7.34972c1.41756,-1.12897 4.1008,-0.12028 6.23625,-1.36699c4.74135,-2.7681 8.56706,-5.11082 8.56706,-5.11082c0,0 -1.35099,2.86991 -4.09702,5.37205c-5.01633,4.5708 -2.89243,6.88553 -4.85708,8.45021z" fill="#59220f"/></g></g></g></svg>