<svg version="1.1" xmlns="http://www.w3.org/2000/svg" xmlns:xlink="http://www.w3.org/1999/xlink" width="95.33434" height="274.67909" viewBox="0,0,95.33434,274.67909"><g transform="translate(-193.38032,-59.03388)"><g data-paper-data="{&quot;isPaintingLayer&quot;:true}" fill-rule="nonzero" stroke-linejoin="miter" stroke-miterlimit="10" stroke-dasharray="" stroke-dashoffset="0" style="mix-blend-mode: normal"><g stroke="none" stroke-linecap="butt"><g><path d="M200.5812,185.96087c0,-21.10292 18.15751,-38.21022 40.55593,-38.21022c22.39843,0 40.82079,17.1073 40.82079,38.21022c0,2.70002 0.0039,117.77204 0.0039,117.77204l-11.39983,-0.12964l-0.14337,-113.82486c0,0 0.46851,-2.08621 -1.77595,-2.22047c-2.48625,-0.14872 -2.11767,1.68282 -2.11767,1.68282l0.10343,114.38802l-50.32146,0.07847l0.10485,-114.20488c0,0 -0.19035,-2.13951 -1.8053,-2.16297c-2.01199,-0.02922 -1.98832,2.04221 -1.98832,2.04221l-0.29988,114.25674l-11.38239,0.22905c0,0 -0.35473,-116.42094 -0.35473,-117.90653z" fill="#000000" stroke-width="0"/><path d="M202.86639,187.26734c0,-20.02201 17.22746,-36.58913 38.47861,-36.58913c21.25115,0 38.72991,16.56711 38.72991,36.58913c0,2.56173 0.00369,114.79215 0.00369,114.79215l-7.50523,0.21307l0.19503,-111.38321c0,0 0.08238,-5.30397 -4.03353,-5.43136c-4.01424,-0.25313 -4.29562,4.92124 -4.29562,4.92124l-0.56401,112.58967l-45.42645,-0.26162l0.09948,-112.07984c0,0 0.71386,-5.00198 -3.49923,-5.04073c-4.92978,-0.04534 -4.96689,4.92616 -4.96689,4.92616l0.56795,112.12904l-7.39669,-0.11875c0,0 -0.38702,-113.84632 -0.38702,-115.25581z" fill="#ffffff" stroke-width="0"/><g fill="#000000"><path d="M230.02074,204.89615c-5.66213,0 -7.34973,-0.4705 -7.34973,-0.4705l-0.08286,-1.2733c0,0 5.25623,0.13066 7.69744,0.13066c4.20542,0 7.61458,-1.35635 7.61458,-0.87378c0,0.48257 -1.95246,2.48691 -7.87944,2.48691z" stroke-width="0"/><path d="M225.51818,199.65349c0,-0.55682 0.44467,-1.00821 0.99321,-1.00821c0.54854,0 0.99321,0.45139 0.99321,1.00821c0,0.55682 -0.44467,1.00821 -0.99321,1.00821c-0.54854,0 -0.99321,-0.45139 -0.99321,-1.00821z" stroke-width="0.5"/></g><g data-paper-data="{&quot;index&quot;:null}" fill="#000000"><path d="M244.83595,202.40925c0,-0.48257 3.40916,0.87378 7.61458,0.87378c2.44121,0 7.69744,-0.13066 7.69744,-0.13066l-0.08286,1.2733c0,0 -1.6876,0.4705 -7.34973,0.4705c-5.92698,0 -7.87944,-2.00433 -7.87944,-2.48691z" stroke-width="0"/><path d="M256.2247,200.66168c-0.54853,0 -0.99321,-0.45139 -0.99321,-1.00821c0,-0.55682 0.44467,-1.00821 0.99321,-1.00821c0.54853,0 0.99321,0.45139 0.99321,1.00821c0,0.55682 -0.44467,1.00821 -0.99321,1.00821z" stroke-width="0.5"/></g><path d="M240.38319,253.12203c0,-0.55681 0.44467,-1.00821 0.99321,-1.00821c0.54854,0 0.99321,0.45139 0.99321,1.00821c0,0.55681 -0.44467,1.00821 -0.99321,1.00821c-0.54854,0 -0.99321,-0.45139 -0.99321,-1.00821z" fill="#000000" stroke-width="0.5"/></g><g stroke-width="0"><path d="M266.40753,304.78276v-144.88366l11.74954,4.50042c0,0 6.71202,3.47335 8.07687,8.87198c1.23663,4.89146 -1.03707,11.89969 -1.03707,11.89969c0,0 2.8575,9.577 1.99821,14.94939c-1.03825,6.49129 -3.41173,9.22358 -3.41173,9.22358c0,0 4.52614,15.849 4.90903,43.49648c0.37325,26.95194 -4.06588,51.94212 -4.06588,51.94212z" fill="#773128"/><path d="M269.02932,304.78277c0,0 0.73465,-69.13161 0.80678,-75.9199c0.01117,-1.05148 0.01936,-1.82152 0.01936,-1.82152c0,0 1.56149,5.59675 6.74775,7.77508c5.31583,2.23275 7.48471,0.3523 7.48471,0.3523c0,0 0.10377,1.78865 0.15165,2.71416c0.23308,4.50574 0.39958,9.50203 0.45268,14.95776c0.26234,26.95194 -2.8577,51.94212 -2.8577,51.94212z" fill="#894939"/><path d="M269.9294,220.08254l0.14991,-13.78298l4.39342,-5.57267c0,0 5.32403,-32.14576 5.42639,-32.0684c1.2371,0.93503 2.68138,2.45292 3.06521,4.61301c0.86917,4.89146 -0.72891,11.89969 -0.72891,11.89969c0,0 2.0084,9.57699 1.40444,14.94938c-0.72973,6.49129 -2.39794,9.22359 -2.39794,9.22359c0,0 1.29736,6.46356 2.30516,18.33576c0.08972,1.05693 0.26115,3.29863 0.26115,3.29863c0,0 -3.34215,1.92858 -6.94012,0.05521c-4.20521,-2.18955 -6.9701,-7.99857 -6.9701,-7.99857z" fill="#894939"/><path d="M275.08664,166.63706l2.97035,1.32588l-6.52664,31.76664z" fill="#894939"/></g><g stroke-width="0"><g><path d="M207.4154,222.40137c-4.96021,-15.70297 58.61214,-68.92354 58.61214,-68.92354l9.11836,3.53029l-7.18318,35.25028l-0.04481,27.78694c0,0 -47.48356,43.57126 -60.50251,2.35603z" fill="#6d4321"/><path d="M263.1128,192.76l-0.03671,24.71986c0,0 -15.31559,16.00726 -29.8656,17.81364c0.0133,-0.2226 -1.04969,-7.65997 0.57974,-14.80895c4.88117,-1.46065 9.74197,-3.91794 13.14502,-7.38543c4.1661,-4.24498 6.80542,-9.64323 10.34099,-14.35931c2.03098,-2.70912 4.11845,-5.36575 6.2177,-8.01106z" fill="#8d6e47"/><path d="M235.25252,215.98696c3.57378,-8.05791 12.88954,-10.46381 17.86508,-19.98598c4.09546,-7.83786 7.48288,-16.42787 9.89094,-23.21543c1.13757,0.77603 2.27657,1.55344 3.41357,2.33788l-1.51286,8.06265c-4.36036,5.3049 -8.71467,10.65598 -12.57787,16.31912c-2.58689,3.79217 -4.67878,7.80859 -7.90393,11.15243c-2.42398,2.51319 -5.80932,4.41812 -9.34682,5.72832c0.05594,-0.1337 0.11323,-0.26672 0.1719,-0.39899z" fill="#8d6e47"/><path d="M268.99705,161.40059l-1.8691,9.96118c-0.97763,-0.66957 -1.95602,-1.33533 -2.93285,-2.00106c1.83356,-5.42142 2.84708,-9.04288 2.84708,-9.04288z" fill="#8d6e47"/><path d="M232.66679,232.12771c-1.97316,3.26195 -0.08182,-7.58935 -0.08182,-7.58935l7.62302,-1.30903c0,0 -3.72361,2.58731 -7.5412,8.89839z" fill="#6d4321"/><path d="M262.79303,197.40118c1.70177,-3.41141 0.69784,7.55764 0.69784,7.55764l-7.49155,1.92373c0,0 3.50121,-2.88114 6.79372,-9.48137z" data-paper-data="{&quot;index&quot;:null}" fill="#6d4321"/></g><g><path d="M201.00199,303.8674c0,0 -3.20367,-26.07918 -3.00763,-45.29393c0.16529,-16.20035 4.46643,-34.53448 4.46643,-34.53448c0,0 -5.22281,-21.24635 -1.70204,-43.62162c3.12696,-19.87255 22.72616,-33.30495 33.81081,-33.56756c20.53371,-0.48648 32.83783,6.08108 32.83783,6.08108c0,0 -7.96204,22.30125 -18.20842,40.01457c-5.69256,9.84095 -14.78083,16.39799 -17.17266,22.06593c-4.44421,10.53147 0.09943,34.16454 0.09943,34.16454c0,0 -13.07012,-2.77555 -15.00477,-7.20351c-0.76825,-1.75833 5.71142,-7.71894 5.71142,-7.71894c0,0 4.28549,23.88192 4.55155,36.05901c0.23774,10.88149 -3.0306,33.55491 -3.0306,33.55491z" fill="#571c18"/><g><g><path d="M197.78702,303.8674c0,0 -3.20367,-26.07918 -3.00763,-45.29393c0.16529,-16.20035 4.46643,-34.53448 4.46643,-34.53448c0,0 -5.22281,-21.24635 -1.70204,-43.62162c3.12696,-19.87255 22.72616,-33.30495 33.81081,-33.56756c20.53371,-0.48648 32.83783,6.08108 32.83783,6.08108c0,0 -7.96204,22.30125 -18.20842,40.01457c-5.69256,9.84095 -14.78083,16.39799 -17.17266,22.06593c-4.44421,10.53147 -0.52132,29.97445 -0.52132,29.97445c0,0 -10.43192,-3.24112 -12.36657,-7.66908c-0.76825,-1.75833 3.69397,-3.06328 3.69397,-3.06328c0,0 4.28549,23.88192 4.55155,36.05901c0.23774,10.88149 -3.0306,33.55491 -3.0306,33.55491z" fill="#773128"/><g><g><path d="M201.72796,188.29323c1.4541,-11.09912 8.09579,-19.76229 14.59587,-24.26564c1.22661,9.44923 9.30541,16.74762 19.08884,16.74762c2.67858,0 5.22938,-0.54708 7.54676,-1.53561c-2.14596,5.96102 -4.90958,13.03125 -7.96998,19.38557c-3.90879,8.11585 -10.14925,13.52345 -11.79161,18.19781c-1.24867,3.5539 -1.30358,8.26103 -0.93259,12.58259c-0.02247,-0.00856 -5.00128,5.35285 -11.16937,2.99488c-6.37312,-2.43634 -8.57657,-11.60135 -8.57657,-11.60135c0,0 -0.91028,-5.54284 -0.91576,-5.55209c-0.71335,-6.82933 -1.21249,-16.7492 0.12442,-26.95379z" fill="#894939"/><path d="M200.47072,230.51152c0.41933,-2.57408 1.22588,-6.44347 1.22588,-6.44347c0,0 0.48734,7.71751 7.96185,11.62806c9.06991,4.74524 13.06876,-2.21733 13.08279,-2.21293c0.6335,4.35341 1.48325,7.59824 1.48325,7.59824c0,0 -4.07959,-0.54411 -6.47004,-2.16445c0.88344,6.63857 2.13842,17.06529 2.25571,23.51293c0.07973,4.38317 -0.63508,14.27944 -1.3873,23.25761c-3.0755,-6.5403 -9.72384,-11.06811 -17.42971,-11.06811c-0.36507,0 -0.72776,0.01016 -1.08781,0.03022c-0.02977,-1.26351 -0.09201,-4.54278 -0.09201,-4.54278l10.87572,0.55941l0.50581,-6.64138l-11.54067,-3.03974c0,0 -0.03982,-4.9195 -0.03202,-6.97544c2.15264,0.5503 3.09737,-9.46695 0.0115,-10.55149c0.00007,-5.08736 0.07463,-9.49418 0.63706,-12.94668z" fill="#894939"/><path d="" fill="#894939"/><g fill="#773128"><path d="M200.4167,196.2204c-1.73023,-3.48592 -0.41688,-9.95953 1.32287,-14.18338c0.82108,-1.99344 4.13453,-8.66269 3.45528,-6.38666c-4.34266,14.55133 3.95222,32.98543 3.95222,32.98543c0,0 -6.18355,-7.2843 -8.73037,-12.41539z"/><path d="M215.84388,201.2477c0,0 1.47491,9.69749 15.68479,2.89015c6.77038,-3.24339 -7.52701,14.08928 -8.09822,12.04616c-7.30067,-5.7116 -7.58658,-14.9363 -7.58658,-14.9363z"/></g></g></g></g><path d="M257.68155,159.79558c-5.50061,7.80838 -17.0672,17.11336 -17.0672,17.11336c0,0 -20.19105,-3.13762 -22.69133,-15.94656c-1.49595,-7.66375 8.82562,-14.13833 19.71258,-14.13833c10.88696,0 24.54281,6.58803 20.04595,12.97153z" fill="#894939"/><path d="M254.01328,160.18493c-4.46647,6.34038 -13.8585,13.89598 -13.8585,13.89598c0,0 -16.39505,-2.54774 -18.42527,-12.94854c-1.2147,-6.22293 7.16637,-11.48026 16.00653,-11.48026c8.84016,0 19.92866,5.34945 16.27723,10.53283z" fill="#000000"/></g></g></g><g stroke-width="0"><path d="M200.5812,185.96087c0,-21.10292 18.15751,-38.21022 40.55593,-38.21022c10.21424,0 25.44853,61.49631 25.44853,61.49631l0.25433,94.38182l-50.53303,0.07847l0.10485,-114.20488c0,0 -0.19035,-2.13951 -1.8053,-2.16297c-2.01199,-0.02922 -1.98832,2.04221 -1.98832,2.04221l-0.29988,114.25674l-11.38239,0.22905c0,0 -0.35473,-116.42094 -0.35473,-117.90653z" fill="#000000"/><g><g><path d="M223.48176,278.43086c0,0 -7.49984,-31.47714 -5.47816,-36.46468c4.57912,-11.29681 49.03406,-21.68918 49.03406,-21.68918c0,0 -2.22161,25.12066 -17.9147,42.21894c-11.16375,12.16336 -25.6412,15.93492 -25.6412,15.93492z" fill="#59220f"/><path d="M247.73947,238.63144c8.52141,-4.12731 14.56136,-9.53119 14.56136,-9.53119c0,0 -7.04681,21.94823 -14.75168,30.343c-5.74426,6.25861 -12.63773,9.59619 -16.5677,11.08232c-0.02978,0.01126 0.82467,-4.56947 0.14684,-9.88105c-0.72884,-5.71127 -2.62392,-9.33086 -2.62392,-9.33086l6.13686,2.01893c0,0 -0.58633,-2.23897 -0.52384,-6.17825c0.06249,-3.93928 0.87345,-4.29326 0.87345,-4.29326c0,0 4.84078,-0.3995 12.74863,-4.22964z" fill="#6d4321"/></g><g><g><path d="M207.4154,222.40137c-4.96021,-15.70297 58.61214,-68.92354 58.61214,-68.92354l9.11836,3.53029l-7.18318,35.25028l-0.04481,27.78694c0,0 -47.48356,43.57126 -60.50251,2.35603z" fill="#6d4321"/><path d="M263.1128,192.76l-0.03671,24.71986c0,0 -15.31559,16.00726 -29.8656,17.81364c0.0133,-0.2226 -1.04969,-7.65997 0.57974,-14.80895c4.88117,-1.46065 9.74197,-3.91794 13.14502,-7.38543c4.1661,-4.24498 6.80542,-9.64323 10.34099,-14.35931c2.03098,-2.70912 4.11845,-5.36575 6.2177,-8.01106z" fill="#8d6e47"/><path d="M235.25252,215.98696c3.57378,-8.05791 12.88954,-10.46381 17.86508,-19.98598c4.09546,-7.83786 7.48288,-16.42787 9.89094,-23.21543c1.13757,0.77603 2.27657,1.55344 3.41357,2.33788l-1.51286,8.06265c-4.36036,5.3049 -8.71467,10.65598 -12.57787,16.31912c-2.58689,3.79217 -4.67878,7.80859 -7.90393,11.15243c-2.42398,2.51319 -5.80932,4.41812 -9.34682,5.72832c0.05594,-0.1337 0.11323,-0.26672 0.1719,-0.39899z" fill="#8d6e47"/><path d="M268.99705,161.40059l-1.8691,9.96118c-0.97763,-0.66957 -1.95602,-1.33533 -2.93285,-2.00106c1.83356,-5.42142 2.84708,-9.04288 2.84708,-9.04288z" fill="#8d6e47"/><path d="M232.66679,232.12771c-1.97316,3.26195 -0.08182,-7.58935 -0.08182,-7.58935l7.62302,-1.30903c0,0 -3.72361,2.58731 -7.5412,8.89839z" fill="#6d4321"/><path d="M262.79303,197.40118c1.70177,-3.41141 0.69784,7.55764 0.69784,7.55764l-7.49155,1.92373c0,0 3.50121,-2.88114 6.79372,-9.48137z" data-paper-data="{&quot;index&quot;:null}" fill="#6d4321"/></g><g><path d="M201.00199,303.8674c0,0 -3.20367,-26.07918 -3.00763,-45.29393c0.16529,-16.20035 4.46643,-34.53448 4.46643,-34.53448c0,0 -5.22281,-21.24635 -1.70204,-43.62162c3.12696,-19.87255 22.72616,-33.30495 33.81081,-33.56756c20.53371,-0.48648 32.83783,6.08108 32.83783,6.08108c0,0 -7.96204,22.30125 -18.20842,40.01457c-5.69256,9.84095 -14.78083,16.39799 -17.17266,22.06593c-4.44421,10.53147 0.09943,34.16454 0.09943,34.16454c0,0 -13.07012,-2.77555 -15.00477,-7.20351c-0.76825,-1.75833 5.71142,-7.71894 5.71142,-7.71894c0,0 4.28549,23.88192 4.55155,36.05901c0.23774,10.88149 -3.0306,33.55491 -3.0306,33.55491z" fill="#571c18"/><g><g><path d="M197.78702,303.8674c0,0 -3.20367,-26.07918 -3.00763,-45.29393c0.16529,-16.20035 4.46643,-34.53448 4.46643,-34.53448c0,0 -5.22281,-21.24635 -1.70204,-43.62162c3.12696,-19.87255 22.72616,-33.30495 33.81081,-33.56756c20.53371,-0.48648 32.83783,6.08108 32.83783,6.08108c0,0 -7.96204,22.30125 -18.20842,40.01457c-5.69256,9.84095 -14.78083,16.39799 -17.17266,22.06593c-4.44421,10.53147 -0.52132,29.97445 -0.52132,29.97445c0,0 -10.43192,-3.24112 -12.36657,-7.66908c-0.76825,-1.75833 3.69397,-3.06328 3.69397,-3.06328c0,0 4.28549,23.88192 4.55155,36.05901c0.23774,10.88149 -3.0306,33.55491 -3.0306,33.55491z" fill="#773128"/><g><g><path d="M201.72796,188.29323c1.4541,-11.09912 8.09579,-19.76229 14.59587,-24.26564c1.22661,9.44923 9.30541,16.74762 19.08884,16.74762c2.67858,0 5.22938,-0.54708 7.54676,-1.53561c-2.14596,5.96102 -4.90958,13.03125 -7.96998,19.38557c-3.90879,8.11585 -10.14925,13.52345 -11.79161,18.19781c-1.24867,3.5539 -1.30358,8.26103 -0.93259,12.58259c-0.02247,-0.00856 -5.00128,5.35285 -11.16937,2.99488c-6.37312,-2.43634 -8.57657,-11.60135 -8.57657,-11.60135c0,0 -0.91028,-5.54284 -0.91576,-5.55209c-0.71335,-6.82933 -1.21249,-16.7492 0.12442,-26.95379z" fill="#894939"/><path d="M200.47072,230.51152c0.41933,-2.57408 1.22588,-6.44347 1.22588,-6.44347c0,0 0.48734,7.71751 7.96185,11.62806c9.06991,4.74524 13.06876,-2.21733 13.08279,-2.21293c0.6335,4.35341 1.48325,7.59824 1.48325,7.59824c0,0 -4.07959,-0.54411 -6.47004,-2.16445c0.88344,6.63857 2.13842,17.06529 2.25571,23.51293c0.07973,4.38317 -0.63508,14.27944 -1.3873,23.25761c-3.0755,-6.5403 -9.72384,-11.06811 -17.42971,-11.06811c-0.36507,0 -0.72776,0.01016 -1.08781,0.03022c-0.02977,-1.26351 -0.09201,-4.54278 -0.09201,-4.54278l10.87572,0.55941l0.50581,-6.64138l-11.54067,-3.03974c0,0 -0.03982,-4.9195 -0.03202,-6.97544c2.15264,0.5503 3.09737,-9.46695 0.0115,-10.55149c0.00007,-5.08736 0.07463,-9.49418 0.63706,-12.94668z" fill="#894939"/><path d="" fill="#894939"/><g fill="#773128"><path d="M200.4167,196.2204c-1.73023,-3.48592 -0.41688,-9.95953 1.32287,-14.18338c0.82108,-1.99344 4.13453,-8.66269 3.45528,-6.38666c-4.34266,14.55133 3.95222,32.98543 3.95222,32.98543c0,0 -6.18355,-7.2843 -8.73037,-12.41539z"/><path d="M215.84388,202.77961c0,0 7.76407,11.75773 15.46792,2.89015c7.78914,-8.96574 -6.82691,13.88702 -7.88135,12.04616c-3.28205,-5.72987 -7.58658,-14.9363 -7.58658,-14.9363z"/></g></g></g></g><path d="M257.68155,159.79558c-5.50061,7.80838 -17.0672,17.11336 -17.0672,17.11336c0,0 -20.19105,-3.13762 -22.69133,-15.94656c-1.49595,-7.66375 8.82562,-14.13833 19.71258,-14.13833c10.88696,0 24.54281,6.58803 20.04595,12.97153z" fill="#894939"/><path d="M254.01328,160.18493c-4.46647,6.34038 -13.8585,13.89598 -13.8585,13.89598c0,0 -16.39505,-2.54774 -18.42527,-12.94854c-1.2147,-6.22293 7.16637,-11.48026 16.00653,-11.48026c8.84016,0 19.92866,5.34945 16.27723,10.53283z" fill="#000000"/></g></g></g></g></g></g><path d="" data-paper-data="{&quot;index&quot;:null}" fill="#000000" stroke="none" stroke-width="NaN" stroke-linecap="butt"/><path d="" data-paper-data="{&quot;index&quot;:null}" fill="#000000" stroke="none" stroke-width="NaN" stroke-linecap="butt"/><path d="" fill="#4a3e3d" stroke="none" stroke-width="0" stroke-linecap="butt"/><path d="M258.82204,185.81322c-0.04915,0.00925 -0.09314,0.0203 -0.12179,0.03308c-0.18604,0.08297 -0.36828,0.17397 -0.54889,0.2684c0.00626,-0.08134 0.01313,-0.1627 0.02056,-0.24406c0.21697,-0.01644 0.43371,-0.03556 0.65013,-0.05742z" fill="#8d6e47" stroke="none" stroke-width="0" stroke-linecap="butt"/><path d="" fill="#ffffff" stroke="none" stroke-width="0" stroke-linecap="butt"/><g stroke="none" stroke-width="0" stroke-linecap="butt"><path d="M241.51435,333.71094c-7.21559,-0.0468 -14.2526,-1.31081 -17.17803,-4.82023c-3.24918,-3.8978 -4.61321,-7.57949 -4.61321,-7.57949c0,0 1.95113,-1.2759 4.55236,-3.35429c3.55377,-2.83947 7.61973,-6.72556 8.44296,-6.75404c1.46249,-0.2574 8.17984,1.39005 8.17984,1.39005c0,0 5.68409,-1.47495 6.99098,-1.29963c2.53168,0.07386 13.46554,10.85622 13.46554,10.85622c0,0 -2.00426,6.71981 -9.12658,10.05921c-2.72993,1.27996 -6.38944,1.53024 -10.71386,1.5022z" fill="#000000"/><path d="M225.23843,320.25669c0,0 3.82583,-4.50115 7.27152,-6.48535c1.50005,-0.8638 9.20025,0.87418 9.20025,0.87418c0,0 3.62103,-1.51392 5.74466,-1.03026c2.87743,0.65535 8.91465,7.00147 8.91465,7.00147c0,0 -2.07663,-0.15832 -4.8364,-1.01656c-3.29543,-1.02483 -5.37789,-2.36497 -8.24891,-2.39817c-1.58092,-0.01828 -4.77052,0.05756 -7.7359,0.57364c-2.51169,0.43713 -4.80365,1.27839 -6.43181,1.72951c-2.64514,0.73293 -3.87804,0.75154 -3.87804,0.75154z" fill="#ffffff"/><path d="M258.33281,322.45616c0,0 -1.30582,4.79785 -4.29378,6.63858c-3.66073,2.25518 -9.3768,1.63703 -12.51834,1.62418c-2.4754,-0.01013 -8.54335,0.5998 -11.85698,-1.1102c-4.60654,-2.3772 -6.22108,-7.29536 -6.22108,-7.29536c0,0 12.23293,1.08384 17.76652,1.10649c6.05029,0.02477 17.12367,-0.96369 17.12367,-0.96369z" fill="#ffffff"/><path d="M248.49805,320.68937c0,0.46014 -4.15779,0.20829 -6.71732,0.20829c-2.55953,0 -7.96705,-0.16473 -7.96705,-0.62487c0,-0.25644 1.92424,-0.90241 4.25536,-1.05525c1.85156,-0.12139 4.5574,0.22209 5.69043,0.22209c2.55953,0 4.73858,0.78959 4.73858,1.24974z" fill="#ffffff"/></g><g><g><path d="M282.02403,114.67508c0.23545,1.77325 -0.34922,3.15279 -0.48313,4.65972c-0.22798,2.56564 -0.19845,4.78845 -0.19845,4.78845c0,0 -1.195,0.20905 -2.18755,0.03706c-0.20734,0.95135 -0.46342,2.23258 -0.51508,2.97221c-0.11343,1.62417 0.16679,4.77374 0.16679,4.77374l-1.81236,-0.89681c0,0 -1.1601,2.23338 -1.35256,3.58746c-0.20239,1.42401 0.16652,4.75736 0.16652,4.75736l-1.93136,-0.71863c0,0 0.69855,4.5729 -1.23137,9.14342c-2.1916,5.19026 -5.82808,7.06252 -5.82808,7.06252l-1.962,-1.96824c0,0 -3.18417,3.21035 -8.53188,6.13626c0.12361,-8.32954 -8.97733,-48.96969 -5.57296,-60.25779c6.09783,-20.21899 26.27374,-10.68926 26.27374,-10.68926l2.16976,13.96556l1.89187,2.86442l-0.88635,0.22118c0,0 0.48615,1.17808 0.72386,1.54829c0.69664,1.08492 2.76745,2.36934 2.76745,2.36934c0,0 -1.47455,0.85738 -2.96178,1.00931c0.4744,1.13805 1.05228,2.80687 1.29494,4.63441z" data-paper-data="{&quot;index&quot;:null}" fill="#000000" stroke="none" stroke-width="NaN" stroke-linecap="butt"/><path d="M197.05866,108.51653c0,0 1.2501,1.21886 0.61383,1.41956c-1.77387,0.55954 -4.29217,-0.90474 -4.29217,-0.90474c0,0 2.07081,-1.28442 2.76745,-2.36934c0.23771,-0.3702 0.72386,-1.54829 0.72386,-1.54829l-0.88636,-0.22118l1.89187,-2.86442c0,0 0.10289,-6.95379 2.45984,-14.98975c0.01054,-0.0359 0.73412,1.11941 0.00643,0.86568c-1.29299,-0.45083 -1.75716,-2.98324 -1.75716,-2.98324c0,0 1.05703,-0.03424 1.89344,-0.53011c0.7109,-0.42146 1.19741,-2.05747 1.19741,-2.05747c0,0 -0.31818,-1.48645 0.60423,-4.29415c0.33454,-1.01832 1.15905,-1.53552 1.85089,-2.55232c0.71765,-1.05473 1.29709,-2.59072 1.29709,-2.59072c0,0 1.39927,1.63376 0.7437,3.39357c-0.23571,0.63275 -0.85807,0.53087 -0.85807,0.53087c0,0 0.90905,-2.82113 3.47043,-5.5954c1.29202,-1.39941 3.44664,-1.92178 4.83172,-2.70963c1.67075,-0.95034 4.68048,-3.11147 4.68048,-3.11147l0.43367,2.25498c0,0 0.71298,-3.07323 6.25175,-5.46261c3.08855,-1.33238 5.56658,0.08909 5.56658,0.08909l-2.26551,-2.4671c0,0 2.93108,0.45368 5.84282,0.623c2.08697,0.12136 2.5211,-1.65092 7.20007,-1.37905c4.66469,0.27104 6.845,1.81925 9.55038,2.75386c3.04836,1.0531 8.02756,1.99689 8.02756,1.99689c0,0 -1.07848,1.90509 -2.74009,1.66409c-0.39438,-0.0572 0.0093,-0.6614 0.0093,-0.6614c0,0 1.9955,0.0206 2.95443,0.22331c1.71233,0.36197 2.97195,1.03046 2.97195,1.03046l-1.98262,1.09846c0,0 3.0942,-0.59558 5.04585,0.13083c2.44176,0.90883 3.88513,3.21971 4.30208,3.70391c0.97005,1.1265 1.3722,4.4981 3.06168,7.23141c1.25583,2.03175 4.02204,3.74384 4.02204,3.74384c0,0 -1.79924,0.65726 -1.04877,2.17517c0.85976,1.73894 2.99635,2.08069 2.99635,2.08069c0,0 -0.65426,3.28153 -1.49158,3.1136c-0.52065,-0.10442 0.38943,-1.64676 0.46458,-1.1358c0.68156,4.63341 -13.16086,64.00849 -13.16086,64.00849c0,0 -4.8255,5.92133 -11.49017,9.01637c-6.42592,2.98416 -12.42268,2.51788 -15.2513,2.46803c-14.86904,-0.26204 -25.35197,-10.83115 -25.35197,-10.83115l-1.962,1.96824c0,0 -3.63648,-1.87226 -5.82808,-7.06252c-1.92992,-4.57052 -1.23137,-9.14342 -1.23137,-9.14342l-1.93136,0.71863c0,0 0.36891,-3.33335 0.16652,-4.75736c-0.19245,-1.35407 -1.35256,-3.58746 -1.35256,-3.58746l-1.81236,0.89681c0,0 0.28022,-3.14957 0.16679,-4.77374c-0.08951,-1.28157 -0.79275,-4.18925 -0.79275,-4.18925c0,0 1.58675,0.37049 1.43597,0.60585c-0.66791,1.04262 -3.6329,2.07427 -3.6329,2.07427c0,0 0.31658,-3.72295 0.08861,-6.28859c-0.1339,-1.50693 -0.71858,-2.88648 -0.48313,-4.65972c0.44416,-3.3452 2.01149,-6.15854 2.01149,-6.15854z" fill="#000000" stroke="none" stroke-width="NaN" stroke-linecap="butt"/><g><path d="M271.02063,122.80294c-1.20072,4.90086 -7.66724,8.4325 -7.66724,8.4325c0,0 -1.0937,-5.77121 -0.15061,-10.7281c0.9431,-4.95689 5.76428,-10.08085 6.72949,-9.89722c0.96521,0.18363 4.16548,-0.36679 1.08836,12.19281z" fill="#000000" stroke="none" stroke-width="0" stroke-linecap="butt"/><path d="M270.44837,121.57834c-0.93629,3.8216 -5.0727,7.46653 -5.0727,7.46653c0,0 -0.02536,-3.79041 0.71005,-7.6557c0.73541,-3.86529 2.80201,-9.86976 4.11895,-9.72656c0.76166,0.08282 2.64317,0.12201 0.2437,9.91574z" fill="#ffffff" stroke="none" stroke-width="0" stroke-linecap="butt"/><path d="M267.62172,115.41009c0,0 2.16397,0.05735 1.47037,3.38348c-0.43498,2.08594 -3.46106,7.54108 -3.46106,7.54108" fill="none" stroke="#000000" stroke-width="0.5" stroke-linecap="round"/><g><path d="M207.26332,110.73585c0.96521,-0.18364 5.78639,4.94033 6.72949,9.89722c0.94309,4.95689 -0.15061,10.72809 -0.15061,10.72809c0,0 -6.46652,-3.53164 -7.66724,-8.4325c-3.07712,-12.5596 0.12316,-12.00917 1.08836,-12.19281z" fill="#000000" stroke="none" stroke-width="0" stroke-linecap="butt"/><path d="M206.99094,111.78832c1.31694,-0.1432 3.38354,5.86128 4.11895,9.72657c0.73541,3.86529 0.71005,7.6557 0.71005,7.6557c0,0 -4.13639,-3.64493 -5.07269,-7.46653c-2.39948,-9.79373 -0.51797,-9.83292 0.24369,-9.91574z" fill="#ffffff" stroke="none" stroke-width="0" stroke-linecap="butt"/><path d="M211.56454,126.46035c0,0 -3.02608,-5.45514 -3.46106,-7.54108c-0.69361,-3.32613 1.47037,-3.38348 1.47037,-3.38348" fill="none" stroke="#000000" stroke-width="0.5" stroke-linecap="round"/></g></g></g><g stroke="none" stroke-width="0" stroke-linecap="butt"><path d="M214.23791,147.79028c-1.12791,-6.71582 -0.20637,-6.94188 -1.0642,-13.44379c-0.47362,-3.58977 -2.15797,-7.18909 -2.73202,-11.13223c-1.20896,-8.30433 -1.27196,-25.65977 -0.47554,-29.40025c4.41933,-20.75585 15.3863,-24.96608 29.85603,-25.48425c20.77576,-0.74399 24.79696,12.48506 27.42961,23.79025c1.84023,7.90235 1.22737,18.92724 -0.34916,28.57116c-0.96559,5.90663 -2.47529,10.80823 -3.46814,15.58687c-1.22544,5.89815 -0.7524,7.76045 -1.86263,12.66938c-1.15349,5.10023 -6.83176,10.81045 -11.83191,15.83737c-4.57165,4.59612 -7.90818,8.33063 -12.38271,8.22359c-5.04445,-0.12068 -8.96195,-6.22631 -14.50155,-12.44391c-4.38889,-4.92605 -8.03319,-9.29321 -8.61781,-12.77419z" fill="#000000"/><g><g><path d="M214.04332,128.96874c-0.94553,-5.09249 -3.54204,-4.25562 -2.79146,-22.70284c0.35027,-8.60857 1.58748,-16.65181 3.61898,-20.76639c6.59974,-13.36702 19.1364,-15.03633 24.02784,-15.03633c4.16055,0 17.20519,1.95486 23.80596,13.20532c1.38921,2.3678 2.77649,5.92394 3.26517,9.93109c0.50548,4.1449 0.08725,8.75725 0.02672,12.11153c-0.10696,5.92699 0.23361,11.79227 -1.04001,17.97375c-0.62848,3.05035 -1.86346,6.18514 -2.54274,8.95491c-1.44491,5.89168 -1.386,9.63665 -2.01514,12.75206c-1.44877,7.17412 -1.89749,7.23551 -4.27323,10.21882c-2.5746,3.23301 -6.22007,6.15229 -9.11253,8.91074c-2.62204,2.50056 -5.47801,6.21315 -8.77908,6.21315c-4.10432,0 -6.9048,-3.78999 -10.07829,-7.4154c-4.79276,-5.47527 -11.46201,-7.91572 -13.04194,-17.80658c-0.63652,-3.98482 0.06119,-10.45004 -1.07025,-16.54383z" fill="#ffffff"/><path d="M262.41378,132.63977c-0.58334,2.37859 -1.15893,6.18592 -1.15893,6.18592c0,0 -5.5791,2.65427 -11.05793,1.01605c-5.40499,-1.61614 -8.2362,-6.25179 -8.2362,-6.25179l-6.24743,0.12765c0,0 -3.05439,3.14754 -5.91664,4.2116c-2.86226,1.06406 -4.83706,1.23239 -4.83706,1.23239c0,0 -1.36129,1.65731 -2.64515,2.3964c-1.28386,0.73909 -2.93307,0.81485 -2.93307,0.81485c0,0 0.56519,0.76382 0.66154,1.49101c0.12386,0.93492 -0.07424,2.11387 -0.07424,2.11387c0,0 -1.67542,-1.26023 -3.43293,-1.33383c-1.33674,-0.05597 -1.42165,0.87193 -1.42217,0.86868c-0.63652,-3.98482 -0.04596,-10.45004 -1.1774,-16.54383c0,0 49.15689,0.90126 48.47761,3.67103z" fill="#4a3e3d"/><path d="M208.1984,133.58133c0,0 -7.4056,-14.33403 -7.4056,-20.25674c0,-6.78738 4.63637,-18.0303 4.63637,-18.0303l61.63636,-13.09091c0,0 5.36567,21.9254 5.86597,31.3866c0.36643,6.92955 -8.08375,20.28806 -8.08375,20.28806c0,0 -6.70297,3.74432 -13.53526,2.73354c-6.01281,-0.88954 -9.90718,-5.70732 -9.90718,-5.70732l-6.5319,0.00674c0,0 -5.66943,6.2211 -13.84578,6.87511c-2.87527,0.22999 -5.40797,-0.31287 -7.44698,-1.07786c-0.1753,-0.06576 0.3929,1.9108 0.3929,1.9108c0,0 1.35208,1.0472 4.1088,1.0721c2.30186,0.02079 5.0898,-0.84774 5.0898,-0.84774c0,0 -4.49767,3.55814 -8.58361,3.97468c-2.90568,0.29622 -1.88401,-0.49159 -1.88401,-0.49159z" fill="#000000"/><path d="M214.57976,144.72205c-1.16189,1.51083 0,-2.7907 0,-2.7907c0,0 2.29788,-0.26168 3.48837,0.4186c1.19049,0.68028 1.39535,2.37209 1.39535,2.37209c0,0 -2.3917,-3.24044 -4.88372,0z" fill="#000000"/></g><path d="M207.38659,104.45231v-21.15411c0,0 21.21081,-18.67174 31.8391,-18.67174c9.85589,0 29.78844,18.67174 29.78844,18.67174l0.9522,14.8825c0,0 -4.02246,-9.83788 -7.66885,-7.46317c-9.67233,6.2991 -26.0271,10.16832 -26.0271,10.16832c0,0 2.88671,-3.50484 4.29889,-5.2734c0.74057,-0.92746 1.4281,-2.38433 1.4281,-2.38433c0,0 -9.19557,5.48816 -17.51331,7.89872c-11.3727,3.29591 -17.09747,3.32547 -17.09747,3.32547z" fill="#000000"/></g></g><g stroke="none" stroke-linecap="butt"><g stroke-width="0"><path d="M197.32329,98.02926c0.12885,-1.50566 0.77892,-2.53724 0.77892,-2.53724c0,0 -0.5725,-1.98402 -0.27031,-4.35377c0.29862,-2.34172 1.38687,-3.99558 1.38687,-3.99558c0,0 14.26154,-4.4247 40.91988,-4.12274c26.65834,0.30196 37.89811,4.97028 37.89811,4.97028c0,0 0.8582,1.13103 0.9082,3.15131c0.03785,1.52943 -0.45999,2.99509 -0.45999,2.99509c0,0 0.9583,0.79731 1.16703,2.63823c0.24426,2.15427 -0.37299,3.99187 -0.37299,3.99187c0,0 -14.17214,-4.60397 -38.90117,-5.34072c-20.60524,-0.61389 -42.48523,6.02192 -42.48523,6.02192c0,0 -0.73385,-1.49604 -0.56931,-3.41865z" fill="#773128"/><path d="M199.23686,96.00813c0.12286,-1.05576 0.74273,-1.7791 0.74273,-1.7791c0,0 -0.5459,-1.39119 -0.25776,-3.05285c0.28475,-1.64201 1.32242,-2.80169 1.32242,-2.80169c0,0 1.744,-0.39789 5.15034,-0.89897c-0.79022,1.40357 -1.23828,3.00718 -1.23828,4.71024c0,1.80303 0.50221,3.49461 1.38097,4.95535c-4.06842,0.70904 -6.55755,1.26418 -6.55755,1.26418c0,0 -0.69975,-1.04902 -0.54285,-2.39715z" fill="#894939"/><g fill="#894939"><path d="M276.19978,88.96877c0,0 0.81832,0.79307 0.866,2.20969c0.03609,1.07243 -0.43862,2.10015 -0.43862,2.10015c0,0 0.91377,0.55907 1.1128,1.84992c0.23291,1.51057 -0.35566,2.79909 -0.35566,2.79909c0,0 -2.22082,-0.53053 -6.43278,-1.19587c0.97346,-1.51559 1.53435,-3.29657 1.53435,-5.20203c0,-1.24863 -0.24084,-2.4438 -0.6808,-3.54587c2.99266,0.5567 4.3947,0.98492 4.3947,0.98492z"/><path d="M240.06269,85.48363c1.31444,0.01095 2.58955,0.03009 3.82591,0.05653c-0.73634,1.36568 -1.15179,2.91338 -1.15179,4.55329c0,1.49402 0.34482,2.91153 0.96297,4.18458c-1.11166,-0.03787 -2.24814,-0.06987 -3.409,-0.09531c-1.81256,-0.03971 -3.63547,-0.03616 -5.45139,0.00301c0.53491,-1.19861 0.83077,-2.51686 0.83077,-3.90077c0,-1.73704 -0.46611,-3.37064 -1.28598,-4.79403c1.82175,-0.02025 3.71486,-0.02367 5.67851,-0.00731z"/></g></g><g stroke-width="0.5"><g><g><path d="M208.06628,89.98838c0,-6.27411 5.56634,-11.36029 12.43278,-11.36029c6.86644,0 12.43277,5.08618 12.43277,11.36029c0,6.27411 -5.56633,11.36029 -12.43277,11.36029c-6.86644,0 -12.43277,-5.08618 -12.43277,-11.36029z" fill="#59220f"/><g><path d="M207.22167,91.03799c0,-5.89697 5.24237,-10.67741 11.70916,-10.67741c6.46679,0 11.70915,4.78044 11.70915,10.67741c0,5.89697 -5.24236,10.67741 -11.70915,10.67741c-6.46679,0 -11.70916,-4.78044 -11.70916,-10.67741z" fill="#6d4321"/><path d="M208.4254,91.03799c0,-4.20732 2.97436,-7.78116 7.11024,-9.06842c-0.38375,1.08469 -0.59245,2.25124 -0.59245,3.46619c0,5.77295 4.71198,10.45285 10.5245,10.45285c0.94949,0 1.86961,-0.12488 2.74464,-0.359c-1.76535,3.02707 -5.25946,5.08813 -9.28149,5.08813c-5.80199,0 -10.50543,-4.289 -10.50543,-9.57976z" fill="#8d6e47"/></g></g><path d="M209.58988,91.03799c0,-4.7043 4.00537,-8.51787 8.94625,-8.51787c4.94088,0 8.94624,3.81358 8.94624,8.51787c0,4.7043 -4.00537,8.51788 -8.94624,8.51788c-4.94088,0 -8.94625,-3.81358 -8.94625,-8.51788z" fill="#000000"/></g><g data-paper-data="{&quot;index&quot;:null}"><g><path d="M270.57223,89.98838c0,6.27411 -5.56634,11.36029 -12.43278,11.36029c-6.86644,0 -12.43277,-5.08618 -12.43277,-11.36029c0,-6.27411 5.56633,-11.36029 12.43277,-11.36029c6.86644,0 12.43279,5.08618 12.43279,11.36029z" fill="#59220f"/><g><path d="M259.7077,101.7154c-6.46679,0 -11.70915,-4.78044 -11.70915,-10.67741c0,-5.89697 5.24236,-10.67741 11.70915,-10.67741c6.46679,0 11.70916,4.78044 11.70916,10.67741c0,5.89697 -5.24237,10.67741 -11.70916,10.67741z" fill="#6d4321"/><path d="M270.21313,91.03798c0,5.29076 -4.70344,9.57976 -10.50543,9.57976c-4.02202,0 -7.51613,-2.06106 -9.28149,-5.08813c0.87503,0.23412 1.79515,0.359 2.74464,0.359c5.81252,0 10.5245,-4.6799 10.5245,-10.45285c0,-1.21495 -0.20871,-2.3815 -0.59246,-3.46619c4.13587,1.28726 7.11024,4.8611 7.11024,9.06842z" fill="#8d6e47"/></g></g><path d="M260.1024,99.55587c-4.94086,0 -8.94624,-3.81358 -8.94624,-8.51788c0,-4.70429 4.00536,-8.51787 8.94624,-8.51787c4.94088,0 8.94625,3.81357 8.94625,8.51787c0,4.7043 -4.00538,8.51788 -8.94625,8.51788z" fill="#000000"/></g></g></g></g><g stroke="none" stroke-width="0" stroke-linecap="butt"><path d="M225.02726,109.87854c5.64136,0 10.21459,4.47197 10.21459,9.98843c0,5.51646 -4.7706,9.74171 -10.41197,9.74171c-5.64137,0 -10.31875,-4.22525 -10.31875,-9.74171c0,-5.51645 4.87476,-9.98843 10.51613,-9.98843z" fill="#000000"/><path d="M225.02726,110.13292c4.97522,0 8.78866,3.85659 8.78866,8.8032c0,4.94661 -4.01083,9.08774 -8.98605,9.08774c-4.97523,0 -8.81106,-3.98769 -8.81106,-8.9343c0,-4.94662 4.03322,-8.95664 9.00844,-8.95664z" fill="#ffffff"/></g><g stroke="none" stroke-width="0" stroke-linecap="butt"><path d="M220.79311,164.46487c-3.41987,-3.64562 -5.06385,-8.96376 -5.06385,-8.96376c0,0 2.15778,-1.19336 4.89567,-3.13729c3.74047,-2.65577 7.91588,-5.56145 8.78235,-5.58808c1.53932,-0.24076 9.13026,2.44571 9.13026,2.44571c0,0 5.46196,-2.52512 6.83752,-2.36114c2.66467,0.06907 12.9232,9.9456 12.9232,9.9456c0,0 -0.54738,7.43067 -8.04386,10.55403c-1.36228,0.56759 -9.35473,0.77527 -15.74072,0.26786c-7.08335,-0.56284 -12.10129,-1.43677 -13.72055,-3.16293z" fill="#000000"/><path d="M230.18244,148.92938c1.50005,-0.8638 8.3671,2.54049 8.3671,2.54049c0,0 4.97492,-2.97193 7.09853,-2.48828c2.87743,0.65534 9.33122,7.20976 9.33122,7.20976c0,0 -3.95123,0.57069 -6.711,-0.28755c-3.29542,-1.02483 -5.27375,-2.57326 -8.14476,-2.60647c-0.33433,-0.00387 -2.84658,-0.12435 -4.46549,0.01653c-2.49297,0.21695 -6.15952,1.84502 -9.23827,2.21442c-4.37583,0.52504 -7.88292,-0.21769 -7.88292,-0.21769c0,0 11.44512,-6.26577 11.64559,-6.38121z" fill="#ffffff"/><path d="M256.52601,158.23907c0,0 -1.61825,3.96469 -4.60622,5.80542c-3.66074,2.25518 -10.41824,1.3246 -13.55979,1.31174c-2.4754,-0.01014 -10.73039,0.3915 -14.04402,-1.31848c-4.60654,-2.3772 -6.22108,-6.67049 -6.22108,-6.67049c0,0 3.37873,0.00478 7.15363,0.47427c1.26326,0.15711 2.22576,0.72117 2.98416,0.8551c2.06504,0.3647 3.28486,0.21248 10.02405,0.29784c1.58788,0.02011 6.71279,0.20679 8.90738,-0.07847c2.50877,-0.32609 2.42722,-0.72453 4.53301,-0.90451c3.07055,-0.26244 4.82888,0.22758 4.82888,0.22758z" fill="#ffffff"/><path d="M245.23322,156.88887c0,0 -4.15779,-0.10414 -6.71732,-0.10414c-2.55953,0 -7.96705,-0.31244 -7.96705,-0.31244c0,0 1.92424,-0.90241 4.25536,-1.05524c1.85156,-0.12139 4.5574,0.22209 5.69043,0.22209c2.55953,0 4.73858,1.24974 4.73858,1.24974z" fill="#ffffff"/></g><g stroke="none" stroke-width="0" stroke-linecap="butt"><path d="M251.5872,109.90316c5.64136,0 10.21459,4.47198 10.21459,9.98844c0,5.51645 -4.72127,9.64301 -10.36263,9.64301c-3.16285,0 -6.23667,-1.06026 -8.11031,-3.26759c-1.46826,-1.72975 -1.95625,-3.95178 -1.95625,-6.37542c0,-5.51646 4.57322,-9.98844 10.21459,-9.98844z" fill="#000000"/><path d="M251.5872,110.15754c4.97523,0 8.70691,4.08541 8.70691,9.03202c0,4.94661 -3.87973,8.68387 -8.85495,8.68387c-4.97523,0 -8.8604,-3.81265 -8.8604,-8.75926c0,-4.94661 4.03322,-8.95663 9.00844,-8.95663z" fill="#ffffff"/></g><path d="M210.07294,113.20977l0.13102,-1.63769l7.19167,-1.18423l0.32653,-1.46623c0,0 3.68245,-1.72538 7.2562,-2.03587c3.72054,-0.32324 9.00496,-0.09575 9.00496,-0.09575l0.32754,4.71657c0,0 -4.80797,-1.2906 -8.17678,-1.07798c-6.17314,0.38961 -6.13035,1.25866 -10.09703,1.94554c-3.96668,0.68688 -5.96411,0.83565 -5.96411,0.83565z" fill="#000000" stroke="none" stroke-width="0" stroke-linecap="butt"/><path d="M254.20598,106.89125c-6.5361,-0.02665 -11.93017,2.50832 -11.93017,2.50832l-0.26203,-4.42239c0,0 5.28442,-1.73418 9.39801,-1.86949c4.11358,-0.13531 7.12519,0.66021 7.12519,0.66021l0.19551,1.20419l7.3882,2.16685l0.13101,1.6377c0,0 -5.86035,-1.86016 -12.04572,-1.88538z" data-paper-data="{&quot;index&quot;:null}" fill="#000000" stroke="none" stroke-width="0" stroke-linecap="butt"/><path d="M249.53336,114.99623c2.71342,0 4.91309,2.23006 4.91309,4.98098c0,2.75092 -2.19966,4.98098 -4.91309,4.98098c-2.71342,0 -4.91309,-2.23006 -4.91309,-4.98098c0,-2.75091 2.19966,-4.98098 4.91309,-4.98098z" fill="#000000" stroke="none" stroke-width="0" stroke-linecap="butt"/><path d="M241.2919,120.48072c0,0 -0.53134,-3.2454 0.9459,-6.12374c1.32927,-2.59004 4.34124,-4.84529 9.8629,-4.81608c11.13492,0.0589 11.0941,11.29489 11.0941,11.29489c0,0 -4.89864,-2.00661 -11.69358,-1.89472c-6.69115,0.11018 -10.20932,1.53965 -10.20932,1.53965z" data-paper-data="{&quot;index&quot;:null}" fill="#000000" stroke="none" stroke-width="0" stroke-linecap="butt"/><g stroke="none" stroke-width="0" stroke-linecap="butt"><g><path d="M221.67319,115.51356c2.38933,0 4.32627,1.96371 4.32627,4.38606c0,2.42235 -1.93693,4.38605 -4.32627,4.38605c-2.38933,0 -4.32627,-1.9637 -4.32627,-4.38605c0,-2.42235 1.93693,-4.38606 4.32627,-4.38606z" fill="#000000"/><path d="M221.67319,117.03888c1.5584,0 2.82174,1.2808 2.82174,2.86074c0,1.57994 -1.26333,2.86073 -2.82174,2.86073c-1.5584,0 -2.82174,-1.28079 -2.82174,-2.86073c0,-1.57994 1.26333,-2.86074 2.82174,-2.86074z" fill="#ffffff"/></g><g><path d="M221.67319,118.06088c1.00167,0 1.81368,0.82323 1.81368,1.83874c0,1.01551 -0.81201,1.83874 -1.81368,1.83874c-1.00167,0 -1.81368,-0.82323 -1.81368,-1.83874c0,-1.01551 0.81201,-1.83874 1.81368,-1.83874z" fill="#000000"/><path d="M221.67319,118.70033c0.65332,0 1.18294,0.53694 1.18294,1.19929c0,0.66235 -0.52962,1.19929 -1.18294,1.19929c-0.65332,0 -1.18294,-0.53694 -1.18294,-1.19929c0,-0.66235 0.52961,-1.19929 1.18294,-1.19929z" fill="#ffffff"/></g></g><path d="M214.80582,124.00404c0,0 4.80677,1.86465 9.93055,1.74173c4.29504,-0.10304 10.06492,-1.97718 10.06492,-1.97718c0,0 -1.44756,5.70572 -10.08931,6.32611c-8.15604,0.58552 -10.26202,-6.06049 -10.26202,-6.06049z" fill="#000000" stroke="none" stroke-width="0" stroke-linecap="butt"/><path d="M214.33093,120.45931c0,0 -0.16627,-2.22288 0.81062,-4.59656c1.16899,-2.84044 3.93233,-5.91812 9.99819,-5.95021c4.4123,-0.02334 6.77688,1.48178 8.31843,3.36171c2.53146,3.08714 2.42486,7.54013 2.42486,7.54013c0,0 -5.30334,-1.70413 -11.37251,-1.68624c-6.26642,0.01848 -10.17959,1.33117 -10.17959,1.33117z" fill="#000000" stroke="none" stroke-width="0" stroke-linecap="butt"/><g stroke="none" stroke-width="0" stroke-linecap="butt"><path d="M235.69416,141.08765c0,0 -0.06312,-8.68679 -0.28083,-12.38791c-0.17487,-2.97289 -0.92532,-8.11666 -0.92532,-8.11666c0,0 -0.33218,-1.57308 0.02454,-1.56279c1.13657,0.03279 7.81544,1.78895 7.81544,1.78895l-0.37692,20.27841c0,0 0.82184,1.93768 0.72844,3.69896c-0.06976,1.31553 -0.97469,4.70292 -1.02626,5.67536c-0.11348,2.13998 -0.40577,3.89334 -0.40577,3.89334l-4.14036,-0.01448c0,0 -0.12488,-2.01528 -0.87252,-4.2695c-0.71961,-2.16969 -2.11593,-4.55553 -2.18508,-5.58924c-0.19994,-2.9885 1.64464,-3.39445 1.64464,-3.39445z" fill="#000000"/><path d="M235.63861,142.26566c0.34401,0 0.62288,4.77542 0.62288,4.77542c0,0 -1.24576,-1.59275 -1.24576,-2.7251c0,-1.13236 0.27887,-2.05032 0.62288,-2.05032z" fill="#ffffff"/><g><path d="M238.0562,153.36557c0,0 -0.2909,-3.80356 -0.49735,-8.24071c-0.20504,-4.40659 -0.32473,-9.70108 -0.5883,-13.30096c-0.42508,-5.80554 -1.77895,-15.81414 -1.77895,-15.81414l6.10614,1.88461l-0.75385,35.43068z" fill="#ffffff"/><path d="M235.1916,116.00976l6.10614,1.88461l-0.26662,12.53102c0,0 -0.91509,-0.61278 -2.28618,-0.61827c-1.30902,-0.00524 -1.9132,0.55613 -1.9132,0.55613z" fill="#4a3e3d"/></g><path d="M234.89973,129.48168v-13.67088h7.40506v13.67088c0,0 -0.21956,-1.92307 -3.35712,-2.07692c-3.47928,-0.1706 -4.04794,2.07692 -4.04794,2.07692z" fill="#000000"/></g><path d="M251.21818,125.58762c6.79495,0.11189 11.69358,-5.71583 11.69358,-5.71583c0,0 0.04082,11.23599 -11.0941,11.29489c-5.52166,0.02921 -8.53363,-2.22604 -9.8629,-4.81608c-1.47724,-2.87834 -0.9459,-6.12374 -0.9459,-6.12374c0,0 3.51817,5.25059 10.20932,5.36077z" data-paper-data="{&quot;index&quot;:null}" fill="#000000" stroke="none" stroke-width="0" stroke-linecap="butt"/></g></g></svg>