<svg version="1.1" xmlns="http://www.w3.org/2000/svg" xmlns:xlink="http://www.w3.org/1999/xlink" width="94.04938" height="247.47391" viewBox="0,0,94.04938,247.47391"><g transform="translate(-193.59339,-56.39352)"><g data-paper-data="{&quot;isPaintingLayer&quot;:true}" fill-rule="nonzero" stroke-linejoin="miter" stroke-miterlimit="10" stroke-dasharray="" stroke-dashoffset="0" style="mix-blend-mode: normal"><g stroke="none" stroke-width="0" stroke-linecap="butt"><path d="M222.04623,263.19747v-58.79379h35.44112v58.79379z" fill="#161212"/><path d="M227.723,175.38368c0,6.58669 -5.05403,11.92627 -11.2885,11.92627c-6.23446,0 -10.59992,0.90327 -11.51373,-5.61973c-2.0271,-14.46986 5.5045,-22.73747 11.73896,-22.73747c6.23447,0 11.06327,9.84423 11.06327,16.43093z" fill="#6d4321"/><path d="M251.16674,252.6075c0,0 -4.56661,-18.00194 -8.72947,-30.13192c-1.33787,-3.89837 -4.42769,-8.20621 -4.42769,-8.20621l9.29409,-3.18962c0,0 0.96919,5.97398 2.10376,10.15478c4.34984,16.02875 11.0534,28.18336 11.0534,28.18336z" fill="#6d4321"/><path d="M247.607,221.26364c3.28972,9.94792 3.24063,10.51158 6.85665,19.33735c0.2767,0.67535 -4.08149,4.76867 -5.33385,-0.43902c-1.66544,-6.92541 -5.69927,-16.78005 -5.87142,-17.28165c-0.19088,-0.55617 -0.71255,-1.3826 -0.36756,-2.61994c0.42011,-0.94278 4.58803,0.61575 4.71618,1.00326z" fill="#8d6e47"/><path d="M227.25799,256.24331c0,0 2.68226,-18.3774 3.48673,-31.17658c0.25854,-4.11344 -0.94411,-9.27659 -0.94411,-9.27659l9.80683,0.61639c0,0 -1.39464,5.88921 -1.94921,10.18558c-2.12616,16.47183 -0.59341,30.2676 -0.59341,30.2676z" fill="#6d4321"/><path d="M235.98415,225.9289c-0.77455,10.44908 -1.03594,10.95089 -1.07898,20.4886c-0.00329,0.72983 -5.59758,2.84003 -4.7582,-2.44995c1.11625,-7.03484 1.16776,-17.68298 1.20103,-18.21225c0.03689,-0.58686 -0.12819,-1.55013 0.66472,-2.56073c0.74939,-0.70976 4.00161,2.3273 3.97144,2.73434z" fill="#8d6e47"/><path d="M202.81499,248.75162c0,0 0.99434,-12.07524 0.99434,-20.44166c0,-2.68883 -0.99434,-6.00132 -0.99434,-6.00132h6.41042c0,0 -0.66703,3.89152 -0.85229,6.71157c-0.71024,10.81177 0.85229,19.73142 0.85229,19.73142z" fill="#8d6e47"/><path d="M200.58117,185.96089c0,-6.33659 10.02424,-8.01179 16.02152,-8.33946c8.95571,-0.48932 -4.4977,-18.96911 0.48962,-22.43399c6.72805,-4.67423 15.044,-7.43677 24.04479,-7.43677c22.39843,0 40.82079,17.1073 40.82079,38.21022c0,2.70002 0.0039,117.77204 0.0039,117.77204l-11.39983,-0.12964l-0.14337,-113.82486c0,0 0.46851,-2.08621 -1.77595,-2.22047c-2.48625,-0.14872 -2.11767,1.68282 -2.11767,1.68282l0.10343,114.38802l-50.32146,0.07847l0.05132,-55.89712c0.31476,-0.1551 0.63182,-0.46759 0.63182,-1.09714c0,-0.62821 -0.31572,-0.9407 -0.62981,-1.09614l0.05152,-56.11447c0,0 -0.19035,-2.13951 -1.8053,-2.16297c-2.01199,-0.02922 -1.98832,2.04221 -1.98832,2.04221l-0.0941,35.85192c-3.94765,0.00048 -7.88483,-0.25549 -11.82812,-0.47115c-0.06354,-21.06877 -0.11478,-38.23687 -0.11478,-38.80151zM227.95769,218.29595h1.11543c-0.29924,1.1623 -0.67466,2.30572 -0.81278,3.53579c-0.87852,7.82364 0.62687,15.84271 0.60795,23.61068c0.0155,5.03322 0.65172,12.21427 3.24882,16.66605c0.87769,1.50448 3.99336,4.40335 5.93127,3.60634c1.35446,-0.55705 1.78268,-2.34468 2.44215,-3.65233c1.32504,-2.62739 3.10839,-5.33569 4.05486,-8.11661c1.54687,-3.10597 2.19213,-6.56741 3.55995,-9.7594c0.81683,-1.90618 1.83242,-3.79904 2.35838,-5.83316c1.54871,-5.98958 1.69129,-12.6677 4.53919,-18.27908c0.4206,-0.85166 1.55315,-2.72509 0.8642,-3.69671c-0.97725,-1.37822 -4.58488,-0.89022 -5.99478,-0.89022c-5.98265,0 -11.91513,0.23831 -17.89281,0.29613c0.00349,-0.09301 0.00555,-0.18658 0.00607,-0.28076c0,0 0,-1.25 -1.25,-1.25c-1.25,0 -1.25,1.25 -1.25,1.25c0.00066,0.09837 -0.00064,0.19611 -0.00376,0.29328h-1.52416c0,0 -1.25,0 -1.25,1.25c0,1.25 1.25,1.25 1.25,1.25z" fill="#000000"/><path d="M212.31829,303.63837l-11.38239,0.22905c0,0 -0.09126,-29.95274 -0.18121,-59.66638c1.86783,-0.10002 3.71873,-0.13296 5.27173,0.27312c0.89819,0.23486 1.50352,1.11916 2.35792,1.48235c1.24284,0.5283 2.66312,1.03079 4.08162,1.41609z" fill="#000000"/><path d="M200.05542,274.02988c0,0 -4.95069,-6.04185 -4.95069,-13.29658c0,-8.31413 4.95069,-12.20079 4.95069,-12.20079c0,0 7.46568,3.72296 29.48536,1.54999c15.71348,-1.55066 15.40196,-6.82163 22.8501,-7.36155c15.3777,-1.11474 30.01157,-38.87193 30.01157,-38.87193c0,0 4.30053,59.35836 4.05134,66.06644c-0.32265,8.68581 -3.94585,10.57154 -3.94585,10.57154c0,0 -18.18612,-9.97028 -29.84376,-10.85026c-38.49971,-2.90618 -52.60875,4.39314 -52.60875,4.39314z" fill="#59220f"/><path d="M200.39057,184.25459c0.0267,-1.29936 21.22596,1.60181 38.63365,-4.80059c30.22128,-12.73382 29.64739,-21.69717 32.30204,-19.28249c17.58627,15.99655 12.59502,46.37693 12.59502,46.37693c0,0 -1.98735,11.04195 -37.4372,13.34949c-30.46444,1.98303 -46.72454,-4.93331 -46.72454,-4.93331c0,0 -2.98485,-5.93152 -3.26904,-12.84751c-0.56539,-13.75956 3.8378,-14.83243 3.90006,-17.86253z" fill="#773128"/><path d="M200.76683,200.8583c0,-0.38789 0.00211,-0.77295 0.0077,-1.15422c0.67253,-0.30104 1.3433,-0.60678 2.01194,-0.91821c4.99358,-2.32583 10.06779,-5.66815 12.82668,-10.51675c4.79843,-0.18775 11.51796,-0.76222 18.6159,-2.50452c0.132,0.16345 0.26292,0.32846 0.39241,0.49538c0.26396,0.34025 0.53286,10.57476 -4.3982,16.84669c1.46769,0.32 3.0245,0.35724 4.36015,-0.27291c7.39229,-3.48762 6.79626,-11.98618 7.15639,-11.5059c1.43576,1.91475 2.45669,9.50707 -0.23672,16.11529c3.29453,0.03379 7.98018,0.37472 8.84027,1.99398c0.34992,0.65877 0.69434,1.32052 1.03327,1.98514c-42.50914,4.2584 -50.6098,-4.83557 -50.6098,-10.56397z" fill="#894939"/><path d="M209.60334,188.35787c0.71384,0 1.7383,0.00601 3.01612,-0.01099c-2.59298,3.68698 -6.87723,6.31288 -10.88659,8.17184c-0.27524,0.12761 -0.55082,0.25431 -0.82672,0.38013c0.43711,-4.8573 2.17128,-8.54099 8.69719,-8.54099z" fill="#894939"/><path d="M281.47845,277.22139c-2.41786,1.31322 -7.1279,-8.74399 -34.19204,-11.21163c-27.99487,-0.93444 -44.65344,4.91631 -45.2647,4.91631c-2.88444,0 -5.37437,-6.29327 -5.50003,-9.88479c-0.1462,-4.17854 1.75348,-9.57727 4.63793,-9.57727c1.73551,0 6.96219,2.96007 18.77571,2.50848c1.24062,-0.04743 -4.39011,8.87745 -4.39011,8.87745c0,0 6.31622,-1.89413 10.75191,-2.20193c5.51752,-0.38287 3.89489,-7.76286 5.24867,-8.00989c1.74418,-0.31827 3.57964,-0.70024 5.51055,-1.15453c1.04975,1.33044 2.22083,2.50418 3.4908,3.54158c1.26943,1.03695 11.41791,9.61404 18.26666,9.84775c3.82695,0.13059 -4.75489,0.6507 -4.75489,0.6507c0,0 3.91083,-3.36549 8.50765,-2.80614c3.52948,0.42948 7.03343,0.68282 10.31289,0.94075c0.46737,0.03676 0.93478,0.07272 1.40222,0.10791c6.00772,6.07929 10.18306,11.8333 7.19678,13.45524z" fill="#6d4321"/><path d="M254.0241,244.51358c1.16943,-0.29491 9.32316,6.82229 17.22503,14.30284c-10.83477,-0.82519 -24.29722,0.19975 -31.74885,-8.24518c1.92201,-0.49685 4.92244,-0.77563 7.02462,-1.89221c2.28139,-1.21177 4.99673,-3.27825 7.49921,-4.16545z" fill="#6d4321"/><path d="M207.25599,228.6569c-0.07669,6.83507 -0.22635,7.17248 0.13594,13.38422c0.02773,0.47532 -3.52835,2.0782 -3.19831,-1.40044c0.4389,-4.62605 0.03667,-11.56112 0.03667,-11.90709c0,-0.38361 -0.1469,-1.00404 0.328,-1.69449c0.45888,-0.49278 2.70067,1.35154 2.69769,1.6178z" fill="#a79262"/><path d="M207.41814,175.18126c-0.35546,-5.18258 3.58434,-12.19063 6.13641,-12.19063c2.55208,0 3.81447,9.41855 3.81447,11.28353c0,0 -9.82326,2.76772 -9.95088,0.90711z" fill="#8d6e47"/><path d="M275.12283,208.18614c-0.9568,0.15941 -1.90167,0.31385 -2.83473,0.46343c-0.6443,-1.39301 0.71091,-5.76342 1.73795,-8.65077c-3.00416,-0.64453 -7.5455,-2.64863 -8.16725,-3.72493c-0.58634,-1.015 -0.98633,-7.78865 -1.20684,-12.83269c-2.82002,0.91525 -6.34269,0.96546 -6.98638,0.05523c-1.3256,-1.87453 -2.68709,-3.71959 -4.08126,-5.53325c3.33821,-1.80015 6.46612,-3.63789 9.15679,-5.19293c1.86194,2.27137 5.1061,3.56595 7.77992,5.16993c1.98717,1.19207 3.9657,2.39538 5.93624,3.61002c2.73717,11.2562 3.98696,25.74938 -1.33446,26.63597z" fill="#894939"/><path d="M271.67444,168.96065c1.20426,1.35905 2.60951,4.78836 3.8531,9.08644c-1.23692,-0.75463 -2.47701,-1.50487 -3.72044,-2.25078c-2.06529,-1.23892 -5.21336,-2.35742 -6.90514,-4.26358c3.63909,-2.05543 6.15161,-3.27274 6.77247,-2.57208z" fill="#894939"/><path d="M284.55866,267.46997c0.07765,2.92506 -22.6581,-26.72585 -20.19921,-28.312c3.17521,-2.04823 6.16401,-6.4581 8.65366,-10.91148c2.94765,1.80858 6.02518,3.31709 9.18568,4.63628c1.21329,13.61777 2.26258,30.92197 2.35987,34.5872z" fill="#6d4321"/><path d="M279.67443,215.64745c0.66651,-0.05624 1.48816,6.20687 2.26648,14.42567c-2.65715,-1.16601 -5.24663,-2.48423 -7.73697,-4.02534c2.85722,-5.43314 4.87638,-10.3502 5.47049,-10.40033z" fill="#6d4321"/></g><path d="M194.00261,125.98021c0,0 4.75839,-5.12941 6.10536,-8.45329c2.88904,-7.12918 2.85124,-13.03672 2.85124,-13.03672c0,0 -1.85997,0.61665 -2.84266,0.69861c-1.61013,0.13429 -2.80363,-0.26204 -2.80363,-0.26204l6.42399,-6.92498c0,0 0.2475,-17.60523 8.9764,-29.16254c6.74693,-8.93313 20.64648,-12.51508 30.3551,-12.44472c8.42215,0.06104 22.55613,3.08573 28.68941,10.58184c10.08388,12.32455 6.38707,19.81995 10.11,32.42062c3.72078,12.59341 5.77495,16.18431 5.77495,16.18431c0,0 -1.64899,-0.1627 -2.4478,-0.70191c-3.35821,-2.26684 -4.77049,-4.144 -4.77049,-4.144c0,0 2.51404,9.65365 0.49901,21.29599c-1.43966,8.31802 -7.42166,16.10527 -7.42166,16.10527l-1.17358,-2.98711c0,0 -0.27736,1.51046 -1.52332,3.13635c-1.38133,1.80253 -3.94985,3.49671 -3.94985,3.49671l0.00318,-3.58884c0,0 -4.58502,5.92133 -10.91754,9.01637c-6.10567,2.98416 -11.80358,2.51788 -14.49123,2.46803c-14.12802,-0.26204 -24.08852,-10.83115 -24.08852,-10.83115l-1.5995,1.70352c0,0 -3.09691,-2.20769 -5.16904,-7.29265c-3.07463,-7.54506 -3.82841,-13.97384 -3.82841,-13.97384c0,0 -3.51398,2.22964 -6.51964,2.91866c-3.62077,0.83002 -6.65099,0.20519 -6.65099,0.20519c0,0 3.61051,-2.54967 5.08456,-3.95508c1.38725,-1.32265 3.51514,-4.24416 3.51514,-4.24416c0,0 -3.21775,1.31904 -4.68875,1.66038c-2.24208,0.52027 -3.5017,0.11114 -3.5017,0.11114z" fill="#000000" stroke="none" stroke-width="NaN" stroke-linecap="butt"/><g><path d="M210.72873,106.44862c0.96521,-0.18364 5.78639,4.94033 6.72949,9.89722c0.94309,4.95689 -0.15061,10.72809 -0.15061,10.72809c0,0 -6.46652,-3.53164 -7.66724,-8.4325c-3.07712,-12.5596 0.12316,-12.00917 1.08836,-12.19281z" fill="#000000" stroke="none" stroke-width="0" stroke-linecap="butt"/><path d="M210.45635,107.50109c1.31694,-0.1432 3.38354,5.86128 4.11895,9.72657c0.73541,3.86529 0.71005,7.6557 0.71005,7.6557c0,0 -4.13639,-3.64493 -5.07269,-7.46653c-2.39948,-9.79373 -0.51797,-9.83292 0.24369,-9.91574z" fill="#000000" stroke="none" stroke-width="0" stroke-linecap="butt"/><path d="M215.02995,122.17313c0,0 -3.02608,-5.45514 -3.46106,-7.54108c-0.69361,-3.32613 1.47037,-3.38348 1.47037,-3.38348" fill="none" stroke="#000000" stroke-width="0.5" stroke-linecap="round"/></g><path d="M217.70332,143.50304c-1.12791,-6.71582 -0.20637,-6.94188 -1.0642,-13.44379c-0.47362,-3.58977 -2.15797,-7.18909 -2.73202,-11.13223c-1.20896,-8.30433 -1.27196,-25.65977 -0.47554,-29.40025c4.41933,-20.75585 15.3863,-24.96608 29.85603,-25.48425c20.77576,-0.74399 24.79696,12.48506 27.42961,23.79025c1.84023,7.90235 1.22737,18.92724 -0.34916,28.57116c-0.96559,5.90663 -2.47529,10.80823 -3.46814,15.58687c-1.22544,5.89815 -0.7524,7.76045 -1.86263,12.66938c-1.15349,5.10023 -6.83176,10.81045 -11.83191,15.83737c-4.57165,4.59612 -7.90818,8.33063 -12.38271,8.22359c-5.04445,-0.12068 -8.96195,-6.22631 -14.50155,-12.44391c-4.38889,-4.92605 -8.03319,-9.29321 -8.61781,-12.77419z" fill="#000000" stroke="none" stroke-width="0" stroke-linecap="butt"/><path d="M217.50873,124.68152c-0.94553,-5.09249 -3.54204,-4.25562 -2.79146,-22.70284c0.35027,-8.60857 1.58748,-16.65181 3.61898,-20.76639c6.59974,-13.36702 19.1364,-15.03633 24.02784,-15.03633c4.16055,0 17.20519,1.95486 23.80596,13.20532c0.5741,0.9785 1.14787,2.15996 1.65803,3.49232c-3.10532,-0.00795 -6.16835,-0.25818 -8.91756,-0.94548h-12.45789c-3.73145,0.93287 -7.80256,0.89854 -10.04631,4.8251c-0.50718,0.88757 0.11357,2.07995 -0.17011,3.06207c-0.26934,0.93246 -1.38757,1.5592 -1.44464,2.5281c-0.0464,0.78785 0.81661,1.35237 1.17468,2.05568c0.36589,0.71868 -0.53511,1.72566 -0.11895,2.41645c0.50084,0.83137 1.7648,0.90158 2.42272,1.61514c0.69295,0.75156 0.67098,2.09567 1.52155,2.66272c3.91709,2.6114 5.11957,0.18924 8.86345,0.83473c1.33819,0.66453 2.84636,1.03816 4.44181,1.03816c0.50737,0 1.00592,-0.03779 1.49299,-0.1107c4.87668,0.67064 9.89622,1.10439 14.84806,0.99867c-0.01993,5.10757 0.0834,10.20769 -1.01596,15.5434c-0.62848,3.05035 -1.86346,6.18514 -2.54274,8.95491c-1.44491,5.89168 -1.386,9.63665 -2.01514,12.75206c-1.44877,7.17412 -1.89749,7.23551 -4.27323,10.21882c-2.5746,3.23301 -6.22007,6.15229 -9.11253,8.91074c-2.62204,2.50056 -5.47801,6.21315 -8.77908,6.21315c-4.10432,0 -6.9048,-3.78999 -10.07829,-7.4154c-4.79276,-5.47527 -11.46201,-7.91572 -13.04194,-17.80658c-0.63652,-3.98482 0.06119,-10.45004 -1.07025,-16.54383z" fill="#000000" stroke="none" stroke-width="0" stroke-linecap="butt"/><g fill="#000000" stroke="none" stroke-width="0" stroke-linecap="butt"><path d="M228.49267,105.59132c5.64136,0 10.21459,4.47197 10.21459,9.98843c0,5.51646 -4.7706,9.74171 -10.41197,9.74171c-5.64137,0 -10.31875,-4.22525 -10.31875,-9.74171c0,-5.51645 4.87476,-9.98843 10.51613,-9.98843z"/><path d="M228.49267,105.84569c4.97522,0 8.78866,3.85659 8.78866,8.8032c0,4.94661 -4.01083,9.08774 -8.98605,9.08774c-4.97523,0 -8.81106,-3.98769 -8.81106,-8.9343c0,-4.94662 4.03322,-8.95664 9.00844,-8.95664z"/></g><g stroke="none" stroke-width="0" stroke-linecap="butt"><path d="M255.05261,105.61594c5.64136,0 10.21459,4.47198 10.21459,9.98844c0,5.51645 -4.72127,9.64301 -10.36263,9.64301c-3.16285,0 -6.23667,-1.06026 -8.11031,-3.26759c-1.46826,-1.72975 -1.95625,-3.95178 -1.95625,-6.37542c0,-5.51646 4.57322,-9.98844 10.21459,-9.98844z" fill="#000000"/><path d="M255.05261,105.87032c4.97523,0 8.70691,4.08541 8.70691,9.03202c0,4.94661 -3.87973,8.68387 -8.85495,8.68387c-4.97523,0 -8.8604,-3.81265 -8.8604,-8.75926c0,-4.94661 4.03322,-8.95663 9.00844,-8.95663z" fill="#ffffff"/></g><g stroke="none" stroke-linecap="butt"><path d="M249.65682,142.6897c2.14614,0.63336 4.57,2.14674 7.10189,3.18958c3.1668,1.30434 5.91835,2.72636 5.91835,2.98404c0,0.09852 0.6422,0.57742 0.34258,1.11686c-1.789,3.22099 -9.63005,12.83494 -20.94009,13.0257c-12.59325,-0.3248 -20.68677,-10.85655 -23.27914,-15.25835c-0.66575,-1.13043 -0.11257,-1.97072 -0.18768,-1.99564c-0.32963,-0.10935 2.17574,-0.56882 4.39722,-1.19556c1.32363,-0.37344 6.02869,-2.52762 9.16564,-2.62169c0,0 6.11008,0.84857 11.13979,1.05021c0,0 4.30069,-0.8974 6.34144,-0.29515z" fill="#000000" stroke-width="NaN"/><path d="M223.17492,145.91181c0,0 4.45428,-1.58314 9.14685,-1.84617c3.5353,-0.19816 8.14505,1.24124 10.14351,1.24124c1.78589,0 3.62586,-1.29154 6.32678,-0.57417c4.23256,1.12417 8.12418,3.53158 8.12418,3.53158c0,0 -3.47556,-0.50449 -6.7587,-0.10932c-2.77486,0.33399 -5.25973,0.85453 -6.95291,0.86581c-2.06827,0.01378 -6.82484,-0.83276 -11.18375,-1.76195c-4.64917,-0.99105 -8.84595,-1.34702 -8.84595,-1.34702z" fill="#ffffff" stroke-width="0"/><path d="M234.18278,149.67147c5.82065,1.20577 8.52116,2.22429 8.52116,2.22429c0,0 2.73973,-0.85807 10.10428,-1.81233c3.83362,-0.49674 8.34249,0.13003 8.34249,0.13003c0,0 -1.67172,2.4939 -5.81691,5.31831c-3.13971,2.13931 -7.86424,4.77611 -13.40623,4.89818c-13.03253,0.28708 -21.37398,-13.37554 -21.37398,-13.37554c0,0 7.27229,1.30021 13.62919,2.61706z" fill="#ffffff" stroke-width="0"/></g><path d="M213.53835,108.92255l0.13102,-1.63769l7.19167,-1.18423l0.32653,-1.46623c0,0 3.68245,-1.72538 7.2562,-2.03587c3.72054,-0.32324 9.00496,-0.09575 9.00496,-0.09575l0.32754,4.71657c0,0 -4.80797,-1.2906 -8.17678,-1.07798c-6.17314,0.38961 -6.13035,1.25866 -10.09703,1.94554c-3.96668,0.68688 -5.96411,0.83565 -5.96411,0.83565z" fill="#000000" stroke="none" stroke-width="0" stroke-linecap="butt"/><path d="M257.67139,102.60403c-6.5361,-0.02665 -11.93017,2.50832 -11.93017,2.50832l-0.26203,-4.42239c0,0 5.28442,-1.73418 9.39801,-1.86949c4.11358,-0.13531 7.12519,0.66021 7.12519,0.66021l0.19551,1.20419l7.3882,2.16685l0.13101,1.6377c0,0 -5.86035,-1.86016 -12.04572,-1.88538z" data-paper-data="{&quot;index&quot;:null}" fill="#000000" stroke="none" stroke-width="0" stroke-linecap="butt"/><g stroke="none" stroke-width="0" stroke-linecap="butt"><path d="M239.15957,136.80041c0,0 -0.06312,-8.68679 -0.28083,-12.38791c-0.17487,-2.97289 -0.92532,-8.11666 -0.92532,-8.11666c0,0 -0.33218,-1.57308 0.02454,-1.56279c1.13657,0.03279 7.81544,1.78895 7.81544,1.78895l-0.37692,20.27841c0,0 0.82184,1.93768 0.72844,3.69896c-0.06976,1.31553 -0.97469,4.70292 -1.02626,5.67536c-0.11348,2.13998 -0.40577,3.89334 -0.40577,3.89334l-4.14036,-0.01448c0,0 -0.12488,-2.01528 -0.87252,-4.2695c-0.71961,-2.16969 -2.11593,-4.55553 -2.18508,-5.58924c-0.19994,-2.9885 1.64464,-3.39445 1.64464,-3.39445z" fill="#000000"/><path d="M241.52161,149.07835c0,0 -0.2909,-3.80356 -0.49735,-8.24071c-0.20504,-4.40659 -0.32473,-9.70108 -0.5883,-13.30096c-0.42508,-5.80554 -1.77895,-15.81414 -1.77895,-15.81414l6.10614,1.88461l-0.75385,35.43068z" fill="#000000"/><path d="M239.10402,137.97843c0.34401,0 0.62288,4.77542 0.62288,4.77542c0,0 -1.24576,-1.59275 -1.24576,-2.7251c0,-1.13236 0.27887,-2.05032 0.62288,-2.05032z" fill="#ffffff"/></g><path d="M210.852,100.16509v-21.15411c0,0 21.21081,-18.67174 31.8391,-18.67174c9.85589,0 29.78844,18.67174 29.78844,18.67174l0.9522,14.8825c0,0 -4.02246,-9.83788 -7.66885,-7.46317c-9.67233,6.2991 -26.0271,10.16832 -26.0271,10.16832c0,0 2.88671,-3.50484 4.29889,-5.2734c0.74057,-0.92746 1.4281,-2.38433 1.4281,-2.38433c0,0 -9.19557,5.48816 -17.51331,7.89872c-11.3727,3.29591 -17.09747,3.32547 -17.09747,3.32547z" fill="#000000" stroke="none" stroke-width="0" stroke-linecap="butt"/><path d="M244.75731,116.1935c0,0 -0.53134,-3.2454 0.9459,-6.12374c1.32927,-2.59004 4.34124,-4.84529 9.8629,-4.81608c11.13492,0.0589 11.0941,11.29489 11.0941,11.29489z" data-paper-data="{&quot;index&quot;:null}" fill="#000000" stroke="none" stroke-width="0" stroke-linecap="butt"/><path d="M217.74702,131.92049c0,0 6.81477,-3.10028 10.4112,-3.20871c6.59565,-0.19886 10.72023,-8.15442 10.72023,-8.15442l29.70362,1.59483c0,0 -3.78535,19.69262 -11.5915,30.82033c-7.11198,10.13817 -14.72311,14.43284 -14.72311,14.43284c0,0 -13.82779,-7.11232 -21.71109,-18.39605c-3.72134,-5.32651 -2.80934,-17.08881 -2.80934,-17.08881z" fill-opacity="0.26613" fill="#000000" stroke="none" stroke-width="0" stroke-linecap="butt"/><g fill="none" stroke-width="4.5" stroke-linecap="round"><path d="M231.45658,138.65365c0,0 -1.34567,-16.88134 0.18734,-19.20608c1.61658,-2.45149 16.36137,-5.99654 16.36137,-5.99654" stroke="#773128"/><path d="M231.45658,138.65365c0,0 -0.32554,-4.0839 -0.47398,-8.51096" stroke="#571c18"/><path d="M241.50636,115.20604c3.46576,-1.02573 6.49892,-1.75499 6.49892,-1.75499" stroke="#571c18"/></g><g fill="none" stroke-width="4.5" stroke-linecap="round"><path d="M220.55323,138.95709c0,0 -1.97157,-24.7333 0.27447,-28.13934c2.3685,-3.59174 23.97149,-8.78571 23.97149,-8.78571" stroke="#894939"/><path d="M220.55323,138.95709c0,0 -0.47696,-5.98342 -0.69444,-12.46964" stroke="#571c18"/><path d="M235.27744,104.60333c5.07778,-1.50283 9.52176,-2.57128 9.52176,-2.57128" stroke="#571c18"/></g><path d="M242.46457,129.18813v-30.2097c0,0 5.92547,-5.0378 14.96033,-4.68067c10.57817,0.41813 13.72503,3.98779 13.72503,3.98779c0,0 -1.38112,7.77775 -2.07769,20.0742c-0.2558,4.51566 -2.49534,12.35273 -2.49534,12.35273c0,0 -3.63986,0.50339 -11.39714,0.39686c-4.15059,-0.057 -12.7152,-1.92121 -12.7152,-1.92121z" fill="#6d4321" stroke="none" stroke-width="0" stroke-linecap="butt"/><path d="M217.40275,137.35735c0,0 6.81477,-3.10028 10.4112,-3.20871c6.59565,-0.19886 10.72023,-8.15442 10.72023,-8.15442l29.70362,1.59483c0,0 -3.78535,19.69262 -11.5915,30.82033c-7.11198,10.13817 -12.37482,14.95933 -12.37482,14.95933c0,0 -13.32719,-7.63881 -21.2105,-18.92254c-3.72134,-5.32651 -5.65823,-17.08881 -5.65823,-17.08881z" fill="#3d3332" stroke="none" stroke-width="0" stroke-linecap="butt"/><path d="M255.69852,104.8356c5.64136,0 10.21459,4.47197 10.21459,9.98843c0,5.51646 -4.7706,9.74171 -10.41197,9.74171c-5.64137,0 -10.31875,-4.22525 -10.31875,-9.74171c0,-5.51645 4.87476,-9.98843 10.51613,-9.98843z" fill="#000000" stroke-opacity="0.65323" stroke="#000000" stroke-width="2" stroke-linecap="butt"/><path d="M253.87573,154.75472c-3.88962,6.88156 -8.82852,12.72695 -10.32391,12.72695c-1.89176,0 -9.7305,-6.50076 -15.44403,-13.54835c-4.69778,-5.79467 -7.60871,-12.19241 -7.60871,-13.64181c0,-0.45427 8.00646,5.08712 11.51163,3.3485c2.25574,-1.11889 -1.92111,2.76174 -1.92111,2.76174c0,0 -1.54573,-9.34948 1.62821,-10.4941c3.22296,-1.16231 6.2418,-2.8593 7.63126,-5.75513c0.42104,-0.87751 2.28143,-0.81343 4.8628,-0.47876c-0.06474,0.37115 0.06831,0.70377 0.06831,0.70377c0.324,0.80876 1.3052,9.29924 1.13237,12.28076c-0.17797,3.07009 -1.51509,0.62143 -1.51509,0.62143c0,0 3.74498,-6.32935 4.24079,-5.35043c0.52541,1.03735 2.96323,9.49073 0.63876,13.23126c-1.6328,2.62751 -3.15966,-0.92383 -3.15966,-0.92383c0,0 8.36954,-0.51195 9.58372,2.09232c-0.43228,0.81749 -0.87475,1.62854 -1.32532,2.42569z" fill="#6e5c5a" stroke="none" stroke-width="0" stroke-linecap="butt"/><path d="M232.02333,137.99122c7.01027,-2.05362 7.22468,-7.4844 9.95727,-6.39639c1.05907,0.42168 0.47285,5.48722 1.02349,10.09619c0.10343,0.86578 4.4586,-0.74238 4.4586,-0.74238c0,0 2.02242,9.00428 -1.75242,9.14914c-11.95435,0.45875 -15.18966,-11.66634 -13.68693,-12.10656z" fill="#7b6765" stroke="none" stroke-width="0" stroke-linecap="butt"/><path d="M226.91434,150.07875c-2.14667,-2.14736 -4.91296,-7.92045 -4.91296,-7.92045c0,0 5.14209,2.60436 7.77902,2.78927c1.01871,0.07144 1.66866,9.66735 -2.86606,5.13119z" fill="#7b6765" stroke="none" stroke-width="0" stroke-linecap="butt"/><path d="M253.32043,102.43904c-5.03249,0.4274 -9.08188,4.75941 -9.08188,4.75941c0,0 -0.22665,-0.70953 -0.29652,-1.0615c-0.84636,-4.26396 -0.51099,-4.58025 -0.51099,-5.09194c0,-1.41317 5.54787,-5.41133 10.40022,-5.3974c4.78074,0.01372 8.11037,0.50638 10.42372,1.20731c-0.07344,1.66865 -0.11755,3.33806 -0.19039,5.00569c-3.06205,0.12449 -7.02327,0.26243 -10.74417,0.57843z" fill="#8d6e47" stroke="none" stroke-width="0" stroke-linecap="butt"/><g stroke-opacity="0.48387" stroke="#000000" stroke-width="5.5"><path d="M226.86434,111.03245l-2.33783,-5.61078" fill="none" stroke-linecap="round"/><path d="M226.20053,105.64989c0,0.84095 -0.68172,1.52267 -1.52267,1.52267c-0.84095,0 -1.52267,-0.68172 -1.52267,-1.52267c0,-0.84095 0.68172,-1.52267 1.52267,-1.52267c0.84095,0 1.52267,0.68172 1.52267,1.52267z" fill="#a79262" stroke-linecap="butt"/></g><g stroke-opacity="0.48387" stroke="#000000" stroke-width="5.5"><path d="M222.51521,125.32574l-6.04601,-0.62606" fill="none" stroke-linecap="round"/><path d="M217.46929,123.33798c0.73882,0.40167 1.01213,1.32622 0.61046,2.06504c-0.40168,0.73882 -1.32623,1.01212 -2.06505,0.61044c-0.73882,-0.40167 -1.01212,-1.32622 -0.61044,-2.06504c0.40168,-0.73882 1.32622,-1.01212 2.06504,-0.61045z" fill="#a79262" stroke-linecap="butt"/></g><g stroke-opacity="0.48387" stroke="#000000" stroke-width="5.5"><path d="M222.31581,114.44288l-4.87038,-3.6367" fill="none" stroke-linecap="round"/><path d="M219.00214,110.14961c0.42848,0.72361 0.18923,1.65755 -0.53437,2.08603c-0.7236,0.42848 -1.65754,0.18922 -2.08603,-0.53439c-0.42848,-0.72361 -0.18922,-1.65753 0.53438,-2.08601c0.7236,-0.42848 1.65754,-0.18924 2.08602,0.53437z" fill="#a79262" stroke-linecap="butt"/></g><g stroke-opacity="0.48387" stroke="#000000" stroke-width="5.5"><path d="M235.26392,120.74424l-4.45313,-4.13714" fill="none" stroke-linecap="round"/><path d="M233.64587,121.2304c-0.34856,-0.76531 -0.01071,-1.66828 0.7546,-2.01684c0.76531,-0.34856 1.66828,-0.01072 2.01684,0.75459c0.34856,0.76531 0.01071,1.66828 -0.7546,2.01684c-0.76531,0.34856 -1.66828,0.01072 -2.01684,-0.75459z" fill="#a79262" stroke-linecap="butt"/></g><g stroke-opacity="0.48387" stroke="#000000" stroke-width="5.5"><path d="M234.06579,126.19956l-6.06693,-0.37231" fill="none" stroke-linecap="round"/><path d="M233.1236,127.60196c-0.75499,-0.37038 -1.06678,-1.28267 -0.6964,-2.03766c0.37038,-0.75499 1.28268,-1.06678 2.03767,-0.6964c0.75499,0.37038 1.06678,1.28268 0.69639,2.03767c-0.37038,0.75499 -1.28268,1.06677 -2.03767,0.69639z" fill="#a79262" stroke-linecap="butt"/></g><path d="M248.35095,125.095c0,0.71298 -5.38835,0.32008 -5.38835,-0.3929c0,-0.71298 -0.09473,-5.61286 0.75774,-5.61286c0.41055,0 0.60164,1.73278 1.62052,3.08521c1.09672,1.45575 3.0101,2.55095 3.0101,2.92056z" fill="#8d6e47" stroke="none" stroke-width="0" stroke-linecap="butt"/><g><path d="M226.86434,111.03245l-2.33783,-5.61078" fill="none" stroke="#8d6e47" stroke-width="4.5" stroke-linecap="round"/><path d="M226.20053,105.64989c0,0.84095 -0.68172,1.52267 -1.52267,1.52267c-0.84095,0 -1.52267,-0.68172 -1.52267,-1.52267c0,-0.84095 0.68172,-1.52267 1.52267,-1.52267c0.84095,0 1.52267,0.68172 1.52267,1.52267z" fill="#a79262" stroke="none" stroke-width="0" stroke-linecap="butt"/></g><g><path d="M222.51521,125.32574l-6.04601,-0.62606" fill="none" stroke="#8d6e47" stroke-width="4.5" stroke-linecap="round"/><path d="M217.46929,123.33798c0.73882,0.40167 1.01213,1.32622 0.61046,2.06504c-0.40168,0.73882 -1.32623,1.01212 -2.06505,0.61044c-0.73882,-0.40167 -1.01212,-1.32622 -0.61044,-2.06504c0.40168,-0.73882 1.32622,-1.01212 2.06504,-0.61045z" fill="#a79262" stroke="none" stroke-width="0" stroke-linecap="butt"/></g><g><path d="M222.31581,114.44288l-4.87038,-3.6367" fill="none" stroke="#8d6e47" stroke-width="4.5" stroke-linecap="round"/><path d="M219.00214,110.14961c0.42848,0.72361 0.18923,1.65755 -0.53437,2.08603c-0.7236,0.42848 -1.65754,0.18922 -2.08603,-0.53439c-0.42848,-0.72361 -0.18922,-1.65753 0.53438,-2.08601c0.7236,-0.42848 1.65754,-0.18924 2.08602,0.53437z" fill="#a79262" stroke="none" stroke-width="0" stroke-linecap="butt"/></g><g><path d="M235.26392,120.74424l-4.45313,-4.13714" fill="none" stroke="#8d6e47" stroke-width="4.5" stroke-linecap="round"/><path d="M233.64587,121.2304c-0.34856,-0.76531 -0.01071,-1.66828 0.7546,-2.01684c0.76531,-0.34856 1.66828,-0.01072 2.01684,0.75459c0.34856,0.76531 0.01071,1.66828 -0.7546,2.01684c-0.76531,0.34856 -1.66828,0.01072 -2.01684,-0.75459z" fill="#a79262" stroke="none" stroke-width="0" stroke-linecap="butt"/></g><g><path d="M234.06579,126.19956l-6.06693,-0.37231" fill="none" stroke="#8d6e47" stroke-width="4.5" stroke-linecap="round"/><path d="M233.1236,127.60196c-0.75499,-0.37038 -1.06678,-1.28267 -0.6964,-2.03766c0.37038,-0.75499 1.28268,-1.06678 2.03767,-0.6964c0.75499,0.37038 1.06678,1.28268 0.69639,2.03767c-0.37038,0.75499 -1.28268,1.06677 -2.03767,0.69639z" fill="#a79262" stroke="none" stroke-width="0" stroke-linecap="butt"/></g><path d="M265.61661,130.85142c0,1.58148 -2.87388,9.49912 -6.8711,17.55945c-2.17591,-4.59856 -4.45125,-9.15038 -6.74218,-13.67035c-1.25007,-2.46636 -1.17958,-6.89471 0.20439,-6.72974c6.36324,0.7585 13.40888,1.05804 13.40888,2.84065z" fill="#6e5c5a" stroke="none" stroke-width="0" stroke-linecap="butt"/><path d="M269.41931,101.33865c0,0.19755 -1.09761,0.31244 -2.85384,0.40807c0.05447,-1.29697 0.09454,-2.5948 0.14657,-3.89254c2.32367,1.26974 2.70727,2.75419 2.70727,3.48447z" fill="#8d6e47" stroke="none" stroke-width="0" stroke-linecap="butt"/><path d="M264.82165,123.05535c1.09221,-1.29393 1.37896,-3.01347 1.78888,-2.99074c0.85116,0.04721 0.48523,4.93434 0.44574,5.64622c-0.03949,0.71188 -5.44132,0.80578 -5.40184,0.0939c0.02047,-0.36904 1.99156,-1.3566 3.16721,-2.74938z" data-paper-data="{&quot;index&quot;:null}" fill="#8d6e47" stroke="none" stroke-width="0" stroke-linecap="butt"/><g fill="#8d6e47" stroke="none" stroke-width="0" stroke-linecap="butt"><path d="M257.93901,119.69542c0,1.31168 -1.12978,2.375 -2.52344,2.375c-1.39366,0 -2.52344,-1.06332 -2.52344,-2.375c0,-1.31168 1.12978,-2.375 2.52344,-2.375c1.39366,0 2.52344,1.06332 2.52344,2.375z"/><path d="M253.5601,116.56842l-0.89063,-8.16406h5.34375l-0.96485,8.16406z"/></g></g></g></svg>