<svg version="1.1" xmlns="http://www.w3.org/2000/svg" xmlns:xlink="http://www.w3.org/1999/xlink" width="94.95276" height="248.39366" viewBox="0,0,94.95276,248.39366"><g transform="translate(-192.97531,-55.47378)"><g data-paper-data="{&quot;isPaintingLayer&quot;:true}" fill-rule="nonzero" stroke-linejoin="miter" stroke-miterlimit="10" stroke-dasharray="" stroke-dashoffset="0" style="mix-blend-mode: normal"><g stroke="none" stroke-linecap="butt"><g fill="#000000"><path d="M200.58117,185.96091c0,-21.10292 18.15751,-38.21022 40.55593,-38.21022c22.39843,0 40.82079,17.1073 40.82079,38.21022c0,2.70002 0.0039,117.77204 0.0039,117.77204l-11.39983,-0.12964l-0.14337,-113.82486c0,0 0.46851,-2.08621 -1.77595,-2.22047c-2.48625,-0.14872 -2.11767,1.68282 -2.11767,1.68282l0.10343,114.38802l-50.32146,0.07847l0.10485,-114.20488c0,0 -0.19035,-2.13951 -1.8053,-2.16297c-2.01199,-0.02922 -1.98832,2.04221 -1.98832,2.04221l-0.29988,114.25674l-11.38239,0.22905c0,0 -0.35473,-116.42094 -0.35473,-117.90653z" stroke-width="0"/><g><path d="M230.02071,204.89618c-5.66213,0 -7.34973,-0.4705 -7.34973,-0.4705l-0.08286,-1.2733c0,0 5.25623,0.13066 7.69744,0.13066c4.20542,0 7.61458,-1.35635 7.61458,-0.87378c0,0.48257 -1.95246,2.48691 -7.87944,2.48691z" stroke-width="0"/><path d="M225.51815,199.65351c0,-0.55682 0.44467,-1.00821 0.99321,-1.00821c0.54854,0 0.99321,0.45139 0.99321,1.00821c0,0.55682 -0.44467,1.00821 -0.99321,1.00821c-0.54854,0 -0.99321,-0.45139 -0.99321,-1.00821z" stroke-width="0.5"/></g><g data-paper-data="{&quot;index&quot;:null}"><path d="M244.83592,202.40927c0,-0.48257 3.40916,0.87378 7.61458,0.87378c2.44121,0 7.69744,-0.13066 7.69744,-0.13066l-0.08286,1.2733c0,0 -1.6876,0.4705 -7.34973,0.4705c-5.92698,0 -7.87944,-2.00433 -7.87944,-2.48691z" stroke-width="0"/><path d="M256.2247,200.66171c-0.54853,0 -0.99321,-0.45139 -0.99321,-1.00821c0,-0.55682 0.44467,-1.00821 0.99321,-1.00821c0.54853,0 0.99321,0.45139 0.99321,1.00821c0,0.55682 -0.44467,1.00821 -0.99321,1.00821z" stroke-width="0.5"/></g><path d="M240.38316,253.12205c0,-0.55681 0.44467,-1.00821 0.99321,-1.00821c0.54854,0 0.99321,0.45139 0.99321,1.00821c0,0.55681 -0.44467,1.00821 -0.99321,1.00821c-0.54854,0 -0.99321,-0.45139 -0.99321,-1.00821z" stroke-width="0.5"/></g><path d="M196.59874,235.55688c0,0 -2.35107,-13.38551 -1.57766,-24.0966c0.61532,-8.52171 4.69129,-14.76869 4.69129,-14.76869l0.26173,-17.28357h18.16266v69.16812c0,0 -3.01676,-11.93891 -9.71627,-14.77537c-6.86434,-2.90625 -11.82175,1.75612 -11.82175,1.75612z" fill="#571c18" stroke-width="0"/><path d="M209.91037,273.21271c0,0 5.87707,-23.72058 5.86482,-43.63613c-0.01057,-17.17295 21.84139,0 21.84139,0c0,0 13.88968,28.20263 4.0447,41.28799c-8.75629,11.63834 -31.75091,2.34813 -31.75091,2.34813z" fill="#773128" stroke-width="0"/><g stroke-width="0"><path d="M286.19426,235.55689c0,0 -4.95741,-4.66237 -11.82175,-1.75612c-6.69951,2.83646 -9.71627,14.77537 -9.71627,14.77537v-69.16812h18.16266l0.26173,17.28357c0,0 4.07597,6.24698 4.69129,14.76869c0.77341,10.71109 -1.57766,24.0966 -1.57766,24.0966z" data-paper-data="{&quot;index&quot;:null}" fill="#571c18"/><path d="M272.88263,273.2127c0,0 -22.99462,9.29021 -31.75091,-2.34813c-9.84498,-13.08536 4.0447,-41.28799 4.0447,-41.28799c0,0 21.85196,-17.17295 21.84139,0c-0.01225,19.91555 5.86482,43.63613 5.86482,43.63613z" data-paper-data="{&quot;index&quot;:null}" fill="#773128"/><path d="M268.15417,236.83429c-4.84727,11.68145 -26.86854,11.69682 -26.86854,11.69682v-64.17975h28.05293c0,0 3.66287,40.80148 -1.1844,52.48293z" data-paper-data="{&quot;index&quot;:null}" fill="#8d6e47"/><path d="M247.72706,244.80397c-3.34703,0.05987 -0.39404,-5.20108 2.32936,-11.57957c4.67126,1.50913 9.30938,3.09321 13.95624,4.65355c-3.58916,5.30093 -8.05004,6.77868 -16.28559,6.92601z" data-paper-data="{&quot;index&quot;:null}" fill="#a79262"/><path d="M246.98713,215.13289c2.15698,0 5.237,4.4976 4.61566,7.98864c-0.30065,1.68924 -4.58899,13.66945 -5.85834,16.68738c-0.83627,1.98827 -0.9143,-24.67602 1.24268,-24.67602z" data-paper-data="{&quot;index&quot;:null}" fill="#a79262"/><path d="M245.63613,201.71437c0,-0.81727 4.01514,-0.60307 7.53963,-2.49753c2.69465,-1.44841 5.5368,-3.42368 7.89788,-5.07839c2.12137,2.22894 4.21433,4.48516 6.31639,6.73272c0.07714,2.75616 0.11672,5.84153 0.14377,8.9201c0.08441,9.60637 -1.65838,23.97901 -1.65838,25.0467c0,2.11034 -11.58569,-3.53807 -13.65695,-3.53807c-1.02564,0 0.88088,-1.07833 1.53518,-9.29082c0.25791,-3.23708 -4.83278,-7.47451 -6.43172,-9.80894c-2.53664,-3.70346 -1.6858,-9.8323 -1.6858,-10.48576z" data-paper-data="{&quot;index&quot;:null}" fill="#a79262"/><path d="M249.29219,273.39457c-0.83081,-0.5337 -1.57632,-1.20412 -2.2409,-1.97323c1.28223,-1.49452 2.54511,-3.00601 3.77727,-4.5448c2.57476,-3.21552 4.74648,-7.3783 7.99583,-9.95008c0,0 0.39408,-0.31526 0.39837,-0.77782c0.06644,-0.10541 0.11374,-0.22409 0.13702,-0.35116c0.66291,0.25894 1.34132,0.50768 2.02856,0.75863c1.58047,0.57711 3.1572,1.19626 4.74104,1.80184c0.07205,0.3595 0.15012,0.71577 0.23511,1.06677c1.32769,5.48344 4.44106,9.60776 4.44106,11.00248c0,2.82242 -17.14919,5.77085 -21.51335,2.96736z" data-paper-data="{&quot;index&quot;:null}" fill="#894939"/><path d="M264.51311,255.02109c-1.22903,-0.47797 -2.45351,-0.95578 -3.67785,-1.40392c-2.66614,-0.97588 -5.29528,-1.8494 -7.19774,-3.68492c4.9688,-1.92094 7.22841,-4.13802 9.09118,-4.13802c1.1704,0 1.13004,4.52906 1.78441,9.22686z" data-paper-data="{&quot;index&quot;:null}" fill="#894939"/><path d="M261.10231,258.59058c1.20903,-0.58585 7.50051,9.46706 7.50051,10.64261c0,0.79965 -6.71626,2.67368 -11.95582,2.80746c-2.46303,0.06289 -5.94206,-1.04838 -5.78187,-1.38844c1.31766,-2.79729 9.40048,-11.6562 10.23718,-12.06163z" data-paper-data="{&quot;index&quot;:null}" fill="#9d624e"/><path d="M272.21726,210.26698c1.13319,-2.01257 2.2562,-4.03074 3.35602,-6.06167c1.48325,-2.739 3.35499,-5.5633 4.02954,-8.6431c1.4264,0.23937 5.46021,5.47063 5.86677,14.89835c0.37661,8.73319 -0.46101,20.35509 -0.46101,20.35509c0,0 -4.53001,-1.46114 -7.35438,-1.46114c-2.14148,0 -4.64751,-4.24662 -5.43695,-19.08752z" data-paper-data="{&quot;index&quot;:null}" fill="#773128"/><path d="M277.42784,192.65759c-0.56089,2.92675 -2.48543,5.68284 -3.87414,8.24731c-0.57893,1.06909 -1.16431,2.13463 -1.75422,3.19767c-0.11845,-3.9491 -0.13018,-8.52703 -0.00718,-13.81927c0.05124,-2.20475 3.0098,1.02285 5.63554,2.37429z" data-paper-data="{&quot;index&quot;:null}" fill="#773128"/></g><path d="M214.63884,236.83429c-4.84727,-11.68145 -1.1844,-52.48293 -1.1844,-52.48293h28.05293v64.17975c0,0 -22.02127,-0.01537 -26.86854,-11.69682z" fill="#8d6e47" stroke-width="0"/><g stroke-width="0"><g><g><g fill="#773128"><path d="M199.39494,194.36795c0,0 -1.02653,-12.52462 0.90011,-20.16143c2.40945,-9.55053 7.94464,-17.42454 19.13366,-25.01012c11.18902,-7.58558 22.9091,-3.49273 22.9091,-3.49273v51.66465l-8.98371,-0.15668c0,0 -6.15417,-5.37054 -13.50513,-7.65692c-12.98168,-4.0377 -20.45403,4.81322 -20.45403,4.81322z"/><path d="M263.15384,189.55473c-7.35097,2.28638 -13.50513,7.65692 -13.50513,7.65692l-8.98371,0.15668v-51.66465c0,0 11.72009,-4.09285 22.9091,3.49273c11.18901,7.58558 16.72421,15.45959 19.13366,25.01012c1.92665,7.63681 0.90011,20.16143 0.90011,20.16143c0,0 -7.47235,-8.85092 -20.45403,-4.81322z" data-paper-data="{&quot;index&quot;:null}"/></g><g fill="#894939"><path d="M220.4932,152.66503c10.6494,-6.37798 21.80427,-2.9367 21.80427,-2.9367v43.43978l-8.55046,-0.13173c0,0 -5.85737,-4.51556 -12.85382,-6.43796c-12.35561,-3.39491 -19.46759,4.04697 -19.46759,4.04697c0,0 -0.89771,-9.67579 0.64289,-16.13315c0.24818,0.01845 0.49888,0.02783 0.75177,0.02783c5.52285,0 10,-4.47715 10,-10c0,-1.90563 -0.53303,-3.68677 -1.45814,-5.20245c2.47893,-2.28362 5.49058,-4.49228 9.13108,-6.67259z"/><path d="M262.10961,186.59843c-6.99645,1.92239 -12.85382,6.43796 -12.85382,6.43796l-8.55046,0.13173v-43.43978c0,0 11.15487,-3.44128 21.80427,2.9367c1.9686,1.179 3.75331,2.36629 5.36935,3.56924c-3.68416,1.47431 -6.28658,5.07716 -6.28658,9.28783c0,5.52285 4.47715,10 10,10c3.44185,0 6.47757,-1.73884 8.27662,-4.38597c0.32067,0.83699 0.60349,1.68899 0.85152,2.55749c1.83373,6.42105 0.8567,16.95178 0.8567,16.95178c0,0 -7.11198,-7.44188 -19.46759,-4.04697z" data-paper-data="{&quot;index&quot;:null}"/></g><path d="M201.01719,184.21152c15.25099,-6.42474 25.31538,-0.16259 25.31538,-0.16259c0,0 -8.46872,-1.29478 -12.55891,-0.32156c-8.04823,1.91499 -13.0473,5.84744 -13.0473,5.84744c0,0 -1.03985,-4.80272 0.29083,-5.36329z" fill="#773128"/></g><path d="M283.06455,189.57482c0,0 -4.99907,-3.93246 -13.0473,-5.84744c-4.09019,-0.97322 -12.5589,0.32156 -12.5589,0.32156c0,0 10.06438,-6.26214 25.31537,0.16259c1.33068,0.56057 0.29083,5.36329 0.29083,5.36329z" data-paper-data="{&quot;index&quot;:null}" fill="#773128"/></g><g fill="#000000"><path d="M203.51246,186.55088c0,0 -0.92615,-9.10155 0.81209,-14.65116c2.17383,-6.9403 7.16775,-12.66229 17.26261,-18.17467c10.09486,-5.51239 20.66886,-2.53814 20.66886,-2.53814v37.54433l-8.10521,-0.11385c0,0 -5.55236,-3.90273 -12.18449,-5.56423c-11.71222,-2.93417 -18.45386,3.49773 -18.45386,3.49773z"/><path d="M261.03649,183.05315c-6.63213,1.6615 -12.18449,5.56423 -12.18449,5.56423l-8.10521,0.11385v-37.54433c0,0 10.574,-2.97424 20.66886,2.53814c10.09486,5.51239 15.08878,11.23437 17.26261,18.17467c1.73824,5.54961 0.81209,14.65116 0.81209,14.65116c0,0 -6.74164,-6.4319 -18.45386,-3.49773z" data-paper-data="{&quot;index&quot;:null}"/></g></g><path d="M235.06593,244.80396c-8.23555,-0.14733 -12.69643,-1.62508 -16.28559,-6.92601c4.64686,-1.56034 9.28498,-3.14442 13.95624,-4.65355c2.7234,6.37849 5.67639,11.63944 2.32936,11.57957z" fill="#a79262" stroke-width="0"/><path d="M237.04855,239.80891c-1.26935,-3.01793 -5.55769,-14.99814 -5.85834,-16.68738c-0.62134,-3.49104 2.45868,-7.98864 4.61566,-7.98864c2.15698,0 2.07895,26.66429 1.24268,24.67602z" fill="#a79262" stroke-width="0"/><path d="M237.15687,201.71438c0,0.65346 0.85084,6.7823 -1.6858,10.48576c-1.59894,2.33443 -6.68963,6.57186 -6.43172,9.80894c0.6543,8.21249 2.56082,9.29082 1.53518,9.29082c-2.07126,0 -13.65695,5.64841 -13.65695,3.53807c0,-1.06769 -1.74279,-15.44033 -1.65838,-25.0467c0.02705,-3.07857 0.06663,-6.16394 0.14377,-8.9201c2.10206,-2.24756 4.19502,-4.50378 6.31639,-6.73272c2.36108,1.65471 5.20323,3.62998 7.89788,5.07839c3.52449,1.89446 7.53963,1.68026 7.53963,2.49753z" fill="#a79262" stroke-width="0"/><path d="M216.56377,190.96591c0.504,0 1.7869,0.82853 3.49983,2.01526c-1.52673,1.60815 -3.0395,3.22974 -4.55246,4.85119c0.18261,-4.06589 0.49536,-6.86645 1.05263,-6.86645z" fill="#a79262" stroke-width="0"/><path d="M233.5008,273.39456c-4.36416,2.80349 -21.51335,-0.14494 -21.51335,-2.96736c0,-1.39472 3.11337,-5.51904 4.44106,-11.00248c0.08499,-0.351 0.16306,-0.70727 0.23511,-1.06677c1.58384,-0.60558 3.16057,-1.22473 4.74104,-1.80184c0.68724,-0.25095 1.36565,-0.49969 2.02856,-0.75863c0.02328,0.12707 0.07058,0.24575 0.13702,0.35116c0.00429,0.46256 0.39837,0.77782 0.39837,0.77782c3.24935,2.57178 5.42107,6.73456 7.99583,9.95008c1.23216,1.53879 2.49504,3.05028 3.77727,4.5448c-0.66458,0.76911 -1.41009,1.43953 -2.2409,1.97323z" fill="#894939" stroke-width="0"/><path d="M240.98806,252.03538c2.27134,0.23057 2.2043,10.09853 -1.73336,16.32173c-1.16477,-1.36335 -2.31261,-2.74158 -3.43478,-4.14268c-2.63907,-3.29507 -4.84973,-7.37934 -8.11288,-10.10187c-0.0163,-0.17938 -0.07997,-0.34508 -0.1784,-0.48449c1.81061,-0.83133 3.44134,-1.84274 4.73315,-3.33055c2.34604,0.74235 5.20107,1.38003 8.72626,1.73787z" fill="#894939" stroke-width="0"/><path d="M220.0643,245.79423c1.86277,0 4.12238,2.21708 9.09118,4.13802c-1.90246,1.83552 -4.5316,2.70904 -7.19774,3.68492c-1.22434,0.44814 -2.44882,0.92595 -3.67785,1.40392c0.65437,-4.6978 0.61401,-9.22686 1.78441,-9.22686z" fill="#894939" stroke-width="0"/><path d="M231.92787,270.6522c0.16019,0.34006 -3.31884,1.45133 -5.78187,1.38844c-5.23956,-0.13378 -11.95582,-2.00781 -11.95582,-2.80746c0,-1.17555 6.29148,-11.22846 7.50051,-10.64261c0.8367,0.40543 8.91952,9.26434 10.23718,12.06163z" fill="#9d624e" stroke-width="0"/><path d="M205.13879,229.3545c-2.82436,0 -7.35438,1.46114 -7.35438,1.46114c0,0 -0.83762,-11.62189 -0.46101,-20.35509c0.40656,-9.42772 4.44037,-14.65897 5.86677,-14.89835c0.67455,3.0798 2.54629,5.9041 4.02955,8.6431c1.09982,2.03093 2.22283,4.04909 3.35601,6.06167c-0.78944,14.8409 -3.29548,19.08753 -5.43695,19.08753z" fill="#773128" stroke-width="0"/><path d="M211.0007,190.2833c0.12301,5.29225 0.11127,9.87017 -0.00718,13.81927c-0.58991,-1.06304 -1.17529,-2.12859 -1.75422,-3.19767c-1.38871,-2.56447 -3.31325,-5.32056 -3.87414,-8.24731c2.62574,-1.35144 5.5843,-4.57903 5.63554,-2.37429z" fill="#773128" stroke-width="0"/><path d="M267.53337,197.83236c-1.51296,-1.62145 -3.02573,-3.24304 -4.55246,-4.85119c1.71293,-1.18673 2.99583,-2.01526 3.49983,-2.01526c0.55727,0 0.87002,2.80056 1.05263,6.86645z" data-paper-data="{&quot;index&quot;:null}" fill="#a79262" stroke-width="0"/></g><g stroke="none" stroke-linecap="butt"><path d="M249.40682,142.68965c2.14614,0.63336 4.57,2.14674 7.10189,3.18958c3.1668,1.30434 5.91835,2.72636 5.91835,2.98404c0,0.09852 0.6422,0.57742 0.34258,1.11686c-1.789,3.22099 -9.63005,12.83494 -20.94009,13.0257c-12.59325,-0.3248 -20.68677,-10.85655 -23.27914,-15.25835c-0.66575,-1.13043 -0.11257,-1.97072 -0.18768,-1.99564c-0.32963,-0.10935 2.17574,-0.56882 4.39722,-1.19556c1.32363,-0.37344 6.02869,-2.52762 9.16564,-2.62169c0,0 6.11008,0.84857 11.13979,1.05021c0,0 4.30069,-0.8974 6.34144,-0.29515z" fill="#000000" stroke-width="NaN"/><path d="M222.92492,145.9118c0,0 4.45428,-1.58314 9.14685,-1.84617c3.5353,-0.19816 8.14505,1.24124 10.14351,1.24124c1.78589,0 3.62586,-1.29154 6.32678,-0.57417c4.23256,1.12417 8.12418,3.53158 8.12418,3.53158c0,0 -3.47556,-0.50449 -6.7587,-0.10932c-2.77486,0.33399 -5.25973,0.85453 -6.95291,0.86581c-2.06827,0.01378 -6.82484,-0.83276 -11.18375,-1.76195c-4.64917,-0.99105 -8.84595,-1.34702 -8.84595,-1.34702z" fill="#ffffff" stroke-width="0"/><path d="M233.93278,149.67147c5.82065,1.20577 8.52116,2.22429 8.52116,2.22429c0,0 2.73973,-0.85807 10.10428,-1.81233c3.83362,-0.49674 8.34249,0.13003 8.34249,0.13003c0,0 -1.67172,2.4939 -5.81691,5.31831c-3.13971,2.13931 -7.86424,4.77611 -13.40623,4.89818c-13.03253,0.28708 -21.37398,-13.37554 -21.37398,-13.37554c0,0 7.27229,1.30021 13.62919,2.61706z" fill="#ffffff" stroke-width="0"/></g><g stroke="none" stroke-linecap="butt"><path d="M249.40682,142.68965c2.14614,0.63336 4.57,2.14674 7.10189,3.18958c3.1668,1.30434 5.91835,2.72636 5.91835,2.98404c0,0.09852 0.6422,0.57742 0.34258,1.11686c-1.789,3.22099 -9.63005,12.83494 -20.94009,13.0257c-12.59325,-0.3248 -20.68677,-10.85655 -23.27914,-15.25835c-0.66575,-1.13043 -0.11257,-1.97072 -0.18768,-1.99564c-0.32963,-0.10935 2.17574,-0.56882 4.39722,-1.19556c1.32363,-0.37344 6.02869,-2.52762 9.16564,-2.62169c0,0 6.11008,0.84857 11.13979,1.05021c0,0 4.30069,-0.8974 6.34144,-0.29515z" fill="#000000" stroke-width="NaN"/><path d="M222.92492,145.9118c0,0 4.45428,-1.58314 9.14685,-1.84617c3.5353,-0.19816 8.14505,1.24124 10.14351,1.24124c1.78589,0 3.62586,-1.29154 6.32678,-0.57417c4.23256,1.12417 8.12418,3.53158 8.12418,3.53158c0,0 -3.47556,-0.50449 -6.7587,-0.10932c-2.77486,0.33399 -5.25973,0.85453 -6.95291,0.86581c-2.06827,0.01378 -6.82484,-0.83276 -11.18375,-1.76195c-4.64917,-0.99105 -8.84595,-1.34702 -8.84595,-1.34702z" fill="#ffffff" stroke-width="0"/><path d="M233.93278,149.67147c5.82065,1.20577 8.52116,2.22429 8.52116,2.22429c0,0 2.73973,-0.85807 10.10428,-1.81233c3.83362,-0.49674 8.34249,0.13003 8.34249,0.13003c0,0 -1.67172,2.4939 -5.81691,5.31831c-3.13971,2.13931 -7.86424,4.77611 -13.40623,4.89818c-13.03253,0.28708 -21.37398,-13.37554 -21.37398,-13.37554c0,0 7.27229,1.30021 13.62919,2.61706z" fill="#ffffff" stroke-width="0"/></g><g><path d="M193.38453,125.06047c0,0 4.75839,-5.12941 6.10536,-8.45329c2.88904,-7.12918 2.85124,-13.03672 2.85124,-13.03672c0,0 -1.85997,0.61665 -2.84266,0.69861c-1.61013,0.13429 -2.80363,-0.26204 -2.80363,-0.26204l6.42399,-6.92498c0,0 0.2475,-17.60523 8.9764,-29.16254c6.74693,-8.93313 20.64648,-12.51508 30.3551,-12.44472c8.42215,0.06104 22.55613,3.08573 28.68941,10.58184c10.08388,12.32455 6.38707,19.81995 10.11,32.42062c3.72078,12.59341 5.77495,16.18431 5.77495,16.18431c0,0 -1.64899,-0.1627 -2.4478,-0.70191c-3.35821,-2.26684 -4.77049,-4.144 -4.77049,-4.144c0,0 2.51404,9.65365 0.49901,21.29599c-1.43966,8.31802 -7.42166,16.10527 -7.42166,16.10527l-1.17358,-2.98711c0,0 -0.27736,1.51046 -1.52332,3.13635c-1.38133,1.80253 -3.94985,3.49671 -3.94985,3.49671l0.00318,-3.58884c0,0 -4.58502,5.92133 -10.91754,9.01637c-6.10567,2.98416 -11.80358,2.51788 -14.49123,2.46803c-14.12802,-0.26204 -24.08852,-10.83115 -24.08852,-10.83115l-1.5995,1.70352c0,0 -3.09691,-2.20769 -5.16904,-7.29265c-3.07463,-7.54506 -3.82841,-13.97384 -3.82841,-13.97384c0,0 -3.51398,2.22964 -6.51964,2.91866c-3.62077,0.83002 -6.65099,0.20519 -6.65099,0.20519c0,0 3.61051,-2.54967 5.08456,-3.95508c1.38725,-1.32265 3.51514,-4.24416 3.51514,-4.24416c0,0 -3.21775,1.31904 -4.68875,1.66038c-2.24208,0.52027 -3.5017,0.11114 -3.5017,0.11114z" fill="#000000" stroke="none" stroke-width="NaN" stroke-linecap="butt"/><g><path d="M210.47873,105.78977c0.96521,-0.18364 5.78639,4.94033 6.72949,9.89722c0.94309,4.95689 -0.15061,10.72809 -0.15061,10.72809c0,0 -6.46652,-3.53164 -7.66724,-8.4325c-3.07712,-12.5596 0.12316,-12.00917 1.08836,-12.19281z" fill="#000000" stroke="none" stroke-width="0" stroke-linecap="butt"/><path d="M214.77995,121.51428c0,0 -3.02608,-5.45514 -3.46106,-7.54108c-0.69361,-3.32613 1.47037,-3.38348 1.47037,-3.38348" fill="none" stroke="#000000" stroke-width="0.5" stroke-linecap="round"/></g><path d="M274.23604,117.85687c-1.20072,4.90086 -7.66724,8.4325 -7.66724,8.4325c0,0 -1.0937,-5.77121 -0.15061,-10.7281c0.9431,-4.95689 5.76428,-10.08085 6.72949,-9.89722c0.96521,0.18363 4.16548,-0.36679 1.08836,12.19281z" fill="#000000" stroke="none" stroke-width="0" stroke-linecap="butt"/><path d="M217.45332,142.84422c-1.12791,-6.71582 -0.20637,-6.94188 -1.0642,-13.44379c-0.47362,-3.58977 -2.15797,-7.18909 -2.73202,-11.13223c-1.20896,-8.30433 -1.27196,-25.65977 -0.47554,-29.40025c4.41933,-20.75585 15.3863,-24.96608 29.85603,-25.48425c20.77576,-0.74399 24.79696,12.48506 27.42961,23.79025c1.84023,7.90235 1.22737,18.92724 -0.34916,28.57116c-0.96559,5.90663 -2.47529,10.80823 -3.46814,15.58687c-1.22544,5.89815 -0.7524,7.76045 -1.86263,12.66938c-1.15349,5.10023 -6.83176,10.81045 -11.83191,15.83737c-4.57165,4.59612 -7.90818,8.33063 -12.38271,8.22359c-5.04445,-0.12068 -8.96195,-6.22631 -14.50155,-12.44391c-4.38889,-4.92605 -8.03319,-9.29321 -8.61781,-12.77419z" fill="#000000" stroke="none" stroke-width="0" stroke-linecap="butt"/><path d="M217.25873,124.02267c-0.94553,-5.09249 -3.54204,-4.25562 -2.79146,-22.70284c0.17974,-4.41744 0.59303,-8.68602 1.22734,-12.35129c10.05536,-1.90335 18.91023,-6.38555 28.71246,-9.40163c0,0 0.22103,-0.068 0.4178,-0.2449c5.45792,4.12177 10.91532,7.6928 14.74209,13.70224c1.45369,2.28284 3.20934,4.69288 3.22833,7.48137c0.65717,2.02021 0.38079,3.91473 0.91625,5.91825c0.7575,2.83429 1.53538,5.81765 1.75974,8.76203c0.19847,2.60461 0.1193,6.11278 1.22321,8.44598c0,0 0.02851,0.05702 0.08554,0.13508c-0.42556,1.35564 -0.84465,2.67828 -1.15084,3.92676c-1.44491,5.89168 -1.386,9.63665 -2.01514,12.75206c-1.44877,7.17412 -1.89749,7.23551 -4.27323,10.21882c-2.5746,3.23301 -6.22007,6.15229 -9.11253,8.91074c-2.62204,2.50056 -5.47801,6.21315 -8.77908,6.21315c-4.10432,0 -6.9048,-3.78999 -10.07829,-7.4154c-4.79276,-5.47527 -11.46201,-7.91572 -13.04194,-17.80658c-0.63652,-3.98482 0.06119,-10.45004 -1.07025,-16.54383z" fill="#ffffff" stroke="none" stroke-width="0" stroke-linecap="butt"/><path d="M227.81404,106.647c5.64136,0 10.21459,4.47197 10.21459,9.98843c0,5.51646 -4.7706,9.74171 -10.41197,9.74171c-5.64137,0 -10.31875,-4.22525 -10.31875,-9.74171c0,-5.51645 4.87476,-9.98843 10.51613,-9.98843z" fill-opacity="0.45968" fill="#000000" stroke="none" stroke-width="0" stroke-linecap="butt"/><path d="M254.37398,106.67162c5.64136,0 10.21459,4.47198 10.21459,9.98844c0,5.51645 -4.72127,9.64301 -10.36263,9.64301c-3.16285,0 -6.23667,-1.06026 -8.11031,-3.26759c-1.46826,-1.72975 -1.95625,-3.95178 -1.95625,-6.37542c0,-5.51646 4.57322,-9.98844 10.21459,-9.98844z" fill-opacity="0.45968" fill="#000000" stroke="none" stroke-width="0" stroke-linecap="butt"/><g stroke="none" stroke-width="0" stroke-linecap="butt"><path d="M228.24267,104.93247c5.64136,0 10.21459,4.47197 10.21459,9.98843c0,5.51646 -4.7706,9.74171 -10.41197,9.74171c-5.64137,0 -10.31875,-4.22525 -10.31875,-9.74171c0,-5.51645 4.87476,-9.98843 10.51613,-9.98843z" fill="#000000"/><path d="M228.24267,105.18684c4.97522,0 8.78866,3.85659 8.78866,8.8032c0,4.94661 -4.01083,9.08774 -8.98605,9.08774c-4.97523,0 -8.81106,-3.98769 -8.81106,-8.9343c0,-4.94662 4.03322,-8.95664 9.00844,-8.95664z" fill="#ffffff"/></g><g stroke="none" stroke-width="0" stroke-linecap="butt"><path d="M254.80261,104.95709c5.64136,0 10.21459,4.47198 10.21459,9.98844c0,5.51645 -4.72127,9.64301 -10.36263,9.64301c-3.16285,0 -6.23667,-1.06026 -8.11031,-3.26759c-1.46826,-1.72975 -1.95625,-3.95178 -1.95625,-6.37542c0,-5.51646 4.57322,-9.98844 10.21459,-9.98844z" fill="#000000"/><path d="M254.80261,105.21147c4.97523,0 8.70691,4.08541 8.70691,9.03202c0,4.94661 -3.87973,8.68387 -8.85495,8.68387c-4.97523,0 -8.8604,-3.81265 -8.8604,-8.75926c0,-4.94661 4.03322,-8.95663 9.00844,-8.95663z" fill="#ffffff"/></g><path d="M213.28835,108.2637l0.13102,-1.63769l7.19167,-1.18423l0.32653,-1.46623c0,0 3.68245,-1.72538 7.2562,-2.03587c3.72054,-0.32324 9.00496,-0.09575 9.00496,-0.09575l0.32754,4.71657c0,0 -4.80797,-1.2906 -8.17678,-1.07798c-6.17314,0.38961 -6.13035,1.25866 -10.09703,1.94554c-3.96668,0.68688 -5.96411,0.83565 -5.96411,0.83565z" fill="#000000" stroke="none" stroke-width="0" stroke-linecap="butt"/><path d="M257.42139,101.94518c-6.5361,-0.02665 -11.93017,2.50832 -11.93017,2.50832l-0.26203,-4.42239c0,0 5.28442,-1.73418 9.39801,-1.86949c4.11358,-0.13531 7.12519,0.66021 7.12519,0.66021l0.19551,1.20419l7.3882,2.16685l0.13101,1.6377c0,0 -5.86035,-1.86016 -12.04572,-1.88538z" data-paper-data="{&quot;index&quot;:null}" fill="#000000" stroke="none" stroke-width="0" stroke-linecap="butt"/><path d="M254.87161,110.19169c2.71342,0 4.91309,2.23006 4.91309,4.98098c0,2.75092 -2.19966,4.98098 -4.91309,4.98098c-2.71342,0 -4.91309,-2.23006 -4.91309,-4.98098c0,-2.75091 2.19966,-4.98098 4.91309,-4.98098z" fill="#000000" stroke="none" stroke-width="0" stroke-linecap="butt"/><g stroke="none" stroke-width="0" stroke-linecap="butt"><path d="M238.90957,136.14159c0,0 -0.06312,-8.68679 -0.28083,-12.38791c-0.17487,-2.97289 -0.92532,-8.11666 -0.92532,-8.11666c0,0 -0.33218,-1.57308 0.02454,-1.56279c1.13657,0.03279 7.81544,1.78895 7.81544,1.78895l-0.37692,20.27841c0,0 0.82184,1.93768 0.72844,3.69896c-0.06976,1.31553 -0.97469,4.70292 -1.02626,5.67536c-0.11348,2.13998 -0.40577,3.89334 -0.40577,3.89334l-4.14036,-0.01448c0,0 -0.12488,-2.01528 -0.87252,-4.2695c-0.71961,-2.16969 -2.11593,-4.55553 -2.18508,-5.58924c-0.19994,-2.9885 1.64464,-3.39445 1.64464,-3.39445z" fill="#000000"/><path d="M241.27161,148.41951c0,0 -0.2909,-3.80356 -0.49735,-8.24071c-0.20504,-4.40659 -0.32473,-9.70108 -0.5883,-13.30096c-0.42508,-5.80554 -1.77895,-15.81414 -1.77895,-15.81414l6.10614,1.88461l-0.75385,35.43068z" fill="#ffffff"/><path d="M238.85402,137.3196c0.34401,0 0.62288,4.77542 0.62288,4.77542c0,0 -1.24576,-1.59275 -1.24576,-2.7251c0,-1.13236 0.27887,-2.05032 0.62288,-2.05032z" fill="#ffffff"/></g><path d="M213.21419,102.81466l-0.25926,-23.81451c0,0 19.97889,-17.58729 29.9899,-17.58729c9.28347,0 28.05834,17.58729 28.05834,17.58729l0.89689,14.01813c0,0 -3.78883,-9.2665 -7.22344,-7.02971c-4.53067,2.9506 -4.95233,0.74729 -5.18115,4.04223c-0.18541,2.66989 -3.54576,6.37405 -3.54576,6.37405c0,0 -4.2473,-1.34535 -7.65296,-2.81078c-2.56847,-1.10519 -4.65824,-2.27868 -4.08637,-2.99488c0.69756,-0.87359 1.34516,-2.24585 1.34516,-2.24585c0,0 7.6354,-2.32568 3.0458,0.5219c-1.75611,1.08957 1.95874,2.78299 -0.62413,3.53154c-1.03902,0.30112 -16.86867,6.66851 -16.86867,6.66851c0,0 -1.29538,-4.00315 -2.0325,-7.98235c-0.38244,-2.06454 5.10211,1.34926 3.64044,1.40718c-1.40304,0.0556 1.07289,2.60279 -1.56615,2.931c-7.19627,0.89498 -17.93613,7.38353 -17.93613,7.38353z" fill="#000000" stroke="none" stroke-width="0" stroke-linecap="butt"/><path d="M217.54634,115.65888c0,0 -0.16627,-2.22288 0.81062,-4.59656c1.16899,-2.84044 3.93233,-5.91812 9.99819,-5.95021c4.4123,-0.02334 6.77688,1.48178 8.31843,3.36171c2.53146,3.08714 2.42486,7.54013 2.42486,7.54013c0,0 -4.66657,-4.75111 -10.73759,-4.7087c-6.7639,0.04726 -10.81451,4.35363 -10.81451,4.35363z" fill="#000000" stroke="none" stroke-width="0" stroke-linecap="butt"/><path d="M244.50731,115.53465c0,0 -0.53134,-3.2454 0.9459,-6.12374c1.32927,-2.59004 4.34124,-4.84529 9.8629,-4.81608c11.13492,0.0589 11.0941,11.29489 11.0941,11.29489c0,0 -2.56322,-3.70374 -10.66582,-3.84473c-7.31459,-0.28346 -11.23708,3.48966 -11.23708,3.48966z" data-paper-data="{&quot;index&quot;:null}" fill="#000000" stroke="none" stroke-width="0" stroke-linecap="butt"/><path d="M238.85402,137.3196c0.34401,0 0.62288,4.77542 0.62288,4.77542c0,0 -1.24576,-1.59275 -1.24576,-2.7251c0,-1.13236 0.27887,-2.05032 0.62288,-2.05032z" fill="#ffffff" stroke="none" stroke-width="0" stroke-linecap="butt"/><path d="M219.68704,96.07903c0,0 0.01474,14.04785 0.67271,22.55621c0.55972,7.23793 6.29529,21.44738 6.29529,21.44738l-5.19471,2.88595c0,0 -0.16963,1.37701 -1.38884,-0.72728c-4.47967,-7.73172 -3.35325,-16.05315 -4.11828,-23.17831c-1.8702,-17.41834 3.73383,-22.98395 3.73383,-22.98395z" fill-opacity="0.27419" fill="#000000" stroke="none" stroke-width="0" stroke-linecap="butt"/><path d="M264.41468,117.4605c-0.76502,7.12516 0.3614,15.44659 -4.11827,23.17831c-1.2192,2.10428 -1.38883,0.72728 -1.38883,0.72728l-5.19471,-2.88595c0,0 5.73556,-14.20944 6.29529,-21.44737c0.65797,-8.50836 0.67271,-22.55621 0.67271,-22.55621c0,0 5.60404,5.56561 3.73382,22.98395z" fill-opacity="0.27419" fill="#000000" stroke="none" stroke-width="0" stroke-linecap="butt"/><path d="M220.98101,139.83814c0,0 7.13468,-5.92874 19.73709,-5.86778c15.02608,0.07269 20.40388,5.86778 20.40388,5.86778c0,0 0.11768,5.30534 -3.78362,11.26301c-3.35325,5.12074 -10.75248,8.74079 -10.75248,8.74079l-10.3958,0.03106c0,0 -8.73171,-4.24024 -11.4997,-8.25069c-2.66964,-3.86796 -3.70937,-11.78418 -3.70937,-11.78418z" fill-opacity="0.27419" fill="#000000" stroke="none" stroke-width="0" stroke-linecap="butt"/><g stroke="none" stroke-width="0" stroke-linecap="butt"><path d="M217.85901,89.10828c0,0 0.01763,16.81118 0.80503,26.9932c0.66983,8.66169 7.53362,25.66625 7.53362,25.66625l-6.21655,3.45364c0,0 -0.203,1.64788 -1.66203,-0.87034c-5.36086,-9.25261 -4.01286,-19.21093 -4.92838,-27.73767c-2.23809,-20.84467 4.46831,-27.50508 4.46831,-27.50508z" fill="#59220f"/><path d="M226.19766,141.76773l-6.21655,3.45364c0,0 -0.203,1.64788 -1.66203,-0.87034c-0.98169,-1.69436 -1.73841,-3.41238 -2.32525,-5.14094c-0.13078,-0.38521 1.04282,-1.11018 2.54667,-1.7458c2.30079,-0.97244 5.37461,-1.73573 5.73315,-0.75315c1.10242,3.02115 1.92401,5.05658 1.92401,5.05658z" fill-opacity="0.3871" fill="#000000"/><path d="M214.99633,116.20613c-0.10623,-5.06799 -0.89026,-9.82386 -0.89026,-10.59818c0,-2.47351 2.17014,-12.45089 2.71784,-12.25911c0.28405,0.09946 -0.44986,6.1714 0.27603,17.5726c-0.10665,2.54461 -0.21915,5.15314 -0.33754,7.56125c-0.5708,0.28592 -1.13564,0.57938 -1.69553,0.87915c-0.02563,-1.03996 -0.0485,-2.10385 -0.07055,-3.15572z" fill="#6d4321"/><path d="M215.8282,128.70928c-0.38498,0 -0.57618,-3.15005 -0.69973,-7.11303c0.50112,-0.27541 1.00593,-0.5461 1.51517,-0.81116c-0.24757,4.55126 -0.51931,7.92419 -0.81544,7.92419z" fill="#6d4321"/></g><g data-paper-data="{&quot;index&quot;:null}" stroke="none" stroke-width="0" stroke-linecap="butt"><path d="M267.63659,114.89293c-0.91551,8.52674 0.43249,18.48506 -4.92837,27.73767c-1.45902,2.51821 -1.66203,0.87034 -1.66203,0.87034l-6.21655,-3.45364c0,0 6.8638,-17.00456 7.53362,-25.66625c0.7874,-10.18202 0.80503,-26.9932 0.80503,-26.9932c0,0 6.7064,6.66041 4.4683,27.50508z" fill="#59220f"/><path d="M256.75365,134.99071c0.35855,-0.98258 3.43237,-0.21929 5.73315,0.75315c1.50385,0.63561 2.67745,1.36058 2.54667,1.74579c-0.58684,1.72856 -1.34357,3.44658 -2.32525,5.14094c-1.45902,2.51821 -1.66203,0.87034 -1.66203,0.87034l-6.21655,-3.45364c0,0 0.82159,-2.03543 1.92401,-5.05658z" fill-opacity="0.3871" fill="#000000"/><path d="M265.96042,117.64142c-0.55989,-0.29977 -1.12473,-0.59323 -1.69553,-0.87915c-0.11839,-2.40811 -0.23089,-5.01664 -0.33754,-7.56125c0.72589,-11.4012 -0.00802,-17.47314 0.27603,-17.5726c0.54771,-0.19178 2.71784,9.7856 2.71784,12.25911c0,0.77432 -0.78402,5.53019 -0.89026,10.59818c-0.02205,1.05187 -0.04492,2.11576 -0.07055,3.15572z" fill="#6d4321"/><path d="M264.38366,119.06465c0.50924,0.26506 1.01405,0.53575 1.51517,0.81116c-0.12355,3.96299 -0.31475,7.11303 -0.69973,7.11303c-0.29613,0 -0.56786,-3.37293 -0.81544,-7.92419z" fill="#6d4321"/></g><path d="M217.04014,142.85613c0,0 8.53813,-7.09497 23.61953,-7.02202c17.98183,0.08698 24.41749,7.02202 24.41749,7.02202c0,0 0.14083,6.34894 -4.52789,13.47854c-4.01286,6.12803 -12.86758,10.46018 -12.86758,10.46018l-12.44074,0.03716c0,0 -10.44931,-5.07433 -13.76178,-9.87366c-3.19478,-4.62882 -4.43903,-14.10222 -4.43903,-14.10222z" fill="#6d4321" stroke="none" stroke-width="0" stroke-linecap="butt"/><g stroke="none" stroke-width="0" stroke-linecap="butt"><path d="M221.98003,154.59028c-0.96816,-1.95393 -1.71043,-4.49761 -1.56098,-6.16961c0.05748,-0.64308 3.25312,-2.51707 4.98029,-2.7503c1.24481,-0.1681 5.64928,16.79918 5.64928,16.79918c0,0 -6.13532,-1.9594 -9.06859,-7.87926z" fill="#59220f"/><path d="M221.98003,152.42122c-0.96817,-1.95393 -1.71043,-4.49761 -1.56099,-6.16961c0.05748,-0.64307 3.25312,-2.51707 4.98029,-2.75031c1.2448,-0.1681 5.64928,16.79918 5.64928,16.79918c0,0 -6.13531,-1.9594 -9.06858,-7.87926z" fill="#ffffff"/></g><g data-paper-data="{&quot;index&quot;:null}" stroke="none" stroke-width="0" stroke-linecap="butt"><path d="M250.63895,162.46958c0,0 4.40447,-16.96728 5.64928,-16.79918c1.72716,0.23324 4.92281,2.10723 4.98029,2.7503c0.14944,1.672 -0.59282,4.21569 -1.56098,6.16962c-2.93327,5.91986 -9.06858,7.87926 -9.06858,7.87926z" fill="#59220f"/><path d="M250.63895,160.30044c0,0 4.40447,-16.96728 5.64928,-16.79918c1.72716,0.23324 4.92281,2.10723 4.98029,2.7503c0.14944,1.672 -0.59282,4.21568 -1.56098,6.16961c-2.93327,5.91986 -9.06858,7.87926 -9.06858,7.87926z" fill="#ffffff"/></g><path d="M252.29382,144.60711c-0.47248,4.13262 -8.87461,21.85212 -11.51666,21.85212c-2.64204,0 -10.80794,-16.77453 -11.63477,-21.61587c-0.41733,-2.44358 6.1585,-5.84776 11.1623,-5.90598c5.35973,-0.06236 12.27071,3.20683 11.98914,5.66974z" fill="#59220f" stroke="none" stroke-width="0" stroke-linecap="butt"/><path d="M252.29382,143.50609c-0.47248,4.13263 -8.87461,21.85211 -11.51665,21.85211c-2.64204,0 -10.80794,-16.77453 -11.63477,-21.61588c-0.41733,-2.44357 6.1585,-5.84775 11.1623,-5.90598c5.35973,-0.06236 12.27071,3.20683 11.98913,5.66974z" fill="#000000" stroke="none" stroke-width="0" stroke-linecap="butt"/><path d="M218.42349,143.85712c0,-0.60096 8.16128,-5.65056 13.98026,-6.27271c0.25104,-0.02684 -0.84986,3.15852 -4.86333,3.99305c-6.57498,1.36716 -7.76072,3.70189 -8.01185,5.24561c-0.28766,1.7683 -1.10509,-2.75635 -1.10509,-2.96595z" fill="#8d6e47" stroke="none" stroke-width="0" stroke-linecap="butt"/><path d="M262.67946,146.82309c-0.25113,-1.54372 -1.43687,-3.87845 -8.01185,-5.24561c-4.01346,-0.83453 -5.11437,-4.01989 -4.86333,-3.99305c5.81898,0.62215 13.98026,5.67175 13.98026,6.27271c0,0.2096 -0.81742,4.73425 -1.10508,2.96595z" data-paper-data="{&quot;index&quot;:null}" fill="#8d6e47" stroke="none" stroke-width="0" stroke-linecap="butt"/><path d="M228.0919,109.81656c2.71342,0 4.91309,2.23006 4.91309,4.98098c0,2.75092 -2.19966,4.98098 -4.91309,4.98098c-2.71342,0 -4.91309,-2.23006 -4.91309,-4.98098c0,-2.75091 2.19966,-4.98098 4.91309,-4.98098z" fill="#000000" stroke="none" stroke-width="0" stroke-linecap="butt"/></g></g></g></svg>