<svg version="1.1" xmlns="http://www.w3.org/2000/svg" xmlns:xlink="http://www.w3.org/1999/xlink" width="672.62503" height="461.46871" viewBox="0,0,672.62503,461.46871"><defs><radialGradient cx="-77.24559" cy="40.52505" r="9.49216" gradientUnits="userSpaceOnUse" id="color-1"><stop offset="0" stop-color="#606872"/><stop offset="1" stop-color="#607266"/></radialGradient><radialGradient cx="-19.6741" cy="40.66791" r="9.49215" gradientUnits="userSpaceOnUse" id="color-2"><stop offset="0" stop-color="#606872"/><stop offset="1" stop-color="#607266"/></radialGradient></defs><g transform="translate(96.31252,50.73436)"><g data-paper-data="{&quot;isPaintingLayer&quot;:true}" stroke-linejoin="miter" stroke-miterlimit="10" stroke-dasharray="" stroke-dashoffset="0" style="mix-blend-mode: normal"><path d="" fill="#fcfcfc" fill-rule="evenodd" stroke="none" stroke-width="1" stroke-linecap="butt"/><path d="M18.38115,313.19757c0,5.92079 0,11.84089 0,17.76168c-2.40602,1.31573 -5.91042,2.45453 -8.51455,3.41571c-0.67836,-5.5676 0.09415,-11.26022 0.31686,-17.07853c2.70592,-1.3533 5.43849,-2.71959 8.1977,-4.09885z" fill="#640c17" fill-rule="evenodd" stroke="none" stroke-width="1" stroke-linecap="butt"/><path d="M18.38115,330.95926c0,5.46513 0,10.93026 0,16.39539c-2.69089,1.91416 -5.65095,3.28044 -8.88084,4.09885c0.28692,-4.45545 0.19961,-17.07854 0.19961,-17.07854c0,0 6.2752,-2.09998 8.68122,-3.41571z" fill="#c70c12" fill-rule="evenodd" stroke="none" stroke-width="1" stroke-linecap="butt" opacity="0.975"/><path d="M18.24176,376.79563c0.15382,3.65139 0.42771,9.79458 0.82253,13.43026c-3.83874,0 -9.68209,0 -9.68209,0l-0.17747,-10.34789c0,0 5.76418,-1.95245 9.03703,-3.08237z" fill="#650b17" fill-rule="evenodd" stroke="none" stroke-width="1" stroke-linecap="butt" opacity="0.995"/><g fill-rule="nonzero" stroke-linecap="butt"><path d="M308.77459,303.70795c-0.57113,0 -1.03411,-0.46299 -1.03411,-1.03411c0,-0.57113 0.46299,-1.03413 1.03411,-1.03413c0.57113,0 1.03411,0.463 1.03411,1.03413c0,0.57113 -0.46299,1.03411 -1.03411,1.03411z" fill="#000000" stroke="none" stroke-width="1.5"/><path d="M303.51475,307.94357c-4.4635,-0.31439 -6.55245,-1.79392 -6.16985,-2.58011c0.11788,-0.24224 2.84645,1.06355 6.97038,1.3048c6.40897,0.37493 8.51033,-0.63173 8.51033,-0.63173v1.34616c0,0 -2.4135,1.04672 -9.31086,0.56089z" fill="#000000" stroke="#000000" stroke-width="0"/><path d="M275.70198,302.67384c0,-0.57113 0.46299,-1.03413 1.03411,-1.03413c0.57113,0 1.03413,0.463 1.03413,1.03413c0,0.57113 -0.463,1.03411 -1.03413,1.03411c-0.57113,0 -1.03411,-0.46299 -1.03411,-1.03411z" fill="#000000" stroke="none" stroke-width="1.5"/><path d="M281.99602,307.94357c-6.89736,0.48585 -9.31086,-0.56089 -9.31086,-0.56089v-1.34616c0,0 2.10136,1.00666 8.51033,0.63173c4.12393,-0.24126 6.85251,-1.54704 6.97039,-1.3048c0.3826,0.78618 -1.70634,2.26571 -6.16985,2.58011z" fill="#000000" stroke="#000000" stroke-width="0"/><path d="M293.27648,364.4953c-0.81895,0 -1.48284,-0.66389 -1.48284,-1.48284c0,-0.81895 0.66389,-1.48284 1.48284,-1.48284c0.81895,0 1.48284,0.66389 1.48284,1.48284c0,0.81895 -0.66389,1.48284 -1.48284,1.48284z" data-paper-data="{&quot;index&quot;:null}" fill="#000000" stroke="none" stroke-width="1.5"/><path d="M269.2132,407.7802v-119.20147c0,0 0.75721,-9.73105 0.75721,-14.63937c0,-4.498 -0.75721,-13.6872 -0.75721,-13.6872c0,0 2.67319,-2.35297 4.6557,-3.74807c1.98251,-1.3951 5.17197,-2.80371 5.17197,-2.80371c0,0 -0.60161,40.10902 14.55952,40.03867c15.43477,-0.07162 13.83154,-40.03867 13.83154,-40.03867c0,0 3.91276,1.51959 6.16585,2.94655c2.25309,1.42695 4.75379,3.60523 4.75379,3.60523c0,0 -0.75721,9.42463 -0.75721,14.19201c0,4.84193 0.75721,14.63937 0.75721,14.63937v118.69667z" fill="#ffffff" stroke="#000000" stroke-width="2"/><path d="M249.13377,323.26555c-0.61874,-0.76833 -0.55556,-2.25 -0.55556,-2.25v-11.36111c0,0 1.19108,0 2.75,0c8.85608,0 88.75,0 88.75,0v12.47222c0,0 -0.09724,1.17944 -0.77778,1.58333c-0.68054,0.4039 -2.63889,0.44444 -2.63889,0.44444h-85.55556c0,0 -1.35348,-0.12056 -1.97222,-0.88889z" fill="#000c21" stroke="none" stroke-width="0"/><path d="M265.24868,409.20014v-99.2h-15.2c0,0 -2.84135,-31.66348 11.55689,-48.90191c1.99443,-2.38785 7.17662,-7.42403 10.87286,-8.81928c7.99025,-3.01615 16.38263,-0.77178 22.37122,-0.78542c8.43659,-0.01922 13.44967,-4.139 21.52768,1.41046c2.12654,1.4609 6.22493,5.25193 9.38183,8.91771c2.76679,3.21278 4.67128,6.28297 5.76006,8.22691c5.26863,9.40676 5.74512,20.95834 5.89369,29.28907c0.10623,5.9569 0.43576,10.46246 0.43576,10.46246l-15.6,0.2v99.2z" fill="#001f58" stroke="none" stroke-width="0"/><path d="M250.29164,291.97547c0,0 0.26041,-2.22162 0.42599,-3.36313c1.35119,-9.31504 4.345,-19.82774 10.74507,-27.49028c1.99443,-2.38784 7.17663,-7.42403 10.87286,-8.81928c1.72336,-0.65053 5.19805,-1.29289 5.19805,-1.29289l-7.47384,19.44807c0,0 -3.46114,0.52419 -6.51666,4.0073c-3.48152,3.96874 -6.67507,11.12278 -7.82745,14.15494c-0.57837,1.52182 -1.06459,2.98628 -1.43544,4.36808c-0.47697,1.77718 -1.70572,2.8445 -2.25098,3.66444c-2.0149,3.02994 -1.73761,-4.67725 -1.73761,-4.67725z" fill="#985aff" stroke="none" stroke-width="0"/><path d="M316.23447,252.9278c1.69502,1.16445 7.36806,6.69115 7.36806,6.69115c0,0 0.42808,0.46223 0.91772,1c0.38731,0.42538 -5.81519,9.25651 -8.95149,6.51673c-4.35794,-3.80697 -4.0317,-17.43492 0.66571,-14.20788z" fill="#985aff" stroke="none" stroke-width="0"/><path d="M265.10582,319.67649v-9.65254h-6.65703c0,0 3.34959,-3.43744 4.59241,-8.64587c1.4419,-6.04274 1.00921,-14.12325 4.41239,-16.51587c13.9872,-9.83373 39.82404,-8.46378 51.69136,-11.12752c1.10823,-0.24875 2.76492,0.31011 3.93421,2.67009c1.47255,2.97205 1.92211,5.47031 2.42346,9.48412c0.27859,2.23042 0.41958,5.69685 1.12809,8.1371c1.98353,6.83164 1.66424,0.37863 1.67359,0.37514c2.05765,-0.76852 1.5881,-6.54318 2.62777,-10.1759c1.06528,-3.72222 3.61529,-6.62543 3.68919,-6.37964c0.05686,0.18911 0.11246,0.37848 0.16685,0.56807c0.51757,1.80435 0.92431,3.62856 1.245,5.44282c0.03033,0.1716 0.08871,0.5145 0.08871,0.5145c0,0 -1.77379,2.05184 -2.17722,5.53898c-0.45709,3.95095 0.3343,9.57416 -1.88884,13.0276c-1.02624,1.59416 -2.49925,2.10192 -4.07837,2.88698c-0.37977,0.1888 -3.46158,-0.19132 -4.77335,-1.64685c-2.08364,-2.31199 -2.74746,-6.1527 -4.09943,-5.76219c-2.93776,0.84855 -5.74067,7.05875 -10.64812,10.06861c-4.90745,3.00986 -5.06083,0.86416 -5.92899,0.09853c-2.68064,-2.36404 -2.30796,-8.87497 -2.30796,-8.87497l-13.13351,-1.48319c0,0 -6.57995,2.89542 -10.20064,7.41775c-1.75238,2.18877 -2.01381,5.07775 -2.70321,7.32293c-0.55502,1.80756 -1.58291,3.11965 -2.39408,3.91133c-1.93719,1.89064 -6.68227,2.79999 -6.68227,2.79999z" fill="#985aff" stroke="none" stroke-width="0"/><path d="M313.93915,318.39063c0,-1.48948 1.01093,-3.27662 2.733,-3.88001c2.28153,-0.79942 5.43366,-0.15041 5.43366,-0.15041v7.5c0,0 -3.51891,0.16404 -5.91092,-0.68156c-1.43792,-0.50832 -2.25574,-1.48792 -2.25574,-2.78802z" fill="#985aff" stroke="none" stroke-width="0"/><path d="M322.24863,337.82129c0,0 -1.51115,1.51019 -3.83318,2.14386c-1.74063,0.475 -4.12465,0.14457 -5.63892,0.03367c-1.28393,-0.09403 -3.31301,-0.57969 -4.64873,-1.16003c-2.34117,-1.01719 -3.73632,-2.32526 -3.73632,-2.32526c0,0 -2.52016,-1.8068 -5.49045,-2.85264c-2.07963,-0.73223 -4.59839,-0.58164 -5.6945,-1.35336c-0.32126,-0.22618 -0.55713,-0.4457 -0.68231,-0.65363c-0.21595,-0.35872 -1.98818,-0.99707 -3.209,-1.76948c-1.39819,-0.88464 -2.29574,-1.94514 -3.10098,-2.96281c-2.50417,-3.16478 -2.47678,-6.66812 -2.69097,-8.71268c-0.17158,-1.63781 0.32149,-4.3435 2.14341,-5.06835c1.82239,-0.72503 4.97366,0.53098 4.97366,0.53098c0,0 4.99409,8.09695 11.9881,11.67043c2.84615,1.45419 6.48213,3.60948 9.96324,4.29888c5.07322,1.0047 9.65694,0.18044 9.65694,0.18044z" fill="#985aff" stroke="none" stroke-width="0"/><path d="M265.24866,338.03735c0,0 0.98833,0.00816 1.3611,-0.90245c0.41829,-1.02182 0.21895,-2.60331 1.02507,-3.97861c1.10562,-1.88628 3.4618,-3.46481 6.04883,-3.41063c1.85988,0.03895 3.49183,0.036 5.37123,1.15475c2.50837,1.49315 3.47674,3.43671 5.07485,5.11793c1.16658,1.22723 3.3482,2.48455 3.3482,2.48455c0,0 2.25382,1.10722 4.35054,2.83845c1.7083,1.41051 3.433,1.96096 4.06687,5.25274c0.41388,2.14937 -0.32592,5.11411 -1.34442,7.60341c-0.55551,1.3577 -1.38552,2.38238 -1.71411,3.49854c-1.12409,3.81833 -0.16516,5.89014 -0.16516,5.89014c0,0 0.01706,1.52566 -0.58036,3.0162c-0.55814,1.39255 -1.68731,2.75445 -2.91223,2.81293c-1.14844,0.05482 -2.15236,-1.06713 -2.70816,-2.3113c-0.67154,-1.50326 -0.77253,-3.18494 -0.77253,-3.18494c0,0 -0.15673,-2.95566 0.00657,-5.86455c0.09824,-1.74989 0.54433,-3.48286 0.55646,-4.54528c0.02606,-2.28242 -0.38391,-5.27714 -0.38391,-5.27714c0,0 -1.28844,-2.95077 -2.88314,-3.80712c-1.9533,-1.04891 -4.32059,-0.00163 -4.78101,0.54662c-1.07253,1.27715 -0.56469,5.2358 -0.56469,5.2358c0,0 2.22195,6.14773 -1.85238,7.87555c-1.80554,0.76569 -3.56436,0.97808 -5.40877,0.30899c-2.31765,-0.84077 -5.13885,-2.92601 -5.13885,-2.92601z" fill="#985aff" stroke="none" stroke-width="0"/><path d="M312.66533,377.28349c0,0 -5.78762,-1.93342 -7.9619,-4.85083c-2.17427,-2.9174 -2.11543,-8.67076 -2.11543,-8.67076c0,0 -0.04808,-0.93391 -0.21839,-2.21581c-0.27493,-2.06937 -0.73455,-5.0456 -0.82302,-6.46388c-0.0943,-1.51177 0.26545,-3.7602 0.26545,-3.7602c0,0 0.36954,-1.55349 1.24866,-2.67505c0.55268,-0.7051 1.40755,-1.18909 2.18325,-1.16673c0.9977,0.02875 2.1851,0.35562 2.7083,1.34887c0.53064,1.00736 0.39,2.6811 0.39,2.6811l-0.06032,12.03559c0,0 2.11293,1.43037 3.66451,1.60723c1.55158,0.17685 2.80866,-0.4373 2.86755,-0.86268c0.41806,-3.01962 -0.15258,-6.66998 0.69718,-9.51735c2.8503,-9.55075 6.73747,-9.60111 6.73747,-9.60111v22.54546c0,0 -1.51901,4.93027 -3.75125,7.15851c-2.23224,2.22825 -5.83207,2.40765 -5.83207,2.40765z" fill="#985aff" stroke="none" stroke-width="0"/><path d="M322.24863,398.11026v11.25655h-17.82034c0,0 -16.6253,-3.76014 -13.30993,-7.98296c0.20843,-0.26548 5.08548,0.81647 7.19524,-0.85362c1.41896,-1.12325 -0.72804,-5.11824 1.45766,-5.29414c0.63923,-0.05144 2.79473,-0.0527 4.05508,0.95997c1.32647,1.06579 1.78703,3.16494 3.62397,3.81135c2.38567,0.8395 6.14533,-0.386 6.32999,-0.72189c1.87611,-3.41255 -1.88258,-12.00179 3.2006,-12.70725c5.08317,-0.70546 5.26773,11.53198 5.26773,11.53198z" fill="#985aff" stroke="none" stroke-width="0"/><path d="M265.24866,376.48567c0,0 3.49811,1.24352 10.31427,2.18889c5.4309,0.75325 2.10275,-5.33226 8.81067,-4.75832c7.00751,0.59957 13.41774,2.15813 18.42992,6.57043c4.60808,4.05656 4.11181,4.46371 4.11181,5.62361c0,0.40584 -1.8896,4.13454 -6.6135,1.32647c-1.0504,-0.6244 -4.8865,-1.32368 -5.54509,0.85418c-0.86018,2.8445 0.09525,10.46357 -2.7188,7.17759c-1.43685,-1.67782 -2.73444,-6.81839 -5.27814,-9.53372c-2.92992,-3.12761 -7.07744,-3.74551 -7.81787,-3.81126c-5.09297,-0.45226 1.27719,9.57825 -2.6837,8.83834c-5.86205,-1.09505 -3.20561,-1.82593 -5.62355,-0.85764c-4.20204,1.68275 -0.42397,5.55713 2.16135,10.5742c1.94278,3.77017 2.48653,9.20131 2.48653,9.20131l-10.03389,-0.51293z" fill="#985aff" stroke="none" stroke-width="0"/><path d="M267.26205,296.02065c0,0 0.64137,-14.3881 1.52513,-21.53183c0.8939,-7.22571 5.25265,-21.57928 5.25265,-21.57928l39.33333,-0.22222c0,0 1.11486,2.40333 2.10485,5.83861c1.36324,4.73045 2.78846,11.41767 3.44602,16.4809c1.13509,8.74019 0.89357,20.68049 0.89357,20.68049c0,0 -5.13408,-1.49407 -7.15034,-2.31052c-2.27409,-0.92086 -5.81403,-2.93922 -5.81403,-2.93922c0,0 -1.52264,1.65939 -2.38488,3.23793c-2.08068,3.8092 -10.43015,19.9463 -10.43015,19.9463c0,0 -8.67104,-16.46202 -10.99198,-20.32328c-1.04493,-1.7384 -2.16194,-2.44825 -2.16194,-2.44825c0,0 -7.62522,3.13181 -10.10143,4.07167c-1.36858,0.51945 -3.52079,1.0987 -3.52079,1.0987z" fill="#000b23" stroke="none" stroke-width="0"/><path d="M281.15094,258.09472h25.11111c0,0 -0.73235,9.36213 -2.5822,16.00477c-2.17222,7.80023 -9.64002,27.88412 -9.64002,27.88412c0,0 -6.98488,-18.37668 -9.30362,-26.27239c-1.88874,-6.43148 -3.58527,-17.6165 -3.58527,-17.6165z" fill="#ffffff" stroke="none" stroke-width="0"/><path d="M293.76205,273.65722c2.2889,-0.08322 5.03374,-1.31112 7.08981,-3.14887c2.86341,-2.55938 4.68452,-5.94928 4.68452,-5.94928c0,0 -0.19874,1.39088 -0.31343,2.11638c-0.38952,2.46407 -0.89845,5.10919 -1.5431,7.42404c-2.17222,7.80023 -9.64002,27.88412 -9.64002,27.88412c0,0 -6.98488,-18.37668 -9.30362,-26.27239c-0.74045,-2.52137 -1.45137,-5.77332 -2.0421,-8.79551c-0.10035,-0.51339 -0.2902,-1.51558 -0.2902,-1.51558c0,0 5.88156,8.45621 11.35814,8.25709z" fill="#ff2aed" stroke="none" stroke-width="0"/><path d="M304.34902,271.3812c0,0 -0.11118,0.50059 -0.16876,0.74826c-0.15682,0.67451 -0.32352,1.33471 -0.50045,1.97003c-2.17222,7.80023 -9.64002,27.88412 -9.64002,27.88412c0,0 -6.98488,-18.37668 -9.30362,-26.27239c-0.26552,-0.90415 -0.52725,-1.90224 -0.78099,-2.95001c-0.07815,-0.32267 -0.23204,-0.98083 -0.23204,-0.98083c0,0 1.25973,1.79389 3.61256,3.33902c1.91521,1.25774 4.7234,2.33191 6.79533,2.29181c1.80983,-0.03503 3.99298,-0.85793 5.70849,-1.9808c2.66113,-1.74183 4.5095,-4.04921 4.5095,-4.04921z" fill="#ff7cfa" stroke="none" stroke-width="0"/></g><g fill-rule="nonzero"><path d="M564.41302,390.29585c-0.00122,0.14295 -66.14252,-0.17052 -66.14273,-0.19997c-0.05095,-7.31826 1.60815,-10.50024 1.60815,-10.50024c0,0 21.10659,1.2 31.6,1.2c10.49341,0 30.8,-0.7 30.8,-0.7c0,0 1.70112,2.35346 2.13458,10.20021z" fill="#af6dff" stroke="none" stroke-width="0" stroke-linecap="butt"/><path d="M562.57845,356.69563c0,0 2.70112,3.75347 2.53458,12.80022c-0.067,7.86218 -2.67082,10.83275 -2.67082,10.83275c0,0 -0.06451,6.21648 -14.15395,8.11027c-3.83114,0.54187 -10.96843,-0.31259 -17.01401,-0.40653c-6.87387,-0.1068 -12.54133,0.5061 -13.9958,0.56329c-16.83014,-0.2 -17.47003,-9.07767 -17.47003,-9.07767c0,0 -2.38888,-3.14973 -2.43812,-10.22208c-0.05095,-7.31826 2.50815,-13.40024 2.50815,-13.40024c0,0 21.10659,1.2 31.6,1.2c10.49341,0 31.1,-0.4 31.1,-0.4z" fill="#9546ff" stroke="none" stroke-width="0" stroke-linecap="butt"/><path d="M562.57845,334.69563c0,0 2.10111,6.35348 1.93457,12.00022c-0.16699,5.66218 -2.07082,11.13275 -2.07082,11.13275c0,0 -5.76451,5.91648 -19.85394,7.81027c-8.18718,1.15799 -17.77613,0.34928 -20.50981,0.45676c-16.83014,-0.2 -21.87004,-9.07767 -21.87004,-9.07767c0,0 -2.18887,-2.94973 -2.23811,-10.02208c-0.05095,-7.31826 2.40815,-12.10025 2.40815,-12.10025c0,0 20.60659,-0.3 31.1,-0.3c10.49341,0 31.1,0.1 31.1,0.1z" fill="#6004b5" stroke="none" stroke-width="0" stroke-linecap="butt"/><path d="M562.57845,314.29563c0,0 2.10112,4.25348 1.93457,9.90022c-0.167,5.66218 -2.07082,11.13275 -2.07082,11.13275c0,0 -7.26451,6.21648 -20.65395,8.11027c-8.18718,1.15799 -16.27612,0.34928 -19.00981,0.45676c-7.63014,0.3 -22.47004,-8.37767 -22.47004,-8.37767c0,0 -1.68888,-3.54973 -1.73811,-10.62208c-0.05095,-7.31826 1.10815,-10.10025 1.10815,-10.10025c0,0 21.30659,-2.7 31.8,-2.7c10.49341,0 31.1,2.2 31.1,2.2z" fill="#1a044f" stroke="none" stroke-width="0" stroke-linecap="butt"/><path d="M576.31179,283.17896c-0.08306,15.23363 -12.48002,43.66007 -44.91667,43.75001c-33.89758,0.09399 -44.2286,-27.52508 -44.75,-42.75001c-1.16666,-34.06719 30.60819,-16.75 45.75,-16.75c15.14181,0 44.08334,-14.81719 43.91667,15.75z" fill="#000000" stroke="none" stroke-width="0" stroke-linecap="butt"/><path d="M573.97847,268.01228c0,2.87974 -4.35703,11.47116 -11.62155,18.28711c-12.82096,12.02928 -31.87844,23.46289 -31.87844,23.46289c0,0 -15.515,-10.15301 -27.62322,-21.57604c-8.03112,-7.57666 -14.37678,-16.83218 -14.37678,-20.00729c0,-7.96211 20.48582,-20.72346 41,-20.24999c21.01835,0.48511 44.5,12.12122 44.5,20.08333z" fill="#3e0483" stroke="#ffffff" stroke-width="0" stroke-linecap="butt"/><path d="M572.86152,249.62741c0.08653,4.34594 -2.03723,9.96612 -6.01132,14.92475c-3.66955,4.57863 -30.0775,25.88431 -30.0775,25.88431l-0.05227,99.60645l-10.87307,-0.15884l-0.03692,-99.24795c0,0 -26.5149,-19.4774 -29.49939,-24.56162c-3.01945,-4.78161 -5.52921,-11.60068 -5.44952,-16.28043c0.10343,-6.07425 2.05294,-28.3867 40.41666,-28.5c38.69555,-0.11428 41.4624,22.25941 41.58334,28.33333z" fill="#af6dff" stroke="#ffffff" stroke-width="0" stroke-linecap="butt"/><path d="M531.17818,294.97741v94.1" fill="none" stroke="#ffffff" stroke-width="2.05" stroke-linecap="round"/><path d="M561.70039,250.18296c0,1.56151 -1.13762,5.61864 -3.66706,8.637c-8.57885,10.23707 -26.91628,23.27967 -26.91628,23.27967c0,0 -19.69992,-12.38187 -26.84921,-22.52857c-1.68964,-2.39803 -2.73412,-8.07723 -2.73412,-9.3881c0,-6.85754 9.62359,-16.87947 29.91666,-16.41666c22.60056,0.51543 30.25,9.55913 30.25,16.41666z" fill="#000000" stroke="none" stroke-width="0" stroke-linecap="butt"/><path d="M528.27831,294.26229c0,0 -1.52143,-13.94141 2.86029,-13.80147c4.48193,0.14314 2.88971,13.92647 2.88971,13.92647z" fill="#fefc00" stroke="none" stroke-width="0" stroke-linecap="butt"/><path d="M528.27831,294.63729c0,-1.58782 1.28718,-2.875 2.875,-2.875c1.58782,0 2.875,1.28718 2.875,2.875c0,1.58782 -1.28718,2.875 -2.875,2.875c-1.58782,0 -2.875,-1.28718 -2.875,-2.875z" fill="#ffbf00" stroke="none" stroke-width="NaN" stroke-linecap="butt"/></g><path d="M251.23229,50.06916c0,0 -0.41062,1.94244 -0.69224,2.70033c-0.27256,0.73352 -0.97122,2.44295 -0.97122,2.44295c0,0 -2.0344,-2.83745 -2.62984,-7.43402c-0.38567,-2.97723 -0.23642,-7.85489 -0.23642,-7.85489l-4.49747,2.25821c0,0 2.38267,-6.79678 3.25919,-8.80665c0.59269,-1.35905 1.49021,-2.08371 1.49021,-2.08371h10.9l-3.72222,25.44444z" fill="#2e0514" fill-rule="nonzero" stroke="none" stroke-width="0" stroke-linecap="butt"/><path d="M303.92732,54.23583l-3.55555,-22.94444h10.9c0,0 1.06418,0.72466 1.65688,2.08371c1.87653,3.17654 3.09252,8.88998 3.09252,8.88998l-4.66413,-2.50821c0,0 0.64925,4.04433 0.26358,7.02156c-0.28541,3.86995 -3.67567,7.95995 -3.67567,7.95995l-1.53429,-6.00255z" data-paper-data="{&quot;index&quot;:null}" fill="#cd0000" fill-rule="nonzero" stroke="none" stroke-width="0" stroke-linecap="butt"/><path d="M308.25972,16.97886c0,0 1.31806,-1.10292 2.31169,-1.32345c0.7812,-0.17338 3.76739,-0.61592 3.76739,-0.61592c0,0 1.8482,2.15632 1.8482,7.06363c0,3.36483 -1.54106,6.88972 -4.3695,7.91792c-0.0317,0.01792 0.3028,0.0898 0.21266,0.47113c-0.44295,1.87397 -2.25697,7.66765 -7.44281,10.96085c-0.01346,0.00855 -1.34037,0.03201 -1.34037,0.03201l-0.02497,-4.15029c0,0 -6.61928,-11.31527 -6.61928,-15.07812c0,-3.63711 11.65699,-5.27776 11.65699,-5.27776z" data-paper-data="{&quot;index&quot;:null}" fill="#000418" fill-rule="nonzero" stroke="none" stroke-width="0" stroke-linecap="butt"/><path d="M260.85,21.33562c0,3.76284 -7.67195,14.82154 -7.67195,14.82154c0,0 0.03152,3.86123 -0.00567,3.83761c-6.24112,-3.96334 -6.96594,-10.40501 -7.1534,-10.51098c-2.90519,-1.64221 -4.75325,-4.78335 -4.75325,-8.14818c0,-4.9073 1.92496,-6.06587 1.92496,-6.06587c0,0 1.83494,0.82629 2.61613,0.99967c0.99363,0.22053 3.3862,-0.21156 3.3862,-0.21156c0,0 11.65699,1.64065 11.65699,5.27776z" fill="#000418" fill-rule="nonzero" stroke="none" stroke-width="0" stroke-linecap="butt"/><g fill-rule="nonzero" stroke="none" stroke-width="0" stroke-linecap="butt"><path d="M248.3768,-26.3524c0,0 -0.83762,-4.00719 -1.84438,-6.97492c-1.06242,-3.1318 -4.37217,-11.35016 -4.37217,-11.35016l25.52702,23.87215l-15.25893,32.74347c0,0 0.35573,1.87032 -0.30842,3.10121c-0.7526,1.39481 -2.924,2.20523 -6.73445,1.95314c-4.01188,-0.26542 -1.68335,-7.25792 -2.2069,-6.6081c-1.70505,2.11627 -3.82026,3.97151 -3.82026,3.97151l-8.34402,0.97164c0,0 4.71974,-6.10647 6.68733,-8.62873c1.47562,-1.8916 4.07283,-5.16477 4.07283,-5.16477c0,0 -7.47723,-5.68784 -10.05711,-8.13374c-1.58799,-1.50552 -3.94785,-5.14392 -3.94785,-5.14392c0,0 4.58045,-0.43716 6.86311,-0.45626c2.2726,-0.01901 6.80279,0.34191 6.80279,0.34191c0,0 -2.87083,-3.76476 -4.46718,-5.81127c-1.61165,-2.06612 -5.15723,-6.52721 -5.15723,-6.52721c0,0 6.23949,-1.21087 9.12632,-1.58658c2.60643,-0.33921 7.43953,-0.56938 7.43953,-0.56938z" fill="#640411"/><path d="M263.57442,-35.16368c0,0 -2.92952,-4.74482 -3.64966,-7.22003c-0.97905,-3.36508 -1.73315,-7.30778 -1.73315,-7.30778c0,0 12.89584,9.99001 18.6635,13.63208c5.02945,3.17591 7.95732,3.56858 7.95732,3.56858c0,0 1.31209,-6.68017 2.33331,-9.79883c0.96716,-2.95354 3.64067,-8.4447 3.64067,-8.4447c0,0 1.15367,6.67614 2.17254,9.70339c1.31046,3.89363 5.03796,11.72037 5.03796,11.72037c0,0 3.33459,-4.61576 4.89482,-6.6799c2.85436,-3.77625 3.96173,-4.72551 3.96173,-4.72551c0,0 -1.84654,16.46806 -6.44853,18.35197c-5.07874,2.07908 -22.73486,-6.40521 -22.73486,-6.40521z" fill="#cd0000"/><path d="M277.08349,3.94769c0,0 -5.37307,3.12486 -17.69756,6.45588c-6.71935,1.81609 -21.47267,4.23809 -21.47267,4.23809c0,0 5.08707,-5.63532 7.32942,-8.21744c2.04181,-2.35118 5.5795,-6.64746 5.5795,-6.64746c0,0 -4.38608,-2.66981 -6.14226,-4.04698c-1.61008,-1.2626 -3.99461,-3.90223 -3.99461,-3.90223c0,0 4.76121,-0.82089 6.85197,-1.45657c1.90396,-0.57888 5.27536,-2.11241 5.27536,-2.11241c0,0 -2.4126,-2.61201 -3.96555,-4.02737c-1.73132,-1.57792 -5.67357,-4.91494 -5.67357,-4.91494c0,0 12.73665,-1.60463 12.90051,-3.10825c0.32903,-1.71993 -5.02534,-12.6375 -5.02534,-12.6375l18.35262,14.18376c0,0 8.76734,19.8404 8.79382,19.96316c0.08913,0.41327 -1.11163,6.23027 -1.11163,6.23027z" fill="#97040d"/><path d="M273.1018,10.99978c0,0 5.29524,-12.34629 5.09333,-13.28235c-0.02648,-0.12276 -7.38599,4.06056 -12.05071,5.40916c-8.80191,2.54469 -11.85852,1.01731 -11.85852,1.01731l9.33489,-7.08159c0,0 -1.0848,-0.38894 -2.30951,-0.63629c-2.67167,-0.53959 -5.74131,-0.58562 -5.74131,-0.58562c0,0 2.41749,-2.19318 4.23741,-3.28467c2.31918,-1.39092 8.54656,-4.38242 8.54656,-4.38242c0,0 -3.92975,-2.3089 -6.13622,-2.91577c-3.66252,-1.00735 -6.32593,-2.15386 -6.32593,-2.15386c0,0 4.10201,-1.8618 5.96092,-2.66362c1.36144,-0.58724 4.17247,-1.70734 4.17247,-1.70734l-23.86492,-23.4102c0,0 10.69697,4.45985 16.5169,7.00943c5.96866,2.61474 18.86014,8.48845 18.86014,8.48845c0,0 -12.02914,-11.59458 -15.89117,-15.60164c-1.9854,-2.05996 -3.45451,-4.91025 -3.45451,-4.91025c0,0 13.07718,8.17665 18.84484,11.81872c5.02945,3.17591 13.85074,8.82732 13.85074,8.82732c0,0 -1.28856,-6.34615 -1.06495,-13.30864c0.09885,-3.0777 0.96418,-8.38027 0.96418,-8.38027l7.30116,20.69841c0,0 1.75417,1.41505 2.56099,1.9549c0.83499,0.5587 2.36737,1.34267 2.36737,1.34267c0,0 -0.08444,-4.46105 1.32111,-9.38728c0.78688,-2.7579 2.51641,-4.59036 2.51641,-4.59036c0,0 0.4972,16.25153 0.48052,17.40045c-0.01257,0.86541 9.9814,6.92767 9.74207,20.76764c-0.04095,0.50399 6.01161,-4.15275 6.01161,-4.15275c0,0 -5.07089,21.63979 -9.7466,23.29599c-0.98343,0.34834 -6.74545,-0.28352 -6.74545,-0.28352c0,0 -0.2583,-15.80101 -0.50412,-16.24509c-0.72863,-1.31634 -11.49117,5.09397 -17.71046,7.19147c-8.33684,2.81166 -15.27923,3.74163 -15.27923,3.74163z" fill="#ff6104"/></g><g fill-rule="nonzero" stroke="none" stroke-width="0" stroke-linecap="butt"><path d="M310.97364,18.22396c0.14271,4.45116 -27.33969,12.13708 -31.83905,12.13708c-4.49936,0 -33.41853,-9.72629 -33.41853,-9.72629c0,0 0.23909,-9.31063 19.86823,-5.65288c1.4341,0.26723 9.80502,5.44512 13.54921,5.45526c2.93795,-0.58416 16.11131,-6.18891 19.77982,-6.66787c7.02373,-0.91702 12.01896,3.16488 12.06032,4.45471z" fill="#035c1c"/><path d="M279.27269,36.63327c0,0 -3.84022,4.65766 -4.44922,4.96437c-0.33714,0.16979 -1.98837,0.573 -2.19315,-2.35609c-0.25167,-3.59972 -9.65857,-1.47082 -11.7165,-1.17516c-1.53286,0.22022 -2.50854,1.68801 -3.99366,1.52074c-1.82448,-0.20549 -3.0833,-1.43017 -4.61863,-2.24456c-6.79366,-3.60359 -8.49147,-13.70541 -5.79336,-18.03703c2.29389,-3.68267 12.43064,-4.60059 19.22429,-0.997c3.87135,2.0535 8.64048,3.65049 11.38097,6.16358c0.06772,0.0621 1.9791,0.33638 1.9791,0.33638z" fill="#17fc25"/><path d="M269.79435,24.80815c0.55181,0.66735 1.6455,0.97302 2.28406,1.54075c3.37928,3.00442 6.69925,5.41872 2.38642,12.06674c-0.57954,0.89333 -1.7509,2.02574 -3.19721,2.46383c-3.08912,0.9357 -7.43257,0.16814 -9.94307,-2.56481c-0.15512,-0.16887 -2.82325,-0.79847 -3.21126,-0.89382c-2.47948,-0.60927 -12.69249,-10.74544 -9.05093,-15.90967c3.05423,-4.33132 14.49438,-1.02272 16.30584,0.79563c1.65705,1.66335 3.81704,1.76469 4.42615,2.50135z" fill="#000418"/><path d="M257.51447,36.96388c0,0 2.74679,-5.4548 4.06143,-8.00747c1.42563,-2.76819 3.51377,-6.61442 3.51377,-6.61442c0,0 1.03001,0.24222 3.08191,1.16969c2.27022,1.02615 3.90606,2.76472 3.90606,2.76472c0,0 -2.11878,5.27013 -3.37599,7.5331c-1.28675,2.31615 -4.37538,6.38413 -4.37538,6.38413c0,0 -1.48039,-0.1056 -3.44295,-1.04746c-2.11174,-1.01345 -3.36885,-2.18228 -3.36885,-2.18228z" fill="#035c1c"/><path d="M279.05062,24.8085c0,0 1.99451,-0.27428 2.06223,-0.33638c2.74049,-2.51309 7.50962,-4.11008 11.38097,-6.16358c6.79365,-3.60359 16.9304,-2.68567 19.22429,0.997c2.69811,4.33162 1.0003,14.43344 -5.79336,18.03703c-1.53533,0.8144 -2.79416,2.03907 -4.61863,2.24456c-1.48512,0.16727 -2.4608,-1.30052 -3.99366,-1.52074c-2.05793,-0.29566 -11.46483,-2.42456 -11.7165,1.17516c-0.20478,2.9291 -1.85601,2.52589 -2.19315,2.35609c-0.609,-0.30671 -4.44922,-4.96437 -4.44922,-4.96437z" data-paper-data="{&quot;index&quot;:null}" fill="#17fc25"/><path d="M308.74012,21.74607c2.13446,3.02697 -0.37635,11.5886 -12.09565,17.58641c-0.83535,0.42753 -9.01931,1.63023 -9.16293,1.59196c-2.46445,-0.65686 -3.66196,-2.19158 -3.79156,-2.39135c-2.20703,-3.40202 -4.44007,-9.79207 7.22105,-15.54352c7.24733,-4.33799 16.33782,-3.35832 17.82909,-1.2435z" data-paper-data="{&quot;index&quot;:null}" fill="#000418"/><path d="M287.46294,40.83956c0,0 3.62051,-4.65468 6.20785,-11.51382c1.76581,-4.68123 3.0703,-8.45182 3.0703,-8.45182c0,0 0.97722,-0.70664 3.42275,-0.82462c2.76344,-0.13331 4.44606,0.06123 4.44606,0.06123c0,0 -0.44862,4.07825 -1.92498,8.33259c-1.36545,3.93471 -4.88682,10.39988 -4.88682,10.39988c0,0 -2.31393,1.27442 -5.01249,1.88478c-2.45664,0.55564 -5.32266,0.11179 -5.32266,0.11179z" fill="#035c1c"/></g><path d="" fill="#0fa8d0" fill-rule="evenodd" stroke="none" stroke-width="1" stroke-linecap="butt"/><path d="" fill="#1491c2" fill-rule="evenodd" stroke="none" stroke-width="1" stroke-linecap="butt"/><g><g stroke="none" stroke-width="1" stroke-linecap="butt"><g><path d="" fill="#0b0b0b" fill-rule="nonzero" opacity="0.967"/><path d="" fill="#f68d08" fill-rule="evenodd" opacity="0.982"/><path d="" fill="#fe610b" fill-rule="evenodd" opacity="0.911"/></g><g><path d="" fill="#0b0b0b" fill-rule="nonzero" opacity="0.967"/><path d="" fill="#a7621c" fill-rule="evenodd"/><path d="" fill="#e0df2e" fill-rule="evenodd"/><path d="" fill="#f68d08" fill-rule="evenodd" opacity="0.982"/><path d="" fill="#fe610b" fill-rule="evenodd" opacity="0.911"/></g></g><path d="" data-paper-data="{&quot;index&quot;:null}" fill="#000000" fill-rule="nonzero" stroke="none" stroke-width="1.5" stroke-linecap="butt"/><path d="" fill="#ffffff" fill-rule="nonzero" stroke="#000000" stroke-width="1.4" stroke-linecap="butt"/><path d="" fill="#ffffff" fill-rule="nonzero" stroke="#000000" stroke-width="1.9" stroke-linecap="butt"/><path d="" fill="#ffffff" fill-rule="nonzero" stroke="#000000" stroke-width="1.15" stroke-linecap="butt"/><path d="" fill="#ffffff" fill-rule="nonzero" stroke="#000000" stroke-width="1.3" stroke-linecap="round"/><path d="" data-paper-data="{&quot;index&quot;:null}" fill="#ffffff" fill-rule="nonzero" stroke="#000000" stroke-width="1" stroke-linecap="butt"/><path d="" fill="none" fill-rule="nonzero" stroke="#000000" stroke-width="0.25" stroke-linecap="round"/><path d="" fill="#ffffff" fill-rule="nonzero" stroke="#000000" stroke-width="1.4" stroke-linecap="butt"/><path d="" fill="#000000" fill-rule="nonzero" stroke="none" stroke-width="1.5" stroke-linecap="butt"/><path d="" fill="#ffffff" fill-rule="nonzero" stroke="#000000" stroke-width="1.4" stroke-linecap="butt"/><path d="" fill="#000000" fill-rule="nonzero" stroke="none" stroke-width="1.5" stroke-linecap="butt"/><path d="" fill="#ffffff" fill-rule="nonzero" stroke="#000000" stroke-width="1.15" stroke-linecap="butt"/><path d="" fill="#ffffff" fill-rule="nonzero" stroke="#000000" stroke-width="1.15" stroke-linecap="butt"/><path d="" fill="#000000" fill-rule="nonzero" stroke="none" stroke-width="1.5" stroke-linecap="butt"/><g fill-rule="evenodd" stroke="none" stroke-width="1" stroke-linecap="butt"><g><path d="" fill="#118bf8" opacity="0.993"/><path d="" fill="#0c4bc0"/></g><g><path d="" fill="#118bf8" opacity="0.993"/><path d="" fill="#0c4bc0"/></g></g></g><g fill-rule="evenodd" stroke="none" stroke-width="1" stroke-linecap="butt"><path d="" fill="#fdfcfd"/><path d="" fill="#eeeeee"/><path d="" fill="#eeeeee"/><path d="" fill="#f7f7f7"/><path d="" fill="#ededed"/></g><g fill="none" fill-rule="nonzero" stroke="none" stroke-width="1" stroke-linecap="butt" font-family="sans-serif" font-weight="normal" font-size="12" text-anchor="start"><g/><g data-paper-data="{&quot;index&quot;:null}"/><g/><g data-paper-data="{&quot;index&quot;:null}"/><g/></g><g fill-rule="nonzero" stroke="none" stroke-width="1" stroke-linecap="butt"><g fill="none" font-family="sans-serif" font-weight="normal" font-size="12" text-anchor="start"/><g><g fill="none" font-family="sans-serif" font-weight="normal" font-size="12" text-anchor="start"/><path d="" fill="#003dbf"/></g><g fill="#0084fe"><path d=""/></g></g><g fill-rule="nonzero" stroke="none" stroke-width="0" stroke-linecap="butt"><path d="M189.02178,-9.22378c0,-5.08521 8.73593,-24.3409 8.73593,-24.3409c0,0 13.53025,5.04873 12.09268,22.96856c-0.91001,11.3436 -4.89145,20.56819 -4.89145,20.56819c0,0 1.81805,3.03939 2.40626,6.7795c1.52259,9.68127 2.89737,27.29455 3.34615,33.1117c0.30044,3.89436 -2.21834,5.91779 -2.21834,5.91779c0,0 0.80094,-4.4526 -1.59389,-8.30517c-4.50631,-7.24934 -8.71706,-14.79267 -8.71706,-14.79267c0,0 -9.16027,-36.8218 -9.16027,-41.90701z" fill="#001a54"/><path d="M135.39282,5.51251c1.22858,-8.76784 12.82672,-13.75058 14.50663,-13.84509c0.53883,-0.03031 2.0721,-5.42752 8.83545,-8.43735c4.42361,-1.9686 13.04263,-1.0724 13.04263,-1.06048c0,0.01723 12.22304,-11.4571 12.22304,-11.4571c0,0 1.14869,-0.15483 2.23413,-0.12725c0.94867,0.02411 1.84901,0.23221 1.89189,0.21903c1.01914,-0.31313 2.96034,-3.05305 4.69733,-3.84729c2.61143,-1.19409 4.99949,-0.5861 4.99949,-0.5861c0,0 5.42977,2.99909 4.93343,14.06818c-0.47447,10.58134 -6.13871,22.57161 -7.8476,23.66851c-0.02442,0.01567 1.79232,5.73572 1.79232,5.73572c0,0 9.22953,5.04769 13.29838,9.36372c1.30264,1.38178 1.26938,3.92024 1.28524,4.59101c0.06128,2.59178 -0.43638,6.75515 -0.55732,10.96439c-0.12635,4.39746 0.13252,8.87958 0.62991,13.32481c0.43917,3.92489 -1.5081,5.86603 -1.5081,5.86603c0,0 0.99053,-2.27503 -0.90754,-6.16471c-3.18447,-6.52587 -10.29336,-17.18141 -10.29336,-17.18141l-0.50864,2.24384c0,0 -10.1275,-13.22565 -33.23001,-14.91012c-25.11795,-1.83142 -35.42717,10.67074 -35.42717,10.67074c0,0 -0.37342,-2.31171 -0.35131,-2.4016c1.22355,-4.97645 6.25354,-20.64285 6.2612,-20.6975z" fill="#0046c4"/><path d="M135.29831,5.418c1.22858,-8.76784 12.82672,-13.75058 14.50663,-13.84509c0.53883,-0.03031 2.0721,-5.42752 8.83545,-8.43735c4.42361,-1.9686 13.04263,-1.0724 13.04263,-1.06048c0,0.01723 12.31754,-11.4571 12.31754,-11.4571c0,0 1.14869,-0.15483 2.23413,-0.12725c0.94867,0.02411 1.84901,0.23221 1.89189,0.21903c1.01914,-0.31313 2.96034,-3.05305 4.69733,-3.84729c2.61143,-1.19409 4.99949,-0.49159 4.99949,-0.49159c0,0 -3.04448,1.89551 -4.32067,2.87541c-1.67175,1.28362 -3.62346,3.80351 -4.84745,4.16415c-0.87784,0.25865 -3.03412,-1.23878 -3.74389,-0.74215c-1.96858,1.37744 -6.57697,7.4607 -9.97638,10.16788c-0.33955,0.2704 2.92862,2.15733 2.92862,2.15733c0,0 -17.04835,-2.53501 -22.59243,6.13987c-0.40628,0.63571 8.79624,-0.63637 8.79117,1.03275c-0.00245,0.80765 -9.37526,1.14417 -14.93366,4.00631c-3.13715,1.61538 -7.79114,5.65372 -7.45591,7.75426c0.73826,4.62588 -6.53445,2.63283 -6.37449,1.49131z" fill="#005cfa"/><path d="M129.46972,28.5093c0,0 -1.42105,-6.20005 -1.91418,-11.33477c-0.45173,-4.70357 -0.13622,-8.40485 3.17203,-9.50903c0.1231,-0.04109 14.24574,-9.35092 42.06119,-8.33272c8.95994,0.32798 23.9481,10.23842 23.9481,10.23842c0,0 1.87676,5.92397 2.45063,10.27533c0.54788,4.15432 -0.49763,10.79982 -0.49763,10.79982c0,0 -5.01331,-6.02853 -12.73367,-9.9776c-6.10415,-3.12237 -14.31033,-4.51933 -19.83529,-4.70526c-11.16961,-0.37589 -19.52488,1.63695 -24.94756,3.00994c-7.28574,1.8447 -9.97848,3.87751 -11.06202,5.96106c-1.01456,1.95092 -0.64161,3.57483 -0.64161,3.57483z" fill="#008fff"/></g><g fill-rule="nonzero" stroke="none" stroke-width="0" stroke-linecap="butt"><path d="" data-paper-data="{&quot;index&quot;:null}" fill="#b20b0e"/><path d="" data-paper-data="{&quot;index&quot;:null}" fill="#de2e0c"/><path d="" data-paper-data="{&quot;index&quot;:null}" fill="#002c78"/><path d="" data-paper-data="{&quot;index&quot;:null}" fill="#ffffff"/><path d="" data-paper-data="{&quot;index&quot;:null}" fill="#b20b0e"/><path d="" data-paper-data="{&quot;index&quot;:null}" fill="#002c78"/><path d="" data-paper-data="{&quot;index&quot;:null}" fill="#ffffff"/><path d="" data-paper-data="{&quot;index&quot;:null}" fill="#b20b0e"/><path d="" data-paper-data="{&quot;index&quot;:null}" fill="#de2e0c"/><path d="" data-paper-data="{&quot;index&quot;:null}" fill="#000918"/><path d="" data-paper-data="{&quot;index&quot;:null}" fill="#000918"/><path d="" data-paper-data="{&quot;index&quot;:null}" fill="#ffffff"/><path d="" fill="#b20b0e"/><path d="" fill="#de2e0c"/><path d="" fill="#002c78"/><path d="" fill="#ffffff"/><path d="" fill="#b20b0e"/><path d="" fill="#002c78"/><path d="" fill="#ffffff"/><path d="" fill="#001e50"/><path d="" data-paper-data="{&quot;index&quot;:null}" fill="#001e50"/><path d="" fill="#e9e700"/><path d="" fill="#00d1d9"/><path d="" fill="#000000"/><path d="" data-paper-data="{&quot;index&quot;:null}" fill="#e9e700"/><path d="" data-paper-data="{&quot;index&quot;:null}" fill="#000000"/><path d="" fill="#e2b402"/><path d="" data-paper-data="{&quot;index&quot;:null}" fill="#e2b402"/><path d="" fill="#b20b0e"/><path d="" fill="#de2e0c"/><path d="" fill="#000918"/><path d="" fill="#000918"/><path d="" fill="#ffffff"/></g><g fill-rule="nonzero"><path d="M3.07664,42.09116z" fill="#310c18" stroke="none" stroke-width="0" stroke-linecap="butt"/><path d="M3.49303,43.40161" fill="none" stroke="#640e13" stroke-width="3.5" stroke-linecap="round"/><path d="M-96.28021,51.67922l-0.03231,-5.99823z" fill="#000000" stroke="none" stroke-width="1.5" stroke-linecap="butt"/><path d="" fill="#ffffff" stroke="#000000" stroke-width="1.5" stroke-linecap="butt"/><path d="" data-paper-data="{&quot;index&quot;:null}" fill="#000000" stroke="none" stroke-width="1.5" stroke-linecap="butt"/><path d="" fill="#ffffff" stroke="#000000" stroke-width="1.4" stroke-linecap="butt"/><path d="" fill="#606872" stroke="none" stroke-width="0" stroke-linecap="butt"/><path d="" fill="#ffffff" stroke="#000000" stroke-width="1.9" stroke-linecap="butt"/><path d="" fill="#ffffff" stroke="#000000" stroke-width="1.15" stroke-linecap="butt"/><path d="" fill="#ffffff" stroke="#000000" stroke-width="1.3" stroke-linecap="round"/><path d="" data-paper-data="{&quot;index&quot;:null}" fill="url(#color-1)" stroke="#000000" stroke-width="1" stroke-linecap="butt"/><path d="" fill="none" stroke="#000000" stroke-width="0.25" stroke-linecap="round"/><path d="" fill="#ffffff" stroke="#000000" stroke-width="1.4" stroke-linecap="butt"/><path d="" fill="#000000" stroke="none" stroke-width="1.5" stroke-linecap="butt"/><path d="" fill="#a2a8ac" stroke="none" stroke-width="0" stroke-linecap="butt"/><path d="" fill="#ffffff" stroke="#000000" stroke-width="1.4" stroke-linecap="butt"/><path d="" fill="#000000" stroke="none" stroke-width="1.5" stroke-linecap="butt"/><path d="" fill="#ffffff" stroke="#000000" stroke-width="1.15" stroke-linecap="butt"/><path d="" fill="#ffffff" stroke="#000000" stroke-width="1.15" stroke-linecap="butt"/><path d="" fill="#000000" stroke="none" stroke-width="1.5" stroke-linecap="butt"/><path d="" data-paper-data="{&quot;index&quot;:null}" fill="url(#color-2)" stroke="#000000" stroke-width="1" stroke-linecap="butt"/><path d="" data-paper-data="{&quot;index&quot;:null}" fill="none" stroke="#000000" stroke-width="0.25" stroke-linecap="round"/><path d="" fill="#f9340e" stroke="none" stroke-width="0" stroke-linecap="butt"/></g><g fill-rule="nonzero" stroke-linecap="butt"><g><path d="" fill="#ffffff" stroke="#000000" stroke-width="2"/><path d="" fill="#000000" stroke="none" stroke-width="2"/><path d="" fill="#000000" stroke="#000000" stroke-width="0"/><path d="" fill="#000000" stroke="none" stroke-width="2"/><path d="" fill="#000000" stroke="#000000" stroke-width="0"/><path d="" data-paper-data="{&quot;index&quot;:null}" fill="#000000" stroke="none" stroke-width="2"/></g><g stroke-width="0"><path d="" fill="#000b20" stroke="#000000"/><g stroke="none"><g><path d="" data-paper-data="{&quot;index&quot;:null}" fill="#003494"/><path d="" data-paper-data="{&quot;index&quot;:null}" fill="#0073e8"/><path d="" fill="#3a6a4f"/><path d="" data-paper-data="{&quot;index&quot;:null}" fill="#f5f7f7"/><path d="" fill="#00bef6"/><path d="" fill="#d4c412"/><path d="" fill="#3a6a4f"/><path d="" fill="#d4c412"/><path d="" fill="#0037a2"/><path d="" fill="#004dd9"/></g><g><path d="" fill="#003494"/><path d="" fill="#f5f7f7"/><path d="" fill="#0073e8"/><path d="" fill="#ec41df"/><path d="" fill="#cf9de6"/><path d="" fill="#004bd4"/></g></g></g></g><path d="" fill="#ff7104" fill-rule="nonzero" stroke="none" stroke-width="0" stroke-linecap="butt"/><path d="" data-paper-data="{&quot;index&quot;:null}" fill="#000000" fill-rule="nonzero" stroke="none" stroke-width="1.5" stroke-linecap="butt"/><path d="" fill="#1d1854" fill-rule="nonzero" stroke="none" stroke-width="0" stroke-linecap="butt"/><g fill-rule="nonzero"><path d="" data-paper-data="{&quot;index&quot;:null}" fill="#000000" stroke="none" stroke-width="1.5" stroke-linecap="butt"/><path d="M33.92411,35.26677c0,0 -3.56385,-2.92338 -4.31816,-8.45061c-0.42079,-3.08327 2.15675,-2.28016 2.15675,-2.28016" fill="none" stroke="#000000" stroke-width="0.25" stroke-linecap="round"/><path d="M36.93751,28.61087c0.07093,-4.89188 4.83834,-8.93609 10.21137,-8.8582c5.37302,0.0779 9.02724,4.2484 8.95632,9.14029c-0.07093,4.89188 -4.12352,8.79439 -9.49655,8.7165c-5.37302,-0.0779 -9.74207,-4.1067 -9.67114,-8.99859z" fill="#ffffff" stroke="#000000" stroke-width="1.4" stroke-linecap="butt"/><path d="M41.3751,28.72882c0.03999,-2.75843 2.30855,-4.96213 5.06696,-4.92214c2.75843,0.03999 4.96213,2.30855 4.92214,5.06696c-0.03999,2.75843 -2.30854,4.96213 -5.06696,4.92214c-2.75843,-0.03999 -4.96213,-2.30855 -4.92214,-5.06696z" fill="#000000" stroke="none" stroke-width="1.5" stroke-linecap="butt"/><path d="M63.99375,28.61161c0.20353,-4.88817 4.45264,-8.85847 9.77048,-8.85847c5.31783,0 9.27453,3.96607 9.27453,8.85847c0,4.8924 -3.88585,9.07104 -9.69964,9.14188c-5.52997,0.06739 -9.55792,-4.03692 -9.34537,-9.14188z" fill="#ffffff" stroke="#000000" stroke-width="1.4" stroke-linecap="butt"/><path d="M68.59652,28.69715c0,-2.81845 2.2848,-5.10325 5.10325,-5.10325c2.81845,0 5.10325,2.2848 5.10325,5.10325c0,2.81845 -2.28479,5.10325 -5.10325,5.10325c-2.81845,0 -5.10325,-2.2848 -5.10325,-5.10325z" fill="#000000" stroke="none" stroke-width="1.5" stroke-linecap="butt"/><path d="M36.86909,28.07869c0,0 0.06357,-9.01512 10.60111,-8.8249c9.47101,0.16586 9.55554,9.40723 9.55554,9.40723z" fill="#ffffff" stroke="#000000" stroke-width="1.15" stroke-linecap="butt"/><path d="M63.61613,28.20959c0,0 -0.24686,-9.4582 11.19813,-9.1032c9.71427,0.33347 9.54677,9.65229 9.54677,9.65229z" fill="#ffffff" stroke="#000000" stroke-width="1.15" stroke-linecap="butt"/><path d="" fill="#000000" stroke="none" stroke-width="1.5" stroke-linecap="butt"/><path d="M88.35979,28.60306c1.0294,-5.97877 1.7913,-8.61483 3.73262,-8.35569c1.94131,0.25914 1.77649,4.24909 0.48013,9.99193c-1.23206,5.45797 -6.16417,8.97502 -6.16417,8.97502c0,0 0.92203,-4.6325 1.95143,-10.61127z" data-paper-data="{&quot;index&quot;:null}" fill="#ffffff" stroke="#000000" stroke-width="1" stroke-linecap="butt"/><path d="M88.77232,24.536c0,0 2.57754,-0.80312 2.15675,2.28016c-0.75431,5.52723 -4.31816,8.45061 -4.31816,8.45061" data-paper-data="{&quot;index&quot;:null}" fill="none" stroke="#000000" stroke-width="0.25" stroke-linecap="round"/><g stroke="none" stroke-width="0" stroke-linecap="butt"><path d="M96.52993,33.38711c0,0 -0.23903,1.92739 -0.619,2.58337c-0.70471,1.2166 -1.19968,2.86279 -2.03321,3.70895c-0.47808,0.48534 -2.63631,2.33663 -2.7361,2.38124c-0.82292,0.36782 -1.81252,0.13399 -2.46496,0.23061c-0.64623,0.09571 0.75532,-0.92844 1.90916,-2.38232c0.31696,-0.39939 0.87362,-1.39938 1.38869,-2.54228c0.07485,-0.16607 0.27864,-0.32776 0.3403,-0.48337c0.30239,-0.76315 0.45571,-1.38031 0.55316,-1.65431c0.24384,-0.6856 0.73664,-1.65666 0.73664,-1.65666z" data-paper-data="{&quot;index&quot;:null}" fill="#ffa20f"/><path d="M93.23736,34.06275c0,0 0.80361,-3.57418 0.91675,-5.55143c0.11339,-1.98162 0.54445,-6.32519 0.54445,-6.32519c0,0 0.55597,-0.38675 1.14989,0.4012c1.01325,1.34425 1.27979,4.15218 1.27979,5.36721c0,1.18776 0.34752,3.25374 -0.00421,4.61499c-0.18965,0.73398 -0.67543,1.49324 -0.67543,1.49324z" data-paper-data="{&quot;index&quot;:null}" fill="#ffff21"/><path d="M27.24779,34.06275c0,0 -0.48577,-0.75926 -0.67543,-1.49323c-0.35174,-1.36124 -0.00422,-3.42724 -0.00422,-4.61499c0,-1.21504 0.26655,-4.02295 1.27979,-5.36721c0.59392,-0.78794 1.28583,-0.4012 1.28583,-0.4012c0,0 -0.02582,0.9489 -0.04031,2.15557c-0.01576,1.31367 -0.15399,2.93286 -0.09489,3.96573c0.11315,1.97725 1.18861,5.75532 1.18861,5.75532z" fill="#ffff21"/><path d="M29.69998,33.57236c0,0 0.40218,0.97105 0.64602,1.65665c0.11731,0.32986 0.61011,1.15712 1.05203,2.13767c0.51507,1.14291 1.20766,2.14289 1.52462,2.54228c1.15383,1.45389 2.55539,2.47803 1.90916,2.38232c-0.65243,-0.09661 -1.64204,0.13723 -2.46496,-0.2306c-0.0998,-0.04459 -2.25801,-1.89591 -2.73611,-2.38124c-0.83353,-0.84616 -1.3285,-2.49235 -2.0332,-3.70895c-0.37998,-0.65599 -0.61901,-2.58337 -0.61901,-2.58337z" data-paper-data="{&quot;index&quot;:null}" fill="#ffa20f"/><path d="M28.96565,28.01684c0,-0.8755 -0.43051,-3.44655 1.27756,-5.23206c2.36856,-2.47594 8.06549,-3.1537 10.95327,-3.27079c2.59703,-0.1053 6.21369,-0.06531 9.55056,0.71565c3.65355,0.8551 7.06174,2.46339 10.61456,2.46339c5.77641,0 16.25593,-5.2099 20.5554,-3.8917c0.38138,0.11693 1.73069,0.4057 3.52919,0.76359c1.1022,0.21932 2.7101,0.03045 3.86798,0.45003c2.90767,1.05364 5.14111,3.05921 5.29605,3.80823c0.639,3.08899 -0.73483,12.08879 -4.72287,17.17294c-2.48634,3.16971 -11.57787,3.32726 -20.94915,0.71556c-1.09905,-0.30629 -1.76783,-2.20152 -2.65355,-3.74858c-1.17167,-2.0465 -2.55308,-3.82349 -4.14049,-3.85081c-0.79412,-0.01366 -2.04751,0.33734 -2.68171,0.90064c-1.9795,1.7582 -2.87781,5.58467 -5.47672,6.84581c-3.19744,1.55156 -6.78282,1.42298 -10.06272,1.46571c-2.9378,0.03828 -5.63051,0.37077 -7.57984,-0.3974c-5.84735,-2.30427 -7.37751,-12.31912 -7.37751,-14.91018z" fill="#000002"/><path d="M83.93769,36.45491c-3.80825,0 -15.45608,-5.71313 -14.14086,-10.35123c0.65317,-2.30341 6.56781,-3.33137 8.45911,-3.33137c2.60823,0 9.96687,0.66226 11.47864,3.77049c1.17461,2.41501 0.0767,7.083 -2.08929,9.2134c-1.13804,1.11935 -2.64283,0.69871 -3.7076,0.69871z" fill="#828892"/><path d="M49.46794,36.68218c-3.72017,0 -15.09861,-5.58101 -13.81382,-10.11184c0.63806,-2.25014 6.41591,-3.25433 8.26346,-3.25433c2.54792,0 9.73636,0.64694 11.21318,3.6833c1.14745,2.35917 0.07492,6.9192 -2.04097,9.00032c-1.11173,1.09346 -2.5817,0.68256 -3.62184,0.68256z" fill="#828892"/><path d="M29.11678,22.15216c0,0 0.64611,-1.57995 2.20941,-2.49889c1.62933,-0.95775 4.12604,-1.68087 5.7933,-1.68087c1.91671,0 8.24271,-1.13754 13.58253,-0.08429c3.81455,0.75241 6.94017,3.54906 10.87313,3.46978c3.571,-0.07198 6.58002,-2.04196 9.69219,-2.86348c4.52456,-1.19435 8.9644,-1.32367 13.14891,-0.99177c8.15137,0.64653 10.20039,4.1398 10.20039,4.1398v3.12632c0,0 -0.18871,-1.06344 -2.03121,-2.56073c-1.07102,-0.87036 -2.25088,-2.06545 -5.45354,-2.37907c-2.92795,-0.28672 -6.37722,-1.00265 -10.20446,-0.50513c-4.64122,0.60333 -10.77115,3.97463 -15.3839,3.99962c-4.87615,0.02642 -8.54234,-2.63907 -12.351,-3.21943c-4.01584,-0.61194 -9.13598,-0.09268 -11.12154,-0.09268c-5.3721,0 -9.05613,5.52204 -9.05613,5.52204z" fill="#494d53"/></g><g stroke="none" stroke-width="0" stroke-linecap="butt"><path d="M22.67545,10.10538c0,0 1.89983,-3.00206 3.7488,-3.30434c1.86059,-0.30418 8.09037,-0.72967 12.45472,-1.03777c5.02456,-0.3547 12.15575,-0.50338 12.15575,-0.50338c0,0 10.39597,0.59843 14.99916,1.02664c3.89059,0.36192 10.84346,1.82807 10.84346,1.82807l2.58641,0.601c0,0 -6.70399,0.14684 -11.15343,0.09394c-3.71033,-0.04411 -8.09219,0.38034 -11.41004,0.43226c-9.64408,0.1509 -34.22481,0.86359 -34.22481,0.86359z" fill="#2e111f"/><path d="M22.33813,10.0384c0,0 -2.76949,-11.63102 0.01519,-16.94723c2.25289,-4.30097 7.3338,-14.63763 12.5054,-19.63156c3.42389,-3.30625 7.93187,-2.97393 7.93187,-2.97393c0,0 7.70063,-0.57448 15.94636,0.14062c8.17967,0.70937 16.88764,3.21102 21.14315,4.30207c4.39062,1.1257 10.64591,8.30309 10.64591,8.30309c0,0 23.24891,28.35728 22.41334,33.63527c-0.64825,4.0948 -10.31259,5.1727 -10.31259,5.1727c0,0 12.8302,-4.1076 0.7903,-8.53217c-6.96326,-2.55894 -21.56142,-7.26188 -35.10077,-9.15951c-6.02153,-0.84396 -21.87743,-2.27749 -32.85701,-0.43566c-8.36605,1.40341 -13.12115,6.12631 -13.12115,6.12631z" fill="#fa3510"/><path d="M51.38415,-2.2024c1.45669,0.04743 3.61319,-0.3005 6.15554,-0.06763c6.47588,0.59316 15.4552,2.30407 21.74904,4.33611c3.20014,1.03321 6.68855,1.90778 9.87208,3.16021c8.55505,3.36561 16.89914,6.98097 19.82833,10.78328c0.41533,0.53912 0.5381,2.61252 -0.46869,3.22406c-0.53086,0.32246 -2.2945,2.0531 -4.25119,2.72118c-2.19993,0.75113 -6.04933,0.42692 -6.04933,0.42692c0,0 4.67549,-5.0857 -2.67733,-7.91541c-0.92481,-0.35592 -4.97161,-3.17929 -10.7583,-4.63748c-7.10904,-1.79144 -15.91957,-2.88844 -20.73659,-3.41539c-11.12046,-1.2165 -21.01809,-0.84676 -27.76483,-0.35388c-5.73272,0.41879 -9.19052,0.89517 -9.19052,0.89517c0,0 0.91449,-0.9785 2.64232,-1.63826c2.66695,-1.01836 6.96007,-1.90045 10.39908,-2.09243c3.27382,-0.18275 9.37109,-0.74428 14.84296,-0.60481c7.65325,0.19505 14.85214,1.94985 14.85214,1.94985c0,0 -2.87664,-1.48651 -6.44287,-2.72097c-5.73705,-1.9859 -13.10532,-4.08639 -12.00188,-4.05048z" fill="#900407"/><path d="M93.59176,13.37371c0,0 7.75468,3.35499 10.24033,5.47883c0.71677,0.61244 -0.42742,1.49278 -0.42742,1.49278c0,0 -3.30121,1.40221 -4.44673,1.91601c-1.03192,0.46285 -1.20366,0.93333 -1.20366,0.93333c0,0 -0.94722,-1.14351 -1.67177,-2.9581c-0.24092,-0.60334 -1.23653,-1.42324 -1.66464,-2.64123c-0.72577,-2.06482 -0.8261,-4.22163 -0.8261,-4.22163z" fill="#2e111f"/></g></g><path d="" fill="#200c50" fill-rule="nonzero" stroke="#000000" stroke-width="0" stroke-linecap="butt"/><path d="" fill="#200c50" fill-rule="nonzero" stroke="#000000" stroke-width="0" stroke-linecap="butt"/><path d="" fill="#200c50" fill-rule="nonzero" stroke="#000000" stroke-width="0" stroke-linecap="butt"/><path d="" fill="#200c50" fill-rule="nonzero" stroke="#000000" stroke-width="0" stroke-linecap="butt"/><path d="" fill="#200c50" fill-rule="nonzero" stroke="#000000" stroke-width="0" stroke-linecap="butt"/><path d="" fill="#200c50" fill-rule="nonzero" stroke="#000000" stroke-width="0" stroke-linecap="butt"/><path d="" fill="#200c50" fill-rule="nonzero" stroke="#000000" stroke-width="0" stroke-linecap="butt"/><path d="" fill="#200c50" fill-rule="nonzero" stroke="#000000" stroke-width="0" stroke-linecap="butt"/><path d="" fill="#200c50" fill-rule="nonzero" stroke="#000000" stroke-width="0" stroke-linecap="butt"/><path d="M429.39457,300.6103c-0.57113,0 -1.03411,-0.46299 -1.03411,-1.03411c0,-0.57113 0.46299,-1.03413 1.03411,-1.03413c0.57113,0 1.03411,0.463 1.03411,1.03413c0,0.57113 -0.46299,1.03411 -1.03411,1.03411z" fill="#000000" fill-rule="nonzero" stroke="none" stroke-width="1.5" stroke-linecap="butt"/><path d="M424.13469,304.8459c-4.4635,-0.31439 -6.55245,-1.79392 -6.16985,-2.58011c0.11788,-0.24224 2.84645,1.06355 6.97038,1.3048c6.40897,0.37493 8.51033,-0.63173 8.51033,-0.63173v1.34616c0,0 -2.4135,1.04672 -9.31086,0.56089z" fill="#000000" fill-rule="nonzero" stroke="#000000" stroke-width="0" stroke-linecap="butt"/><path d="M396.32194,299.57619c0,-0.57113 0.46299,-1.03413 1.03411,-1.03413c0.57113,0 1.03413,0.463 1.03413,1.03413c0,0.57113 -0.463,1.03411 -1.03413,1.03411c-0.57113,0 -1.03411,-0.46299 -1.03411,-1.03411z" fill="#000000" fill-rule="nonzero" stroke="none" stroke-width="1.5" stroke-linecap="butt"/><path d="M402.61593,304.8459c-6.89736,0.48585 -9.31086,-0.56089 -9.31086,-0.56089v-1.34616c0,0 2.10136,1.00666 8.51033,0.63173c4.12393,-0.24126 6.85251,-1.54704 6.97039,-1.3048c0.3826,0.78618 -1.70634,2.26571 -6.16985,2.58011z" fill="#000000" fill-rule="nonzero" stroke="#000000" stroke-width="0" stroke-linecap="butt"/><path d="M413.89639,361.39764c-0.81895,0 -1.48284,-0.66389 -1.48284,-1.48284c0,-0.81895 0.66389,-1.48284 1.48284,-1.48284c0.81895,0 1.48284,0.66389 1.48284,1.48284c0,0.81895 -0.66389,1.48284 -1.48284,1.48284z" data-paper-data="{&quot;index&quot;:null}" fill="#000000" fill-rule="nonzero" stroke="none" stroke-width="1.5" stroke-linecap="butt"/><path d="M386.89215,407.26623l0.14286,-80.47619c0,0 -9.10421,-1.14654 -12.35094,-2.01441c-2.96214,-0.7918 -6.3541,-2.98559 -6.3541,-2.98559c0,0 0.87483,-14.03502 2.02067,-24.91417c2.27499,-21.59981 9.39245,-47.99074 42.70212,-48.02477c34.00667,-0.03474 41.73919,23.12012 44.36767,44.30463c1.69491,13.66031 3.03144,28.7547 3.03144,28.7547c0,0 -3.40232,2.15153 -6.22052,2.88495c-3.3421,0.86976 -12.52967,1.99467 -12.52967,1.99467l-0.57143,79.33333z" fill="#fa340f" fill-rule="nonzero" stroke="none" stroke-width="0" stroke-linecap="butt"/><path d="M428.26814,250.38628c0,13.53098 -7.67766,31.92857 -13.78571,31.92857c-5.25091,0 -14.67173,-17.82069 -14.67173,-31.35167c0,-0.79124 5.49073,-1.99088 11.64853,-2.28897c7.86091,-0.38052 16.80891,0.37347 16.80891,1.71207z" fill="#ffffff" fill-rule="nonzero" stroke="none" stroke-width="0" stroke-linecap="butt"/><path d="M384.14666,326.29128l1.9881,-30.07143l0.66667,30.57143z" fill="#c70b12" fill-rule="nonzero" stroke="none" stroke-width="0" stroke-linecap="butt"/><path d="M441.81333,326.70795l0.72945,-30.57143l2.17531,30.07143z" data-paper-data="{&quot;index&quot;:null}" fill="#c70b12" fill-rule="nonzero" stroke="none" stroke-width="0" stroke-linecap="butt"/><g stroke-linecap="butt"><path d="M63.38638,410.73435v-128.06723h27.2v128.06723z" fill="#0ce2fe" fill-rule="nonzero" stroke="#e55e5e" stroke-width="0"/><path d="M57.75962,256.3329c1.04358,5.71954 2.80087,11.30019 5.27061,16.74194c2.77296,4.84772 12.6914,9.92115 12.6914,9.92115v29.0165c0,0 -16.16504,-18.53915 -24.78279,-26.22618c-4.30888,-2.98627 -9.06297,-4.12285 -14.26165,-3.41039c3.21321,-11.81608 10.24048,-20.49709 21.08244,-26.04301z" fill="#03348c" fill-rule="evenodd" stroke="none" stroke-width="1" opacity="0.993"/><path d="M96.20405,256.3329c10.85125,5.57879 17.87915,14.25979 21.08244,26.04301c-6.06678,-0.78687 -11.44094,0.76331 -16.12187,4.65054c-7.8098,7.49791 -22.92258,24.45269 -22.92258,24.45269c0,0 0.3,-26.62294 0.3,-28.48316c2.43254,-0.803 5.00634,-1.93958 7.12079,-3.41039c5.95889,-6.60066 9.47284,-14.35156 10.54122,-23.25269z" fill="#02348b" fill-rule="evenodd" stroke="none" stroke-width="1" opacity="0.993"/><path d="M75.12166,281.13577h3.82043v7.60753l-3.7837,0.08334c0,0 0.06327,-7.07079 0.06327,-7.69086z" fill="#fafbfc" fill-rule="evenodd" stroke="none" stroke-width="1"/><path d="M36.67719,282.37591c5.19868,-0.71246 9.95277,0.42413 14.26165,3.41039c8.61775,7.68703 24.80287,25.11291 24.80287,25.11291c0,0 0,0.82655 0,1.24014c-2.25706,2.67003 -4.73734,5.15032 -7.44086,7.44086c-5.83115,-9.67746 -12.65194,-18.6685 -20.46237,-26.97312c-3.2343,-3.26964 -7.16121,-4.81982 -11.78136,-4.65054c0.00496,-1.88812 0.21145,-3.74833 0.62007,-5.58065z" fill="#f8f909" fill-rule="evenodd" stroke="none" stroke-width="1" opacity="0.996"/><path d="M117.28651,282.37591c0.2871,1.84905 0.49358,3.70927 0.62007,5.58065c-4.62016,-0.16928 -8.54707,1.3809 -11.78136,4.65054c-2.60554,2.39782 -4.98228,4.98103 -7.13083,7.75089c-4.56559,6.31481 -9.21612,12.51553 -13.95161,18.60216c-2.41518,-2.15351 -4.68836,-4.42732 -6.82079,-6.82079c0,-0.41359 0,-1.3068 0,-1.3068c0,0 15.27983,-16.44929 22.94265,-23.8061c4.68092,-3.88723 10.05509,-5.43741 16.12187,-4.65054z" fill="#f7f80b" fill-rule="evenodd" stroke="none" stroke-width="1" opacity="0.996"/><path d="M36.05708,287.95656c4.62016,-0.16928 8.54707,1.3809 11.78136,4.65054c7.81043,8.30462 14.63121,17.29566 20.46237,26.97312c-1.00266,2.03632 -2.44928,3.69005 -4.3405,4.96058c-4.92895,-6.99689 -10.09663,-13.81768 -15.5018,-20.46237c0.09921,-1.0535 -0.00372,-2.08716 -0.31003,-3.10035c-2.40774,-2.20126 -4.99095,-4.16503 -7.75089,-5.89069c-1.64071,-0.30818 -3.29444,-0.41172 -4.96058,-0.31003c0.03224,-2.29302 0.23934,-4.56683 0.62007,-6.82079z" fill="#060f1f" fill-rule="evenodd" stroke="none" stroke-width="1" opacity="0.993"/><path d="M117.90658,287.95656c0.38072,2.25396 0.58783,4.52776 0.62007,6.82079c-5.30782,-0.1885 -9.54477,1.8782 -12.71147,6.20072c-0.30631,1.01319 -0.40924,2.04685 -0.31003,3.10035c-5.40517,6.64469 -10.57285,13.46548 -15.5018,20.46237c-2.08406,-1.48507 -3.73779,-3.34529 -4.96057,-5.58065c4.73549,-6.08662 9.38602,-12.28735 13.95161,-18.60216c2.14855,-2.76986 4.52528,-5.35308 7.13083,-7.75089c3.23429,-3.26964 7.16121,-4.81982 11.78136,-4.65054z" fill="#050f1f" fill-rule="evenodd" stroke="none" stroke-width="1" opacity="0.994"/><path d="M35.43705,294.77734c1.66613,-0.10169 3.31986,0.00186 4.96058,0.31003c2.75994,1.72566 5.34315,3.68943 7.75089,5.89069c0.30632,1.01319 0.40924,2.04685 0.31003,3.10035c-0.28709,1.84905 -0.49357,3.70927 -0.62007,5.58065c-2.33705,-2.64832 -4.81733,-5.23216 -7.44086,-7.75089c-1.49375,-1.05846 -3.14687,-1.57498 -4.96058,-1.55018c0,-1.86022 0,-3.72043 0,-5.58065z" fill="#f405e3" fill-rule="evenodd" stroke="none" stroke-width="1" opacity="0.973"/><path d="M118.52667,294.77734c0,1.86022 0,3.72043 0,5.58065c-1.8999,-0.22074 -3.55363,0.29578 -4.96058,1.55018c-2.62352,2.51873 -5.10381,5.10257 -7.44086,7.75089c-0.12649,-1.87138 -0.33297,-3.73159 -0.62007,-5.58065c-0.09921,-1.0535 0.00372,-2.08716 0.31003,-3.10035c3.1667,-4.32252 7.40366,-6.38922 12.71147,-6.20072z" fill="#f505e4" fill-rule="evenodd" stroke="none" stroke-width="1" opacity="0.967"/><path d="M35.43705,300.35799c1.81371,-0.0248 3.46682,0.49172 4.96058,1.55018c2.62353,2.51873 5.10381,5.10257 7.44086,7.75089c-0.10293,2.48897 0.00062,4.96926 0.31003,7.44087c2.65018,5.09947 5.44051,10.06004 8.37097,14.88172c-2.98254,3.10098 -6.18646,5.99424 -9.61111,8.681c-0.37886,14.46751 -0.6889,55.60293 -0.9301,70.07169c-3.51395,0 -7.02728,0 -10.54122,0c0,-23.14914 0,-72.96556 0,-96.1147c1.5849,0.64674 2.9286,1.6804 4.03046,3.10036c2.63717,4.23943 5.11745,8.57993 7.44086,13.0215c0.41359,-4.13402 0.41359,-8.26741 0,-12.40143c-2.32775,-3.57038 -5.11807,-6.77428 -8.37097,-9.61111c-0.94561,-0.62565 -1.97927,-0.93569 -3.10036,-0.93011c0,-2.48029 0,-4.96058 0,-7.44086z" fill="#020d20" fill-rule="evenodd" stroke="none" stroke-width="1" opacity="0.966"/><path d="M118.52667,300.35799c0,2.48029 0,4.96058 0,7.44086c-0.85136,-0.09735 -1.67853,0.0062 -2.48028,0.31004c-3.45876,3.04269 -6.45556,6.45308 -8.99104,10.23118c-0.41359,3.92692 -0.41359,7.85445 0,11.78136c2.48028,-4.13402 4.96058,-8.26741 7.44086,-12.40143c1.10186,-1.41996 2.44556,-2.45362 4.03046,-3.10036c0,23.14914 0,72.96556 0,96.1147c-3.51394,0 -7.02728,0 -10.54122,0c-0.37205,-14.87862 -0.57853,-56.42701 -0.62007,-71.31183c-1.41562,-0.06697 -2.65576,-0.58349 -3.72043,-1.55018c-2.37736,-1.65435 -4.44406,-3.61811 -6.20072,-5.89068c2.93046,-4.82168 5.72078,-9.78225 8.37097,-14.88172c0.30942,-2.47161 0.41297,-4.9519 0.31004,-7.44087c2.33705,-2.64832 4.81734,-5.23216 7.44086,-7.75089c1.40695,-1.2544 3.06068,-1.77093 4.96058,-1.55018z" fill="#020d1f" fill-rule="evenodd" stroke="none" stroke-width="1" opacity="0.954"/><path d="M48.45858,304.07842c5.40517,6.64469 10.57285,13.46548 15.5018,20.46237c-2.27381,2.68677 -4.75409,5.16705 -7.44086,7.44086c-2.93046,-4.82168 -5.72079,-9.78225 -8.37097,-14.88172c-0.30942,-2.47161 -0.41296,-4.9519 -0.31003,-7.44087c0.1265,-1.87138 0.33298,-3.73159 0.62007,-5.58065z" fill="#fa64f0" fill-rule="evenodd" stroke="none" stroke-width="1"/><path d="M105.50515,304.07842c0.2871,1.84905 0.49358,3.70927 0.62007,5.58065c0.10293,2.48897 -0.00062,4.96926 -0.31004,7.44087c-2.65019,5.09947 -5.44051,10.06004 -8.37097,14.88172c-2.68677,-2.27381 -5.16706,-4.75409 -7.44086,-7.44086c4.92895,-6.99689 10.09663,-13.81768 15.5018,-20.46237z" fill="#fa64f1" fill-rule="evenodd" stroke="none" stroke-width="1"/><path d="M35.43705,307.79885c1.12109,-0.00558 2.15475,0.30446 3.10036,0.93011c3.25289,2.83683 6.04322,6.04073 8.37097,9.61111c0.41359,4.13402 0.41359,8.26742 0,12.40143c-2.32341,-4.44157 -4.8037,-8.78207 -7.44086,-13.0215c-1.10187,-1.41996 -2.44556,-2.45362 -4.03046,-3.10036c0,-2.27381 0,-4.54698 0,-6.82079z" fill="#0059f3" fill-rule="evenodd" stroke="none" stroke-width="1" opacity="0.975"/><path d="M118.52667,307.79885c0,2.27381 0,4.54698 0,6.82079c-1.5849,0.64674 -2.9286,1.6804 -4.03046,3.10036c-2.48028,4.13402 -4.96058,8.26742 -7.44086,12.40143c-0.41359,-3.92692 -0.41359,-7.85445 0,-11.78136c2.53548,-3.7781 5.53228,-7.18849 8.99104,-10.23118c0.80176,-0.30383 1.62892,-0.40739 2.48028,-0.31004z" fill="#0059f3" fill-rule="evenodd" stroke="none" stroke-width="1" opacity="0.97"/><path d="M75.74174,312.13936c0,23.97632 0,74.61867 0,98.59499c-9.92115,0 -19.84229,0 -29.76344,0c0.24121,-14.46875 0.55124,-55.60417 0.9301,-70.07169c3.42466,-2.68677 6.62857,-5.58003 9.61111,-8.681c2.68677,-2.27381 5.16706,-4.75409 7.44086,-7.44086c1.89122,-1.27052 3.33784,-2.92426 4.3405,-4.96058c2.70352,-2.29055 5.1838,-4.77083 7.44086,-7.44086z" fill="#018dfd" fill-rule="evenodd" stroke="none" stroke-width="1"/><path d="M78.22203,312.13936c2.13243,2.39347 4.40561,4.66728 6.82079,6.82079c1.22278,2.23536 2.87651,4.09557 4.96057,5.58065c2.2738,2.68677 4.75409,5.16705 7.44086,7.44086c1.75666,2.27257 3.82337,4.23633 6.20072,5.89068c1.06466,0.96669 2.3048,1.48321 3.72043,1.55018c0.04154,14.88482 0.24802,56.43321 0.62007,71.31183c-9.92115,0 -19.84229,0 -29.76344,0c0,-23.97631 0,-74.61867 0,-98.59499z" fill="#008dfd" fill-rule="evenodd" stroke="none" stroke-width="1"/><path d="M96.20861,256.1329c-1.06838,8.90113 -4.58233,16.65203 -10.54122,23.25269c-2.11444,1.47081 -4.38825,2.6074 -6.82079,3.41039c0,-0.62007 0,-1.24014 0,-1.86021c1.14031,-3.80166 -0.20338,-5.0418 -4.03047,-3.72043c-0.42041,1.30091 -0.31686,2.54106 0.31003,3.72043c0,0.62007 0,1.24014 0,1.86021c-5.28797,-1.76658 -9.31844,-5.07343 -12.0914,-9.92115c-2.46974,-5.44175 -4.22703,-11.0224 -5.27061,-16.74194c0.79059,-7.29825 4.92461,-11.1216 12.40144,-11.47132c6.97146,-0.82098 13.79226,-0.20091 20.46237,1.86021c3.56913,2.22233 5.42935,5.42624 5.58064,9.61111z" fill="#0259f3" fill-rule="evenodd" stroke="none" stroke-width="1" opacity="0.98"/><path d="M79.81972,279.15051c0,1.58782 -1.26853,2.875 -2.83334,2.875c-1.56481,0 -2.83333,-1.28718 -2.83333,-2.875c0,-1.58782 1.26852,-2.875 2.83333,-2.875c1.56481,0 2.83334,1.28718 2.83334,2.875z" fill="#f7f91d" fill-rule="nonzero" stroke="#e55e5e" stroke-width="0"/><path d="M69.54099,247.6519c5.82309,-0.21889 11.61084,0.09116 17.36201,0.93011c5.33324,2.08902 7.297,5.91238 5.89068,11.47133c-1.15086,4.25307 -3.52759,7.66347 -7.13082,10.23118c-3.02781,1.58863 -5.92106,3.34529 -8.681,5.27061c-5.14102,-2.31845 -9.58506,-5.6253 -13.33154,-9.92115c-2.78226,-4.06519 -3.40234,-8.40569 -1.86022,-13.0215c1.89742,-2.84551 4.48064,-4.49862 7.7509,-4.96058z" fill="#010c1f" fill-rule="evenodd" stroke="none" stroke-width="1"/></g><g stroke-linecap="butt"><path d="M9.80071,327.29563c0,0 -0.59757,59.15522 -0.81686,62.93026c-23.22681,0 -50.28694,0 -73.51375,0c-0.12199,-1.20563 -8.45675,-65.67563 -2.40066,-66.57659c14.86949,-2.21213 76.73127,3.64633 76.73127,3.64633z" fill="#fd3609" fill-rule="evenodd" stroke="none" stroke-width="1"/><path d="M-57.44757,258.54627c-0.23568,7.79464 0.21997,15.53668 1.36628,23.22681c-4.39601,-1.17227 -8.26738,-3.22169 -11.6134,-6.14827c1.50701,-6.8929 4.92272,-12.58551 10.24712,-17.07853z" fill="#950b14" fill-rule="evenodd" stroke="none" stroke-width="1" opacity="0.991"/><path d="M7.45088,259.91256c3.77231,5.15567 6.50487,10.84828 8.1977,17.07853c-2.80703,2.31448 -5.99457,3.90825 -9.56398,4.78199c0.35182,-7.39569 0.80747,-14.68276 1.36628,-21.86052z" fill="#970b14" fill-rule="evenodd" stroke="none" stroke-width="1" opacity="0.985"/><path d="M-56.08125,281.77308c1.59718,7.06846 3.87409,13.89988 6.83141,20.49424c-7.43668,-1.56713 -14.49558,-4.07221 -21.17738,-7.51455c0.30331,-4.32565 1.87112,-17.24386 2.73256,-19.12796c0,0 7.2174,4.976 11.61341,6.14827z" fill="#650c17" fill-rule="evenodd" stroke="none" stroke-width="1" opacity="0.995"/><path d="M15.64859,276.99109c2.0747,5.87843 2.98601,12.0267 2.73257,18.44482c-5.76845,3.44098 -11.91672,5.94538 -18.44482,7.51455c-0.37095,-0.04099 -0.59843,-0.26847 -0.68314,-0.68314c3.11922,-6.55679 5.39613,-13.3882 6.83141,-20.49424c3.56941,-0.87374 6.75695,-2.46751 9.56398,-4.78199z" fill="#650c17" fill-rule="evenodd" stroke="none" stroke-width="1" opacity="0.992"/><path d="M-70.42721,294.75278c6.68181,3.44235 13.74071,5.94743 21.17738,7.51455c1.46534,2.00365 2.94571,4.05308 4.44042,6.14827c9.69651,10.55795 20.96834,12.49329 33.8155,5.8067c3.89117,-3.61928 7.53437,-7.37656 10.93026,-11.27183c6.5281,-1.56918 12.67637,-4.07357 18.44482,-7.51455c0,5.92079 0,11.84089 0,17.76168c-2.75921,1.37926 -5.49177,2.74555 -8.1977,4.09885c-24.43592,12.89747 -48.57336,14.89747 -72.41298,0c-2.51533,-1.71332 -5.24789,-3.0796 -8.1977,-4.09885c0,-6.14827 0,-12.29654 0,-18.44482z" fill="#f8330f" fill-rule="evenodd" stroke="none" stroke-width="1" opacity="0.996"/><path d="M-70.42721,313.19757c2.9498,1.01925 5.84904,2.38553 8.36437,4.09885c0,5.69262 0.5,11.38592 0.5,17.07853c-2.86646,-0.87784 -6.2657,-2.01663 -8.86437,-3.41571c0,-5.92079 0,-11.84089 0,-17.76168z" fill="#640c17" fill-rule="evenodd" stroke="none" stroke-width="1" opacity="0.978"/><path d="M-62.06286,317.29643c24.17296,10.89747 48.31039,10.89747 72.41298,0c-0.20696,5.40706 -0.22749,19.8111 -0.68314,21.17738c-11.31624,5.24653 -21.56043,6.60065 -35.86492,6.83141c-14.30449,0.23075 -26.07831,-1.40817 -36.07354,-5.67091c-1.2105,-0.51626 0.08907,-3.81041 0.20862,-5.25934c0,-5.69262 0,-11.38592 0,-17.07853z" fill="#960c14" fill-rule="evenodd" stroke="none" stroke-width="1"/><path d="M-70.42721,330.95926c2.59867,1.39907 5.49791,2.20454 8.36437,3.08238c-0.11955,1.44894 -0.38733,12.50008 -0.16667,16.72872c-3.10966,-0.64352 -5.84222,-2.0098 -8.1977,-4.09885c0,-5.23764 0,-10.47461 0,-15.71225z" fill="#c60c12" fill-rule="evenodd" stroke="none" stroke-width="1" opacity="0.972"/><path d="M-70.42721,346.67151c2.35547,2.08905 5.08804,3.45533 8.1977,4.09885c-0.02725,2.05977 0.20024,5.85384 0.01647,8.88084c23.61961,6.78018 48.5739,6.32452 71.86356,-1.36628c0.0076,-2.39918 0.01647,-6.83141 0.01647,-6.83141c0,0 6.02328,-2.18469 8.71417,-4.09885c0,5.69262 0,11.38592 0,17.07853c-2.68475,1.88547 -5.6448,3.25175 -8.88084,4.09885c-0.48571,3.67735 -0.19961,10.93026 -0.19961,10.93026c0,0 -49.34485,5.18436 -71.79765,-0.68314c-1.1378,-2.87081 -2.0225,-5.90978 -1.93703,-9.11692c0.00998,-0.37444 -3.58652,-2.46916 -6.67637,-4.54591c0.4905,-6.13598 0.71866,-12.28425 0.68314,-18.44482z" fill="#650c17" fill-rule="evenodd" stroke="none" stroke-width="1" opacity="0.997"/><path d="M18.38115,364.43318c0,5.00948 0,10.01963 0,15.02911c-2.71822,1.12992 -5.45078,2.26871 -8.1977,3.41571c-0.67563,2.46409 -0.9038,4.96917 -0.68314,7.51455c-0.22749,0 -0.45566,0 -0.68314,0c0.21929,-3.77504 0.31686,-10.93026 0.31686,-10.93026c0,0 -0.11943,-7.25291 0.36628,-10.93026c3.23604,-0.8471 6.19609,-2.21338 8.88084,-4.09885z" fill="#c50d11" fill-rule="evenodd" stroke="none" stroke-width="1" opacity="0.979"/><path d="M-71.11035,365.11634c3.08985,2.07675 8.38162,4.56421 8.38162,4.56421l0.51569,14.71202c0,0 -5.95365,-2.65881 -8.89731,-3.56398c0,-5.23764 0,-10.47461 0,-15.71225z" fill="#c30d12" fill-rule="evenodd" stroke="none" stroke-width="1" opacity="0.967"/><path d="M-71.11035,380.82858c2.94366,0.90516 8.88084,2.73257 8.88084,2.73257l0.18314,6.83141c0,0 -5.87576,0 -9.06398,0c0,-3.18822 0,-6.37576 0,-9.56398z" fill="#640b17" fill-rule="evenodd" stroke="none" stroke-width="1" opacity="0.997"/><path d="M9.07952,271.0399c0,26.3716 -15.14507,47.75 -33.82747,47.75c-18.6824,0 -33.82747,-21.3784 -33.82747,-47.75c0,-26.3716 15.14507,-34.41666 33.82748,-34.41666c18.6824,0 33.82748,8.04507 33.82748,34.41666z" fill="#c70c11" fill-rule="nonzero" stroke="#e55e5e" stroke-width="0"/><path d="M0.5621,269.25444c0,20.19092 -11.3317,36.55889 -25.31005,36.55889c-13.97835,0 -25.31005,-16.36798 -25.31005,-36.55889c0,-20.19091 11.3317,-26.35047 25.31006,-26.35047c13.97836,0 25.31006,6.15956 25.31006,26.35047z" fill="#640c17" fill-rule="nonzero" stroke="#e55e5e" stroke-width="0"/><path d="M-0.61653,268.88714c0,18.81264 -10.80401,34.06331 -24.13143,34.06331c-13.32742,0 -24.13143,-15.25067 -24.13143,-34.06331c0,-18.81265 10.80401,-24.55174 24.13143,-24.55174c13.32742,0 24.13143,5.73909 24.13143,24.55174z" fill="#010c1f" fill-rule="nonzero" stroke="#e55e5e" stroke-width="0"/></g></g></g></svg>