<svg version="1.1" xmlns="http://www.w3.org/2000/svg" xmlns:xlink="http://www.w3.org/1999/xlink" width="98.0539" height="245.98306" viewBox="0,0,98.0539,245.98306"><g transform="translate(-191.4564,-59.42591)"><g data-paper-data="{&quot;isPaintingLayer&quot;:true}" fill-rule="nonzero" stroke="none" stroke-linecap="butt" stroke-linejoin="miter" stroke-miterlimit="10" stroke-dasharray="" stroke-dashoffset="0" style="mix-blend-mode: normal"><g><g fill="#000000"><path d="M200.5813,185.96092c0,-21.10292 18.15751,-38.21022 40.55593,-38.21022c22.39843,0 40.82079,17.1073 40.82079,38.21022c0,2.70002 0.0039,117.77204 0.0039,117.77204l-11.39983,-0.12964l-0.14337,-113.82486c0,0 0.46851,-2.08621 -1.77595,-2.22047c-2.48625,-0.14872 -2.11767,1.68282 -2.11767,1.68282l0.10343,114.38802l-50.32146,0.07847l0.10485,-114.20488c0,0 -0.19035,-2.13951 -1.8053,-2.16297c-2.01199,-0.02922 -1.98832,2.04221 -1.98832,2.04221l-0.29988,114.25674l-11.38239,0.22905c0,0 -0.35473,-116.42094 -0.35473,-117.90653z" stroke-width="0"/><g><path d="M230.02084,204.89619c-5.66213,0 -7.34973,-0.4705 -7.34973,-0.4705l-0.08286,-1.2733c0,0 5.25623,0.13066 7.69744,0.13066c4.20542,0 7.61458,-1.35635 7.61458,-0.87378c0,0.48257 -1.95246,2.48691 -7.87944,2.48691z" stroke-width="0"/><path d="M225.51829,199.65352c0,-0.55682 0.44467,-1.00821 0.99321,-1.00821c0.54854,0 0.99321,0.45139 0.99321,1.00821c0,0.55682 -0.44467,1.00821 -0.99321,1.00821c-0.54854,0 -0.99321,-0.45139 -0.99321,-1.00821z" stroke-width="0.5"/></g><g data-paper-data="{&quot;index&quot;:null}"><path d="M244.83605,202.40928c0,-0.48257 3.40916,0.87378 7.61458,0.87378c2.44121,0 7.69744,-0.13066 7.69744,-0.13066l-0.08286,1.2733c0,0 -1.6876,0.4705 -7.34973,0.4705c-5.92698,0 -7.87944,-2.00433 -7.87944,-2.48691z" stroke-width="0"/><path d="M256.2247,200.66172c-0.54853,0 -0.99321,-0.45139 -0.99321,-1.00821c0,-0.55682 0.44467,-1.00821 0.99321,-1.00821c0.54853,0 0.99321,0.45139 0.99321,1.00821c0,0.55682 -0.44467,1.00821 -0.99321,1.00821z" stroke-width="0.5"/></g><path d="M240.3833,253.12206c0,-0.55681 0.44467,-1.00821 0.99321,-1.00821c0.54854,0 0.99321,0.45139 0.99321,1.00821c0,0.55681 -0.44467,1.00821 -0.99321,1.00821c-0.54854,0 -0.99321,-0.45139 -0.99321,-1.00821z" stroke-width="0.5"/></g><path d="M214.42174,304.31128v-88.51799h53.21776v88.51799z" fill="#481310" stroke-width="0"/><g data-paper-data="{&quot;index&quot;:null}" stroke-width="0"><path d="M282.77522,264.79037v27.35138l-13.42704,2.32073v-27.35137z" fill="#773128"/><path d="M282.77522,280.90776c-4.26706,3.08047 -8.68428,5.94374 -13.42704,8.3519v-3.5441c4.95754,-3.08101 9.23247,-6.88013 13.42704,-10.79318z" fill="#894939"/><path d="M269.34817,279.89522c0.00673,-0.00853 0.01016,-0.01324 0.01016,-0.01324c3.60859,-4.93806 7.25927,-9.82389 10.96081,-14.66709l2.45607,-0.42451v6.7349c-4.24847,4.00682 -8.50719,7.9719 -13.42704,11.22429z" fill="#894939"/></g><g stroke-width="0"><path d="M269.3482,263.54988v-27.35137l13.42704,2.32073v27.35138z" fill="#773128"/><path d="M282.77522,255.73861c-4.19457,-3.91305 -8.4695,-7.71216 -13.42704,-10.79318v-3.5441c4.74276,2.40816 9.15999,5.27143 13.42704,8.3519z" fill="#894939"/><path d="M269.34817,247.91141c4.91985,3.25239 9.17856,7.21747 13.42704,11.22429v6.7349l-2.45607,-0.42451c-3.70154,-4.8432 -7.35223,-9.72903 -10.96081,-14.66709c0,0 -0.00344,-0.0047 -0.01016,-0.01323z" fill="#894939"/></g><path d="M199.57632,214.77386v-5.00323c0,0 -3.44785,-20.89777 3.88043,-38.4724c5.27731,-12.65602 16.01623,-23.71547 38.25205,-23.40968c19.05733,0.26208 30.66463,9.52997 36.45197,21.03652c2.86782,5.70188 3.18487,11.91552 4.02079,17.73639c1.78841,12.45348 1.39639,23.10917 1.39639,23.10917l-1.05331,31.59936z" fill="#59220f" stroke-width="0"/><path d="M223.32296,165.08081c0,-7.98723 7.56929,-14.46216 16.90648,-14.46216c9.33719,0 16.90648,6.47493 16.90648,14.46216c0,7.98723 -7.56929,14.46217 -16.90648,14.46217c-9.33719,0 -16.90647,-6.47494 -16.90647,-14.46217z" fill="#000000" stroke-width="0"/><path d="M277.05823,177.6495c0.82742,5.09447 -2.06462,21.45046 -4.51628,30.58449c2.22692,0.34267 4.75119,0.88118 4.6701,1.554c-0.40683,3.37551 -5.65822,10.71433 -11.60997,13.71228c2.0915,2.35766 5.18822,6.00917 4.30509,6.00917c-4.21779,0 -22.06095,-6.25137 -37.9736,-13.48611c-0.18058,-1.77447 -0.43966,-3.52806 -0.7972,-5.25227c-2.17203,-10.37751 -6.71642,-22.23231 -15.90663,-28.4924c-2.16156,-1.47239 -4.94291,-2.43393 -7.51497,-3.24026c1.82276,-6.41328 4.62056,-11.67005 8.56379,-11.67005c5.36582,0 11.58576,19.03904 24.04588,17.64667c5.22674,-0.33707 12.98813,-2.93841 17.65681,-8.80522c4.77089,-5.99525 18.35728,-2.99163 19.077,1.43971z" fill="#6d4321" stroke-width="0"/><path d="M202.25261,200.54888c0,-4.03444 0.65319,-10.56192 2.08524,-16.55793c2.3107,0.71559 4.82345,1.57039 6.73234,2.88595c2.7359,1.88551 5.02511,4.29738 6.94125,7.02401c-0.17842,0.18116 -0.26678,0.3621 -0.26678,0.3621c-2.39508,4.90422 -4.5416,9.91199 -6.55226,14.97674c-5.41648,-3.3582 -8.93979,-6.43918 -8.93979,-8.69088z" fill="#6d4321" stroke-width="0"/><path d="M227.21029,216.98834c0.24515,1.15935 0.44321,2.33389 0.60082,3.5206c-4.80793,-2.25149 -9.35167,-4.56805 -13.18008,-6.79691c1.90623,-4.81933 3.93424,-9.58747 6.18254,-14.26344c3.2095,5.41469 5.17997,11.72639 6.39672,17.53975z" fill="#6d4321" stroke-width="0"/><path d="M263.39667,247.55339c0,3.02252 0.18204,12.96134 -0.1496,23.62193c-7.28787,-0.23966 -14.57498,-0.49454 -21.85794,-0.84028c-0.90716,-2.30896 -1.84385,-4.62839 -2.81047,-6.91714c-12.12163,-3.46794 -20.95454,-36.96213 -20.95454,-36.96213c0,0 16.17786,4.2505 29.87482,7.71179c8.98776,2.27125 15.89774,10.47159 15.89774,13.38584z" fill="#531915" stroke-width="0"/><path d="M254.41881,305.40896c-3.44146,0 -8.1388,-14.56407 -14.2233,-30.33921c4.22522,0.1953 8.45177,0.36139 12.67899,0.51299c-0.05788,0.51763 -0.48572,3.59835 -0.29245,4.37938c0.84607,3.41899 4.19116,5.72877 6.57149,8.10719c0.31254,0.31228 0.62981,0.61995 0.95124,0.92351c-0.94897,9.24105 -2.65303,16.41615 -5.68599,16.41615z" fill="#531915" stroke-width="0"/><path d="M265.03336,273.67368c-0.12987,3.35329 -0.31514,6.72998 -0.57701,9.94128c-1.92211,-1.77117 -4.78076,-3.84265 -5.36121,-6.31517c-0.27779,-1.18329 0.18878,-2.42403 0.32363,-3.63198c0,0 0.00799,-0.07189 0.00283,-0.18301c1.8705,0.06481 3.74111,0.12734 5.61177,0.18888z" fill="#531915" stroke-width="0"/></g><path d="M282.36126,141.13909c0,0 -10.02983,-0.07689 -11.03227,-1.00938c-0.7345,-0.68325 5.99687,-2.22477 5.99687,-2.22477l-2.64787,14.25166c0,0 -7.20692,1.26777 -11.01233,1.86204c-2.10907,0.32935 -1.39365,4.47172 -1.39365,4.47172c0,0 -4.4083,3.95756 -18.53632,4.2196c-2.68765,0.04985 -8.38556,0.51613 -14.49123,-2.46803c-3.4334,-1.67809 -6.35311,-4.18702 -8.30685,-6.13253c0.11245,-0.60034 0.17126,-1.21957 0.17126,-1.85254c0,-1.14301 -0.19177,-2.24123 -0.54489,-3.26424c-2.26178,-10.06424 -9.17788,-17.34918 -9.60417,-29.51744c-0.32146,-9.17574 1.29348,-18.86185 2.19421,-27.95829c0.15153,-1.53028 -0.10709,-4.22482 0.27911,-5.17608c0.6802,-1.67539 1.81445,-3.56497 1.24265,-5.28038c-1.14326,-3.42978 -2.39612,-5.81837 -4.01074,-7.29185c0.78332,-1.20728 1.69573,-2.45683 2.76231,-3.76041c6.13328,-7.49611 20.26726,-10.5208 28.68941,-10.58184c6.23566,-0.04519 23.15213,3.53469 29.04658,8.99434c1.63848,1.51762 5.96544,5.46139 5.96544,5.46139c0,0 -1.64929,1.44112 -2.48299,2.6995c1.72564,2.62541 2.53563,4.59281 5.43502,9.76234c4.16722,7.43003 5.94603,14.17289 5.94603,14.17289c0,0 -4.92404,2.63714 -9.50925,0.83156c-1.42883,-0.56265 5.19708,-6.18998 4.47006,-5.90214c0.42948,3.37328 0.46061,5.58737 0.46061,5.58737l8.06204,19.25848c0,0 -9.49852,2.00212 -11.89221,0.77037c-0.90822,-0.46736 9.12539,-7.54151 8.2382,-7.29544c0.38014,1.73803 -3.47463,5.02016 -2.83537,7.01229c1.55127,4.83423 -0.65968,20.35981 -0.65968,20.35981z" data-paper-data="{&quot;index&quot;:null}" fill="#000000" stroke-width="NaN"/><path d="M221.23869,138.94948l-0.19779,-0.04395l-0.05053,-0.85903z" data-paper-data="{&quot;index&quot;:null}" fill="#000000" stroke-width="NaN"/><path d="M197.22567,119.79661c0.63926,-1.99213 1.10513,-4.01408 1.48527,-5.75211c-3.22545,-0.89458 -7.25454,-4.45653 -7.25454,-4.45653l11.66257,-8.27687c0,0 0.03113,-2.2141 0.46061,-5.58738c-2.07057,-0.81978 -4.17554,-1.9983 -4.17554,-1.9983c0,0 7.08012,-13.15754 11.28598,-19.55638c-0.83371,-1.25838 -1.71441,-3.0838 -1.71441,-3.0838c0,0 2.78979,-0.86945 4.42828,-2.38707c5.89445,-5.45964 22.81092,-9.03953 29.04658,-8.99434c8.42215,0.06104 22.55613,3.08573 28.68941,10.58184c1.06658,1.30358 1.97899,2.55313 2.76231,3.76041c-1.61462,1.47348 -2.86748,3.86207 -4.01074,7.29185c-0.57181,1.71542 0.56244,3.60498 1.24265,5.28038c0.3862,0.95126 0.12759,3.6458 0.27912,5.17608c0.90072,9.09644 2.51566,18.78254 2.1942,27.95828c-0.42629,12.16827 -7.34239,19.45321 -9.60417,29.51745c-0.35312,1.02301 -0.54488,2.12123 -0.54488,3.26424c0,0.63297 0.05881,1.25221 0.17126,1.85254c-1.95374,1.94552 -4.87344,4.45444 -8.30685,6.13253c-6.10567,2.98416 -11.80358,2.51788 -14.49123,2.46803c-14.12802,-0.26204 -18.53632,-4.2196 -18.53632,-4.2196l-2.5785,-6.14072c-1.30747,0.07111 -3.36706,-0.16197 -5.47613,-0.49132c-3.80541,-0.59427 -7.77185,-1.50198 -7.77185,-1.50198c0,0 0.55965,-7.83706 0.77263,-12.45139c-4.64996,-0.23963 -13.85669,-1.62655 -13.85669,-1.62655c0,0 2.28971,-11.92505 3.84097,-16.75928z" fill="#000000" stroke-width="NaN"/><path d="M217.45346,147.07322c-1.12791,-6.71582 -0.20637,-6.94188 -1.0642,-13.44379c-0.47362,-3.58977 -2.15797,-7.18909 -2.73202,-11.13223c-1.20896,-8.30433 -1.27196,-25.65977 -0.47554,-29.40025c4.41933,-20.75585 15.3863,-24.96608 29.85603,-25.48425c20.77576,-0.74399 24.79696,12.48506 27.42961,23.79025c1.84023,7.90235 1.22737,18.92724 -0.34916,28.57116c-0.96559,5.90663 -2.47529,10.80823 -3.46814,15.58687c-1.22544,5.89815 -0.7524,7.76045 -1.86263,12.66938c-1.15349,5.10023 -6.83176,10.81045 -11.83191,15.83737c-4.57165,4.59612 -7.90818,8.33063 -12.38271,8.22359c-5.04445,-0.12068 -8.96195,-6.22631 -14.50155,-12.44391c-4.38889,-4.92605 -8.03319,-9.29321 -8.61781,-12.77419z" fill="#000000" stroke-width="0"/><path d="M266.67601,123.63274c-0.04558,0.22121 1.06922,-0.05581 1.0177,0.16612c-0.65882,2.83831 -1.43442,5.55499 -2.06444,8.1239c-0.87304,3.55983 -7.94751,7.87132 -7.94751,7.87132c0,0 6.18138,3.6477 5.93237,4.88074c-1.44877,7.17412 -1.89749,7.23551 -4.27323,10.21882c-2.5746,3.23301 -6.22007,6.15229 -9.11253,8.91074c-2.62204,2.50056 -5.47801,6.21315 -8.77908,6.21315c-4.10432,0 -6.9048,-3.78999 -10.07829,-7.4154c-4.16404,-4.75701 -9.74454,-7.22321 -12.17315,-14.27505c-0.25896,-0.75192 9.31159,-5.27064 9.31159,-5.27064c0,0 -4.89427,7.97889 -5.74686,-0.95267c-0.13224,-1.1816 5.73929,-0.74072 5.73929,-0.74072c0,0 -10.69357,-9.92476 -11.1668,-12.68409c0.10245,-0.00441 0.2045,-0.01037 0.30613,-0.01784c0.4043,-0.02973 0.80191,-0.0835 1.19143,-0.15988c12.61498,-2.12302 24.9513,-4.93303 37.5278,-7.27474c4.05652,-0.75531 6.3613,-1.21883 10.50811,-1.42667c-0.11602,0.90642 -4.37733,2.31708 -4.18663,3.2359c0.02977,0.14343 4.02371,0.45325 3.99408,0.59702z" fill="#ffffff" stroke-width="0"/><path d="M228.24281,109.16152c5.64136,0 10.21459,4.47197 10.21459,9.98843c0,5.51646 -4.7706,9.74171 -10.41197,9.74171c-5.64137,0 -10.31875,-4.22525 -10.31875,-9.74171c0,-5.51645 4.87476,-9.98843 10.51613,-9.98843z" fill="#000000" stroke-width="0"/><path d="M254.80274,109.18614c5.64136,0 10.21459,4.47198 10.21459,9.98844c0,5.51645 -4.72127,9.64301 -10.36263,9.64301c-3.16285,0 -6.23667,-1.06026 -8.11031,-3.26759c-1.46826,-1.72975 -1.95625,-3.95178 -1.95625,-6.37542c0,-5.51646 4.57322,-9.98844 10.21459,-9.98844z" fill="#000000" stroke-width="0"/><path d="M213.28848,112.49275l0.13102,-1.63769l7.19167,-1.18423l0.32653,-1.46623c0,0 3.68245,-1.72538 7.2562,-2.03587c3.72054,-0.32324 9.00496,-0.09575 9.00496,-0.09575l0.32754,4.71657c0,0 -4.80797,-1.2906 -8.17678,-1.07798c-6.17314,0.38961 -6.13035,1.25866 -10.09703,1.94554c-3.96668,0.68688 -5.96411,0.83565 -5.96411,0.83565z" fill="#000000" stroke-width="0"/><path d="M257.42143,106.17423c-6.5361,-0.02665 -11.93017,2.50832 -11.93017,2.50832l-0.26203,-4.42239c0,0 5.28442,-1.73418 9.39801,-1.86949c4.11358,-0.13531 7.12519,0.66021 7.12519,0.66021l0.19551,1.20419l7.3882,2.16685l0.13101,1.6377c0,0 -5.86035,-1.86016 -12.04572,-1.88538z" data-paper-data="{&quot;index&quot;:null}" fill="#000000" stroke-width="0"/><path d="M227.71919,114.20162c2.71342,0 4.91309,2.23007 4.91309,4.98099c0,2.75092 -2.19966,4.98098 -4.91309,4.98098c-2.71342,0 -4.91309,-2.23006 -4.91309,-4.98098c0,-2.75092 2.19966,-4.98099 4.91309,-4.98099z" fill="#a1634f" stroke-width="0"/><g stroke-width="0"><path d="M218.34604,148.332c0,0 2.48458,-0.6626 5.46006,-1.50045c3.32047,-0.93499 7.3169,-2.0559 10.47771,-2.0559c2.61209,0 7.47414,2.40019 7.47414,2.40019c0,0 3.89246,-2.39783 6.75698,-2.23981c2.0607,0.11367 6.20622,1.0566 9.69726,1.87246c3.81147,0.89073 6.89341,1.39181 6.89341,1.39181c0,0 -0.25461,2.87224 -1.30916,7.18195c-0.991,4.05008 -2.65767,9.43122 -6.41668,13.02442c-3.52263,3.36726 -9.17425,5.10419 -16.24667,4.9516c-4.01774,-0.08669 -10.55301,-1.39745 -13.68285,-4.49684c-3.78137,-3.74461 -5.41305,-9.25629 -6.75068,-13.50893c-1.29152,-4.10605 -2.35352,-7.02049 -2.35352,-7.02049z" fill="#000000"/><path d="M222.57256,148.86534c0,0 7.2283,-2.18398 10.53964,-2.21872c2.91702,-0.03059 8.29588,2.02113 8.29588,2.02113c0,0 4.95285,-1.81768 7.63768,-1.75821c1.80575,0.04 4.85451,0.7834 7.64453,1.28006c3.13393,0.55786 5.52905,0.93917 5.52905,0.93917c0,0 -7.52638,3.11424 -19.75797,3.35879c-9.13845,0.18269 -19.88883,-3.62221 -19.88883,-3.62221z" fill="#ffffff"/><path d="M220.92606,150.3801c0,0 3.43122,0.79399 5.89452,3.07535c1.49227,1.38203 2.56897,3.03353 3.73952,4.57803c1.97608,2.60736 4.46322,4.90974 11.44293,5.09587c3.05548,0.08148 5.06724,-0.45624 6.73455,-1.06124c2.31525,-0.84013 3.83178,-1.94459 4.92038,-3.33743c1.10137,-1.4092 1.76933,-3.1089 3.19219,-4.31959c3.27322,-2.78514 6.6205,-3.70168 6.6205,-3.70168c0,0 -0.89369,3.21539 -2.41837,6.79961c-2.50257,5.88304 -7.48606,13.31763 -18.78805,13.28723c-5.62513,-0.01513 -9.44262,-1.27244 -12.49822,-3.55504c-4.09082,-3.05593 -5.32569,-7.6446 -6.51901,-11.17955c-1.11952,-3.31632 -2.32091,-5.68156 -2.32091,-5.68156z" fill="#ffffff"/><path d="M242.39875,154.27027c3.85169,0.08705 11.98338,-0.72896 11.98338,-0.72896c0,0 -4.47913,2.51307 -11.72386,2.61496c-6.03816,0.08494 -11.59005,-3.14185 -11.59005,-3.14185c0,0 7.41205,1.1673 11.33054,1.25584z" fill="#ffffff"/><path d="M241.73565,159.09568c3.7665,0.01334 9.68288,-1.55897 9.68288,-1.55897c0,0 -1.53543,3.78789 -9.68445,3.64115c-7.63268,-0.13744 -9.21695,-4.36559 -9.21695,-4.36559c0,0 4.90586,2.26813 9.2185,2.28341z" fill="#ffffff"/></g><path d="M254.87175,114.42074c2.71342,0 4.91309,2.23006 4.91309,4.98098c0,2.75092 -2.19966,4.98098 -4.91309,4.98098c-2.71342,0 -4.91309,-2.23006 -4.91309,-4.98098c0,-2.75091 2.19966,-4.98098 4.91309,-4.98098z" fill="#a1634f" stroke-width="0"/><g stroke-width="0"><path d="M238.90971,140.37059c0,0 -0.06312,-8.68679 -0.28083,-12.38791c-0.17487,-2.97289 -0.92532,-8.11666 -0.92532,-8.11666c0,0 -0.33218,-1.57308 0.02454,-1.56279c1.13657,0.03279 7.81544,1.78895 7.81544,1.78895l-0.37692,20.27841c0,0 0.82184,1.93768 0.72844,3.69896c-0.06976,1.31553 -0.97469,4.70292 -1.02626,5.67536c-0.11348,2.13998 -0.40577,3.89334 -0.40577,3.89334l-4.14036,-0.01448c0,0 -0.12488,-2.01528 -0.87252,-4.2695c-0.71961,-2.16969 -2.11593,-4.55553 -2.18508,-5.58924c-0.19994,-2.9885 1.64464,-3.39445 1.64464,-3.39445z" fill="#000000"/><path d="M241.27174,152.64853c0,0 -0.2909,-3.80356 -0.49735,-8.24071c-0.20504,-4.40659 -0.32473,-9.70108 -0.5883,-13.30096c-0.42508,-5.80554 -1.77895,-15.81414 -1.77895,-15.81414l6.10614,1.88461l-0.75385,35.43068z" fill="#ffffff"/><path d="M238.85416,141.5486c0.34401,0 0.62288,4.77542 0.62288,4.77542c0,0 -1.24576,-1.59275 -1.24576,-2.7251c0,-1.13236 0.27887,-2.05032 0.62288,-2.05032z" fill="#ffffff"/></g><path d="M217.54647,119.74229c0,0 -0.16627,-2.22288 0.81062,-4.59656c1.16899,-2.84044 3.93233,-5.91812 9.99819,-5.95021c4.4123,-0.02334 6.77688,1.48178 8.31843,3.36171c2.53146,3.08714 2.42486,7.54013 2.42486,7.54013z" fill="#000000" stroke-width="0"/><path d="M244.50744,119.7637c0,0 -0.53134,-3.2454 0.9459,-6.12374c1.32927,-2.59004 4.34124,-4.84529 9.8629,-4.81608c11.13492,0.0589 11.0941,11.29489 11.0941,11.29489z" data-paper-data="{&quot;index&quot;:null}" fill="#000000" stroke-width="0"/><path d="M216.72384,134.00374l-3.33622,-22.84029c0,0 12.56594,-2.65601 30.15432,-2.95127c13.78103,-0.23135 26.30483,2.95127 26.30483,2.95127l-2.95127,23.09693c0,0 -3.61551,0.66804 -21.61505,1.1467c-1.33138,0.03541 -2.67944,-1.27097 -3.77653,-1.27658c-1.55086,-0.00793 -2.65251,1.05948 -4.61127,1.02083c-12.83637,-0.25331 -20.1688,-1.14758 -20.1688,-1.14758z" fill="#000000" stroke-width="0"/><path d="M216.72385,132.52209l-3.33622,-22.84029c0,0 12.56594,-2.65601 30.15432,-2.95127c13.78103,-0.23135 26.30483,2.95127 26.30483,2.95127l-2.95127,23.09693c0,0 -3.61551,0.66804 -21.61505,1.1467c-1.33138,0.03541 -2.67944,-1.27097 -3.77653,-1.27658c-1.55086,-0.00793 -2.65251,1.05948 -4.61127,1.02083c-12.83637,-0.25331 -20.1688,-1.14758 -20.1688,-1.14758z" fill="#59220f" stroke-width="0"/><path d="M221.72989,130.85487l-2.71246,-17.00415c0,0 10.21654,-1.97734 24.5165,-2.19716c11.20445,-0.17224 21.38673,2.19716 21.38673,2.19716l-2.39949,17.19521c0,0 -2.93952,0.49734 -17.57378,0.8537c-1.08246,0.02636 -2.17848,-0.94622 -3.07045,-0.9504c-1.26091,-0.0059 -2.15659,0.78877 -3.74912,0.75999c-10.43641,-0.18859 -16.39794,-0.85435 -16.39794,-0.85435z" data-paper-data="{&quot;index&quot;:null}" fill="#481310" stroke-width="0"/><path d="M221.72991,129.44741l-2.71246,-17.00415c0,0 7.4752,-1.44678 18.58711,-2.00282c1.87869,-0.09401 3.86134,-0.16256 5.92939,-0.19435c0.36381,-0.00559 0.72653,-0.00851 1.08787,-0.00891c10.76708,-0.01196 20.29886,2.20608 20.29886,2.20608l-2.39949,17.19521c0,0 -2.93953,0.49735 -17.57378,0.8537c-1.08246,0.02636 -2.17848,-0.94622 -3.07045,-0.95039c-1.2609,-0.00591 -2.15659,0.78877 -3.74912,0.75999c-10.43641,-0.18858 -16.39793,-0.85435 -16.39793,-0.85435z" data-paper-data="{&quot;index&quot;:null}" fill="#773128" stroke-width="0"/><path d="M218.1093,111.51177c0,0.26757 -0.94388,2.54871 -0.79512,5.07699c0.33165,5.63664 1.83448,13.92155 1.15274,13.92155c-0.98754,0 -3.75501,-17.86623 -3.75501,-18.73033c0,-0.8641 0.71115,-0.93875 1.69869,-0.93875c0.98754,0 1.69869,-0.19356 1.69869,0.67054z" fill="#6d4321" stroke-width="0"/><path d="M267.21236,110.11221c0.98754,0 1.69869,0.07466 1.69869,0.93875c0,0.8641 -2.76747,18.73033 -3.755,18.73033c-0.68174,0 0.82109,-8.28491 1.15274,-13.92155c0.14876,-2.52828 -0.79512,-4.80942 -0.79512,-5.07699c0,-0.8641 0.71115,-0.67054 1.69869,-0.67054z" data-paper-data="{&quot;index&quot;:null}" fill="#6d4321" stroke-width="0"/><path d="M264.63242,109.97484c0,0.23499 -1.35145,1.06254 -3.87878,0.767c-1.36431,-0.15954 -7.53304,-1.41514 -13.52983,-1.50181c-11.4787,-0.16591 -25.40646,0.87201 -25.40646,0.47484c0,-0.60466 12.77927,-1.99647 22.48945,-1.99647c9.71018,0 20.32561,1.65177 20.32561,2.25644z" fill="#6d4321" stroke-width="0"/><path d="M219.01743,112.44325c0,0 5.57957,-1.07989 14.26342,-1.7323c0.93795,1.93501 4.3078,3.9807 6.70655,5.75609c0.85584,2.35613 2.57212,4.2994 4.76897,5.44995c2.16552,2.49357 4.71598,4.71282 6.93653,7.11649c0.37235,0.40306 0.72225,0.81053 1.05375,1.21968c-2.13179,0.08195 -4.70393,0.16363 -7.79927,0.239c-1.08246,0.02636 -2.17848,-0.94622 -3.07045,-0.95039c-1.2609,-0.00591 -2.15659,0.78877 -3.74912,0.75999c-2.45537,-0.04437 -4.66304,-0.11515 -6.60366,-0.19746c-3.69865,-6.20479 -7.3445,-13.15452 -12.50562,-17.65411z" data-paper-data="{&quot;index&quot;:null}" fill="#894939" stroke-width="0"/><path d="M231.35441,110.86657c1.60937,2.31937 4.13654,4.80602 4.76629,5.48608c4.59279,4.95965 9.25515,9.25612 13.80674,13.99978c-1.48694,0.04797 -3.14117,0.09497 -4.98006,0.13975c-1.08246,0.02636 -2.17848,-0.94622 -3.07045,-0.95039c-1.2609,-0.00591 -2.15659,0.78877 -3.74912,0.75999c-0.22899,-0.00414 -0.45583,-0.0085 -0.68049,-0.01309c-4.23453,-5.15882 -8.31144,-10.40951 -12.49551,-15.65803c-0.4893,-0.61378 -1.21107,-1.64029 -2.08975,-2.80454c2.10567,-0.29892 5.00025,-0.65762 8.49235,-0.95953z" data-paper-data="{&quot;index&quot;:null}" fill="#a1634f" stroke-width="0"/></g></g></svg>