<svg version="1.1" xmlns="http://www.w3.org/2000/svg" xmlns:xlink="http://www.w3.org/1999/xlink" width="197.18544" height="362.29851" viewBox="0,0,197.18544,362.29851"><g transform="translate(-185.91049,-56.2527)"><g data-paper-data="{&quot;isPaintingLayer&quot;:true}" fill-rule="nonzero" stroke-linejoin="miter" stroke-miterlimit="10" stroke-dasharray="" stroke-dashoffset="0" style="mix-blend-mode: normal"><g fill="#000000" stroke="none" stroke-linecap="butt"><path d="M200.58117,185.96087c0,-21.10292 18.65527,-35.22367 41.05369,-35.22367c22.39843,0 40.32303,14.12075 40.32303,35.22367c0,2.70002 0.0039,117.77204 0.0039,117.77204l-11.39983,-0.12964l-0.14337,-113.82486c0,0 0.46851,-2.08621 -1.77595,-2.22047c-2.48625,-0.14872 -2.11767,1.68282 -2.11767,1.68282l0.10343,114.38802l-50.32146,0.07847l0.10485,-114.20488c0,0 -0.19035,-2.13951 -1.8053,-2.16297c-2.01199,-0.02922 -1.98832,2.04221 -1.98832,2.04221l-0.29988,114.25674l-11.38239,0.22905c0,0 -0.35473,-116.42094 -0.35473,-117.90653z" stroke-width="0"/><g><path d="M230.02071,204.89614c-5.66213,0 -7.34973,-0.4705 -7.34973,-0.4705l-0.08286,-1.2733c0,0 5.25623,0.13066 7.69744,0.13066c4.20542,0 7.61458,-1.35635 7.61458,-0.87378c0,0.48257 -1.95246,2.48691 -7.87944,2.48691z" stroke-width="0"/><path d="M225.51815,199.65347c0,-0.55682 0.44467,-1.00821 0.99321,-1.00821c0.54854,0 0.99321,0.45139 0.99321,1.00821c0,0.55682 -0.44467,1.00821 -0.99321,1.00821c-0.54854,0 -0.99321,-0.45139 -0.99321,-1.00821z" stroke-width="0.5"/></g><g data-paper-data="{&quot;index&quot;:null}"><path d="M244.83592,202.40923c0,-0.48257 3.40916,0.87378 7.61458,0.87378c2.44121,0 7.69744,-0.13066 7.69744,-0.13066l-0.08286,1.2733c0,0 -1.6876,0.4705 -7.34973,0.4705c-5.92698,0 -7.87944,-2.00433 -7.87944,-2.48691z" stroke-width="0"/><path d="M256.2247,200.66167c-0.54853,0 -0.99321,-0.45139 -0.99321,-1.00821c0,-0.55682 0.44467,-1.00821 0.99321,-1.00821c0.54853,0 0.99321,0.45139 0.99321,1.00821c0,0.55682 -0.44467,1.00821 -0.99321,1.00821z" stroke-width="0.5"/></g><path d="M240.38316,253.12201c0,-0.55681 0.44467,-1.00821 0.99321,-1.00821c0.54854,0 0.99321,0.45139 0.99321,1.00821c0,0.55681 -0.44467,1.00821 -0.99321,1.00821c-0.54854,0 -0.99321,-0.45139 -0.99321,-1.00821z" stroke-width="0.5"/></g><g data-paper-data="{&quot;index&quot;:null}" stroke="none" stroke-width="0" stroke-linecap="butt"><path d="M267.97841,239.54724c-2.56591,0.13052 -1.01271,-3.61022 -1.01271,-3.61022v-20.65702c0,0 -2.92145,-5.16968 -2.31594,-12.47944c1.28037,-15.45657 6.86565,-39.7175 8.66318,-39.53643c3.03547,0.30577 10.56372,8.91387 10.91354,29.43154c0.16255,9.53427 -0.33695,22.58433 -0.33695,22.58433v20.65702c0,0 -1.7156,2.88817 -15.91111,3.61022z" fill="#6d4321"/><path d="M266.96054,202.38022c-2.97171,-0.55535 3.98308,0.65703 1.59611,0.65703c-0.14185,0 0.84683,1.50682 0.78017,4.84242c-0.02155,1.07859 -1.13229,2.17703 -1.14864,3.53594c-0.02702,2.24531 1.7379,3.28233 1.57923,9.51647c-0.14112,5.54462 -1.64033,4.59629 -1.63308,8.0191c0.00471,2.2233 2.0514,3.10757 2.06081,7.35573c0.00507,2.28521 -2.01766,3.85356 -2.00494,6.00349c0.05416,9.15214 -18.80325,29.13658 -18.78605,28.3422c0.15639,-7.22262 -3.33872,-12.37115 -3.0098,-23.3425c0.40275,-13.4337 3.79502,-12.74778 3.92103,-18.48291c0.05521,-2.51264 -2.08004,-1.43979 -1.87715,-6.9475c0.26185,-7.10846 2.16469,-6.08203 2.22279,-8.69027c0.13384,-6.00797 -0.75039,-4.05531 -0.89067,-9.79888c-0.10036,-4.10897 1.28863,-7.65087 1.31163,-8.56951c0.0483,-1.92959 0.90588,-21.56656 2.76067,-30.35385c2.60188,-12.32667 6.44504,-14.47949 6.44504,-14.47949c0,0 7.55528,4.42689 14.12376,11.74376c5.08288,5.66199 -6.14229,45.99065 -7.45092,40.64876z" fill="#894939"/><path d="M262.54645,155.84172c2.04882,0 12.07395,7.89011 12.07395,10.65157c0,2.76146 -21.8873,32.37536 -21.8873,29.6139c0,-2.76146 7.76452,-40.26547 9.81335,-40.26547z" fill="#a1634f"/><path d="M252.83876,215.95683c2.68767,-1.94932 8.81807,-2.72049 11.46082,-2.72049c4.30083,0 3.39126,5.36889 3.39126,7.03373c0,0.74892 -0.94169,4.70711 -3.06036,5.93346c-2.59112,1.49981 -6.63133,0.22105 -8.99746,0.22105c-4.30083,0 -3.51686,-4.48967 -3.51686,-6.15451c0,-0.64183 -0.96365,-3.09023 0.7226,-4.31324z" fill="#a1634f"/><path d="M264.8484,230.21249c1.24863,0 4.05328,3.49351 4.05328,4.70745c0,0.64141 -3.25225,11.04745 -7.85671,17.11342c-4.10993,5.41448 -9.58868,6.59384 -10.17757,6.59384c-0.61667,0 -2.14618,-5.85953 -1.96399,-12.17898c0.18671,-6.47615 2.09306,-13.42329 2.09306,-14.03769c0,-1.21394 12.60329,-2.19804 13.85192,-2.19804z" fill="#a1634f"/><path d="M267.96843,204.64288c0,0.53545 0.92993,4.67533 -2.07737,5.52529c-3.997,1.12968 -12.05468,0.55417 -12.80284,0.55417c-1.31106,0 -0.96911,-11.26205 -0.96911,-12.50916c0,-1.24711 15.84931,5.18259 15.84931,6.4297z" fill="#a1634f"/><path d="M273.39574,202.30451c1.20925,-14.67908 4.56057,-29.05629 4.56057,-29.05629c0,0 2.98136,8.70606 2.8419,22.14825c-0.15867,15.29331 -0.40342,38.60333 -1.68693,38.60333c-2.29634,0 -6.00585,1.2965 -6.00585,-0.80848c0,-1.05549 -0.92586,-16.12381 0.29031,-30.8868z" fill="#8d6e47"/><path d="M275.21238,215.44848c0.13001,-13.7242 2.22614,-34.60427 2.72478,-34.60427c0.88921,0 0.19918,49.68164 -0.69002,49.68164c-0.39057,0 -2.13659,-4.32769 -2.03476,-15.07737z" fill="#a79262"/></g><g data-paper-data="{&quot;index&quot;:null}" stroke="none" stroke-width="0" stroke-linecap="butt"><path d="M215.35004,239.54725c-14.19551,-0.72205 -15.91111,-3.61022 -15.91111,-3.61022v-20.65702c0,0 -0.4995,-13.05006 -0.33695,-22.58433c0.34982,-20.51767 7.87807,-29.12577 10.91354,-29.43154c1.79753,-0.18107 7.38281,24.07986 8.66318,39.53643c0.60551,7.30976 -2.31594,12.47944 -2.31594,12.47944v20.65702c0,0 1.5532,3.74074 -1.01271,3.61022z" fill="#6d4321"/><path d="M216.36793,202.38022c-1.30863,5.34189 -12.5338,-34.98677 -7.45092,-40.64876c6.56848,-7.31687 14.12376,-11.74376 14.12376,-11.74376c0,0 3.84316,2.15282 6.44504,14.47949c1.85479,8.78729 2.71237,28.42426 2.76067,30.35385c0.023,0.91864 1.41199,4.46054 1.31163,8.56951c-0.14028,5.74357 -1.02451,3.79091 -0.89067,9.79888c0.0581,2.60824 1.96094,1.58181 2.22279,8.69027c0.20289,5.50771 -1.93236,4.43486 -1.87715,6.9475c0.12601,5.73513 3.51828,5.04921 3.92103,18.48291c0.32892,10.97135 -3.16619,16.11988 -3.0098,23.3425c0.0172,0.79438 -18.84021,-19.19006 -18.78605,-28.3422c0.01272,-2.14993 -2.01001,-3.71828 -2.00494,-6.00349c0.00941,-4.24816 2.0561,-5.13243 2.06081,-7.35573c0.00725,-3.42281 -1.49196,-2.47448 -1.63308,-8.0191c-0.15867,-6.23414 1.60625,-7.27116 1.57923,-9.51647c-0.01635,-1.35891 -1.12709,-2.45735 -1.14864,-3.53594c-0.06666,-3.3356 0.92202,-4.84242 0.78017,-4.84242c-2.38697,0 4.56782,-1.21238 1.59611,-0.65703z" fill="#894939"/><path d="M230.59536,196.1072c0,2.76146 -21.8873,-26.85244 -21.8873,-29.6139c0,-2.76146 10.02513,-10.65157 12.07395,-10.65157c2.04883,0 9.81335,37.50401 9.81335,40.26547z" fill="#a1634f"/><path d="M231.2123,220.27008c0,1.66484 0.78397,6.15451 -3.51686,6.15451c-2.36613,0 -6.40634,1.27876 -8.99746,-0.22105c-2.11867,-1.22635 -3.06036,-5.18454 -3.06036,-5.93346c0,-1.66484 -0.90957,-7.03373 3.39126,-7.03373c2.64275,0 8.77315,0.77117 11.46082,2.72049c1.68625,1.22301 0.7226,3.67141 0.7226,4.31324z" fill="#a1634f"/><path d="M218.48007,230.2125c1.24863,0 13.85192,0.9841 13.85192,2.19804c0,0.6144 1.90635,7.56154 2.09306,14.03769c0.18219,6.31945 -1.34732,12.17898 -1.96399,12.17898c-0.58889,0 -6.06764,-1.17936 -10.17757,-6.59384c-4.60446,-6.06597 -7.85671,-16.47201 -7.85671,-17.11342c0,-1.21394 2.80465,-4.70745 4.05328,-4.70745z" fill="#a1634f"/><path d="M215.36004,204.64289c0,-1.24711 15.84932,-7.67681 15.84932,-6.4297c0,1.24711 0.34195,12.50916 -0.96912,12.50916c-0.74816,0 -8.80584,0.57551 -12.80284,-0.55417c-3.0073,-0.84996 -2.07737,-4.98984 -2.07737,-5.52529z" fill="#a1634f"/><path d="M209.93272,202.30453c1.21617,14.76299 0.29031,29.83131 0.29031,30.8868c0,2.10498 -3.70951,0.80848 -6.00585,0.80848c-1.28351,0 -1.52826,-23.31002 -1.68693,-38.60333c-0.13946,-13.44219 2.8419,-22.14825 2.8419,-22.14825c0,0 3.35132,14.37721 4.56057,29.05629z" fill="#8d6e47"/><path d="M206.08132,230.52586c-0.8892,0 -1.57923,-49.68164 -0.69002,-49.68164c0.49864,0 2.59477,20.88007 2.72478,34.60427c0.10183,10.74968 -1.64419,15.07737 -2.03476,15.07737z" fill="#a79262"/></g><path d="M193.38453,126.21232c0,0 4.75839,-5.12941 6.10536,-8.45329c2.88904,-7.12918 2.85124,-13.03672 2.85124,-13.03672c0,0 -1.85997,0.61665 -2.84266,0.69861c-1.61013,0.13429 -2.80363,-0.26204 -2.80363,-0.26204l6.42399,-6.92498c0,0 0.2475,-17.60523 8.9764,-29.16254c6.74693,-8.93313 20.64648,-12.51508 30.3551,-12.44472c8.42215,0.06104 21.40215,5.39368 27.53544,12.88979c9.90885,12.11063 7.66523,17.25034 11.07671,29.46108c0.06026,0.21569 0.12264,0.43287 0.18726,0.65159c3.72078,12.59341 5.77495,16.18431 5.77495,16.18431c0,0 -1.64899,-0.1627 -2.4478,-0.70191c-3.35821,-2.26684 -4.77049,-4.144 -4.77049,-4.144c0,0 2.51404,9.65365 0.49901,21.29599c-1.43966,8.31802 -7.42166,16.10527 -7.42166,16.10527l-1.17358,-2.98711c0,0 -0.27736,1.51046 -1.52332,3.13635c-1.38133,1.80253 -3.94985,3.49671 -3.94985,3.49671l0.00318,-3.58884c0,0 -4.58502,5.92133 -10.91754,9.01637c-6.10567,2.98416 -11.80358,2.51788 -14.49123,2.46803c-14.12802,-0.26204 -24.08852,-10.83115 -24.08852,-10.83115l-1.5995,1.70352c0,0 -3.09691,-2.20769 -5.16904,-7.29265c-3.07463,-7.54506 -3.82841,-13.97384 -3.82841,-13.97384c0,0 -3.51398,2.22964 -6.51964,2.91866c-3.62077,0.83002 -6.65099,0.20519 -6.65099,0.20519c0,0 3.61051,-2.54967 5.08456,-3.95508c1.38725,-1.32265 3.51514,-4.24416 3.51514,-4.24416c0,0 -3.21775,1.31904 -4.68875,1.66038c-2.24208,0.52027 -3.5017,0.11114 -3.5017,0.11114z" fill="#000000" stroke="none" stroke-width="NaN" stroke-linecap="butt"/><g><path d="M210.47873,106.94162c0.96521,-0.18364 5.78639,4.94033 6.72949,9.89722c0.94309,4.95689 -0.15061,10.72809 -0.15061,10.72809c0,0 -6.46652,-3.53164 -7.66724,-8.4325c-3.07712,-12.5596 0.12316,-12.00917 1.08836,-12.19281z" fill="#000000" stroke="none" stroke-width="0" stroke-linecap="butt"/><path d="M210.20635,107.99409c1.31694,-0.1432 3.38354,5.86128 4.11895,9.72657c0.73541,3.86529 0.71005,7.6557 0.71005,7.6557c0,0 -4.13639,-3.64493 -5.07269,-7.46653c-2.39948,-9.79373 -0.51797,-9.83292 0.24369,-9.91574z" fill="#ffffff" stroke="none" stroke-width="0" stroke-linecap="butt"/><path d="M214.77995,122.66613c0,0 -3.02608,-5.45514 -3.46106,-7.54108c-0.69361,-3.32613 1.47037,-3.38348 1.47037,-3.38348" fill="none" stroke="#000000" stroke-width="0.5" stroke-linecap="round"/></g><g data-paper-data="{&quot;index&quot;:null}"><path d="M274.23604,119.00872c-1.20072,4.90086 -7.66724,8.4325 -7.66724,8.4325c0,0 -1.0937,-5.77121 -0.15061,-10.7281c0.9431,-4.95689 5.76428,-10.08085 6.72949,-9.89722c0.96521,0.18363 4.16548,-0.36679 1.08836,12.19281z" fill="#000000" stroke="none" stroke-width="0" stroke-linecap="butt"/><path d="M270.83713,111.61586c0,0 2.16397,0.05735 1.47037,3.38348c-0.43498,2.08594 -3.46106,7.54108 -3.46106,7.54108" fill="none" stroke="#000000" stroke-width="0.5" stroke-linecap="round"/></g><path d="M217.45332,143.99607c-1.12791,-6.71582 -0.20637,-6.94188 -1.0642,-13.44379c-0.47362,-3.58977 -2.15797,-7.18909 -2.73202,-11.13223c-1.20896,-8.30433 -1.27196,-25.65977 -0.47554,-29.40025c4.41933,-20.75585 15.3863,-24.96608 29.85603,-25.48425c20.77576,-0.74399 24.79696,12.48506 27.42961,23.79025c1.84023,7.90235 1.22737,18.92724 -0.34916,28.57116c-0.96559,5.90663 -2.47529,10.80823 -3.46814,15.58687c-1.22544,5.89815 -0.7524,7.76045 -1.86263,12.66938c-1.15349,5.10023 -6.83176,10.81045 -11.83191,15.83737c-4.57165,4.59612 -7.90818,8.33063 -12.38271,8.22359c-5.04445,-0.12068 -8.96195,-6.22631 -14.50155,-12.44391c-4.38889,-4.92605 -8.03319,-9.29321 -8.61781,-12.77419z" fill="#000000" stroke="none" stroke-width="0" stroke-linecap="butt"/><path d="M217.39267,125.17452c-0.94553,-5.09249 -3.54204,-4.25562 -2.79146,-22.70284c0.35027,-8.60857 1.58748,-16.65181 3.61898,-20.76639c6.59974,-13.36702 19.1364,-15.03633 24.02784,-15.03633c4.16055,0 17.20519,1.95486 23.80596,13.20532c1.38921,2.3678 2.77649,5.92394 3.26517,9.93109c0.50548,4.1449 0.08725,8.75725 0.02672,12.11153c-0.10696,5.92699 0.23361,11.79227 -1.04001,17.97375c-0.62848,3.05035 -1.86346,6.18514 -2.54274,8.95491c-0.89481,3.64861 -0.74749,18.27726 -15.6694,17.85043c-4.13679,-0.11833 -4.9268,4.15363 -4.9268,4.15363c0,0 16.68358,-2.01649 14.30784,0.96682c-2.5746,3.23301 -5.68435,5.44601 -8.57681,8.20446c-2.62204,2.50056 -6.00153,7.43067 -9.3026,7.43067c-4.10432,0 -7.45271,-4.50828 -10.6262,-8.13369c-4.79276,-5.47527 8.75883,1.40201 7.1789,-8.48885c-0.19653,-1.23032 -12.69375,-3.77553 -15.48058,-5.51711c-6.23928,-3.89913 -4.49269,-15.92508 -5.27479,-20.1374z" fill="#ffffff" stroke="none" stroke-width="0" stroke-linecap="butt"/><path d="M208.62988,133.37678v-39.82585l66.07451,-3.49056c0,0 -3.8714,18.1349 -3.26843,25.99169c0.47358,6.17078 6.59277,17.32472 6.59277,17.32472c0,0 -12.64492,3.32434 -31.21722,3.98922c-6.03299,0.21598 -0.00628,-3.98922 -4.48786,-3.98922c-2.34849,0 -0.00773,4.68544 -2.99191,4.65408c-15.81632,-0.16622 -30.70186,-4.65408 -30.70186,-4.65408z" fill-opacity="0.3871" fill="#000000" stroke="none" stroke-width="0" stroke-linecap="butt"/><path d="M208.38089,127.899v-39.82585l66.07452,-3.49056l-2.00013,51.30311c0,0 -7.32045,-4.66236 -25.89275,-3.99749c-6.03299,0.21597 -0.00628,-3.98921 -4.48786,-3.98921c-2.34849,0 -0.00772,4.68544 -2.99191,4.65408c-15.81632,-0.16622 -30.70186,-4.65408 -30.70186,-4.65408z" fill="#000000" stroke="none" stroke-width="0" stroke-linecap="butt"/><g stroke="none" stroke-width="0" stroke-linecap="butt"><path d="M228.24267,106.08432c5.64136,0 10.21459,4.47197 10.21459,9.98843c0,5.51646 -4.7706,9.74171 -10.41197,9.74171c-5.64137,0 -10.31875,-4.22525 -10.31875,-9.74171c0,-5.51645 4.87476,-9.98843 10.51613,-9.98843z" fill="#000000"/><path d="M228.24267,106.33869c4.97522,0 8.78866,3.85659 8.78866,8.8032c0,4.94661 -4.01083,9.08774 -8.98605,9.08774c-4.97523,0 -8.81106,-3.98769 -8.81106,-8.9343c0,-4.94662 4.03322,-8.95664 9.00844,-8.95664z" fill="#ffffff"/></g><g stroke="none" stroke-width="0" stroke-linecap="butt"><path d="M254.80261,106.10894c5.64136,0 10.21459,4.47198 10.21459,9.98844c0,5.51645 -4.72127,9.64301 -10.36263,9.64301c-3.16285,0 -6.23667,-1.06026 -8.11031,-3.26759c-1.46826,-1.72975 -1.95625,-3.95178 -1.95625,-6.37542c0,-5.51646 4.57322,-9.98844 10.21459,-9.98844z" fill="#000000"/><path d="M254.80261,106.36332c4.97523,0 8.70691,4.08541 8.70691,9.03202c0,4.94661 -3.14327,9.69281 -10.11739,9.85298c-4.65146,-0.32325 -7.59796,-5.20489 -7.59796,-9.92836c0,-4.94661 4.03322,-8.95663 9.00844,-8.95663z" fill="#9c9c9c"/></g><path d="M213.28835,109.41555l0.13102,-1.63769l7.19167,-1.18423l0.32653,-1.46623c0,0 3.68245,-1.72538 7.2562,-2.03587c3.72054,-0.32324 9.00496,-0.09575 9.00496,-0.09575l0.32754,4.71657c0,0 -4.80797,-1.2906 -8.17678,-1.07798c-6.17314,0.38961 -6.13035,1.25866 -10.09703,1.94554c-3.96668,0.68688 -5.96411,0.83565 -5.96411,0.83565z" fill="#000000" stroke="none" stroke-width="0" stroke-linecap="butt"/><path d="M257.42139,103.09703c-6.5361,-0.02665 -11.93017,2.50832 -11.93017,2.50832l-0.26203,-4.42239c0,0 5.28442,-1.73418 9.39801,-1.86949c4.11358,-0.13531 7.12519,0.66021 7.12519,0.66021l0.19551,1.20419l7.3882,2.16685l0.13101,1.6377c0,0 -5.86035,-1.86016 -12.04572,-1.88538z" data-paper-data="{&quot;index&quot;:null}" fill="#000000" stroke="none" stroke-width="0" stroke-linecap="butt"/><g stroke="none" stroke-width="0" stroke-linecap="butt"><path d="M257.71309,146.78299c1.43028,1.31329 2.87702,2.14949 2.87702,2.14949c0,0 -1.01758,3.54836 -1.41842,6.11176c-0.50719,3.24354 -1.94418,8.29267 -3.9646,10.71528c-3.87207,4.64287 -23.04851,5.24021 -27.38738,0.4967c-2.43088,-2.6576 -3.92526,-7.63424 -5.12085,-11.13934c-0.65493,-1.92007 -2.69902,-6.6271 -2.69902,-6.6271c0,0 1.86843,-0.798 3.75714,-2.25776c3.20078,-2.47384 6.49733,-6.97133 10.75404,-6.89439l6.6663,2.55502c0,0 2.13152,-0.76818 3.99398,-1.53007c1.59654,-0.6531 2.80206,-1.35681 4.48086,-0.9443c4.04586,0.99412 6.58535,6.00984 8.06089,7.36469z" fill="#000000"/><path d="M249.60625,141.48006c0.66675,0.12789 3.06441,2.7685 4.87649,4.55656c1.60558,1.58431 2.89257,2.86796 2.89257,2.86796c0,0 -2.2885,0.47937 -5.15023,-0.15326c-3.27585,-0.72417 -4.41864,-2.6877 -7.20972,-2.73971c-12.30892,-0.22941 -9.30997,1.39694 -12.98029,1.82156c-5.31094,0.61442 -8.08201,0.23624 -8.08201,0.23624c0,0 1.21146,-0.67269 2.79145,-1.96325c2.34209,-1.91305 5.49397,-4.68497 6.70998,-4.59024c3.00056,-0.58667 7.90763,2.57731 7.90763,2.57731c0,0 4.14175,-3.33294 8.24412,-2.61316z" fill="#ffffff"/><path d="M253.7164,164.58539c-3.37912,3.73309 -10.32228,2.60531 -11.81481,2.60004c-1.23229,-0.00435 -8.45132,1.20022 -12.67155,-2.83879c-2.61404,-2.5018 -4.2253,-7.0637 -4.91892,-10.06498c-0.43603,-1.88671 -1.32075,-4.66689 -1.32075,-4.66689c0,0 4.19641,0.86616 6.15688,2.63917c3.15023,2.84899 1.40828,8.00295 12.75829,7.96427c9.15502,-0.03119 8.84506,-5.11616 10.96446,-7.42182c1.9124,-2.08048 5.323,-2.60353 5.323,-2.60353c0,0 -1.91193,11.57863 -4.37246,14.29689z" fill="#ffffff"/><path d="M243.24694,147.47968c2.80256,0.05897 5.63202,1.78331 5.63202,1.78331c0,0 -5.15874,0.2619 -7.61077,0.18838c-2.29325,-0.06876 -6.65702,-0.61619 -6.65702,-0.61619c0,0 0.92426,-1.51776 8.63577,-1.3555z" fill="#ffffff"/><path d="M233.88216,155.94785c0,0 5.51699,0.62207 8.22616,0.6674c2.5189,0.04215 6.45822,-0.69519 6.45822,-0.69519c0,0 0.51102,2.96632 -6.45806,2.85904c-6.39477,-0.09042 -8.22632,-2.83124 -8.22632,-2.83124z" fill="#ffffff"/></g><path d="M227.71906,111.12442c2.71342,0 4.91309,2.23007 4.91309,4.98099c0,2.75092 -2.19966,4.98098 -4.91309,4.98098c-2.71342,0 -4.91309,-2.23006 -4.91309,-4.98098c0,-2.75092 2.19966,-4.98099 4.91309,-4.98099z" fill="#000000" stroke="none" stroke-width="0" stroke-linecap="butt"/><path d="M254.80261,116.44493c1.40571,0 2.54527,1.1553 2.54527,2.58044c0,1.42514 -1.13955,2.58044 -2.54527,2.58044c-1.40571,0 -2.54527,-1.1553 -2.54527,-2.58044c0,-1.42514 1.13955,-2.58044 2.54527,-2.58044z" fill="#000000" stroke="none" stroke-width="0" stroke-linecap="butt"/><g stroke="none" stroke-width="0" stroke-linecap="butt"><path d="M238.90957,137.29344c0,0 -0.06312,-8.68679 -0.28083,-12.38791c-0.17487,-2.97289 -0.92532,-8.11666 -0.92532,-8.11666c0,0 -0.33218,-1.57308 0.02454,-1.56279c1.13657,0.03279 7.81544,1.78895 7.81544,1.78895l-0.37692,20.27841c0,0 0.82184,1.93768 0.72844,3.69896c-0.06976,1.31553 -0.97469,4.70292 -1.02626,5.67536c-0.11348,2.13998 -0.40577,3.89334 -0.40577,3.89334l-4.14036,-0.01448c0,0 -0.12488,-2.01528 -0.87252,-4.2695c-0.71961,-2.16969 -2.11593,-4.55553 -2.18508,-5.58924c-0.19994,-2.9885 1.64464,-3.39445 1.64464,-3.39445z" fill="#000000"/><path d="M241.27161,149.57136c0,0 -0.2909,-3.80356 -0.49735,-8.24071c-0.20504,-4.40659 -0.32473,-9.70108 -0.5883,-13.30096c-0.05927,-0.80945 -0.13659,-1.70061 -0.22578,-2.63496c-0.28521,-2.98781 4.3642,-2.42209 4.31924,-0.3092c-0.13916,6.54038 -0.52012,24.44531 -0.52012,24.44531z" fill="#ffffff"/><path d="M238.85402,138.47145c0.34401,0 0.62288,4.77542 0.62288,4.77542c0,0 -1.24576,-1.59275 -1.24576,-2.7251c0,-1.13236 0.27887,-2.05032 0.62288,-2.05032z" fill="#ffffff"/></g><path d="M210.602,100.65809v-21.15411c0,0 21.21081,-18.67174 31.8391,-18.67174c9.85589,0 29.78844,18.67174 29.78844,18.67174l0.9522,14.8825c0,0 -4.02246,-9.83788 -7.66885,-7.46317c-9.67233,6.2991 -26.0271,10.16832 -26.0271,10.16832c0,0 2.88671,-3.50484 4.29889,-5.2734c0.74057,-0.92746 1.4281,-2.38433 1.4281,-2.38433c0,0 -9.19557,5.48816 -17.51331,7.89872c-11.3727,3.29591 -17.09747,3.32547 -17.09747,3.32547z" fill="#000000" stroke="none" stroke-width="0" stroke-linecap="butt"/><path d="M217.54634,116.66509c0,0 -0.16627,-2.22288 0.81062,-4.59656c1.16899,-2.84044 3.93233,-5.91812 9.99819,-5.95021c4.4123,-0.02334 6.77688,1.48178 8.31843,3.36171c2.53146,3.08714 2.42486,7.54013 2.42486,7.54013z" fill="#000000" stroke="none" stroke-width="0" stroke-linecap="butt"/><path d="M244.50731,116.6865c0,0 -0.53134,-3.2454 0.9459,-6.12374c1.32927,-2.59004 4.34124,-4.84529 9.8629,-4.81608c11.13492,0.0589 11.0941,11.29489 11.0941,11.29489z" data-paper-data="{&quot;index&quot;:null}" fill="#000000" stroke="none" stroke-width="0" stroke-linecap="butt"/><path d="M218.84114,124.27879c-0.52446,-2.16268 -1.25506,-5.17537 -1.59583,-6.58055c-0.35342,-1.45736 1.30542,-3.55684 3.13979,-3.55684c2.93813,0 11.86566,0 16.50329,0c1.7319,0 2.49828,2.23338 2.24628,3.76584c-0.27703,1.68468 -0.91367,5.55636 -1.26889,7.71654c-0.15103,0.91848 -1.4179,1.50138 -2.51291,1.47683c-2.00159,-0.04488 -8.80161,-0.19732 -12.83629,-0.28778c-1.82026,-0.04081 -3.33248,-1.11977 -3.67545,-2.53404z" fill="#6d4321" stroke="none" stroke-width="0" stroke-linecap="butt"/><path d="M236.88839,114.1414c1.7319,0 2.49828,2.23338 2.24628,3.76584c-0.27703,1.68468 -0.91367,5.55636 -1.26889,7.71654c-0.15103,0.91848 -1.4179,1.50138 -2.51291,1.47683c-1.15572,-0.02591 -3.91123,-0.08768 -6.81045,-0.15268c2.68711,-1.79275 4.45718,-4.85195 4.45718,-8.32457c0,-1.61142 -0.38115,-3.13382 -1.05821,-4.48196c1.84587,0 3.58219,0 4.94699,0z" fill="#59220f" stroke="none" stroke-width="0" stroke-linecap="butt"/><path d="M221.062,124.20191c-0.39987,-1.6489 -0.9569,-3.94587 -1.21671,-5.01723c-0.26946,-1.11114 0.99529,-2.71185 2.39388,-2.71185c2.24013,0 9.04676,0 12.58265,0c1.32046,0 1.90476,1.7028 1.71264,2.8712c-0.21122,1.28445 -0.69661,4.23635 -0.96743,5.88334c-0.11515,0.70028 -1.08105,1.14471 -1.91592,1.12599c-1.52607,-0.03422 -6.71063,-0.15044 -9.78681,-0.21941c-1.38782,-0.03111 -2.54079,-0.85375 -2.80228,-1.93203z" fill="#59220f" stroke="none" stroke-width="0" stroke-linecap="butt"/><path d="M221.062,123.40991c-0.39987,-1.6489 -0.9569,-3.94587 -1.21671,-5.01723c-0.26946,-1.11114 0.99529,-2.71185 2.39388,-2.71185c2.24013,0 9.04676,0 12.58265,0c1.32046,0 1.90476,1.7028 1.71264,2.8712c-0.21122,1.28445 -0.69661,4.23635 -0.96743,5.88334c-0.11515,0.70028 -1.08105,1.14471 -1.91592,1.12599c-1.52607,-0.03422 -6.71063,-0.15044 -9.78681,-0.21941c-1.38782,-0.03111 -2.54079,-0.85375 -2.80228,-1.93203z" fill="#000000" stroke="none" stroke-width="0" stroke-linecap="butt"/><g stroke="none" stroke-width="0" stroke-linecap="butt"><path d="M261.04121,126.84046c-0.90455,0.02028 -1.9481,0.04368 -3.04541,0.06828c0.22824,-0.17009 0.43844,-0.36613 0.62743,-0.58945c1.18348,-1.39843 5.81925,-7.60522 3.8056,-9.52335c-1.57002,-1.49555 -2.59528,-1.51421 -3.38076,-0.853c-0.01724,-0.00071 -0.03457,-0.00106 -0.05198,-0.00106c-0.01121,0 -0.02239,0.00015 -0.03353,0.00044c-0.76902,-0.47943 -1.6415,-0.83795 -2.49883,-1.01961c-0.13944,-0.25687 -0.28631,-0.50837 -0.43839,-0.75367c2.99983,0 5.7505,0 7.14737,0c1.83437,0 3.49321,2.09948 3.13979,3.55684c-0.34076,1.40519 -1.07137,4.41787 -1.59582,6.58055c-0.34297,1.41427 -1.8552,2.49323 -3.67545,2.53404z" data-paper-data="{&quot;index&quot;:null}" fill="#6d4321"/><path d="M248.20492,127.12824c-1.09501,0.02455 -2.36188,-0.55835 -2.51291,-1.47683c-0.35521,-2.16018 -0.99186,-6.03186 -1.26888,-7.71654c-0.25199,-1.53245 0.51438,-3.76584 2.24628,-3.76584c1.7483,0 4.10624,0 6.52314,0c-0.1087,0.10894 -0.20917,0.22567 -0.29868,0.35282c-0.16088,0.22855 -0.30363,0.62081 -0.4235,1.11486c-0.3072,0.2085 -0.60845,0.44849 -0.89695,0.71267c-0.42955,-0.34804 -0.97678,-0.55655 -1.57271,-0.55655c-0.76402,0 -1.44799,0.34272 -1.90656,0.88281c-0.12704,0.09925 -0.25643,0.20583 -0.38845,0.31899l-0.00102,0.0183c-3.57307,4.16859 -0.27153,8.37709 3.76375,10.04214c-1.42755,0.032 -2.60512,0.0584 -3.26351,0.07317z" data-paper-data="{&quot;index&quot;:null}" fill="#6d4321"/><path d="M248.20493,127.12824c-1.09501,0.02455 -2.36188,-0.55835 -2.51291,-1.47683c-0.35521,-2.16018 -0.99186,-6.03186 -1.26888,-7.71654c-0.25199,-1.53245 0.51438,-3.76584 2.24628,-3.76584c1.3648,0 3.10112,0 4.94698,0c-0.28658,0.57063 -0.52015,1.17249 -0.69424,1.7991c-0.28514,-0.11312 -0.59604,-0.1753 -0.92146,-0.1753c-0.76402,0 -1.44799,0.34272 -1.90656,0.88281c-0.12704,0.09925 -0.25643,0.20583 -0.38845,0.31899l-0.00102,0.0183c-3.57308,4.16859 -0.27152,8.3771 3.76376,10.04214c-1.42756,0.032 -2.60513,0.0584 -3.26352,0.07316z" data-paper-data="{&quot;index&quot;:null}" fill="#59220f"/><path d="M259.69351,126.16157c-0.30054,0.00674 -0.62121,0.01393 -0.95663,0.02145c1.31795,-1.60086 5.51831,-7.35061 3.77521,-9.30115c0.8298,0.54203 1.38838,1.55535 1.20041,2.33045c-0.25981,1.07136 -0.81685,3.36833 -1.21671,5.01723c-0.26149,1.07828 -1.41446,1.90092 -2.80228,1.93203z" data-paper-data="{&quot;index&quot;:null}" fill="#59220f"/><path d="M249.9067,126.38098c-0.83487,0.01872 -1.80077,-0.42571 -1.91592,-1.12598c-0.0322,-0.19584 -0.06744,-0.41014 -0.10489,-0.63788c0.62591,0.67639 1.38649,1.27199 2.21678,1.75947c-0.07071,0.00159 -0.13615,0.00305 -0.19597,0.00439z" data-paper-data="{&quot;index&quot;:null}" fill="#59220f"/><path d="M247.70469,117.01294c-0.14741,0.17197 -0.28311,0.34401 -0.40755,0.51594c0.19035,-0.39175 0.46792,-0.71847 0.83114,-0.8926c-0.01151,0.013 -0.02289,0.02613 -0.03413,0.03937c-0.12704,0.09925 -0.25643,0.20583 -0.38845,0.31899z" data-paper-data="{&quot;index&quot;:null}" fill="#59220f"/><path d="M259.69351,125.36957c-0.10566,0.00237 -0.21381,0.00479 -0.32421,0.00727c1.69619,-2.24856 4.76623,-6.95515 3.05953,-8.58089c-0.57443,-0.54718 -1.07593,-0.89666 -1.51945,-1.08747c0.14933,0 0.28618,0 0.40925,0c1.39859,0 2.66333,1.60071 2.39387,2.71185c-0.25981,1.07136 -0.81685,3.36833 -1.21671,5.01723c-0.26149,1.07828 -1.41446,1.90092 -2.80228,1.93203z" data-paper-data="{&quot;index&quot;:null}" fill="#000000"/><path d="M248.73598,115.70846c1.00573,0 2.27607,0 3.63068,0c-0.27128,0.1912 -0.53728,0.40654 -0.79323,0.64093c-0.42956,-0.34805 -0.97679,-0.55656 -1.57272,-0.55656c-0.76402,0 -1.44799,0.34272 -1.90656,0.88281c-0.12704,0.09925 -0.25643,0.20583 -0.38845,0.31899l-0.00102,0.0183c-0.27901,0.32551 -0.5161,0.65126 -0.71419,0.97602c0.0458,-1.07751 0.63561,-2.2805 1.74548,-2.2805z" data-paper-data="{&quot;index&quot;:null}" fill="#000000"/><path d="M258.99609,115.94188c-0.01121,0 -0.02239,0.00015 -0.03353,0.00044c-0.13079,-0.08154 -0.26458,-0.15958 -0.40078,-0.23385c0.28867,0 0.5659,0 0.82911,0c-0.11947,0.06355 -0.23347,0.14242 -0.34282,0.23447c-0.01724,-0.00071 -0.03457,-0.00106 -0.05198,-0.00106z" data-paper-data="{&quot;index&quot;:null}" fill="#000000"/></g><path d="M258.42637,120.24151c0,1.42514 -1.13956,2.58044 -2.54528,2.58044c-0.9347,0 -2.18217,0.26398 -2.62475,-0.4973c0.41597,0.30898 1.36169,-0.283 1.91967,-0.283c1.38071,0 2.5,-1.11929 2.5,-2.5c0,-0.58104 0.5083,-1.46012 0.1758,-1.88463c0.76544,0.44494 0.57455,1.62584 0.57455,2.5845z" fill="#000000" stroke="none" stroke-width="0" stroke-linecap="butt"/><path d="M201.62993,98.66223c0,0 -0.86455,-42.35081 39.13504,-42.40946c44.07247,-0.06462 41.38768,44.03836 41.38768,44.03836z" fill="#571c18" stroke="none" stroke-width="0" stroke-linecap="butt"/><path d="M233.56306,96.56047c-10.15162,0 -28.8132,3.02587 -28.60204,-4.02703c0.3297,-11.01254 14.49394,-34.04221 28.7669,-34.04221c5.21269,0 11.17912,0.94313 16.37574,2.45902c-0.00002,0.00459 -0.00004,0.00919 -0.00004,0.01378c0,0.41989 0.10352,0.81561 0.28643,1.16302c2.57874,5.15748 4.81047,10.41449 7.06595,15.66021c-6.37588,8.05406 -17.58962,18.77321 -23.89293,18.77321z" fill="#773128" stroke="none" stroke-width="0" stroke-linecap="butt"/><path d="M261.5057,66.73313c1.35105,1.29324 0.736,3.89876 -1.08686,7.03004c-0.95574,-2.3561 -1.88886,-4.71552 -2.84736,-7.0384c-0.35824,-0.86818 -0.66214,-2.00454 -1.0249,-3.15148c2.07184,0.96906 3.78639,2.03729 4.95911,3.15984z" fill="#773128" stroke="none" stroke-width="0" stroke-linecap="butt"/><path d="M278.86861,96.7603c-0.01822,1.72978 -34.79455,0.85523 -37.0707,0.85523c-1.10061,0 6.46168,-4.79922 12.70089,-11.326c1.57502,-1.64761 4.02684,-5.04704 5.42531,-6.7525c5.66803,0.9525 9.45198,0.62288 15.12984,0.82275c1.68331,4.23998 3.8651,11.61326 3.81467,16.40053z" fill="#773128" stroke="none" stroke-width="0" stroke-linecap="butt"/><path d="M267.78238,70.83684c1.04745,0 3.6083,3.762 5.94538,8.07762c-3.6995,-0.20011 -8.61215,0.06655 -12.30428,-0.46173c2.68913,-3.49541 5.71729,-7.61589 6.3589,-7.61589z" fill="#773128" stroke="none" stroke-width="0" stroke-linecap="butt"/><path d="M233.22115,92.44813c-15.88516,0.65941 -25.88708,0.67091 -26.02177,-1.55565c-0.16485,-2.72518 15.2721,-28.93175 24.56313,-29.42631c0.12846,-0.00684 0.29603,-0.02317 0.49865,-0.04473c4.46402,7.81144 9.82504,15.19876 16.01751,21.73697c-5.45222,4.17418 -13.53394,9.22647 -15.05753,9.28972z" fill="#894939" stroke="none" stroke-width="0" stroke-linecap="butt"/><path d="M253.3583,78.03393c0.07412,0.40944 -0.4978,1.16426 -1.49267,2.12201c-5.28787,-5.73921 -9.97912,-12.28254 -13.90305,-18.8702c5.56033,0.5542 13.02884,3.67325 15.39572,16.7482z" fill="#894939" stroke="none" stroke-width="0" stroke-linecap="butt"/><path d="M276.34712,93.61481c0.10249,1.43722 -28.80908,3.13667 -28.80908,1.6958c0,-0.5078 3.96669,-2.39418 6.87025,-5.19418c2.55298,-2.46191 5.25875,-5.5083 7.52613,-8.4696c3.48218,0.49072 6.96643,0.82008 10.45234,1.02465c2.01078,4.52247 3.84162,9.27819 3.96036,10.94332z" fill="#894939" stroke="none" stroke-width="0" stroke-linecap="butt"/><path d="M267.02022,73.38126c0.19478,-0.63277 1.42666,1.37533 2.93504,4.37425c-1.60827,-0.1299 -3.21588,-0.2894 -4.82273,-0.48223c0.89075,-1.46929 1.55267,-2.80366 1.88769,-3.89202z" fill="#894939" stroke="none" stroke-width="0" stroke-linecap="butt"/><path d="M185.91049,101.70049l15.49621,-3.18239l80.49453,0.47679l0.46758,2.46021l-16.81504,7.32292z" fill="#59220f" stroke="none" stroke-width="0" stroke-linecap="butt"/><path d="M185.91049,101.70049l15.49621,-3.18239l80.96211,0.49456l-16.81504,6.97401z" fill="#6d4321" stroke="none" stroke-width="0" stroke-linecap="butt"/><g fill="#8d6e47" stroke="none" stroke-width="0" stroke-linecap="butt"><path d="M273.67493,100.05535c0,0.50075 -10.67016,4.65727 -11.39853,4.65727c-0.32676,0 -31.13587,-1.86702 -51.15596,-2.91815c0.51076,-0.81575 1.28304,-1.36496 1.78457,-2.17917c20.04197,0.00476 60.76992,0.06054 60.76992,0.44004z"/><path d="M207.01999,99.61524c-0.44774,0.71485 -0.89916,1.43007 -1.3544,2.14499c-1.59017,-0.08353 -10.90831,-0.59282 -10.90831,-0.59282l7.50209,-1.55009c0,0 2.27726,-0.00154 4.76062,-0.00209z"/></g><g stroke="none" stroke-width="0" stroke-linecap="butt"><path d="M330.40256,370.22457c1.43028,1.3133 2.87703,2.14948 2.87703,2.14948c0,0 -1.01758,3.54836 -1.41842,6.11176c-0.50719,3.24355 -2.46491,7.66779 -4.48533,10.09041c-1.93566,2.32098 -7.80007,2.90196 -13.61939,3.03914c-5.82158,0.13724 -10.55669,-0.69095 -12.72654,-3.06316c-2.43088,-2.6576 -4.44598,-6.48865 -5.64157,-9.99375c-0.65493,-1.92007 -2.69901,-6.6271 -2.69901,-6.6271c0,0 1.86843,-0.798 3.75714,-2.25776c3.20078,-2.47384 6.49733,-6.97133 10.75404,-6.89439l6.6663,2.55502c0,0 2.13151,-0.76817 3.99398,-1.53006c1.59654,-0.6531 2.80206,-1.35681 4.48086,-0.94431c4.04586,0.99412 6.58535,6.00985 8.06089,7.3647z" fill="#000000"/><path d="M322.29567,364.92166c0.66675,0.12789 3.06441,2.76849 4.87649,4.55656c1.60558,1.58431 2.89257,2.86796 2.89257,2.86796c0,0 -2.2885,0.47937 -5.15023,-0.15326c-3.27585,-0.72417 -4.41864,-2.68771 -7.20972,-2.73972c-12.30892,-0.22941 -9.30998,1.39695 -12.9803,1.82156c-5.31094,0.61443 -8.08201,0.23623 -8.08201,0.23623c0,0 1.21147,-0.67269 2.79146,-1.96325c2.34209,-1.91305 5.49397,-4.68497 6.70998,-4.59024c3.00056,-0.58667 7.90763,2.57731 7.90763,2.57731c0,0 4.14175,-3.33293 8.24412,-2.61315z" fill="#ffffff"/><path d="M295.67982,373.05635c0,0 4.50885,0.76202 6.46932,2.53503c3.15023,2.84899 2.65801,6.44078 12.44585,6.81868c7.69699,-0.03119 8.53263,-4.17887 10.65202,-6.48452c1.9124,-2.08048 5.63544,-2.2911 5.63544,-2.2911c0,0 -1.03304,8.71298 -4.34745,12.57889c-3.41821,3.98699 -9.1635,3.12993 -12.05369,3.08247c-2.42514,-0.03983 -8.75745,0.75633 -12.09793,-2.38418c-4.95575,-4.65911 -6.70357,-13.85525 -6.70357,-13.85525z" fill="#ffffff"/><path d="M315.93641,370.92127c2.80256,0.05897 5.63202,1.78331 5.63202,1.78331c0,0 -5.15874,0.2619 -7.61077,0.18838c-2.29325,-0.06877 -6.65702,-0.61618 -6.65702,-0.61618c0,0 0.92426,-1.51777 8.63577,-1.35551z" fill="#ffffff"/><path d="M306.46748,378.03554c0,0 5.51699,0.62207 8.22616,0.6674c2.5189,0.04215 6.45821,-0.69519 6.45821,-0.69519c0,0 0.19861,2.86217 -6.77048,2.7549c-6.39477,-0.09042 -7.91389,-2.7271 -7.91389,-2.7271z" fill="#ffffff"/></g><g stroke="none" stroke-width="0" stroke-linecap="butt"><path d="M333.83272,402.2859c0,0 -0.72371,4.1476 -2.39871,7.58c-1.96368,4.02398 -2.93223,6.46139 -6.46107,7.51032c-2.83976,0.84411 -8.36082,1.20238 -12.78089,1.17336c-5.20874,-0.0342 -9.37921,-0.51526 -13.19046,-5.22991c-3.49481,-4.32321 -5.19582,-12.4698 -5.19582,-12.4698c0,0 10.292,-8.67353 12.39338,-8.92129c2.46706,-0.29088 8.52846,1.84088 8.52846,1.84088c0,0 6.55191,-2.26783 8.02548,-1.80842c2.60116,0.70064 11.07963,10.32486 11.07963,10.32486z" fill="#000000"/><path d="M296.90276,400.68789c0,0 1.83058,-1.17321 3.96886,-2.90087c2.00766,-1.62213 4.27721,-3.80616 5.83713,-3.78298c3.16053,-0.54916 8.15152,3.09107 8.15152,3.09107c0,0 4.46151,-3.73293 7.50775,-3.18248c1.53411,0.44239 3.18809,2.45599 4.71963,4.2397c1.59861,1.86182 3.04261,3.48698 3.04261,3.48698c0,0 -2.33775,0.0791 -5.34417,-0.79446c-3.06371,-0.89021 -5.00342,-2.50131 -9.50802,-2.811c-5.33033,-0.36647 -6.64677,1.6033 -10.40607,2.25301c-4.11722,0.71157 -7.96925,0.40103 -7.96925,0.40103z" fill="#ffffff"/><path d="M302.65213,404.05274c3.31816,2.66682 3.60433,5.35379 11.09287,5.63379c2.12428,0.07035 5.32937,0.12697 7.61523,-1.46033c1.88492,-1.30889 2.47116,-3.34294 4.14257,-4.2633c3.95828,-2.17963 6.35455,-0.97405 6.35455,-0.97405c0,0 -3.00229,8.86406 -4.79211,10.7193c-3.60043,3.73204 -20.18681,3.96968 -23.70537,1.02997c-2.40043,-2.00553 -4.92858,-4.87372 -6.10527,-7.71067c-1.38213,-3.33225 -1.35799,-4.65536 -1.35799,-4.65536c0,0 4.69054,0.02102 6.75553,1.68066z" fill="#ffffff"/><path d="M316.4863,400.1458c2.95198,0.05519 5.29978,1.60853 5.29978,1.60853c0,0 -4.85294,0.17141 -7.4357,0.1026c-2.41551,-0.06437 -7.09489,-0.50305 -7.09489,-0.50305c0,0 1.10819,-1.35996 9.23082,-1.20808z" fill="#ffffff"/><path d="M315.12561,406.01817c2.6532,0.03946 6.5536,-0.42953 6.5536,-0.42953c0,0 -1.53409,2.49694 -7.13534,2.39652c-6.73568,-0.08464 -7.75106,-2.66545 -7.75106,-2.66545c0,0 5.47921,0.65602 8.33281,0.69845z" fill="#ffffff"/></g><g stroke="none" stroke-width="0" stroke-linecap="butt"><path d="M339.08177,301.71922c0,0 9.02261,-2.10259 11.02569,-2.87341c1.14628,-0.4411 3.9553,-0.33757 5.59138,-0.11268c3.95558,0.54369 7.51915,1.43707 7.51915,1.43707c0,0 4.40965,-1.28844 7.7025,-0.27641c0.5645,0.17349 12.17544,4.80569 12.17544,4.80569c0,0 -0.02844,0.84781 -2.23052,3.11597c-3.70035,3.81138 -11.04091,5.40977 -19.05602,5.61515c-3.73342,0.09566 -9.82326,-1.3164 -14.40825,-4.13917c-4.98368,-3.06823 -8.31937,-7.57221 -8.31937,-7.57221z" fill="#000000"/><path d="M349.23059,301.08477c1.78476,-0.56986 4.16199,-0.35522 5.71361,-0.25136c1.36842,0.09161 4.15163,0.45441 8.05381,1.127c1.61369,0.27814 4.54837,-1.10269 6.15404,-0.79762c1.85079,0.35163 3.29419,0.44614 4.68334,0.98136c2.57006,0.9902 2.91485,1.35146 2.91485,1.35146c0,0 -3.76819,-0.56422 -7.35982,-0.1317c-2.42759,0.29235 -4.22111,1.31173 -6.28484,1.17359c-2.50232,-0.16751 -4.50205,-1.09617 -8.16293,-1.82488c-4.99635,-0.99452 -10.25966,-0.69487 -10.25966,-0.69487c0,0 1.54337,0.02624 4.54758,-0.93298z" fill="#ffffff"/><path d="M354.79492,304.26712c2.79511,0.74761 8.19556,2.55422 8.19556,2.55422c0,0 6.07261,-1.77477 8.85337,-1.88531c3.24533,-0.12901 9.65023,0.31887 9.65023,0.31887c0,0 -8.57051,6.28105 -20.03668,5.37569c-12.60163,-0.99501 -18.51376,-6.80771 -18.51376,-6.80771c0,0 10.02559,-0.04408 11.85128,0.44425z" fill="#ffffff"/></g></g></g></svg>