<svg version="1.1" xmlns="http://www.w3.org/2000/svg" xmlns:xlink="http://www.w3.org/1999/xlink" width="34.17311" height="34.17311" viewBox="0,0,34.17311,34.17311"><g transform="translate(-222.91347,-162.91346)"><g data-paper-data="{&quot;isPaintingLayer&quot;:true}" stroke-miterlimit="10" stroke-dasharray="" stroke-dashoffset="0" style="mix-blend-mode: normal"><path d="M229.98313,162.91346h20.03379c3.9166,0 7.06966,3.15307 7.06966,7.06966v20.03379c0,3.91659 -3.15306,7.06966 -7.06966,7.06966h-20.03379c-3.91659,0 -7.06966,-3.15307 -7.06966,-7.06966v-20.03379c0,-3.91659 3.15307,-7.06966 7.06966,-7.06966z" fill="#59220f" fill-rule="evenodd" stroke="none" stroke-width="4.43922" stroke-linecap="round" stroke-linejoin="round"/><g fill="#000000" fill-rule="nonzero" stroke-linejoin="miter"><g><path d="M251.65563,185.38602c-0.13066,0.51382 -0.44357,0.82892 -0.6465,1.22876c-0.3455,0.68075 -0.58237,1.29555 -0.58237,1.29555c0,0 -0.35182,-0.07419 -0.60594,-0.23091c-0.1619,0.23889 -0.37357,0.56316 -0.4693,0.76096c-0.21022,0.43435 -0.48026,1.33176 -0.48026,1.33176l-0.39978,-0.44649c0,0 -0.56533,0.4866 -0.76752,0.83793c-0.21263,0.36947 -0.47853,1.32723 -0.47853,1.32723l-0.45216,-0.41058c0,0 -0.31182,1.33511 -1.34654,2.37987c-1.17502,1.18642 -2.38187,1.30073 -2.38187,1.30073l-0.32286,-0.75776c0,0 -1.22988,0.5323 -3.02366,0.74788c0.95207,-2.27805 2.92741,-14.46228 5.10819,-17.1927c3.90615,-4.89068 8.40672,-0.04507 8.40672,-0.04507l-0.94229,4.08143l0.20479,0.99659l-0.26824,-0.03684c0,0 0.00391,0.3777 0.0285,0.50576c0.07209,0.37527 0.50025,0.95689 0.50025,0.95689c0,0 -0.50018,0.07337 -0.92611,-0.04875c0.00509,0.36539 -0.01986,0.88822 -0.15452,1.41777z" data-paper-data="{&quot;index&quot;:null}" stroke="none" stroke-width="NaN" stroke-linecap="butt"/><path d="M228.95825,174.32699c0,0 0.2096,0.47312 0.01242,0.45821c-0.54971,-0.04157 -1.08117,-0.72199 -1.08117,-0.72199c0,0 0.7113,-0.12514 1.02254,-0.34685c0.1062,-0.07565 0.3698,-0.34619 0.3698,-0.34619l-0.21948,-0.15854l0.83621,-0.57956c0,0 0.79474,-1.90183 2.3289,-3.85295c0.00686,-0.00872 0.0786,0.38889 -0.09364,0.23888c-0.30605,-0.26654 -0.15464,-1.01444 -0.15464,-1.01444c0,0 0.29459,0.10708 0.57936,0.06284c0.24204,-0.0376 0.55621,-0.43409 0.55621,-0.43409c0,0 0.07629,-0.44403 0.63953,-1.11483c0.20428,-0.24329 0.48813,-0.29471 0.79054,-0.49821c0.31369,-0.21109 0.64241,-0.56981 0.64241,-0.56981c0,0 0.20491,0.60371 -0.16942,1.01563c-0.13459,0.14811 -0.29459,0.05148 -0.29459,0.05148c0,0 0.56104,-0.67597 1.57151,-1.15694c0.50971,-0.24261 1.16007,-0.14885 1.62798,-0.21295c0.56441,-0.07732 1.63066,-0.34018 1.63066,-0.34018l-0.12922,0.6682c0,0 0.53488,-0.76694 2.32209,-0.81385c0.99659,-0.02616 1.52169,0.63804 1.52169,0.63804l-0.35138,-0.92846c0,0 0.75641,0.44787 1.53884,0.81538c0.5608,0.26341 0.87558,-0.17634 2.13292,0.41416c1.2535,0.5887 1.68272,1.25496 2.32403,1.81027c0.72261,0.62572 1.9885,1.43417 1.9885,1.43417c0,0 -0.50669,0.40527 -0.93728,0.15583c-0.1022,-0.0592 0.07546,-0.18094 0.07546,-0.18094c0,0 0.54674,0.22561 0.78823,0.38707c0.43121,0.28832 0.70409,0.61107 0.70409,0.61107l-0.66654,0.0837c0,0 0.91694,0.17718 1.37382,0.59213c0.57162,0.51917 0.71403,1.31403 0.77538,1.4932c0.14273,0.41685 -0.11824,1.38878 0.04532,2.327c0.12158,0.6974 0.69393,1.47333 0.69393,1.47333c0,0 -0.56746,-0.01748 -0.52828,0.48285c0.04488,0.57319 0.59504,0.9027 0.59504,0.9027c0,0 -0.54169,0.83072 -0.75354,0.69223c-0.13174,-0.08611 0.28864,-0.41014 0.253,-0.26128c-0.32317,1.34989 -10.67573,16.15983 -10.67573,16.15983c0,0 -1.98025,1.09726 -4.155,1.21422c-2.09684,0.11277 -3.69531,-0.67646 -4.46804,-1.00194c-4.06197,-1.71092 -5.7812,-5.77415 -5.7812,-5.77415l-0.75673,0.32527c0,0 -0.79413,-0.91591 -0.82504,-2.58544c-0.02722,-1.47018 0.66898,-2.65131 0.66898,-2.65131l-0.61057,-0.01516c0,0 0.46889,-0.87643 0.57016,-1.29052c0.09629,-0.39375 0.02328,-1.13608 0.02328,-1.13608l-0.59747,0.04698c0,0 0.42423,-0.83564 0.57204,-1.295c0.11662,-0.36246 0.24362,-1.23995 0.24362,-1.23995c0,0 0.39572,0.27682 0.3283,0.32495c-0.29867,0.21324 -1.22812,0.17028 -1.22812,0.17028c0,0 0.49743,-0.98939 0.71749,-1.72039c0.12925,-0.42935 0.12044,-0.87334 0.38066,-1.33526c0.4909,-0.8714 1.23219,-1.47267 1.23219,-1.47267z" stroke="none" stroke-width="NaN" stroke-linecap="butt"/><g><path d="M247.73248,186.40944c-0.87051,1.21601 -3.03886,1.47493 -3.03886,1.47493c0,0 0.33518,-1.70835 1.14099,-2.96818c0.80581,-1.25982 2.69699,-2.13818 2.9423,-1.98127c0.24531,0.1569 1.18646,0.35819 -1.04442,3.47451z" stroke="none" stroke-width="0" stroke-linecap="butt"/><path d="M247.71001,186.00945c-0.6788,0.94823 -2.21857,1.49513 -2.21857,1.49513c0,0 0.41079,-1.04563 1.03914,-2.02802c0.62835,-0.98239 1.85872,-2.40659 2.20526,-2.22205c0.20042,0.10673 0.71376,0.32489 -1.02584,2.75493z" stroke="none" stroke-width="0" stroke-linecap="butt"/><path d="M247.61217,184.00086c0,0 0.58904,0.25429 0.03162,1.09294c-0.34958,0.52595 -1.78338,1.69328 -1.78338,1.69328" stroke="#000000" stroke-width="0.5" stroke-linecap="round"/><g><path d="M231.52121,176.06231c0.28579,0.05586 1.04747,1.99697 0.76061,3.46469c-0.28687,1.46771 -1.22386,2.93497 -1.22386,2.93497c0,0 -1.38986,-1.68437 -1.18005,-3.16506c0.53769,-3.79462 1.3575,-3.29046 1.64329,-3.2346z" stroke="none" stroke-width="0" stroke-linecap="butt"/><path d="M231.33027,176.32185c0.37811,0.10575 0.28488,1.98551 0.06119,3.13001c-0.22369,1.1445 -0.64844,2.18454 -0.64844,2.18454c0,0 -0.73629,-1.45872 -0.57269,-2.61333c0.41928,-2.95897 0.94125,-2.76238 1.15993,-2.70122z" stroke="none" stroke-width="0" stroke-linecap="butt"/><path d="M230.97147,180.8626c0,0 -0.2313,-1.83438 -0.12107,-2.45621c0.17577,-0.99155 0.77745,-0.76882 0.77745,-0.76882" stroke="#000000" stroke-width="0.5" stroke-linecap="round"/></g></g></g><g stroke="none" stroke-width="0" stroke-linecap="butt"><path d="M229.35605,187.02566c0.42988,-1.97201 0.70834,-1.93264 1.18895,-3.81603c0.26535,-1.03984 0.19865,-2.21575 0.47532,-3.36388c0.58267,-2.41798 2.4782,-7.19985 3.10958,-8.14118c3.50353,-5.22338 6.98486,-5.17297 11.02297,-3.72072c5.79795,2.08516 5.44621,6.16802 4.92449,9.56853c-0.36468,2.37696 -1.74843,5.34265 -3.2451,7.82218c-0.91667,1.51864 -1.87227,2.7008 -2.67212,3.9061c-0.98723,1.48767 -1.06234,2.05217 -1.90884,3.28038c-0.87949,1.27607 -3.07109,2.22125 -5.00081,3.05319c-1.76435,0.76064 -3.09392,1.42035 -4.31318,0.89773c-1.37456,-0.58919 -1.77942,-2.70078 -2.61821,-5.02196c-0.66456,-1.83901 -1.18586,-3.4422 -0.96304,-4.46434z"/><g><g><path d="M231.37698,181.82592c0.30114,-1.50529 -0.50546,-1.56122 1.73424,-6.5538c1.04518,-2.32983 2.27207,-4.40637 3.28449,-5.31449c3.28904,-2.95021 6.92218,-2.02772 8.26794,-1.4886c1.14467,0.45856 4.51813,2.43414 5.09418,6.25695c0.12123,0.80456 0.11096,1.93585 -0.19625,3.09218c-0.31777,1.19608 -0.9412,2.41896 -1.32755,3.33514c-0.68268,1.61888 -1.23544,3.2701 -2.26715,4.83041c-0.50911,0.76996 -1.1944,1.49631 -1.68656,2.18347c-1.0469,1.4617 -1.44345,2.49853 -1.95991,3.28632c-1.18931,1.81411 -1.31953,1.78154 -2.30197,2.34048c-1.06467,0.60572 -2.38939,1.00709 -3.48921,1.44721c-0.997,0.39897 -2.19194,1.10563 -3.10015,0.74179c-1.1292,-0.45237 -1.48197,-1.80375 -1.95549,-3.15097c-0.71514,-2.03463 -2.28104,-3.44113 -1.62558,-6.3365c0.26407,-1.16648 1.16861,-2.86833 1.52896,-4.66959z"/><path d="M244.28032,188.16718c-0.42265,0.59012 -1.00065,1.57417 -1.00065,1.57417c0,0 -1.8275,0.11534 -3.15431,-0.93923c-1.30893,-1.04037 -1.57693,-2.6278 -1.57693,-2.6278l-1.7329,-0.65346c0,0 -1.18725,0.52932 -2.09201,0.5066c-0.90476,-0.02272 -1.46663,-0.19407 -1.46663,-0.19407c0,0 -0.55719,0.30593 -0.99187,0.36777c-0.43468,0.06184 -0.89677,-0.09909 -0.89677,-0.09909c0,0 0.07131,0.27244 0.01767,0.48313c-0.06897,0.27087 -0.25341,0.5734 -0.25341,0.5734c0,0 -0.32205,-0.53138 -0.79748,-0.74534c-0.3616,-0.16273 -0.48723,0.0832 -0.48702,0.08225c0.26407,-1.16648 1.13913,-2.88014 1.49948,-4.6814c0,0 13.42499,5.6659 12.93283,6.35307z"/><path d="M229.2605,182.45075c0,0 -0.45761,-4.75989 0.19517,-6.38938c0.74809,-1.86738 3.26284,-4.44959 3.26284,-4.44959l18.40059,3.19175c0,0 -0.94033,6.62363 -1.84547,9.28179c-0.66294,1.94688 -4.46014,4.6908 -4.46014,4.6908c0,0 -2.25685,0.29138 -4.02518,-0.73975c-1.55624,-0.90745 -2.09667,-2.66217 -2.09667,-2.66217l-1.79784,-0.71807c0,0 -2.24548,1.08672 -4.56709,0.36547c-0.81641,-0.25363 -1.45339,-0.68213 -1.93006,-1.11733c-0.04098,-0.03741 -0.10251,0.56901 -0.10251,0.56901c0,0 0.25657,0.43713 1.01227,0.74782c0.63101,0.25942 1.49377,0.32775 1.49377,0.32775c0,0 -1.62959,0.48321 -2.79965,0.14747c-0.83208,-0.23876 -0.46416,-0.3429 -0.46416,-0.3429z"/><path d="M229.78828,186.21919c-0.48619,0.28761 0.30758,-0.76779 0.30758,-0.76779c0,0 0.66105,0.18127 0.9136,0.49965c0.25256,0.31838 0.12245,0.80641 0.12245,0.80641c0,0 -0.30087,-1.15514 -1.34364,-0.53827z"/></g><path d="M232.24767,174.34714l2.33155,-5.82004c0,0 7.89359,-2.79928 10.8177,-1.62786c2.71161,1.08629 6.13762,8.42028 6.13762,8.42028l-1.37833,4.19951c0,0 -0.02238,-3.15 -1.28733,-2.89855c-3.35538,0.66699 -8.28145,-0.07107 -8.28145,-0.07107c0,0 1.1805,-0.64611 1.76396,-0.97704c0.30597,-0.17354 0.6557,-0.49859 0.6557,-0.49859c0,0 -3.13483,0.49642 -5.68894,0.24287c-3.49219,-0.34668 -5.07048,-0.96952 -5.07048,-0.96952z"/></g></g><g stroke="none" stroke-linecap="butt"><g stroke-width="0"><path d="M230.18693,171.47084c0.2014,-0.40004 0.49395,-0.61221 0.49395,-0.61221c0,0 0.06116,-0.60895 0.40549,-1.22763c0.34026,-0.61135 0.82195,-0.94643 0.82195,-0.94643c0,0 4.41139,0.35452 11.71251,3.37581c7.30111,3.02129 9.87893,5.54448 9.87893,5.54448c0,0 0.11145,0.40576 -0.09746,0.96711c-0.15816,0.42496 -0.45667,0.77333 -0.45667,0.77333c0,0 0.17578,0.32498 0.0303,0.85447c-0.17024,0.61962 -0.54259,1.05716 -0.54259,1.05716c0,0 -3.39168,-2.82869 -10.11407,-5.75695c-5.60137,-2.43995 -12.3525,-3.02582 -12.3525,-3.02582c0,0 -0.03701,-0.49248 0.22016,-1.00331z"/><path d="M230.93617,171.12568c0.15016,-0.27693 0.40043,-0.40761 0.40043,-0.40761c0,0 0.00314,-0.44292 0.26556,-0.86833c0.25932,-0.42037 0.67263,-0.62506 0.67263,-0.62506c0,0 0.52367,0.08275 1.51607,0.32033c-0.37211,0.29906 -0.67213,0.69087 -0.85983,1.15943c-0.19873,0.49606 -0.247,1.01681 -0.16623,1.51555c-1.19748,-0.25334 -1.94349,-0.37495 -1.94349,-0.37495c0,0 -0.0769,-0.36574 0.11486,-0.71935z"/><g><path d="M252.88651,177.67162c0,0 0.13773,0.30839 -0.00529,0.70339c-0.10827,0.29903 -0.35215,0.52946 -0.35215,0.52946c0,0 0.18978,0.25453 0.10227,0.63161c-0.10241,0.44127 -0.40636,0.7309 -0.40636,0.7309c0,0 -0.55253,-0.39074 -1.63802,-1.03802c0.43487,-0.30969 0.78548,-0.73786 0.99549,-1.2621c0.13762,-0.34353 0.20309,-0.6989 0.20351,-1.0506c0.762,0.48301 1.10054,0.75535 1.10054,0.75535z"/><path d="M243.32839,172.72984c0.36043,0.14789 0.70914,0.29369 1.04638,0.43723c-0.35311,0.29458 -0.63799,0.6746 -0.81874,1.12578c-0.16467,0.41104 -0.22603,0.83904 -0.19628,1.25742c-0.30167,-0.13294 -0.61082,-0.26701 -0.9274,-0.40195c-0.49431,-0.2107 -0.99623,-0.41064 -1.50015,-0.60001c0.27928,-0.27081 0.50597,-0.60089 0.6585,-0.98164c0.19145,-0.4779 0.24326,-0.97872 0.17458,-1.4607c0.50344,0.19522 1.02466,0.40293 1.56311,0.62386z"/></g></g><g stroke-width="0.5"><g><g><path d="M234.02885,170.44265c0.69152,-1.72617 2.78354,-2.512 4.67268,-1.7552c1.88913,0.7568 2.85999,2.76965 2.16847,4.49581c-0.69152,1.72617 -2.78354,2.512 -4.67268,1.7552c-1.88913,-0.7568 -2.85999,-2.76965 -2.16847,-4.49581z"/><g><path d="M233.68079,170.63834c0.64995,-1.62241 2.61915,-2.35983 4.39833,-1.64708c1.77918,0.71275 2.6946,2.60577 2.04465,4.22818c-0.64995,1.62241 -2.61914,2.35983 -4.39832,1.64708c-1.77918,-0.71275 -2.6946,-2.60577 -2.04466,-4.22818z"/><path d="M234.01197,170.77101c0.46372,-1.15754 1.67594,-1.81297 2.95571,-1.71128c-0.22513,0.25613 -0.41112,0.55408 -0.54503,0.88834c-0.63628,1.58829 0.1443,3.39519 1.74348,4.03583c0.26123,0.10465 0.52814,0.17171 0.79469,0.20374c-0.81933,0.63825 -2.00781,0.82019 -3.11438,0.37689c-1.59628,-0.63948 -2.41759,-2.33789 -1.83446,-3.79352z"/></g></g><path d="M234.33235,170.89935c0.5185,-1.29427 2.0408,-1.90202 3.40016,-1.35745c1.35936,0.54457 2.04102,2.03524 1.52252,3.32952c-0.5185,1.29427 -2.0408,1.90203 -3.40016,1.35746c-1.35936,-0.54457 -2.04102,-2.03525 -1.52253,-3.32952z"/></g><g data-paper-data="{&quot;index&quot;:null}"><g><path d="M251.22584,177.33189c-0.69152,1.72617 -2.78354,2.512 -4.67268,1.7552c-1.88913,-0.7568 -2.85999,-2.76965 -2.16847,-4.49581c0.69152,-1.72617 2.78354,-2.512 4.67268,-1.7552c1.88913,0.7568 2.85999,2.76965 2.16848,4.49582z"/><g><path d="M246.94421,179.36083c-1.77918,-0.71275 -2.6946,-2.60577 -2.04465,-4.22818c0.64995,-1.62241 2.61914,-2.35983 4.39832,-1.64708c1.77918,0.71275 2.6946,2.60577 2.04466,4.22818c-0.64995,1.62241 -2.61915,2.35983 -4.39833,1.64708z"/><path d="M251.01136,177.58108c-0.58313,1.45562 -2.34989,2.11724 -3.94617,1.47776c-1.10656,-0.4433 -1.84072,-1.39546 -1.99278,-2.42286c0.21494,0.16086 0.45432,0.29663 0.71555,0.40128c1.59917,0.64064 3.41137,-0.12758 4.04765,-1.71587c0.13391,-0.33426 0.20506,-0.67822 0.21903,-1.01894c0.99601,0.81 1.42043,2.12109 0.95671,3.27863z"/></g></g><path d="M247.29082,178.81019c-1.35936,-0.54457 -2.04102,-2.03524 -1.52252,-3.32952c0.51849,-1.29427 2.04079,-1.90202 3.40016,-1.35745c1.35936,0.54457 2.04102,2.03524 1.52253,3.32952c-0.5185,1.29427 -2.0408,1.90203 -3.40016,1.35746z"/></g></g></g></g><g fill-rule="nonzero" stroke-linejoin="miter"><g><path d="M251.43168,184.85123c-0.13066,0.51382 -0.44357,0.82892 -0.6465,1.22876c-0.3455,0.68075 -0.58237,1.29555 -0.58237,1.29555c0,0 -0.35182,-0.07419 -0.60594,-0.23091c-0.1619,0.23889 -0.37357,0.56316 -0.4693,0.76096c-0.21022,0.43435 -0.48026,1.33176 -0.48026,1.33176l-0.39978,-0.44649c0,0 -0.56533,0.4866 -0.76752,0.83793c-0.21263,0.36947 -0.47853,1.32723 -0.47853,1.32723l-0.45216,-0.41058c0,0 -0.31182,1.33511 -1.34654,2.37987c-1.17502,1.18642 -2.38187,1.30073 -2.38187,1.30073l-0.32286,-0.75776c0,0 -1.22988,0.5323 -3.02366,0.74788c0.95207,-2.27805 2.92741,-14.46228 5.10819,-17.1927c3.90615,-4.89068 8.40672,-0.04507 8.40672,-0.04507l-0.94229,4.08143l0.20479,0.99659l-0.26824,-0.03684c0,0 0.00391,0.3777 0.0285,0.50576c0.07209,0.37527 0.50025,0.95689 0.50025,0.95689c0,0 -0.50018,0.07337 -0.92611,-0.04875c0.00509,0.36539 -0.01986,0.88822 -0.15452,1.41777z" data-paper-data="{&quot;index&quot;:null}" fill="#000000" stroke="none" stroke-width="NaN" stroke-linecap="butt"/><path d="M228.7343,173.79221c0,0 0.2096,0.47312 0.01242,0.45821c-0.54971,-0.04157 -1.08117,-0.72199 -1.08117,-0.72199c0,0 0.7113,-0.12514 1.02254,-0.34685c0.1062,-0.07565 0.3698,-0.34619 0.3698,-0.34619l-0.21948,-0.15854l0.83621,-0.57956c0,0 0.79474,-1.90183 2.3289,-3.85295c0.00686,-0.00872 0.0786,0.38889 -0.09364,0.23888c-0.30605,-0.26654 -0.15464,-1.01444 -0.15464,-1.01444c0,0 0.29459,0.10708 0.57936,0.06284c0.24204,-0.0376 0.55621,-0.43409 0.55621,-0.43409c0,0 0.07629,-0.44403 0.63953,-1.11483c0.20428,-0.24329 0.48813,-0.29471 0.79054,-0.49821c0.31369,-0.21109 0.64241,-0.56981 0.64241,-0.56981c0,0 0.20491,0.60371 -0.16942,1.01563c-0.13459,0.14811 -0.29459,0.05148 -0.29459,0.05148c0,0 0.56104,-0.67597 1.57151,-1.15694c0.50971,-0.24261 1.16007,-0.14885 1.62798,-0.21295c0.56441,-0.07732 1.63066,-0.34018 1.63066,-0.34018l-0.12922,0.6682c0,0 0.53488,-0.76694 2.32209,-0.81385c0.99659,-0.02616 1.52169,0.63804 1.52169,0.63804l-0.35138,-0.92846c0,0 0.75641,0.44787 1.53884,0.81538c0.5608,0.26341 0.87558,-0.17634 2.13292,0.41416c1.2535,0.5887 1.68272,1.25496 2.32403,1.81027c0.72261,0.62572 1.9885,1.43417 1.9885,1.43417c0,0 -0.50669,0.40527 -0.93728,0.15583c-0.1022,-0.0592 0.07546,-0.18094 0.07546,-0.18094c0,0 0.54674,0.22561 0.78823,0.38707c0.43121,0.28832 0.70409,0.61107 0.70409,0.61107l-0.66654,0.0837c0,0 0.91694,0.17718 1.37382,0.59213c0.57162,0.51917 0.71403,1.31403 0.77538,1.4932c0.14273,0.41685 -0.11824,1.38878 0.04532,2.327c0.12158,0.6974 0.69393,1.47333 0.69393,1.47333c0,0 -0.56746,-0.01748 -0.52828,0.48285c0.04488,0.57319 0.59504,0.9027 0.59504,0.9027c0,0 -0.54169,0.83072 -0.75354,0.69223c-0.13174,-0.08611 0.28864,-0.41014 0.253,-0.26128c-0.32317,1.34989 -10.67573,16.15983 -10.67573,16.15983c0,0 -1.98025,1.09726 -4.155,1.21422c-2.09684,0.11277 -3.69531,-0.67646 -4.46804,-1.00194c-4.06197,-1.71092 -5.7812,-5.77415 -5.7812,-5.77415l-0.75673,0.32527c0,0 -0.79413,-0.91591 -0.82504,-2.58544c-0.02722,-1.47018 0.66898,-2.65131 0.66898,-2.65131l-0.61057,-0.01516c0,0 0.46889,-0.87643 0.57016,-1.29052c0.09629,-0.39375 0.02328,-1.13608 0.02328,-1.13608l-0.59747,0.04698c0,0 0.42423,-0.83564 0.57204,-1.295c0.11662,-0.36246 0.24362,-1.23995 0.24362,-1.23995c0,0 0.39572,0.27682 0.3283,0.32495c-0.29867,0.21324 -1.22812,0.17028 -1.22812,0.17028c0,0 0.49743,-0.98939 0.71749,-1.72039c0.12925,-0.42935 0.12044,-0.87334 0.38066,-1.33526c0.4909,-0.8714 1.23219,-1.47267 1.23219,-1.47267z" fill="#000000" stroke="none" stroke-width="NaN" stroke-linecap="butt"/><g><path d="M247.50853,185.87466c-0.87051,1.21601 -3.03886,1.47493 -3.03886,1.47493c0,0 0.33518,-1.70835 1.14099,-2.96818c0.80581,-1.25982 2.69699,-2.13818 2.9423,-1.98127c0.24531,0.1569 1.18646,0.35819 -1.04442,3.47451z" fill="#000000" stroke="none" stroke-width="0" stroke-linecap="butt"/><path d="M247.48606,185.47467c-0.6788,0.94823 -2.21857,1.49513 -2.21857,1.49513c0,0 0.41079,-1.04563 1.03914,-2.02802c0.62835,-0.98239 1.85872,-2.40659 2.20526,-2.22205c0.20042,0.10673 0.71376,0.32489 -1.02584,2.75493z" fill="#ffffff" stroke="none" stroke-width="0" stroke-linecap="butt"/><path d="M247.38822,183.46608c0,0 0.58904,0.25429 0.03162,1.09294c-0.34958,0.52595 -1.78338,1.69328 -1.78338,1.69328" fill="none" stroke="#000000" stroke-width="0.5" stroke-linecap="round"/><g><path d="M231.29726,175.52753c0.28579,0.05586 1.04747,1.99697 0.76061,3.46469c-0.28687,1.46771 -1.22386,2.93497 -1.22386,2.93497c0,0 -1.38986,-1.68437 -1.18005,-3.16506c0.53769,-3.79462 1.3575,-3.29046 1.64329,-3.2346z" fill="#000000" stroke="none" stroke-width="0" stroke-linecap="butt"/><path d="M231.10632,175.78707c0.37811,0.10575 0.28488,1.98551 0.06119,3.13001c-0.22369,1.1445 -0.64844,2.18454 -0.64844,2.18454c0,0 -0.73629,-1.45872 -0.57269,-2.61333c0.41928,-2.95897 0.94125,-2.76238 1.15993,-2.70122z" fill="#ffffff" stroke="none" stroke-width="0" stroke-linecap="butt"/><path d="M230.74752,180.32782c0,0 -0.2313,-1.83438 -0.12107,-2.45621c0.17577,-0.99155 0.77745,-0.76882 0.77745,-0.76882" fill="none" stroke="#000000" stroke-width="0.5" stroke-linecap="round"/></g></g></g><g stroke="none" stroke-width="0" stroke-linecap="butt"><path d="M229.1321,186.49088c0.42988,-1.97201 0.70834,-1.93264 1.18895,-3.81603c0.26535,-1.03984 0.19865,-2.21575 0.47532,-3.36388c0.58267,-2.41798 2.4782,-7.19985 3.10958,-8.14118c3.50353,-5.22338 6.98486,-5.17297 11.02297,-3.72072c5.79795,2.08516 5.44621,6.16802 4.92449,9.56853c-0.36468,2.37696 -1.74843,5.34265 -3.2451,7.82218c-0.91667,1.51864 -1.87227,2.7008 -2.67212,3.9061c-0.98723,1.48767 -1.06234,2.05217 -1.90884,3.28038c-0.87949,1.27607 -3.07109,2.22125 -5.00081,3.05319c-1.76435,0.76064 -3.09392,1.42035 -4.31318,0.89773c-1.37456,-0.58919 -1.77942,-2.70078 -2.61821,-5.02196c-0.66456,-1.83901 -1.18586,-3.4422 -0.96304,-4.46434z" fill="#000000"/><g><g><path d="M231.15303,181.29114c0.30114,-1.50529 -0.50546,-1.56122 1.73424,-6.5538c1.04518,-2.32983 2.27207,-4.40637 3.28449,-5.31449c3.28904,-2.95021 6.92218,-2.02772 8.26794,-1.4886c1.14467,0.45856 4.51813,2.43414 5.09418,6.25695c0.12123,0.80456 0.11096,1.93585 -0.19625,3.09218c-0.31777,1.19608 -0.9412,2.41896 -1.32755,3.33514c-0.68268,1.61888 -1.23544,3.2701 -2.26715,4.83041c-0.50911,0.76996 -1.1944,1.49631 -1.68656,2.18347c-1.0469,1.4617 -1.44345,2.49853 -1.95991,3.28632c-1.18931,1.81411 -1.31953,1.78154 -2.30197,2.34048c-1.06467,0.60572 -2.38939,1.00709 -3.48921,1.44721c-0.997,0.39897 -2.19194,1.10563 -3.10015,0.74179c-1.1292,-0.45237 -1.48197,-1.80375 -1.95549,-3.15097c-0.71514,-2.03463 -2.28104,-3.44113 -1.62558,-6.3365c0.26407,-1.16648 1.16861,-2.86833 1.52896,-4.66959z" fill="#6d4321"/><path d="M244.05637,187.63239c-0.42265,0.59012 -1.00065,1.57417 -1.00065,1.57417c0,0 -1.8275,0.11534 -3.15431,-0.93923c-1.30893,-1.04037 -1.57693,-2.6278 -1.57693,-2.6278l-1.7329,-0.65346c0,0 -1.18725,0.52932 -2.09201,0.5066c-0.90476,-0.02272 -1.46663,-0.19407 -1.46663,-0.19407c0,0 -0.55719,0.30593 -0.99187,0.36777c-0.43468,0.06184 -0.89677,-0.09909 -0.89677,-0.09909c0,0 0.07131,0.27244 0.01767,0.48313c-0.06897,0.27087 -0.25341,0.5734 -0.25341,0.5734c0,0 -0.32205,-0.53138 -0.79748,-0.74534c-0.3616,-0.16273 -0.48723,0.0832 -0.48702,0.08225c0.26407,-1.16648 1.13913,-2.88014 1.49948,-4.6814c0,0 13.42499,5.6659 12.93283,6.35307z" fill="#6d4321"/><path d="M229.03655,181.91597c0,0 -0.45761,-4.75989 0.19517,-6.38938c0.74809,-1.86738 3.26284,-4.44959 3.26284,-4.44959l18.40059,3.19175c0,0 -0.94033,6.62363 -1.84547,9.28179c-0.66294,1.94688 -4.46014,4.6908 -4.46014,4.6908c0,0 -2.25685,0.29138 -4.02518,-0.73975c-1.55624,-0.90745 -2.09667,-2.66217 -2.09667,-2.66217l-1.79784,-0.71807c0,0 -2.24548,1.08672 -4.56709,0.36547c-0.81641,-0.25363 -1.45339,-0.68213 -1.93006,-1.11733c-0.04098,-0.03741 -0.10251,0.56901 -0.10251,0.56901c0,0 0.25657,0.43713 1.01227,0.74782c0.63101,0.25942 1.49377,0.32775 1.49377,0.32775c0,0 -1.62959,0.48321 -2.79965,0.14747c-0.83208,-0.23876 -0.46416,-0.3429 -0.46416,-0.3429z" fill="#000000"/><path d="M229.56433,185.68441c-0.48619,0.28761 0.30758,-0.76779 0.30758,-0.76779c0,0 0.66105,0.18127 0.9136,0.49965c0.25256,0.31838 0.12245,0.80641 0.12245,0.80641c0,0 -0.30087,-1.15514 -1.34364,-0.53827z" fill="#000000"/></g><path d="M232.02372,173.81236l2.33155,-5.82004c0,0 7.89359,-2.79928 10.8177,-1.62786c2.71161,1.08629 6.13762,8.42028 6.13762,8.42028l-1.37833,4.19951c0,0 -0.02238,-3.15 -1.28733,-2.89855c-3.35538,0.66699 -8.28145,-0.07107 -8.28145,-0.07107c0,0 1.1805,-0.64611 1.76396,-0.97704c0.30597,-0.17354 0.6557,-0.49859 0.6557,-0.49859c0,0 -3.13483,0.49642 -5.68894,0.24287c-3.49219,-0.34668 -5.07048,-0.96952 -5.07048,-0.96952z" fill="#000000"/></g></g><g stroke="none" stroke-linecap="butt"><g fill="#6d4321" stroke-width="0"><path d="M229.96298,170.93606c0.2014,-0.40004 0.49395,-0.61221 0.49395,-0.61221c0,0 0.06116,-0.60895 0.40549,-1.22763c0.34026,-0.61135 0.82195,-0.94643 0.82195,-0.94643c0,0 4.41139,0.35452 11.71251,3.37581c7.30111,3.02129 9.87893,5.54448 9.87893,5.54448c0,0 0.11145,0.40576 -0.09746,0.96711c-0.15816,0.42496 -0.45667,0.77333 -0.45667,0.77333c0,0 0.17578,0.32498 0.0303,0.85447c-0.17024,0.61962 -0.54259,1.05716 -0.54259,1.05716c0,0 -3.39168,-2.82869 -10.11407,-5.75695c-5.60137,-2.43995 -12.3525,-3.02582 -12.3525,-3.02582c0,0 -0.03701,-0.49248 0.22016,-1.00331z"/><path d="M230.71222,170.5909c0.15016,-0.27693 0.40043,-0.40761 0.40043,-0.40761c0,0 0.00314,-0.44292 0.26556,-0.86833c0.25932,-0.42037 0.67263,-0.62506 0.67263,-0.62506c0,0 0.52367,0.08275 1.51607,0.32033c-0.37211,0.29906 -0.67213,0.69087 -0.85983,1.15943c-0.19873,0.49606 -0.247,1.01681 -0.16623,1.51555c-1.19748,-0.25334 -1.94349,-0.37495 -1.94349,-0.37495c0,0 -0.0769,-0.36574 0.11486,-0.71935z"/><g><path d="M252.66256,177.13684c0,0 0.13773,0.30839 -0.00529,0.70339c-0.10827,0.29903 -0.35215,0.52946 -0.35215,0.52946c0,0 0.18978,0.25453 0.10227,0.63161c-0.10241,0.44127 -0.40636,0.7309 -0.40636,0.7309c0,0 -0.55253,-0.39074 -1.63802,-1.03802c0.43487,-0.30969 0.78548,-0.73786 0.99549,-1.2621c0.13762,-0.34353 0.20309,-0.6989 0.20351,-1.0506c0.762,0.48301 1.10054,0.75535 1.10054,0.75535z"/><path d="M243.10444,172.19506c0.36043,0.14789 0.70914,0.29369 1.04638,0.43723c-0.35311,0.29458 -0.63799,0.6746 -0.81874,1.12578c-0.16467,0.41104 -0.22603,0.83904 -0.19628,1.25742c-0.30167,-0.13294 -0.61082,-0.26701 -0.9274,-0.40195c-0.49431,-0.2107 -0.99623,-0.41064 -1.50015,-0.60001c0.27928,-0.27081 0.50597,-0.60089 0.6585,-0.98164c0.19145,-0.4779 0.24326,-0.97872 0.17458,-1.4607c0.50344,0.19522 1.02466,0.40293 1.56311,0.62386z"/></g></g><g stroke-width="0.5"><g><g fill="#6d4321"><path d="M233.8049,169.90787c0.69152,-1.72617 2.78354,-2.512 4.67268,-1.7552c1.88913,0.7568 2.85999,2.76965 2.16847,4.49581c-0.69152,1.72617 -2.78354,2.512 -4.67268,1.7552c-1.88913,-0.7568 -2.85999,-2.76965 -2.16847,-4.49581z"/><g><path d="M233.45684,170.10356c0.64995,-1.62241 2.61915,-2.35983 4.39833,-1.64708c1.77918,0.71275 2.6946,2.60577 2.04465,4.22818c-0.64995,1.62241 -2.61914,2.35983 -4.39832,1.64708c-1.77918,-0.71275 -2.6946,-2.60577 -2.04466,-4.22818z"/><path d="M233.78802,170.23623c0.46372,-1.15754 1.67594,-1.81297 2.95571,-1.71128c-0.22513,0.25613 -0.41112,0.55408 -0.54503,0.88834c-0.63628,1.58829 0.1443,3.39519 1.74348,4.03583c0.26123,0.10465 0.52814,0.17171 0.79469,0.20374c-0.81933,0.63825 -2.00781,0.82019 -3.11438,0.37689c-1.59628,-0.63948 -2.41759,-2.33789 -1.83446,-3.79352z"/></g></g><path d="M234.1084,170.36457c0.5185,-1.29427 2.0408,-1.90202 3.40016,-1.35745c1.35936,0.54457 2.04102,2.03524 1.52252,3.32952c-0.5185,1.29427 -2.0408,1.90203 -3.40016,1.35746c-1.35936,-0.54457 -2.04102,-2.03525 -1.52253,-3.32952z" fill="#000000"/></g><g data-paper-data="{&quot;index&quot;:null}"><g fill="#6d4321"><path d="M251.00189,176.79711c-0.69152,1.72617 -2.78354,2.512 -4.67268,1.7552c-1.88913,-0.7568 -2.85999,-2.76965 -2.16847,-4.49581c0.69152,-1.72617 2.78354,-2.512 4.67268,-1.7552c1.88913,0.7568 2.85999,2.76965 2.16848,4.49582z"/><g><path d="M246.72026,178.82605c-1.77918,-0.71275 -2.6946,-2.60577 -2.04465,-4.22818c0.64995,-1.62241 2.61914,-2.35983 4.39832,-1.64708c1.77918,0.71275 2.6946,2.60577 2.04466,4.22818c-0.64995,1.62241 -2.61915,2.35983 -4.39833,1.64708z"/><path d="M250.78741,177.0463c-0.58313,1.45562 -2.34989,2.11724 -3.94617,1.47776c-1.10656,-0.4433 -1.84072,-1.39546 -1.99278,-2.42286c0.21494,0.16086 0.45432,0.29663 0.71555,0.40128c1.59917,0.64064 3.41137,-0.12758 4.04765,-1.71587c0.13391,-0.33426 0.20506,-0.67822 0.21903,-1.01894c0.99601,0.81 1.42043,2.12109 0.95671,3.27863z"/></g></g><path d="M247.06687,178.2754c-1.35936,-0.54457 -2.04102,-2.03524 -1.52252,-3.32952c0.51849,-1.29427 2.04079,-1.90202 3.40016,-1.35745c1.35936,0.54457 2.04102,2.03524 1.52253,3.32952c-0.5185,1.29427 -2.0408,1.90203 -3.40016,1.35746z" fill="#000000"/></g></g></g></g></g></g></svg>